<?xml version="1.0" encoding="UTF-8" standalone="no"?>
<!DOCTYPE svg PUBLIC "-//W3C//DTD SVG 1.1//EN"
 "http://www.w3.org/Graphics/SVG/1.1/DTD/svg11.dtd">
<!-- Generated by graphviz version 2.40.1 (20161225.0304)
 -->
<!-- Title: traffic_mngr.h Pages: 1 -->
<svg width="1591pt" height="845pt"
 viewBox="0.00 0.00 1591.00 845.00" xmlns="http://www.w3.org/2000/svg" xmlns:xlink="http://www.w3.org/1999/xlink">
<g id="graph0" class="graph" transform="scale(1 1) rotate(0) translate(4 841)">
<title>traffic_mngr.h</title>
<polygon fill="#ffffff" stroke="transparent" points="-4,4 -4,-841 1587,-841 1587,4 -4,4"/>
<!-- Node0 -->
<g id="node1" class="node">
<title>Node0</title>
<polygon fill="#bfbfbf" stroke="#000000" points="146,-817.5 146,-836.5 230,-836.5 230,-817.5 146,-817.5"/>
<text text-anchor="middle" x="188" y="-824.5" font-family="Helvetica,sans-Serif" font-size="10.00" fill="#000000">traffic_mngr.h</text>
</g>
<!-- Node1 -->
<g id="node2" class="node">
<title>Node1</title>
<g id="a_node2"><a xlink:href="visibility__begin_8h_source.html" target="_top" xlink:title="odp/visibility_begin.h">
<polygon fill="#ffffff" stroke="#000000" points="521.5,-.5 521.5,-19.5 642.5,-19.5 642.5,-.5 521.5,-.5"/>
<text text-anchor="middle" x="582" y="-7.5" font-family="Helvetica,sans-Serif" font-size="10.00" fill="#000000">odp/visibility_begin.h</text>
</a>
</g>
</g>
<!-- Node0&#45;&gt;Node1 -->
<g id="edge1" class="edge">
<title>Node0&#45;&gt;Node1</title>
<path fill="none" stroke="#191970" d="M145.8091,-820.8876C90.3805,-810.2007 0,-782.4356 0,-715 0,-715 0,-715 0,-133 0,-67.371 63.7971,-76.9275 126,-56 195.5665,-32.5951 401.6925,-19.0339 511.4204,-13.2839"/>
<polygon fill="#191970" stroke="#191970" points="511.6019,-16.7793 521.4081,-12.7682 511.2408,-9.7886 511.6019,-16.7793"/>
</g>
<!-- Node2 -->
<g id="node3" class="node">
<title>Node2</title>
<g id="a_node3"><a xlink:href="api_2std__types_8h.html" target="_top" xlink:title="Standard C language types and definitions for ODP. ">
<polygon fill="#ffffff" stroke="#000000" points="357,-246.5 357,-265.5 469,-265.5 469,-246.5 357,-246.5"/>
<text text-anchor="middle" x="413" y="-253.5" font-family="Helvetica,sans-Serif" font-size="10.00" fill="#000000">odp/api/std_types.h</text>
</a>
</g>
</g>
<!-- Node0&#45;&gt;Node2 -->
<g id="edge2" class="edge">
<title>Node0&#45;&gt;Node2</title>
<path fill="none" stroke="#191970" d="M152.0713,-817.4171C107.6951,-803.149 38,-771.7126 38,-715 38,-715 38,-715 38,-435 38,-356.5647 85.7255,-340.6096 154,-302 186.1683,-283.8086 281.1779,-270.2334 346.7162,-262.7083"/>
<polygon fill="#191970" stroke="#191970" points="347.4225,-266.1509 356.9675,-261.5527 346.6384,-259.195 347.4225,-266.1509"/>
</g>
<!-- Node9 -->
<g id="node10" class="node">
<title>Node9</title>
<g id="a_node10"><a xlink:href="visibility__end_8h_source.html" target="_top" xlink:title="odp/visibility_end.h">
<polygon fill="#ffffff" stroke="#000000" points="1299,-.5 1299,-19.5 1411,-19.5 1411,-.5 1299,-.5"/>
<text text-anchor="middle" x="1355" y="-7.5" font-family="Helvetica,sans-Serif" font-size="10.00" fill="#000000">odp/visibility_end.h</text>
</a>
</g>
</g>
<!-- Node0&#45;&gt;Node9 -->
<g id="edge76" class="edge">
<title>Node0&#45;&gt;Node9</title>
<path fill="none" stroke="#191970" d="M230.1296,-825.8781C463.0814,-819.4051 1583,-784.6631 1583,-715 1583,-715 1583,-715 1583,-133 1583,-58.8838 1488.5245,-29.2197 1421.2036,-17.4901"/>
<polygon fill="#191970" stroke="#191970" points="1421.5027,-13.9923 1411.0671,-15.8219 1420.366,-20.8994 1421.5027,-13.9923"/>
</g>
<!-- Node10 -->
<g id="node11" class="node">
<title>Node10</title>
<g id="a_node11"><a xlink:href="api_2packet__io_8h.html" target="_top" xlink:title="ODP Packet IO. ">
<polygon fill="#ffffff" stroke="#000000" points="231,-761.5 231,-780.5 343,-780.5 343,-761.5 231,-761.5"/>
<text text-anchor="middle" x="287" y="-768.5" font-family="Helvetica,sans-Serif" font-size="10.00" fill="#000000">odp/api/packet_io.h</text>
</a>
</g>
</g>
<!-- Node0&#45;&gt;Node10 -->
<g id="edge13" class="edge">
<title>Node0&#45;&gt;Node10</title>
<path fill="none" stroke="#191970" d="M205.2445,-817.2455C220.5761,-808.5731 243.2199,-795.7645 260.7916,-785.825"/>
<polygon fill="#191970" stroke="#191970" points="262.9724,-788.6126 269.9531,-780.6427 259.5259,-782.5198 262.9724,-788.6126"/>
</g>
<!-- Node3 -->
<g id="node4" class="node">
<title>Node3</title>
<polygon fill="#ffffff" stroke="#bfbfbf" points="158,-185 158,-204 288,-204 288,-185 158,-185"/>
<text text-anchor="middle" x="223" y="-192" font-family="Helvetica,sans-Serif" font-size="10.00" fill="#000000">odp/api/abi/std_types.h</text>
</g>
<!-- Node2&#45;&gt;Node3 -->
<g id="edge3" class="edge">
<title>Node2&#45;&gt;Node3</title>
<path fill="none" stroke="#191970" d="M383.3125,-246.3906C350.6854,-235.8298 298.1374,-218.8208 262.1575,-207.1747"/>
<polygon fill="#191970" stroke="#191970" points="263.0709,-203.7916 252.479,-204.0419 260.9152,-210.4514 263.0709,-203.7916"/>
</g>
<!-- Node4 -->
<g id="node5" class="node">
<title>Node4</title>
<g id="a_node5"><a xlink:href="api_2spec_2std__types_8h.html" target="_top" xlink:title="Standard C language types and definitions for ODP. ">
<polygon fill="#ffffff" stroke="#000000" points="344.5,-185 344.5,-204 481.5,-204 481.5,-185 344.5,-185"/>
<text text-anchor="middle" x="413" y="-192" font-family="Helvetica,sans-Serif" font-size="10.00" fill="#000000">odp/api/spec/std_types.h</text>
</a>
</g>
</g>
<!-- Node2&#45;&gt;Node4 -->
<g id="edge4" class="edge">
<title>Node2&#45;&gt;Node4</title>
<path fill="none" stroke="#191970" d="M413,-246.3906C413,-237.8657 413,-225.1392 413,-214.4235"/>
<polygon fill="#191970" stroke="#191970" points="416.5001,-214.2448 413,-204.2449 409.5001,-214.2449 416.5001,-214.2448"/>
</g>
<!-- Node4&#45;&gt;Node1 -->
<g id="edge5" class="edge">
<title>Node4&#45;&gt;Node1</title>
<path fill="none" stroke="#191970" d="M397.7013,-184.9564C362.3932,-161.7896 281.0494,-101.1644 319,-56 343.1585,-27.2493 442.0949,-16.4654 511.4722,-12.4223"/>
<polygon fill="#191970" stroke="#191970" points="511.6879,-15.9158 521.4812,-11.8734 511.3045,-8.9263 511.6879,-15.9158"/>
</g>
<!-- Node5 -->
<g id="node6" class="node">
<title>Node5</title>
<polygon fill="#ffffff" stroke="#bfbfbf" points="354.5,-123.5 354.5,-142.5 407.5,-142.5 407.5,-123.5 354.5,-123.5"/>
<text text-anchor="middle" x="381" y="-130.5" font-family="Helvetica,sans-Serif" font-size="10.00" fill="#000000">stdint.h</text>
</g>
<!-- Node4&#45;&gt;Node5 -->
<g id="edge6" class="edge">
<title>Node4&#45;&gt;Node5</title>
<path fill="none" stroke="#191970" d="M408,-184.8906C403.4242,-176.0965 396.5219,-162.8312 390.8417,-151.9145"/>
<polygon fill="#191970" stroke="#191970" points="393.7912,-150.0003 386.0705,-142.7449 387.5815,-153.2314 393.7912,-150.0003"/>
</g>
<!-- Node6 -->
<g id="node7" class="node">
<title>Node6</title>
<g id="a_node7"><a xlink:href="api_2align_8h.html" target="_top" xlink:title="ODP alignments. ">
<polygon fill="#ffffff" stroke="#000000" points="464.5,-123.5 464.5,-142.5 553.5,-142.5 553.5,-123.5 464.5,-123.5"/>
<text text-anchor="middle" x="509" y="-130.5" font-family="Helvetica,sans-Serif" font-size="10.00" fill="#000000">odp/api/align.h</text>
</a>
</g>
</g>
<!-- Node4&#45;&gt;Node6 -->
<g id="edge7" class="edge">
<title>Node4&#45;&gt;Node6</title>
<path fill="none" stroke="#191970" d="M428,-184.8906C443.3581,-175.0519 467.4521,-159.6167 485.3745,-148.1351"/>
<polygon fill="#191970" stroke="#191970" points="487.573,-150.8833 494.1053,-142.5419 483.797,-144.9891 487.573,-150.8833"/>
</g>
<!-- Node4&#45;&gt;Node9 -->
<g id="edge12" class="edge">
<title>Node4&#45;&gt;Node9</title>
<path fill="none" stroke="#191970" d="M481.7285,-189.1041C641.1767,-175.852 1031.8046,-138.9594 1152,-87 1172.3243,-78.214 1171.2843,-66.0778 1191,-56 1222.1246,-40.0904 1259.4722,-29.0656 1290.6599,-21.8065"/>
<polygon fill="#191970" stroke="#191970" points="1291.5658,-25.1903 1300.5536,-19.5806 1290.0292,-18.361 1291.5658,-25.1903"/>
</g>
<!-- Node7 -->
<g id="node8" class="node">
<title>Node7</title>
<polygon fill="#ffffff" stroke="#bfbfbf" points="361.5,-62 361.5,-81 468.5,-81 468.5,-62 361.5,-62"/>
<text text-anchor="middle" x="415" y="-69" font-family="Helvetica,sans-Serif" font-size="10.00" fill="#000000">odp/api/abi/align.h</text>
</g>
<!-- Node6&#45;&gt;Node7 -->
<g id="edge8" class="edge">
<title>Node6&#45;&gt;Node7</title>
<path fill="none" stroke="#191970" d="M494.3125,-123.3906C479.2744,-113.5519 455.6824,-98.1167 438.1333,-86.6351"/>
<polygon fill="#191970" stroke="#191970" points="439.8687,-83.588 429.5844,-81.0419 436.0363,-89.4457 439.8687,-83.588"/>
</g>
<!-- Node8 -->
<g id="node9" class="node">
<title>Node8</title>
<g id="a_node9"><a xlink:href="api_2spec_2align_8h.html" target="_top" xlink:title="ODP alignments. ">
<polygon fill="#ffffff" stroke="#000000" points="525,-62 525,-81 639,-81 639,-62 525,-62"/>
<text text-anchor="middle" x="582" y="-69" font-family="Helvetica,sans-Serif" font-size="10.00" fill="#000000">odp/api/spec/align.h</text>
</a>
</g>
</g>
<!-- Node6&#45;&gt;Node8 -->
<g id="edge9" class="edge">
<title>Node6&#45;&gt;Node8</title>
<path fill="none" stroke="#191970" d="M520.4063,-123.3906C531.6969,-113.8786 549.1967,-99.1357 562.6619,-87.7917"/>
<polygon fill="#191970" stroke="#191970" points="565.0402,-90.3646 570.4329,-81.2449 560.5301,-85.0111 565.0402,-90.3646"/>
</g>
<!-- Node8&#45;&gt;Node1 -->
<g id="edge10" class="edge">
<title>Node8&#45;&gt;Node1</title>
<path fill="none" stroke="#191970" d="M582,-61.8906C582,-53.3657 582,-40.6392 582,-29.9235"/>
<polygon fill="#191970" stroke="#191970" points="585.5001,-29.7448 582,-19.7449 578.5001,-29.7449 585.5001,-29.7448"/>
</g>
<!-- Node8&#45;&gt;Node9 -->
<g id="edge11" class="edge">
<title>Node8&#45;&gt;Node9</title>
<path fill="none" stroke="#191970" d="M617.7578,-61.964C627.5041,-59.6773 638.1045,-57.4735 648,-56 770.4964,-37.7595 1137.742,-19.7525 1288.8948,-12.8981"/>
<polygon fill="#191970" stroke="#191970" points="1289.1342,-16.3909 1298.9661,-12.4434 1288.8184,-9.3981 1289.1342,-16.3909"/>
</g>
<!-- Node10&#45;&gt;Node2 -->
<g id="edge14" class="edge">
<title>Node10&#45;&gt;Node2</title>
<path fill="none" stroke="#191970" d="M238.8099,-761.4674C187.6206,-748.208 114,-718.7517 114,-659 114,-659 114,-659 114,-379 114,-327.572 267.1982,-286.7469 354.2763,-267.6957"/>
<polygon fill="#191970" stroke="#191970" points="355.2572,-271.0648 364.295,-265.5359 353.782,-264.222 355.2572,-271.0648"/>
</g>
<!-- Node11 -->
<g id="node12" class="node">
<title>Node11</title>
<polygon fill="#ffffff" stroke="#bfbfbf" points="1299,-369.5 1299,-388.5 1403,-388.5 1403,-369.5 1299,-369.5"/>
<text text-anchor="middle" x="1351" y="-376.5" font-family="Helvetica,sans-Serif" font-size="10.00" fill="#000000">odp/api/abi/pool.h</text>
</g>
<!-- Node10&#45;&gt;Node11 -->
<g id="edge15" class="edge">
<title>Node10&#45;&gt;Node11</title>
<path fill="none" stroke="#191970" d="M343.3963,-768.8198C583.3332,-759.1796 1507,-718.2226 1507,-659 1507,-659 1507,-659 1507,-603 1507,-510.1162 1415.5584,-428.1578 1372.6931,-394.8407"/>
<polygon fill="#191970" stroke="#191970" points="1374.6484,-391.9305 1364.5711,-388.6597 1370.4092,-397.5009 1374.6484,-391.9305"/>
</g>
<!-- Node12 -->
<g id="node13" class="node">
<title>Node12</title>
<polygon fill="#ffffff" stroke="#bfbfbf" points="264,-705.5 264,-724.5 410,-724.5 410,-705.5 264,-705.5"/>
<text text-anchor="middle" x="337" y="-712.5" font-family="Helvetica,sans-Serif" font-size="10.00" fill="#000000">odp/api/abi/classification.h</text>
</g>
<!-- Node10&#45;&gt;Node12 -->
<g id="edge16" class="edge">
<title>Node10&#45;&gt;Node12</title>
<path fill="none" stroke="#191970" d="M295.7093,-761.2455C302.8073,-753.2958 313.0084,-741.8706 321.495,-732.3656"/>
<polygon fill="#191970" stroke="#191970" points="324.3411,-734.4331 328.3905,-724.6427 319.1195,-729.771 324.3411,-734.4331"/>
</g>
<!-- Node13 -->
<g id="node14" class="node">
<title>Node13</title>
<polygon fill="#ffffff" stroke="#bfbfbf" points="142,-369.5 142,-388.5 258,-388.5 258,-369.5 142,-369.5"/>
<text text-anchor="middle" x="200" y="-376.5" font-family="Helvetica,sans-Serif" font-size="10.00" fill="#000000">odp/api/abi/packet.h</text>
</g>
<!-- Node10&#45;&gt;Node13 -->
<g id="edge17" class="edge">
<title>Node10&#45;&gt;Node13</title>
<path fill="none" stroke="#191970" d="M271.4974,-761.3744C245.9983,-744.2074 198,-705.6919 198,-659 198,-659 198,-659 198,-491 198,-458.7064 198.8415,-421.1836 199.4328,-398.8029"/>
<polygon fill="#191970" stroke="#191970" points="202.9374,-398.6797 199.7134,-388.5873 195.9401,-398.4874 202.9374,-398.6797"/>
</g>
<!-- Node14 -->
<g id="node15" class="node">
<title>Node14</title>
<polygon fill="#ffffff" stroke="#bfbfbf" points="276,-369.5 276,-388.5 406,-388.5 406,-369.5 276,-369.5"/>
<text text-anchor="middle" x="341" y="-376.5" font-family="Helvetica,sans-Serif" font-size="10.00" fill="#000000">odp/api/abi/packet_io.h</text>
</g>
<!-- Node10&#45;&gt;Node14 -->
<g id="edge18" class="edge">
<title>Node10&#45;&gt;Node14</title>
<path fill="none" stroke="#191970" d="M278.8732,-761.3546C271.7089,-752.4271 261.4362,-738.5288 255,-725 241.8866,-697.4357 236,-689.5246 236,-659 236,-659 236,-659 236,-491 236,-446.1218 281.4239,-411.8269 312.5184,-393.6081"/>
<polygon fill="#191970" stroke="#191970" points="314.2562,-396.6463 321.2503,-388.688 310.82,-390.5478 314.2562,-396.6463"/>
</g>
<!-- Node15 -->
<g id="node16" class="node">
<title>Node15</title>
<polygon fill="#ffffff" stroke="#bfbfbf" points="382.5,-593.5 382.5,-612.5 495.5,-612.5 495.5,-593.5 382.5,-593.5"/>
<text text-anchor="middle" x="439" y="-600.5" font-family="Helvetica,sans-Serif" font-size="10.00" fill="#000000">odp/api/abi/queue.h</text>
</g>
<!-- Node10&#45;&gt;Node15 -->
<g id="edge19" class="edge">
<title>Node10&#45;&gt;Node15</title>
<path fill="none" stroke="#191970" d="M328.4436,-761.4691C362.5306,-752.7776 407.0934,-739.1652 419,-725 443.3007,-696.0894 443.6443,-649.2836 441.4837,-622.8417"/>
<polygon fill="#191970" stroke="#191970" points="444.9317,-622.1554 440.4295,-612.5648 437.9683,-622.8698 444.9317,-622.1554"/>
</g>
<!-- Node16 -->
<g id="node17" class="node">
<title>Node16</title>
<g id="a_node17"><a xlink:href="api_2spec_2packet__io_8h.html" target="_top" xlink:title="ODP Packet IO. ">
<polygon fill="#ffffff" stroke="#000000" points="573.5,-705.5 573.5,-724.5 710.5,-724.5 710.5,-705.5 573.5,-705.5"/>
<text text-anchor="middle" x="642" y="-712.5" font-family="Helvetica,sans-Serif" font-size="10.00" fill="#000000">odp/api/spec/packet_io.h</text>
</a>
</g>
</g>
<!-- Node10&#45;&gt;Node16 -->
<g id="edge20" class="edge">
<title>Node10&#45;&gt;Node16</title>
<path fill="none" stroke="#191970" d="M343.2508,-762.1266C405.0832,-752.3728 504.5177,-736.6873 571.5076,-726.1199"/>
<polygon fill="#191970" stroke="#191970" points="572.2259,-729.55 581.5584,-724.5345 571.1351,-722.6355 572.2259,-729.55"/>
</g>
<!-- Node16&#45;&gt;Node1 -->
<g id="edge21" class="edge">
<title>Node16&#45;&gt;Node1</title>
<path fill="none" stroke="#191970" d="M601.432,-705.4817C466.0077,-671.0606 38,-539.8222 38,-256 38,-256 38,-256 38,-133 38,-85.0408 363.8188,-37.6449 511.1497,-18.6647"/>
<polygon fill="#191970" stroke="#191970" points="511.9673,-22.0887 521.4421,-17.3476 511.0787,-15.1453 511.9673,-22.0887"/>
</g>
<!-- Node16&#45;&gt;Node9 -->
<g id="edge75" class="edge">
<title>Node16&#45;&gt;Node9</title>
<path fill="none" stroke="#191970" d="M710.6916,-713.109C857.5135,-708.6049 1197.6534,-695.5782 1310,-669 1372.8132,-654.1401 1401.1808,-661.2994 1444,-613 1553.3876,-489.6125 1545,-420.8943 1545,-256 1545,-256 1545,-256 1545,-133 1545,-69.7971 1469.9973,-37.4596 1414.2391,-22.1519"/>
<polygon fill="#191970" stroke="#191970" points="1414.9852,-18.7293 1404.4243,-19.5758 1413.2081,-25.4999 1414.9852,-18.7293"/>
</g>
<!-- Node17 -->
<g id="node18" class="node">
<title>Node17</title>
<g id="a_node18"><a xlink:href="deprecated_8h.html" target="_top" xlink:title="Control deprecated API definitions. ">
<polygon fill="#ffffff" stroke="#000000" points="1010.5,-246.5 1010.5,-265.5 1129.5,-265.5 1129.5,-246.5 1010.5,-246.5"/>
<text text-anchor="middle" x="1070" y="-253.5" font-family="Helvetica,sans-Serif" font-size="10.00" fill="#000000">odp/api/deprecated.h</text>
</a>
</g>
</g>
<!-- Node16&#45;&gt;Node17 -->
<g id="edge22" class="edge">
<title>Node16&#45;&gt;Node17</title>
<path fill="none" stroke="#191970" d="M710.6383,-712.429C902.5972,-704.3319 1431,-675.4621 1431,-603 1431,-603 1431,-603 1431,-379 1431,-346.6333 1220.392,-291.9521 1120.9039,-267.9271"/>
<polygon fill="#191970" stroke="#191970" points="1121.6007,-264.495 1111.0598,-265.5624 1119.9657,-271.3013 1121.6007,-264.495"/>
</g>
<!-- Node19 -->
<g id="node20" class="node">
<title>Node19</title>
<g id="a_node20"><a xlink:href="packet__io__stats_8h.html" target="_top" xlink:title="ODP packet IO stats. ">
<polygon fill="#ffffff" stroke="#000000" points="785.5,-649.5 785.5,-668.5 926.5,-668.5 926.5,-649.5 785.5,-649.5"/>
<text text-anchor="middle" x="856" y="-656.5" font-family="Helvetica,sans-Serif" font-size="10.00" fill="#000000">odp/api/packet_io_stats.h</text>
</a>
</g>
</g>
<!-- Node16&#45;&gt;Node19 -->
<g id="edge26" class="edge">
<title>Node16&#45;&gt;Node19</title>
<path fill="none" stroke="#191970" d="M678.7879,-705.3733C715.0661,-695.8799 770.6236,-681.3415 809.8446,-671.0781"/>
<polygon fill="#191970" stroke="#191970" points="810.904,-674.4188 819.6921,-668.5011 809.1318,-667.6468 810.904,-674.4188"/>
</g>
<!-- Node21 -->
<g id="node22" class="node">
<title>Node21</title>
<g id="a_node22"><a xlink:href="api_2queue_8h.html" target="_top" xlink:title="ODP queue. ">
<polygon fill="#ffffff" stroke="#000000" points="672.5,-649.5 672.5,-668.5 767.5,-668.5 767.5,-649.5 672.5,-649.5"/>
<text text-anchor="middle" x="720" y="-656.5" font-family="Helvetica,sans-Serif" font-size="10.00" fill="#000000">odp/api/queue.h</text>
</a>
</g>
</g>
<!-- Node16&#45;&gt;Node21 -->
<g id="edge30" class="edge">
<title>Node16&#45;&gt;Node21</title>
<path fill="none" stroke="#191970" d="M655.5866,-705.2455C667.3305,-696.814 684.5199,-684.4729 698.1882,-674.6598"/>
<polygon fill="#191970" stroke="#191970" points="700.4871,-677.3179 706.5691,-668.6427 696.4046,-671.6316 700.4871,-677.3179"/>
</g>
<!-- Node27 -->
<g id="node28" class="node">
<title>Node27</title>
<g id="a_node28"><a xlink:href="api_2packet_8h.html" target="_top" xlink:title="ODP packet descriptor. ">
<polygon fill="#ffffff" stroke="#000000" points="591,-425.5 591,-444.5 689,-444.5 689,-425.5 591,-425.5"/>
<text text-anchor="middle" x="640" y="-432.5" font-family="Helvetica,sans-Serif" font-size="10.00" fill="#000000">odp/api/packet.h</text>
</a>
</g>
</g>
<!-- Node16&#45;&gt;Node27 -->
<g id="edge74" class="edge">
<title>Node16&#45;&gt;Node27</title>
<path fill="none" stroke="#191970" d="M641.9312,-705.3618C641.6439,-665.1418 640.5373,-510.2159 640.1416,-454.8288"/>
<polygon fill="#191970" stroke="#191970" points="643.64,-454.5724 640.0686,-444.5977 636.6402,-454.6225 643.64,-454.5724"/>
</g>
<!-- Node29 -->
<g id="node30" class="node">
<title>Node29</title>
<g id="a_node30"><a xlink:href="api_2time_8h.html" target="_top" xlink:title="ODP time. ">
<polygon fill="#ffffff" stroke="#000000" points="587.5,-308 587.5,-327 674.5,-327 674.5,-308 587.5,-308"/>
<text text-anchor="middle" x="631" y="-315" font-family="Helvetica,sans-Serif" font-size="10.00" fill="#000000">odp/api/time.h</text>
</a>
</g>
</g>
<!-- Node16&#45;&gt;Node29 -->
<g id="edge73" class="edge">
<title>Node16&#45;&gt;Node29</title>
<path fill="none" stroke="#191970" d="M618.8846,-705.4252C584.7872,-689.5793 525,-654.458 525,-603 525,-603 525,-603 525,-491 525,-433.6546 534.037,-415.9248 567,-369 577.191,-354.4925 592.576,-341.9307 605.7075,-332.8459"/>
<polygon fill="#191970" stroke="#191970" points="607.9378,-335.5671 614.3471,-327.1307 604.0757,-329.7289 607.9378,-335.5671"/>
</g>
<!-- Node18 -->
<g id="node19" class="node">
<title>Node18</title>
<g id="a_node19"><a xlink:href="spec_2deprecated_8h.html" target="_top" xlink:title="Macro for deprecated API definitions. ">
<polygon fill="#ffffff" stroke="#000000" points="997.5,-62 997.5,-81 1142.5,-81 1142.5,-62 997.5,-62"/>
<text text-anchor="middle" x="1070" y="-69" font-family="Helvetica,sans-Serif" font-size="10.00" fill="#000000">odp/api/spec/deprecated.h</text>
</a>
</g>
</g>
<!-- Node17&#45;&gt;Node18 -->
<g id="edge23" class="edge">
<title>Node17&#45;&gt;Node18</title>
<path fill="none" stroke="#191970" d="M1070,-246.3402C1070,-217.3223 1070,-130.5088 1070,-91.2113"/>
<polygon fill="#191970" stroke="#191970" points="1073.5001,-91.0641 1070,-81.0641 1066.5001,-91.0642 1073.5001,-91.0641"/>
</g>
<!-- Node18&#45;&gt;Node1 -->
<g id="edge24" class="edge">
<title>Node18&#45;&gt;Node1</title>
<path fill="none" stroke="#191970" d="M1019.4817,-61.9523C1007.5426,-59.8478 994.8407,-57.7322 983,-56 867.6352,-39.1229 732.8405,-24.7527 652.6045,-16.7599"/>
<polygon fill="#191970" stroke="#191970" points="652.9111,-13.2732 642.6146,-15.7697 652.2206,-20.2391 652.9111,-13.2732"/>
</g>
<!-- Node18&#45;&gt;Node9 -->
<g id="edge25" class="edge">
<title>Node18&#45;&gt;Node9</title>
<path fill="none" stroke="#191970" d="M1114.2185,-61.9581C1164.4527,-51.1181 1246.4573,-33.4224 1300.5772,-21.7439"/>
<polygon fill="#191970" stroke="#191970" points="1301.641,-25.095 1310.6777,-19.5643 1300.1644,-18.2524 1301.641,-25.095"/>
</g>
<!-- Node20 -->
<g id="node21" class="node">
<title>Node20</title>
<g id="a_node21"><a xlink:href="spec_2packet__io__stats_8h.html" target="_top" xlink:title="ODP Packet IO. ">
<polygon fill="#ffffff" stroke="#000000" points="789,-56.5 789,-86.5 903,-86.5 903,-56.5 789,-56.5"/>
<text text-anchor="start" x="797" y="-74.5" font-family="Helvetica,sans-Serif" font-size="10.00" fill="#000000">odp/api/spec/packet</text>
<text text-anchor="middle" x="846" y="-63.5" font-family="Helvetica,sans-Serif" font-size="10.00" fill="#000000">_io_stats.h</text>
</a>
</g>
</g>
<!-- Node19&#45;&gt;Node20 -->
<g id="edge27" class="edge">
<title>Node19&#45;&gt;Node20</title>
<path fill="none" stroke="#191970" d="M856,-649.4116C856,-630.0538 856,-584.9167 856,-547 856,-547 856,-547 856,-379 856,-274.0307 850.1069,-149.012 847.3686,-96.5852"/>
<polygon fill="#191970" stroke="#191970" points="850.8603,-96.3336 846.8354,-86.533 843.8701,-96.7044 850.8603,-96.3336"/>
</g>
<!-- Node20&#45;&gt;Node1 -->
<g id="edge28" class="edge">
<title>Node20&#45;&gt;Node1</title>
<path fill="none" stroke="#191970" d="M788.7645,-58.0495C785.8006,-57.3557 782.8654,-56.6693 780,-56 730.103,-44.3448 673.1133,-31.1132 633.1273,-21.8427"/>
<polygon fill="#191970" stroke="#191970" points="633.8745,-18.4231 623.3424,-19.5745 632.2937,-25.2423 633.8745,-18.4231"/>
</g>
<!-- Node20&#45;&gt;Node9 -->
<g id="edge29" class="edge">
<title>Node20&#45;&gt;Node9</title>
<path fill="none" stroke="#191970" d="M903.3993,-64.5647C998.5393,-53.0694 1188.3676,-30.1334 1288.9356,-17.9822"/>
<polygon fill="#191970" stroke="#191970" points="1289.466,-21.4437 1298.9739,-16.7694 1288.6262,-14.4942 1289.466,-21.4437"/>
</g>
<!-- Node21&#45;&gt;Node2 -->
<g id="edge31" class="edge">
<title>Node21&#45;&gt;Node2</title>
<path fill="none" stroke="#191970" d="M710.4531,-649.4846C692.8918,-631.8239 654.5572,-592.5348 625,-557 545.7601,-461.7346 527.7483,-436.0929 459,-333 445.9788,-313.4737 432.3453,-290.2497 423.334,-274.4501"/>
<polygon fill="#191970" stroke="#191970" points="426.3379,-272.6516 418.3673,-265.6715 420.2454,-276.0986 426.3379,-272.6516"/>
</g>
<!-- Node21&#45;&gt;Node11 -->
<g id="edge35" class="edge">
<title>Node21&#45;&gt;Node11</title>
<path fill="none" stroke="#191970" d="M767.5386,-650.3438C770.7359,-649.8592 773.9119,-649.4054 777,-649 958.8064,-625.135 1010.8548,-660.3571 1188,-613 1255.2339,-595.026 1330,-616.5949 1330,-547 1330,-547 1330,-547 1330,-491 1330,-458.1675 1338.8257,-420.834 1345.034,-398.634"/>
<polygon fill="#191970" stroke="#191970" points="1348.4701,-399.3521 1347.9014,-388.7725 1341.7485,-397.3977 1348.4701,-399.3521"/>
</g>
<!-- Node21&#45;&gt;Node15 -->
<g id="edge33" class="edge">
<title>Node21&#45;&gt;Node15</title>
<path fill="none" stroke="#191970" d="M672.3322,-649.5004C623.8893,-639.8463 548.7962,-624.8811 496.9468,-614.5481"/>
<polygon fill="#191970" stroke="#191970" points="497.3929,-611.0683 486.9017,-612.5462 496.0247,-617.9333 497.3929,-611.0683"/>
</g>
<!-- Node22 -->
<g id="node23" class="node">
<title>Node22</title>
<polygon fill="#ffffff" stroke="#bfbfbf" points="1133,-369.5 1133,-388.5 1243,-388.5 1243,-369.5 1133,-369.5"/>
<text text-anchor="middle" x="1188" y="-376.5" font-family="Helvetica,sans-Serif" font-size="10.00" fill="#000000">odp/api/abi/event.h</text>
</g>
<!-- Node21&#45;&gt;Node22 -->
<g id="edge32" class="edge">
<title>Node21&#45;&gt;Node22</title>
<path fill="none" stroke="#191970" d="M767.5723,-650.5723C770.7615,-650.0325 773.9265,-649.504 777,-649 879.4691,-632.1982 1233,-650.8375 1233,-547 1233,-547 1233,-547 1233,-491 1233,-455.7698 1213.5922,-418.5087 1200.2676,-397.0783"/>
<polygon fill="#191970" stroke="#191970" points="1203.1988,-395.1655 1194.8345,-388.6623 1197.3178,-398.9621 1203.1988,-395.1655"/>
</g>
<!-- Node23 -->
<g id="node24" class="node">
<title>Node23</title>
<polygon fill="#ffffff" stroke="#bfbfbf" points="718,-369.5 718,-388.5 828,-388.5 828,-369.5 718,-369.5"/>
<text text-anchor="middle" x="773" y="-376.5" font-family="Helvetica,sans-Serif" font-size="10.00" fill="#000000">odp/api/abi/buffer.h</text>
</g>
<!-- Node21&#45;&gt;Node23 -->
<g id="edge34" class="edge">
<title>Node21&#45;&gt;Node23</title>
<path fill="none" stroke="#191970" d="M723.8364,-649.2883C731.0687,-630.0769 746,-585.7253 746,-547 746,-547 746,-547 746,-491 746,-457.6538 757.4512,-420.2392 765.4386,-398.1981"/>
<polygon fill="#191970" stroke="#191970" points="768.7673,-399.29 769.0161,-388.6981 762.2164,-396.823 768.7673,-399.29"/>
</g>
<!-- Node24 -->
<g id="node25" class="node">
<title>Node24</title>
<g id="a_node25"><a xlink:href="api_2spec_2queue_8h.html" target="_top" xlink:title="ODP queue. ">
<polygon fill="#ffffff" stroke="#000000" points="884,-593.5 884,-612.5 1004,-612.5 1004,-593.5 884,-593.5"/>
<text text-anchor="middle" x="944" y="-600.5" font-family="Helvetica,sans-Serif" font-size="10.00" fill="#000000">odp/api/spec/queue.h</text>
</a>
</g>
</g>
<!-- Node21&#45;&gt;Node24 -->
<g id="edge36" class="edge">
<title>Node21&#45;&gt;Node24</title>
<path fill="none" stroke="#191970" d="M758.2525,-649.4369C796.3467,-639.9133 854.9313,-625.2672 896.0987,-614.9753"/>
<polygon fill="#191970" stroke="#191970" points="897.0528,-618.3446 905.9053,-612.5237 895.355,-611.5536 897.0528,-618.3446"/>
</g>
<!-- Node24&#45;&gt;Node1 -->
<g id="edge37" class="edge">
<title>Node24&#45;&gt;Node1</title>
<path fill="none" stroke="#191970" d="M888.5928,-593.445C771.5918,-569.7563 510,-496.7499 510,-317.5 510,-317.5 510,-317.5 510,-256 510,-220.6422 509.6292,-208.4086 490,-179 467.1025,-144.6949 450.4975,-145.6066 416,-123 388.7033,-105.1121 368.476,-115.1714 352,-87 345.0443,-75.1069 343.265,-66.6549 352,-56 371.8901,-31.738 451.1613,-20.0176 511.125,-14.5309"/>
<polygon fill="#191970" stroke="#191970" points="511.6654,-17.9971 521.3229,-13.64 511.0562,-11.0236 511.6654,-17.9971"/>
</g>
<!-- Node24&#45;&gt;Node9 -->
<g id="edge72" class="edge">
<title>Node24&#45;&gt;Node9</title>
<path fill="none" stroke="#191970" d="M982.6303,-593.466C1009.4009,-585.8901 1045.2568,-573.7698 1074,-557 1183.9279,-492.8643 1176.2016,-425.9865 1290,-369 1357.8905,-335.0027 1394.4893,-376.097 1457,-333 1490.5941,-309.8391 1507,-296.8043 1507,-256 1507,-256 1507,-256 1507,-133 1507,-75.5987 1440.6847,-40.3636 1395.6591,-23.0557"/>
<polygon fill="#191970" stroke="#191970" points="1396.7195,-19.7163 1386.1263,-19.5336 1394.2935,-26.2825 1396.7195,-19.7163"/>
</g>
<!-- Node25 -->
<g id="node26" class="node">
<title>Node25</title>
<g id="a_node26"><a xlink:href="api_2event_8h.html" target="_top" xlink:title="ODP event. ">
<polygon fill="#ffffff" stroke="#000000" points="973,-537.5 973,-556.5 1065,-556.5 1065,-537.5 973,-537.5"/>
<text text-anchor="middle" x="1019" y="-544.5" font-family="Helvetica,sans-Serif" font-size="10.00" fill="#000000">odp/api/event.h</text>
</a>
</g>
</g>
<!-- Node24&#45;&gt;Node25 -->
<g id="edge38" class="edge">
<title>Node24&#45;&gt;Node25</title>
<path fill="none" stroke="#191970" d="M957.064,-593.2455C968.3562,-584.814 984.8845,-572.4729 998.0271,-562.6598"/>
<polygon fill="#191970" stroke="#191970" points="1000.1669,-565.4301 1006.0857,-556.6427 995.9789,-559.8211 1000.1669,-565.4301"/>
</g>
<!-- Node32 -->
<g id="node33" class="node">
<title>Node32</title>
<g id="a_node33"><a xlink:href="queue__types_8h.html" target="_top" xlink:title="ODP queue types. ">
<polygon fill="#ffffff" stroke="#000000" points="1014.5,-302.5 1014.5,-332.5 1125.5,-332.5 1125.5,-302.5 1014.5,-302.5"/>
<text text-anchor="start" x="1022.5" y="-320.5" font-family="Helvetica,sans-Serif" font-size="10.00" fill="#000000">odp/api/spec/queue</text>
<text text-anchor="middle" x="1070" y="-309.5" font-family="Helvetica,sans-Serif" font-size="10.00" fill="#000000">_types.h</text>
</a>
</g>
</g>
<!-- Node24&#45;&gt;Node32 -->
<g id="edge59" class="edge">
<title>Node24&#45;&gt;Node32</title>
<path fill="none" stroke="#191970" d="M942.2807,-593.4486C938.9626,-574.1572 932,-529.1337 932,-491 932,-491 932,-491 932,-435 932,-387.6621 979.6566,-355.3837 1018.9585,-336.8128"/>
<polygon fill="#191970" stroke="#191970" points="1020.5608,-339.9293 1028.221,-332.61 1017.6683,-333.5548 1020.5608,-339.9293"/>
</g>
<!-- Node25&#45;&gt;Node22 -->
<g id="edge39" class="edge">
<title>Node25&#45;&gt;Node22</title>
<path fill="none" stroke="#191970" d="M1035.8917,-537.4326C1050.2688,-528.8697 1071.0635,-515.4647 1087,-501 1123.2675,-468.0818 1157.9631,-421.9077 1175.7158,-396.8616"/>
<polygon fill="#191970" stroke="#191970" points="1178.5939,-398.8532 1181.4612,-388.6537 1172.8592,-394.839 1178.5939,-398.8532"/>
</g>
<!-- Node26 -->
<g id="node27" class="node">
<title>Node26</title>
<g id="a_node27"><a xlink:href="api_2spec_2event_8h.html" target="_top" xlink:title="ODP event. ">
<polygon fill="#ffffff" stroke="#000000" points="960,-481.5 960,-500.5 1078,-500.5 1078,-481.5 960,-481.5"/>
<text text-anchor="middle" x="1019" y="-488.5" font-family="Helvetica,sans-Serif" font-size="10.00" fill="#000000">odp/api/spec/event.h</text>
</a>
</g>
</g>
<!-- Node25&#45;&gt;Node26 -->
<g id="edge40" class="edge">
<title>Node25&#45;&gt;Node26</title>
<path fill="none" stroke="#191970" d="M1019,-537.2455C1019,-529.9382 1019,-519.6944 1019,-510.7046"/>
<polygon fill="#191970" stroke="#191970" points="1022.5001,-510.6426 1019,-500.6427 1015.5001,-510.6427 1022.5001,-510.6426"/>
</g>
<!-- Node26&#45;&gt;Node1 -->
<g id="edge41" class="edge">
<title>Node26&#45;&gt;Node1</title>
<path fill="none" stroke="#191970" d="M1007.4472,-481.4606C982.4561,-460.8427 921.4725,-410.6257 870,-369 733.7776,-258.8373 699.4285,-231.6542 562,-123 541.635,-106.899 527.371,-110.3383 516,-87 509.9653,-74.6141 509.6248,-68.2141 516,-56 523.1245,-42.3502 536.3523,-31.926 549.1056,-24.4806"/>
<polygon fill="#191970" stroke="#191970" points="551.0647,-27.4012 558.2141,-19.5822 547.7492,-21.2362 551.0647,-27.4012"/>
</g>
<!-- Node26&#45;&gt;Node9 -->
<g id="edge58" class="edge">
<title>Node26&#45;&gt;Node9</title>
<path fill="none" stroke="#191970" d="M1024.7767,-481.1868C1038.8146,-458.176 1077.0423,-400.3278 1124,-369 1258.2203,-279.4551 1469,-417.3486 1469,-256 1469,-256 1469,-256 1469,-133 1469,-82.7008 1417.0841,-44.2744 1383.3217,-24.6028"/>
<polygon fill="#191970" stroke="#191970" points="1384.7714,-21.4029 1374.3385,-19.5575 1381.3435,-27.5062 1384.7714,-21.4029"/>
</g>
<!-- Node26&#45;&gt;Node27 -->
<g id="edge42" class="edge">
<title>Node26&#45;&gt;Node27</title>
<path fill="none" stroke="#191970" d="M959.7813,-482.25C888.7426,-471.7535 770.3608,-454.2617 699.2903,-443.7606"/>
<polygon fill="#191970" stroke="#191970" points="699.5633,-440.263 689.1591,-442.2636 698.5401,-447.1878 699.5633,-440.263"/>
</g>
<!-- Node27&#45;&gt;Node2 -->
<g id="edge43" class="edge">
<title>Node27&#45;&gt;Node2</title>
<path fill="none" stroke="#191970" d="M623.2982,-425.4491C608.1915,-416.5852 585.5405,-402.7271 567,-389 514.8011,-350.3526 458.1493,-298.6188 430.363,-272.5283"/>
<polygon fill="#191970" stroke="#191970" points="432.6851,-269.9072 423.0102,-265.5887 427.8804,-274.9979 432.6851,-269.9072"/>
</g>
<!-- Node27&#45;&gt;Node11 -->
<g id="edge48" class="edge">
<title>Node27&#45;&gt;Node11</title>
<path fill="none" stroke="#191970" d="M689.2185,-431.7307C793.2078,-424.7285 1042.9064,-407.4153 1252,-389 1263.898,-387.9521 1276.5905,-386.7408 1288.7806,-385.5308"/>
<polygon fill="#191970" stroke="#191970" points="1289.2729,-388.9991 1298.8736,-384.5184 1288.5741,-382.0341 1289.2729,-388.9991"/>
</g>
<!-- Node27&#45;&gt;Node13 -->
<g id="edge46" class="edge">
<title>Node27&#45;&gt;Node13</title>
<path fill="none" stroke="#191970" d="M590.7721,-429.3334C521.3106,-421.2485 390.2999,-405.6729 268.3533,-389.1578"/>
<polygon fill="#191970" stroke="#191970" points="268.4721,-385.6418 258.0917,-387.7628 267.5291,-392.578 268.4721,-385.6418"/>
</g>
<!-- Node27&#45;&gt;Node14 -->
<g id="edge45" class="edge">
<title>Node27&#45;&gt;Node14</title>
<path fill="none" stroke="#191970" d="M590.961,-425.8154C539.2579,-416.1319 457.718,-400.8602 401.9225,-390.4102"/>
<polygon fill="#191970" stroke="#191970" points="402.2903,-386.9183 391.8168,-388.5175 401.0016,-393.7987 402.2903,-386.9183"/>
</g>
<!-- Node27&#45;&gt;Node22 -->
<g id="edge44" class="edge">
<title>Node27&#45;&gt;Node22</title>
<path fill="none" stroke="#191970" d="M689.1136,-429.9811C788.0864,-419.8671 1011.5183,-397.0346 1122.6643,-385.6766"/>
<polygon fill="#191970" stroke="#191970" points="1123.1458,-389.1458 1132.7382,-384.6472 1122.4342,-382.182 1123.1458,-389.1458"/>
</g>
<!-- Node27&#45;&gt;Node23 -->
<g id="edge47" class="edge">
<title>Node27&#45;&gt;Node23</title>
<path fill="none" stroke="#191970" d="M662.8635,-425.3733C684.405,-416.3032 716.8838,-402.6279 740.9956,-392.4755"/>
<polygon fill="#191970" stroke="#191970" points="742.5767,-395.6075 750.4348,-388.5011 739.8603,-389.156 742.5767,-395.6075"/>
</g>
<!-- Node28 -->
<g id="node29" class="node">
<title>Node28</title>
<g id="a_node29"><a xlink:href="api_2spec_2packet_8h.html" target="_top" xlink:title="ODP packet descriptor. ">
<polygon fill="#ffffff" stroke="#000000" points="576.5,-369.5 576.5,-388.5 699.5,-388.5 699.5,-369.5 576.5,-369.5"/>
<text text-anchor="middle" x="638" y="-376.5" font-family="Helvetica,sans-Serif" font-size="10.00" fill="#000000">odp/api/spec/packet.h</text>
</a>
</g>
</g>
<!-- Node27&#45;&gt;Node28 -->
<g id="edge49" class="edge">
<title>Node27&#45;&gt;Node28</title>
<path fill="none" stroke="#191970" d="M639.6516,-425.2455C639.3907,-417.9382 639.0248,-407.6944 638.7037,-398.7046"/>
<polygon fill="#191970" stroke="#191970" points="642.1992,-398.5113 638.3444,-388.6427 635.2036,-398.7613 642.1992,-398.5113"/>
</g>
<!-- Node28&#45;&gt;Node1 -->
<g id="edge50" class="edge">
<title>Node28&#45;&gt;Node1</title>
<path fill="none" stroke="#191970" d="M624.9453,-369.357C612.6683,-360.2029 593.8566,-345.9553 578,-333 532.3801,-295.7274 530.2175,-273.2718 478,-246 419.9072,-215.6597 380.9921,-256.6909 335,-210 295.5855,-169.9867 312.4879,-142.7896 306,-87 304.4085,-73.3145 297.0944,-66.5127 306,-56 319.1845,-40.4362 433.8738,-25.494 511.2001,-17.0573"/>
<polygon fill="#191970" stroke="#191970" points="511.8095,-20.512 521.3769,-15.9608 511.0595,-13.5523 511.8095,-20.512"/>
</g>
<!-- Node28&#45;&gt;Node9 -->
<g id="edge57" class="edge">
<title>Node28&#45;&gt;Node9</title>
<path fill="none" stroke="#191970" d="M699.547,-370.118C702.7419,-369.7237 705.9075,-369.3482 709,-369 990.5003,-337.3065 1087.67,-398.5964 1338,-266 1384.0729,-241.5958 1431,-246.637 1431,-194.5 1431,-194.5 1431,-194.5 1431,-133 1431,-89.4388 1396.0757,-48.4145 1373.5765,-26.5053"/>
<polygon fill="#191970" stroke="#191970" points="1375.8962,-23.8822 1366.2141,-19.5801 1371.1001,-28.981 1375.8962,-23.8822"/>
</g>
<!-- Node28&#45;&gt;Node29 -->
<g id="edge51" class="edge">
<title>Node28&#45;&gt;Node29</title>
<path fill="none" stroke="#191970" d="M636.9063,-369.3906C635.9359,-360.8657 634.4874,-348.1392 633.2677,-337.4235"/>
<polygon fill="#191970" stroke="#191970" points="636.7177,-336.7849 632.1092,-327.2449 629.7626,-337.5766 636.7177,-336.7849"/>
</g>
<!-- Node29&#45;&gt;Node2 -->
<g id="edge52" class="edge">
<title>Node29&#45;&gt;Node2</title>
<path fill="none" stroke="#191970" d="M596.9375,-307.8906C559.1023,-297.2169 497.9194,-279.9566 456.6115,-268.3033"/>
<polygon fill="#191970" stroke="#191970" points="457.398,-264.8886 446.8233,-265.5419 455.4973,-271.6256 457.398,-264.8886"/>
</g>
<!-- Node30 -->
<g id="node31" class="node">
<title>Node30</title>
<polygon fill="#ffffff" stroke="#bfbfbf" points="578.5,-246.5 578.5,-265.5 683.5,-265.5 683.5,-246.5 578.5,-246.5"/>
<text text-anchor="middle" x="631" y="-253.5" font-family="Helvetica,sans-Serif" font-size="10.00" fill="#000000">odp/api/abi/time.h</text>
</g>
<!-- Node29&#45;&gt;Node30 -->
<g id="edge53" class="edge">
<title>Node29&#45;&gt;Node30</title>
<path fill="none" stroke="#191970" d="M631,-307.8906C631,-299.3657 631,-286.6392 631,-275.9235"/>
<polygon fill="#191970" stroke="#191970" points="634.5001,-275.7448 631,-265.7449 627.5001,-275.7449 634.5001,-275.7448"/>
</g>
<!-- Node31 -->
<g id="node32" class="node">
<title>Node31</title>
<g id="a_node32"><a xlink:href="api_2spec_2time_8h.html" target="_top" xlink:title="ODP time. ">
<polygon fill="#ffffff" stroke="#000000" points="657.5,-62 657.5,-81 770.5,-81 770.5,-62 657.5,-62"/>
<text text-anchor="middle" x="714" y="-69" font-family="Helvetica,sans-Serif" font-size="10.00" fill="#000000">odp/api/spec/time.h</text>
</a>
</g>
</g>
<!-- Node29&#45;&gt;Node31 -->
<g id="edge54" class="edge">
<title>Node29&#45;&gt;Node31</title>
<path fill="none" stroke="#191970" d="M648.3863,-307.9295C662.6803,-299.0562 682.1296,-284.4546 692,-266 722.6596,-208.6763 719.7827,-128.4169 716.37,-91.5081"/>
<polygon fill="#191970" stroke="#191970" points="719.8061,-90.7138 715.2849,-81.1321 712.844,-91.4419 719.8061,-90.7138"/>
</g>
<!-- Node31&#45;&gt;Node1 -->
<g id="edge55" class="edge">
<title>Node31&#45;&gt;Node1</title>
<path fill="none" stroke="#191970" d="M693.375,-61.8906C671.4827,-51.6908 636.6807,-35.4763 611.8073,-23.8875"/>
<polygon fill="#191970" stroke="#191970" points="613.0228,-20.5926 602.4802,-19.5419 610.0665,-26.9377 613.0228,-20.5926"/>
</g>
<!-- Node31&#45;&gt;Node9 -->
<g id="edge56" class="edge">
<title>Node31&#45;&gt;Node9</title>
<path fill="none" stroke="#191970" d="M750.1172,-61.9816C759.7684,-59.7231 770.232,-57.5288 780,-56 962.8319,-27.3852 1181.3149,-16.1127 1288.7177,-12.0555"/>
<polygon fill="#191970" stroke="#191970" points="1288.8957,-15.5514 1298.7599,-11.685 1288.6376,-8.5561 1288.8957,-15.5514"/>
</g>
<!-- Node32&#45;&gt;Node1 -->
<g id="edge60" class="edge">
<title>Node32&#45;&gt;Node1</title>
<path fill="none" stroke="#191970" d="M1030.54,-302.416C989.4455,-283.8288 931,-247.9909 931,-194.5 931,-194.5 931,-194.5 931,-133 931,-97.7513 938.1795,-79.603 912,-56 893.0808,-38.9427 743.9604,-23.5803 652.772,-15.656"/>
<polygon fill="#191970" stroke="#191970" points="653.0339,-12.1657 642.7709,-14.7965 652.4344,-19.14 653.0339,-12.1657"/>
</g>
<!-- Node32&#45;&gt;Node9 -->
<g id="edge71" class="edge">
<title>Node32&#45;&gt;Node9</title>
<path fill="none" stroke="#191970" d="M1125.6629,-311.2731C1172.8963,-304.5112 1241.6154,-291.1293 1297,-266 1345.4468,-244.0186 1393,-247.7003 1393,-194.5 1393,-194.5 1393,-194.5 1393,-133 1393,-94.6461 1375.9248,-52.4423 1364.6666,-28.7843"/>
<polygon fill="#191970" stroke="#191970" points="1367.6861,-26.9938 1360.1248,-19.5723 1361.4077,-30.0892 1367.6861,-26.9938"/>
</g>
<!-- Node32&#45;&gt;Node17 -->
<g id="edge70" class="edge">
<title>Node32&#45;&gt;Node17</title>
<path fill="none" stroke="#191970" d="M1070,-302.2977C1070,-294.3834 1070,-284.6043 1070,-276.0759"/>
<polygon fill="#191970" stroke="#191970" points="1073.5001,-275.8469 1070,-265.8469 1066.5001,-275.847 1073.5001,-275.8469"/>
</g>
<!-- Node33 -->
<g id="node34" class="node">
<title>Node33</title>
<g id="a_node34"><a xlink:href="api_2schedule__types_8h.html" target="_top" xlink:title="ODP schedule. ">
<polygon fill="#ffffff" stroke="#000000" points="1148,-246.5 1148,-265.5 1288,-265.5 1288,-246.5 1148,-246.5"/>
<text text-anchor="middle" x="1218" y="-253.5" font-family="Helvetica,sans-Serif" font-size="10.00" fill="#000000">odp/api/schedule_types.h</text>
</a>
</g>
</g>
<!-- Node32&#45;&gt;Node33 -->
<g id="edge61" class="edge">
<title>Node32&#45;&gt;Node33</title>
<path fill="none" stroke="#191970" d="M1106.2049,-302.4554C1130.4658,-292.374 1162.1356,-279.2139 1185.5712,-269.4755"/>
<polygon fill="#191970" stroke="#191970" points="1187.1739,-272.5997 1195.0653,-265.5303 1184.4877,-266.1356 1187.1739,-272.5997"/>
</g>
<!-- Node34 -->
<g id="node35" class="node">
<title>Node34</title>
<polygon fill="#ffffff" stroke="#bfbfbf" points="1247.5,-179.5 1247.5,-209.5 1364.5,-209.5 1364.5,-179.5 1247.5,-179.5"/>
<text text-anchor="start" x="1255.5" y="-197.5" font-family="Helvetica,sans-Serif" font-size="10.00" fill="#000000">odp/api/abi/schedule</text>
<text text-anchor="middle" x="1306" y="-186.5" font-family="Helvetica,sans-Serif" font-size="10.00" fill="#000000">_types.h</text>
</g>
<!-- Node33&#45;&gt;Node34 -->
<g id="edge62" class="edge">
<title>Node33&#45;&gt;Node34</title>
<path fill="none" stroke="#191970" d="M1231.75,-246.3906C1243.5495,-238.1444 1260.9742,-225.9669 1275.9788,-215.4807"/>
<polygon fill="#191970" stroke="#191970" points="1278.281,-218.1419 1284.4728,-209.5446 1274.2711,-212.4042 1278.281,-218.1419"/>
</g>
<!-- Node35 -->
<g id="node36" class="node">
<title>Node35</title>
<g id="a_node36"><a xlink:href="api_2spec_2schedule__types_8h.html" target="_top" xlink:title="ODP schedule types. ">
<polygon fill="#ffffff" stroke="#000000" points="1104.5,-179.5 1104.5,-209.5 1229.5,-209.5 1229.5,-179.5 1104.5,-179.5"/>
<text text-anchor="start" x="1112.5" y="-197.5" font-family="Helvetica,sans-Serif" font-size="10.00" fill="#000000">odp/api/spec/schedule</text>
<text text-anchor="middle" x="1167" y="-186.5" font-family="Helvetica,sans-Serif" font-size="10.00" fill="#000000">_types.h</text>
</a>
</g>
</g>
<!-- Node33&#45;&gt;Node35 -->
<g id="edge63" class="edge">
<title>Node33&#45;&gt;Node35</title>
<path fill="none" stroke="#191970" d="M1210.0313,-246.3906C1203.5764,-238.6068 1194.2168,-227.3202 1185.8739,-217.2597"/>
<polygon fill="#191970" stroke="#191970" points="1188.5536,-215.008 1179.476,-209.5446 1183.1652,-219.4764 1188.5536,-215.008"/>
</g>
<!-- Node35&#45;&gt;Node1 -->
<g id="edge64" class="edge">
<title>Node35&#45;&gt;Node1</title>
<path fill="none" stroke="#191970" d="M1140.7032,-179.3993C1105.6526,-159.0955 1041.8958,-121.5453 989,-87 968.9713,-73.9196 967.3036,-64.6484 945,-56 893.2452,-35.9316 742.9797,-21.8255 652.8249,-14.8939"/>
<polygon fill="#191970" stroke="#191970" points="652.9143,-11.3907 642.6783,-14.1245 652.385,-18.3707 652.9143,-11.3907"/>
</g>
<!-- Node35&#45;&gt;Node9 -->
<g id="edge69" class="edge">
<title>Node35&#45;&gt;Node9</title>
<path fill="none" stroke="#191970" d="M1211.5551,-179.4673C1251.6365,-163.3764 1308.3425,-133.6657 1336,-87 1346.4952,-69.2918 1351.212,-46.0063 1353.3202,-29.6968"/>
<polygon fill="#191970" stroke="#191970" points="1356.8086,-29.9922 1354.4019,-19.6744 1349.849,-29.2411 1356.8086,-29.9922"/>
</g>
<!-- Node36 -->
<g id="node37" class="node">
<title>Node36</title>
<g id="a_node37"><a xlink:href="support_8h.html" target="_top" xlink:title="ODP support API &#45; platform specific header. ">
<polygon fill="#ffffff" stroke="#000000" points="1164.5,-123.5 1164.5,-142.5 1265.5,-142.5 1265.5,-123.5 1164.5,-123.5"/>
<text text-anchor="middle" x="1215" y="-130.5" font-family="Helvetica,sans-Serif" font-size="10.00" fill="#000000">odp/api/support.h</text>
</a>
</g>
</g>
<!-- Node35&#45;&gt;Node36 -->
<g id="edge65" class="edge">
<title>Node35&#45;&gt;Node36</title>
<path fill="none" stroke="#191970" d="M1178.8652,-179.2977C1185.5975,-170.672 1194.0585,-159.8312 1201.1006,-150.8087"/>
<polygon fill="#191970" stroke="#191970" points="1203.921,-152.8836 1207.3146,-142.8469 1198.4027,-148.5766 1203.921,-152.8836"/>
</g>
<!-- Node37 -->
<g id="node38" class="node">
<title>Node37</title>
<g id="a_node38"><a xlink:href="spec_2support_8h.html" target="_top" xlink:title="ODP support API. ">
<polygon fill="#ffffff" stroke="#000000" points="1199.5,-62 1199.5,-81 1326.5,-81 1326.5,-62 1199.5,-62"/>
<text text-anchor="middle" x="1263" y="-69" font-family="Helvetica,sans-Serif" font-size="10.00" fill="#000000">odp/api/spec/support.h</text>
</a>
</g>
</g>
<!-- Node36&#45;&gt;Node37 -->
<g id="edge66" class="edge">
<title>Node36&#45;&gt;Node37</title>
<path fill="none" stroke="#191970" d="M1222.5,-123.3906C1229.5738,-114.3273 1240.3542,-100.5149 1249.0146,-89.4188"/>
<polygon fill="#191970" stroke="#191970" points="1252.0006,-91.2815 1255.3943,-81.2449 1246.4824,-86.9746 1252.0006,-91.2815"/>
</g>
<!-- Node37&#45;&gt;Node1 -->
<g id="edge67" class="edge">
<title>Node37&#45;&gt;Node1</title>
<path fill="none" stroke="#191970" d="M1199.3925,-61.9696C1183.9069,-59.8287 1167.3761,-57.6925 1152,-56 972.7498,-36.2688 760.908,-21.3794 652.9657,-14.3943"/>
<polygon fill="#191970" stroke="#191970" points="653.0528,-10.8928 642.8486,-13.7431 652.6031,-17.8783 653.0528,-10.8928"/>
</g>
<!-- Node37&#45;&gt;Node9 -->
<g id="edge68" class="edge">
<title>Node37&#45;&gt;Node9</title>
<path fill="none" stroke="#191970" d="M1277.375,-61.8906C1292.0931,-52.0519 1315.1832,-36.6167 1332.3589,-25.1351"/>
<polygon fill="#191970" stroke="#191970" points="1334.3575,-28.0091 1340.7259,-19.5419 1330.4673,-22.1896 1334.3575,-28.0091"/>
</g>
</g>
</svg>
