<?xml version="1.0" encoding="UTF-8" standalone="no"?>
<!DOCTYPE svg PUBLIC "-//W3C//DTD SVG 1.1//EN"
 "http://www.w3.org/Graphics/SVG/1.1/DTD/svg11.dtd">
<!-- Generated by graphviz version 2.40.1 (20161225.0304)
 -->
<!-- Title: packet_flags.h Pages: 1 -->
<svg width="948pt" height="543pt"
 viewBox="0.00 0.00 947.50 543.00" xmlns="http://www.w3.org/2000/svg" xmlns:xlink="http://www.w3.org/1999/xlink">
<g id="graph0" class="graph" transform="scale(1 1) rotate(0) translate(4 539)">
<title>packet_flags.h</title>
<polygon fill="#ffffff" stroke="transparent" points="-4,4 -4,-539 943.5,-539 943.5,4 -4,4"/>
<!-- Node0 -->
<g id="node1" class="node">
<title>Node0</title>
<polygon fill="#bfbfbf" stroke="#000000" points="74,-515.5 74,-534.5 161,-534.5 161,-515.5 74,-515.5"/>
<text text-anchor="middle" x="117.5" y="-522.5" font-family="Helvetica,sans-Serif" font-size="10.00" fill="#000000">packet_flags.h</text>
</g>
<!-- Node1 -->
<g id="node2" class="node">
<title>Node1</title>
<polygon fill="#ffffff" stroke="#bfbfbf" points="0,-448.5 0,-478.5 107,-478.5 107,-448.5 0,-448.5"/>
<text text-anchor="start" x="8" y="-466.5" font-family="Helvetica,sans-Serif" font-size="10.00" fill="#000000">odp/api/abi/packet</text>
<text text-anchor="middle" x="53.5" y="-455.5" font-family="Helvetica,sans-Serif" font-size="10.00" fill="#000000">_flags.h</text>
</g>
<!-- Node0&#45;&gt;Node1 -->
<g id="edge1" class="edge">
<title>Node0&#45;&gt;Node1</title>
<path fill="none" stroke="#191970" d="M107.5,-515.3906C99.2394,-507.4527 87.1878,-495.8718 76.5645,-485.6635"/>
<polygon fill="#191970" stroke="#191970" points="78.7918,-482.9498 69.1562,-478.5446 73.9416,-487.9971 78.7918,-482.9498"/>
</g>
<!-- Node2 -->
<g id="node3" class="node">
<title>Node2</title>
<g id="a_node3"><a xlink:href="api_2spec_2packet__flags_8h.html" target="_top" xlink:title="ODP packet flags. ">
<polygon fill="#ffffff" stroke="#000000" points="125.5,-448.5 125.5,-478.5 239.5,-478.5 239.5,-448.5 125.5,-448.5"/>
<text text-anchor="start" x="133.5" y="-466.5" font-family="Helvetica,sans-Serif" font-size="10.00" fill="#000000">odp/api/spec/packet</text>
<text text-anchor="middle" x="182.5" y="-455.5" font-family="Helvetica,sans-Serif" font-size="10.00" fill="#000000">_flags.h</text>
</a>
</g>
</g>
<!-- Node0&#45;&gt;Node2 -->
<g id="edge2" class="edge">
<title>Node0&#45;&gt;Node2</title>
<path fill="none" stroke="#191970" d="M127.6563,-515.3906C136.0459,-507.4527 148.2859,-495.8718 159.0751,-485.6635"/>
<polygon fill="#191970" stroke="#191970" points="161.7407,-487.9598 166.5992,-478.5446 156.9298,-482.875 161.7407,-487.9598"/>
</g>
<!-- Node3 -->
<g id="node4" class="node">
<title>Node3</title>
<g id="a_node4"><a xlink:href="visibility__begin_8h_source.html" target="_top" xlink:title="odp/visibility_begin.h">
<polygon fill="#ffffff" stroke="#000000" points="496,-.5 496,-19.5 617,-19.5 617,-.5 496,-.5"/>
<text text-anchor="middle" x="556.5" y="-7.5" font-family="Helvetica,sans-Serif" font-size="10.00" fill="#000000">odp/visibility_begin.h</text>
</a>
</g>
</g>
<!-- Node2&#45;&gt;Node3 -->
<g id="edge3" class="edge">
<title>Node2&#45;&gt;Node3</title>
<path fill="none" stroke="#191970" d="M239.7083,-460.6459C416.062,-451.0936 939.5,-416.7795 939.5,-346 939.5,-346 939.5,-346 939.5,-122 939.5,-57.6747 737.9629,-27.7375 627.2791,-16.1465"/>
<polygon fill="#191970" stroke="#191970" points="627.4918,-12.6501 617.1875,-15.1141 626.7793,-19.6137 627.4918,-12.6501"/>
</g>
<!-- Node4 -->
<g id="node5" class="node">
<title>Node4</title>
<g id="a_node5"><a xlink:href="api_2std__types_8h.html" target="_top" xlink:title="Standard C language types and definitions for ODP. ">
<polygon fill="#ffffff" stroke="#000000" points="178.5,-224.5 178.5,-243.5 290.5,-243.5 290.5,-224.5 178.5,-224.5"/>
<text text-anchor="middle" x="234.5" y="-231.5" font-family="Helvetica,sans-Serif" font-size="10.00" fill="#000000">odp/api/std_types.h</text>
</a>
</g>
</g>
<!-- Node2&#45;&gt;Node4 -->
<g id="edge4" class="edge">
<title>Node2&#45;&gt;Node4</title>
<path fill="none" stroke="#191970" d="M164.1709,-448.2181C139.5825,-425.7834 99.727,-381.6275 106.5,-336 110.3192,-310.2715 106.0321,-299.2722 123.5,-280 137.8866,-264.1274 158.5933,-253.5869 178.2343,-246.6549"/>
<polygon fill="#191970" stroke="#191970" points="179.3453,-249.9741 187.7583,-243.5343 177.1656,-243.3221 179.3453,-249.9741"/>
</g>
<!-- Node11 -->
<g id="node12" class="node">
<title>Node11</title>
<g id="a_node12"><a xlink:href="visibility__end_8h_source.html" target="_top" xlink:title="odp/visibility_end.h">
<polygon fill="#ffffff" stroke="#000000" points="119.5,-.5 119.5,-19.5 231.5,-19.5 231.5,-.5 119.5,-.5"/>
<text text-anchor="middle" x="175.5" y="-7.5" font-family="Helvetica,sans-Serif" font-size="10.00" fill="#000000">odp/visibility_end.h</text>
</a>
</g>
</g>
<!-- Node2&#45;&gt;Node11 -->
<g id="edge31" class="edge">
<title>Node2&#45;&gt;Node11</title>
<path fill="none" stroke="#191970" d="M129.113,-448.3916C82.9218,-431.6687 23.5,-399.7167 23.5,-346 23.5,-346 23.5,-346 23.5,-122 23.5,-68.8635 84.4479,-38.1127 129.1564,-22.7035"/>
<polygon fill="#191970" stroke="#191970" points="130.3031,-26.0108 138.705,-19.5566 128.112,-19.3626 130.3031,-26.0108"/>
</g>
<!-- Node12 -->
<g id="node13" class="node">
<title>Node12</title>
<g id="a_node13"><a xlink:href="api_2packet_8h.html" target="_top" xlink:title="ODP packet descriptor. ">
<polygon fill="#ffffff" stroke="#000000" points="324.5,-392.5 324.5,-411.5 422.5,-411.5 422.5,-392.5 324.5,-392.5"/>
<text text-anchor="middle" x="373.5" y="-399.5" font-family="Helvetica,sans-Serif" font-size="10.00" fill="#000000">odp/api/packet.h</text>
</a>
</g>
</g>
<!-- Node2&#45;&gt;Node12 -->
<g id="edge15" class="edge">
<title>Node2&#45;&gt;Node12</title>
<path fill="none" stroke="#191970" d="M229.2239,-448.4554C261.3723,-438.104 303.6011,-424.5067 334.0564,-414.7004"/>
<polygon fill="#191970" stroke="#191970" points="335.4558,-417.9269 343.9018,-411.5303 333.3103,-411.2638 335.4558,-417.9269"/>
</g>
<!-- Node5 -->
<g id="node6" class="node">
<title>Node5</title>
<polygon fill="#ffffff" stroke="#bfbfbf" points="321.5,-168.5 321.5,-187.5 451.5,-187.5 451.5,-168.5 321.5,-168.5"/>
<text text-anchor="middle" x="386.5" y="-175.5" font-family="Helvetica,sans-Serif" font-size="10.00" fill="#000000">odp/api/abi/std_types.h</text>
</g>
<!-- Node4&#45;&gt;Node5 -->
<g id="edge5" class="edge">
<title>Node4&#45;&gt;Node5</title>
<path fill="none" stroke="#191970" d="M260.6297,-224.3733C285.5768,-215.1822 323.3592,-201.2624 351.0206,-191.0713"/>
<polygon fill="#191970" stroke="#191970" points="352.5378,-194.2424 360.7112,-187.5011 350.1178,-187.674 352.5378,-194.2424"/>
</g>
<!-- Node6 -->
<g id="node7" class="node">
<title>Node6</title>
<g id="a_node7"><a xlink:href="api_2spec_2std__types_8h.html" target="_top" xlink:title="Standard C language types and definitions for ODP. ">
<polygon fill="#ffffff" stroke="#000000" points="166,-168.5 166,-187.5 303,-187.5 303,-168.5 166,-168.5"/>
<text text-anchor="middle" x="234.5" y="-175.5" font-family="Helvetica,sans-Serif" font-size="10.00" fill="#000000">odp/api/spec/std_types.h</text>
</a>
</g>
</g>
<!-- Node4&#45;&gt;Node6 -->
<g id="edge6" class="edge">
<title>Node4&#45;&gt;Node6</title>
<path fill="none" stroke="#191970" d="M234.5,-224.2455C234.5,-216.9382 234.5,-206.6944 234.5,-197.7046"/>
<polygon fill="#191970" stroke="#191970" points="238.0001,-197.6426 234.5,-187.6427 231.0001,-197.6427 238.0001,-197.6426"/>
</g>
<!-- Node6&#45;&gt;Node3 -->
<g id="edge7" class="edge">
<title>Node6&#45;&gt;Node3</title>
<path fill="none" stroke="#191970" d="M273.3239,-168.4677C302.2942,-160.6156 342.4125,-148.1556 375.5,-132 392.2255,-123.8334 489.8821,-56.3478 534.3994,-25.4007"/>
<polygon fill="#191970" stroke="#191970" points="536.59,-28.1404 542.7997,-19.5561 532.5921,-22.3943 536.59,-28.1404"/>
</g>
<!-- Node7 -->
<g id="node8" class="node">
<title>Node7</title>
<polygon fill="#ffffff" stroke="#bfbfbf" points="206,-112.5 206,-131.5 259,-131.5 259,-112.5 206,-112.5"/>
<text text-anchor="middle" x="232.5" y="-119.5" font-family="Helvetica,sans-Serif" font-size="10.00" fill="#000000">stdint.h</text>
</g>
<!-- Node6&#45;&gt;Node7 -->
<g id="edge8" class="edge">
<title>Node6&#45;&gt;Node7</title>
<path fill="none" stroke="#191970" d="M234.1516,-168.2455C233.8907,-160.9382 233.5248,-150.6944 233.2037,-141.7046"/>
<polygon fill="#191970" stroke="#191970" points="236.6992,-141.5113 232.8444,-131.6427 229.7036,-141.7613 236.6992,-141.5113"/>
</g>
<!-- Node8 -->
<g id="node9" class="node">
<title>Node8</title>
<g id="a_node9"><a xlink:href="api_2align_8h.html" target="_top" xlink:title="ODP alignments. ">
<polygon fill="#ffffff" stroke="#000000" points="277,-112.5 277,-131.5 366,-131.5 366,-112.5 277,-112.5"/>
<text text-anchor="middle" x="321.5" y="-119.5" font-family="Helvetica,sans-Serif" font-size="10.00" fill="#000000">odp/api/align.h</text>
</a>
</g>
</g>
<!-- Node6&#45;&gt;Node8 -->
<g id="edge9" class="edge">
<title>Node6&#45;&gt;Node8</title>
<path fill="none" stroke="#191970" d="M249.6542,-168.2455C263.0027,-159.6534 282.6586,-147.0014 298.0383,-137.1018"/>
<polygon fill="#191970" stroke="#191970" points="300.0051,-139.9982 306.5194,-131.6427 296.2164,-134.1121 300.0051,-139.9982"/>
</g>
<!-- Node6&#45;&gt;Node11 -->
<g id="edge14" class="edge">
<title>Node6&#45;&gt;Node11</title>
<path fill="none" stroke="#191970" d="M224.0341,-168.4775C215.2348,-159.8427 203.0702,-146.3088 196.5,-132 181.0234,-98.2945 176.8698,-54.5924 175.8062,-29.6874"/>
<polygon fill="#191970" stroke="#191970" points="179.304,-29.5611 175.5053,-19.6707 172.3072,-29.7713 179.304,-29.5611"/>
</g>
<!-- Node9 -->
<g id="node10" class="node">
<title>Node9</title>
<polygon fill="#ffffff" stroke="#bfbfbf" points="204,-56.5 204,-75.5 311,-75.5 311,-56.5 204,-56.5"/>
<text text-anchor="middle" x="257.5" y="-63.5" font-family="Helvetica,sans-Serif" font-size="10.00" fill="#000000">odp/api/abi/align.h</text>
</g>
<!-- Node8&#45;&gt;Node9 -->
<g id="edge10" class="edge">
<title>Node8&#45;&gt;Node9</title>
<path fill="none" stroke="#191970" d="M310.3521,-112.2455C300.9913,-104.0549 287.4142,-92.1749 276.3651,-82.5069"/>
<polygon fill="#191970" stroke="#191970" points="278.3508,-79.5937 268.5202,-75.6427 273.7412,-84.8618 278.3508,-79.5937"/>
</g>
<!-- Node10 -->
<g id="node11" class="node">
<title>Node10</title>
<g id="a_node11"><a xlink:href="api_2spec_2align_8h.html" target="_top" xlink:title="ODP alignments. ">
<polygon fill="#ffffff" stroke="#000000" points="329.5,-56.5 329.5,-75.5 443.5,-75.5 443.5,-56.5 329.5,-56.5"/>
<text text-anchor="middle" x="386.5" y="-63.5" font-family="Helvetica,sans-Serif" font-size="10.00" fill="#000000">odp/api/spec/align.h</text>
</a>
</g>
</g>
<!-- Node8&#45;&gt;Node10 -->
<g id="edge11" class="edge">
<title>Node8&#45;&gt;Node10</title>
<path fill="none" stroke="#191970" d="M332.8221,-112.2455C342.4223,-103.9746 356.3892,-91.9416 367.6695,-82.2232"/>
<polygon fill="#191970" stroke="#191970" points="370.016,-84.8214 375.3076,-75.6427 365.447,-79.5182 370.016,-84.8214"/>
</g>
<!-- Node10&#45;&gt;Node3 -->
<g id="edge12" class="edge">
<title>Node10&#45;&gt;Node3</title>
<path fill="none" stroke="#191970" d="M415.724,-56.3733C443.9925,-47.0613 486.9965,-32.8953 518.0344,-22.671"/>
<polygon fill="#191970" stroke="#191970" points="519.2544,-25.9542 527.6573,-19.5011 517.0643,-19.3056 519.2544,-25.9542"/>
</g>
<!-- Node10&#45;&gt;Node11 -->
<g id="edge13" class="edge">
<title>Node10&#45;&gt;Node11</title>
<path fill="none" stroke="#191970" d="M350.2278,-56.3733C314.5342,-46.9001 259.9121,-32.4032 221.2549,-22.1435"/>
<polygon fill="#191970" stroke="#191970" points="221.8621,-18.6835 211.2989,-19.5011 220.0664,-25.4493 221.8621,-18.6835"/>
</g>
<!-- Node12&#45;&gt;Node4 -->
<g id="edge16" class="edge">
<title>Node12&#45;&gt;Node4</title>
<path fill="none" stroke="#191970" d="M324.3382,-400.3612C257.7461,-396.9883 144.2109,-386.7639 118.5,-356 84.117,-314.8596 158.581,-270.0322 203.5476,-247.9286"/>
<polygon fill="#191970" stroke="#191970" points="205.1416,-251.0459 212.6455,-243.5663 202.1152,-244.7339 205.1416,-251.0459"/>
</g>
<!-- Node13 -->
<g id="node14" class="node">
<title>Node13</title>
<polygon fill="#ffffff" stroke="#bfbfbf" points="249.5,-336.5 249.5,-355.5 359.5,-355.5 359.5,-336.5 249.5,-336.5"/>
<text text-anchor="middle" x="304.5" y="-343.5" font-family="Helvetica,sans-Serif" font-size="10.00" fill="#000000">odp/api/abi/event.h</text>
</g>
<!-- Node12&#45;&gt;Node13 -->
<g id="edge17" class="edge">
<title>Node12&#45;&gt;Node13</title>
<path fill="none" stroke="#191970" d="M361.4811,-392.2455C351.2902,-383.9746 336.4638,-371.9416 324.4893,-362.2232"/>
<polygon fill="#191970" stroke="#191970" points="326.3514,-359.2268 316.3812,-355.6427 321.9402,-364.662 326.3514,-359.2268"/>
</g>
<!-- Node14 -->
<g id="node15" class="node">
<title>Node14</title>
<polygon fill="#ffffff" stroke="#bfbfbf" points="377.5,-336.5 377.5,-355.5 507.5,-355.5 507.5,-336.5 377.5,-336.5"/>
<text text-anchor="middle" x="442.5" y="-343.5" font-family="Helvetica,sans-Serif" font-size="10.00" fill="#000000">odp/api/abi/packet_io.h</text>
</g>
<!-- Node12&#45;&gt;Node14 -->
<g id="edge18" class="edge">
<title>Node12&#45;&gt;Node14</title>
<path fill="none" stroke="#191970" d="M385.5189,-392.2455C395.7098,-383.9746 410.5362,-371.9416 422.5107,-362.2232"/>
<polygon fill="#191970" stroke="#191970" points="425.0598,-364.662 430.6188,-355.6427 420.6486,-359.2268 425.0598,-364.662"/>
</g>
<!-- Node15 -->
<g id="node16" class="node">
<title>Node15</title>
<polygon fill="#ffffff" stroke="#bfbfbf" points="667.5,-336.5 667.5,-355.5 783.5,-355.5 783.5,-336.5 667.5,-336.5"/>
<text text-anchor="middle" x="725.5" y="-343.5" font-family="Helvetica,sans-Serif" font-size="10.00" fill="#000000">odp/api/abi/packet.h</text>
</g>
<!-- Node12&#45;&gt;Node15 -->
<g id="edge19" class="edge">
<title>Node12&#45;&gt;Node15</title>
<path fill="none" stroke="#191970" d="M422.8147,-394.1545C484.0403,-384.414 588.7775,-367.7513 657.572,-356.8067"/>
<polygon fill="#191970" stroke="#191970" points="658.1259,-360.2627 667.4518,-355.2349 657.0261,-353.3496 658.1259,-360.2627"/>
</g>
<!-- Node16 -->
<g id="node17" class="node">
<title>Node16</title>
<polygon fill="#ffffff" stroke="#bfbfbf" points="801.5,-336.5 801.5,-355.5 911.5,-355.5 911.5,-336.5 801.5,-336.5"/>
<text text-anchor="middle" x="856.5" y="-343.5" font-family="Helvetica,sans-Serif" font-size="10.00" fill="#000000">odp/api/abi/buffer.h</text>
</g>
<!-- Node12&#45;&gt;Node16 -->
<g id="edge20" class="edge">
<title>Node12&#45;&gt;Node16</title>
<path fill="none" stroke="#191970" d="M422.6127,-397.3418C499.1268,-389.9235 651.6577,-374.4908 791.332,-356.107"/>
<polygon fill="#191970" stroke="#191970" points="791.9112,-359.561 801.3651,-354.7784 790.9922,-352.6216 791.9112,-359.561"/>
</g>
<!-- Node17 -->
<g id="node18" class="node">
<title>Node17</title>
<polygon fill="#ffffff" stroke="#bfbfbf" points="127.5,-336.5 127.5,-355.5 231.5,-355.5 231.5,-336.5 127.5,-336.5"/>
<text text-anchor="middle" x="179.5" y="-343.5" font-family="Helvetica,sans-Serif" font-size="10.00" fill="#000000">odp/api/abi/pool.h</text>
</g>
<!-- Node12&#45;&gt;Node17 -->
<g id="edge21" class="edge">
<title>Node12&#45;&gt;Node17</title>
<path fill="none" stroke="#191970" d="M340.1502,-392.3733C307.472,-382.9404 257.5382,-368.5265 222.023,-358.2747"/>
<polygon fill="#191970" stroke="#191970" points="222.993,-354.9119 212.4146,-355.5011 221.0516,-361.6373 222.993,-354.9119"/>
</g>
<!-- Node18 -->
<g id="node19" class="node">
<title>Node18</title>
<g id="a_node19"><a xlink:href="api_2spec_2packet_8h.html" target="_top" xlink:title="ODP packet descriptor. ">
<polygon fill="#ffffff" stroke="#000000" points="526,-336.5 526,-355.5 649,-355.5 649,-336.5 526,-336.5"/>
<text text-anchor="middle" x="587.5" y="-343.5" font-family="Helvetica,sans-Serif" font-size="10.00" fill="#000000">odp/api/spec/packet.h</text>
</a>
</g>
</g>
<!-- Node12&#45;&gt;Node18 -->
<g id="edge22" class="edge">
<title>Node12&#45;&gt;Node18</title>
<path fill="none" stroke="#191970" d="M410.2879,-392.3733C446.5661,-382.8799 502.1236,-368.3415 541.3446,-358.0781"/>
<polygon fill="#191970" stroke="#191970" points="542.404,-361.4188 551.1921,-355.5011 540.6318,-354.6468 542.404,-361.4188"/>
</g>
<!-- Node18&#45;&gt;Node3 -->
<g id="edge23" class="edge">
<title>Node18&#45;&gt;Node3</title>
<path fill="none" stroke="#191970" d="M595.9375,-336.2711C611.125,-317.723 641.5,-275.4461 641.5,-234 641.5,-234 641.5,-234 641.5,-122 641.5,-91.4754 640.2658,-80.822 622.5,-56 613.2115,-43.0223 599.0658,-32.4653 586.2494,-24.7535"/>
<polygon fill="#191970" stroke="#191970" points="587.6661,-21.5334 577.2405,-19.6471 584.2142,-27.6232 587.6661,-21.5334"/>
</g>
<!-- Node18&#45;&gt;Node11 -->
<g id="edge30" class="edge">
<title>Node18&#45;&gt;Node11</title>
<path fill="none" stroke="#191970" d="M525.873,-337.0711C402.6293,-318.3722 137.5,-273.5498 137.5,-234 137.5,-234 137.5,-234 137.5,-122 137.5,-87.6118 153.7634,-50.2832 165.011,-28.5791"/>
<polygon fill="#191970" stroke="#191970" points="168.2317,-29.9804 169.893,-19.5166 162.069,-26.6605 168.2317,-29.9804"/>
</g>
<!-- Node19 -->
<g id="node20" class="node">
<title>Node19</title>
<g id="a_node20"><a xlink:href="api_2time_8h.html" target="_top" xlink:title="ODP time. ">
<polygon fill="#ffffff" stroke="#000000" points="472,-280.5 472,-299.5 559,-299.5 559,-280.5 472,-280.5"/>
<text text-anchor="middle" x="515.5" y="-287.5" font-family="Helvetica,sans-Serif" font-size="10.00" fill="#000000">odp/api/time.h</text>
</a>
</g>
</g>
<!-- Node18&#45;&gt;Node19 -->
<g id="edge24" class="edge">
<title>Node18&#45;&gt;Node19</title>
<path fill="none" stroke="#191970" d="M574.9586,-336.2455C564.2213,-327.8943 548.5527,-315.7076 535.9953,-305.9408"/>
<polygon fill="#191970" stroke="#191970" points="537.9401,-303.0194 527.8977,-299.6427 533.6425,-308.5449 537.9401,-303.0194"/>
</g>
<!-- Node19&#45;&gt;Node4 -->
<g id="edge25" class="edge">
<title>Node19&#45;&gt;Node4</title>
<path fill="none" stroke="#191970" d="M471.9021,-281.3114C423.6763,-271.7006 345.7531,-256.1714 292.4277,-245.5443"/>
<polygon fill="#191970" stroke="#191970" points="292.9296,-242.0756 282.4384,-243.5536 291.5615,-248.9406 292.9296,-242.0756"/>
</g>
<!-- Node20 -->
<g id="node21" class="node">
<title>Node20</title>
<polygon fill="#ffffff" stroke="#bfbfbf" points="423,-224.5 423,-243.5 528,-243.5 528,-224.5 423,-224.5"/>
<text text-anchor="middle" x="475.5" y="-231.5" font-family="Helvetica,sans-Serif" font-size="10.00" fill="#000000">odp/api/abi/time.h</text>
</g>
<!-- Node19&#45;&gt;Node20 -->
<g id="edge26" class="edge">
<title>Node19&#45;&gt;Node20</title>
<path fill="none" stroke="#191970" d="M508.5325,-280.2455C502.9689,-272.4564 495.022,-261.3308 488.3171,-251.9439"/>
<polygon fill="#191970" stroke="#191970" points="491.0481,-249.7457 482.3876,-243.6427 485.352,-253.8144 491.0481,-249.7457"/>
</g>
<!-- Node21 -->
<g id="node22" class="node">
<title>Node21</title>
<g id="a_node22"><a xlink:href="api_2spec_2time_8h.html" target="_top" xlink:title="ODP time. ">
<polygon fill="#ffffff" stroke="#000000" points="500,-56.5 500,-75.5 613,-75.5 613,-56.5 500,-56.5"/>
<text text-anchor="middle" x="556.5" y="-63.5" font-family="Helvetica,sans-Serif" font-size="10.00" fill="#000000">odp/api/spec/time.h</text>
</a>
</g>
</g>
<!-- Node19&#45;&gt;Node21 -->
<g id="edge27" class="edge">
<title>Node19&#45;&gt;Node21</title>
<path fill="none" stroke="#191970" d="M521.4238,-280.158C526.5759,-271.0982 533.782,-257.116 537.5,-244 553.2702,-188.3669 556.1534,-119.5747 556.5517,-86.1397"/>
<polygon fill="#191970" stroke="#191970" points="560.0529,-85.8858 556.606,-75.8674 553.053,-85.8487 560.0529,-85.8858"/>
</g>
<!-- Node21&#45;&gt;Node3 -->
<g id="edge28" class="edge">
<title>Node21&#45;&gt;Node3</title>
<path fill="none" stroke="#191970" d="M556.5,-56.2455C556.5,-48.9382 556.5,-38.6944 556.5,-29.7046"/>
<polygon fill="#191970" stroke="#191970" points="560.0001,-29.6426 556.5,-19.6427 553.0001,-29.6427 560.0001,-29.6426"/>
</g>
<!-- Node21&#45;&gt;Node11 -->
<g id="edge29" class="edge">
<title>Node21&#45;&gt;Node11</title>
<path fill="none" stroke="#191970" d="M499.8719,-57.6767C430.875,-47.5354 314.5021,-30.4308 241.5094,-19.7022"/>
<polygon fill="#191970" stroke="#191970" points="241.9098,-16.2235 231.5071,-18.232 240.8919,-23.1491 241.9098,-16.2235"/>
</g>
</g>
</svg>
