<?xml version="1.0" encoding="UTF-8" standalone="no"?>
<!DOCTYPE svg PUBLIC "-//W3C//DTD SVG 1.1//EN"
 "http://www.w3.org/Graphics/SVG/1.1/DTD/svg11.dtd">
<!-- Generated by graphviz version 2.40.1 (20161225.0304)
 -->
<!-- Title: packet_flags.h Pages: 1 -->
<svg width="924pt" height="476pt"
 viewBox="0.00 0.00 924.00 476.00" xmlns="http://www.w3.org/2000/svg" xmlns:xlink="http://www.w3.org/1999/xlink">
<g id="graph0" class="graph" transform="scale(1 1) rotate(0) translate(4 472)">
<title>packet_flags.h</title>
<polygon fill="#ffffff" stroke="transparent" points="-4,4 -4,-472 920,-472 920,4 -4,4"/>
<!-- Node0 -->
<g id="node1" class="node">
<title>Node0</title>
<polygon fill="#bfbfbf" stroke="#000000" points="184.5,-448.5 184.5,-467.5 271.5,-467.5 271.5,-448.5 184.5,-448.5"/>
<text text-anchor="middle" x="228" y="-455.5" font-family="Helvetica,sans-Serif" font-size="10.00" fill="#000000">packet_flags.h</text>
</g>
<!-- Node1 -->
<g id="node2" class="node">
<title>Node1</title>
<g id="a_node2"><a xlink:href="visibility__begin_8h_source.html" target="_top" xlink:title="odp/visibility_begin.h">
<polygon fill="#ffffff" stroke="#000000" points="472.5,-.5 472.5,-19.5 593.5,-19.5 593.5,-.5 472.5,-.5"/>
<text text-anchor="middle" x="533" y="-7.5" font-family="Helvetica,sans-Serif" font-size="10.00" fill="#000000">odp/visibility_begin.h</text>
</a>
</g>
</g>
<!-- Node0&#45;&gt;Node1 -->
<g id="edge1" class="edge">
<title>Node0&#45;&gt;Node1</title>
<path fill="none" stroke="#191970" d="M271.5594,-455.5334C422.7959,-446.3973 916,-411.576 916,-346 916,-346 916,-346 916,-122 916,-57.6747 714.4629,-27.7375 603.7791,-16.1465"/>
<polygon fill="#191970" stroke="#191970" points="603.9918,-12.6501 593.6875,-15.1141 603.2793,-19.6137 603.9918,-12.6501"/>
</g>
<!-- Node2 -->
<g id="node3" class="node">
<title>Node2</title>
<g id="a_node3"><a xlink:href="api_2std__types_8h.html" target="_top" xlink:title="Standard C language types and definitions for ODP. ">
<polygon fill="#ffffff" stroke="#000000" points="155,-224.5 155,-243.5 267,-243.5 267,-224.5 155,-224.5"/>
<text text-anchor="middle" x="211" y="-231.5" font-family="Helvetica,sans-Serif" font-size="10.00" fill="#000000">odp/api/std_types.h</text>
</a>
</g>
</g>
<!-- Node0&#45;&gt;Node2 -->
<g id="edge2" class="edge">
<title>Node0&#45;&gt;Node2</title>
<path fill="none" stroke="#191970" d="M201.6823,-448.4276C167.1355,-434.2585 107.9606,-404.0761 83,-356 71.8514,-334.5268 92.6259,-288.1358 100,-280 114.3866,-264.1274 135.0933,-253.5869 154.7343,-246.6549"/>
<polygon fill="#191970" stroke="#191970" points="155.8453,-249.9741 164.2583,-243.5343 153.6656,-243.3221 155.8453,-249.9741"/>
</g>
<!-- Node9 -->
<g id="node10" class="node">
<title>Node9</title>
<g id="a_node10"><a xlink:href="visibility__end_8h_source.html" target="_top" xlink:title="odp/visibility_end.h">
<polygon fill="#ffffff" stroke="#000000" points="96,-.5 96,-19.5 208,-19.5 208,-.5 96,-.5"/>
<text text-anchor="middle" x="152" y="-7.5" font-family="Helvetica,sans-Serif" font-size="10.00" fill="#000000">odp/visibility_end.h</text>
</a>
</g>
</g>
<!-- Node0&#45;&gt;Node9 -->
<g id="edge29" class="edge">
<title>Node0&#45;&gt;Node9</title>
<path fill="none" stroke="#191970" d="M192.375,-448.4382C128.25,-430.1686 0,-388.3373 0,-346 0,-346 0,-346 0,-122 0,-68.8635 60.9479,-38.1127 105.6564,-22.7035"/>
<polygon fill="#191970" stroke="#191970" points="106.8031,-26.0108 115.205,-19.5566 104.612,-19.3626 106.8031,-26.0108"/>
</g>
<!-- Node10 -->
<g id="node11" class="node">
<title>Node10</title>
<g id="a_node11"><a xlink:href="api_2packet_8h.html" target="_top" xlink:title="ODP packet descriptor. ">
<polygon fill="#ffffff" stroke="#000000" points="301,-392.5 301,-411.5 399,-411.5 399,-392.5 301,-392.5"/>
<text text-anchor="middle" x="350" y="-399.5" font-family="Helvetica,sans-Serif" font-size="10.00" fill="#000000">odp/api/packet.h</text>
</a>
</g>
</g>
<!-- Node0&#45;&gt;Node10 -->
<g id="edge13" class="edge">
<title>Node0&#45;&gt;Node10</title>
<path fill="none" stroke="#191970" d="M248.9725,-448.3733C268.5567,-439.3838 297.9961,-425.8706 320.051,-415.7471"/>
<polygon fill="#191970" stroke="#191970" points="321.6729,-418.8538 329.3011,-411.5011 318.7527,-412.4919 321.6729,-418.8538"/>
</g>
<!-- Node3 -->
<g id="node4" class="node">
<title>Node3</title>
<polygon fill="#ffffff" stroke="#bfbfbf" points="298,-168.5 298,-187.5 428,-187.5 428,-168.5 298,-168.5"/>
<text text-anchor="middle" x="363" y="-175.5" font-family="Helvetica,sans-Serif" font-size="10.00" fill="#000000">odp/api/abi/std_types.h</text>
</g>
<!-- Node2&#45;&gt;Node3 -->
<g id="edge3" class="edge">
<title>Node2&#45;&gt;Node3</title>
<path fill="none" stroke="#191970" d="M237.1297,-224.3733C262.0768,-215.1822 299.8592,-201.2624 327.5206,-191.0713"/>
<polygon fill="#191970" stroke="#191970" points="329.0378,-194.2424 337.2112,-187.5011 326.6178,-187.674 329.0378,-194.2424"/>
</g>
<!-- Node4 -->
<g id="node5" class="node">
<title>Node4</title>
<g id="a_node5"><a xlink:href="api_2spec_2std__types_8h.html" target="_top" xlink:title="Standard C language types and definitions for ODP. ">
<polygon fill="#ffffff" stroke="#000000" points="142.5,-168.5 142.5,-187.5 279.5,-187.5 279.5,-168.5 142.5,-168.5"/>
<text text-anchor="middle" x="211" y="-175.5" font-family="Helvetica,sans-Serif" font-size="10.00" fill="#000000">odp/api/spec/std_types.h</text>
</a>
</g>
</g>
<!-- Node2&#45;&gt;Node4 -->
<g id="edge4" class="edge">
<title>Node2&#45;&gt;Node4</title>
<path fill="none" stroke="#191970" d="M211,-224.2455C211,-216.9382 211,-206.6944 211,-197.7046"/>
<polygon fill="#191970" stroke="#191970" points="214.5001,-197.6426 211,-187.6427 207.5001,-197.6427 214.5001,-197.6426"/>
</g>
<!-- Node4&#45;&gt;Node1 -->
<g id="edge5" class="edge">
<title>Node4&#45;&gt;Node1</title>
<path fill="none" stroke="#191970" d="M249.8239,-168.4677C278.7942,-160.6156 318.9125,-148.1556 352,-132 368.7255,-123.8334 466.3821,-56.3478 510.8994,-25.4007"/>
<polygon fill="#191970" stroke="#191970" points="513.09,-28.1404 519.2997,-19.5561 509.0921,-22.3943 513.09,-28.1404"/>
</g>
<!-- Node5 -->
<g id="node6" class="node">
<title>Node5</title>
<polygon fill="#ffffff" stroke="#bfbfbf" points="182.5,-112.5 182.5,-131.5 235.5,-131.5 235.5,-112.5 182.5,-112.5"/>
<text text-anchor="middle" x="209" y="-119.5" font-family="Helvetica,sans-Serif" font-size="10.00" fill="#000000">stdint.h</text>
</g>
<!-- Node4&#45;&gt;Node5 -->
<g id="edge6" class="edge">
<title>Node4&#45;&gt;Node5</title>
<path fill="none" stroke="#191970" d="M210.6516,-168.2455C210.3907,-160.9382 210.0248,-150.6944 209.7037,-141.7046"/>
<polygon fill="#191970" stroke="#191970" points="213.1992,-141.5113 209.3444,-131.6427 206.2036,-141.7613 213.1992,-141.5113"/>
</g>
<!-- Node6 -->
<g id="node7" class="node">
<title>Node6</title>
<g id="a_node7"><a xlink:href="api_2align_8h.html" target="_top" xlink:title="ODP alignments. ">
<polygon fill="#ffffff" stroke="#000000" points="253.5,-112.5 253.5,-131.5 342.5,-131.5 342.5,-112.5 253.5,-112.5"/>
<text text-anchor="middle" x="298" y="-119.5" font-family="Helvetica,sans-Serif" font-size="10.00" fill="#000000">odp/api/align.h</text>
</a>
</g>
</g>
<!-- Node4&#45;&gt;Node6 -->
<g id="edge7" class="edge">
<title>Node4&#45;&gt;Node6</title>
<path fill="none" stroke="#191970" d="M226.1542,-168.2455C239.5027,-159.6534 259.1586,-147.0014 274.5383,-137.1018"/>
<polygon fill="#191970" stroke="#191970" points="276.5051,-139.9982 283.0194,-131.6427 272.7164,-134.1121 276.5051,-139.9982"/>
</g>
<!-- Node4&#45;&gt;Node9 -->
<g id="edge12" class="edge">
<title>Node4&#45;&gt;Node9</title>
<path fill="none" stroke="#191970" d="M200.5341,-168.4775C191.7348,-159.8427 179.5702,-146.3088 173,-132 157.5234,-98.2945 153.3698,-54.5924 152.3062,-29.6874"/>
<polygon fill="#191970" stroke="#191970" points="155.804,-29.5611 152.0053,-19.6707 148.8072,-29.7713 155.804,-29.5611"/>
</g>
<!-- Node7 -->
<g id="node8" class="node">
<title>Node7</title>
<polygon fill="#ffffff" stroke="#bfbfbf" points="180.5,-56.5 180.5,-75.5 287.5,-75.5 287.5,-56.5 180.5,-56.5"/>
<text text-anchor="middle" x="234" y="-63.5" font-family="Helvetica,sans-Serif" font-size="10.00" fill="#000000">odp/api/abi/align.h</text>
</g>
<!-- Node6&#45;&gt;Node7 -->
<g id="edge8" class="edge">
<title>Node6&#45;&gt;Node7</title>
<path fill="none" stroke="#191970" d="M286.8521,-112.2455C277.4913,-104.0549 263.9142,-92.1749 252.8651,-82.5069"/>
<polygon fill="#191970" stroke="#191970" points="254.8508,-79.5937 245.0202,-75.6427 250.2412,-84.8618 254.8508,-79.5937"/>
</g>
<!-- Node8 -->
<g id="node9" class="node">
<title>Node8</title>
<g id="a_node9"><a xlink:href="api_2spec_2align_8h.html" target="_top" xlink:title="ODP alignments. ">
<polygon fill="#ffffff" stroke="#000000" points="306,-56.5 306,-75.5 420,-75.5 420,-56.5 306,-56.5"/>
<text text-anchor="middle" x="363" y="-63.5" font-family="Helvetica,sans-Serif" font-size="10.00" fill="#000000">odp/api/spec/align.h</text>
</a>
</g>
</g>
<!-- Node6&#45;&gt;Node8 -->
<g id="edge9" class="edge">
<title>Node6&#45;&gt;Node8</title>
<path fill="none" stroke="#191970" d="M309.3221,-112.2455C318.9223,-103.9746 332.8892,-91.9416 344.1695,-82.2232"/>
<polygon fill="#191970" stroke="#191970" points="346.516,-84.8214 351.8076,-75.6427 341.947,-79.5182 346.516,-84.8214"/>
</g>
<!-- Node8&#45;&gt;Node1 -->
<g id="edge10" class="edge">
<title>Node8&#45;&gt;Node1</title>
<path fill="none" stroke="#191970" d="M392.224,-56.3733C420.4925,-47.0613 463.4965,-32.8953 494.5344,-22.671"/>
<polygon fill="#191970" stroke="#191970" points="495.7544,-25.9542 504.1573,-19.5011 493.5643,-19.3056 495.7544,-25.9542"/>
</g>
<!-- Node8&#45;&gt;Node9 -->
<g id="edge11" class="edge">
<title>Node8&#45;&gt;Node9</title>
<path fill="none" stroke="#191970" d="M326.7278,-56.3733C291.0342,-46.9001 236.4121,-32.4032 197.7549,-22.1435"/>
<polygon fill="#191970" stroke="#191970" points="198.3621,-18.6835 187.7989,-19.5011 196.5664,-25.4493 198.3621,-18.6835"/>
</g>
<!-- Node10&#45;&gt;Node2 -->
<g id="edge14" class="edge">
<title>Node10&#45;&gt;Node2</title>
<path fill="none" stroke="#191970" d="M300.8382,-400.3612C234.2461,-396.9883 120.7109,-386.7639 95,-356 60.617,-314.8596 135.081,-270.0322 180.0476,-247.9286"/>
<polygon fill="#191970" stroke="#191970" points="181.6416,-251.0459 189.1455,-243.5663 178.6152,-244.7339 181.6416,-251.0459"/>
</g>
<!-- Node11 -->
<g id="node12" class="node">
<title>Node11</title>
<polygon fill="#ffffff" stroke="#bfbfbf" points="226,-336.5 226,-355.5 336,-355.5 336,-336.5 226,-336.5"/>
<text text-anchor="middle" x="281" y="-343.5" font-family="Helvetica,sans-Serif" font-size="10.00" fill="#000000">odp/api/abi/event.h</text>
</g>
<!-- Node10&#45;&gt;Node11 -->
<g id="edge15" class="edge">
<title>Node10&#45;&gt;Node11</title>
<path fill="none" stroke="#191970" d="M337.9811,-392.2455C327.7902,-383.9746 312.9638,-371.9416 300.9893,-362.2232"/>
<polygon fill="#191970" stroke="#191970" points="302.8514,-359.2268 292.8812,-355.6427 298.4402,-364.662 302.8514,-359.2268"/>
</g>
<!-- Node12 -->
<g id="node13" class="node">
<title>Node12</title>
<polygon fill="#ffffff" stroke="#bfbfbf" points="354,-336.5 354,-355.5 484,-355.5 484,-336.5 354,-336.5"/>
<text text-anchor="middle" x="419" y="-343.5" font-family="Helvetica,sans-Serif" font-size="10.00" fill="#000000">odp/api/abi/packet_io.h</text>
</g>
<!-- Node10&#45;&gt;Node12 -->
<g id="edge16" class="edge">
<title>Node10&#45;&gt;Node12</title>
<path fill="none" stroke="#191970" d="M362.0189,-392.2455C372.2098,-383.9746 387.0362,-371.9416 399.0107,-362.2232"/>
<polygon fill="#191970" stroke="#191970" points="401.5598,-364.662 407.1188,-355.6427 397.1486,-359.2268 401.5598,-364.662"/>
</g>
<!-- Node13 -->
<g id="node14" class="node">
<title>Node13</title>
<polygon fill="#ffffff" stroke="#bfbfbf" points="644,-336.5 644,-355.5 760,-355.5 760,-336.5 644,-336.5"/>
<text text-anchor="middle" x="702" y="-343.5" font-family="Helvetica,sans-Serif" font-size="10.00" fill="#000000">odp/api/abi/packet.h</text>
</g>
<!-- Node10&#45;&gt;Node13 -->
<g id="edge17" class="edge">
<title>Node10&#45;&gt;Node13</title>
<path fill="none" stroke="#191970" d="M399.3147,-394.1545C460.5403,-384.414 565.2775,-367.7513 634.072,-356.8067"/>
<polygon fill="#191970" stroke="#191970" points="634.6259,-360.2627 643.9518,-355.2349 633.5261,-353.3496 634.6259,-360.2627"/>
</g>
<!-- Node14 -->
<g id="node15" class="node">
<title>Node14</title>
<polygon fill="#ffffff" stroke="#bfbfbf" points="778,-336.5 778,-355.5 888,-355.5 888,-336.5 778,-336.5"/>
<text text-anchor="middle" x="833" y="-343.5" font-family="Helvetica,sans-Serif" font-size="10.00" fill="#000000">odp/api/abi/buffer.h</text>
</g>
<!-- Node10&#45;&gt;Node14 -->
<g id="edge18" class="edge">
<title>Node10&#45;&gt;Node14</title>
<path fill="none" stroke="#191970" d="M399.1127,-397.3418C475.6268,-389.9235 628.1577,-374.4908 767.832,-356.107"/>
<polygon fill="#191970" stroke="#191970" points="768.4112,-359.561 777.8651,-354.7784 767.4922,-352.6216 768.4112,-359.561"/>
</g>
<!-- Node15 -->
<g id="node16" class="node">
<title>Node15</title>
<polygon fill="#ffffff" stroke="#bfbfbf" points="104,-336.5 104,-355.5 208,-355.5 208,-336.5 104,-336.5"/>
<text text-anchor="middle" x="156" y="-343.5" font-family="Helvetica,sans-Serif" font-size="10.00" fill="#000000">odp/api/abi/pool.h</text>
</g>
<!-- Node10&#45;&gt;Node15 -->
<g id="edge19" class="edge">
<title>Node10&#45;&gt;Node15</title>
<path fill="none" stroke="#191970" d="M316.6502,-392.3733C283.972,-382.9404 234.0382,-368.5265 198.523,-358.2747"/>
<polygon fill="#191970" stroke="#191970" points="199.493,-354.9119 188.9146,-355.5011 197.5516,-361.6373 199.493,-354.9119"/>
</g>
<!-- Node16 -->
<g id="node17" class="node">
<title>Node16</title>
<g id="a_node17"><a xlink:href="api_2spec_2packet_8h.html" target="_top" xlink:title="ODP packet descriptor. ">
<polygon fill="#ffffff" stroke="#000000" points="502.5,-336.5 502.5,-355.5 625.5,-355.5 625.5,-336.5 502.5,-336.5"/>
<text text-anchor="middle" x="564" y="-343.5" font-family="Helvetica,sans-Serif" font-size="10.00" fill="#000000">odp/api/spec/packet.h</text>
</a>
</g>
</g>
<!-- Node10&#45;&gt;Node16 -->
<g id="edge20" class="edge">
<title>Node10&#45;&gt;Node16</title>
<path fill="none" stroke="#191970" d="M386.7879,-392.3733C423.0661,-382.8799 478.6236,-368.3415 517.8446,-358.0781"/>
<polygon fill="#191970" stroke="#191970" points="518.904,-361.4188 527.6921,-355.5011 517.1318,-354.6468 518.904,-361.4188"/>
</g>
<!-- Node16&#45;&gt;Node1 -->
<g id="edge21" class="edge">
<title>Node16&#45;&gt;Node1</title>
<path fill="none" stroke="#191970" d="M572.4375,-336.2711C587.625,-317.723 618,-275.4461 618,-234 618,-234 618,-234 618,-122 618,-91.4754 616.7658,-80.822 599,-56 589.7115,-43.0223 575.5658,-32.4653 562.7494,-24.7535"/>
<polygon fill="#191970" stroke="#191970" points="564.1661,-21.5334 553.7405,-19.6471 560.7142,-27.6232 564.1661,-21.5334"/>
</g>
<!-- Node16&#45;&gt;Node9 -->
<g id="edge28" class="edge">
<title>Node16&#45;&gt;Node9</title>
<path fill="none" stroke="#191970" d="M502.373,-337.0711C379.1293,-318.3722 114,-273.5498 114,-234 114,-234 114,-234 114,-122 114,-87.6118 130.2634,-50.2832 141.511,-28.5791"/>
<polygon fill="#191970" stroke="#191970" points="144.7317,-29.9804 146.393,-19.5166 138.569,-26.6605 144.7317,-29.9804"/>
</g>
<!-- Node17 -->
<g id="node18" class="node">
<title>Node17</title>
<g id="a_node18"><a xlink:href="api_2time_8h.html" target="_top" xlink:title="ODP time. ">
<polygon fill="#ffffff" stroke="#000000" points="449.5,-280.5 449.5,-299.5 536.5,-299.5 536.5,-280.5 449.5,-280.5"/>
<text text-anchor="middle" x="493" y="-287.5" font-family="Helvetica,sans-Serif" font-size="10.00" fill="#000000">odp/api/time.h</text>
</a>
</g>
</g>
<!-- Node16&#45;&gt;Node17 -->
<g id="edge22" class="edge">
<title>Node16&#45;&gt;Node17</title>
<path fill="none" stroke="#191970" d="M551.6327,-336.2455C541.0446,-327.8943 525.5936,-315.7076 513.2107,-305.9408"/>
<polygon fill="#191970" stroke="#191970" points="515.2447,-303.0875 505.2255,-299.6427 510.9097,-308.5837 515.2447,-303.0875"/>
</g>
<!-- Node17&#45;&gt;Node2 -->
<g id="edge23" class="edge">
<title>Node17&#45;&gt;Node2</title>
<path fill="none" stroke="#191970" d="M449.2469,-281.3114C400.8496,-271.7006 322.649,-256.1714 269.1338,-245.5443"/>
<polygon fill="#191970" stroke="#191970" points="269.5992,-242.0685 259.109,-243.5536 268.2357,-248.9344 269.5992,-242.0685"/>
</g>
<!-- Node18 -->
<g id="node19" class="node">
<title>Node18</title>
<polygon fill="#ffffff" stroke="#bfbfbf" points="399.5,-224.5 399.5,-243.5 504.5,-243.5 504.5,-224.5 399.5,-224.5"/>
<text text-anchor="middle" x="452" y="-231.5" font-family="Helvetica,sans-Serif" font-size="10.00" fill="#000000">odp/api/abi/time.h</text>
</g>
<!-- Node17&#45;&gt;Node18 -->
<g id="edge24" class="edge">
<title>Node17&#45;&gt;Node18</title>
<path fill="none" stroke="#191970" d="M485.8583,-280.2455C480.1556,-272.4564 472.01,-261.3308 465.1375,-251.9439"/>
<polygon fill="#191970" stroke="#191970" points="467.7913,-249.6437 459.0598,-243.6427 462.1432,-253.7789 467.7913,-249.6437"/>
</g>
<!-- Node19 -->
<g id="node20" class="node">
<title>Node19</title>
<g id="a_node20"><a xlink:href="api_2spec_2time_8h.html" target="_top" xlink:title="ODP time. ">
<polygon fill="#ffffff" stroke="#000000" points="476.5,-56.5 476.5,-75.5 589.5,-75.5 589.5,-56.5 476.5,-56.5"/>
<text text-anchor="middle" x="533" y="-63.5" font-family="Helvetica,sans-Serif" font-size="10.00" fill="#000000">odp/api/spec/time.h</text>
</a>
</g>
</g>
<!-- Node17&#45;&gt;Node19 -->
<g id="edge25" class="edge">
<title>Node17&#45;&gt;Node19</title>
<path fill="none" stroke="#191970" d="M498.4538,-280.473C503.3759,-271.4009 510.3827,-257.2088 514,-244 529.2733,-188.2284 532.3819,-119.499 532.9404,-86.1087"/>
<polygon fill="#191970" stroke="#191970" points="536.4428,-85.8871 533.0474,-75.8511 529.4432,-85.814 536.4428,-85.8871"/>
</g>
<!-- Node19&#45;&gt;Node1 -->
<g id="edge26" class="edge">
<title>Node19&#45;&gt;Node1</title>
<path fill="none" stroke="#191970" d="M533,-56.2455C533,-48.9382 533,-38.6944 533,-29.7046"/>
<polygon fill="#191970" stroke="#191970" points="536.5001,-29.6426 533,-19.6427 529.5001,-29.6427 536.5001,-29.6426"/>
</g>
<!-- Node19&#45;&gt;Node9 -->
<g id="edge27" class="edge">
<title>Node19&#45;&gt;Node9</title>
<path fill="none" stroke="#191970" d="M476.3719,-57.6767C407.375,-47.5354 291.0021,-30.4308 218.0094,-19.7022"/>
<polygon fill="#191970" stroke="#191970" points="218.4098,-16.2235 208.0071,-18.232 217.3919,-23.1491 218.4098,-16.2235"/>
</g>
</g>
</svg>
