<?xml version="1.0" encoding="UTF-8" standalone="no"?>
<!DOCTYPE svg PUBLIC "-//W3C//DTD SVG 1.1//EN"
 "http://www.w3.org/Graphics/SVG/1.1/DTD/svg11.dtd">
<!-- Generated by graphviz version 2.40.1 (20161225.0304)
 -->
<!-- Title: schedule.h Pages: 1 -->
<svg width="1437pt" height="722pt"
 viewBox="0.00 0.00 1437.00 722.00" xmlns="http://www.w3.org/2000/svg" xmlns:xlink="http://www.w3.org/1999/xlink">
<g id="graph0" class="graph" transform="scale(1 1) rotate(0) translate(4 718)">
<title>schedule.h</title>
<polygon fill="#ffffff" stroke="transparent" points="-4,4 -4,-718 1433,-718 1433,4 -4,4"/>
<!-- Node0 -->
<g id="node1" class="node">
<title>Node0</title>
<polygon fill="#bfbfbf" stroke="#000000" points="807.5,-694.5 807.5,-713.5 876.5,-713.5 876.5,-694.5 807.5,-694.5"/>
<text text-anchor="middle" x="842" y="-701.5" font-family="Helvetica,sans-Serif" font-size="10.00" fill="#000000">schedule.h</text>
</g>
<!-- Node1 -->
<g id="node2" class="node">
<title>Node1</title>
<g id="a_node2"><a xlink:href="visibility__begin_8h_source.html" target="_top" xlink:title="odp/visibility_begin.h">
<polygon fill="#ffffff" stroke="#000000" points="518.5,-.5 518.5,-19.5 639.5,-19.5 639.5,-.5 518.5,-.5"/>
<text text-anchor="middle" x="579" y="-7.5" font-family="Helvetica,sans-Serif" font-size="10.00" fill="#000000">odp/visibility_begin.h</text>
</a>
</g>
</g>
<!-- Node0&#45;&gt;Node1 -->
<g id="edge1" class="edge">
<title>Node0&#45;&gt;Node1</title>
<path fill="none" stroke="#191970" d="M807.1499,-703.8233C681.1157,-702.8691 249.5282,-696.7791 118,-658 60.3625,-641.0065 0,-652.0905 0,-592 0,-592 0,-592 0,-122 0,-44.254 86.6397,-75.112 162,-56 281.1114,-25.7924 424.3403,-15.4215 508.1646,-11.8611"/>
<polygon fill="#191970" stroke="#191970" points="508.4867,-15.351 518.3373,-11.4502 508.2041,-8.3567 508.4867,-15.351"/>
</g>
<!-- Node2 -->
<g id="node3" class="node">
<title>Node2</title>
<g id="a_node3"><a xlink:href="api_2std__types_8h.html" target="_top" xlink:title="Standard C language types and definitions for ODP. ">
<polygon fill="#ffffff" stroke="#000000" points="349,-235.5 349,-254.5 461,-254.5 461,-235.5 349,-235.5"/>
<text text-anchor="middle" x="405" y="-242.5" font-family="Helvetica,sans-Serif" font-size="10.00" fill="#000000">odp/api/std_types.h</text>
</a>
</g>
</g>
<!-- Node0&#45;&gt;Node2 -->
<g id="edge2" class="edge">
<title>Node0&#45;&gt;Node2</title>
<path fill="none" stroke="#191970" d="M807.4531,-702.8869C653.5625,-697.4804 38,-670.9215 38,-592 38,-592 38,-592 38,-368 38,-332.7513 30.7371,-314.5102 57,-291 77.5908,-272.5674 243.7166,-257.1615 338.8,-249.7472"/>
<polygon fill="#191970" stroke="#191970" points="339.1988,-253.2269 348.9003,-248.9688 338.6609,-246.2476 339.1988,-253.2269"/>
</g>
<!-- Node9 -->
<g id="node10" class="node">
<title>Node9</title>
<g id="a_node10"><a xlink:href="visibility__end_8h_source.html" target="_top" xlink:title="odp/visibility_end.h">
<polygon fill="#ffffff" stroke="#000000" points="1131,-.5 1131,-19.5 1243,-19.5 1243,-.5 1131,-.5"/>
<text text-anchor="middle" x="1187" y="-7.5" font-family="Helvetica,sans-Serif" font-size="10.00" fill="#000000">odp/visibility_end.h</text>
</a>
</g>
</g>
<!-- Node0&#45;&gt;Node9 -->
<g id="edge67" class="edge">
<title>Node0&#45;&gt;Node9</title>
<path fill="none" stroke="#191970" d="M876.6256,-701.5426C964.5574,-695.0983 1194.7566,-676.9001 1269,-658 1343.546,-639.0228 1429,-668.9236 1429,-592 1429,-592 1429,-592 1429,-122 1429,-85.1996 1409.8062,-76.1308 1379,-56 1358.3495,-42.5056 1300.2228,-29.6437 1253.2909,-20.969"/>
<polygon fill="#191970" stroke="#191970" points="1253.6247,-17.4724 1243.1601,-19.1286 1252.3734,-24.3597 1253.6247,-17.4724"/>
</g>
<!-- Node10 -->
<g id="node11" class="node">
<title>Node10</title>
<g id="a_node11"><a xlink:href="api_2event_8h.html" target="_top" xlink:title="ODP event. ">
<polygon fill="#ffffff" stroke="#000000" points="925,-526.5 925,-545.5 1017,-545.5 1017,-526.5 925,-526.5"/>
<text text-anchor="middle" x="971" y="-533.5" font-family="Helvetica,sans-Serif" font-size="10.00" fill="#000000">odp/api/event.h</text>
</a>
</g>
</g>
<!-- Node0&#45;&gt;Node10 -->
<g id="edge13" class="edge">
<title>Node0&#45;&gt;Node10</title>
<path fill="none" stroke="#191970" d="M856.8113,-694.2956C869.1046,-685.7465 886.5308,-672.4346 899,-658 927.2609,-625.2845 950.6581,-579.9761 962.5463,-554.7933"/>
<polygon fill="#191970" stroke="#191970" points="965.7695,-556.1619 966.7873,-545.6161 959.4151,-553.2254 965.7695,-556.1619"/>
</g>
<!-- Node22 -->
<g id="node23" class="node">
<title>Node22</title>
<g id="a_node23"><a xlink:href="api_2queue_8h.html" target="_top" xlink:title="ODP queue. ">
<polygon fill="#ffffff" stroke="#000000" points="794.5,-638.5 794.5,-657.5 889.5,-657.5 889.5,-638.5 794.5,-638.5"/>
<text text-anchor="middle" x="842" y="-645.5" font-family="Helvetica,sans-Serif" font-size="10.00" fill="#000000">odp/api/queue.h</text>
</a>
</g>
</g>
<!-- Node0&#45;&gt;Node22 -->
<g id="edge34" class="edge">
<title>Node0&#45;&gt;Node22</title>
<path fill="none" stroke="#191970" d="M842,-694.2455C842,-686.9382 842,-676.6944 842,-667.7046"/>
<polygon fill="#191970" stroke="#191970" points="845.5001,-667.6426 842,-657.6427 838.5001,-667.6427 845.5001,-667.6426"/>
</g>
<!-- Node26 -->
<g id="node27" class="node">
<title>Node26</title>
<g id="a_node27"><a xlink:href="api_2schedule__types_8h.html" target="_top" xlink:title="ODP schedule. ">
<polygon fill="#ffffff" stroke="#000000" points="1185,-235.5 1185,-254.5 1325,-254.5 1325,-235.5 1185,-235.5"/>
<text text-anchor="middle" x="1255" y="-242.5" font-family="Helvetica,sans-Serif" font-size="10.00" fill="#000000">odp/api/schedule_types.h</text>
</a>
</g>
</g>
<!-- Node0&#45;&gt;Node26 -->
<g id="edge60" class="edge">
<title>Node0&#45;&gt;Node26</title>
<path fill="none" stroke="#191970" d="M876.7808,-703.2129C986.0143,-699.8104 1315,-682.085 1315,-592 1315,-592 1315,-592 1315,-368 1315,-332.7513 1312.4318,-322.1844 1296,-291 1290.3896,-280.3526 1281.7923,-270.1798 1273.9169,-262.1206"/>
<polygon fill="#191970" stroke="#191970" points="1276.0277,-259.2911 1266.4193,-254.8268 1271.1465,-264.3086 1276.0277,-259.2911"/>
</g>
<!-- Node33 -->
<g id="node34" class="node">
<title>Node33</title>
<g id="a_node34"><a xlink:href="api_2thrmask_8h.html" target="_top" xlink:title="ODP thread masks. ">
<polygon fill="#ffffff" stroke="#000000" points="105.5,-358.5 105.5,-377.5 210.5,-377.5 210.5,-358.5 105.5,-358.5"/>
<text text-anchor="middle" x="158" y="-365.5" font-family="Helvetica,sans-Serif" font-size="10.00" fill="#000000">odp/api/thrmask.h</text>
</a>
</g>
</g>
<!-- Node0&#45;&gt;Node33 -->
<g id="edge61" class="edge">
<title>Node0&#45;&gt;Node33</title>
<path fill="none" stroke="#191970" d="M807.3401,-701.843C671.1286,-692.9122 180,-656.2558 180,-592 180,-592 180,-592 180,-480 180,-447.1132 170.754,-409.7958 164.2501,-387.6138"/>
<polygon fill="#191970" stroke="#191970" points="167.5104,-386.3059 161.2462,-377.7614 160.8147,-388.3474 167.5104,-386.3059"/>
</g>
<!-- Node3 -->
<g id="node4" class="node">
<title>Node3</title>
<polygon fill="#ffffff" stroke="#bfbfbf" points="349,-174 349,-193 479,-193 479,-174 349,-174"/>
<text text-anchor="middle" x="414" y="-181" font-family="Helvetica,sans-Serif" font-size="10.00" fill="#000000">odp/api/abi/std_types.h</text>
</g>
<!-- Node2&#45;&gt;Node3 -->
<g id="edge3" class="edge">
<title>Node2&#45;&gt;Node3</title>
<path fill="none" stroke="#191970" d="M406.4063,-235.3906C407.6538,-226.8657 409.5162,-214.1392 411.0844,-203.4235"/>
<polygon fill="#191970" stroke="#191970" points="414.589,-203.6463 412.5739,-193.2449 407.6627,-202.6326 414.589,-203.6463"/>
</g>
<!-- Node4 -->
<g id="node5" class="node">
<title>Node4</title>
<g id="a_node5"><a xlink:href="api_2spec_2std__types_8h.html" target="_top" xlink:title="Standard C language types and definitions for ODP. ">
<polygon fill="#ffffff" stroke="#000000" points="155.5,-174 155.5,-193 292.5,-193 292.5,-174 155.5,-174"/>
<text text-anchor="middle" x="224" y="-181" font-family="Helvetica,sans-Serif" font-size="10.00" fill="#000000">odp/api/spec/std_types.h</text>
</a>
</g>
</g>
<!-- Node2&#45;&gt;Node4 -->
<g id="edge4" class="edge">
<title>Node2&#45;&gt;Node4</title>
<path fill="none" stroke="#191970" d="M376.7188,-235.3906C345.77,-224.8749 296.0058,-207.966 261.743,-196.3243"/>
<polygon fill="#191970" stroke="#191970" points="262.6771,-192.9452 252.0827,-193.0419 260.425,-199.573 262.6771,-192.9452"/>
</g>
<!-- Node4&#45;&gt;Node1 -->
<g id="edge5" class="edge">
<title>Node4&#45;&gt;Node1</title>
<path fill="none" stroke="#191970" d="M220.1451,-173.5494C215.2868,-159.5151 208.3303,-133.2476 215,-112 224.0836,-83.0623 228.1675,-71.8928 254,-56 295.3511,-30.5599 425.6374,-18.6066 508.1495,-13.457"/>
<polygon fill="#191970" stroke="#191970" points="508.4445,-16.9457 518.2147,-12.8477 508.0214,-9.9585 508.4445,-16.9457"/>
</g>
<!-- Node5 -->
<g id="node6" class="node">
<title>Node5</title>
<polygon fill="#ffffff" stroke="#bfbfbf" points="223.5,-112.5 223.5,-131.5 276.5,-131.5 276.5,-112.5 223.5,-112.5"/>
<text text-anchor="middle" x="250" y="-119.5" font-family="Helvetica,sans-Serif" font-size="10.00" fill="#000000">stdint.h</text>
</g>
<!-- Node4&#45;&gt;Node5 -->
<g id="edge6" class="edge">
<title>Node4&#45;&gt;Node5</title>
<path fill="none" stroke="#191970" d="M228.0625,-173.8906C231.7424,-165.1862 237.2742,-152.1015 241.862,-141.2494"/>
<polygon fill="#191970" stroke="#191970" points="245.21,-142.3185 245.8802,-131.7449 238.7625,-139.5927 245.21,-142.3185"/>
</g>
<!-- Node6 -->
<g id="node7" class="node">
<title>Node6</title>
<g id="a_node7"><a xlink:href="api_2align_8h.html" target="_top" xlink:title="ODP alignments. ">
<polygon fill="#ffffff" stroke="#000000" points="371.5,-112.5 371.5,-131.5 460.5,-131.5 460.5,-112.5 371.5,-112.5"/>
<text text-anchor="middle" x="416" y="-119.5" font-family="Helvetica,sans-Serif" font-size="10.00" fill="#000000">odp/api/align.h</text>
</a>
</g>
</g>
<!-- Node4&#45;&gt;Node6 -->
<g id="edge7" class="edge">
<title>Node4&#45;&gt;Node6</title>
<path fill="none" stroke="#191970" d="M254,-173.8906C286.9705,-163.3298 340.0717,-146.3208 376.4303,-134.6747"/>
<polygon fill="#191970" stroke="#191970" points="377.755,-137.9256 386.2107,-131.5419 375.6196,-131.2592 377.755,-137.9256"/>
</g>
<!-- Node4&#45;&gt;Node9 -->
<g id="edge12" class="edge">
<title>Node4&#45;&gt;Node9</title>
<path fill="none" stroke="#191970" d="M275.1258,-173.9103C325.0522,-164.2839 403.0724,-148.544 470,-132 589.3603,-102.495 615.259,-79.2174 736,-56 871.3084,-29.9815 1032.4698,-18.0364 1120.8453,-13.0842"/>
<polygon fill="#191970" stroke="#191970" points="1121.2007,-16.5701 1130.9943,-12.5284 1120.8179,-9.5806 1121.2007,-16.5701"/>
</g>
<!-- Node7 -->
<g id="node8" class="node">
<title>Node7</title>
<polygon fill="#ffffff" stroke="#bfbfbf" points="334.5,-56.5 334.5,-75.5 441.5,-75.5 441.5,-56.5 334.5,-56.5"/>
<text text-anchor="middle" x="388" y="-63.5" font-family="Helvetica,sans-Serif" font-size="10.00" fill="#000000">odp/api/abi/align.h</text>
</g>
<!-- Node6&#45;&gt;Node7 -->
<g id="edge8" class="edge">
<title>Node6&#45;&gt;Node7</title>
<path fill="none" stroke="#191970" d="M411.1228,-112.2455C407.3487,-104.6973 402.0079,-94.0158 397.4099,-84.8197"/>
<polygon fill="#191970" stroke="#191970" points="400.424,-83.0217 392.8213,-75.6427 394.163,-86.1522 400.424,-83.0217"/>
</g>
<!-- Node8 -->
<g id="node9" class="node">
<title>Node8</title>
<g id="a_node9"><a xlink:href="api_2spec_2align_8h.html" target="_top" xlink:title="ODP alignments. ">
<polygon fill="#ffffff" stroke="#000000" points="460,-56.5 460,-75.5 574,-75.5 574,-56.5 460,-56.5"/>
<text text-anchor="middle" x="517" y="-63.5" font-family="Helvetica,sans-Serif" font-size="10.00" fill="#000000">odp/api/spec/align.h</text>
</a>
</g>
</g>
<!-- Node6&#45;&gt;Node8 -->
<g id="edge9" class="edge">
<title>Node6&#45;&gt;Node8</title>
<path fill="none" stroke="#191970" d="M433.5929,-112.2455C449.379,-103.4928 472.7639,-90.527 490.7587,-80.5496"/>
<polygon fill="#191970" stroke="#191970" points="492.5603,-83.5528 499.6087,-75.6427 489.1659,-77.4308 492.5603,-83.5528"/>
</g>
<!-- Node8&#45;&gt;Node1 -->
<g id="edge10" class="edge">
<title>Node8&#45;&gt;Node1</title>
<path fill="none" stroke="#191970" d="M527.7996,-56.2455C536.8678,-48.0549 550.0206,-36.1749 560.7245,-26.5069"/>
<polygon fill="#191970" stroke="#191970" points="563.2491,-28.9429 568.3242,-19.6427 558.5571,-23.7482 563.2491,-28.9429"/>
</g>
<!-- Node8&#45;&gt;Node9 -->
<g id="edge11" class="edge">
<title>Node8&#45;&gt;Node9</title>
<path fill="none" stroke="#191970" d="M574.3122,-57.6107C578.9388,-57.0302 583.5449,-56.4843 588,-56 781.0548,-35.0131 1010.1398,-20.2215 1120.728,-13.7147"/>
<polygon fill="#191970" stroke="#191970" points="1120.9555,-17.2075 1130.7341,-13.1296 1120.5468,-10.2194 1120.9555,-17.2075"/>
</g>
<!-- Node11 -->
<g id="node12" class="node">
<title>Node11</title>
<polygon fill="#ffffff" stroke="#bfbfbf" points="267,-358.5 267,-377.5 377,-377.5 377,-358.5 267,-358.5"/>
<text text-anchor="middle" x="322" y="-365.5" font-family="Helvetica,sans-Serif" font-size="10.00" fill="#000000">odp/api/abi/event.h</text>
</g>
<!-- Node10&#45;&gt;Node11 -->
<g id="edge14" class="edge">
<title>Node10&#45;&gt;Node11</title>
<path fill="none" stroke="#191970" d="M934.2474,-526.4862C823.2702,-497.7587 491.6641,-411.9192 368.6236,-380.069"/>
<polygon fill="#191970" stroke="#191970" points="369.3088,-376.631 358.7507,-377.5133 367.5545,-383.4077 369.3088,-376.631"/>
</g>
<!-- Node12 -->
<g id="node13" class="node">
<title>Node12</title>
<g id="a_node13"><a xlink:href="api_2spec_2event_8h.html" target="_top" xlink:title="ODP event. ">
<polygon fill="#ffffff" stroke="#000000" points="919,-470.5 919,-489.5 1037,-489.5 1037,-470.5 919,-470.5"/>
<text text-anchor="middle" x="978" y="-477.5" font-family="Helvetica,sans-Serif" font-size="10.00" fill="#000000">odp/api/spec/event.h</text>
</a>
</g>
</g>
<!-- Node10&#45;&gt;Node12 -->
<g id="edge15" class="edge">
<title>Node10&#45;&gt;Node12</title>
<path fill="none" stroke="#191970" d="M972.2193,-526.2455C973.1327,-518.9382 974.4132,-508.6944 975.5369,-499.7046"/>
<polygon fill="#191970" stroke="#191970" points="979.0272,-499.9996 976.7947,-489.6427 972.0813,-499.1313 979.0272,-499.9996"/>
</g>
<!-- Node12&#45;&gt;Node1 -->
<g id="edge16" class="edge">
<title>Node12&#45;&gt;Node1</title>
<path fill="none" stroke="#191970" d="M970.121,-470.369C950.1602,-446.7125 894.8463,-385.671 834,-358 737.0163,-313.8948 688.1042,-377.2372 597,-322 525.296,-278.5253 557.182,-215.3852 488,-168 431.0796,-129.0132 388.001,-178.4629 337,-132 311.262,-108.5522 295.6188,-82.6707 318,-56 341.8422,-27.5882 439.1723,-16.7181 507.9715,-12.5637"/>
<polygon fill="#191970" stroke="#191970" points="508.542,-16.037 518.3274,-11.9755 508.145,-9.0483 508.542,-16.037"/>
</g>
<!-- Node12&#45;&gt;Node9 -->
<g id="edge33" class="edge">
<title>Node12&#45;&gt;Node9</title>
<path fill="none" stroke="#191970" d="M1018.1316,-470.4893C1114.8713,-446.3992 1353,-379.6693 1353,-306.5 1353,-306.5 1353,-306.5 1353,-122 1353,-66.8704 1289.306,-37.0648 1240.8265,-22.3634"/>
<polygon fill="#191970" stroke="#191970" points="1241.6278,-18.9518 1231.0491,-19.5366 1239.6836,-25.6763 1241.6278,-18.9518"/>
</g>
<!-- Node13 -->
<g id="node14" class="node">
<title>Node13</title>
<g id="a_node14"><a xlink:href="api_2packet_8h.html" target="_top" xlink:title="ODP packet descriptor. ">
<polygon fill="#ffffff" stroke="#000000" points="666,-414.5 666,-433.5 764,-433.5 764,-414.5 666,-414.5"/>
<text text-anchor="middle" x="715" y="-421.5" font-family="Helvetica,sans-Serif" font-size="10.00" fill="#000000">odp/api/packet.h</text>
</a>
</g>
</g>
<!-- Node12&#45;&gt;Node13 -->
<g id="edge17" class="edge">
<title>Node12&#45;&gt;Node13</title>
<path fill="none" stroke="#191970" d="M933.0875,-470.4369C887.888,-460.8127 818.1193,-445.957 769.7153,-435.6504"/>
<polygon fill="#191970" stroke="#191970" points="770.2369,-432.1831 759.7272,-433.5237 768.779,-439.0296 770.2369,-432.1831"/>
</g>
<!-- Node13&#45;&gt;Node2 -->
<g id="edge18" class="edge">
<title>Node13&#45;&gt;Node2</title>
<path fill="none" stroke="#191970" d="M665.8199,-416.1897C661.1488,-415.449 656.4847,-414.71 652,-414 601.3366,-405.9794 460.0029,-414.5363 424,-378 394.3717,-347.9328 397.1387,-293.9084 401.3052,-264.8259"/>
<polygon fill="#191970" stroke="#191970" points="404.8049,-265.1112 402.9658,-254.6773 397.8968,-263.9808 404.8049,-265.1112"/>
</g>
<!-- Node13&#45;&gt;Node11 -->
<g id="edge19" class="edge">
<title>Node13&#45;&gt;Node11</title>
<path fill="none" stroke="#191970" d="M665.8341,-416.0969C661.1601,-415.3754 656.4914,-414.6661 652,-414 536.1688,-396.8205 506.9444,-394.3977 391,-378 389.8914,-377.8432 388.7728,-377.6847 387.6464,-377.5248"/>
<polygon fill="#191970" stroke="#191970" points="387.7509,-374.0043 377.3568,-376.0568 386.7622,-380.9342 387.7509,-374.0043"/>
</g>
<!-- Node14 -->
<g id="node15" class="node">
<title>Node14</title>
<polygon fill="#ffffff" stroke="#bfbfbf" points="433,-358.5 433,-377.5 563,-377.5 563,-358.5 433,-358.5"/>
<text text-anchor="middle" x="498" y="-365.5" font-family="Helvetica,sans-Serif" font-size="10.00" fill="#000000">odp/api/abi/packet_io.h</text>
</g>
<!-- Node13&#45;&gt;Node14 -->
<g id="edge20" class="edge">
<title>Node13&#45;&gt;Node14</title>
<path fill="none" stroke="#191970" d="M677.6964,-414.3733C640.8315,-404.8598 584.334,-390.2797 544.5494,-380.0127"/>
<polygon fill="#191970" stroke="#191970" points="545.3742,-376.611 534.8169,-377.5011 543.625,-383.3889 545.3742,-376.611"/>
</g>
<!-- Node15 -->
<g id="node16" class="node">
<title>Node15</title>
<polygon fill="#ffffff" stroke="#bfbfbf" points="581,-358.5 581,-377.5 697,-377.5 697,-358.5 581,-358.5"/>
<text text-anchor="middle" x="639" y="-365.5" font-family="Helvetica,sans-Serif" font-size="10.00" fill="#000000">odp/api/abi/packet.h</text>
</g>
<!-- Node13&#45;&gt;Node15 -->
<g id="edge21" class="edge">
<title>Node13&#45;&gt;Node15</title>
<path fill="none" stroke="#191970" d="M701.7618,-414.2455C690.319,-405.814 673.5704,-393.4729 660.2525,-383.6598"/>
<polygon fill="#191970" stroke="#191970" points="662.2133,-380.757 652.0865,-377.6427 658.0609,-386.3924 662.2133,-380.757"/>
</g>
<!-- Node16 -->
<g id="node17" class="node">
<title>Node16</title>
<polygon fill="#ffffff" stroke="#bfbfbf" points="715,-358.5 715,-377.5 825,-377.5 825,-358.5 715,-358.5"/>
<text text-anchor="middle" x="770" y="-365.5" font-family="Helvetica,sans-Serif" font-size="10.00" fill="#000000">odp/api/abi/buffer.h</text>
</g>
<!-- Node13&#45;&gt;Node16 -->
<g id="edge22" class="edge">
<title>Node13&#45;&gt;Node16</title>
<path fill="none" stroke="#191970" d="M724.5803,-414.2455C732.5458,-406.1352 744.0641,-394.4075 753.5079,-384.7919"/>
<polygon fill="#191970" stroke="#191970" points="756.0195,-387.2297 760.5295,-377.6427 751.0253,-382.3247 756.0195,-387.2297"/>
</g>
<!-- Node17 -->
<g id="node18" class="node">
<title>Node17</title>
<polygon fill="#ffffff" stroke="#bfbfbf" points="1023,-358.5 1023,-377.5 1127,-377.5 1127,-358.5 1023,-358.5"/>
<text text-anchor="middle" x="1075" y="-365.5" font-family="Helvetica,sans-Serif" font-size="10.00" fill="#000000">odp/api/abi/pool.h</text>
</g>
<!-- Node13&#45;&gt;Node17 -->
<g id="edge23" class="edge">
<title>Node13&#45;&gt;Node17</title>
<path fill="none" stroke="#191970" d="M764.2282,-416.5782C821.4814,-407.9127 919.1194,-393.0303 1012.8297,-378.175"/>
<polygon fill="#191970" stroke="#191970" points="1013.4345,-381.623 1022.762,-376.5983 1012.3369,-374.7095 1013.4345,-381.623"/>
</g>
<!-- Node18 -->
<g id="node19" class="node">
<title>Node18</title>
<g id="a_node19"><a xlink:href="api_2spec_2packet_8h.html" target="_top" xlink:title="ODP packet descriptor. ">
<polygon fill="#ffffff" stroke="#000000" points="881.5,-358.5 881.5,-377.5 1004.5,-377.5 1004.5,-358.5 881.5,-358.5"/>
<text text-anchor="middle" x="943" y="-365.5" font-family="Helvetica,sans-Serif" font-size="10.00" fill="#000000">odp/api/spec/packet.h</text>
</a>
</g>
</g>
<!-- Node13&#45;&gt;Node18 -->
<g id="edge24" class="edge">
<title>Node13&#45;&gt;Node18</title>
<path fill="none" stroke="#191970" d="M753.9355,-414.4369C792.792,-404.8932 852.593,-390.2052 894.5089,-379.9101"/>
<polygon fill="#191970" stroke="#191970" points="895.3486,-383.308 904.2251,-377.5237 893.6788,-376.51 895.3486,-383.308"/>
</g>
<!-- Node18&#45;&gt;Node1 -->
<g id="edge25" class="edge">
<title>Node18&#45;&gt;Node1</title>
<path fill="none" stroke="#191970" d="M881.3271,-359.478C804.2917,-348.6003 680.1035,-330.2095 660,-322 612.1679,-302.4673 598.7716,-294.1013 565,-255 536.6772,-222.2074 555.1431,-194.6792 521,-168 464.2489,-123.655 422.2187,-172.9915 363,-132 338.4722,-115.0217 334.5855,-104.5686 326,-76 323.4417,-67.4872 320.3045,-62.8245 326,-56 348.8552,-28.6146 441.755,-17.4943 508.3497,-13.0039"/>
<polygon fill="#191970" stroke="#191970" points="508.6278,-16.4933 518.3846,-12.3634 508.1819,-9.5075 508.6278,-16.4933"/>
</g>
<!-- Node18&#45;&gt;Node9 -->
<g id="edge32" class="edge">
<title>Node18&#45;&gt;Node9</title>
<path fill="none" stroke="#191970" d="M955.0996,-358.2896C992.8676,-327.6312 1110.8921,-229.1628 1192,-132 1216.0748,-103.1597 1242.5847,-91.0259 1229,-56 1224.6142,-44.692 1216.0098,-34.463 1207.7251,-26.5381"/>
<polygon fill="#191970" stroke="#191970" points="1209.8244,-23.721 1200.028,-19.6859 1205.1699,-28.9494 1209.8244,-23.721"/>
</g>
<!-- Node19 -->
<g id="node20" class="node">
<title>Node19</title>
<g id="a_node20"><a xlink:href="api_2time_8h.html" target="_top" xlink:title="ODP time. ">
<polygon fill="#ffffff" stroke="#000000" points="668.5,-297 668.5,-316 755.5,-316 755.5,-297 668.5,-297"/>
<text text-anchor="middle" x="712" y="-304" font-family="Helvetica,sans-Serif" font-size="10.00" fill="#000000">odp/api/time.h</text>
</a>
</g>
</g>
<!-- Node18&#45;&gt;Node19 -->
<g id="edge26" class="edge">
<title>Node18&#45;&gt;Node19</title>
<path fill="none" stroke="#191970" d="M907.1597,-358.4581C866.9515,-347.7533 801.6309,-330.3628 757.7631,-318.6837"/>
<polygon fill="#191970" stroke="#191970" points="758.4882,-315.2549 747.9244,-316.0643 756.6873,-322.0193 758.4882,-315.2549"/>
</g>
<!-- Node19&#45;&gt;Node2 -->
<g id="edge27" class="edge">
<title>Node19&#45;&gt;Node2</title>
<path fill="none" stroke="#191970" d="M668.3404,-297.7539C614.3519,-286.9386 522.2943,-268.4971 462.5714,-256.533"/>
<polygon fill="#191970" stroke="#191970" points="463.0373,-253.0569 452.5446,-254.5244 461.6622,-259.9205 463.0373,-253.0569"/>
</g>
<!-- Node20 -->
<g id="node21" class="node">
<title>Node20</title>
<polygon fill="#ffffff" stroke="#bfbfbf" points="573.5,-235.5 573.5,-254.5 678.5,-254.5 678.5,-235.5 573.5,-235.5"/>
<text text-anchor="middle" x="626" y="-242.5" font-family="Helvetica,sans-Serif" font-size="10.00" fill="#000000">odp/api/abi/time.h</text>
</g>
<!-- Node19&#45;&gt;Node20 -->
<g id="edge28" class="edge">
<title>Node19&#45;&gt;Node20</title>
<path fill="none" stroke="#191970" d="M698.5625,-296.8906C684.9305,-287.1421 663.6154,-271.8994 647.6078,-260.4521"/>
<polygon fill="#191970" stroke="#191970" points="649.5132,-257.5118 639.3431,-254.5419 645.4414,-263.2057 649.5132,-257.5118"/>
</g>
<!-- Node21 -->
<g id="node22" class="node">
<title>Node21</title>
<g id="a_node22"><a xlink:href="api_2spec_2time_8h.html" target="_top" xlink:title="ODP time. ">
<polygon fill="#ffffff" stroke="#000000" points="744.5,-56.5 744.5,-75.5 857.5,-75.5 857.5,-56.5 744.5,-56.5"/>
<text text-anchor="middle" x="801" y="-63.5" font-family="Helvetica,sans-Serif" font-size="10.00" fill="#000000">odp/api/spec/time.h</text>
</a>
</g>
</g>
<!-- Node19&#45;&gt;Node21 -->
<g id="edge29" class="edge">
<title>Node19&#45;&gt;Node21</title>
<path fill="none" stroke="#191970" d="M715.5991,-296.7742C728.9625,-260.6631 775.8854,-133.8659 793.8914,-85.2091"/>
<polygon fill="#191970" stroke="#191970" points="797.2654,-86.1764 797.4536,-75.5833 790.7005,-83.747 797.2654,-86.1764"/>
</g>
<!-- Node21&#45;&gt;Node1 -->
<g id="edge30" class="edge">
<title>Node21&#45;&gt;Node1</title>
<path fill="none" stroke="#191970" d="M763.0891,-56.4369C725.335,-46.9133 667.2735,-32.2672 626.4736,-21.9753"/>
<polygon fill="#191970" stroke="#191970" points="627.3069,-18.576 616.7546,-19.5237 625.5947,-25.3633 627.3069,-18.576"/>
</g>
<!-- Node21&#45;&gt;Node9 -->
<g id="edge31" class="edge">
<title>Node21&#45;&gt;Node9</title>
<path fill="none" stroke="#191970" d="M857.5411,-57.7971C927.5404,-47.6418 1046.5716,-30.373 1120.7724,-19.6081"/>
<polygon fill="#191970" stroke="#191970" points="1121.5413,-23.0333 1130.9352,-18.1338 1120.5362,-16.1059 1121.5413,-23.0333"/>
</g>
<!-- Node22&#45;&gt;Node2 -->
<g id="edge35" class="edge">
<title>Node22&#45;&gt;Node2</title>
<path fill="none" stroke="#191970" d="M794.4319,-644.1916C652.0445,-632.1606 239,-592.4001 239,-536 239,-536 239,-536 239,-424 239,-393.4754 237.5239,-380.6381 258,-358 286.8992,-326.0495 313.8879,-348.3128 348,-322 368.5867,-306.1202 385.2851,-280.9231 395.1678,-263.7085"/>
<polygon fill="#191970" stroke="#191970" points="398.4123,-265.0728 400.1768,-254.626 392.2827,-261.6923 398.4123,-265.0728"/>
</g>
<!-- Node22&#45;&gt;Node11 -->
<g id="edge36" class="edge">
<title>Node22&#45;&gt;Node11</title>
<path fill="none" stroke="#191970" d="M794.325,-644.4613C689.8563,-635.3964 450,-606.8673 450,-536 450,-536 450,-536 450,-480 450,-430.8656 395.921,-398.2862 358.0651,-381.4994"/>
<polygon fill="#191970" stroke="#191970" points="359.405,-378.2659 348.833,-377.5714 356.6644,-384.7072 359.405,-378.2659"/>
</g>
<!-- Node22&#45;&gt;Node16 -->
<g id="edge38" class="edge">
<title>Node22&#45;&gt;Node16</title>
<path fill="none" stroke="#191970" d="M834.4061,-638.4565C820.4187,-619.8857 792,-577.0976 792,-536 792,-536 792,-536 792,-480 792,-447.1132 782.754,-409.7958 776.2501,-387.6138"/>
<polygon fill="#191970" stroke="#191970" points="779.5104,-386.3059 773.2462,-377.7614 772.8147,-388.3474 779.5104,-386.3059"/>
</g>
<!-- Node22&#45;&gt;Node17 -->
<g id="edge39" class="edge">
<title>Node22&#45;&gt;Node17</title>
<path fill="none" stroke="#191970" d="M849.442,-638.4319C863.1496,-619.819 891,-576.9622 891,-536 891,-536 891,-536 891,-480 891,-421.5585 959.5659,-392.7316 1012.9865,-379.141"/>
<polygon fill="#191970" stroke="#191970" points="1013.8677,-382.5289 1022.7652,-376.7769 1012.2227,-375.7249 1013.8677,-382.5289"/>
</g>
<!-- Node23 -->
<g id="node24" class="node">
<title>Node23</title>
<polygon fill="#ffffff" stroke="#bfbfbf" points="1139.5,-582.5 1139.5,-601.5 1252.5,-601.5 1252.5,-582.5 1139.5,-582.5"/>
<text text-anchor="middle" x="1196" y="-589.5" font-family="Helvetica,sans-Serif" font-size="10.00" fill="#000000">odp/api/abi/queue.h</text>
</g>
<!-- Node22&#45;&gt;Node23 -->
<g id="edge37" class="edge">
<title>Node22&#45;&gt;Node23</title>
<path fill="none" stroke="#191970" d="M889.742,-640.4476C951.5301,-630.6732 1059.5252,-613.5892 1129.3682,-602.5406"/>
<polygon fill="#191970" stroke="#191970" points="1130.0557,-605.9755 1139.386,-600.9559 1128.9619,-599.0614 1130.0557,-605.9755"/>
</g>
<!-- Node24 -->
<g id="node25" class="node">
<title>Node24</title>
<g id="a_node25"><a xlink:href="api_2spec_2queue_8h.html" target="_top" xlink:title="ODP queue. ">
<polygon fill="#ffffff" stroke="#000000" points="1001,-582.5 1001,-601.5 1121,-601.5 1121,-582.5 1001,-582.5"/>
<text text-anchor="middle" x="1061" y="-589.5" font-family="Helvetica,sans-Serif" font-size="10.00" fill="#000000">odp/api/spec/queue.h</text>
</a>
</g>
</g>
<!-- Node22&#45;&gt;Node24 -->
<g id="edge40" class="edge">
<title>Node22&#45;&gt;Node24</title>
<path fill="none" stroke="#191970" d="M879.6474,-638.3733C916.852,-628.8598 973.8703,-614.2797 1014.0216,-604.0127"/>
<polygon fill="#191970" stroke="#191970" points="1015.0227,-607.3695 1023.8438,-601.5011 1013.2884,-600.5877 1015.0227,-607.3695"/>
</g>
<!-- Node24&#45;&gt;Node1 -->
<g id="edge41" class="edge">
<title>Node24&#45;&gt;Node1</title>
<path fill="none" stroke="#191970" d="M1077.8053,-582.3224C1104.843,-565.351 1155,-527.4704 1155,-480 1155,-480 1155,-480 1155,-424 1155,-393.4754 1156.4685,-380.6449 1136,-358 1053.4852,-266.7113 989.555,-309.0363 879,-255 834.622,-233.3092 822.6887,-228.406 783,-199 707.2221,-142.855 628.3114,-62.3492 595.1698,-27.3492"/>
<polygon fill="#191970" stroke="#191970" points="597.5091,-24.728 588.1066,-19.8449 592.4118,-29.5257 597.5091,-24.728"/>
</g>
<!-- Node24&#45;&gt;Node9 -->
<g id="edge59" class="edge">
<title>Node24&#45;&gt;Node9</title>
<path fill="none" stroke="#191970" d="M1108.0273,-582.4265C1149.2344,-573.3794 1205.3733,-559.255 1224,-546 1329.7291,-470.7622 1391,-436.2666 1391,-306.5 1391,-306.5 1391,-306.5 1391,-122 1391,-57.93 1312.7245,-30.26 1253.1471,-18.4788"/>
<polygon fill="#191970" stroke="#191970" points="1253.4858,-14.9817 1243.0137,-16.5897 1252.2029,-21.8632 1253.4858,-14.9817"/>
</g>
<!-- Node24&#45;&gt;Node10 -->
<g id="edge42" class="edge">
<title>Node24&#45;&gt;Node10</title>
<path fill="none" stroke="#191970" d="M1045.3232,-582.2455C1031.5144,-573.6534 1011.1807,-561.0014 995.2708,-551.1018"/>
<polygon fill="#191970" stroke="#191970" points="996.8368,-547.954 986.4972,-545.6427 993.1387,-553.8974 996.8368,-547.954"/>
</g>
<!-- Node25 -->
<g id="node26" class="node">
<title>Node25</title>
<g id="a_node26"><a xlink:href="queue__types_8h.html" target="_top" xlink:title="ODP queue types. ">
<polygon fill="#ffffff" stroke="#000000" points="1175.5,-291.5 1175.5,-321.5 1286.5,-321.5 1286.5,-291.5 1175.5,-291.5"/>
<text text-anchor="start" x="1183.5" y="-309.5" font-family="Helvetica,sans-Serif" font-size="10.00" fill="#000000">odp/api/spec/queue</text>
<text text-anchor="middle" x="1231" y="-298.5" font-family="Helvetica,sans-Serif" font-size="10.00" fill="#000000">_types.h</text>
</a>
</g>
</g>
<!-- Node24&#45;&gt;Node25 -->
<g id="edge43" class="edge">
<title>Node24&#45;&gt;Node25</title>
<path fill="none" stroke="#191970" d="M1112.485,-582.4417C1165.0551,-569.3565 1239,-540.2435 1239,-480 1239,-480 1239,-480 1239,-424 1239,-392.228 1236.0525,-355.7349 1233.7357,-331.9582"/>
<polygon fill="#191970" stroke="#191970" points="1237.1855,-331.2845 1232.6966,-321.6877 1230.221,-331.9892 1237.1855,-331.2845"/>
</g>
<!-- Node25&#45;&gt;Node1 -->
<g id="edge44" class="edge">
<title>Node25&#45;&gt;Node1</title>
<path fill="none" stroke="#191970" d="M1175.2847,-293.8092C1170.4615,-292.818 1165.6498,-291.8669 1161,-291 1056.2633,-271.4723 1022.4214,-295.7964 924,-255 786.2899,-197.9182 777.6489,-139.2669 654,-56 637.8905,-45.1516 619.282,-33.732 604.6308,-24.9846"/>
<polygon fill="#191970" stroke="#191970" points="606.0273,-21.7438 595.6404,-19.6551 602.4578,-27.7653 606.0273,-21.7438"/>
</g>
<!-- Node25&#45;&gt;Node9 -->
<g id="edge58" class="edge">
<title>Node25&#45;&gt;Node9</title>
<path fill="none" stroke="#191970" d="M1207.3581,-291.4133C1195.5584,-282.4299 1182.4527,-269.8819 1176,-255 1172.4639,-246.8447 1174.537,-243.7677 1176,-235 1181.1818,-203.9459 1177.4817,-190.982 1199,-168 1227.3206,-137.753 1262.0439,-166.4957 1285,-132 1303.7133,-103.8797 1303.1128,-84.5108 1285,-56 1275.0506,-40.339 1258.2018,-29.9161 1241.254,-23.0202"/>
<polygon fill="#191970" stroke="#191970" points="1242.4647,-19.7363 1231.8716,-19.5412 1240.0309,-26.2996 1242.4647,-19.7363"/>
</g>
<!-- Node25&#45;&gt;Node26 -->
<g id="edge45" class="edge">
<title>Node25&#45;&gt;Node26</title>
<path fill="none" stroke="#191970" d="M1236.9326,-291.2977C1240.1252,-283.1166 1244.0954,-272.943 1247.5004,-264.2179"/>
<polygon fill="#191970" stroke="#191970" points="1250.7823,-265.4351 1251.1573,-254.8469 1244.2613,-262.8903 1250.7823,-265.4351"/>
</g>
<!-- Node31 -->
<g id="node32" class="node">
<title>Node31</title>
<g id="a_node32"><a xlink:href="deprecated_8h.html" target="_top" xlink:title="Control deprecated API definitions. ">
<polygon fill="#ffffff" stroke="#000000" points="932.5,-235.5 932.5,-254.5 1051.5,-254.5 1051.5,-235.5 932.5,-235.5"/>
<text text-anchor="middle" x="992" y="-242.5" font-family="Helvetica,sans-Serif" font-size="10.00" fill="#000000">odp/api/deprecated.h</text>
</a>
</g>
</g>
<!-- Node25&#45;&gt;Node31 -->
<g id="edge54" class="edge">
<title>Node25&#45;&gt;Node31</title>
<path fill="none" stroke="#191970" d="M1175.2667,-292.1586C1133.9009,-281.5142 1078.1182,-267.1601 1038.9993,-257.094"/>
<polygon fill="#191970" stroke="#191970" points="1039.7396,-253.6705 1029.1828,-254.568 1037.9951,-260.4497 1039.7396,-253.6705"/>
</g>
<!-- Node27 -->
<g id="node28" class="node">
<title>Node27</title>
<polygon fill="#ffffff" stroke="#bfbfbf" points="1207.5,-168.5 1207.5,-198.5 1324.5,-198.5 1324.5,-168.5 1207.5,-168.5"/>
<text text-anchor="start" x="1215.5" y="-186.5" font-family="Helvetica,sans-Serif" font-size="10.00" fill="#000000">odp/api/abi/schedule</text>
<text text-anchor="middle" x="1266" y="-175.5" font-family="Helvetica,sans-Serif" font-size="10.00" fill="#000000">_types.h</text>
</g>
<!-- Node26&#45;&gt;Node27 -->
<g id="edge46" class="edge">
<title>Node26&#45;&gt;Node27</title>
<path fill="none" stroke="#191970" d="M1256.7188,-235.3906C1258.0007,-228.2234 1259.8138,-218.0862 1261.4979,-208.671"/>
<polygon fill="#191970" stroke="#191970" points="1264.9937,-209.0046 1263.3091,-198.5446 1258.103,-207.7721 1264.9937,-209.0046"/>
</g>
<!-- Node28 -->
<g id="node29" class="node">
<title>Node28</title>
<g id="a_node29"><a xlink:href="api_2spec_2schedule__types_8h.html" target="_top" xlink:title="ODP schedule types. ">
<polygon fill="#ffffff" stroke="#000000" points="987.5,-168.5 987.5,-198.5 1112.5,-198.5 1112.5,-168.5 987.5,-168.5"/>
<text text-anchor="start" x="995.5" y="-186.5" font-family="Helvetica,sans-Serif" font-size="10.00" fill="#000000">odp/api/spec/schedule</text>
<text text-anchor="middle" x="1050" y="-175.5" font-family="Helvetica,sans-Serif" font-size="10.00" fill="#000000">_types.h</text>
</a>
</g>
</g>
<!-- Node26&#45;&gt;Node28 -->
<g id="edge47" class="edge">
<title>Node26&#45;&gt;Node28</title>
<path fill="none" stroke="#191970" d="M1222.9688,-235.3906C1192.784,-226.3352 1146.7967,-212.539 1109.8262,-201.4479"/>
<polygon fill="#191970" stroke="#191970" points="1110.7327,-198.0657 1100.1486,-198.5446 1108.7212,-204.7705 1110.7327,-198.0657"/>
</g>
<!-- Node28&#45;&gt;Node1 -->
<g id="edge48" class="edge">
<title>Node28&#45;&gt;Node1</title>
<path fill="none" stroke="#191970" d="M1001.3257,-168.4506C939.1466,-148.8585 828.503,-112.7581 736,-76 716.0374,-68.0674 711.7296,-64.4957 692,-56 665.5635,-44.6162 635.3528,-32.3564 612.8239,-23.3583"/>
<polygon fill="#191970" stroke="#191970" points="613.9495,-20.0392 603.3641,-19.5913 611.3597,-26.5426 613.9495,-20.0392"/>
</g>
<!-- Node28&#45;&gt;Node9 -->
<g id="edge53" class="edge">
<title>Node28&#45;&gt;Node9</title>
<path fill="none" stroke="#191970" d="M1098.105,-168.4549C1138.5574,-152.7702 1193.0441,-123.6856 1214,-76 1221.1093,-59.8226 1211.8975,-41.1675 1202.3544,-27.8266"/>
<polygon fill="#191970" stroke="#191970" points="1205.1016,-25.6578 1196.2035,-19.9066 1199.573,-29.9514 1205.1016,-25.6578"/>
</g>
<!-- Node29 -->
<g id="node30" class="node">
<title>Node29</title>
<g id="a_node30"><a xlink:href="support_8h.html" target="_top" xlink:title="ODP support API &#45; platform specific header. ">
<polygon fill="#ffffff" stroke="#000000" points="1042.5,-112.5 1042.5,-131.5 1143.5,-131.5 1143.5,-112.5 1042.5,-112.5"/>
<text text-anchor="middle" x="1093" y="-119.5" font-family="Helvetica,sans-Serif" font-size="10.00" fill="#000000">odp/api/support.h</text>
</a>
</g>
</g>
<!-- Node28&#45;&gt;Node29 -->
<g id="edge49" class="edge">
<title>Node28&#45;&gt;Node29</title>
<path fill="none" stroke="#191970" d="M1060.6292,-168.2977C1066.5981,-159.7609 1074.0838,-149.0545 1080.3529,-140.0883"/>
<polygon fill="#191970" stroke="#191970" points="1083.2534,-142.048 1086.1152,-131.8469 1077.5165,-138.0368 1083.2534,-142.048"/>
</g>
<!-- Node30 -->
<g id="node31" class="node">
<title>Node30</title>
<g id="a_node31"><a xlink:href="spec_2support_8h.html" target="_top" xlink:title="ODP support API. ">
<polygon fill="#ffffff" stroke="#000000" points="1077.5,-56.5 1077.5,-75.5 1204.5,-75.5 1204.5,-56.5 1077.5,-56.5"/>
<text text-anchor="middle" x="1141" y="-63.5" font-family="Helvetica,sans-Serif" font-size="10.00" fill="#000000">odp/api/spec/support.h</text>
</a>
</g>
</g>
<!-- Node29&#45;&gt;Node30 -->
<g id="edge50" class="edge">
<title>Node29&#45;&gt;Node30</title>
<path fill="none" stroke="#191970" d="M1101.361,-112.2455C1108.175,-104.2958 1117.9681,-92.8706 1126.1152,-83.3656"/>
<polygon fill="#191970" stroke="#191970" points="1128.8843,-85.513 1132.7349,-75.6427 1123.5695,-80.9575 1128.8843,-85.513"/>
</g>
<!-- Node30&#45;&gt;Node1 -->
<g id="edge51" class="edge">
<title>Node30&#45;&gt;Node1</title>
<path fill="none" stroke="#191970" d="M1077.4163,-57.013C1074.5733,-56.6603 1071.7578,-56.3208 1069,-56 920.1696,-38.6873 745.3161,-23.5086 649.9264,-15.6639"/>
<polygon fill="#191970" stroke="#191970" points="650.0733,-12.1643 639.8208,-14.8359 649.5015,-19.1409 650.0733,-12.1643"/>
</g>
<!-- Node30&#45;&gt;Node9 -->
<g id="edge52" class="edge">
<title>Node30&#45;&gt;Node9</title>
<path fill="none" stroke="#191970" d="M1149.0126,-56.2455C1155.4768,-48.3761 1164.7385,-37.101 1172.4983,-27.6542"/>
<polygon fill="#191970" stroke="#191970" points="1175.4364,-29.5916 1179.0792,-19.6427 1170.0273,-25.1484 1175.4364,-29.5916"/>
</g>
<!-- Node32 -->
<g id="node33" class="node">
<title>Node32</title>
<g id="a_node33"><a xlink:href="spec_2deprecated_8h.html" target="_top" xlink:title="Macro for deprecated API definitions. ">
<polygon fill="#ffffff" stroke="#000000" points="914.5,-56.5 914.5,-75.5 1059.5,-75.5 1059.5,-56.5 914.5,-56.5"/>
<text text-anchor="middle" x="987" y="-63.5" font-family="Helvetica,sans-Serif" font-size="10.00" fill="#000000">odp/api/spec/deprecated.h</text>
</a>
</g>
</g>
<!-- Node31&#45;&gt;Node32 -->
<g id="edge55" class="edge">
<title>Node31&#45;&gt;Node32</title>
<path fill="none" stroke="#191970" d="M988.4124,-235.2967C985.2159,-226.1001 980.7772,-211.8237 979,-199 973.4676,-159.0812 979.1704,-111.898 983.3786,-85.8257"/>
<polygon fill="#191970" stroke="#191970" points="986.8692,-86.1772 985.1073,-75.7299 979.9697,-84.9957 986.8692,-86.1772"/>
</g>
<!-- Node32&#45;&gt;Node1 -->
<g id="edge56" class="edge">
<title>Node32&#45;&gt;Node1</title>
<path fill="none" stroke="#191970" d="M917.3259,-56.4369C842.767,-46.2033 725.1141,-30.0549 650.0356,-19.75"/>
<polygon fill="#191970" stroke="#191970" points="650.1162,-16.2283 639.7331,-18.3359 649.1643,-23.1633 650.1162,-16.2283"/>
</g>
<!-- Node32&#45;&gt;Node9 -->
<g id="edge57" class="edge">
<title>Node32&#45;&gt;Node9</title>
<path fill="none" stroke="#191970" d="M1021.3812,-56.3733C1055.0701,-46.9404 1106.5482,-32.5265 1143.1618,-22.2747"/>
<polygon fill="#191970" stroke="#191970" points="1144.3815,-25.5679 1153.0674,-19.5011 1142.494,-18.8271 1144.3815,-25.5679"/>
</g>
<!-- Node34 -->
<g id="node35" class="node">
<title>Node34</title>
<polygon fill="#ffffff" stroke="#bfbfbf" points="66.5,-297 66.5,-316 189.5,-316 189.5,-297 66.5,-297"/>
<text text-anchor="middle" x="128" y="-304" font-family="Helvetica,sans-Serif" font-size="10.00" fill="#000000">odp/api/abi/thrmask.h</text>
</g>
<!-- Node33&#45;&gt;Node34 -->
<g id="edge62" class="edge">
<title>Node33&#45;&gt;Node34</title>
<path fill="none" stroke="#191970" d="M153.3125,-358.3906C149.0227,-349.5965 142.5518,-336.3312 137.2266,-325.4145"/>
<polygon fill="#191970" stroke="#191970" points="140.2836,-323.6981 132.7536,-316.2449 133.9922,-326.7671 140.2836,-323.6981"/>
</g>
<!-- Node35 -->
<g id="node36" class="node">
<title>Node35</title>
<g id="a_node36"><a xlink:href="api_2spec_2thrmask_8h.html" target="_top" xlink:title="ODP thread masks. ">
<polygon fill="#ffffff" stroke="#000000" points="207.5,-297 207.5,-316 338.5,-316 338.5,-297 207.5,-297"/>
<text text-anchor="middle" x="273" y="-304" font-family="Helvetica,sans-Serif" font-size="10.00" fill="#000000">odp/api/spec/thrmask.h</text>
</a>
</g>
</g>
<!-- Node33&#45;&gt;Node35 -->
<g id="edge63" class="edge">
<title>Node33&#45;&gt;Node35</title>
<path fill="none" stroke="#191970" d="M175.9688,-358.3906C194.7884,-348.3262 224.5585,-332.4057 246.1641,-320.8514"/>
<polygon fill="#191970" stroke="#191970" points="247.9898,-323.8442 255.1574,-316.0419 244.6886,-317.6714 247.9898,-323.8442"/>
</g>
<!-- Node35&#45;&gt;Node1 -->
<g id="edge64" class="edge">
<title>Node35&#45;&gt;Node1</title>
<path fill="none" stroke="#191970" d="M244.1551,-296.9948C201.6062,-280.944 127,-244.1523 127,-183.5 127,-183.5 127,-183.5 127,-122 127,-44.467 380.7356,-20.2432 507.9886,-12.9699"/>
<polygon fill="#191970" stroke="#191970" points="508.2492,-16.4609 518.0413,-12.4155 507.8637,-9.4715 508.2492,-16.4609"/>
</g>
<!-- Node35&#45;&gt;Node2 -->
<g id="edge65" class="edge">
<title>Node35&#45;&gt;Node2</title>
<path fill="none" stroke="#191970" d="M293.625,-296.8906C315.5173,-286.6908 350.3193,-270.4763 375.1927,-258.8875"/>
<polygon fill="#191970" stroke="#191970" points="376.9335,-261.9377 384.5198,-254.5419 373.9772,-255.5926 376.9335,-261.9377"/>
</g>
<!-- Node35&#45;&gt;Node9 -->
<g id="edge66" class="edge">
<title>Node35&#45;&gt;Node9</title>
<path fill="none" stroke="#191970" d="M274.5737,-296.881C279.2993,-271.3056 295.8675,-201.3087 340,-168 363.7223,-150.0957 838.8196,-85.4433 867,-76 885.4702,-69.8106 887.4974,-62.0917 906,-56 977.3152,-32.5206 1062.9182,-20.7098 1120.7536,-14.9863"/>
<polygon fill="#191970" stroke="#191970" points="1121.2402,-18.4559 1130.8617,-14.02 1120.574,-11.4876 1121.2402,-18.4559"/>
</g>
</g>
</svg>
