<?xml version="1.0" encoding="UTF-8" standalone="no"?>
<!DOCTYPE svg PUBLIC "-//W3C//DTD SVG 1.1//EN"
 "http://www.w3.org/Graphics/SVG/1.1/DTD/svg11.dtd">
<!-- Generated by graphviz version 2.40.1 (20161225.0304)
 -->
<!-- Title: crypto.h Pages: 1 -->
<svg width="1594pt" height="722pt"
 viewBox="0.00 0.00 1594.32 722.00" xmlns="http://www.w3.org/2000/svg" xmlns:xlink="http://www.w3.org/1999/xlink">
<g id="graph0" class="graph" transform="scale(1 1) rotate(0) translate(4 718)">
<title>crypto.h</title>
<polygon fill="#ffffff" stroke="transparent" points="-4,4 -4,-718 1590.3164,-718 1590.3164,4 -4,4"/>
<!-- Node0 -->
<g id="node1" class="node">
<title>Node0</title>
<polygon fill="#bfbfbf" stroke="#000000" points="1306.8164,-694.5 1306.8164,-713.5 1362.8164,-713.5 1362.8164,-694.5 1306.8164,-694.5"/>
<text text-anchor="middle" x="1334.8164" y="-701.5" font-family="Helvetica,sans-Serif" font-size="10.00" fill="#000000">crypto.h</text>
</g>
<!-- Node1 -->
<g id="node2" class="node">
<title>Node1</title>
<g id="a_node2"><a xlink:href="api_2std__types_8h.html" target="_top" xlink:title="Standard C language types and definitions for ODP. ">
<polygon fill="#ffffff" stroke="#000000" points="217.8164,-235.5 217.8164,-254.5 329.8164,-254.5 329.8164,-235.5 217.8164,-235.5"/>
<text text-anchor="middle" x="273.8164" y="-242.5" font-family="Helvetica,sans-Serif" font-size="10.00" fill="#000000">odp/api/std_types.h</text>
</a>
</g>
</g>
<!-- Node0&#45;&gt;Node1 -->
<g id="edge1" class="edge">
<title>Node0&#45;&gt;Node1</title>
<path fill="none" stroke="#191970" d="M1306.7238,-702.7754C1130.6726,-694.9213 186.8164,-650.1043 186.8164,-592 186.8164,-592 186.8164,-592 186.8164,-368 186.8164,-322.6459 226.7308,-282.3012 252.4886,-260.9876"/>
<polygon fill="#191970" stroke="#191970" points="254.9718,-263.4837 260.603,-254.5093 250.6044,-258.0133 254.9718,-263.4837"/>
</g>
<!-- Node10 -->
<g id="node11" class="node">
<title>Node10</title>
<polygon fill="#ffffff" stroke="#bfbfbf" points="1182.8164,-358.5 1182.8164,-377.5 1298.8164,-377.5 1298.8164,-358.5 1182.8164,-358.5"/>
<text text-anchor="middle" x="1240.8164" y="-365.5" font-family="Helvetica,sans-Serif" font-size="10.00" fill="#000000">odp/api/abi/packet.h</text>
</g>
<!-- Node0&#45;&gt;Node10 -->
<g id="edge12" class="edge">
<title>Node0&#45;&gt;Node10</title>
<path fill="none" stroke="#191970" d="M1332.1046,-694.3065C1319.2123,-648.2235 1264.0123,-450.9127 1246.3059,-387.6219"/>
<polygon fill="#191970" stroke="#191970" points="1249.6041,-386.4201 1243.5393,-377.7328 1242.863,-388.306 1249.6041,-386.4201"/>
</g>
<!-- Node11 -->
<g id="node12" class="node">
<title>Node11</title>
<polygon fill="#ffffff" stroke="#bfbfbf" points="1473.3164,-638.5 1473.3164,-657.5 1586.3164,-657.5 1586.3164,-638.5 1473.3164,-638.5"/>
<text text-anchor="middle" x="1529.8164" y="-645.5" font-family="Helvetica,sans-Serif" font-size="10.00" fill="#000000">odp/api/abi/crypto.h</text>
</g>
<!-- Node0&#45;&gt;Node11 -->
<g id="edge13" class="edge">
<title>Node0&#45;&gt;Node11</title>
<path fill="none" stroke="#191970" d="M1363.1711,-695.8571C1395.6545,-686.5285 1449.2345,-671.1415 1486.8504,-660.339"/>
<polygon fill="#191970" stroke="#191970" points="1487.8804,-663.6847 1496.5258,-657.5604 1485.9482,-656.9567 1487.8804,-663.6847"/>
</g>
<!-- Node12 -->
<g id="node13" class="node">
<title>Node12</title>
<polygon fill="#ffffff" stroke="#bfbfbf" points="1438.8164,-358.5 1438.8164,-377.5 1548.8164,-377.5 1548.8164,-358.5 1438.8164,-358.5"/>
<text text-anchor="middle" x="1493.8164" y="-365.5" font-family="Helvetica,sans-Serif" font-size="10.00" fill="#000000">odp/api/abi/buffer.h</text>
</g>
<!-- Node0&#45;&gt;Node12 -->
<g id="edge14" class="edge">
<title>Node0&#45;&gt;Node12</title>
<path fill="none" stroke="#191970" d="M1355.7655,-694.4375C1387.681,-678.2626 1444.8164,-642.284 1444.8164,-592 1444.8164,-592 1444.8164,-592 1444.8164,-480 1444.8164,-444.3181 1465.9494,-407.1985 1480.4583,-385.9186"/>
<polygon fill="#191970" stroke="#191970" points="1483.4494,-387.7512 1486.3744,-377.5681 1477.7376,-383.7046 1483.4494,-387.7512"/>
</g>
<!-- Node13 -->
<g id="node14" class="node">
<title>Node13</title>
<polygon fill="#ffffff" stroke="#bfbfbf" points="1316.8164,-358.5 1316.8164,-377.5 1420.8164,-377.5 1420.8164,-358.5 1316.8164,-358.5"/>
<text text-anchor="middle" x="1368.8164" y="-365.5" font-family="Helvetica,sans-Serif" font-size="10.00" fill="#000000">odp/api/abi/pool.h</text>
</g>
<!-- Node0&#45;&gt;Node13 -->
<g id="edge15" class="edge">
<title>Node0&#45;&gt;Node13</title>
<path fill="none" stroke="#191970" d="M1338.4764,-694.2891C1341.7748,-685.0871 1346.4575,-670.8071 1348.8164,-658 1367.3118,-557.5855 1369.0648,-434.7581 1368.9868,-387.6612"/>
<polygon fill="#191970" stroke="#191970" points="1372.4866,-387.594 1368.9385,-377.611 1365.4867,-387.6277 1372.4866,-387.594"/>
</g>
<!-- Node14 -->
<g id="node15" class="node">
<title>Node14</title>
<g id="a_node15"><a xlink:href="api_2queue_8h.html" target="_top" xlink:title="ODP queue. ">
<polygon fill="#ffffff" stroke="#000000" points="1126.3164,-638.5 1126.3164,-657.5 1221.3164,-657.5 1221.3164,-638.5 1126.3164,-638.5"/>
<text text-anchor="middle" x="1173.8164" y="-645.5" font-family="Helvetica,sans-Serif" font-size="10.00" fill="#000000">odp/api/queue.h</text>
</a>
</g>
</g>
<!-- Node0&#45;&gt;Node14 -->
<g id="edge16" class="edge">
<title>Node0&#45;&gt;Node14</title>
<path fill="none" stroke="#191970" d="M1307.1396,-694.3733C1280.4836,-685.1016 1239.9927,-671.0178 1210.628,-660.804"/>
<polygon fill="#191970" stroke="#191970" points="1211.727,-657.4807 1201.1322,-657.5011 1209.4273,-664.0921 1211.727,-657.4807"/>
</g>
<!-- Node34 -->
<g id="node35" class="node">
<title>Node34</title>
<g id="a_node35"><a xlink:href="api_2spec_2crypto_8h.html" target="_top" xlink:title="ODP crypto. ">
<polygon fill="#ffffff" stroke="#000000" points="387.3164,-470.5 387.3164,-489.5 508.3164,-489.5 508.3164,-470.5 387.3164,-470.5"/>
<text text-anchor="middle" x="447.8164" y="-477.5" font-family="Helvetica,sans-Serif" font-size="10.00" fill="#000000">odp/api/spec/crypto.h</text>
</a>
</g>
</g>
<!-- Node0&#45;&gt;Node34 -->
<g id="edge62" class="edge">
<title>Node0&#45;&gt;Node34</title>
<path fill="none" stroke="#191970" d="M1306.6939,-698.1951C1265.2889,-689.613 1185.5065,-672.9411 1117.8164,-658 1009.1678,-634.0181 981.5589,-629.7707 873.8164,-602 731.4035,-565.2929 564.1329,-515.3767 488.5431,-492.4481"/>
<polygon fill="#191970" stroke="#191970" points="489.5122,-489.0846 478.9266,-489.5266 487.4773,-495.7824 489.5122,-489.0846"/>
</g>
<!-- Node2 -->
<g id="node3" class="node">
<title>Node2</title>
<polygon fill="#ffffff" stroke="#bfbfbf" points="26.8164,-174 26.8164,-193 156.8164,-193 156.8164,-174 26.8164,-174"/>
<text text-anchor="middle" x="91.8164" y="-181" font-family="Helvetica,sans-Serif" font-size="10.00" fill="#000000">odp/api/abi/std_types.h</text>
</g>
<!-- Node1&#45;&gt;Node2 -->
<g id="edge2" class="edge">
<title>Node1&#45;&gt;Node2</title>
<path fill="none" stroke="#191970" d="M245.3789,-235.3906C214.2592,-224.8749 164.22,-207.966 129.768,-196.3243"/>
<polygon fill="#191970" stroke="#191970" points="130.6485,-192.9274 120.0543,-193.0419 128.4075,-199.5591 130.6485,-192.9274"/>
</g>
<!-- Node3 -->
<g id="node4" class="node">
<title>Node3</title>
<g id="a_node4"><a xlink:href="api_2spec_2std__types_8h.html" target="_top" xlink:title="Standard C language types and definitions for ODP. ">
<polygon fill="#ffffff" stroke="#000000" points="251.3164,-174 251.3164,-193 388.3164,-193 388.3164,-174 251.3164,-174"/>
<text text-anchor="middle" x="319.8164" y="-181" font-family="Helvetica,sans-Serif" font-size="10.00" fill="#000000">odp/api/spec/std_types.h</text>
</a>
</g>
</g>
<!-- Node1&#45;&gt;Node3 -->
<g id="edge3" class="edge">
<title>Node1&#45;&gt;Node3</title>
<path fill="none" stroke="#191970" d="M281.0039,-235.3906C287.783,-226.3273 298.1142,-212.5149 306.4138,-201.4188"/>
<polygon fill="#191970" stroke="#191970" points="309.3407,-203.349 312.5276,-193.2449 303.7352,-199.1563 309.3407,-203.349"/>
</g>
<!-- Node4 -->
<g id="node5" class="node">
<title>Node4</title>
<g id="a_node5"><a xlink:href="visibility__begin_8h_source.html" target="_top" xlink:title="odp/visibility_begin.h">
<polygon fill="#ffffff" stroke="#000000" points="263.3164,-.5 263.3164,-19.5 384.3164,-19.5 384.3164,-.5 263.3164,-.5"/>
<text text-anchor="middle" x="323.8164" y="-7.5" font-family="Helvetica,sans-Serif" font-size="10.00" fill="#000000">odp/visibility_begin.h</text>
</a>
</g>
</g>
<!-- Node3&#45;&gt;Node4 -->
<g id="edge4" class="edge">
<title>Node3&#45;&gt;Node4</title>
<path fill="none" stroke="#191970" d="M278.7105,-173.9677C210.4561,-156.2385 85.597,-114.6009 131.8164,-56 146.927,-36.8415 204.6153,-24.7652 252.8489,-17.8192"/>
<polygon fill="#191970" stroke="#191970" points="253.5548,-21.2549 262.9792,-16.4142 252.5931,-14.3213 253.5548,-21.2549"/>
</g>
<!-- Node5 -->
<g id="node6" class="node">
<title>Node5</title>
<polygon fill="#ffffff" stroke="#bfbfbf" points="206.3164,-112.5 206.3164,-131.5 259.3164,-131.5 259.3164,-112.5 206.3164,-112.5"/>
<text text-anchor="middle" x="232.8164" y="-119.5" font-family="Helvetica,sans-Serif" font-size="10.00" fill="#000000">stdint.h</text>
</g>
<!-- Node3&#45;&gt;Node5 -->
<g id="edge5" class="edge">
<title>Node3&#45;&gt;Node5</title>
<path fill="none" stroke="#191970" d="M306.2227,-173.8906C292.4321,-164.1421 270.8692,-148.8994 254.6755,-137.4521"/>
<polygon fill="#191970" stroke="#191970" points="256.5009,-134.4563 246.3147,-131.5419 252.4602,-140.1723 256.5009,-134.4563"/>
</g>
<!-- Node6 -->
<g id="node7" class="node">
<title>Node6</title>
<g id="a_node7"><a xlink:href="api_2align_8h.html" target="_top" xlink:title="ODP alignments. ">
<polygon fill="#ffffff" stroke="#000000" points="277.3164,-112.5 277.3164,-131.5 366.3164,-131.5 366.3164,-112.5 277.3164,-112.5"/>
<text text-anchor="middle" x="321.8164" y="-119.5" font-family="Helvetica,sans-Serif" font-size="10.00" fill="#000000">odp/api/align.h</text>
</a>
</g>
</g>
<!-- Node3&#45;&gt;Node6 -->
<g id="edge6" class="edge">
<title>Node3&#45;&gt;Node6</title>
<path fill="none" stroke="#191970" d="M320.1289,-173.8906C320.4062,-165.3657 320.82,-152.6392 321.1685,-141.9235"/>
<polygon fill="#191970" stroke="#191970" points="324.6726,-141.8534 321.4995,-131.7449 317.6763,-141.6258 324.6726,-141.8534"/>
</g>
<!-- Node9 -->
<g id="node10" class="node">
<title>Node9</title>
<g id="a_node10"><a xlink:href="visibility__end_8h_source.html" target="_top" xlink:title="odp/visibility_end.h">
<polygon fill="#ffffff" stroke="#000000" points="845.8164,-.5 845.8164,-19.5 957.8164,-19.5 957.8164,-.5 845.8164,-.5"/>
<text text-anchor="middle" x="901.8164" y="-7.5" font-family="Helvetica,sans-Serif" font-size="10.00" fill="#000000">odp/visibility_end.h</text>
</a>
</g>
</g>
<!-- Node3&#45;&gt;Node9 -->
<g id="edge11" class="edge">
<title>Node3&#45;&gt;Node9</title>
<path fill="none" stroke="#191970" d="M336.5108,-173.9402C363.2642,-158.9545 417.7287,-129.8089 466.8164,-112 529.2364,-89.3542 549.6394,-99.3045 611.8164,-76 630.057,-69.1633 632.3725,-62.2671 650.8164,-56 711.7702,-35.2883 784.3983,-23.2684 835.808,-16.7463"/>
<polygon fill="#191970" stroke="#191970" points="836.301,-20.2121 845.7973,-15.5142 835.444,-13.2647 836.301,-20.2121"/>
</g>
<!-- Node7 -->
<g id="node8" class="node">
<title>Node7</title>
<polygon fill="#ffffff" stroke="#bfbfbf" points="141.3164,-56.5 141.3164,-75.5 248.3164,-75.5 248.3164,-56.5 141.3164,-56.5"/>
<text text-anchor="middle" x="194.8164" y="-63.5" font-family="Helvetica,sans-Serif" font-size="10.00" fill="#000000">odp/api/abi/align.h</text>
</g>
<!-- Node6&#45;&gt;Node7 -->
<g id="edge7" class="edge">
<title>Node6&#45;&gt;Node7</title>
<path fill="none" stroke="#191970" d="M299.9844,-112.3733C279.5061,-103.3435 248.6766,-89.7494 225.6845,-79.6111"/>
<polygon fill="#191970" stroke="#191970" points="226.9257,-76.3333 216.3636,-75.5011 224.1015,-82.7383 226.9257,-76.3333"/>
</g>
<!-- Node8 -->
<g id="node9" class="node">
<title>Node8</title>
<g id="a_node9"><a xlink:href="api_2spec_2align_8h.html" target="_top" xlink:title="ODP alignments. ">
<polygon fill="#ffffff" stroke="#000000" points="266.8164,-56.5 266.8164,-75.5 380.8164,-75.5 380.8164,-56.5 266.8164,-56.5"/>
<text text-anchor="middle" x="323.8164" y="-63.5" font-family="Helvetica,sans-Serif" font-size="10.00" fill="#000000">odp/api/spec/align.h</text>
</a>
</g>
</g>
<!-- Node6&#45;&gt;Node8 -->
<g id="edge8" class="edge">
<title>Node6&#45;&gt;Node8</title>
<path fill="none" stroke="#191970" d="M322.1648,-112.2455C322.4258,-104.9382 322.7916,-94.6944 323.1127,-85.7046"/>
<polygon fill="#191970" stroke="#191970" points="326.6128,-85.7613 323.4721,-75.6427 319.6173,-85.5113 326.6128,-85.7613"/>
</g>
<!-- Node8&#45;&gt;Node4 -->
<g id="edge9" class="edge">
<title>Node8&#45;&gt;Node4</title>
<path fill="none" stroke="#191970" d="M323.8164,-56.2455C323.8164,-48.9382 323.8164,-38.6944 323.8164,-29.7046"/>
<polygon fill="#191970" stroke="#191970" points="327.3165,-29.6426 323.8164,-19.6427 320.3165,-29.6427 327.3165,-29.6426"/>
</g>
<!-- Node8&#45;&gt;Node9 -->
<g id="edge10" class="edge">
<title>Node8&#45;&gt;Node9</title>
<path fill="none" stroke="#191970" d="M380.8192,-60.4772C488.5011,-50.0444 721.2544,-27.4939 835.6394,-16.4116"/>
<polygon fill="#191970" stroke="#191970" points="836.0502,-19.8883 845.666,-15.4402 835.3751,-12.9209 836.0502,-19.8883"/>
</g>
<!-- Node14&#45;&gt;Node1 -->
<g id="edge17" class="edge">
<title>Node14&#45;&gt;Node1</title>
<path fill="none" stroke="#191970" d="M1126.1198,-642.4528C938.6747,-620.6139 262.8164,-541.4901 262.8164,-536 262.8164,-536 262.8164,-536 262.8164,-368 262.8164,-331.3537 267.7204,-288.8092 270.9796,-264.5803"/>
<polygon fill="#191970" stroke="#191970" points="274.4646,-264.9306 272.3784,-254.5432 267.5316,-263.9643 274.4646,-264.9306"/>
</g>
<!-- Node14&#45;&gt;Node12 -->
<g id="edge20" class="edge">
<title>Node14&#45;&gt;Node12</title>
<path fill="none" stroke="#191970" d="M1196.9194,-638.4693C1215.2473,-630.2975 1240.9907,-617.4187 1260.8164,-602 1349.7403,-532.8427 1347.1097,-489.3881 1430.8164,-414 1443.2059,-402.8418 1458.2498,-391.7768 1470.5294,-383.2961"/>
<polygon fill="#191970" stroke="#191970" points="1472.595,-386.1242 1478.9049,-377.6132 1468.6647,-380.3317 1472.595,-386.1242"/>
</g>
<!-- Node14&#45;&gt;Node13 -->
<g id="edge21" class="edge">
<title>Node14&#45;&gt;Node13</title>
<path fill="none" stroke="#191970" d="M1192.0516,-638.3822C1206.3566,-630.1611 1226.0795,-617.2586 1239.8164,-602 1301.6209,-533.3494 1345.3263,-429.9207 1361.6956,-387.3522"/>
<polygon fill="#191970" stroke="#191970" points="1365.0068,-388.4909 1365.2627,-377.8992 1358.4575,-386.0195 1365.0068,-388.4909"/>
</g>
<!-- Node15 -->
<g id="node16" class="node">
<title>Node15</title>
<polygon fill="#ffffff" stroke="#bfbfbf" points="1016.8164,-358.5 1016.8164,-377.5 1126.8164,-377.5 1126.8164,-358.5 1016.8164,-358.5"/>
<text text-anchor="middle" x="1071.8164" y="-365.5" font-family="Helvetica,sans-Serif" font-size="10.00" fill="#000000">odp/api/abi/event.h</text>
</g>
<!-- Node14&#45;&gt;Node15 -->
<g id="edge18" class="edge">
<title>Node14&#45;&gt;Node15</title>
<path fill="none" stroke="#191970" d="M1153.7604,-638.3984C1139.3037,-630.511 1120.3767,-618.0371 1108.8164,-602 1090.8933,-577.136 1088.8164,-566.6506 1088.8164,-536 1088.8164,-536 1088.8164,-536 1088.8164,-480 1088.8164,-447.192 1081.598,-409.584 1076.5685,-387.3624"/>
<polygon fill="#191970" stroke="#191970" points="1079.9488,-386.4474 1074.2521,-377.5144 1073.1348,-388.0502 1079.9488,-386.4474"/>
</g>
<!-- Node16 -->
<g id="node17" class="node">
<title>Node16</title>
<polygon fill="#ffffff" stroke="#bfbfbf" points="1117.3164,-582.5 1117.3164,-601.5 1230.3164,-601.5 1230.3164,-582.5 1117.3164,-582.5"/>
<text text-anchor="middle" x="1173.8164" y="-589.5" font-family="Helvetica,sans-Serif" font-size="10.00" fill="#000000">odp/api/abi/queue.h</text>
</g>
<!-- Node14&#45;&gt;Node16 -->
<g id="edge19" class="edge">
<title>Node14&#45;&gt;Node16</title>
<path fill="none" stroke="#191970" d="M1173.8164,-638.2455C1173.8164,-630.9382 1173.8164,-620.6944 1173.8164,-611.7046"/>
<polygon fill="#191970" stroke="#191970" points="1177.3165,-611.6426 1173.8164,-601.6427 1170.3165,-611.6427 1177.3165,-611.6426"/>
</g>
<!-- Node17 -->
<g id="node18" class="node">
<title>Node17</title>
<g id="a_node18"><a xlink:href="api_2spec_2queue_8h.html" target="_top" xlink:title="ODP queue. ">
<polygon fill="#ffffff" stroke="#000000" points="882.8164,-582.5 882.8164,-601.5 1002.8164,-601.5 1002.8164,-582.5 882.8164,-582.5"/>
<text text-anchor="middle" x="942.8164" y="-589.5" font-family="Helvetica,sans-Serif" font-size="10.00" fill="#000000">odp/api/spec/queue.h</text>
</a>
</g>
</g>
<!-- Node14&#45;&gt;Node17 -->
<g id="edge22" class="edge">
<title>Node14&#45;&gt;Node17</title>
<path fill="none" stroke="#191970" d="M1134.3686,-638.4369C1095.0008,-628.8932 1034.413,-614.2052 991.9456,-603.9101"/>
<polygon fill="#191970" stroke="#191970" points="992.6447,-600.4783 982.1016,-601.5237 990.9955,-607.2812 992.6447,-600.4783"/>
</g>
<!-- Node17&#45;&gt;Node4 -->
<g id="edge23" class="edge">
<title>Node17&#45;&gt;Node4</title>
<path fill="none" stroke="#191970" d="M882.5185,-586.9134C777.7546,-576.8053 556.3344,-549.7956 378.8164,-490 326.827,-472.4877 317.0329,-460.1679 268.8164,-434 185.0068,-388.515 154.7263,-387.9118 85.8164,-322 38.865,-277.0913 23.0661,-261.9061 6.8164,-199 -10.2546,-132.9141 3.8837,-90.4339 62.8164,-56 94.3037,-37.6023 186.8712,-24.3511 252.8019,-16.9271"/>
<polygon fill="#191970" stroke="#191970" points="253.5857,-20.362 263.1413,-15.7858 252.8176,-13.4042 253.5857,-20.362"/>
</g>
<!-- Node17&#45;&gt;Node9 -->
<g id="edge61" class="edge">
<title>Node17&#45;&gt;Node9</title>
<path fill="none" stroke="#191970" d="M957.7239,-582.3644C1005.9796,-549.8732 1154.8164,-438.9255 1154.8164,-306.5 1154.8164,-306.5 1154.8164,-306.5 1154.8164,-122 1154.8164,-87.6999 1142.7462,-75.9104 1114.8164,-56 1091.5557,-39.418 1021.6156,-26.3921 968.1641,-18.4971"/>
<polygon fill="#191970" stroke="#191970" points="968.4498,-15.0021 958.0518,-17.035 967.448,-21.93 968.4498,-15.0021"/>
</g>
<!-- Node18 -->
<g id="node19" class="node">
<title>Node18</title>
<g id="a_node19"><a xlink:href="api_2event_8h.html" target="_top" xlink:title="ODP event. ">
<polygon fill="#ffffff" stroke="#000000" points="896.8164,-526.5 896.8164,-545.5 988.8164,-545.5 988.8164,-526.5 896.8164,-526.5"/>
<text text-anchor="middle" x="942.8164" y="-533.5" font-family="Helvetica,sans-Serif" font-size="10.00" fill="#000000">odp/api/event.h</text>
</a>
</g>
</g>
<!-- Node17&#45;&gt;Node18 -->
<g id="edge24" class="edge">
<title>Node17&#45;&gt;Node18</title>
<path fill="none" stroke="#191970" d="M942.8164,-582.2455C942.8164,-574.9382 942.8164,-564.6944 942.8164,-555.7046"/>
<polygon fill="#191970" stroke="#191970" points="946.3165,-555.6426 942.8164,-545.6427 939.3165,-555.6427 946.3165,-555.6426"/>
</g>
<!-- Node26 -->
<g id="node27" class="node">
<title>Node26</title>
<g id="a_node27"><a xlink:href="queue__types_8h.html" target="_top" xlink:title="ODP queue types. ">
<polygon fill="#ffffff" stroke="#000000" points="749.3164,-291.5 749.3164,-321.5 860.3164,-321.5 860.3164,-291.5 749.3164,-291.5"/>
<text text-anchor="start" x="757.3164" y="-309.5" font-family="Helvetica,sans-Serif" font-size="10.00" fill="#000000">odp/api/spec/queue</text>
<text text-anchor="middle" x="804.8164" y="-298.5" font-family="Helvetica,sans-Serif" font-size="10.00" fill="#000000">_types.h</text>
</a>
</g>
</g>
<!-- Node17&#45;&gt;Node26 -->
<g id="edge45" class="edge">
<title>Node17&#45;&gt;Node26</title>
<path fill="none" stroke="#191970" d="M911.3977,-582.45C870.1211,-567.727 802.8164,-535.2492 802.8164,-480 802.8164,-480 802.8164,-480 802.8164,-424 802.8164,-392.2968 803.5533,-355.789 804.1325,-331.9901"/>
<polygon fill="#191970" stroke="#191970" points="807.6385,-331.794 804.3923,-321.7087 800.6407,-331.6171 807.6385,-331.794"/>
</g>
<!-- Node18&#45;&gt;Node15 -->
<g id="edge25" class="edge">
<title>Node18&#45;&gt;Node15</title>
<path fill="none" stroke="#191970" d="M950.1217,-526.4862C970.9549,-499.3545 1030.9052,-421.2798 1058.1044,-385.8576"/>
<polygon fill="#191970" stroke="#191970" points="1060.9558,-387.891 1064.27,-377.8279 1055.4037,-383.6278 1060.9558,-387.891"/>
</g>
<!-- Node19 -->
<g id="node20" class="node">
<title>Node19</title>
<g id="a_node20"><a xlink:href="api_2spec_2event_8h.html" target="_top" xlink:title="ODP event. ">
<polygon fill="#ffffff" stroke="#000000" points="850.8164,-470.5 850.8164,-489.5 968.8164,-489.5 968.8164,-470.5 850.8164,-470.5"/>
<text text-anchor="middle" x="909.8164" y="-477.5" font-family="Helvetica,sans-Serif" font-size="10.00" fill="#000000">odp/api/spec/event.h</text>
</a>
</g>
</g>
<!-- Node18&#45;&gt;Node19 -->
<g id="edge26" class="edge">
<title>Node18&#45;&gt;Node19</title>
<path fill="none" stroke="#191970" d="M937.0683,-526.2455C932.5729,-518.617 926.1916,-507.7881 920.734,-498.5267"/>
<polygon fill="#191970" stroke="#191970" points="923.5911,-496.4811 915.4987,-489.6427 917.5603,-500.035 923.5911,-496.4811"/>
</g>
<!-- Node19&#45;&gt;Node4 -->
<g id="edge27" class="edge">
<title>Node19&#45;&gt;Node4</title>
<path fill="none" stroke="#191970" d="M850.7996,-477.7837C727.6877,-471.5505 454.8164,-448.6392 454.8164,-368 454.8164,-368 454.8164,-368 454.8164,-245 454.8164,-156.1711 443.3391,-126.8936 389.8164,-56 380.1327,-43.1734 365.8196,-32.5837 352.9954,-24.8115"/>
<polygon fill="#191970" stroke="#191970" points="354.4241,-21.5962 344.008,-19.6584 350.9422,-27.6688 354.4241,-21.5962"/>
</g>
<!-- Node19&#45;&gt;Node9 -->
<g id="edge44" class="edge">
<title>Node19&#45;&gt;Node9</title>
<path fill="none" stroke="#191970" d="M899.7376,-470.3627C877.7721,-448.2181 829.8694,-392.9294 859.8164,-358 928.0191,-278.4503 1013.4185,-390.3792 1092.8164,-322 1119.978,-298.6079 1116.8164,-280.846 1116.8164,-245 1116.8164,-245 1116.8164,-245 1116.8164,-122 1116.8164,-90.7875 1116.0923,-76.7956 1092.8164,-56 1074.354,-39.5049 1015.4083,-26.9251 967.8314,-19.1246"/>
<polygon fill="#191970" stroke="#191970" points="968.2973,-15.6547 957.8703,-17.5329 967.1927,-22.567 968.2973,-15.6547"/>
</g>
<!-- Node20 -->
<g id="node21" class="node">
<title>Node20</title>
<g id="a_node21"><a xlink:href="api_2packet_8h.html" target="_top" xlink:title="ODP packet descriptor. ">
<polygon fill="#ffffff" stroke="#000000" points="884.8164,-414.5 884.8164,-433.5 982.8164,-433.5 982.8164,-414.5 884.8164,-414.5"/>
<text text-anchor="middle" x="933.8164" y="-421.5" font-family="Helvetica,sans-Serif" font-size="10.00" fill="#000000">odp/api/packet.h</text>
</a>
</g>
</g>
<!-- Node19&#45;&gt;Node20 -->
<g id="edge28" class="edge">
<title>Node19&#45;&gt;Node20</title>
<path fill="none" stroke="#191970" d="M913.9969,-470.2455C917.1975,-462.7776 921.7124,-452.2427 925.6249,-443.1137"/>
<polygon fill="#191970" stroke="#191970" points="928.9616,-444.2129 929.6839,-433.6427 922.5276,-441.4554 928.9616,-444.2129"/>
</g>
<!-- Node20&#45;&gt;Node1 -->
<g id="edge29" class="edge">
<title>Node20&#45;&gt;Node1</title>
<path fill="none" stroke="#191970" d="M884.5946,-421.438C817.4174,-417.0291 693.7237,-405.6466 591.8164,-378 479.5803,-347.5513 354.4966,-286.6895 300.7465,-259.1343"/>
<polygon fill="#191970" stroke="#191970" points="302.346,-256.0212 291.8545,-254.545 299.1355,-262.2416 302.346,-256.0212"/>
</g>
<!-- Node20&#45;&gt;Node10 -->
<g id="edge32" class="edge">
<title>Node20&#45;&gt;Node10</title>
<path fill="none" stroke="#191970" d="M983.1413,-415.0026C1036.2266,-405.3193 1120.7854,-389.8949 1178.4485,-379.3766"/>
<polygon fill="#191970" stroke="#191970" points="1179.322,-382.7751 1188.5316,-377.5373 1178.0658,-375.8887 1179.322,-382.7751"/>
</g>
<!-- Node20&#45;&gt;Node12 -->
<g id="edge33" class="edge">
<title>Node20&#45;&gt;Node12</title>
<path fill="none" stroke="#191970" d="M982.8549,-420.4741C1070.2699,-413.966 1258.9862,-398.9097 1428.578,-378.0887"/>
<polygon fill="#191970" stroke="#191970" points="1429.1947,-381.5392 1438.6892,-376.8376 1428.3351,-374.5922 1429.1947,-381.5392"/>
</g>
<!-- Node20&#45;&gt;Node13 -->
<g id="edge34" class="edge">
<title>Node20&#45;&gt;Node13</title>
<path fill="none" stroke="#191970" d="M982.9089,-418.5975C1052.5842,-410.7895 1184.3924,-395.5028 1306.6814,-378.1192"/>
<polygon fill="#191970" stroke="#191970" points="1307.1901,-381.5821 1316.5942,-376.7024 1306.1996,-374.6526 1307.1901,-381.5821"/>
</g>
<!-- Node20&#45;&gt;Node15 -->
<g id="edge30" class="edge">
<title>Node20&#45;&gt;Node15</title>
<path fill="none" stroke="#191970" d="M957.5395,-414.3733C979.9901,-405.2629 1013.8904,-391.5062 1038.9419,-381.3404"/>
<polygon fill="#191970" stroke="#191970" points="1040.4529,-384.5045 1048.403,-377.5011 1037.8207,-378.0182 1040.4529,-384.5045"/>
</g>
<!-- Node21 -->
<g id="node22" class="node">
<title>Node21</title>
<polygon fill="#ffffff" stroke="#bfbfbf" points="868.8164,-358.5 868.8164,-377.5 998.8164,-377.5 998.8164,-358.5 868.8164,-358.5"/>
<text text-anchor="middle" x="933.8164" y="-365.5" font-family="Helvetica,sans-Serif" font-size="10.00" fill="#000000">odp/api/abi/packet_io.h</text>
</g>
<!-- Node20&#45;&gt;Node21 -->
<g id="edge31" class="edge">
<title>Node20&#45;&gt;Node21</title>
<path fill="none" stroke="#191970" d="M933.8164,-414.2455C933.8164,-406.9382 933.8164,-396.6944 933.8164,-387.7046"/>
<polygon fill="#191970" stroke="#191970" points="937.3165,-387.6426 933.8164,-377.6427 930.3165,-387.6427 937.3165,-387.6426"/>
</g>
<!-- Node22 -->
<g id="node23" class="node">
<title>Node22</title>
<g id="a_node23"><a xlink:href="api_2spec_2packet_8h.html" target="_top" xlink:title="ODP packet descriptor. ">
<polygon fill="#ffffff" stroke="#000000" points="600.3164,-358.5 600.3164,-377.5 723.3164,-377.5 723.3164,-358.5 600.3164,-358.5"/>
<text text-anchor="middle" x="661.8164" y="-365.5" font-family="Helvetica,sans-Serif" font-size="10.00" fill="#000000">odp/api/spec/packet.h</text>
</a>
</g>
</g>
<!-- Node20&#45;&gt;Node22 -->
<g id="edge35" class="edge">
<title>Node20&#45;&gt;Node22</title>
<path fill="none" stroke="#191970" d="M887.367,-414.4369C840.5229,-404.7925 768.1625,-389.8948 718.0902,-379.5858"/>
<polygon fill="#191970" stroke="#191970" points="718.5747,-376.1122 708.0743,-377.5237 717.163,-382.9684 718.5747,-376.1122"/>
</g>
<!-- Node22&#45;&gt;Node4 -->
<g id="edge36" class="edge">
<title>Node22&#45;&gt;Node4</title>
<path fill="none" stroke="#191970" d="M638.7004,-358.4314C566.0221,-328.3536 346.4949,-237.5544 338.8164,-235 277.8547,-214.7202 255.1077,-229.9661 198.8164,-199 181.1851,-189.3009 181.2863,-180.8695 165.8164,-168 145.0418,-150.7175 131.2981,-154.8156 116.8164,-132 98.5267,-103.1847 84.3183,-82.5079 105.8164,-56 124.2042,-33.3273 196.692,-21.3994 253.093,-15.4276"/>
<polygon fill="#191970" stroke="#191970" points="253.4677,-18.9077 263.063,-14.4154 252.7606,-11.9435 253.4677,-18.9077"/>
</g>
<!-- Node22&#45;&gt;Node9 -->
<g id="edge43" class="edge">
<title>Node22&#45;&gt;Node9</title>
<path fill="none" stroke="#191970" d="M723.5528,-360.9047C830.947,-346.8284 1040.8164,-310.8911 1040.8164,-245 1040.8164,-245 1040.8164,-245 1040.8164,-122 1040.8164,-88.3717 1028.61,-78.7188 1003.8164,-56 987.5209,-41.0681 965.5622,-30.3226 946.1931,-22.9917"/>
<polygon fill="#191970" stroke="#191970" points="947.232,-19.6461 936.6375,-19.5648 944.8689,-26.2352 947.232,-19.6461"/>
</g>
<!-- Node23 -->
<g id="node24" class="node">
<title>Node23</title>
<g id="a_node24"><a xlink:href="api_2time_8h.html" target="_top" xlink:title="ODP time. ">
<polygon fill="#ffffff" stroke="#000000" points="559.3164,-297 559.3164,-316 646.3164,-316 646.3164,-297 559.3164,-297"/>
<text text-anchor="middle" x="602.8164" y="-304" font-family="Helvetica,sans-Serif" font-size="10.00" fill="#000000">odp/api/time.h</text>
</a>
</g>
</g>
<!-- Node22&#45;&gt;Node23 -->
<g id="edge37" class="edge">
<title>Node22&#45;&gt;Node23</title>
<path fill="none" stroke="#191970" d="M652.5977,-358.3906C643.7306,-349.1478 630.1253,-334.966 619.3775,-323.7628"/>
<polygon fill="#191970" stroke="#191970" points="621.6138,-321.0381 612.1652,-316.2449 616.5624,-325.8841 621.6138,-321.0381"/>
</g>
<!-- Node23&#45;&gt;Node1 -->
<g id="edge38" class="edge">
<title>Node23&#45;&gt;Node1</title>
<path fill="none" stroke="#191970" d="M559.1278,-298.3333C501.5544,-287.5711 399.9786,-268.5835 334.8426,-256.4076"/>
<polygon fill="#191970" stroke="#191970" points="335.1868,-252.9114 324.7139,-254.5143 333.9005,-259.7922 335.1868,-252.9114"/>
</g>
<!-- Node24 -->
<g id="node25" class="node">
<title>Node24</title>
<polygon fill="#ffffff" stroke="#bfbfbf" points="495.3164,-235.5 495.3164,-254.5 600.3164,-254.5 600.3164,-235.5 495.3164,-235.5"/>
<text text-anchor="middle" x="547.8164" y="-242.5" font-family="Helvetica,sans-Serif" font-size="10.00" fill="#000000">odp/api/abi/time.h</text>
</g>
<!-- Node23&#45;&gt;Node24 -->
<g id="edge39" class="edge">
<title>Node23&#45;&gt;Node24</title>
<path fill="none" stroke="#191970" d="M594.2227,-296.8906C585.9568,-287.6478 573.2738,-273.466 563.2548,-262.2628"/>
<polygon fill="#191970" stroke="#191970" points="565.8065,-259.8657 556.5314,-254.7449 560.5887,-264.5321 565.8065,-259.8657"/>
</g>
<!-- Node25 -->
<g id="node26" class="node">
<title>Node25</title>
<g id="a_node26"><a xlink:href="api_2spec_2time_8h.html" target="_top" xlink:title="ODP time. ">
<polygon fill="#ffffff" stroke="#000000" points="659.3164,-56.5 659.3164,-75.5 772.3164,-75.5 772.3164,-56.5 659.3164,-56.5"/>
<text text-anchor="middle" x="715.8164" y="-63.5" font-family="Helvetica,sans-Serif" font-size="10.00" fill="#000000">odp/api/spec/time.h</text>
</a>
</g>
</g>
<!-- Node23&#45;&gt;Node25 -->
<g id="edge40" class="edge">
<title>Node23&#45;&gt;Node25</title>
<path fill="none" stroke="#191970" d="M606.4406,-296.9551C615.1307,-274.2792 638.1229,-215.5173 660.8164,-168 675.048,-138.2011 693.6405,-104.6821 705.151,-84.4639"/>
<polygon fill="#191970" stroke="#191970" points="708.2482,-86.0985 710.1826,-75.6817 702.1744,-82.6186 708.2482,-86.0985"/>
</g>
<!-- Node25&#45;&gt;Node4 -->
<g id="edge41" class="edge">
<title>Node25&#45;&gt;Node4</title>
<path fill="none" stroke="#191970" d="M659.2349,-57.9169C589.3308,-47.9306 470.3706,-30.9363 394.519,-20.1004"/>
<polygon fill="#191970" stroke="#191970" points="394.9658,-16.6287 384.5713,-18.6793 393.9758,-23.5584 394.9658,-16.6287"/>
</g>
<!-- Node25&#45;&gt;Node9 -->
<g id="edge42" class="edge">
<title>Node25&#45;&gt;Node9</title>
<path fill="none" stroke="#191970" d="M747.791,-56.3733C778.9877,-46.9807 826.5874,-32.6496 860.6096,-22.4064"/>
<polygon fill="#191970" stroke="#191970" points="861.6928,-25.7355 870.2591,-19.5011 859.6747,-19.0327 861.6928,-25.7355"/>
</g>
<!-- Node26&#45;&gt;Node4 -->
<g id="edge46" class="edge">
<title>Node26&#45;&gt;Node4</title>
<path fill="none" stroke="#191970" d="M805.527,-291.2257C805.381,-274.5897 802.2796,-248.5481 785.8164,-235 692.2674,-158.0149 355.8162,-240.0144 241.8164,-199 219.6478,-191.0242 218.6273,-180.7511 198.8164,-168 171.6989,-150.5461 155.9232,-157.2135 135.8164,-132 114.2361,-104.9387 97.1863,-83.0215 118.8164,-56 135.573,-35.0668 200.699,-23.0056 253.109,-16.5303"/>
<polygon fill="#191970" stroke="#191970" points="253.5504,-20.0025 263.0676,-15.347 252.7244,-13.0514 253.5504,-20.0025"/>
</g>
<!-- Node26&#45;&gt;Node9 -->
<g id="edge60" class="edge">
<title>Node26&#45;&gt;Node9</title>
<path fill="none" stroke="#191970" d="M860.6382,-296.32C905.8142,-287.0137 964.6526,-272.1204 981.8164,-255 1005.2655,-231.6102 1002.8164,-216.6201 1002.8164,-183.5 1002.8164,-183.5 1002.8164,-183.5 1002.8164,-122 1002.8164,-91.4754 1002.7702,-79.9271 983.8164,-56 972.4852,-41.6955 955.4124,-31.1119 939.7737,-23.7275"/>
<polygon fill="#191970" stroke="#191970" points="940.8477,-20.3757 930.286,-19.5383 938.0203,-26.7793 940.8477,-20.3757"/>
</g>
<!-- Node27 -->
<g id="node28" class="node">
<title>Node27</title>
<g id="a_node28"><a xlink:href="api_2schedule__types_8h.html" target="_top" xlink:title="ODP schedule. ">
<polygon fill="#ffffff" stroke="#000000" points="832.8164,-235.5 832.8164,-254.5 972.8164,-254.5 972.8164,-235.5 832.8164,-235.5"/>
<text text-anchor="middle" x="902.8164" y="-242.5" font-family="Helvetica,sans-Serif" font-size="10.00" fill="#000000">odp/api/schedule_types.h</text>
</a>
</g>
</g>
<!-- Node26&#45;&gt;Node27 -->
<g id="edge47" class="edge">
<title>Node26&#45;&gt;Node27</title>
<path fill="none" stroke="#191970" d="M828.7899,-291.4554C843.994,-281.9141 863.5924,-269.6151 878.804,-260.0691"/>
<polygon fill="#191970" stroke="#191970" points="881.0201,-262.8105 887.6299,-254.5303 877.2992,-256.8813 881.0201,-262.8105"/>
</g>
<!-- Node32 -->
<g id="node33" class="node">
<title>Node32</title>
<g id="a_node33"><a xlink:href="deprecated_8h.html" target="_top" xlink:title="Control deprecated API definitions. ">
<polygon fill="#ffffff" stroke="#000000" points="657.3164,-235.5 657.3164,-254.5 776.3164,-254.5 776.3164,-235.5 657.3164,-235.5"/>
<text text-anchor="middle" x="716.8164" y="-242.5" font-family="Helvetica,sans-Serif" font-size="10.00" fill="#000000">odp/api/deprecated.h</text>
</a>
</g>
</g>
<!-- Node26&#45;&gt;Node32 -->
<g id="edge56" class="edge">
<title>Node26&#45;&gt;Node32</title>
<path fill="none" stroke="#191970" d="M783.0636,-291.2977C769.6196,-281.9022 752.4153,-269.8787 738.9087,-260.4395"/>
<polygon fill="#191970" stroke="#191970" points="740.8452,-257.5228 730.6436,-254.6633 736.8353,-263.2605 740.8452,-257.5228"/>
</g>
<!-- Node28 -->
<g id="node29" class="node">
<title>Node28</title>
<polygon fill="#ffffff" stroke="#bfbfbf" points="857.3164,-168.5 857.3164,-198.5 974.3164,-198.5 974.3164,-168.5 857.3164,-168.5"/>
<text text-anchor="start" x="865.3164" y="-186.5" font-family="Helvetica,sans-Serif" font-size="10.00" fill="#000000">odp/api/abi/schedule</text>
<text text-anchor="middle" x="915.8164" y="-175.5" font-family="Helvetica,sans-Serif" font-size="10.00" fill="#000000">_types.h</text>
</g>
<!-- Node27&#45;&gt;Node28 -->
<g id="edge48" class="edge">
<title>Node27&#45;&gt;Node28</title>
<path fill="none" stroke="#191970" d="M904.8477,-235.3906C906.379,-228.1463 908.5517,-217.8679 910.5599,-208.3676"/>
<polygon fill="#191970" stroke="#191970" points="913.9924,-209.0523 912.6363,-198.5446 907.1438,-207.6045 913.9924,-209.0523"/>
</g>
<!-- Node29 -->
<g id="node30" class="node">
<title>Node29</title>
<g id="a_node30"><a xlink:href="api_2spec_2schedule__types_8h.html" target="_top" xlink:title="ODP schedule types. ">
<polygon fill="#ffffff" stroke="#000000" points="669.3164,-168.5 669.3164,-198.5 794.3164,-198.5 794.3164,-168.5 669.3164,-168.5"/>
<text text-anchor="start" x="677.3164" y="-186.5" font-family="Helvetica,sans-Serif" font-size="10.00" fill="#000000">odp/api/spec/schedule</text>
<text text-anchor="middle" x="731.8164" y="-175.5" font-family="Helvetica,sans-Serif" font-size="10.00" fill="#000000">_types.h</text>
</a>
</g>
</g>
<!-- Node27&#45;&gt;Node29 -->
<g id="edge49" class="edge">
<title>Node27&#45;&gt;Node29</title>
<path fill="none" stroke="#191970" d="M876.0977,-235.3906C851.3478,-226.4893 813.8611,-213.0073 783.3014,-202.0165"/>
<polygon fill="#191970" stroke="#191970" points="784.2422,-198.6355 773.6477,-198.5446 781.8732,-205.2224 784.2422,-198.6355"/>
</g>
<!-- Node29&#45;&gt;Node4 -->
<g id="edge50" class="edge">
<title>Node29&#45;&gt;Node4</title>
<path fill="none" stroke="#191970" d="M704.4297,-168.4257C675.5314,-152.9176 628.3683,-128.729 585.8164,-112 534.3918,-91.7827 518.4701,-95.6249 466.8164,-76 461.1077,-73.831 393.7071,-42.5387 353.5116,-23.833"/>
<polygon fill="#191970" stroke="#191970" points="354.9577,-20.6455 344.4147,-19.5983 352.0035,-26.9916 354.9577,-20.6455"/>
</g>
<!-- Node29&#45;&gt;Node9 -->
<g id="edge55" class="edge">
<title>Node29&#45;&gt;Node9</title>
<path fill="none" stroke="#191970" d="M739.5955,-168.1153C753.2126,-142.3594 783.5021,-89.9986 820.8164,-56 835.1707,-42.9213 853.8801,-31.9913 869.7009,-24.0717"/>
<polygon fill="#191970" stroke="#191970" points="871.6234,-27.0306 879.1136,-19.5374 868.5854,-20.7242 871.6234,-27.0306"/>
</g>
<!-- Node30 -->
<g id="node31" class="node">
<title>Node30</title>
<g id="a_node31"><a xlink:href="support_8h.html" target="_top" xlink:title="ODP support API &#45; platform specific header. ">
<polygon fill="#ffffff" stroke="#000000" points="475.3164,-112.5 475.3164,-131.5 576.3164,-131.5 576.3164,-112.5 475.3164,-112.5"/>
<text text-anchor="middle" x="525.8164" y="-119.5" font-family="Helvetica,sans-Serif" font-size="10.00" fill="#000000">odp/api/support.h</text>
</a>
</g>
</g>
<!-- Node29&#45;&gt;Node30 -->
<g id="edge51" class="edge">
<title>Node29&#45;&gt;Node30</title>
<path fill="none" stroke="#191970" d="M681.4232,-168.4554C646.4485,-158.0139 600.4119,-144.27 567.5037,-134.4455"/>
<polygon fill="#191970" stroke="#191970" points="568.3225,-131.0373 557.7391,-131.5303 566.32,-137.7448 568.3225,-131.0373"/>
</g>
<!-- Node31 -->
<g id="node32" class="node">
<title>Node31</title>
<g id="a_node32"><a xlink:href="spec_2support_8h.html" target="_top" xlink:title="ODP support API. ">
<polygon fill="#ffffff" stroke="#000000" points="475.3164,-56.5 475.3164,-75.5 602.3164,-75.5 602.3164,-56.5 475.3164,-56.5"/>
<text text-anchor="middle" x="538.8164" y="-63.5" font-family="Helvetica,sans-Serif" font-size="10.00" fill="#000000">odp/api/spec/support.h</text>
</a>
</g>
</g>
<!-- Node30&#45;&gt;Node31 -->
<g id="edge52" class="edge">
<title>Node30&#45;&gt;Node31</title>
<path fill="none" stroke="#191970" d="M528.0809,-112.2455C529.7959,-104.8579 532.2076,-94.4689 534.3109,-85.4087"/>
<polygon fill="#191970" stroke="#191970" points="537.7259,-86.1751 536.578,-75.6427 530.9072,-84.5922 537.7259,-86.1751"/>
</g>
<!-- Node31&#45;&gt;Node4 -->
<g id="edge53" class="edge">
<title>Node31&#45;&gt;Node4</title>
<path fill="none" stroke="#191970" d="M501.8566,-56.3733C465.4089,-46.8799 409.5918,-32.3415 370.1876,-22.0781"/>
<polygon fill="#191970" stroke="#191970" points="370.8533,-18.6348 360.294,-19.5011 369.0889,-25.4087 370.8533,-18.6348"/>
</g>
<!-- Node31&#45;&gt;Node9 -->
<g id="edge54" class="edge">
<title>Node31&#45;&gt;Node9</title>
<path fill="none" stroke="#191970" d="M600.8059,-56.4369C666.196,-46.3492 768.8419,-30.514 835.7367,-20.1941"/>
<polygon fill="#191970" stroke="#191970" points="836.3969,-23.6338 845.7463,-18.6499 835.3296,-16.7156 836.3969,-23.6338"/>
</g>
<!-- Node33 -->
<g id="node34" class="node">
<title>Node33</title>
<g id="a_node34"><a xlink:href="spec_2deprecated_8h.html" target="_top" xlink:title="Macro for deprecated API definitions. ">
<polygon fill="#ffffff" stroke="#000000" points="829.3164,-56.5 829.3164,-75.5 974.3164,-75.5 974.3164,-56.5 829.3164,-56.5"/>
<text text-anchor="middle" x="901.8164" y="-63.5" font-family="Helvetica,sans-Serif" font-size="10.00" fill="#000000">odp/api/spec/deprecated.h</text>
</a>
</g>
</g>
<!-- Node32&#45;&gt;Node33 -->
<g id="edge57" class="edge">
<title>Node32&#45;&gt;Node33</title>
<path fill="none" stroke="#191970" d="M741.8847,-235.3449C760.328,-227.4302 785.305,-214.9456 803.8164,-199 843.299,-164.9901 876.1011,-112.2632 891.8179,-84.5175"/>
<polygon fill="#191970" stroke="#191970" points="895.0261,-85.9492 896.816,-75.5066 888.9047,-82.5538 895.0261,-85.9492"/>
</g>
<!-- Node33&#45;&gt;Node4 -->
<g id="edge58" class="edge">
<title>Node33&#45;&gt;Node4</title>
<path fill="none" stroke="#191970" d="M829.1976,-58.9643C717.6163,-48.1536 505.3414,-27.5872 394.7709,-16.8745"/>
<polygon fill="#191970" stroke="#191970" points="395.0098,-13.3813 384.7189,-15.9006 394.3347,-20.3487 395.0098,-13.3813"/>
</g>
<!-- Node33&#45;&gt;Node9 -->
<g id="edge59" class="edge">
<title>Node33&#45;&gt;Node9</title>
<path fill="none" stroke="#191970" d="M901.8164,-56.2455C901.8164,-48.9382 901.8164,-38.6944 901.8164,-29.7046"/>
<polygon fill="#191970" stroke="#191970" points="905.3165,-29.6426 901.8164,-19.6427 898.3165,-29.6427 905.3165,-29.6426"/>
</g>
<!-- Node34&#45;&gt;Node4 -->
<g id="edge63" class="edge">
<title>Node34&#45;&gt;Node4</title>
<path fill="none" stroke="#191970" d="M414.7109,-470.4233C329.8559,-443.8652 105.1377,-360.3766 17.8164,-199 -14.0669,-140.077 60.0144,-77.3546 91.8164,-56 117.7444,-38.5898 194.7739,-25.6283 253.0207,-17.9759"/>
<polygon fill="#191970" stroke="#191970" points="253.8221,-21.4018 263.2941,-16.6552 252.9294,-14.4589 253.8221,-21.4018"/>
</g>
<!-- Node34&#45;&gt;Node9 -->
<g id="edge67" class="edge">
<title>Node34&#45;&gt;Node9</title>
<path fill="none" stroke="#191970" d="M477.6719,-470.4781C543.7854,-449.4739 707.6343,-397.8682 845.8164,-358 904.6547,-341.024 923.9508,-349.2009 978.8164,-322 1029.0726,-297.0843 1078.8164,-301.0934 1078.8164,-245 1078.8164,-245 1078.8164,-245 1078.8164,-122 1078.8164,-65.4608 1013.5275,-36.2861 962.255,-22.0919"/>
<polygon fill="#191970" stroke="#191970" points="963.0993,-18.695 952.5375,-19.5309 961.3154,-25.4639 963.0993,-18.695"/>
</g>
<!-- Node34&#45;&gt;Node20 -->
<g id="edge66" class="edge">
<title>Node34&#45;&gt;Node20</title>
<path fill="none" stroke="#191970" d="M508.386,-473.0208C602.1982,-462.2112 781.4965,-441.5513 874.5253,-430.8319"/>
<polygon fill="#191970" stroke="#191970" points="875.0811,-434.2911 884.6147,-429.6693 874.2798,-427.3371 875.0811,-434.2911"/>
</g>
<!-- Node34&#45;&gt;Node30 -->
<g id="edge65" class="edge">
<title>Node34&#45;&gt;Node30</title>
<path fill="none" stroke="#191970" d="M436.7304,-470.4418C417.2257,-452.4968 378.8164,-411.6211 378.8164,-368 378.8164,-368 378.8164,-368 378.8164,-306.5 378.8164,-228.8538 459.4402,-165.0232 501.2708,-137.131"/>
<polygon fill="#191970" stroke="#191970" points="503.3304,-139.9667 509.805,-131.5804 499.5138,-134.0986 503.3304,-139.9667"/>
</g>
<!-- Node34&#45;&gt;Node32 -->
<g id="edge64" class="edge">
<title>Node34&#45;&gt;Node32</title>
<path fill="none" stroke="#191970" d="M457.7501,-470.4114C480.3875,-448.8315 538.0145,-395.4141 591.8164,-358 618.6104,-339.3674 630.9948,-343.1889 655.8164,-322 675.9846,-304.7835 694.1562,-280.076 705.3167,-263.3278"/>
<polygon fill="#191970" stroke="#191970" points="708.5349,-264.7978 711.0398,-254.5033 702.6619,-260.9889 708.5349,-264.7978"/>
</g>
</g>
</svg>
