<?xml version="1.0" encoding="UTF-8" standalone="no"?>
<!DOCTYPE svg PUBLIC "-//W3C//DTD SVG 1.1//EN"
 "http://www.w3.org/Graphics/SVG/1.1/DTD/svg11.dtd">
<!-- Generated by graphviz version 2.40.1 (20161225.0304)
 -->
<!-- Title: packet_io.h Pages: 1 -->
<svg width="1566pt" height="789pt"
 viewBox="0.00 0.00 1566.00 789.00" xmlns="http://www.w3.org/2000/svg" xmlns:xlink="http://www.w3.org/1999/xlink">
<g id="graph0" class="graph" transform="scale(1 1) rotate(0) translate(4 785)">
<title>packet_io.h</title>
<polygon fill="#ffffff" stroke="transparent" points="-4,4 -4,-785 1562,-785 1562,4 -4,4"/>
<!-- Node0 -->
<g id="node1" class="node">
<title>Node0</title>
<polygon fill="#bfbfbf" stroke="#000000" points="203.5,-761.5 203.5,-780.5 276.5,-780.5 276.5,-761.5 203.5,-761.5"/>
<text text-anchor="middle" x="240" y="-768.5" font-family="Helvetica,sans-Serif" font-size="10.00" fill="#000000">packet_io.h</text>
</g>
<!-- Node1 -->
<g id="node2" class="node">
<title>Node1</title>
<g id="a_node2"><a xlink:href="api_2std__types_8h.html" target="_top" xlink:title="Standard C language types and definitions for ODP. ">
<polygon fill="#ffffff" stroke="#000000" points="307,-246.5 307,-265.5 419,-265.5 419,-246.5 307,-246.5"/>
<text text-anchor="middle" x="363" y="-253.5" font-family="Helvetica,sans-Serif" font-size="10.00" fill="#000000">odp/api/std_types.h</text>
</a>
</g>
</g>
<!-- Node0&#45;&gt;Node1 -->
<g id="edge1" class="edge">
<title>Node0&#45;&gt;Node1</title>
<path fill="none" stroke="#191970" d="M203.4052,-765.9683C153.3333,-758.5142 66.7381,-743.4154 41,-725 12.9157,-704.906 0,-693.5325 0,-659 0,-659 0,-659 0,-435 0,-356.5647 47.8874,-340.8943 116,-302 146.1401,-284.7891 234.2582,-271.2 296.6236,-263.3808"/>
<polygon fill="#191970" stroke="#191970" points="297.2884,-266.8254 306.7854,-262.1289 296.4325,-259.878 297.2884,-266.8254"/>
</g>
<!-- Node10 -->
<g id="node11" class="node">
<title>Node10</title>
<polygon fill="#ffffff" stroke="#bfbfbf" points="424,-369.5 424,-388.5 528,-388.5 528,-369.5 424,-369.5"/>
<text text-anchor="middle" x="476" y="-376.5" font-family="Helvetica,sans-Serif" font-size="10.00" fill="#000000">odp/api/abi/pool.h</text>
</g>
<!-- Node0&#45;&gt;Node10 -->
<g id="edge12" class="edge">
<title>Node0&#45;&gt;Node10</title>
<path fill="none" stroke="#191970" d="M252.5499,-761.4082C274.136,-743.7155 316,-703.6472 316,-659 316,-659 316,-659 316,-491 316,-436.7109 378.587,-406.5195 425.4728,-391.5189"/>
<polygon fill="#191970" stroke="#191970" points="426.6693,-394.8132 435.2113,-388.5453 424.625,-388.1183 426.6693,-394.8132"/>
</g>
<!-- Node11 -->
<g id="node12" class="node">
<title>Node11</title>
<polygon fill="#ffffff" stroke="#bfbfbf" points="66,-705.5 66,-724.5 212,-724.5 212,-705.5 66,-705.5"/>
<text text-anchor="middle" x="139" y="-712.5" font-family="Helvetica,sans-Serif" font-size="10.00" fill="#000000">odp/api/abi/classification.h</text>
</g>
<!-- Node0&#45;&gt;Node11 -->
<g id="edge13" class="edge">
<title>Node0&#45;&gt;Node11</title>
<path fill="none" stroke="#191970" d="M222.4071,-761.2455C206.621,-752.4928 183.2361,-739.527 165.2413,-729.5496"/>
<polygon fill="#191970" stroke="#191970" points="166.8341,-726.4308 156.3913,-724.6427 163.4397,-732.5528 166.8341,-726.4308"/>
</g>
<!-- Node12 -->
<g id="node13" class="node">
<title>Node12</title>
<polygon fill="#ffffff" stroke="#bfbfbf" points="142,-369.5 142,-388.5 258,-388.5 258,-369.5 142,-369.5"/>
<text text-anchor="middle" x="200" y="-376.5" font-family="Helvetica,sans-Serif" font-size="10.00" fill="#000000">odp/api/abi/packet.h</text>
</g>
<!-- Node0&#45;&gt;Node12 -->
<g id="edge14" class="edge">
<title>Node0&#45;&gt;Node12</title>
<path fill="none" stroke="#191970" d="M203.1593,-767.0427C155.0294,-761.0259 74.7769,-747.7984 57,-725 -28.1399,-615.8102 127.4312,-448.7588 182.0643,-395.7479"/>
<polygon fill="#191970" stroke="#191970" points="184.5465,-398.2169 189.3519,-388.7745 179.707,-393.1593 184.5465,-398.2169"/>
</g>
<!-- Node13 -->
<g id="node14" class="node">
<title>Node13</title>
<polygon fill="#ffffff" stroke="#bfbfbf" points="276,-369.5 276,-388.5 406,-388.5 406,-369.5 276,-369.5"/>
<text text-anchor="middle" x="341" y="-376.5" font-family="Helvetica,sans-Serif" font-size="10.00" fill="#000000">odp/api/abi/packet_io.h</text>
</g>
<!-- Node0&#45;&gt;Node13 -->
<g id="edge15" class="edge">
<title>Node0&#45;&gt;Node13</title>
<path fill="none" stroke="#191970" d="M237.1438,-761.0683C228.3065,-730.001 202,-634.8472 202,-603 202,-603 202,-603 202,-491 202,-440.0738 259.2728,-408.3787 300.2917,-392.2092"/>
<polygon fill="#191970" stroke="#191970" points="301.6862,-395.4239 309.8057,-388.6178 299.214,-388.875 301.6862,-395.4239"/>
</g>
<!-- Node14 -->
<g id="node15" class="node">
<title>Node14</title>
<polygon fill="#ffffff" stroke="#bfbfbf" points="344.5,-593.5 344.5,-612.5 457.5,-612.5 457.5,-593.5 344.5,-593.5"/>
<text text-anchor="middle" x="401" y="-600.5" font-family="Helvetica,sans-Serif" font-size="10.00" fill="#000000">odp/api/abi/queue.h</text>
</g>
<!-- Node0&#45;&gt;Node14 -->
<g id="edge16" class="edge">
<title>Node0&#45;&gt;Node14</title>
<path fill="none" stroke="#191970" d="M249.1174,-761.4862C275.2288,-734.2396 350.5752,-655.6172 384.3158,-620.4096"/>
<polygon fill="#191970" stroke="#191970" points="387.1895,-622.4695 391.5816,-612.8279 382.1356,-617.6261 387.1895,-622.4695"/>
</g>
<!-- Node15 -->
<g id="node16" class="node">
<title>Node15</title>
<g id="a_node16"><a xlink:href="api_2spec_2packet__io_8h.html" target="_top" xlink:title="ODP Packet IO. ">
<polygon fill="#ffffff" stroke="#000000" points="455.5,-705.5 455.5,-724.5 592.5,-724.5 592.5,-705.5 455.5,-705.5"/>
<text text-anchor="middle" x="524" y="-712.5" font-family="Helvetica,sans-Serif" font-size="10.00" fill="#000000">odp/api/spec/packet_io.h</text>
</a>
</g>
</g>
<!-- Node0&#45;&gt;Node15 -->
<g id="edge17" class="edge">
<title>Node0&#45;&gt;Node15</title>
<path fill="none" stroke="#191970" d="M276.5466,-763.7936C324.4564,-754.3466 409.0566,-737.6649 465.8218,-726.4718"/>
<polygon fill="#191970" stroke="#191970" points="466.5976,-729.8863 475.7316,-724.5177 465.2433,-723.0185 466.5976,-729.8863"/>
</g>
<!-- Node2 -->
<g id="node3" class="node">
<title>Node2</title>
<polygon fill="#ffffff" stroke="#bfbfbf" points="412,-185 412,-204 542,-204 542,-185 412,-185"/>
<text text-anchor="middle" x="477" y="-192" font-family="Helvetica,sans-Serif" font-size="10.00" fill="#000000">odp/api/abi/std_types.h</text>
</g>
<!-- Node1&#45;&gt;Node2 -->
<g id="edge2" class="edge">
<title>Node1&#45;&gt;Node2</title>
<path fill="none" stroke="#191970" d="M380.8125,-246.3906C399.4685,-236.3262 428.9797,-220.4057 450.3974,-208.8514"/>
<polygon fill="#191970" stroke="#191970" points="452.1734,-211.8702 459.3126,-204.0419 448.8498,-205.7095 452.1734,-211.8702"/>
</g>
<!-- Node3 -->
<g id="node4" class="node">
<title>Node3</title>
<g id="a_node4"><a xlink:href="api_2spec_2std__types_8h.html" target="_top" xlink:title="Standard C language types and definitions for ODP. ">
<polygon fill="#ffffff" stroke="#000000" points="256.5,-185 256.5,-204 393.5,-204 393.5,-185 256.5,-185"/>
<text text-anchor="middle" x="325" y="-192" font-family="Helvetica,sans-Serif" font-size="10.00" fill="#000000">odp/api/spec/std_types.h</text>
</a>
</g>
</g>
<!-- Node1&#45;&gt;Node3 -->
<g id="edge3" class="edge">
<title>Node1&#45;&gt;Node3</title>
<path fill="none" stroke="#191970" d="M357.0625,-246.3906C351.5733,-237.5068 343.2647,-224.0601 336.481,-213.0811"/>
<polygon fill="#191970" stroke="#191970" points="339.2551,-210.9122 331.0212,-204.2449 333.3002,-214.5917 339.2551,-210.9122"/>
</g>
<!-- Node4 -->
<g id="node5" class="node">
<title>Node4</title>
<g id="a_node5"><a xlink:href="visibility__begin_8h_source.html" target="_top" xlink:title="odp/visibility_begin.h">
<polygon fill="#ffffff" stroke="#000000" points="1186.5,-.5 1186.5,-19.5 1307.5,-19.5 1307.5,-.5 1186.5,-.5"/>
<text text-anchor="middle" x="1247" y="-7.5" font-family="Helvetica,sans-Serif" font-size="10.00" fill="#000000">odp/visibility_begin.h</text>
</a>
</g>
</g>
<!-- Node3&#45;&gt;Node4 -->
<g id="edge4" class="edge">
<title>Node3&#45;&gt;Node4</title>
<path fill="none" stroke="#191970" d="M371.1271,-184.9613C381.5893,-182.9015 392.6632,-180.803 403,-179 538.4826,-155.3687 890.8209,-146.1061 1015,-87 1033.4644,-78.2114 1030.8974,-65.5115 1049,-56 1088.3725,-35.313 1136.9662,-23.8458 1176.1595,-17.5344"/>
<polygon fill="#191970" stroke="#191970" points="1176.8142,-20.975 1186.1687,-16.0007 1175.7539,-14.0558 1176.8142,-20.975"/>
</g>
<!-- Node5 -->
<g id="node6" class="node">
<title>Node5</title>
<polygon fill="#ffffff" stroke="#bfbfbf" points="298.5,-123.5 298.5,-142.5 351.5,-142.5 351.5,-123.5 298.5,-123.5"/>
<text text-anchor="middle" x="325" y="-130.5" font-family="Helvetica,sans-Serif" font-size="10.00" fill="#000000">stdint.h</text>
</g>
<!-- Node3&#45;&gt;Node5 -->
<g id="edge5" class="edge">
<title>Node3&#45;&gt;Node5</title>
<path fill="none" stroke="#191970" d="M325,-184.8906C325,-176.3657 325,-163.6392 325,-152.9235"/>
<polygon fill="#191970" stroke="#191970" points="328.5001,-152.7448 325,-142.7449 321.5001,-152.7449 328.5001,-152.7448"/>
</g>
<!-- Node6 -->
<g id="node7" class="node">
<title>Node6</title>
<g id="a_node7"><a xlink:href="api_2align_8h.html" target="_top" xlink:title="ODP alignments. ">
<polygon fill="#ffffff" stroke="#000000" points="408.5,-123.5 408.5,-142.5 497.5,-142.5 497.5,-123.5 408.5,-123.5"/>
<text text-anchor="middle" x="453" y="-130.5" font-family="Helvetica,sans-Serif" font-size="10.00" fill="#000000">odp/api/align.h</text>
</a>
</g>
</g>
<!-- Node3&#45;&gt;Node6 -->
<g id="edge6" class="edge">
<title>Node3&#45;&gt;Node6</title>
<path fill="none" stroke="#191970" d="M345,-184.8906C366.2289,-174.6908 399.9762,-158.4763 424.096,-146.8875"/>
<polygon fill="#191970" stroke="#191970" points="425.6426,-150.0275 433.1404,-142.5419 422.6111,-143.7179 425.6426,-150.0275"/>
</g>
<!-- Node9 -->
<g id="node10" class="node">
<title>Node9</title>
<g id="a_node10"><a xlink:href="visibility__end_8h_source.html" target="_top" xlink:title="odp/visibility_end.h">
<polygon fill="#ffffff" stroke="#000000" points="605,-.5 605,-19.5 717,-19.5 717,-.5 605,-.5"/>
<text text-anchor="middle" x="661" y="-7.5" font-family="Helvetica,sans-Serif" font-size="10.00" fill="#000000">odp/visibility_end.h</text>
</a>
</g>
</g>
<!-- Node3&#45;&gt;Node9 -->
<g id="edge11" class="edge">
<title>Node3&#45;&gt;Node9</title>
<path fill="none" stroke="#191970" d="M315.488,-184.8647C306.6764,-175.2045 294.1765,-159.4403 289,-143 282.0006,-120.7702 277.8151,-73.0185 294,-56 314.3486,-34.6034 494.9116,-20.2068 594.9601,-13.7969"/>
<polygon fill="#191970" stroke="#191970" points="595.2139,-17.2879 604.9735,-13.1648 594.7729,-10.3018 595.2139,-17.2879"/>
</g>
<!-- Node7 -->
<g id="node8" class="node">
<title>Node7</title>
<polygon fill="#ffffff" stroke="#bfbfbf" points="336.5,-62 336.5,-81 443.5,-81 443.5,-62 336.5,-62"/>
<text text-anchor="middle" x="390" y="-69" font-family="Helvetica,sans-Serif" font-size="10.00" fill="#000000">odp/api/abi/align.h</text>
</g>
<!-- Node6&#45;&gt;Node7 -->
<g id="edge7" class="edge">
<title>Node6&#45;&gt;Node7</title>
<path fill="none" stroke="#191970" d="M443.1563,-123.3906C433.5961,-114.0581 418.8777,-99.6902 407.3505,-88.4374"/>
<polygon fill="#191970" stroke="#191970" points="409.5832,-85.7257 399.9825,-81.2449 404.6934,-90.7348 409.5832,-85.7257"/>
</g>
<!-- Node8 -->
<g id="node9" class="node">
<title>Node8</title>
<g id="a_node9"><a xlink:href="api_2spec_2align_8h.html" target="_top" xlink:title="ODP alignments. ">
<polygon fill="#ffffff" stroke="#000000" points="462,-62 462,-81 576,-81 576,-62 462,-62"/>
<text text-anchor="middle" x="519" y="-69" font-family="Helvetica,sans-Serif" font-size="10.00" fill="#000000">odp/api/spec/align.h</text>
</a>
</g>
</g>
<!-- Node6&#45;&gt;Node8 -->
<g id="edge8" class="edge">
<title>Node6&#45;&gt;Node8</title>
<path fill="none" stroke="#191970" d="M463.3125,-123.3906C473.4242,-113.9683 489.0442,-99.4134 501.1707,-88.1137"/>
<polygon fill="#191970" stroke="#191970" points="503.612,-90.6228 508.5421,-81.2449 498.8399,-85.5015 503.612,-90.6228"/>
</g>
<!-- Node8&#45;&gt;Node4 -->
<g id="edge9" class="edge">
<title>Node8&#45;&gt;Node4</title>
<path fill="none" stroke="#191970" d="M576.0619,-66.591C611.6921,-63.5313 658.5181,-59.5204 700,-56 870.932,-41.4938 1071.9291,-24.6444 1176.1992,-15.9192"/>
<polygon fill="#191970" stroke="#191970" points="1176.616,-19.3967 1186.2893,-15.075 1176.0322,-12.421 1176.616,-19.3967"/>
</g>
<!-- Node8&#45;&gt;Node9 -->
<g id="edge10" class="edge">
<title>Node8&#45;&gt;Node9</title>
<path fill="none" stroke="#191970" d="M541.1875,-61.8906C564.9467,-51.6005 602.8405,-35.1888 629.6425,-23.5809"/>
<polygon fill="#191970" stroke="#191970" points="631.183,-26.7279 638.9683,-19.5419 628.4009,-20.3045 631.183,-26.7279"/>
</g>
<!-- Node15&#45;&gt;Node4 -->
<g id="edge18" class="edge">
<title>Node15&#45;&gt;Node4</title>
<path fill="none" stroke="#191970" d="M592.7581,-713.7193C812.3701,-709.3831 1484.8734,-694.1084 1524,-669 1551.7705,-651.179 1558,-635.9968 1558,-603 1558,-603 1558,-603 1558,-133 1558,-87.3432 1529.6844,-78.5764 1490,-56 1461.1439,-39.5838 1378.4799,-26.2153 1317.5446,-18.2027"/>
<polygon fill="#191970" stroke="#191970" points="1317.9492,-14.726 1307.5829,-16.9147 1317.0515,-21.6682 1317.9492,-14.726"/>
</g>
<!-- Node15&#45;&gt;Node9 -->
<g id="edge72" class="edge">
<title>Node15&#45;&gt;Node9</title>
<path fill="none" stroke="#191970" d="M486.3918,-705.4271C457.8238,-697.4779 417.9638,-684.9122 385,-669 159.0105,-559.911 0,-506.9415 0,-256 0,-256 0,-256 0,-133 0,-72.9394 427.2469,-29.9496 594.7551,-15.4028"/>
<polygon fill="#191970" stroke="#191970" points="595.2659,-18.8719 604.9287,-14.5266 594.6652,-11.8977 595.2659,-18.8719"/>
</g>
<!-- Node16 -->
<g id="node17" class="node">
<title>Node16</title>
<g id="a_node17"><a xlink:href="deprecated_8h.html" target="_top" xlink:title="Control deprecated API definitions. ">
<polygon fill="#ffffff" stroke="#000000" points="1258.5,-246.5 1258.5,-265.5 1377.5,-265.5 1377.5,-246.5 1258.5,-246.5"/>
<text text-anchor="middle" x="1318" y="-253.5" font-family="Helvetica,sans-Serif" font-size="10.00" fill="#000000">odp/api/deprecated.h</text>
</a>
</g>
</g>
<!-- Node15&#45;&gt;Node16 -->
<g id="edge19" class="edge">
<title>Node15&#45;&gt;Node16</title>
<path fill="none" stroke="#191970" d="M592.7191,-712.6352C787.6324,-705.0208 1330,-677.1694 1330,-603 1330,-603 1330,-603 1330,-379 1330,-342.3261 1324.6502,-299.7908 1321.0947,-275.5711"/>
<polygon fill="#191970" stroke="#191970" points="1324.5327,-274.8983 1319.5688,-265.5382 1317.6123,-275.9508 1324.5327,-274.8983"/>
</g>
<!-- Node18 -->
<g id="node19" class="node">
<title>Node18</title>
<g id="a_node19"><a xlink:href="packet__io__stats_8h.html" target="_top" xlink:title="ODP packet IO stats. ">
<polygon fill="#ffffff" stroke="#000000" points="1373.5,-649.5 1373.5,-668.5 1514.5,-668.5 1514.5,-649.5 1373.5,-649.5"/>
<text text-anchor="middle" x="1444" y="-656.5" font-family="Helvetica,sans-Serif" font-size="10.00" fill="#000000">odp/api/packet_io_stats.h</text>
</a>
</g>
</g>
<!-- Node15&#45;&gt;Node18 -->
<g id="edge23" class="edge">
<title>Node15&#45;&gt;Node18</title>
<path fill="none" stroke="#191970" d="M592.6414,-712.1627C733.5765,-706.1135 1065.7354,-690.7078 1344,-669 1350.2214,-668.5147 1356.6563,-667.9697 1363.1235,-667.3914"/>
<polygon fill="#191970" stroke="#191970" points="1363.6488,-670.858 1373.2871,-666.4587 1363.0091,-663.8873 1363.6488,-670.858"/>
</g>
<!-- Node20 -->
<g id="node21" class="node">
<title>Node20</title>
<g id="a_node21"><a xlink:href="api_2queue_8h.html" target="_top" xlink:title="ODP queue. ">
<polygon fill="#ffffff" stroke="#000000" points="514.5,-649.5 514.5,-668.5 609.5,-668.5 609.5,-649.5 514.5,-649.5"/>
<text text-anchor="middle" x="562" y="-656.5" font-family="Helvetica,sans-Serif" font-size="10.00" fill="#000000">odp/api/queue.h</text>
</a>
</g>
</g>
<!-- Node15&#45;&gt;Node20 -->
<g id="edge27" class="edge">
<title>Node15&#45;&gt;Node20</title>
<path fill="none" stroke="#191970" d="M530.6191,-705.2455C535.9046,-697.4564 543.4541,-686.3308 549.8238,-676.9439"/>
<polygon fill="#191970" stroke="#191970" points="552.7379,-678.8827 555.4568,-668.6427 546.9455,-674.9522 552.7379,-678.8827"/>
</g>
<!-- Node26 -->
<g id="node27" class="node">
<title>Node26</title>
<g id="a_node27"><a xlink:href="api_2packet_8h.html" target="_top" xlink:title="ODP packet descriptor. ">
<polygon fill="#ffffff" stroke="#000000" points="507,-425.5 507,-444.5 605,-444.5 605,-425.5 507,-425.5"/>
<text text-anchor="middle" x="556" y="-432.5" font-family="Helvetica,sans-Serif" font-size="10.00" fill="#000000">odp/api/packet.h</text>
</a>
</g>
</g>
<!-- Node15&#45;&gt;Node26 -->
<g id="edge71" class="edge">
<title>Node15&#45;&gt;Node26</title>
<path fill="none" stroke="#191970" d="M519.0415,-705.4444C514.622,-696.352 508.4805,-682.1462 506,-669 504.3519,-660.2652 504.9821,-657.8304 506,-649 514.4302,-575.8661 538.5572,-491.4045 549.9298,-454.2384"/>
<polygon fill="#191970" stroke="#191970" points="553.2777,-455.2591 552.8974,-444.6711 546.5919,-453.1852 553.2777,-455.2591"/>
</g>
<!-- Node28 -->
<g id="node29" class="node">
<title>Node28</title>
<g id="a_node29"><a xlink:href="api_2time_8h.html" target="_top" xlink:title="ODP time. ">
<polygon fill="#ffffff" stroke="#000000" points="530.5,-308 530.5,-327 617.5,-327 617.5,-308 530.5,-308"/>
<text text-anchor="middle" x="574" y="-315" font-family="Helvetica,sans-Serif" font-size="10.00" fill="#000000">odp/api/time.h</text>
</a>
</g>
</g>
<!-- Node15&#45;&gt;Node28 -->
<g id="edge70" class="edge">
<title>Node15&#45;&gt;Node28</title>
<path fill="none" stroke="#191970" d="M500.3609,-705.3915C462.9832,-689.5349 388.9475,-655.3849 335,-613 224.2962,-526.0234 39.4018,-474.1647 133,-369 158.3759,-340.4882 408.4715,-325.2671 520.3663,-319.8381"/>
<polygon fill="#191970" stroke="#191970" points="520.6089,-323.3306 530.4308,-319.3582 520.2754,-316.3386 520.6089,-323.3306"/>
</g>
<!-- Node17 -->
<g id="node18" class="node">
<title>Node17</title>
<g id="a_node18"><a xlink:href="spec_2deprecated_8h.html" target="_top" xlink:title="Macro for deprecated API definitions. ">
<polygon fill="#ffffff" stroke="#000000" points="1100.5,-62 1100.5,-81 1245.5,-81 1245.5,-62 1100.5,-62"/>
<text text-anchor="middle" x="1173" y="-69" font-family="Helvetica,sans-Serif" font-size="10.00" fill="#000000">odp/api/spec/deprecated.h</text>
</a>
</g>
</g>
<!-- Node16&#45;&gt;Node17 -->
<g id="edge20" class="edge">
<title>Node16&#45;&gt;Node17</title>
<path fill="none" stroke="#191970" d="M1310.4083,-246.3402C1287.2114,-216.8242 1217.0196,-127.5111 1186.9341,-89.2299"/>
<polygon fill="#191970" stroke="#191970" points="1189.4476,-86.7639 1180.5165,-81.0641 1183.9439,-91.0893 1189.4476,-86.7639"/>
</g>
<!-- Node17&#45;&gt;Node4 -->
<g id="edge21" class="edge">
<title>Node17&#45;&gt;Node4</title>
<path fill="none" stroke="#191970" d="M1184.5625,-61.8906C1196.0079,-52.3786 1213.7473,-37.6357 1227.397,-26.2917"/>
<polygon fill="#191970" stroke="#191970" points="1229.8208,-28.8283 1235.2745,-19.7449 1225.3467,-23.4447 1229.8208,-28.8283"/>
</g>
<!-- Node17&#45;&gt;Node9 -->
<g id="edge22" class="edge">
<title>Node17&#45;&gt;Node9</title>
<path fill="none" stroke="#191970" d="M1100.4579,-62.7864C1000.9109,-50.8291 823.3926,-29.5061 727.2572,-17.9586"/>
<polygon fill="#191970" stroke="#191970" points="727.4264,-14.4539 717.0803,-16.7362 726.5915,-21.4039 727.4264,-14.4539"/>
</g>
<!-- Node19 -->
<g id="node20" class="node">
<title>Node19</title>
<g id="a_node20"><a xlink:href="spec_2packet__io__stats_8h.html" target="_top" xlink:title="ODP Packet IO. ">
<polygon fill="#ffffff" stroke="#000000" points="1264,-56.5 1264,-86.5 1378,-86.5 1378,-56.5 1264,-56.5"/>
<text text-anchor="start" x="1272" y="-74.5" font-family="Helvetica,sans-Serif" font-size="10.00" fill="#000000">odp/api/spec/packet</text>
<text text-anchor="middle" x="1321" y="-63.5" font-family="Helvetica,sans-Serif" font-size="10.00" fill="#000000">_io_stats.h</text>
</a>
</g>
</g>
<!-- Node18&#45;&gt;Node19 -->
<g id="edge24" class="edge">
<title>Node18&#45;&gt;Node19</title>
<path fill="none" stroke="#191970" d="M1449.607,-649.4834C1460.1774,-630.6141 1482,-586.8343 1482,-547 1482,-547 1482,-547 1482,-317.5 1482,-220.9574 1394.1121,-132.7859 1348.2069,-93.3171"/>
<polygon fill="#191970" stroke="#191970" points="1350.3192,-90.5199 1340.4204,-86.7433 1345.8035,-95.8686 1350.3192,-90.5199"/>
</g>
<!-- Node19&#45;&gt;Node4 -->
<g id="edge25" class="edge">
<title>Node19&#45;&gt;Node4</title>
<path fill="none" stroke="#191970" d="M1302.7079,-56.2977C1291.7939,-47.2274 1277.9329,-35.7077 1266.7676,-26.4285"/>
<polygon fill="#191970" stroke="#191970" points="1268.7762,-23.5468 1258.8483,-19.8469 1264.302,-28.9303 1268.7762,-23.5468"/>
</g>
<!-- Node19&#45;&gt;Node9 -->
<g id="edge26" class="edge">
<title>Node19&#45;&gt;Node9</title>
<path fill="none" stroke="#191970" d="M1263.8679,-57.517C1260.8769,-56.9623 1257.9077,-56.4513 1255,-56 1064.8894,-26.4937 837.4648,-15.5806 727.3061,-11.8187"/>
<polygon fill="#191970" stroke="#191970" points="727.1277,-8.3109 717.0169,-11.4766 726.895,-15.3071 727.1277,-8.3109"/>
</g>
<!-- Node20&#45;&gt;Node1 -->
<g id="edge28" class="edge">
<title>Node20&#45;&gt;Node1</title>
<path fill="none" stroke="#191970" d="M549.0101,-649.4766C530.9217,-636.3311 496.9871,-612.087 467,-593 314.7847,-496.1138 205.9919,-545.3902 116,-389 72.6564,-313.6765 209.7338,-278.7409 296.7784,-264.4857"/>
<polygon fill="#191970" stroke="#191970" points="297.5383,-267.909 306.8681,-262.8884 296.4438,-260.9951 297.5383,-267.909"/>
</g>
<!-- Node20&#45;&gt;Node10 -->
<g id="edge32" class="edge">
<title>Node20&#45;&gt;Node10</title>
<path fill="none" stroke="#191970" d="M560.8212,-649.3342C558.1207,-628.4707 550.7201,-577.8046 538,-537 524.7308,-494.4338 513.9542,-486.6343 498,-445 492.1249,-429.6684 486.286,-412.0093 482.1014,-398.8175"/>
<polygon fill="#191970" stroke="#191970" points="485.3364,-397.4357 479.0109,-388.9363 478.6556,-399.5252 485.3364,-397.4357"/>
</g>
<!-- Node20&#45;&gt;Node14 -->
<g id="edge30" class="edge">
<title>Node20&#45;&gt;Node14</title>
<path fill="none" stroke="#191970" d="M534.3231,-649.3733C507.6672,-640.1016 467.1762,-626.0178 437.8116,-615.804"/>
<polygon fill="#191970" stroke="#191970" points="438.9105,-612.4807 428.3157,-612.5011 436.6109,-619.0921 438.9105,-612.4807"/>
</g>
<!-- Node21 -->
<g id="node22" class="node">
<title>Node21</title>
<polygon fill="#ffffff" stroke="#bfbfbf" points="854,-369.5 854,-388.5 964,-388.5 964,-369.5 854,-369.5"/>
<text text-anchor="middle" x="909" y="-376.5" font-family="Helvetica,sans-Serif" font-size="10.00" fill="#000000">odp/api/abi/event.h</text>
</g>
<!-- Node20&#45;&gt;Node21 -->
<g id="edge29" class="edge">
<title>Node20&#45;&gt;Node21</title>
<path fill="none" stroke="#191970" d="M605.1374,-649.49C678.0955,-632.1466 818,-592.9043 818,-547 818,-547 818,-547 818,-491 818,-448.6829 857.6144,-413.4504 884.5688,-394.3755"/>
<polygon fill="#191970" stroke="#191970" points="886.8491,-397.0574 893.149,-388.5391 882.912,-391.2695 886.8491,-397.0574"/>
</g>
<!-- Node22 -->
<g id="node23" class="node">
<title>Node22</title>
<polygon fill="#ffffff" stroke="#bfbfbf" points="726,-369.5 726,-388.5 836,-388.5 836,-369.5 726,-369.5"/>
<text text-anchor="middle" x="781" y="-376.5" font-family="Helvetica,sans-Serif" font-size="10.00" fill="#000000">odp/api/abi/buffer.h</text>
</g>
<!-- Node20&#45;&gt;Node22 -->
<g id="edge31" class="edge">
<title>Node20&#45;&gt;Node22</title>
<path fill="none" stroke="#191970" d="M585.9954,-649.4657C621.0144,-633.7839 682,-599.0082 682,-547 682,-547 682,-547 682,-491 682,-447.255 724.9217,-412.5596 754.2418,-393.9623"/>
<polygon fill="#191970" stroke="#191970" points="756.1281,-396.9114 762.8419,-388.7153 752.4823,-390.9358 756.1281,-396.9114"/>
</g>
<!-- Node23 -->
<g id="node24" class="node">
<title>Node23</title>
<g id="a_node24"><a xlink:href="api_2spec_2queue_8h.html" target="_top" xlink:title="ODP queue. ">
<polygon fill="#ffffff" stroke="#000000" points="1019,-593.5 1019,-612.5 1139,-612.5 1139,-593.5 1019,-593.5"/>
<text text-anchor="middle" x="1079" y="-600.5" font-family="Helvetica,sans-Serif" font-size="10.00" fill="#000000">odp/api/spec/queue.h</text>
</a>
</g>
</g>
<!-- Node20&#45;&gt;Node23 -->
<g id="edge33" class="edge">
<title>Node20&#45;&gt;Node23</title>
<path fill="none" stroke="#191970" d="M609.7114,-653.832C701.2496,-643.9169 901.9027,-622.1827 1008.7665,-610.6075"/>
<polygon fill="#191970" stroke="#191970" points="1009.2436,-614.0764 1018.8086,-609.5198 1008.4898,-607.1171 1009.2436,-614.0764"/>
</g>
<!-- Node23&#45;&gt;Node4 -->
<g id="edge34" class="edge">
<title>Node23&#45;&gt;Node4</title>
<path fill="none" stroke="#191970" d="M1105.9227,-593.463C1201.6703,-557.6438 1520,-421.4879 1520,-194.5 1520,-194.5 1520,-194.5 1520,-133 1520,-87.3432 1491.299,-79.2408 1452,-56 1429.4567,-42.6682 1367.6961,-29.8185 1317.8109,-21.1052"/>
<polygon fill="#191970" stroke="#191970" points="1318.1349,-17.6096 1307.6864,-19.3644 1316.9487,-24.5084 1318.1349,-17.6096"/>
</g>
<!-- Node23&#45;&gt;Node9 -->
<g id="edge69" class="edge">
<title>Node23&#45;&gt;Node9</title>
<path fill="none" stroke="#191970" d="M1078.7577,-593.1901C1077.9619,-572.0466 1074.5566,-520.8687 1060,-481 1040.0275,-426.298 1029.6002,-413.4683 992,-369 922.2153,-286.4683 889.1927,-281.3381 808,-210 774.4224,-180.4979 765.7504,-173.4178 733,-143 706.745,-118.615 691.9077,-118.5924 675,-87 665.5074,-69.2628 662.3121,-46.2856 661.3051,-30.0629"/>
<polygon fill="#191970" stroke="#191970" points="664.785,-29.4724 660.8999,-19.6156 657.7902,-29.7438 664.785,-29.4724"/>
</g>
<!-- Node24 -->
<g id="node25" class="node">
<title>Node24</title>
<g id="a_node25"><a xlink:href="api_2event_8h.html" target="_top" xlink:title="ODP event. ">
<polygon fill="#ffffff" stroke="#000000" points="946,-537.5 946,-556.5 1038,-556.5 1038,-537.5 946,-537.5"/>
<text text-anchor="middle" x="992" y="-544.5" font-family="Helvetica,sans-Serif" font-size="10.00" fill="#000000">odp/api/event.h</text>
</a>
</g>
</g>
<!-- Node23&#45;&gt;Node24 -->
<g id="edge35" class="edge">
<title>Node23&#45;&gt;Node24</title>
<path fill="none" stroke="#191970" d="M1063.8458,-593.2455C1050.4973,-584.6534 1030.8414,-572.0014 1015.4617,-562.1018"/>
<polygon fill="#191970" stroke="#191970" points="1017.2836,-559.1121 1006.9806,-556.6427 1013.4949,-564.9982 1017.2836,-559.1121"/>
</g>
<!-- Node31 -->
<g id="node32" class="node">
<title>Node31</title>
<g id="a_node32"><a xlink:href="queue__types_8h.html" target="_top" xlink:title="ODP queue types. ">
<polygon fill="#ffffff" stroke="#000000" points="1061.5,-302.5 1061.5,-332.5 1172.5,-332.5 1172.5,-302.5 1061.5,-302.5"/>
<text text-anchor="start" x="1069.5" y="-320.5" font-family="Helvetica,sans-Serif" font-size="10.00" fill="#000000">odp/api/spec/queue</text>
<text text-anchor="middle" x="1117" y="-309.5" font-family="Helvetica,sans-Serif" font-size="10.00" fill="#000000">_types.h</text>
</a>
</g>
</g>
<!-- Node23&#45;&gt;Node31 -->
<g id="edge56" class="edge">
<title>Node23&#45;&gt;Node31</title>
<path fill="none" stroke="#191970" d="M1084.607,-593.4834C1095.1774,-574.6141 1117,-530.8343 1117,-491 1117,-491 1117,-491 1117,-435 1117,-403.3014 1117,-366.7926 1117,-342.9922"/>
<polygon fill="#191970" stroke="#191970" points="1120.5001,-342.7101 1117,-332.7101 1113.5001,-342.7102 1120.5001,-342.7101"/>
</g>
<!-- Node24&#45;&gt;Node21 -->
<g id="edge36" class="edge">
<title>Node24&#45;&gt;Node21</title>
<path fill="none" stroke="#191970" d="M968.5205,-537.3832C953.2251,-529.8332 934.2672,-517.7768 924,-501 904.5931,-469.2887 904.6536,-424.2364 906.6727,-398.688"/>
<polygon fill="#191970" stroke="#191970" points="910.1563,-399.0256 907.6411,-388.7336 903.1892,-398.3477 910.1563,-399.0256"/>
</g>
<!-- Node25 -->
<g id="node26" class="node">
<title>Node25</title>
<g id="a_node26"><a xlink:href="api_2spec_2event_8h.html" target="_top" xlink:title="ODP event. ">
<polygon fill="#ffffff" stroke="#000000" points="933,-481.5 933,-500.5 1051,-500.5 1051,-481.5 933,-481.5"/>
<text text-anchor="middle" x="992" y="-488.5" font-family="Helvetica,sans-Serif" font-size="10.00" fill="#000000">odp/api/spec/event.h</text>
</a>
</g>
</g>
<!-- Node24&#45;&gt;Node25 -->
<g id="edge37" class="edge">
<title>Node24&#45;&gt;Node25</title>
<path fill="none" stroke="#191970" d="M992,-537.2455C992,-529.9382 992,-519.6944 992,-510.7046"/>
<polygon fill="#191970" stroke="#191970" points="995.5001,-510.6426 992,-500.6427 988.5001,-510.6427 995.5001,-510.6426"/>
</g>
<!-- Node25&#45;&gt;Node4 -->
<g id="edge38" class="edge">
<title>Node25&#45;&gt;Node4</title>
<path fill="none" stroke="#191970" d="M1038.3415,-481.4691C1140.425,-457.4713 1380.5852,-383.6286 1443,-210 1466.2941,-145.1994 1477.1932,-102.0541 1426,-56 1409.7896,-41.4169 1360.3378,-29.3526 1317.5101,-21.2431"/>
<polygon fill="#191970" stroke="#191970" points="1318.1107,-17.7949 1307.6413,-19.4207 1316.8395,-24.6785 1318.1107,-17.7949"/>
</g>
<!-- Node25&#45;&gt;Node9 -->
<g id="edge55" class="edge">
<title>Node25&#45;&gt;Node9</title>
<path fill="none" stroke="#191970" d="M993.4211,-481.2258C996.1174,-458.7933 999.5412,-402.9408 973,-369 900.2375,-275.9515 816.0476,-344.7402 728,-266 660.0723,-205.2528 650.9632,-175.1878 628,-87 624.5282,-73.6668 623.7819,-69.1162 628,-56 631.3946,-45.4445 638.2058,-35.2592 644.7631,-27.1676"/>
<polygon fill="#191970" stroke="#191970" points="647.447,-29.4149 651.3508,-19.5654 642.1569,-24.8307 647.447,-29.4149"/>
</g>
<!-- Node25&#45;&gt;Node26 -->
<g id="edge39" class="edge">
<title>Node25&#45;&gt;Node26</title>
<path fill="none" stroke="#191970" d="M932.7453,-483.3893C849.3759,-472.6813 698.354,-453.284 615.0795,-442.5882"/>
<polygon fill="#191970" stroke="#191970" points="615.3874,-439.0991 605.023,-441.2965 614.4956,-446.042 615.3874,-439.0991"/>
</g>
<!-- Node26&#45;&gt;Node1 -->
<g id="edge40" class="edge">
<title>Node26&#45;&gt;Node1</title>
<path fill="none" stroke="#191970" d="M555.3017,-425.1022C553.8842,-411.301 549.6334,-386.0547 537,-369 500.9285,-320.3048 437.1173,-286.8087 397.6068,-269.566"/>
<polygon fill="#191970" stroke="#191970" points="398.6894,-266.2231 388.117,-265.533 395.9515,-272.6655 398.6894,-266.2231"/>
</g>
<!-- Node26&#45;&gt;Node10 -->
<g id="edge45" class="edge">
<title>Node26&#45;&gt;Node10</title>
<path fill="none" stroke="#191970" d="M542.0651,-425.2455C529.9053,-416.7337 512.0536,-404.2375 497.9715,-394.3801"/>
<polygon fill="#191970" stroke="#191970" points="499.9747,-391.51 489.7752,-388.6427 495.9605,-397.2447 499.9747,-391.51"/>
</g>
<!-- Node26&#45;&gt;Node12 -->
<g id="edge43" class="edge">
<title>Node26&#45;&gt;Node12</title>
<path fill="none" stroke="#191970" d="M506.8735,-427.2722C444.8792,-417.5203 337.9328,-400.6973 268.0867,-389.7103"/>
<polygon fill="#191970" stroke="#191970" points="268.4829,-386.2296 258.0605,-388.1331 267.3951,-393.1446 268.4829,-386.2296"/>
</g>
<!-- Node26&#45;&gt;Node13 -->
<g id="edge42" class="edge">
<title>Node26&#45;&gt;Node13</title>
<path fill="none" stroke="#191970" d="M519.0402,-425.3733C482.5925,-415.8799 426.7754,-401.3415 387.3711,-391.0781"/>
<polygon fill="#191970" stroke="#191970" points="388.0369,-387.6348 377.4775,-388.5011 386.2724,-394.4087 388.0369,-387.6348"/>
</g>
<!-- Node26&#45;&gt;Node21 -->
<g id="edge41" class="edge">
<title>Node26&#45;&gt;Node21</title>
<path fill="none" stroke="#191970" d="M605.0831,-427.2134C667.3773,-417.3311 775.0137,-400.2556 844.0562,-389.3027"/>
<polygon fill="#191970" stroke="#191970" points="844.6247,-392.7564 853.9528,-387.7327 843.5279,-385.8428 844.6247,-392.7564"/>
</g>
<!-- Node26&#45;&gt;Node22 -->
<g id="edge44" class="edge">
<title>Node26&#45;&gt;Node22</title>
<path fill="none" stroke="#191970" d="M594.4232,-425.4369C632.6875,-415.9133 691.5337,-401.2672 732.8849,-390.9753"/>
<polygon fill="#191970" stroke="#191970" points="733.8766,-394.3353 742.7353,-388.5237 732.1859,-387.5426 733.8766,-394.3353"/>
</g>
<!-- Node27 -->
<g id="node28" class="node">
<title>Node27</title>
<g id="a_node28"><a xlink:href="api_2spec_2packet_8h.html" target="_top" xlink:title="ODP packet descriptor. ">
<polygon fill="#ffffff" stroke="#000000" points="584.5,-369.5 584.5,-388.5 707.5,-388.5 707.5,-369.5 584.5,-369.5"/>
<text text-anchor="middle" x="646" y="-376.5" font-family="Helvetica,sans-Serif" font-size="10.00" fill="#000000">odp/api/spec/packet.h</text>
</a>
</g>
</g>
<!-- Node26&#45;&gt;Node27 -->
<g id="edge46" class="edge">
<title>Node26&#45;&gt;Node27</title>
<path fill="none" stroke="#191970" d="M571.6768,-425.2455C585.4856,-416.6534 605.8193,-404.0014 621.7292,-394.1018"/>
<polygon fill="#191970" stroke="#191970" points="623.8613,-396.8974 630.5028,-388.6427 620.1632,-390.954 623.8613,-396.8974"/>
</g>
<!-- Node27&#45;&gt;Node4 -->
<g id="edge47" class="edge">
<title>Node27&#45;&gt;Node4</title>
<path fill="none" stroke="#191970" d="M707.5441,-370.0914C710.7398,-369.7041 713.9063,-369.3373 717,-369 866.7506,-352.6736 1293.2165,-383.8832 1387,-266 1445.2755,-192.7494 1459.0517,-130.9659 1403,-56 1391.9022,-41.1574 1351.1679,-29.4415 1314.1085,-21.5484"/>
<polygon fill="#191970" stroke="#191970" points="1314.7859,-18.1145 1304.2853,-19.5245 1313.3732,-24.9705 1314.7859,-18.1145"/>
</g>
<!-- Node27&#45;&gt;Node9 -->
<g id="edge54" class="edge">
<title>Node27&#45;&gt;Node9</title>
<path fill="none" stroke="#191970" d="M644.6961,-369.439C639.6636,-336.5789 618.3017,-227.6273 551,-179 495.0777,-138.5946 462.1972,-172.8564 400,-143 354.7524,-121.2799 295.0273,-93.8406 328,-56 345.2303,-36.2259 502.4563,-21.5408 594.5744,-14.5479"/>
<polygon fill="#191970" stroke="#191970" points="594.9379,-18.0306 604.6489,-13.7941 594.4155,-11.0501 594.9379,-18.0306"/>
</g>
<!-- Node27&#45;&gt;Node28 -->
<g id="edge48" class="edge">
<title>Node27&#45;&gt;Node28</title>
<path fill="none" stroke="#191970" d="M634.75,-369.3906C623.614,-359.8786 606.354,-345.1357 593.0732,-333.7917"/>
<polygon fill="#191970" stroke="#191970" points="595.2856,-331.0784 585.4086,-327.2449 590.7392,-336.4011 595.2856,-331.0784"/>
</g>
<!-- Node28&#45;&gt;Node1 -->
<g id="edge49" class="edge">
<title>Node28&#45;&gt;Node1</title>
<path fill="none" stroke="#191970" d="M541.0313,-307.8906C504.4883,-297.2395 445.4429,-280.0296 405.465,-268.3772"/>
<polygon fill="#191970" stroke="#191970" points="406.3172,-264.98 395.7372,-265.5419 404.3583,-271.7004 406.3172,-264.98"/>
</g>
<!-- Node29 -->
<g id="node30" class="node">
<title>Node29</title>
<polygon fill="#ffffff" stroke="#bfbfbf" points="474.5,-246.5 474.5,-265.5 579.5,-265.5 579.5,-246.5 474.5,-246.5"/>
<text text-anchor="middle" x="527" y="-253.5" font-family="Helvetica,sans-Serif" font-size="10.00" fill="#000000">odp/api/abi/time.h</text>
</g>
<!-- Node28&#45;&gt;Node29 -->
<g id="edge50" class="edge">
<title>Node28&#45;&gt;Node29</title>
<path fill="none" stroke="#191970" d="M566.6563,-307.8906C559.7298,-298.8273 549.174,-285.0149 540.694,-273.9188"/>
<polygon fill="#191970" stroke="#191970" points="543.3003,-271.565 534.4473,-265.7449 537.7385,-275.8155 543.3003,-271.565"/>
</g>
<!-- Node30 -->
<g id="node31" class="node">
<title>Node30</title>
<g id="a_node31"><a xlink:href="api_2spec_2time_8h.html" target="_top" xlink:title="ODP time. ">
<polygon fill="#ffffff" stroke="#000000" points="708.5,-62 708.5,-81 821.5,-81 821.5,-62 708.5,-62"/>
<text text-anchor="middle" x="765" y="-69" font-family="Helvetica,sans-Serif" font-size="10.00" fill="#000000">odp/api/spec/time.h</text>
</a>
</g>
</g>
<!-- Node28&#45;&gt;Node30 -->
<g id="edge51" class="edge">
<title>Node28&#45;&gt;Node30</title>
<path fill="none" stroke="#191970" d="M581.4874,-307.8565C610.2513,-270.8099 713.9119,-137.2993 751.3729,-89.0511"/>
<polygon fill="#191970" stroke="#191970" points="754.1961,-91.122 757.5643,-81.0768 748.667,-86.8291 754.1961,-91.122"/>
</g>
<!-- Node30&#45;&gt;Node4 -->
<g id="edge52" class="edge">
<title>Node30&#45;&gt;Node4</title>
<path fill="none" stroke="#191970" d="M821.6358,-62.873C837.2922,-60.5608 854.2951,-58.117 870,-56 976.4097,-41.6564 1099.9871,-26.9482 1175.8361,-18.1429"/>
<polygon fill="#191970" stroke="#191970" points="1176.6846,-21.5681 1186.2153,-16.9402 1175.8788,-14.6146 1176.6846,-21.5681"/>
</g>
<!-- Node30&#45;&gt;Node9 -->
<g id="edge53" class="edge">
<title>Node30&#45;&gt;Node9</title>
<path fill="none" stroke="#191970" d="M748.75,-61.8906C731.8831,-51.9165 705.2901,-36.1908 685.7965,-24.6633"/>
<polygon fill="#191970" stroke="#191970" points="687.5251,-21.6194 677.1359,-19.5419 683.962,-27.6447 687.5251,-21.6194"/>
</g>
<!-- Node31&#45;&gt;Node4 -->
<g id="edge57" class="edge">
<title>Node31&#45;&gt;Node4</title>
<path fill="none" stroke="#191970" d="M1149.2865,-302.2664C1209.9146,-271.5792 1339.0016,-195.8382 1387,-87 1392.5595,-74.3937 1395.08,-67.1598 1387,-56 1376.9289,-42.0901 1338.9202,-30.119 1305.0448,-21.8785"/>
<polygon fill="#191970" stroke="#191970" points="1305.7011,-18.4373 1295.1647,-19.549 1304.0946,-25.2505 1305.7011,-18.4373"/>
</g>
<!-- Node31&#45;&gt;Node9 -->
<g id="edge68" class="edge">
<title>Node31&#45;&gt;Node9</title>
<path fill="none" stroke="#191970" d="M1067.5702,-302.4414C981.5682,-273.8791 803.6963,-204.0014 700,-87 684.9981,-70.0733 674.129,-46.3392 667.7343,-29.7092"/>
<polygon fill="#191970" stroke="#191970" points="670.8907,-28.1481 664.1798,-19.9497 664.3134,-30.5437 670.8907,-28.1481"/>
</g>
<!-- Node31&#45;&gt;Node16 -->
<g id="edge67" class="edge">
<title>Node31&#45;&gt;Node16</title>
<path fill="none" stroke="#191970" d="M1166.1701,-302.4554C1200.1488,-292.059 1244.8281,-278.3884 1276.9086,-268.5727"/>
<polygon fill="#191970" stroke="#191970" points="1278.3138,-271.803 1286.8521,-265.5303 1276.2657,-265.1094 1278.3138,-271.803"/>
</g>
<!-- Node32 -->
<g id="node33" class="node">
<title>Node32</title>
<g id="a_node33"><a xlink:href="api_2schedule__types_8h.html" target="_top" xlink:title="ODP schedule. ">
<polygon fill="#ffffff" stroke="#000000" points="1042,-246.5 1042,-265.5 1182,-265.5 1182,-246.5 1042,-246.5"/>
<text text-anchor="middle" x="1112" y="-253.5" font-family="Helvetica,sans-Serif" font-size="10.00" fill="#000000">odp/api/schedule_types.h</text>
</a>
</g>
</g>
<!-- Node31&#45;&gt;Node32 -->
<g id="edge58" class="edge">
<title>Node31&#45;&gt;Node32</title>
<path fill="none" stroke="#191970" d="M1115.764,-302.2977C1115.1206,-294.3834 1114.3256,-284.6043 1113.6322,-276.0759"/>
<polygon fill="#191970" stroke="#191970" points="1117.0995,-275.5304 1112.8006,-265.8469 1110.1225,-276.0977 1117.0995,-275.5304"/>
</g>
<!-- Node33 -->
<g id="node34" class="node">
<title>Node33</title>
<polygon fill="#ffffff" stroke="#bfbfbf" points="1053.5,-179.5 1053.5,-209.5 1170.5,-209.5 1170.5,-179.5 1053.5,-179.5"/>
<text text-anchor="start" x="1061.5" y="-197.5" font-family="Helvetica,sans-Serif" font-size="10.00" fill="#000000">odp/api/abi/schedule</text>
<text text-anchor="middle" x="1112" y="-186.5" font-family="Helvetica,sans-Serif" font-size="10.00" fill="#000000">_types.h</text>
</g>
<!-- Node32&#45;&gt;Node33 -->
<g id="edge59" class="edge">
<title>Node32&#45;&gt;Node33</title>
<path fill="none" stroke="#191970" d="M1112,-246.3906C1112,-239.2234 1112,-229.0862 1112,-219.671"/>
<polygon fill="#191970" stroke="#191970" points="1115.5001,-219.5446 1112,-209.5446 1108.5001,-219.5446 1115.5001,-219.5446"/>
</g>
<!-- Node34 -->
<g id="node35" class="node">
<title>Node34</title>
<g id="a_node35"><a xlink:href="api_2spec_2schedule__types_8h.html" target="_top" xlink:title="ODP schedule types. ">
<polygon fill="#ffffff" stroke="#000000" points="892.5,-179.5 892.5,-209.5 1017.5,-209.5 1017.5,-179.5 892.5,-179.5"/>
<text text-anchor="start" x="900.5" y="-197.5" font-family="Helvetica,sans-Serif" font-size="10.00" fill="#000000">odp/api/spec/schedule</text>
<text text-anchor="middle" x="955" y="-186.5" font-family="Helvetica,sans-Serif" font-size="10.00" fill="#000000">_types.h</text>
</a>
</g>
</g>
<!-- Node32&#45;&gt;Node34 -->
<g id="edge60" class="edge">
<title>Node32&#45;&gt;Node34</title>
<path fill="none" stroke="#191970" d="M1087.4688,-246.3906C1064.9419,-237.5664 1030.9227,-224.2404 1003,-213.3026"/>
<polygon fill="#191970" stroke="#191970" points="1003.9942,-209.9331 993.4065,-209.5446 1001.441,-216.4509 1003.9942,-209.9331"/>
</g>
<!-- Node34&#45;&gt;Node4 -->
<g id="edge61" class="edge">
<title>Node34&#45;&gt;Node4</title>
<path fill="none" stroke="#191970" d="M970.1785,-179.1799C980.3225,-168.9395 993.9638,-155.1652 1006,-143 1044.2397,-104.3506 1045.3622,-83.9457 1092,-56 1119.0309,-39.8029 1152.1619,-28.9654 1180.8446,-21.9017"/>
<polygon fill="#191970" stroke="#191970" points="1181.857,-25.2591 1190.7872,-19.558 1180.2509,-18.4458 1181.857,-25.2591"/>
</g>
<!-- Node34&#45;&gt;Node9 -->
<g id="edge66" class="edge">
<title>Node34&#45;&gt;Node9</title>
<path fill="none" stroke="#191970" d="M930.9846,-179.3984C917.1488,-169.9812 899.9836,-157.0137 887,-143 855.7475,-109.268 868.1141,-83.1498 831,-56 813.5028,-43.2004 763.2266,-30.4663 721.8553,-21.6525"/>
<polygon fill="#191970" stroke="#191970" points="722.3316,-18.1765 711.8267,-19.5545 720.8981,-25.0282 722.3316,-18.1765"/>
</g>
<!-- Node35 -->
<g id="node36" class="node">
<title>Node35</title>
<g id="a_node36"><a xlink:href="support_8h.html" target="_top" xlink:title="ODP support API &#45; platform specific header. ">
<polygon fill="#ffffff" stroke="#000000" points="895.5,-123.5 895.5,-142.5 996.5,-142.5 996.5,-123.5 895.5,-123.5"/>
<text text-anchor="middle" x="946" y="-130.5" font-family="Helvetica,sans-Serif" font-size="10.00" fill="#000000">odp/api/support.h</text>
</a>
</g>
</g>
<!-- Node34&#45;&gt;Node35 -->
<g id="edge62" class="edge">
<title>Node34&#45;&gt;Node35</title>
<path fill="none" stroke="#191970" d="M952.7753,-179.2977C951.6041,-171.2945 950.1538,-161.3843 948.8959,-152.7889"/>
<polygon fill="#191970" stroke="#191970" points="952.3522,-152.2347 947.441,-142.8469 945.426,-153.2484 952.3522,-152.2347"/>
</g>
<!-- Node36 -->
<g id="node37" class="node">
<title>Node36</title>
<g id="a_node37"><a xlink:href="spec_2support_8h.html" target="_top" xlink:title="ODP support API. ">
<polygon fill="#ffffff" stroke="#000000" points="878.5,-62 878.5,-81 1005.5,-81 1005.5,-62 878.5,-62"/>
<text text-anchor="middle" x="942" y="-69" font-family="Helvetica,sans-Serif" font-size="10.00" fill="#000000">odp/api/spec/support.h</text>
</a>
</g>
</g>
<!-- Node35&#45;&gt;Node36 -->
<g id="edge63" class="edge">
<title>Node35&#45;&gt;Node36</title>
<path fill="none" stroke="#191970" d="M945.375,-123.3906C944.8205,-114.8657 943.9928,-102.1392 943.2958,-91.4235"/>
<polygon fill="#191970" stroke="#191970" points="946.7756,-90.9966 942.6338,-81.2449 939.7903,-91.451 946.7756,-90.9966"/>
</g>
<!-- Node36&#45;&gt;Node4 -->
<g id="edge64" class="edge">
<title>Node36&#45;&gt;Node4</title>
<path fill="none" stroke="#191970" d="M989.3216,-61.9581C1043.3834,-51.0571 1131.8288,-33.223 1189.7328,-21.5473"/>
<polygon fill="#191970" stroke="#191970" points="1190.7075,-24.9213 1199.8183,-19.5137 1189.3238,-18.0594 1190.7075,-24.9213"/>
</g>
<!-- Node36&#45;&gt;Node9 -->
<g id="edge65" class="edge">
<title>Node36&#45;&gt;Node9</title>
<path fill="none" stroke="#191970" d="M898.4021,-61.9581C848.8729,-51.1181 768.0193,-33.4224 714.6589,-21.7439"/>
<polygon fill="#191970" stroke="#191970" points="715.2173,-18.2833 704.7002,-19.5643 713.7207,-25.1214 715.2173,-18.2833"/>
</g>
</g>
</svg>
