<?xml version="1.0" encoding="UTF-8" standalone="no"?>
<!DOCTYPE svg PUBLIC "-//W3C//DTD SVG 1.1//EN"
 "http://www.w3.org/Graphics/SVG/1.1/DTD/svg11.dtd">
<!-- Generated by graphviz version 2.40.1 (20161225.0304)
 -->
<!-- Title: packet.h Pages: 1 -->
<svg width="1220pt" height="420pt"
 viewBox="0.00 0.00 1220.39 420.00" xmlns="http://www.w3.org/2000/svg" xmlns:xlink="http://www.w3.org/1999/xlink">
<g id="graph0" class="graph" transform="scale(1 1) rotate(0) translate(4 416)">
<title>packet.h</title>
<polygon fill="#ffffff" stroke="transparent" points="-4,4 -4,-416 1216.3857,-416 1216.3857,4 -4,4"/>
<!-- Node0 -->
<g id="node1" class="node">
<title>Node0</title>
<polygon fill="#bfbfbf" stroke="#000000" points="733.8857,-392.5 733.8857,-411.5 792.8857,-411.5 792.8857,-392.5 733.8857,-392.5"/>
<text text-anchor="middle" x="763.3857" y="-399.5" font-family="Helvetica,sans-Serif" font-size="10.00" fill="#000000">packet.h</text>
</g>
<!-- Node1 -->
<g id="node2" class="node">
<title>Node1</title>
<g id="a_node2"><a xlink:href="api_2std__types_8h.html" target="_top" xlink:title="Standard C language types and definitions for ODP. ">
<polygon fill="#ffffff" stroke="#000000" points="351.3857,-224.5 351.3857,-243.5 463.3857,-243.5 463.3857,-224.5 351.3857,-224.5"/>
<text text-anchor="middle" x="407.3857" y="-231.5" font-family="Helvetica,sans-Serif" font-size="10.00" fill="#000000">odp/api/std_types.h</text>
</a>
</g>
</g>
<!-- Node0&#45;&gt;Node1 -->
<g id="edge1" class="edge">
<title>Node0&#45;&gt;Node1</title>
<path fill="none" stroke="#191970" d="M733.6053,-399.3848C692.9611,-394.9071 618.6324,-383.4374 561.3857,-356 504.7992,-328.879 450.0123,-277.7338 423.6614,-251.0994"/>
<polygon fill="#191970" stroke="#191970" points="425.9116,-248.3935 416.4259,-243.6741 420.8982,-253.2788 425.9116,-248.3935"/>
</g>
<!-- Node10 -->
<g id="node11" class="node">
<title>Node10</title>
<polygon fill="#ffffff" stroke="#bfbfbf" points="570.3857,-336.5 570.3857,-355.5 680.3857,-355.5 680.3857,-336.5 570.3857,-336.5"/>
<text text-anchor="middle" x="625.3857" y="-343.5" font-family="Helvetica,sans-Serif" font-size="10.00" fill="#000000">odp/api/abi/event.h</text>
</g>
<!-- Node0&#45;&gt;Node10 -->
<g id="edge12" class="edge">
<title>Node0&#45;&gt;Node10</title>
<path fill="none" stroke="#191970" d="M739.6627,-392.3733C717.2121,-383.2629 683.3118,-369.5062 658.2602,-359.3404"/>
<polygon fill="#191970" stroke="#191970" points="659.3814,-356.0182 648.7992,-355.5011 656.7493,-362.5045 659.3814,-356.0182"/>
</g>
<!-- Node11 -->
<g id="node12" class="node">
<title>Node11</title>
<polygon fill="#ffffff" stroke="#bfbfbf" points="698.3857,-336.5 698.3857,-355.5 828.3857,-355.5 828.3857,-336.5 698.3857,-336.5"/>
<text text-anchor="middle" x="763.3857" y="-343.5" font-family="Helvetica,sans-Serif" font-size="10.00" fill="#000000">odp/api/abi/packet_io.h</text>
</g>
<!-- Node0&#45;&gt;Node11 -->
<g id="edge13" class="edge">
<title>Node0&#45;&gt;Node11</title>
<path fill="none" stroke="#191970" d="M763.3857,-392.2455C763.3857,-384.9382 763.3857,-374.6944 763.3857,-365.7046"/>
<polygon fill="#191970" stroke="#191970" points="766.8858,-365.6426 763.3857,-355.6427 759.8858,-365.6427 766.8858,-365.6426"/>
</g>
<!-- Node12 -->
<g id="node13" class="node">
<title>Node12</title>
<polygon fill="#ffffff" stroke="#bfbfbf" points="846.3857,-336.5 846.3857,-355.5 962.3857,-355.5 962.3857,-336.5 846.3857,-336.5"/>
<text text-anchor="middle" x="904.3857" y="-343.5" font-family="Helvetica,sans-Serif" font-size="10.00" fill="#000000">odp/api/abi/packet.h</text>
</g>
<!-- Node0&#45;&gt;Node12 -->
<g id="edge14" class="edge">
<title>Node0&#45;&gt;Node12</title>
<path fill="none" stroke="#191970" d="M787.6245,-392.3733C810.6646,-383.2226 845.5071,-369.3844 871.1358,-359.2057"/>
<polygon fill="#191970" stroke="#191970" points="872.4613,-362.4452 880.4633,-355.5011 869.8775,-355.9395 872.4613,-362.4452"/>
</g>
<!-- Node13 -->
<g id="node14" class="node">
<title>Node13</title>
<polygon fill="#ffffff" stroke="#bfbfbf" points="980.3857,-336.5 980.3857,-355.5 1090.3857,-355.5 1090.3857,-336.5 980.3857,-336.5"/>
<text text-anchor="middle" x="1035.3857" y="-343.5" font-family="Helvetica,sans-Serif" font-size="10.00" fill="#000000">odp/api/abi/buffer.h</text>
</g>
<!-- Node0&#45;&gt;Node13 -->
<g id="edge15" class="edge">
<title>Node0&#45;&gt;Node13</title>
<path fill="none" stroke="#191970" d="M793.0123,-395.9004C837.5644,-386.7279 922.6074,-369.2191 979.1688,-357.5741"/>
<polygon fill="#191970" stroke="#191970" points="979.9452,-360.9877 989.0339,-355.543 978.5336,-354.1315 979.9452,-360.9877"/>
</g>
<!-- Node14 -->
<g id="node15" class="node">
<title>Node14</title>
<polygon fill="#ffffff" stroke="#bfbfbf" points="1108.3857,-336.5 1108.3857,-355.5 1212.3857,-355.5 1212.3857,-336.5 1108.3857,-336.5"/>
<text text-anchor="middle" x="1160.3857" y="-343.5" font-family="Helvetica,sans-Serif" font-size="10.00" fill="#000000">odp/api/abi/pool.h</text>
</g>
<!-- Node0&#45;&gt;Node14 -->
<g id="edge16" class="edge">
<title>Node0&#45;&gt;Node14</title>
<path fill="none" stroke="#191970" d="M793.0881,-398.2017C850.1134,-390.8517 979.1232,-373.9453 1098.1442,-356.1574"/>
<polygon fill="#191970" stroke="#191970" points="1098.7866,-359.6003 1108.1566,-354.6553 1097.748,-352.6777 1098.7866,-359.6003"/>
</g>
<!-- Node15 -->
<g id="node16" class="node">
<title>Node15</title>
<g id="a_node16"><a xlink:href="api_2spec_2packet_8h.html" target="_top" xlink:title="ODP packet descriptor. ">
<polygon fill="#ffffff" stroke="#000000" points="304.8857,-336.5 304.8857,-355.5 427.8857,-355.5 427.8857,-336.5 304.8857,-336.5"/>
<text text-anchor="middle" x="366.3857" y="-343.5" font-family="Helvetica,sans-Serif" font-size="10.00" fill="#000000">odp/api/spec/packet.h</text>
</a>
</g>
</g>
<!-- Node0&#45;&gt;Node15 -->
<g id="edge17" class="edge">
<title>Node0&#45;&gt;Node15</title>
<path fill="none" stroke="#191970" d="M733.8705,-397.8366C671.7527,-389.0744 526.0022,-368.5152 437.8637,-356.0825"/>
<polygon fill="#191970" stroke="#191970" points="438.3289,-352.6136 427.9381,-354.6824 437.3511,-359.545 438.3289,-352.6136"/>
</g>
<!-- Node2 -->
<g id="node3" class="node">
<title>Node2</title>
<polygon fill="#ffffff" stroke="#bfbfbf" points="190.3857,-168.5 190.3857,-187.5 320.3857,-187.5 320.3857,-168.5 190.3857,-168.5"/>
<text text-anchor="middle" x="255.3857" y="-175.5" font-family="Helvetica,sans-Serif" font-size="10.00" fill="#000000">odp/api/abi/std_types.h</text>
</g>
<!-- Node1&#45;&gt;Node2 -->
<g id="edge2" class="edge">
<title>Node1&#45;&gt;Node2</title>
<path fill="none" stroke="#191970" d="M381.256,-224.3733C356.3089,-215.1822 318.5265,-201.2624 290.8651,-191.0713"/>
<polygon fill="#191970" stroke="#191970" points="291.7679,-187.674 281.1745,-187.5011 289.3479,-194.2424 291.7679,-187.674"/>
</g>
<!-- Node3 -->
<g id="node4" class="node">
<title>Node3</title>
<g id="a_node4"><a xlink:href="api_2spec_2std__types_8h.html" target="_top" xlink:title="Standard C language types and definitions for ODP. ">
<polygon fill="#ffffff" stroke="#000000" points="338.8857,-168.5 338.8857,-187.5 475.8857,-187.5 475.8857,-168.5 338.8857,-168.5"/>
<text text-anchor="middle" x="407.3857" y="-175.5" font-family="Helvetica,sans-Serif" font-size="10.00" fill="#000000">odp/api/spec/std_types.h</text>
</a>
</g>
</g>
<!-- Node1&#45;&gt;Node3 -->
<g id="edge3" class="edge">
<title>Node1&#45;&gt;Node3</title>
<path fill="none" stroke="#191970" d="M407.3857,-224.2455C407.3857,-216.9382 407.3857,-206.6944 407.3857,-197.7046"/>
<polygon fill="#191970" stroke="#191970" points="410.8858,-197.6426 407.3857,-187.6427 403.8858,-197.6427 410.8858,-197.6426"/>
</g>
<!-- Node4 -->
<g id="node5" class="node">
<title>Node4</title>
<g id="a_node5"><a xlink:href="visibility__begin_8h_source.html" target="_top" xlink:title="odp/visibility_begin.h">
<polygon fill="#ffffff" stroke="#000000" points="75.8857,-.5 75.8857,-19.5 196.8857,-19.5 196.8857,-.5 75.8857,-.5"/>
<text text-anchor="middle" x="136.3857" y="-7.5" font-family="Helvetica,sans-Serif" font-size="10.00" fill="#000000">odp/visibility_begin.h</text>
</a>
</g>
</g>
<!-- Node3&#45;&gt;Node4 -->
<g id="edge4" class="edge">
<title>Node3&#45;&gt;Node4</title>
<path fill="none" stroke="#191970" d="M367.7883,-168.4658C339.0287,-160.7215 299.6606,-148.3972 267.3857,-132 229.3385,-112.6702 220.3646,-105.3521 189.3857,-76 173.8093,-61.2415 158.7594,-41.8472 148.7027,-27.9067"/>
<polygon fill="#191970" stroke="#191970" points="151.4888,-25.7844 142.8598,-19.6369 145.7717,-29.8237 151.4888,-25.7844"/>
</g>
<!-- Node5 -->
<g id="node6" class="node">
<title>Node5</title>
<polygon fill="#ffffff" stroke="#bfbfbf" points="382.8857,-112.5 382.8857,-131.5 435.8857,-131.5 435.8857,-112.5 382.8857,-112.5"/>
<text text-anchor="middle" x="409.3857" y="-119.5" font-family="Helvetica,sans-Serif" font-size="10.00" fill="#000000">stdint.h</text>
</g>
<!-- Node3&#45;&gt;Node5 -->
<g id="edge5" class="edge">
<title>Node3&#45;&gt;Node5</title>
<path fill="none" stroke="#191970" d="M407.7341,-168.2455C407.9951,-160.9382 408.3609,-150.6944 408.682,-141.7046"/>
<polygon fill="#191970" stroke="#191970" points="412.1821,-141.7613 409.0413,-131.6427 405.1866,-141.5113 412.1821,-141.7613"/>
</g>
<!-- Node6 -->
<g id="node7" class="node">
<title>Node6</title>
<g id="a_node7"><a xlink:href="api_2align_8h.html" target="_top" xlink:title="ODP alignments. ">
<polygon fill="#ffffff" stroke="#000000" points="275.8857,-112.5 275.8857,-131.5 364.8857,-131.5 364.8857,-112.5 275.8857,-112.5"/>
<text text-anchor="middle" x="320.3857" y="-119.5" font-family="Helvetica,sans-Serif" font-size="10.00" fill="#000000">odp/api/align.h</text>
</a>
</g>
</g>
<!-- Node3&#45;&gt;Node6 -->
<g id="edge6" class="edge">
<title>Node3&#45;&gt;Node6</title>
<path fill="none" stroke="#191970" d="M392.2315,-168.2455C378.883,-159.6534 359.2271,-147.0014 343.8475,-137.1018"/>
<polygon fill="#191970" stroke="#191970" points="345.6693,-134.1121 335.3663,-131.6427 341.8806,-139.9982 345.6693,-134.1121"/>
</g>
<!-- Node9 -->
<g id="node10" class="node">
<title>Node9</title>
<g id="a_node10"><a xlink:href="visibility__end_8h_source.html" target="_top" xlink:title="odp/visibility_end.h">
<polygon fill="#ffffff" stroke="#000000" points="232.3857,-.5 232.3857,-19.5 344.3857,-19.5 344.3857,-.5 232.3857,-.5"/>
<text text-anchor="middle" x="288.3857" y="-7.5" font-family="Helvetica,sans-Serif" font-size="10.00" fill="#000000">odp/visibility_end.h</text>
</a>
</g>
</g>
<!-- Node3&#45;&gt;Node9 -->
<g id="edge11" class="edge">
<title>Node3&#45;&gt;Node9</title>
<path fill="none" stroke="#191970" d="M418.6972,-168.3422C427.7696,-159.8214 439.8674,-146.525 445.3857,-132 457.386,-100.4133 467.6888,-83.0095 447.3857,-56 435.8546,-40.66 393.0748,-28.8053 354.7922,-20.9747"/>
<polygon fill="#191970" stroke="#191970" points="355.1514,-17.4781 344.6624,-18.9722 353.7938,-24.3452 355.1514,-17.4781"/>
</g>
<!-- Node7 -->
<g id="node8" class="node">
<title>Node7</title>
<polygon fill="#ffffff" stroke="#bfbfbf" points="330.8857,-56.5 330.8857,-75.5 437.8857,-75.5 437.8857,-56.5 330.8857,-56.5"/>
<text text-anchor="middle" x="384.3857" y="-63.5" font-family="Helvetica,sans-Serif" font-size="10.00" fill="#000000">odp/api/abi/align.h</text>
</g>
<!-- Node6&#45;&gt;Node7 -->
<g id="edge7" class="edge">
<title>Node6&#45;&gt;Node7</title>
<path fill="none" stroke="#191970" d="M331.5337,-112.2455C340.8944,-104.0549 354.4715,-92.1749 365.5207,-82.5069"/>
<polygon fill="#191970" stroke="#191970" points="368.1445,-84.8618 373.3655,-75.6427 363.535,-79.5937 368.1445,-84.8618"/>
</g>
<!-- Node8 -->
<g id="node9" class="node">
<title>Node8</title>
<g id="a_node9"><a xlink:href="api_2spec_2align_8h.html" target="_top" xlink:title="ODP alignments. ">
<polygon fill="#ffffff" stroke="#000000" points="198.3857,-56.5 198.3857,-75.5 312.3857,-75.5 312.3857,-56.5 198.3857,-56.5"/>
<text text-anchor="middle" x="255.3857" y="-63.5" font-family="Helvetica,sans-Serif" font-size="10.00" fill="#000000">odp/api/spec/align.h</text>
</a>
</g>
</g>
<!-- Node6&#45;&gt;Node8 -->
<g id="edge8" class="edge">
<title>Node6&#45;&gt;Node8</title>
<path fill="none" stroke="#191970" d="M309.0636,-112.2455C299.4634,-103.9746 285.4965,-91.9416 274.2162,-82.2232"/>
<polygon fill="#191970" stroke="#191970" points="276.4387,-79.5182 266.5781,-75.6427 271.8697,-84.8214 276.4387,-79.5182"/>
</g>
<!-- Node8&#45;&gt;Node4 -->
<g id="edge9" class="edge">
<title>Node8&#45;&gt;Node4</title>
<path fill="none" stroke="#191970" d="M234.9289,-56.3733C215.912,-47.4241 187.3682,-33.9917 165.8881,-23.8835"/>
<polygon fill="#191970" stroke="#191970" points="167.1141,-20.5923 156.5756,-19.5011 164.1335,-26.926 167.1141,-20.5923"/>
</g>
<!-- Node8&#45;&gt;Node9 -->
<g id="edge10" class="edge">
<title>Node8&#45;&gt;Node9</title>
<path fill="none" stroke="#191970" d="M261.1339,-56.2455C265.6293,-48.617 272.0106,-37.7881 277.4682,-28.5267"/>
<polygon fill="#191970" stroke="#191970" points="280.6419,-30.035 282.7034,-19.6427 274.6111,-26.4811 280.6419,-30.035"/>
</g>
<!-- Node15&#45;&gt;Node4 -->
<g id="edge18" class="edge">
<title>Node15&#45;&gt;Node4</title>
<path fill="none" stroke="#191970" d="M304.7127,-339.952C200.4055,-327.9984 .3857,-296.8785 .3857,-234 .3857,-234 .3857,-234 .3857,-122 .3857,-91.4754 -1.1572,-78.5775 19.3857,-56 33.9655,-39.9762 54.8281,-29.4629 74.9098,-22.5958"/>
<polygon fill="#191970" stroke="#191970" points="76.1942,-25.8605 84.6743,-19.5094 74.0844,-19.186 76.1942,-25.8605"/>
</g>
<!-- Node15&#45;&gt;Node9 -->
<g id="edge25" class="edge">
<title>Node15&#45;&gt;Node9</title>
<path fill="none" stroke="#191970" d="M397.0124,-336.44C437.6683,-321.6165 504.3857,-288.9235 504.3857,-234 504.3857,-234 504.3857,-234 504.3857,-122 504.3857,-53.6357 418.057,-26.9475 354.5527,-16.5637"/>
<polygon fill="#191970" stroke="#191970" points="354.9883,-13.0896 344.5733,-15.0332 353.9272,-20.0087 354.9883,-13.0896"/>
</g>
<!-- Node16 -->
<g id="node17" class="node">
<title>Node16</title>
<g id="a_node17"><a xlink:href="api_2time_8h.html" target="_top" xlink:title="ODP time. ">
<polygon fill="#ffffff" stroke="#000000" points="279.8857,-280.5 279.8857,-299.5 366.8857,-299.5 366.8857,-280.5 279.8857,-280.5"/>
<text text-anchor="middle" x="323.3857" y="-287.5" font-family="Helvetica,sans-Serif" font-size="10.00" fill="#000000">odp/api/time.h</text>
</a>
</g>
</g>
<!-- Node15&#45;&gt;Node16 -->
<g id="edge19" class="edge">
<title>Node15&#45;&gt;Node16</title>
<path fill="none" stroke="#191970" d="M358.8957,-336.2455C352.8531,-328.3761 344.1954,-317.101 336.9416,-307.6542"/>
<polygon fill="#191970" stroke="#191970" points="339.6563,-305.4426 330.7899,-299.6427 334.1042,-309.7058 339.6563,-305.4426"/>
</g>
<!-- Node16&#45;&gt;Node1 -->
<g id="edge20" class="edge">
<title>Node16&#45;&gt;Node1</title>
<path fill="none" stroke="#191970" d="M338.0174,-280.2455C350.7851,-271.7337 369.5295,-259.2375 384.3156,-249.3801"/>
<polygon fill="#191970" stroke="#191970" points="386.5427,-252.1019 392.9217,-243.6427 382.6597,-246.2775 386.5427,-252.1019"/>
</g>
<!-- Node17 -->
<g id="node18" class="node">
<title>Node17</title>
<polygon fill="#ffffff" stroke="#bfbfbf" points="227.8857,-224.5 227.8857,-243.5 332.8857,-243.5 332.8857,-224.5 227.8857,-224.5"/>
<text text-anchor="middle" x="280.3857" y="-231.5" font-family="Helvetica,sans-Serif" font-size="10.00" fill="#000000">odp/api/abi/time.h</text>
</g>
<!-- Node16&#45;&gt;Node17 -->
<g id="edge21" class="edge">
<title>Node16&#45;&gt;Node17</title>
<path fill="none" stroke="#191970" d="M315.8957,-280.2455C309.8531,-272.3761 301.1954,-261.101 293.9416,-251.6542"/>
<polygon fill="#191970" stroke="#191970" points="296.6563,-249.4426 287.7899,-243.6427 291.1042,-253.7058 296.6563,-249.4426"/>
</g>
<!-- Node18 -->
<g id="node19" class="node">
<title>Node18</title>
<g id="a_node19"><a xlink:href="api_2spec_2time_8h.html" target="_top" xlink:title="ODP time. ">
<polygon fill="#ffffff" stroke="#000000" points="28.8857,-56.5 28.8857,-75.5 141.8857,-75.5 141.8857,-56.5 28.8857,-56.5"/>
<text text-anchor="middle" x="85.3857" y="-63.5" font-family="Helvetica,sans-Serif" font-size="10.00" fill="#000000">odp/api/spec/time.h</text>
</a>
</g>
</g>
<!-- Node16&#45;&gt;Node18 -->
<g id="edge22" class="edge">
<title>Node16&#45;&gt;Node18</title>
<path fill="none" stroke="#191970" d="M290.2564,-280.4113C268.3097,-272.9349 239.74,-260.9529 218.3857,-244 160.3637,-197.9371 114.5482,-120.8142 95.2773,-85.1537"/>
<polygon fill="#191970" stroke="#191970" points="98.1354,-83.0722 90.3603,-75.8751 91.9502,-86.35 98.1354,-83.0722"/>
</g>
<!-- Node18&#45;&gt;Node4 -->
<g id="edge23" class="edge">
<title>Node18&#45;&gt;Node4</title>
<path fill="none" stroke="#191970" d="M94.2692,-56.2455C101.5823,-48.2155 112.1249,-36.6394 120.8324,-27.0781"/>
<polygon fill="#191970" stroke="#191970" points="123.4584,-29.3928 127.604,-19.6427 118.283,-24.6795 123.4584,-29.3928"/>
</g>
<!-- Node18&#45;&gt;Node9 -->
<g id="edge24" class="edge">
<title>Node18&#45;&gt;Node9</title>
<path fill="none" stroke="#191970" d="M120.2827,-56.3733C154.4769,-46.9404 206.7272,-32.5265 243.89,-22.2747"/>
<polygon fill="#191970" stroke="#191970" points="245.235,-25.5345 253.9442,-19.5011 243.3734,-18.7865 245.235,-25.5345"/>
</g>
</g>
</svg>
