<?xml version="1.0" encoding="UTF-8" standalone="no"?>
<!DOCTYPE svg PUBLIC "-//W3C//DTD SVG 1.1//EN"
 "http://www.w3.org/Graphics/SVG/1.1/DTD/svg11.dtd">
<!-- Generated by graphviz version 2.40.1 (20161225.0304)
 -->
<!-- Title: ipsec.h Pages: 1 -->
<svg width="1994pt" height="1013pt"
 viewBox="0.00 0.00 1994.00 1013.00" xmlns="http://www.w3.org/2000/svg" xmlns:xlink="http://www.w3.org/1999/xlink">
<g id="graph0" class="graph" transform="scale(1 1) rotate(0) translate(4 1009)">
<title>ipsec.h</title>
<polygon fill="#ffffff" stroke="transparent" points="-4,4 -4,-1009 1990,-1009 1990,4 -4,4"/>
<!-- Node0 -->
<g id="node1" class="node">
<title>Node0</title>
<polygon fill="#bfbfbf" stroke="#000000" points="746.5,-985.5 746.5,-1004.5 797.5,-1004.5 797.5,-985.5 746.5,-985.5"/>
<text text-anchor="middle" x="772" y="-992.5" font-family="Helvetica,sans-Serif" font-size="10.00" fill="#000000">ipsec.h</text>
</g>
<!-- Node1 -->
<g id="node2" class="node">
<title>Node1</title>
<polygon fill="#ffffff" stroke="#bfbfbf" points="653,-929.5 653,-948.5 761,-948.5 761,-929.5 653,-929.5"/>
<text text-anchor="middle" x="707" y="-936.5" font-family="Helvetica,sans-Serif" font-size="10.00" fill="#000000">odp/api/abi/ipsec.h</text>
</g>
<!-- Node0&#45;&gt;Node1 -->
<g id="edge1" class="edge">
<title>Node0&#45;&gt;Node1</title>
<path fill="none" stroke="#191970" d="M760.6779,-985.2455C751.0777,-976.9746 737.1108,-964.9416 725.8305,-955.2232"/>
<polygon fill="#191970" stroke="#191970" points="728.053,-952.5182 718.1924,-948.6427 723.484,-957.8214 728.053,-952.5182"/>
</g>
<!-- Node2 -->
<g id="node3" class="node">
<title>Node2</title>
<g id="a_node3"><a xlink:href="api_2spec_2ipsec_8h.html" target="_top" xlink:title="ODP IPSEC API. ">
<polygon fill="#ffffff" stroke="#000000" points="779,-929.5 779,-948.5 895,-948.5 895,-929.5 779,-929.5"/>
<text text-anchor="middle" x="837" y="-936.5" font-family="Helvetica,sans-Serif" font-size="10.00" fill="#000000">odp/api/spec/ipsec.h</text>
</a>
</g>
</g>
<!-- Node0&#45;&gt;Node2 -->
<g id="edge2" class="edge">
<title>Node0&#45;&gt;Node2</title>
<path fill="none" stroke="#191970" d="M783.3221,-985.2455C792.9223,-976.9746 806.8892,-964.9416 818.1695,-955.2232"/>
<polygon fill="#191970" stroke="#191970" points="820.516,-957.8214 825.8076,-948.6427 815.947,-952.5182 820.516,-957.8214"/>
</g>
<!-- Node3 -->
<g id="node4" class="node">
<title>Node3</title>
<g id="a_node4"><a xlink:href="visibility__begin_8h_source.html" target="_top" xlink:title="odp/visibility_begin.h">
<polygon fill="#ffffff" stroke="#000000" points="535.5,-.5 535.5,-19.5 656.5,-19.5 656.5,-.5 535.5,-.5"/>
<text text-anchor="middle" x="596" y="-7.5" font-family="Helvetica,sans-Serif" font-size="10.00" fill="#000000">odp/visibility_begin.h</text>
</a>
</g>
</g>
<!-- Node2&#45;&gt;Node3 -->
<g id="edge3" class="edge">
<title>Node2&#45;&gt;Node3</title>
<path fill="none" stroke="#191970" d="M778.9332,-930.0323C775.9149,-929.6605 772.9235,-929.3131 770,-929 525.9847,-902.8639 460.111,-938.7389 219,-893 118.4046,-873.917 0,-923.8895 0,-821.5 0,-821.5 0,-821.5 0,-133 0,-66.2297 65.5807,-76.8871 129,-56 200.6608,-32.3986 413.0843,-18.8695 525.0732,-13.1924"/>
<polygon fill="#191970" stroke="#191970" points="525.4477,-16.6781 535.2606,-12.6836 525.0984,-9.6868 525.4477,-16.6781"/>
</g>
<!-- Node4 -->
<g id="node5" class="node">
<title>Node4</title>
<g id="a_node5"><a xlink:href="api_2crypto_8h.html" target="_top" xlink:title="ODP crypto. ">
<polygon fill="#ffffff" stroke="#000000" points="882.5,-694.5 882.5,-713.5 977.5,-713.5 977.5,-694.5 882.5,-694.5"/>
<text text-anchor="middle" x="930" y="-701.5" font-family="Helvetica,sans-Serif" font-size="10.00" fill="#000000">odp/api/crypto.h</text>
</a>
</g>
</g>
<!-- Node2&#45;&gt;Node4 -->
<g id="edge4" class="edge">
<title>Node2&#45;&gt;Node4</title>
<path fill="none" stroke="#191970" d="M847.7212,-929.2352C865.4312,-912.3774 900.3885,-875.8671 916,-837 931.2199,-799.108 932.1351,-750.5065 931.217,-723.795"/>
<polygon fill="#191970" stroke="#191970" points="934.7122,-723.6076 930.7477,-713.7825 927.7198,-723.9355 934.7122,-723.6076"/>
</g>
<!-- Node12 -->
<g id="node13" class="node">
<title>Node12</title>
<g id="a_node13"><a xlink:href="visibility__end_8h_source.html" target="_top" xlink:title="odp/visibility_end.h">
<polygon fill="#ffffff" stroke="#000000" points="1530,-.5 1530,-19.5 1642,-19.5 1642,-.5 1530,-.5"/>
<text text-anchor="middle" x="1586" y="-7.5" font-family="Helvetica,sans-Serif" font-size="10.00" fill="#000000">odp/visibility_end.h</text>
</a>
</g>
</g>
<!-- Node2&#45;&gt;Node12 -->
<g id="edge114" class="edge">
<title>Node2&#45;&gt;Node12</title>
<path fill="none" stroke="#191970" d="M895.1665,-937.9752C1115.5377,-933.911 1888.9994,-917.9239 1935,-893 1969.3196,-874.4051 1986,-860.5334 1986,-821.5 1986,-821.5 1986,-821.5 1986,-133 1986,-85.2269 1953.6021,-77.6179 1911,-56 1867.0181,-33.6819 1733.9267,-20.5142 1652.3382,-14.3263"/>
<polygon fill="#191970" stroke="#191970" points="1652.3951,-10.8209 1642.1633,-13.5704 1651.8765,-17.8017 1652.3951,-10.8209"/>
</g>
<!-- Node33 -->
<g id="node35" class="node">
<title>Node33</title>
<g id="a_node35"><a xlink:href="support_8h.html" target="_top" xlink:title="ODP support API &#45; platform specific header. ">
<polygon fill="#ffffff" stroke="#000000" points="1704.5,-414.5 1704.5,-433.5 1805.5,-433.5 1805.5,-414.5 1704.5,-414.5"/>
<text text-anchor="middle" x="1755" y="-421.5" font-family="Helvetica,sans-Serif" font-size="10.00" fill="#000000">odp/api/support.h</text>
</a>
</g>
</g>
<!-- Node2&#45;&gt;Node33 -->
<g id="edge67" class="edge">
<title>Node2&#45;&gt;Node33</title>
<path fill="none" stroke="#191970" d="M895.0581,-937.6941C1096.6334,-932.4011 1754,-908.4726 1754,-821.5 1754,-821.5 1754,-821.5 1754,-536 1754,-503.7103 1754.4207,-466.1863 1754.7164,-443.8043"/>
<polygon fill="#191970" stroke="#191970" points="1758.219,-443.6353 1754.8567,-433.5881 1751.2196,-443.5391 1758.219,-443.6353"/>
</g>
<!-- Node38 -->
<g id="node37" class="node">
<title>Node38</title>
<g id="a_node37"><a xlink:href="api_2packet__io_8h.html" target="_top" xlink:title="ODP Packet IO. ">
<polygon fill="#ffffff" stroke="#000000" points="543,-750.5 543,-769.5 655,-769.5 655,-750.5 543,-750.5"/>
<text text-anchor="middle" x="599" y="-757.5" font-family="Helvetica,sans-Serif" font-size="10.00" fill="#000000">odp/api/packet_io.h</text>
</a>
</g>
</g>
<!-- Node2&#45;&gt;Node38 -->
<g id="edge68" class="edge">
<title>Node2&#45;&gt;Node38</title>
<path fill="none" stroke="#191970" d="M830.3001,-929.2806C813.3053,-905.2714 766.0808,-842.4679 713,-806 691.7008,-791.3669 665.047,-780.2855 642.8687,-772.6696"/>
<polygon fill="#191970" stroke="#191970" points="643.9419,-769.3381 633.3486,-769.5159 641.7407,-775.983 643.9419,-769.3381"/>
</g>
<!-- Node43 -->
<g id="node42" class="node">
<title>Node43</title>
<g id="a_node42"><a xlink:href="protocols_8h.html" target="_top" xlink:title="ODP protocols. ">
<polygon fill="#ffffff" stroke="#000000" points="1816,-873.5 1816,-892.5 1926,-892.5 1926,-873.5 1816,-873.5"/>
<text text-anchor="middle" x="1871" y="-880.5" font-family="Helvetica,sans-Serif" font-size="10.00" fill="#000000">odp/api/protocols.h</text>
</a>
</g>
</g>
<!-- Node2&#45;&gt;Node43 -->
<g id="edge86" class="edge">
<title>Node2&#45;&gt;Node43</title>
<path fill="none" stroke="#191970" d="M895.0699,-937.0885C1041.593,-932.0572 1438.1444,-917.1477 1768,-893 1780.3005,-892.0995 1793.4106,-890.9629 1806.0117,-889.7815"/>
<polygon fill="#191970" stroke="#191970" points="1806.3616,-893.2641 1815.9831,-888.8282 1805.6953,-886.2959 1806.3616,-893.2641"/>
</g>
<!-- Node45 -->
<g id="node44" class="node">
<title>Node45</title>
<g id="a_node44"><a xlink:href="api_2classification_8h.html" target="_top" xlink:title="ODP classification descriptor. ">
<polygon fill="#ffffff" stroke="#000000" points="228,-873.5 228,-892.5 356,-892.5 356,-873.5 228,-873.5"/>
<text text-anchor="middle" x="292" y="-880.5" font-family="Helvetica,sans-Serif" font-size="10.00" fill="#000000">odp/api/classification.h</text>
</a>
</g>
</g>
<!-- Node2&#45;&gt;Node45 -->
<g id="edge90" class="edge">
<title>Node2&#45;&gt;Node45</title>
<path fill="none" stroke="#191970" d="M778.9206,-930.1419C775.9056,-929.7414 772.9183,-929.358 770,-929 627.4853,-911.5193 460.384,-896.7395 366.2791,-888.9383"/>
<polygon fill="#191970" stroke="#191970" points="366.5419,-885.4482 356.2878,-888.1135 365.9659,-892.4245 366.5419,-885.4482"/>
</g>
<!-- Node49 -->
<g id="node48" class="node">
<title>Node49</title>
<g id="a_node48"><a xlink:href="api_2traffic__mngr_8h.html" target="_top" xlink:title="ODP Traffic manager. ">
<polygon fill="#ffffff" stroke="#000000" points="587.5,-873.5 587.5,-892.5 710.5,-892.5 710.5,-873.5 587.5,-873.5"/>
<text text-anchor="middle" x="649" y="-880.5" font-family="Helvetica,sans-Serif" font-size="10.00" fill="#000000">odp/api/traffic_mngr.h</text>
</a>
</g>
</g>
<!-- Node2&#45;&gt;Node49 -->
<g id="edge107" class="edge">
<title>Node2&#45;&gt;Node49</title>
<path fill="none" stroke="#191970" d="M804.6816,-929.3733C773.1494,-919.9807 725.0379,-905.6496 690.6499,-895.4064"/>
<polygon fill="#191970" stroke="#191970" points="691.4797,-892.0016 680.8966,-892.5011 689.4813,-898.7103 691.4797,-892.0016"/>
</g>
<!-- Node5 -->
<g id="node6" class="node">
<title>Node5</title>
<g id="a_node6"><a xlink:href="api_2std__types_8h.html" target="_top" xlink:title="Standard C language types and definitions for ODP. ">
<polygon fill="#ffffff" stroke="#000000" points="693,-246.5 693,-265.5 805,-265.5 805,-246.5 693,-246.5"/>
<text text-anchor="middle" x="749" y="-253.5" font-family="Helvetica,sans-Serif" font-size="10.00" fill="#000000">odp/api/std_types.h</text>
</a>
</g>
</g>
<!-- Node4&#45;&gt;Node5 -->
<g id="edge5" class="edge">
<title>Node4&#45;&gt;Node5</title>
<path fill="none" stroke="#191970" d="M890.1299,-694.4173C843.3237,-680.5108 772,-649.832 772,-592 772,-592 772,-592 772,-536 772,-445.3453 673.4327,-463.3939 643,-378 626.328,-331.2185 683.3828,-290.8058 720.1839,-270.3187"/>
<polygon fill="#191970" stroke="#191970" points="721.9004,-273.3696 729.0466,-265.5476 718.5823,-267.206 721.9004,-273.3696"/>
</g>
<!-- Node13 -->
<g id="node14" class="node">
<title>Node13</title>
<polygon fill="#ffffff" stroke="#bfbfbf" points="480,-358.5 480,-377.5 596,-377.5 596,-358.5 480,-358.5"/>
<text text-anchor="middle" x="538" y="-365.5" font-family="Helvetica,sans-Serif" font-size="10.00" fill="#000000">odp/api/abi/packet.h</text>
</g>
<!-- Node4&#45;&gt;Node13 -->
<g id="edge16" class="edge">
<title>Node4&#45;&gt;Node13</title>
<path fill="none" stroke="#191970" d="M882.4355,-696.342C838.0813,-688.3247 776.1193,-674.6003 758,-658 734.9858,-636.9152 734,-623.2125 734,-592 734,-592 734,-592 734,-536 734,-464.6393 663.8768,-480.7935 610,-434 591.1643,-417.6407 570.1979,-398.286 555.771,-384.7821"/>
<polygon fill="#191970" stroke="#191970" points="557.7829,-381.8699 548.0979,-377.5742 552.9902,-386.9719 557.7829,-381.8699"/>
</g>
<!-- Node14 -->
<g id="node15" class="node">
<title>Node14</title>
<polygon fill="#ffffff" stroke="#bfbfbf" points="1066.5,-638.5 1066.5,-657.5 1179.5,-657.5 1179.5,-638.5 1066.5,-638.5"/>
<text text-anchor="middle" x="1123" y="-645.5" font-family="Helvetica,sans-Serif" font-size="10.00" fill="#000000">odp/api/abi/crypto.h</text>
</g>
<!-- Node4&#45;&gt;Node14 -->
<g id="edge17" class="edge">
<title>Node4&#45;&gt;Node14</title>
<path fill="none" stroke="#191970" d="M963.1779,-694.3733C995.5487,-684.9807 1044.9398,-670.6496 1080.2424,-660.4064"/>
<polygon fill="#191970" stroke="#191970" points="1081.6265,-663.6492 1090.2551,-657.5011 1079.6758,-656.9264 1081.6265,-663.6492"/>
</g>
<!-- Node15 -->
<g id="node16" class="node">
<title>Node15</title>
<polygon fill="#ffffff" stroke="#bfbfbf" points="1348,-358.5 1348,-377.5 1458,-377.5 1458,-358.5 1348,-358.5"/>
<text text-anchor="middle" x="1403" y="-365.5" font-family="Helvetica,sans-Serif" font-size="10.00" fill="#000000">odp/api/abi/buffer.h</text>
</g>
<!-- Node4&#45;&gt;Node15 -->
<g id="edge18" class="edge">
<title>Node4&#45;&gt;Node15</title>
<path fill="none" stroke="#191970" d="M940.6018,-694.3884C959.2759,-677.6834 997.6056,-644.454 1014,-638 1102.6067,-603.118 1376.5558,-672.106 1441,-602 1497.4507,-540.5897 1440.7016,-429.7511 1414.6089,-386.2377"/>
<polygon fill="#191970" stroke="#191970" points="1417.4979,-384.2541 1409.2769,-377.5707 1411.5357,-387.922 1417.4979,-384.2541"/>
</g>
<!-- Node16 -->
<g id="node17" class="node">
<title>Node16</title>
<polygon fill="#ffffff" stroke="#bfbfbf" points="652,-358.5 652,-377.5 756,-377.5 756,-358.5 652,-358.5"/>
<text text-anchor="middle" x="704" y="-365.5" font-family="Helvetica,sans-Serif" font-size="10.00" fill="#000000">odp/api/abi/pool.h</text>
</g>
<!-- Node4&#45;&gt;Node16 -->
<g id="edge19" class="edge">
<title>Node4&#45;&gt;Node16</title>
<path fill="none" stroke="#191970" d="M894.8513,-694.4758C874.6393,-687.385 850.1355,-675.801 834,-658 813.0377,-634.8741 810,-623.2125 810,-592 810,-592 810,-592 810,-536 810,-471.7342 753.834,-412.0113 723.2707,-384.27"/>
<polygon fill="#191970" stroke="#191970" points="725.5587,-381.621 715.7489,-377.6187 720.9217,-386.865 725.5587,-381.621"/>
</g>
<!-- Node17 -->
<g id="node18" class="node">
<title>Node17</title>
<g id="a_node18"><a xlink:href="api_2queue_8h.html" target="_top" xlink:title="ODP queue. ">
<polygon fill="#ffffff" stroke="#000000" points="876.5,-638.5 876.5,-657.5 971.5,-657.5 971.5,-638.5 876.5,-638.5"/>
<text text-anchor="middle" x="924" y="-645.5" font-family="Helvetica,sans-Serif" font-size="10.00" fill="#000000">odp/api/queue.h</text>
</a>
</g>
</g>
<!-- Node4&#45;&gt;Node17 -->
<g id="edge20" class="edge">
<title>Node4&#45;&gt;Node17</title>
<path fill="none" stroke="#191970" d="M928.9549,-694.2455C928.172,-686.9382 927.0744,-676.6944 926.1112,-667.7046"/>
<polygon fill="#191970" stroke="#191970" points="929.5786,-667.2129 925.0331,-657.6427 922.6185,-667.9587 929.5786,-667.2129"/>
</g>
<!-- Node37 -->
<g id="node34" class="node">
<title>Node37</title>
<g id="a_node34"><a xlink:href="api_2spec_2crypto_8h.html" target="_top" xlink:title="ODP crypto. ">
<polygon fill="#ffffff" stroke="#000000" points="1488.5,-470.5 1488.5,-489.5 1609.5,-489.5 1609.5,-470.5 1488.5,-470.5"/>
<text text-anchor="middle" x="1549" y="-477.5" font-family="Helvetica,sans-Serif" font-size="10.00" fill="#000000">odp/api/spec/crypto.h</text>
</a>
</g>
</g>
<!-- Node4&#45;&gt;Node37 -->
<g id="edge58" class="edge">
<title>Node4&#45;&gt;Node37</title>
<path fill="none" stroke="#191970" d="M947.6962,-694.3113C979.8356,-676.7885 1045.5463,-641.327 1057,-638 1146.3195,-612.055 1394.8448,-650.8423 1474,-602 1512.1059,-578.487 1533.7149,-527.6786 1543.1793,-499.6155"/>
<polygon fill="#191970" stroke="#191970" points="1546.6185,-500.3499 1546.3165,-489.7594 1539.9483,-498.2267 1546.6185,-500.3499"/>
</g>
<!-- Node6 -->
<g id="node7" class="node">
<title>Node6</title>
<polygon fill="#ffffff" stroke="#bfbfbf" points="494,-185 494,-204 624,-204 624,-185 494,-185"/>
<text text-anchor="middle" x="559" y="-192" font-family="Helvetica,sans-Serif" font-size="10.00" fill="#000000">odp/api/abi/std_types.h</text>
</g>
<!-- Node5&#45;&gt;Node6 -->
<g id="edge6" class="edge">
<title>Node5&#45;&gt;Node6</title>
<path fill="none" stroke="#191970" d="M719.3125,-246.3906C686.6854,-235.8298 634.1374,-218.8208 598.1575,-207.1747"/>
<polygon fill="#191970" stroke="#191970" points="599.0709,-203.7916 588.479,-204.0419 596.9152,-210.4514 599.0709,-203.7916"/>
</g>
<!-- Node7 -->
<g id="node8" class="node">
<title>Node7</title>
<g id="a_node8"><a xlink:href="api_2spec_2std__types_8h.html" target="_top" xlink:title="Standard C language types and definitions for ODP. ">
<polygon fill="#ffffff" stroke="#000000" points="680.5,-185 680.5,-204 817.5,-204 817.5,-185 680.5,-185"/>
<text text-anchor="middle" x="749" y="-192" font-family="Helvetica,sans-Serif" font-size="10.00" fill="#000000">odp/api/spec/std_types.h</text>
</a>
</g>
</g>
<!-- Node5&#45;&gt;Node7 -->
<g id="edge7" class="edge">
<title>Node5&#45;&gt;Node7</title>
<path fill="none" stroke="#191970" d="M749,-246.3906C749,-237.8657 749,-225.1392 749,-214.4235"/>
<polygon fill="#191970" stroke="#191970" points="752.5001,-214.2448 749,-204.2449 745.5001,-214.2449 752.5001,-214.2448"/>
</g>
<!-- Node7&#45;&gt;Node3 -->
<g id="edge8" class="edge">
<title>Node7&#45;&gt;Node3</title>
<path fill="none" stroke="#191970" d="M704.2867,-184.9359C628.672,-167.7555 480.8326,-129.4761 451,-87 427.0913,-52.9585 477.5701,-32.7051 525.3906,-21.5825"/>
<polygon fill="#191970" stroke="#191970" points="526.202,-24.9877 535.2111,-19.4122 524.6914,-18.1526 526.202,-24.9877"/>
</g>
<!-- Node8 -->
<g id="node9" class="node">
<title>Node8</title>
<polygon fill="#ffffff" stroke="#bfbfbf" points="633.5,-123.5 633.5,-142.5 686.5,-142.5 686.5,-123.5 633.5,-123.5"/>
<text text-anchor="middle" x="660" y="-130.5" font-family="Helvetica,sans-Serif" font-size="10.00" fill="#000000">stdint.h</text>
</g>
<!-- Node7&#45;&gt;Node8 -->
<g id="edge9" class="edge">
<title>Node7&#45;&gt;Node8</title>
<path fill="none" stroke="#191970" d="M735.0938,-184.8906C720.9862,-175.1421 698.9276,-159.8994 682.3615,-148.4521"/>
<polygon fill="#191970" stroke="#191970" points="684.0253,-145.3474 673.8086,-142.5419 680.0458,-151.1063 684.0253,-145.3474"/>
</g>
<!-- Node9 -->
<g id="node10" class="node">
<title>Node9</title>
<g id="a_node10"><a xlink:href="api_2align_8h.html" target="_top" xlink:title="ODP alignments. ">
<polygon fill="#ffffff" stroke="#000000" points="704.5,-123.5 704.5,-142.5 793.5,-142.5 793.5,-123.5 704.5,-123.5"/>
<text text-anchor="middle" x="749" y="-130.5" font-family="Helvetica,sans-Serif" font-size="10.00" fill="#000000">odp/api/align.h</text>
</a>
</g>
</g>
<!-- Node7&#45;&gt;Node9 -->
<g id="edge10" class="edge">
<title>Node7&#45;&gt;Node9</title>
<path fill="none" stroke="#191970" d="M749,-184.8906C749,-176.3657 749,-163.6392 749,-152.9235"/>
<polygon fill="#191970" stroke="#191970" points="752.5001,-152.7448 749,-142.7449 745.5001,-152.7449 752.5001,-152.7448"/>
</g>
<!-- Node7&#45;&gt;Node12 -->
<g id="edge15" class="edge">
<title>Node7&#45;&gt;Node12</title>
<path fill="none" stroke="#191970" d="M798.675,-184.9934C916.7943,-162.221 1207.6732,-105.0983 1249,-87 1270.9125,-77.4038 1270.8272,-64.9784 1293,-56 1332.9989,-39.8033 1446.2279,-25.0961 1519.6446,-16.8713"/>
<polygon fill="#191970" stroke="#191970" points="1520.1742,-20.3342 1529.728,-15.7543 1519.4034,-13.3767 1520.1742,-20.3342"/>
</g>
<!-- Node10 -->
<g id="node11" class="node">
<title>Node10</title>
<polygon fill="#ffffff" stroke="#bfbfbf" points="460.5,-62 460.5,-81 567.5,-81 567.5,-62 460.5,-62"/>
<text text-anchor="middle" x="514" y="-69" font-family="Helvetica,sans-Serif" font-size="10.00" fill="#000000">odp/api/abi/align.h</text>
</g>
<!-- Node9&#45;&gt;Node10 -->
<g id="edge11" class="edge">
<title>Node9&#45;&gt;Node10</title>
<path fill="none" stroke="#191970" d="M712.5391,-123.4581C671.5485,-112.7308 604.9031,-95.2895 560.274,-83.61"/>
<polygon fill="#191970" stroke="#191970" points="561.1068,-80.2101 550.5464,-81.0643 559.3345,-86.9821 561.1068,-80.2101"/>
</g>
<!-- Node11 -->
<g id="node12" class="node">
<title>Node11</title>
<g id="a_node12"><a xlink:href="api_2spec_2align_8h.html" target="_top" xlink:title="ODP alignments. ">
<polygon fill="#ffffff" stroke="#000000" points="700,-62 700,-81 814,-81 814,-62 700,-62"/>
<text text-anchor="middle" x="757" y="-69" font-family="Helvetica,sans-Serif" font-size="10.00" fill="#000000">odp/api/spec/align.h</text>
</a>
</g>
</g>
<!-- Node9&#45;&gt;Node11 -->
<g id="edge12" class="edge">
<title>Node9&#45;&gt;Node11</title>
<path fill="none" stroke="#191970" d="M750.25,-123.3906C751.3589,-114.8657 753.0144,-102.1392 754.4083,-91.4235"/>
<polygon fill="#191970" stroke="#191970" points="757.9131,-91.6128 755.7324,-81.2449 750.9716,-90.7098 757.9131,-91.6128"/>
</g>
<!-- Node11&#45;&gt;Node3 -->
<g id="edge13" class="edge">
<title>Node11&#45;&gt;Node3</title>
<path fill="none" stroke="#191970" d="M731.8438,-61.8906C704.551,-51.4652 660.808,-34.7559 630.3603,-23.1252"/>
<polygon fill="#191970" stroke="#191970" points="631.5702,-19.8408 620.9796,-19.5419 629.0723,-26.3799 631.5702,-19.8408"/>
</g>
<!-- Node11&#45;&gt;Node12 -->
<g id="edge14" class="edge">
<title>Node11&#45;&gt;Node12</title>
<path fill="none" stroke="#191970" d="M792.7532,-61.9325C802.4995,-59.6458 813.1011,-57.45 823,-56 956.623,-36.4274 1360.0621,-18.9006 1519.8235,-12.5383"/>
<polygon fill="#191970" stroke="#191970" points="1520.1354,-16.0288 1529.9889,-12.1355 1519.8581,-9.0343 1520.1354,-16.0288"/>
</g>
<!-- Node17&#45;&gt;Node5 -->
<g id="edge21" class="edge">
<title>Node17&#45;&gt;Node5</title>
<path fill="none" stroke="#191970" d="M922.1245,-638.1112C919.6177,-625.1613 914.9171,-601.7791 910,-582 891.2653,-506.6393 895.7472,-483.9382 862,-414 835.0379,-358.1234 788.4711,-300.9605 764.4005,-273.2161"/>
<polygon fill="#191970" stroke="#191970" points="766.9273,-270.7892 757.6991,-265.5842 761.6673,-275.4079 766.9273,-270.7892"/>
</g>
<!-- Node17&#45;&gt;Node15 -->
<g id="edge24" class="edge">
<title>Node17&#45;&gt;Node15</title>
<path fill="none" stroke="#191970" d="M971.6778,-639.9378C1079.9655,-621.2123 1337.2466,-574.2284 1365,-546 1407.3791,-502.8956 1407.6411,-424.818 1405.0663,-388.1039"/>
<polygon fill="#191970" stroke="#191970" points="1408.519,-387.3997 1404.1804,-377.7339 1401.5444,-387.9955 1408.519,-387.3997"/>
</g>
<!-- Node17&#45;&gt;Node16 -->
<g id="edge25" class="edge">
<title>Node17&#45;&gt;Node16</title>
<path fill="none" stroke="#191970" d="M920.6157,-638.1824C908.1223,-603.2274 861.3769,-483.2297 786,-414 771.5285,-400.7087 752.5361,-389.7462 736.474,-381.8613"/>
<polygon fill="#191970" stroke="#191970" points="737.9487,-378.687 727.4118,-377.58 734.9585,-385.0163 737.9487,-378.687"/>
</g>
<!-- Node18 -->
<g id="node19" class="node">
<title>Node18</title>
<polygon fill="#ffffff" stroke="#bfbfbf" points="1106,-358.5 1106,-377.5 1216,-377.5 1216,-358.5 1106,-358.5"/>
<text text-anchor="middle" x="1161" y="-365.5" font-family="Helvetica,sans-Serif" font-size="10.00" fill="#000000">odp/api/abi/event.h</text>
</g>
<!-- Node17&#45;&gt;Node18 -->
<g id="edge22" class="edge">
<title>Node17&#45;&gt;Node18</title>
<path fill="none" stroke="#191970" d="M953.9982,-638.4422C993.4655,-624.3747 1062.4408,-594.3972 1102,-546 1141.2284,-498.0075 1154.741,-422.9442 1159.0905,-387.623"/>
<polygon fill="#191970" stroke="#191970" points="1162.5743,-387.962 1160.2017,-377.6362 1155.6172,-387.1879 1162.5743,-387.962"/>
</g>
<!-- Node19 -->
<g id="node20" class="node">
<title>Node19</title>
<polygon fill="#ffffff" stroke="#bfbfbf" points="516.5,-582.5 516.5,-601.5 629.5,-601.5 629.5,-582.5 516.5,-582.5"/>
<text text-anchor="middle" x="573" y="-589.5" font-family="Helvetica,sans-Serif" font-size="10.00" fill="#000000">odp/api/abi/queue.h</text>
</g>
<!-- Node17&#45;&gt;Node19 -->
<g id="edge23" class="edge">
<title>Node17&#45;&gt;Node19</title>
<path fill="none" stroke="#191970" d="M876.2973,-640.3893C815.108,-630.6269 708.6497,-613.6421 639.5231,-602.6134"/>
<polygon fill="#191970" stroke="#191970" points="640.0313,-599.1503 629.6048,-601.031 638.9284,-606.0628 640.0313,-599.1503"/>
</g>
<!-- Node20 -->
<g id="node21" class="node">
<title>Node20</title>
<g id="a_node21"><a xlink:href="api_2spec_2queue_8h.html" target="_top" xlink:title="ODP queue. ">
<polygon fill="#ffffff" stroke="#000000" points="1312,-582.5 1312,-601.5 1432,-601.5 1432,-582.5 1312,-582.5"/>
<text text-anchor="middle" x="1372" y="-589.5" font-family="Helvetica,sans-Serif" font-size="10.00" fill="#000000">odp/api/spec/queue.h</text>
</a>
</g>
</g>
<!-- Node17&#45;&gt;Node20 -->
<g id="edge26" class="edge">
<title>Node17&#45;&gt;Node20</title>
<path fill="none" stroke="#191970" d="M971.6974,-640.1032C976.5247,-639.3651 981.3571,-638.6508 986,-638 1096.0162,-622.5791 1224.1443,-607.9706 1301.6055,-599.5057"/>
<polygon fill="#191970" stroke="#191970" points="1302.1642,-602.9656 1311.7264,-598.4032 1301.4061,-596.0068 1302.1642,-602.9656"/>
</g>
<!-- Node20&#45;&gt;Node3 -->
<g id="edge27" class="edge">
<title>Node20&#45;&gt;Node3</title>
<path fill="none" stroke="#191970" d="M1347.3104,-582.404C1323.605,-573.1642 1286.8057,-558.7522 1255,-546 1132.8906,-497.0415 1102.6381,-484.1181 981,-434 899.5725,-400.4498 883.6318,-378.5729 798,-358 698.0867,-333.996 416.6275,-386.9487 337,-322 313.346,-302.7065 318,-286.5246 318,-256 318,-256 318,-256 318,-133 318,-94.8373 325.6392,-79.1218 356,-56 382.137,-36.0949 464.4923,-23.4379 525.4761,-16.5446"/>
<polygon fill="#191970" stroke="#191970" points="525.8921,-20.02 535.449,-15.4466 525.126,-13.0621 525.8921,-20.02"/>
</g>
<!-- Node20&#45;&gt;Node12 -->
<g id="edge57" class="edge">
<title>Node20&#45;&gt;Node12</title>
<path fill="none" stroke="#191970" d="M1416.937,-582.447C1470.0237,-569.27 1558.613,-541.1324 1618,-490 1676.0936,-439.9812 1796,-271.16 1796,-194.5 1796,-194.5 1796,-194.5 1796,-133 1796,-93.3621 1782.3888,-80.2054 1751,-56 1734.3379,-43.151 1685.6807,-30.4517 1645.4909,-21.6626"/>
<polygon fill="#191970" stroke="#191970" points="1645.992,-18.1905 1635.4803,-19.5146 1644.5234,-25.0348 1645.992,-18.1905"/>
</g>
<!-- Node21 -->
<g id="node22" class="node">
<title>Node21</title>
<g id="a_node22"><a xlink:href="api_2event_8h.html" target="_top" xlink:title="ODP event. ">
<polygon fill="#ffffff" stroke="#000000" points="1264,-526.5 1264,-545.5 1356,-545.5 1356,-526.5 1264,-526.5"/>
<text text-anchor="middle" x="1310" y="-533.5" font-family="Helvetica,sans-Serif" font-size="10.00" fill="#000000">odp/api/event.h</text>
</a>
</g>
</g>
<!-- Node20&#45;&gt;Node21 -->
<g id="edge28" class="edge">
<title>Node20&#45;&gt;Node21</title>
<path fill="none" stroke="#191970" d="M1361.2004,-582.2455C1352.1322,-574.0549 1338.9794,-562.1749 1328.2755,-552.5069"/>
<polygon fill="#191970" stroke="#191970" points="1330.4429,-549.7482 1320.6758,-545.6427 1325.7509,-554.9429 1330.4429,-549.7482"/>
</g>
<!-- Node29 -->
<g id="node30" class="node">
<title>Node29</title>
<g id="a_node30"><a xlink:href="queue__types_8h.html" target="_top" xlink:title="ODP queue types. ">
<polygon fill="#ffffff" stroke="#000000" points="1466.5,-179.5 1466.5,-209.5 1577.5,-209.5 1577.5,-179.5 1466.5,-179.5"/>
<text text-anchor="start" x="1474.5" y="-197.5" font-family="Helvetica,sans-Serif" font-size="10.00" fill="#000000">odp/api/spec/queue</text>
<text text-anchor="middle" x="1522" y="-186.5" font-family="Helvetica,sans-Serif" font-size="10.00" fill="#000000">_types.h</text>
</a>
</g>
</g>
<!-- Node20&#45;&gt;Node29 -->
<g id="edge49" class="edge">
<title>Node20&#45;&gt;Node29</title>
<path fill="none" stroke="#191970" d="M1376.8035,-582.3701C1391.5671,-552.5404 1437.0865,-458.8177 1467,-378 1487.5059,-322.5989 1506.0342,-255.7363 1515.4572,-219.9886"/>
<polygon fill="#191970" stroke="#191970" points="1518.9408,-220.5005 1518.0813,-209.9406 1512.168,-218.7317 1518.9408,-220.5005"/>
</g>
<!-- Node21&#45;&gt;Node18 -->
<g id="edge29" class="edge">
<title>Node21&#45;&gt;Node18</title>
<path fill="none" stroke="#191970" d="M1285.7396,-526.4571C1268.3261,-518.673 1245.1731,-506.3029 1229,-490 1198.8307,-459.5886 1177.9176,-413.0523 1167.8526,-387.1281"/>
<polygon fill="#191970" stroke="#191970" points="1171.0999,-385.8194 1164.3143,-377.6827 1164.5448,-388.275 1171.0999,-385.8194"/>
</g>
<!-- Node22 -->
<g id="node23" class="node">
<title>Node22</title>
<g id="a_node23"><a xlink:href="api_2spec_2event_8h.html" target="_top" xlink:title="ODP event. ">
<polygon fill="#ffffff" stroke="#000000" points="1238,-470.5 1238,-489.5 1356,-489.5 1356,-470.5 1238,-470.5"/>
<text text-anchor="middle" x="1297" y="-477.5" font-family="Helvetica,sans-Serif" font-size="10.00" fill="#000000">odp/api/spec/event.h</text>
</a>
</g>
</g>
<!-- Node21&#45;&gt;Node22 -->
<g id="edge30" class="edge">
<title>Node21&#45;&gt;Node22</title>
<path fill="none" stroke="#191970" d="M1307.7356,-526.2455C1306.0206,-518.8579 1303.6088,-508.4689 1301.5056,-499.4087"/>
<polygon fill="#191970" stroke="#191970" points="1304.9092,-498.5922 1299.2385,-489.6427 1298.0905,-500.1751 1304.9092,-498.5922"/>
</g>
<!-- Node22&#45;&gt;Node3 -->
<g id="edge31" class="edge">
<title>Node22&#45;&gt;Node3</title>
<path fill="none" stroke="#191970" d="M1294.4368,-470.4964C1288.1692,-448.6331 1270.3253,-393.8952 1240,-358 1097.4315,-189.2458 1012.5695,-189.8149 802,-123 723.4056,-98.0615 681.336,-142.1082 620,-87 603.8604,-72.4991 598.466,-47.342 596.7221,-29.7415"/>
<polygon fill="#191970" stroke="#191970" points="600.2088,-29.4267 596.0356,-19.6884 593.2251,-29.9036 600.2088,-29.4267"/>
</g>
<!-- Node22&#45;&gt;Node12 -->
<g id="edge48" class="edge">
<title>Node22&#45;&gt;Node12</title>
<path fill="none" stroke="#191970" d="M1297.9422,-470.2741C1300.5699,-447.9432 1309.8198,-392.2896 1339,-358 1429.2071,-251.9976 1512.303,-303.953 1615,-210 1641.2848,-185.9532 1643.3733,-175.0147 1659,-143 1676.3607,-107.4328 1698.8074,-89.6671 1678,-56 1668.5039,-40.6351 1652.1495,-30.2306 1635.8388,-23.2655"/>
<polygon fill="#191970" stroke="#191970" points="1636.8811,-19.9155 1626.2925,-19.5505 1634.3424,-26.4389 1636.8811,-19.9155"/>
</g>
<!-- Node23 -->
<g id="node24" class="node">
<title>Node23</title>
<g id="a_node24"><a xlink:href="api_2packet_8h.html" target="_top" xlink:title="ODP packet descriptor. ">
<polygon fill="#ffffff" stroke="#000000" points="990,-414.5 990,-433.5 1088,-433.5 1088,-414.5 990,-414.5"/>
<text text-anchor="middle" x="1039" y="-421.5" font-family="Helvetica,sans-Serif" font-size="10.00" fill="#000000">odp/api/packet.h</text>
</a>
</g>
</g>
<!-- Node22&#45;&gt;Node23 -->
<g id="edge32" class="edge">
<title>Node22&#45;&gt;Node23</title>
<path fill="none" stroke="#191970" d="M1252.9414,-470.4369C1208.6011,-460.8127 1140.1589,-445.957 1092.6751,-435.6504"/>
<polygon fill="#191970" stroke="#191970" points="1093.3918,-432.2245 1082.8769,-433.5237 1091.9069,-439.0653 1093.3918,-432.2245"/>
</g>
<!-- Node23&#45;&gt;Node5 -->
<g id="edge33" class="edge">
<title>Node23&#45;&gt;Node5</title>
<path fill="none" stroke="#191970" d="M1020.7777,-414.4768C1003.6281,-405.4075 977.3177,-391.2172 955,-378 901.0039,-346.0219 890.2288,-333.5819 836,-302 816.6912,-290.7549 794.4053,-278.994 777.2233,-270.1792"/>
<polygon fill="#191970" stroke="#191970" points="778.753,-267.0305 768.2542,-265.6071 775.5739,-273.2669 778.753,-267.0305"/>
</g>
<!-- Node23&#45;&gt;Node13 -->
<g id="edge36" class="edge">
<title>Node23&#45;&gt;Node13</title>
<path fill="none" stroke="#191970" d="M989.5911,-418.4772C899.6133,-408.4198 708.8882,-387.1013 606.454,-375.6515"/>
<polygon fill="#191970" stroke="#191970" points="606.5472,-372.1402 596.2202,-374.5076 605.7695,-379.0969 606.5472,-372.1402"/>
</g>
<!-- Node23&#45;&gt;Node15 -->
<g id="edge37" class="edge">
<title>Node23&#45;&gt;Node15</title>
<path fill="none" stroke="#191970" d="M1088.0907,-416.4476C1152.5489,-406.5309 1265.9128,-389.0903 1337.5968,-378.062"/>
<polygon fill="#191970" stroke="#191970" points="1338.5084,-381.463 1347.8599,-376.4831 1337.444,-374.5444 1338.5084,-381.463"/>
</g>
<!-- Node23&#45;&gt;Node16 -->
<g id="edge38" class="edge">
<title>Node23&#45;&gt;Node16</title>
<path fill="none" stroke="#191970" d="M989.9294,-415.7971C930.6727,-405.8916 830.9297,-389.2181 766.2977,-378.414"/>
<polygon fill="#191970" stroke="#191970" points="766.678,-374.929 756.2378,-376.7323 765.5238,-381.8332 766.678,-374.929"/>
</g>
<!-- Node23&#45;&gt;Node18 -->
<g id="edge34" class="edge">
<title>Node23&#45;&gt;Node18</title>
<path fill="none" stroke="#191970" d="M1059.9725,-414.3733C1079.5567,-405.3838 1108.9961,-391.8706 1131.051,-381.7471"/>
<polygon fill="#191970" stroke="#191970" points="1132.6729,-384.8538 1140.3011,-377.5011 1129.7527,-378.4919 1132.6729,-384.8538"/>
</g>
<!-- Node24 -->
<g id="node25" class="node">
<title>Node24</title>
<polygon fill="#ffffff" stroke="#bfbfbf" points="294,-358.5 294,-377.5 424,-377.5 424,-358.5 294,-358.5"/>
<text text-anchor="middle" x="359" y="-365.5" font-family="Helvetica,sans-Serif" font-size="10.00" fill="#000000">odp/api/abi/packet_io.h</text>
</g>
<!-- Node23&#45;&gt;Node24 -->
<g id="edge35" class="edge">
<title>Node23&#45;&gt;Node24</title>
<path fill="none" stroke="#191970" d="M989.9837,-420.1671C891.583,-412.4424 662.9794,-394.344 471,-378 459.1468,-376.9909 446.5905,-375.8956 434.3374,-374.8123"/>
<polygon fill="#191970" stroke="#191970" points="434.4085,-371.3049 424.1383,-373.9073 433.7897,-378.2775 434.4085,-371.3049"/>
</g>
<!-- Node25 -->
<g id="node26" class="node">
<title>Node25</title>
<g id="a_node26"><a xlink:href="api_2spec_2packet_8h.html" target="_top" xlink:title="ODP packet descriptor. ">
<polygon fill="#ffffff" stroke="#000000" points="964.5,-358.5 964.5,-377.5 1087.5,-377.5 1087.5,-358.5 964.5,-358.5"/>
<text text-anchor="middle" x="1026" y="-365.5" font-family="Helvetica,sans-Serif" font-size="10.00" fill="#000000">odp/api/spec/packet.h</text>
</a>
</g>
</g>
<!-- Node23&#45;&gt;Node25 -->
<g id="edge39" class="edge">
<title>Node23&#45;&gt;Node25</title>
<path fill="none" stroke="#191970" d="M1036.7356,-414.2455C1035.0206,-406.8579 1032.6088,-396.4689 1030.5056,-387.4087"/>
<polygon fill="#191970" stroke="#191970" points="1033.9092,-386.5922 1028.2385,-377.6427 1027.0905,-388.1751 1033.9092,-386.5922"/>
</g>
<!-- Node25&#45;&gt;Node3 -->
<g id="edge40" class="edge">
<title>Node25&#45;&gt;Node3</title>
<path fill="none" stroke="#191970" d="M1012.2954,-358.2989C979.5424,-335.5304 893.519,-278.1679 814,-246 753.2443,-221.4225 729.5663,-239.4159 671,-210 651.5228,-200.2173 652.3507,-189.0305 633,-179 580.1536,-151.607 556.2545,-171.5057 504,-143 471.1125,-125.0593 456.3468,-121.175 441,-87 435.3558,-74.4314 432.7593,-67.0416 441,-56 451.9725,-41.2981 492.1489,-29.6172 528.8462,-21.7051"/>
<polygon fill="#191970" stroke="#191970" points="530.0012,-25.0397 539.0773,-19.5741 528.5737,-18.1868 530.0012,-25.0397"/>
</g>
<!-- Node25&#45;&gt;Node12 -->
<g id="edge47" class="edge">
<title>Node25&#45;&gt;Node12</title>
<path fill="none" stroke="#191970" d="M1058.9039,-358.4295C1130.483,-337.6472 1305.744,-286.9638 1453,-246 1511.998,-229.5879 1536.9116,-246.6122 1586,-210 1616.5911,-187.1838 1680.7386,-89.2455 1662,-56 1653.862,-41.5618 1639.1645,-31.1395 1624.8484,-23.9057"/>
<polygon fill="#191970" stroke="#191970" points="1626.113,-20.6342 1615.5685,-19.6024 1623.1681,-26.9846 1626.113,-20.6342"/>
</g>
<!-- Node26 -->
<g id="node27" class="node">
<title>Node26</title>
<g id="a_node27"><a xlink:href="api_2time_8h.html" target="_top" xlink:title="ODP time. ">
<polygon fill="#ffffff" stroke="#000000" points="982.5,-302.5 982.5,-321.5 1069.5,-321.5 1069.5,-302.5 982.5,-302.5"/>
<text text-anchor="middle" x="1026" y="-309.5" font-family="Helvetica,sans-Serif" font-size="10.00" fill="#000000">odp/api/time.h</text>
</a>
</g>
</g>
<!-- Node25&#45;&gt;Node26 -->
<g id="edge41" class="edge">
<title>Node25&#45;&gt;Node26</title>
<path fill="none" stroke="#191970" d="M1026,-358.2455C1026,-350.9382 1026,-340.6944 1026,-331.7046"/>
<polygon fill="#191970" stroke="#191970" points="1029.5001,-331.6426 1026,-321.6427 1022.5001,-331.6427 1029.5001,-331.6426"/>
</g>
<!-- Node26&#45;&gt;Node5 -->
<g id="edge42" class="edge">
<title>Node26&#45;&gt;Node5</title>
<path fill="none" stroke="#191970" d="M982.414,-303.1884C934.7508,-293.5525 858.1915,-278.0748 805.8422,-267.4916"/>
<polygon fill="#191970" stroke="#191970" points="806.5317,-264.0602 796.0364,-265.5092 805.1446,-270.9214 806.5317,-264.0602"/>
</g>
<!-- Node27 -->
<g id="node28" class="node">
<title>Node27</title>
<polygon fill="#ffffff" stroke="#bfbfbf" points="964.5,-246.5 964.5,-265.5 1069.5,-265.5 1069.5,-246.5 964.5,-246.5"/>
<text text-anchor="middle" x="1017" y="-253.5" font-family="Helvetica,sans-Serif" font-size="10.00" fill="#000000">odp/api/abi/time.h</text>
</g>
<!-- Node26&#45;&gt;Node27 -->
<g id="edge43" class="edge">
<title>Node26&#45;&gt;Node27</title>
<path fill="none" stroke="#191970" d="M1024.4323,-302.2455C1023.2579,-294.9382 1021.6116,-284.6944 1020.1668,-275.7046"/>
<polygon fill="#191970" stroke="#191970" points="1023.5922,-274.9606 1018.5497,-265.6427 1016.6809,-276.0714 1023.5922,-274.9606"/>
</g>
<!-- Node28 -->
<g id="node29" class="node">
<title>Node28</title>
<g id="a_node29"><a xlink:href="api_2spec_2time_8h.html" target="_top" xlink:title="ODP time. ">
<polygon fill="#ffffff" stroke="#000000" points="964.5,-62 964.5,-81 1077.5,-81 1077.5,-62 964.5,-62"/>
<text text-anchor="middle" x="1021" y="-69" font-family="Helvetica,sans-Serif" font-size="10.00" fill="#000000">odp/api/spec/time.h</text>
</a>
</g>
</g>
<!-- Node26&#45;&gt;Node28 -->
<g id="edge44" class="edge">
<title>Node26&#45;&gt;Node28</title>
<path fill="none" stroke="#191970" d="M1043.0567,-302.377C1055.3089,-294.4014 1070.8708,-281.8248 1078,-266 1081.6511,-257.8956 1079.3974,-254.7784 1078,-246 1068.6822,-187.4655 1042.8203,-121.8841 1029.3695,-90.3867"/>
<polygon fill="#191970" stroke="#191970" points="1032.5181,-88.8503 1025.3255,-81.0711 1026.0971,-91.6378 1032.5181,-88.8503"/>
</g>
<!-- Node28&#45;&gt;Node3 -->
<g id="edge45" class="edge">
<title>Node28&#45;&gt;Node3</title>
<path fill="none" stroke="#191970" d="M983.4458,-61.9729C974.1854,-59.8195 964.2655,-57.677 955,-56 855.4944,-37.9903 739.2238,-24.4452 666.5892,-16.8687"/>
<polygon fill="#191970" stroke="#191970" points="666.943,-13.3867 656.636,-15.8394 666.2229,-20.3496 666.943,-13.3867"/>
</g>
<!-- Node28&#45;&gt;Node12 -->
<g id="edge46" class="edge">
<title>Node28&#45;&gt;Node12</title>
<path fill="none" stroke="#191970" d="M1056.9152,-61.9712C1066.3256,-59.7402 1076.4986,-57.5618 1086,-56 1240.161,-30.6602 1423.5268,-18.255 1519.6506,-13.0933"/>
<polygon fill="#191970" stroke="#191970" points="1520.0033,-16.5797 1529.805,-12.5576 1519.6344,-9.5894 1520.0033,-16.5797"/>
</g>
<!-- Node29&#45;&gt;Node3 -->
<g id="edge50" class="edge">
<title>Node29&#45;&gt;Node3</title>
<path fill="none" stroke="#191970" d="M1466.1788,-181.7501C1416.0813,-170.0376 1346.4869,-153.0224 1320,-143 1301.781,-136.1061 1299.7874,-128.1469 1281,-123 1154.3131,-88.2932 813.4166,-134.6266 691,-87 682.2452,-83.5939 640.1861,-48.0916 615.059,-26.5022"/>
<polygon fill="#191970" stroke="#191970" points="617.1194,-23.6574 607.2594,-19.7805 612.5496,-28.96 617.1194,-23.6574"/>
</g>
<!-- Node29&#45;&gt;Node12 -->
<g id="edge56" class="edge">
<title>Node29&#45;&gt;Node12</title>
<path fill="none" stroke="#191970" d="M1516.4613,-179.4268C1509.7591,-163.2192 1496.9617,-137.7927 1478,-123 1436.1073,-90.318 1395.4085,-129.8558 1364,-87 1355.8555,-75.8872 1355.302,-66.6851 1364,-56 1383.3682,-32.2071 1461.469,-20.3339 1519.5904,-14.6862"/>
<polygon fill="#191970" stroke="#191970" points="1520.1931,-18.1454 1529.8264,-13.7351 1519.5454,-11.1754 1520.1931,-18.1454"/>
</g>
<!-- Node30 -->
<g id="node31" class="node">
<title>Node30</title>
<g id="a_node31"><a xlink:href="api_2schedule__types_8h.html" target="_top" xlink:title="ODP schedule. ">
<polygon fill="#ffffff" stroke="#ff0000" points="1329,-123.5 1329,-142.5 1469,-142.5 1469,-123.5 1329,-123.5"/>
<text text-anchor="middle" x="1399" y="-130.5" font-family="Helvetica,sans-Serif" font-size="10.00" fill="#000000">odp/api/schedule_types.h</text>
</a>
</g>
</g>
<!-- Node29&#45;&gt;Node30 -->
<g id="edge51" class="edge">
<title>Node29&#45;&gt;Node30</title>
<path fill="none" stroke="#191970" d="M1491.9108,-179.4554C1472.1981,-169.599 1446.5998,-156.7999 1427.2653,-147.1327"/>
<polygon fill="#191970" stroke="#191970" points="1428.5702,-143.872 1418.0606,-142.5303 1425.4397,-150.133 1428.5702,-143.872"/>
</g>
<!-- Node35 -->
<g id="node32" class="node">
<title>Node35</title>
<g id="a_node32"><a xlink:href="deprecated_8h.html" target="_top" xlink:title="Control deprecated API definitions. ">
<polygon fill="#ffffff" stroke="#000000" points="1153.5,-123.5 1153.5,-142.5 1272.5,-142.5 1272.5,-123.5 1153.5,-123.5"/>
<text text-anchor="middle" x="1213" y="-130.5" font-family="Helvetica,sans-Serif" font-size="10.00" fill="#000000">odp/api/deprecated.h</text>
</a>
</g>
</g>
<!-- Node29&#45;&gt;Node35 -->
<g id="edge52" class="edge">
<title>Node29&#45;&gt;Node35</title>
<path fill="none" stroke="#191970" d="M1466.2456,-182.0081C1461.4309,-180.9737 1456.6318,-179.9584 1452,-179 1391.9297,-166.571 1323.1304,-153.4457 1274.82,-144.4108"/>
<polygon fill="#191970" stroke="#191970" points="1275.305,-140.9409 1264.8326,-142.5466 1274.0206,-147.8221 1275.305,-140.9409"/>
</g>
<!-- Node36 -->
<g id="node33" class="node">
<title>Node36</title>
<g id="a_node33"><a xlink:href="spec_2deprecated_8h.html" target="_top" xlink:title="Macro for deprecated API definitions. ">
<polygon fill="#ffffff" stroke="#000000" points="1095.5,-62 1095.5,-81 1240.5,-81 1240.5,-62 1095.5,-62"/>
<text text-anchor="middle" x="1168" y="-69" font-family="Helvetica,sans-Serif" font-size="10.00" fill="#000000">odp/api/spec/deprecated.h</text>
</a>
</g>
</g>
<!-- Node35&#45;&gt;Node36 -->
<g id="edge53" class="edge">
<title>Node35&#45;&gt;Node36</title>
<path fill="none" stroke="#191970" d="M1205.9688,-123.3906C1199.337,-114.3273 1189.2304,-100.5149 1181.1113,-89.4188"/>
<polygon fill="#191970" stroke="#191970" points="1183.8601,-87.2484 1175.1304,-81.2449 1178.2109,-91.382 1183.8601,-87.2484"/>
</g>
<!-- Node36&#45;&gt;Node3 -->
<g id="edge54" class="edge">
<title>Node36&#45;&gt;Node3</title>
<path fill="none" stroke="#191970" d="M1121.7233,-61.9725C1110.0964,-59.794 1097.6203,-57.6401 1086,-56 937.4323,-35.0315 762.1286,-21.1856 666.6716,-14.5569"/>
<polygon fill="#191970" stroke="#191970" points="666.7769,-11.056 656.5602,-13.8611 666.2962,-18.0394 666.7769,-11.056"/>
</g>
<!-- Node36&#45;&gt;Node12 -->
<g id="edge55" class="edge">
<title>Node36&#45;&gt;Node12</title>
<path fill="none" stroke="#191970" d="M1219.4693,-61.9945C1231.1377,-59.9331 1243.4838,-57.8254 1255,-56 1346.7033,-41.4643 1453.1056,-27.1256 1519.992,-18.4181"/>
<polygon fill="#191970" stroke="#191970" points="1520.5068,-21.8807 1529.973,-17.1224 1519.6056,-14.939 1520.5068,-21.8807"/>
</g>
<!-- Node37&#45;&gt;Node3 -->
<g id="edge59" class="edge">
<title>Node37&#45;&gt;Node3</title>
<path fill="none" stroke="#191970" d="M1544.9095,-470.3745C1534.8557,-447.7692 1506.8244,-390.7339 1467,-358 1239.6687,-171.1438 1134.4573,-190.3572 848,-123 760.0804,-102.3267 723.6727,-136.3039 648,-87 636.6242,-79.5882 617.7241,-48.6286 606.1143,-28.2952"/>
<polygon fill="#191970" stroke="#191970" points="609.1593,-26.5693 601.2058,-19.5698 603.0584,-30.0014 609.1593,-26.5693"/>
</g>
<!-- Node37&#45;&gt;Node12 -->
<g id="edge66" class="edge">
<title>Node37&#45;&gt;Node12</title>
<path fill="none" stroke="#191970" d="M1556.1785,-470.3816C1587.15,-428.0797 1708.8994,-253.2823 1734,-87 1736.0565,-73.3766 1742.1696,-67.0943 1734,-56 1723.3905,-41.5923 1683.8599,-29.7394 1648.3216,-21.6754"/>
<polygon fill="#191970" stroke="#191970" points="1648.9493,-18.2299 1638.4311,-19.5024 1647.4471,-25.0668 1648.9493,-18.2299"/>
</g>
<!-- Node37&#45;&gt;Node23 -->
<g id="edge65" class="edge">
<title>Node37&#45;&gt;Node23</title>
<path fill="none" stroke="#191970" d="M1488.4936,-473.3562C1389.8719,-462.5271 1195.6916,-441.2053 1098.0319,-430.4819"/>
<polygon fill="#191970" stroke="#191970" points="1098.357,-426.9967 1088.0347,-429.3842 1097.5929,-433.9549 1098.357,-426.9967"/>
</g>
<!-- Node37&#45;&gt;Node35 -->
<g id="edge60" class="edge">
<title>Node37&#45;&gt;Node35</title>
<path fill="none" stroke="#191970" d="M1546.999,-470.2256C1542.1203,-448.2654 1527.9155,-394.1201 1500,-358 1423.6905,-259.2627 1294.7606,-179.1913 1239.4702,-147.5717"/>
<polygon fill="#191970" stroke="#191970" points="1241.0654,-144.453 1230.6381,-142.5762 1237.6192,-150.5459 1241.0654,-144.453"/>
</g>
<!-- Node37&#45;&gt;Node33 -->
<g id="edge61" class="edge">
<title>Node37&#45;&gt;Node33</title>
<path fill="none" stroke="#191970" d="M1584.4127,-470.3733C1619.2605,-460.9001 1672.5882,-446.4032 1710.3293,-436.1435"/>
<polygon fill="#191970" stroke="#191970" points="1711.3178,-439.5019 1720.0494,-433.5011 1709.4815,-432.747 1711.3178,-439.5019"/>
</g>
<!-- Node34 -->
<g id="node36" class="node">
<title>Node34</title>
<g id="a_node36"><a xlink:href="spec_2support_8h.html" target="_top" xlink:title="ODP support API. ">
<polygon fill="#ffffff" stroke="#000000" points="1373.5,-62 1373.5,-81 1500.5,-81 1500.5,-62 1373.5,-62"/>
<text text-anchor="middle" x="1437" y="-69" font-family="Helvetica,sans-Serif" font-size="10.00" fill="#000000">odp/api/spec/support.h</text>
</a>
</g>
</g>
<!-- Node33&#45;&gt;Node34 -->
<g id="edge62" class="edge">
<title>Node33&#45;&gt;Node34</title>
<path fill="none" stroke="#191970" d="M1749.8901,-414.2527C1731.3312,-379.4497 1664.4446,-259.1215 1586,-179 1547.8163,-140 1494.11,-105.1089 1462.6903,-86.2574"/>
<polygon fill="#191970" stroke="#191970" points="1464.4616,-83.2387 1454.0736,-81.1551 1460.895,-89.2619 1464.4616,-83.2387"/>
</g>
<!-- Node34&#45;&gt;Node3 -->
<g id="edge63" class="edge">
<title>Node34&#45;&gt;Node3</title>
<path fill="none" stroke="#191970" d="M1373.4896,-66.0741C1337.0635,-63.0096 1290.471,-59.1702 1249,-56 1037.3151,-39.8182 786.8608,-22.7586 666.9347,-14.7186"/>
<polygon fill="#191970" stroke="#191970" points="666.9971,-11.2151 656.7855,-14.0389 666.5293,-18.1994 666.9971,-11.2151"/>
</g>
<!-- Node34&#45;&gt;Node12 -->
<g id="edge64" class="edge">
<title>Node34&#45;&gt;Node12</title>
<path fill="none" stroke="#191970" d="M1460.2813,-61.8906C1485.321,-51.5554 1525.3225,-35.0447 1553.466,-23.4284"/>
<polygon fill="#191970" stroke="#191970" points="1554.974,-26.5925 1562.8822,-19.5419 1552.3033,-20.122 1554.974,-26.5925"/>
</g>
<!-- Node38&#45;&gt;Node5 -->
<g id="edge69" class="edge">
<title>Node38&#45;&gt;Node5</title>
<path fill="none" stroke="#191970" d="M590.1256,-750.0238C558.0486,-713.5495 450,-586.9101 450,-536 450,-536 450,-536 450,-480 450,-424.9804 435.7747,-400.2651 471,-358 475.0556,-353.1339 637.7384,-295.2694 712.3221,-268.9218"/>
<polygon fill="#191970" stroke="#191970" points="713.5485,-272.2006 721.8129,-265.5712 711.2181,-265.5999 713.5485,-272.2006"/>
</g>
<!-- Node38&#45;&gt;Node13 -->
<g id="edge72" class="edge">
<title>Node38&#45;&gt;Node13</title>
<path fill="none" stroke="#191970" d="M597.8047,-750.1855C594.7032,-728.1431 584.6943,-673.8405 558,-638 541.4271,-615.7488 523.0804,-624.6097 507,-602 489.3085,-577.1251 488,-566.5246 488,-536 488,-536 488,-536 488,-480 488,-444.2001 509.5643,-407.1175 524.3693,-385.8769"/>
<polygon fill="#191970" stroke="#191970" points="527.3739,-387.6952 530.4061,-377.5435 521.7051,-383.5886 527.3739,-387.6952"/>
</g>
<!-- Node38&#45;&gt;Node16 -->
<g id="edge70" class="edge">
<title>Node38&#45;&gt;Node16</title>
<path fill="none" stroke="#191970" d="M616.3417,-750.4601C644.2423,-733.6916 696,-696.1023 696,-648 696,-648 696,-648 696,-536 696,-482.4276 700.109,-419.3546 702.4373,-387.9146"/>
<polygon fill="#191970" stroke="#191970" points="705.9351,-388.0756 703.2037,-377.8389 698.9553,-387.5446 705.9351,-388.0756"/>
</g>
<!-- Node38&#45;&gt;Node19 -->
<g id="edge74" class="edge">
<title>Node38&#45;&gt;Node19</title>
<path fill="none" stroke="#191970" d="M600.1692,-750.3191C602.389,-729.4262 606.1393,-678.7064 596,-638 593.6113,-628.41 588.9884,-618.5134 584.51,-610.3681"/>
<polygon fill="#191970" stroke="#191970" points="587.5306,-608.6 579.4615,-601.7341 581.4878,-612.1333 587.5306,-608.6"/>
</g>
<!-- Node38&#45;&gt;Node24 -->
<g id="edge73" class="edge">
<title>Node38&#45;&gt;Node24</title>
<path fill="none" stroke="#191970" d="M581.7427,-750.4415C535.4492,-723.3891 412,-641.3708 412,-536 412,-536 412,-536 412,-480 412,-443.8604 389.1748,-406.9196 373.4825,-385.7933"/>
<polygon fill="#191970" stroke="#191970" points="376.161,-383.5352 367.2813,-377.7558 370.6188,-387.8112 376.161,-383.5352"/>
</g>
<!-- Node39 -->
<g id="node38" class="node">
<title>Node39</title>
<polygon fill="#ffffff" stroke="#bfbfbf" points="332,-694.5 332,-713.5 478,-713.5 478,-694.5 332,-694.5"/>
<text text-anchor="middle" x="405" y="-701.5" font-family="Helvetica,sans-Serif" font-size="10.00" fill="#000000">odp/api/abi/classification.h</text>
</g>
<!-- Node38&#45;&gt;Node39 -->
<g id="edge71" class="edge">
<title>Node38&#45;&gt;Node39</title>
<path fill="none" stroke="#191970" d="M565.6502,-750.3733C532.972,-740.9404 483.0382,-726.5265 447.523,-716.2747"/>
<polygon fill="#191970" stroke="#191970" points="448.493,-712.9119 437.9146,-713.5011 446.5516,-719.6373 448.493,-712.9119"/>
</g>
<!-- Node40 -->
<g id="node39" class="node">
<title>Node40</title>
<g id="a_node39"><a xlink:href="api_2spec_2packet__io_8h.html" target="_top" xlink:title="ODP Packet IO. ">
<polygon fill="#ffffff" stroke="#000000" points="1158.5,-694.5 1158.5,-713.5 1295.5,-713.5 1295.5,-694.5 1158.5,-694.5"/>
<text text-anchor="middle" x="1227" y="-701.5" font-family="Helvetica,sans-Serif" font-size="10.00" fill="#000000">odp/api/spec/packet_io.h</text>
</a>
</g>
</g>
<!-- Node38&#45;&gt;Node40 -->
<g id="edge75" class="edge">
<title>Node38&#45;&gt;Node40</title>
<path fill="none" stroke="#191970" d="M655.309,-753.3625C665.8353,-752.1894 676.7485,-751.0189 687,-750 850.7792,-733.7218 1042.8635,-718.212 1148.1026,-710.0208"/>
<polygon fill="#191970" stroke="#191970" points="1148.6238,-713.491 1158.3228,-709.2271 1148.0818,-706.512 1148.6238,-713.491"/>
</g>
<!-- Node40&#45;&gt;Node3 -->
<g id="edge76" class="edge">
<title>Node40&#45;&gt;Node3</title>
<path fill="none" stroke="#191970" d="M1158.388,-699.2779C1060.1164,-691.9115 888.6741,-676.5841 867,-658 843.8273,-638.131 848,-622.5246 848,-592 848,-592 848,-592 848,-480 848,-414.4192 821.6867,-390.9765 765,-358 574.6021,-247.2393 280,-476.271 280,-256 280,-256 280,-256 280,-133 280,-93.5845 291.684,-78.5666 324,-56 355.7184,-33.8507 455.7284,-21.3374 525.2041,-15.1191"/>
<polygon fill="#191970" stroke="#191970" points="525.5626,-18.6012 535.2213,-14.2469 524.9553,-11.6276 525.5626,-18.6012"/>
</g>
<!-- Node40&#45;&gt;Node12 -->
<g id="edge85" class="edge">
<title>Node40&#45;&gt;Node12</title>
<path fill="none" stroke="#191970" d="M1295.6578,-699.9418C1385.1887,-693.8451 1536.352,-680.5647 1587,-658 1741.6493,-589.1007 1834,-537.303 1834,-368 1834,-368 1834,-368 1834,-133 1834,-91.7049 1815.9964,-79.442 1782,-56 1761.0461,-41.5514 1700.4972,-28.6545 1652.1869,-20.22"/>
<polygon fill="#191970" stroke="#191970" points="1652.5299,-16.7279 1642.0825,-18.489 1651.3479,-23.6274 1652.5299,-16.7279"/>
</g>
<!-- Node40&#45;&gt;Node17 -->
<g id="edge82" class="edge">
<title>Node40&#45;&gt;Node17</title>
<path fill="none" stroke="#191970" d="M1175.2567,-694.4369C1121.474,-684.4968 1037.4973,-668.9764 981.6288,-658.6509"/>
<polygon fill="#191970" stroke="#191970" points="982.0072,-655.1616 971.5376,-656.7858 980.735,-662.045 982.0072,-655.1616"/>
</g>
<!-- Node40&#45;&gt;Node23 -->
<g id="edge84" class="edge">
<title>Node40&#45;&gt;Node23</title>
<path fill="none" stroke="#191970" d="M1225.7828,-694.1507C1223.8499,-680.8398 1219.3036,-656.6311 1210,-638 1168.6942,-555.2821 1091.5046,-474.7801 1056.7562,-440.8345"/>
<polygon fill="#191970" stroke="#191970" points="1058.8816,-438.0214 1049.2576,-433.5909 1054.0182,-443.056 1058.8816,-438.0214"/>
</g>
<!-- Node40&#45;&gt;Node26 -->
<g id="edge83" class="edge">
<title>Node40&#45;&gt;Node26</title>
<path fill="none" stroke="#191970" d="M1227.2671,-694.4862C1227.5141,-685.1847 1227.8628,-670.6203 1228,-658 1228.0966,-649.1116 1228.0476,-646.8888 1228,-638 1227.9583,-630.2219 1229.8738,-364.0619 1225,-358 1207.0341,-335.6542 1132.3534,-323.1838 1079.7825,-317.0294"/>
<polygon fill="#191970" stroke="#191970" points="1079.9152,-313.5223 1069.5864,-315.8816 1079.1321,-320.4784 1079.9152,-313.5223"/>
</g>
<!-- Node40&#45;&gt;Node35 -->
<g id="edge77" class="edge">
<title>Node40&#45;&gt;Node35</title>
<path fill="none" stroke="#191970" d="M1295.7922,-699.439C1412.7938,-689.7754 1638,-662.0734 1638,-592 1638,-592 1638,-592 1638,-368 1638,-280.502 1358.6337,-180.4107 1252.8994,-145.6617"/>
<polygon fill="#191970" stroke="#191970" points="1253.8167,-142.2794 1243.2242,-142.5055 1251.6457,-148.9343 1253.8167,-142.2794"/>
</g>
<!-- Node41 -->
<g id="node40" class="node">
<title>Node41</title>
<g id="a_node40"><a xlink:href="packet__io__stats_8h.html" target="_top" xlink:title="ODP packet IO stats. ">
<polygon fill="#ffffff" stroke="#000000" points="952.5,-526.5 952.5,-545.5 1093.5,-545.5 1093.5,-526.5 952.5,-526.5"/>
<text text-anchor="middle" x="1023" y="-533.5" font-family="Helvetica,sans-Serif" font-size="10.00" fill="#000000">odp/api/packet_io_stats.h</text>
</a>
</g>
</g>
<!-- Node40&#45;&gt;Node41 -->
<g id="edge78" class="edge">
<title>Node40&#45;&gt;Node41</title>
<path fill="none" stroke="#191970" d="M1222.9632,-694.0642C1216.9606,-680.2179 1204.5836,-654.9182 1188,-638 1148.6738,-597.8804 1090.5378,-566.7358 1054.8044,-549.905"/>
<polygon fill="#191970" stroke="#191970" points="1055.9003,-546.556 1045.3541,-545.5419 1052.9661,-552.9114 1055.9003,-546.556"/>
</g>
<!-- Node42 -->
<g id="node41" class="node">
<title>Node42</title>
<g id="a_node41"><a xlink:href="spec_2packet__io__stats_8h.html" target="_top" xlink:title="ODP Packet IO. ">
<polygon fill="#ffffff" stroke="#000000" points="832,-56.5 832,-86.5 946,-86.5 946,-56.5 832,-56.5"/>
<text text-anchor="start" x="840" y="-74.5" font-family="Helvetica,sans-Serif" font-size="10.00" fill="#000000">odp/api/spec/packet</text>
<text text-anchor="middle" x="889" y="-63.5" font-family="Helvetica,sans-Serif" font-size="10.00" fill="#000000">_io_stats.h</text>
</a>
</g>
</g>
<!-- Node41&#45;&gt;Node42 -->
<g id="edge79" class="edge">
<title>Node41&#45;&gt;Node42</title>
<path fill="none" stroke="#191970" d="M1012.7707,-526.3796C982.9171,-497.2067 898,-405.9672 898,-312 898,-312 898,-312 898,-194.5 898,-160.5548 894.5483,-121.4802 891.9201,-96.6482"/>
<polygon fill="#191970" stroke="#191970" points="895.39,-96.1817 890.8213,-86.6226 888.4317,-96.9444 895.39,-96.1817"/>
</g>
<!-- Node42&#45;&gt;Node3 -->
<g id="edge80" class="edge">
<title>Node42&#45;&gt;Node3</title>
<path fill="none" stroke="#191970" d="M831.787,-57.9502C828.8171,-57.2823 825.8746,-56.6286 823,-56 766.2109,-43.5807 701.1705,-30.5187 655.308,-21.5003"/>
<polygon fill="#191970" stroke="#191970" points="655.73,-18.0165 645.2432,-19.5256 654.3823,-24.8855 655.73,-18.0165"/>
</g>
<!-- Node42&#45;&gt;Node12 -->
<g id="edge81" class="edge">
<title>Node42&#45;&gt;Node12</title>
<path fill="none" stroke="#191970" d="M946.1296,-57.5009C949.1212,-56.9504 952.0913,-56.4447 955,-56 1159.4693,-24.7377 1404.5678,-14.5775 1519.8778,-11.3903"/>
<polygon fill="#191970" stroke="#191970" points="1520.0563,-14.8869 1529.959,-11.1204 1519.8689,-7.8894 1520.0563,-14.8869"/>
</g>
<!-- Node44 -->
<g id="node43" class="node">
<title>Node44</title>
<g id="a_node43"><a xlink:href="spec_2protocols_8h.html" target="_top" xlink:title="ODP protocols. ">
<polygon fill="#ffffff" stroke="#000000" points="1518.5,-62 1518.5,-81 1653.5,-81 1653.5,-62 1518.5,-62"/>
<text text-anchor="middle" x="1586" y="-69" font-family="Helvetica,sans-Serif" font-size="10.00" fill="#000000">odp/api/spec/protocols.h</text>
</a>
</g>
</g>
<!-- Node43&#45;&gt;Node44 -->
<g id="edge87" class="edge">
<title>Node43&#45;&gt;Node44</title>
<path fill="none" stroke="#191970" d="M1882.3616,-873.4512C1903.7805,-854.3103 1948,-808.8751 1948,-760 1948,-760 1948,-760 1948,-480 1948,-375.9825 1681.7729,-149.9457 1605.9378,-87.6689"/>
<polygon fill="#191970" stroke="#191970" points="1608.0014,-84.8352 1598.0444,-81.2146 1603.5704,-90.2542 1608.0014,-84.8352"/>
</g>
<!-- Node44&#45;&gt;Node3 -->
<g id="edge88" class="edge">
<title>Node44&#45;&gt;Node3</title>
<path fill="none" stroke="#191970" d="M1544.625,-61.9989C1533.1443,-59.6832 1520.6364,-57.4562 1509,-56 1346.328,-35.6433 851.6082,-18.1846 666.7139,-12.204"/>
<polygon fill="#191970" stroke="#191970" points="666.6714,-8.7009 656.5639,-11.8772 666.446,-15.6973 666.6714,-8.7009"/>
</g>
<!-- Node44&#45;&gt;Node12 -->
<g id="edge89" class="edge">
<title>Node44&#45;&gt;Node12</title>
<path fill="none" stroke="#191970" d="M1586,-61.8906C1586,-53.3657 1586,-40.6392 1586,-29.9235"/>
<polygon fill="#191970" stroke="#191970" points="1589.5001,-29.7448 1586,-19.7449 1582.5001,-29.7449 1589.5001,-29.7448"/>
</g>
<!-- Node45&#45;&gt;Node5 -->
<g id="edge91" class="edge">
<title>Node45&#45;&gt;Node5</title>
<path fill="none" stroke="#191970" d="M227.8186,-875.5804C172.9735,-868.1328 99.3406,-855.1557 76,-837 45.8773,-813.5689 38,-798.1627 38,-760 38,-760 38,-760 38,-592 38,-553.1538 263.2318,-359.9149 267,-358 356.8926,-312.3204 396.3533,-356.775 491,-322 507.0978,-316.0853 508.0309,-308.2539 524,-302 575.427,-281.86 637.0782,-270.0471 682.8313,-263.4466"/>
<polygon fill="#191970" stroke="#191970" points="683.5081,-266.8861 692.9281,-262.0371 682.5402,-259.9534 683.5081,-266.8861"/>
</g>
<!-- Node45&#45;&gt;Node13 -->
<g id="edge94" class="edge">
<title>Node45&#45;&gt;Node13</title>
<path fill="none" stroke="#191970" d="M276.3304,-873.4362C264.6111,-865.3305 249.3871,-852.5563 242,-837 202.9733,-754.8146 239.5403,-713.7057 290,-638 361.4661,-530.778 474.999,-424.2837 519.3678,-384.4239"/>
<polygon fill="#191970" stroke="#191970" points="521.9234,-386.8344 527.0548,-377.5651 517.263,-381.6113 521.9234,-386.8344"/>
</g>
<!-- Node45&#45;&gt;Node16 -->
<g id="edge92" class="edge">
<title>Node45&#45;&gt;Node16</title>
<path fill="none" stroke="#191970" d="M356.4281,-880.608C468.4924,-875.7795 689.6537,-863.0362 713,-837 722.1981,-826.7422 714.7284,-819.6689 713,-806 700.6805,-708.5737 658,-690.2021 658,-592 658,-592 658,-592 658,-536 658,-480.2753 681.8344,-417.7267 695.1903,-387.0512"/>
<polygon fill="#191970" stroke="#191970" points="698.5324,-388.1511 699.4212,-377.5936 692.1427,-385.2926 698.5324,-388.1511"/>
</g>
<!-- Node45&#45;&gt;Node19 -->
<g id="edge96" class="edge">
<title>Node45&#45;&gt;Node19</title>
<path fill="none" stroke="#191970" d="M283.6013,-873.2763C265.2463,-850.7809 224.9028,-793.7302 247,-750 295.7593,-653.5058 426.0242,-615.3596 506.3519,-600.7102"/>
<polygon fill="#191970" stroke="#191970" points="507.1272,-604.1278 516.3744,-598.9567 505.9208,-597.2325 507.1272,-604.1278"/>
</g>
<!-- Node45&#45;&gt;Node24 -->
<g id="edge95" class="edge">
<title>Node45&#45;&gt;Node24</title>
<path fill="none" stroke="#191970" d="M227.7177,-874.5198C179.3898,-866.9067 118.4636,-854.2663 100,-837 73.8184,-812.5161 76,-795.846 76,-760 76,-760 76,-760 76,-648 76,-508.7628 251.252,-415.2724 325.9325,-381.754"/>
<polygon fill="#191970" stroke="#191970" points="327.617,-384.8367 335.3583,-377.6033 324.7958,-378.4303 327.617,-384.8367"/>
</g>
<!-- Node45&#45;&gt;Node39 -->
<g id="edge93" class="edge">
<title>Node45&#45;&gt;Node39</title>
<path fill="none" stroke="#191970" d="M300.0457,-873.4956C315.7701,-854.6281 351.1245,-810.7422 375,-770 383.8376,-754.9192 391.9153,-736.7777 397.4568,-723.3342"/>
<polygon fill="#191970" stroke="#191970" points="400.8437,-724.2923 401.3233,-713.7083 394.3481,-721.6831 400.8437,-724.2923"/>
</g>
<!-- Node46 -->
<g id="node45" class="node">
<title>Node46</title>
<g id="a_node45"><a xlink:href="api_2spec_2classification_8h.html" target="_top" xlink:title="ODP classification descriptor. ">
<polygon fill="#ffffff" stroke="#000000" points="422,-812 422,-831 576,-831 576,-812 422,-812"/>
<text text-anchor="middle" x="499" y="-819" font-family="Helvetica,sans-Serif" font-size="10.00" fill="#000000">odp/api/spec/classification.h</text>
</a>
</g>
</g>
<!-- Node45&#45;&gt;Node46 -->
<g id="edge97" class="edge">
<title>Node45&#45;&gt;Node46</title>
<path fill="none" stroke="#191970" d="M324.3438,-873.3906C360.118,-862.7621 417.8747,-845.6025 457.0905,-833.9514"/>
<polygon fill="#191970" stroke="#191970" points="458.2943,-837.245 466.8834,-831.0419 456.3007,-830.5349 458.2943,-837.245"/>
</g>
<!-- Node46&#45;&gt;Node3 -->
<g id="edge98" class="edge">
<title>Node46&#45;&gt;Node3</title>
<path fill="none" stroke="#191970" d="M421.6707,-813.0405C349.1603,-804.1512 246.7109,-788.85 211,-770 149.7387,-737.6632 114,-717.2721 114,-648 114,-648 114,-648 114,-133 114,-86.1475 144.1292,-77.0238 186,-56 243.7858,-26.9851 423.9992,-16.0162 525.2078,-12.0709"/>
<polygon fill="#191970" stroke="#191970" points="525.4866,-15.563 535.3477,-11.6888 525.223,-8.5679 525.4866,-15.563"/>
</g>
<!-- Node46&#45;&gt;Node12 -->
<g id="edge106" class="edge">
<title>Node46&#45;&gt;Node12</title>
<path fill="none" stroke="#191970" d="M548.0124,-811.9971C560.0767,-809.843 572.9819,-807.6941 585,-806 1073.4651,-737.1461 1259.9064,-908.2689 1685,-658 1817.1586,-580.1932 1872,-521.3617 1872,-368 1872,-368 1872,-368 1872,-133 1872,-90.4214 1850.941,-78.8295 1815,-56 1788.4409,-39.1298 1709.9335,-25.8094 1652.2174,-17.9342"/>
<polygon fill="#191970" stroke="#191970" points="1652.4379,-14.4326 1642.0619,-16.575 1651.5092,-21.3708 1652.4379,-14.4326"/>
</g>
<!-- Node46&#45;&gt;Node33 -->
<g id="edge100" class="edge">
<title>Node46&#45;&gt;Node33</title>
<path fill="none" stroke="#191970" d="M530.0606,-811.9502C563.2585,-801.7095 617.4126,-784.9069 664,-770 691.1739,-761.305 696.9794,-755.3732 725,-750 928.3077,-711.0136 1468.7749,-754.346 1652,-658 1687.8921,-639.1267 1715,-632.5518 1715,-592 1715,-592 1715,-592 1715,-536 1715,-501.4432 1732.097,-464.1996 1743.9358,-442.5529"/>
<polygon fill="#191970" stroke="#191970" points="1747.0287,-444.1941 1748.9249,-433.7703 1740.9422,-440.7365 1747.0287,-444.1941"/>
</g>
<!-- Node46&#45;&gt;Node38 -->
<g id="edge99" class="edge">
<title>Node46&#45;&gt;Node38</title>
<path fill="none" stroke="#191970" d="M514.625,-811.8906C530.7698,-801.9616 556.1822,-786.333 574.9023,-774.8201"/>
<polygon fill="#191970" stroke="#191970" points="576.8002,-777.7619 583.4847,-769.5419 573.1331,-771.7992 576.8002,-777.7619"/>
</g>
<!-- Node47 -->
<g id="node46" class="node">
<title>Node47</title>
<g id="a_node46"><a xlink:href="threshold_8h.html" target="_top" xlink:title="ODP threshold API &#45; platform specific header. ">
<polygon fill="#ffffff" stroke="#000000" points="256,-750.5 256,-769.5 366,-769.5 366,-750.5 256,-750.5"/>
<text text-anchor="middle" x="311" y="-757.5" font-family="Helvetica,sans-Serif" font-size="10.00" fill="#000000">odp/api/threshold.h</text>
</a>
</g>
</g>
<!-- Node46&#45;&gt;Node47 -->
<g id="edge101" class="edge">
<title>Node46&#45;&gt;Node47</title>
<path fill="none" stroke="#191970" d="M469.625,-811.8906C437.3414,-801.3298 385.3465,-784.3208 349.7453,-772.6747"/>
<polygon fill="#191970" stroke="#191970" points="350.7613,-769.3246 340.1687,-769.5419 348.5849,-775.9776 350.7613,-769.3246"/>
</g>
<!-- Node48 -->
<g id="node47" class="node">
<title>Node48</title>
<g id="a_node47"><a xlink:href="spec_2threshold_8h.html" target="_top" xlink:title="ODP threshold descriptor. ">
<polygon fill="#ffffff" stroke="#000000" points="346,-302.5 346,-321.5 482,-321.5 482,-302.5 346,-302.5"/>
<text text-anchor="middle" x="414" y="-309.5" font-family="Helvetica,sans-Serif" font-size="10.00" fill="#000000">odp/api/spec/threshold.h</text>
</a>
</g>
</g>
<!-- Node47&#45;&gt;Node48 -->
<g id="edge102" class="edge">
<title>Node47&#45;&gt;Node48</title>
<path fill="none" stroke="#191970" d="M296.9202,-750.4001C273.2399,-732.9894 228,-693.7414 228,-648 228,-648 228,-648 228,-480 228,-424.7386 214.5674,-398.6526 252,-358 265.2257,-343.6366 308.7485,-331.7394 347.3542,-323.6449"/>
<polygon fill="#191970" stroke="#191970" points="348.4601,-326.9916 357.5608,-321.5669 347.0636,-320.1323 348.4601,-326.9916"/>
</g>
<!-- Node48&#45;&gt;Node3 -->
<g id="edge103" class="edge">
<title>Node48&#45;&gt;Node3</title>
<path fill="none" stroke="#191970" d="M405.4419,-302.4284C389.3082,-283.355 356,-238.6334 356,-194.5 356,-194.5 356,-194.5 356,-133 356,-97.154 353.5105,-80.1504 380,-56 401.1051,-36.7586 470.7964,-24.3337 525.3777,-17.308"/>
<polygon fill="#191970" stroke="#191970" points="525.8893,-20.7714 535.3782,-16.0585 525.0214,-13.8254 525.8893,-20.7714"/>
</g>
<!-- Node48&#45;&gt;Node5 -->
<g id="edge104" class="edge">
<title>Node48&#45;&gt;Node5</title>
<path fill="none" stroke="#191970" d="M471.2079,-302.4369C529.8901,-292.6273 621.0845,-277.3829 682.8367,-267.0601"/>
<polygon fill="#191970" stroke="#191970" points="683.5794,-270.4846 692.8655,-265.3837 682.4252,-263.5804 683.5794,-270.4846"/>
</g>
<!-- Node48&#45;&gt;Node12 -->
<g id="edge105" class="edge">
<title>Node48&#45;&gt;Node12</title>
<path fill="none" stroke="#191970" d="M452.9521,-302.4683C541.2086,-280.8536 754.307,-228.5567 826,-210 936.5312,-181.3905 963.9956,-173.5727 1074,-143 1105.1745,-134.3359 1112.7661,-131.4475 1144,-123 1206.4338,-106.1142 1223.9421,-108.3319 1285,-87 1316.7383,-75.9115 1321.9727,-66.2237 1354,-56 1408.6647,-38.55 1472.7817,-26.4438 1519.7417,-19.0472"/>
<polygon fill="#191970" stroke="#191970" points="1520.4428,-22.4805 1529.7912,-17.4948 1519.3741,-15.5626 1520.4428,-22.4805"/>
</g>
<!-- Node50 -->
<g id="node49" class="node">
<title>Node50</title>
<polygon fill="#ffffff" stroke="#bfbfbf" points="805,-806.5 805,-836.5 907,-836.5 907,-806.5 805,-806.5"/>
<text text-anchor="start" x="813" y="-824.5" font-family="Helvetica,sans-Serif" font-size="10.00" fill="#000000">odp/api/abi/traffic</text>
<text text-anchor="middle" x="856" y="-813.5" font-family="Helvetica,sans-Serif" font-size="10.00" fill="#000000">_mngr.h</text>
</g>
<!-- Node49&#45;&gt;Node50 -->
<g id="edge108" class="edge">
<title>Node49&#45;&gt;Node50</title>
<path fill="none" stroke="#191970" d="M681.3438,-873.3906C711.823,-864.3352 758.2589,-850.539 795.5902,-839.4479"/>
<polygon fill="#191970" stroke="#191970" points="796.773,-842.7477 805.3621,-836.5446 794.7794,-836.0376 796.773,-842.7477"/>
</g>
<!-- Node51 -->
<g id="node50" class="node">
<title>Node51</title>
<g id="a_node50"><a xlink:href="api_2spec_2traffic__mngr_8h.html" target="_top" xlink:title="Copyright (c) 2015&#45;2018, Linaro Limited All rights reserved. ">
<polygon fill="#ffffff" stroke="#000000" points="594,-806.5 594,-836.5 704,-836.5 704,-806.5 594,-806.5"/>
<text text-anchor="start" x="602" y="-824.5" font-family="Helvetica,sans-Serif" font-size="10.00" fill="#000000">odp/api/spec/traffic</text>
<text text-anchor="middle" x="649" y="-813.5" font-family="Helvetica,sans-Serif" font-size="10.00" fill="#000000">_mngr.h</text>
</a>
</g>
</g>
<!-- Node49&#45;&gt;Node51 -->
<g id="edge109" class="edge">
<title>Node49&#45;&gt;Node51</title>
<path fill="none" stroke="#191970" d="M649,-873.3906C649,-866.2234 649,-856.0862 649,-846.671"/>
<polygon fill="#191970" stroke="#191970" points="652.5001,-846.5446 649,-836.5446 645.5001,-846.5446 652.5001,-846.5446"/>
</g>
<!-- Node51&#45;&gt;Node3 -->
<g id="edge110" class="edge">
<title>Node51&#45;&gt;Node3</title>
<path fill="none" stroke="#191970" d="M593.9382,-807.6781C590.9225,-807.0733 587.9286,-806.5083 585,-806 510.5768,-793.0822 313.0102,-806.7197 247,-770 186.9442,-736.5925 152,-716.7224 152,-648 152,-648 152,-648 152,-133 152,-56.5621 399.4839,-25.7 524.9138,-14.967"/>
<polygon fill="#191970" stroke="#191970" points="525.5204,-18.4286 535.1947,-14.109 524.9382,-11.4529 525.5204,-18.4286"/>
</g>
<!-- Node51&#45;&gt;Node5 -->
<g id="edge111" class="edge">
<title>Node51&#45;&gt;Node5</title>
<path fill="none" stroke="#191970" d="M594.2244,-806.4591C506.4819,-781.9241 342.2687,-734.0197 323,-714 301.8323,-692.0072 304,-678.5246 304,-648 304,-648 304,-648 304,-592 304,-487.6577 216.9351,-437.0852 285,-358 320.0365,-317.2908 472.8775,-338.4706 524,-322 542.5411,-316.0265 544.7564,-308.8284 563,-302 603.1519,-286.9715 650.0186,-275.416 686.6621,-267.6456"/>
<polygon fill="#191970" stroke="#191970" points="687.6349,-271.0183 696.7123,-265.5546 686.2089,-264.165 687.6349,-271.0183"/>
</g>
<!-- Node51&#45;&gt;Node12 -->
<g id="edge113" class="edge">
<title>Node51&#45;&gt;Node12</title>
<path fill="none" stroke="#191970" d="M704.1279,-815.5059C731.7083,-812.5532 765.6089,-808.9934 796,-806 919.697,-793.8162 1910,-828.2955 1910,-704 1910,-704 1910,-704 1910,-133 1910,-97.154 1913.1749,-79.3765 1886,-56 1851.8802,-26.6493 1729.7082,-15.9867 1652.1928,-12.1407"/>
<polygon fill="#191970" stroke="#191970" points="1652.1875,-8.6366 1642.034,-11.6628 1651.8585,-15.6289 1652.1875,-8.6366"/>
</g>
<!-- Node51&#45;&gt;Node38 -->
<g id="edge112" class="edge">
<title>Node51&#45;&gt;Node38</title>
<path fill="none" stroke="#191970" d="M636.6404,-806.2977C629.6276,-797.672 620.814,-786.8312 613.4786,-777.8087"/>
<polygon fill="#191970" stroke="#191970" points="616.0297,-775.3982 607.0056,-769.8469 610.5982,-779.8141 616.0297,-775.3982"/>
</g>
</g>
</svg>
