<?xml version="1.0" encoding="UTF-8" standalone="no"?>
<!DOCTYPE svg PUBLIC "-//W3C//DTD SVG 1.1//EN"
 "http://www.w3.org/Graphics/SVG/1.1/DTD/svg11.dtd">
<!-- Generated by graphviz version 2.40.1 (20161225.0304)
 -->
<!-- Title: comp.h Pages: 1 -->
<svg width="995pt" height="532pt"
 viewBox="0.00 0.00 994.74 532.00" xmlns="http://www.w3.org/2000/svg" xmlns:xlink="http://www.w3.org/1999/xlink">
<g id="graph0" class="graph" transform="scale(1 1) rotate(0) translate(4 528)">
<title>comp.h</title>
<polygon fill="#ffffff" stroke="transparent" points="-4,4 -4,-528 990.7405,-528 990.7405,4 -4,4"/>
<!-- Node0 -->
<g id="node1" class="node">
<title>Node0</title>
<polygon fill="#bfbfbf" stroke="#000000" points="153.5,-504.5 153.5,-523.5 206.5,-523.5 206.5,-504.5 153.5,-504.5"/>
<text text-anchor="middle" x="180" y="-511.5" font-family="Helvetica,sans-Serif" font-size="10.00" fill="#000000">comp.h</text>
</g>
<!-- Node1 -->
<g id="node2" class="node">
<title>Node1</title>
<polygon fill="#ffffff" stroke="#bfbfbf" points="0,-448.5 0,-467.5 110,-467.5 110,-448.5 0,-448.5"/>
<text text-anchor="middle" x="55" y="-455.5" font-family="Helvetica,sans-Serif" font-size="10.00" fill="#000000">odp/api/abi/comp.h</text>
</g>
<!-- Node0&#45;&gt;Node1 -->
<g id="edge1" class="edge">
<title>Node0&#45;&gt;Node1</title>
<path fill="none" stroke="#191970" d="M158.5117,-504.3733C138.356,-495.3435 108.012,-481.7494 85.382,-471.6111"/>
<polygon fill="#191970" stroke="#191970" points="86.7649,-468.3955 76.2079,-467.5011 83.9029,-474.7838 86.7649,-468.3955"/>
</g>
<!-- Node2 -->
<g id="node3" class="node">
<title>Node2</title>
<polygon fill="#ffffff" stroke="#bfbfbf" points="60,-336.5 60,-355.5 170,-355.5 170,-336.5 60,-336.5"/>
<text text-anchor="middle" x="115" y="-343.5" font-family="Helvetica,sans-Serif" font-size="10.00" fill="#000000">odp/api/abi/event.h</text>
</g>
<!-- Node0&#45;&gt;Node2 -->
<g id="edge2" class="edge">
<title>Node0&#45;&gt;Node2</title>
<path fill="none" stroke="#191970" d="M174.6821,-504.3052C169.7543,-495.1146 162.3934,-480.8423 157,-468 142.1071,-432.5379 128.2979,-389.763 120.8184,-365.4378"/>
<polygon fill="#191970" stroke="#191970" points="124.1014,-364.2033 117.8461,-355.6522 117.4036,-366.2377 124.1014,-364.2033"/>
</g>
<!-- Node3 -->
<g id="node4" class="node">
<title>Node3</title>
<polygon fill="#ffffff" stroke="#bfbfbf" points="166.5,-448.5 166.5,-467.5 279.5,-467.5 279.5,-448.5 166.5,-448.5"/>
<text text-anchor="middle" x="223" y="-455.5" font-family="Helvetica,sans-Serif" font-size="10.00" fill="#000000">odp/api/abi/queue.h</text>
</g>
<!-- Node0&#45;&gt;Node3 -->
<g id="edge3" class="edge">
<title>Node0&#45;&gt;Node3</title>
<path fill="none" stroke="#191970" d="M187.49,-504.2455C193.5326,-496.3761 202.1903,-485.101 209.4441,-475.6542"/>
<polygon fill="#191970" stroke="#191970" points="212.2815,-477.7058 215.5958,-467.6427 206.7295,-473.4426 212.2815,-477.7058"/>
</g>
<!-- Node4 -->
<g id="node5" class="node">
<title>Node4</title>
<g id="a_node5"><a xlink:href="spec_2comp_8h.html" target="_top" xlink:title="ODP Compression. ">
<polygon fill="#ffffff" stroke="#000000" points="489.5,-448.5 489.5,-467.5 606.5,-467.5 606.5,-448.5 489.5,-448.5"/>
<text text-anchor="middle" x="548" y="-455.5" font-family="Helvetica,sans-Serif" font-size="10.00" fill="#000000">odp/api/spec/comp.h</text>
</a>
</g>
</g>
<!-- Node0&#45;&gt;Node4 -->
<g id="edge4" class="edge">
<title>Node0&#45;&gt;Node4</title>
<path fill="none" stroke="#191970" d="M206.7621,-509.9275C263.4445,-501.3019 397.1301,-480.9585 479.3397,-468.4483"/>
<polygon fill="#191970" stroke="#191970" points="479.9888,-471.8899 489.3484,-466.9252 478.9357,-464.9696 479.9888,-471.8899"/>
</g>
<!-- Node5 -->
<g id="node6" class="node">
<title>Node5</title>
<polygon fill="#ffffff" stroke="#bfbfbf" points="722.5,-.5 722.5,-19.5 843.5,-19.5 843.5,-.5 722.5,-.5"/>
<text text-anchor="middle" x="783" y="-7.5" font-family="Helvetica,sans-Serif" font-size="10.00" fill="#000000">odp/visibility_begin.h</text>
</g>
<!-- Node4&#45;&gt;Node5 -->
<g id="edge5" class="edge">
<title>Node4&#45;&gt;Node5</title>
<path fill="none" stroke="#191970" d="M606.6161,-455.242C725.9672,-448.022 986,-423.4091 986,-346 986,-346 986,-346 986,-122 986,-91.4754 988.962,-77.1996 967,-56 950.6464,-40.214 898.4178,-28.0761 853.7646,-20.2426"/>
<polygon fill="#191970" stroke="#191970" points="854.2282,-16.7712 843.782,-18.5394 853.0509,-23.6715 854.2282,-16.7712"/>
</g>
<!-- Node6 -->
<g id="node7" class="node">
<title>Node6</title>
<g id="a_node7"><a xlink:href="support_8h.html" target="_top" xlink:title="ODP support API &#45; platform specific header. ">
<polygon fill="#ffffff" stroke="#000000" points="736.5,-392.5 736.5,-411.5 837.5,-411.5 837.5,-392.5 736.5,-392.5"/>
<text text-anchor="middle" x="787" y="-399.5" font-family="Helvetica,sans-Serif" font-size="10.00" fill="#000000">odp/api/support.h</text>
</a>
</g>
</g>
<!-- Node4&#45;&gt;Node6 -->
<g id="edge6" class="edge">
<title>Node4&#45;&gt;Node6</title>
<path fill="none" stroke="#191970" d="M588.814,-448.4369C629.6311,-438.8731 692.4959,-424.1432 736.4472,-413.845"/>
<polygon fill="#191970" stroke="#191970" points="737.4165,-417.2128 746.3543,-411.5237 735.8195,-410.3973 737.4165,-417.2128"/>
</g>
<!-- Node8 -->
<g id="node9" class="node">
<title>Node8</title>
<polygon fill="#ffffff" stroke="#bfbfbf" points="370,-.5 370,-19.5 482,-19.5 482,-.5 370,-.5"/>
<text text-anchor="middle" x="426" y="-7.5" font-family="Helvetica,sans-Serif" font-size="10.00" fill="#000000">odp/visibility_end.h</text>
</g>
<!-- Node4&#45;&gt;Node8 -->
<g id="edge36" class="edge">
<title>Node4&#45;&gt;Node8</title>
<path fill="none" stroke="#191970" d="M489.4179,-451.4908C389.7814,-438.7756 198,-406.4497 198,-346 198,-346 198,-346 198,-122 198,-81.73 314.0314,-41.9177 380.5454,-22.4038"/>
<polygon fill="#191970" stroke="#191970" points="381.7407,-25.7017 390.375,-19.5618 379.7963,-18.9771 381.7407,-25.7017"/>
</g>
<!-- Node9 -->
<g id="node10" class="node">
<title>Node9</title>
<g id="a_node10"><a xlink:href="packet_8h.html" target="_top" xlink:title="ODP packet descriptor. ">
<polygon fill="#ffffff" stroke="#000000" points="499,-392.5 499,-411.5 597,-411.5 597,-392.5 499,-392.5"/>
<text text-anchor="middle" x="548" y="-399.5" font-family="Helvetica,sans-Serif" font-size="10.00" fill="#000000">odp/api/packet.h</text>
</a>
</g>
</g>
<!-- Node4&#45;&gt;Node9 -->
<g id="edge10" class="edge">
<title>Node4&#45;&gt;Node9</title>
<path fill="none" stroke="#191970" d="M548,-448.2455C548,-440.9382 548,-430.6944 548,-421.7046"/>
<polygon fill="#191970" stroke="#191970" points="551.5001,-421.6426 548,-411.6427 544.5001,-421.6427 551.5001,-421.6426"/>
</g>
<!-- Node7 -->
<g id="node8" class="node">
<title>Node7</title>
<g id="a_node8"><a xlink:href="spec_2support_8h.html" target="_top" xlink:title="ODP support API. ">
<polygon fill="#ffffff" stroke="#000000" points="830.5,-56.5 830.5,-75.5 957.5,-75.5 957.5,-56.5 830.5,-56.5"/>
<text text-anchor="middle" x="894" y="-63.5" font-family="Helvetica,sans-Serif" font-size="10.00" fill="#000000">odp/api/spec/support.h</text>
</a>
</g>
</g>
<!-- Node6&#45;&gt;Node7 -->
<g id="edge7" class="edge">
<title>Node6&#45;&gt;Node7</title>
<path fill="none" stroke="#191970" d="M831.1266,-392.4863C867.4997,-383.8061 915.2602,-370.2005 929,-356 950.2254,-334.0629 948,-320.5246 948,-290 948,-290 948,-290 948,-178 948,-141.7347 924.7441,-104.8332 908.7557,-83.7487"/>
<polygon fill="#191970" stroke="#191970" points="911.3753,-81.418 902.4375,-75.7289 905.8767,-85.75 911.3753,-81.418"/>
</g>
<!-- Node7&#45;&gt;Node5 -->
<g id="edge8" class="edge">
<title>Node7&#45;&gt;Node5</title>
<path fill="none" stroke="#191970" d="M874.9184,-56.3733C857.2598,-47.4644 830.7947,-34.1127 810.7902,-24.0203"/>
<polygon fill="#191970" stroke="#191970" points="812.3372,-20.8806 801.8326,-19.5011 809.1842,-27.1303 812.3372,-20.8806"/>
</g>
<!-- Node7&#45;&gt;Node8 -->
<g id="edge9" class="edge">
<title>Node7&#45;&gt;Node8</title>
<path fill="none" stroke="#191970" d="M830.3964,-58.3893C741.8382,-47.7926 582.164,-28.6863 492.2262,-17.9245"/>
<polygon fill="#191970" stroke="#191970" points="492.4915,-14.4314 482.1465,-16.7184 491.6598,-21.3818 492.4915,-14.4314"/>
</g>
<!-- Node9&#45;&gt;Node2 -->
<g id="edge22" class="edge">
<title>Node9&#45;&gt;Node2</title>
<path fill="none" stroke="#191970" d="M498.751,-395.6306C420.5007,-385.5105 267.7195,-365.7513 180.3858,-354.4564"/>
<polygon fill="#191970" stroke="#191970" points="180.695,-350.9673 170.3286,-353.1557 179.7971,-357.9095 180.695,-350.9673"/>
</g>
<!-- Node10 -->
<g id="node11" class="node">
<title>Node10</title>
<g id="a_node11"><a xlink:href="std__types_8h.html" target="_top" xlink:title="Standard C language types and definitions for ODP. ">
<polygon fill="#ffffff" stroke="#000000" points="529,-224.5 529,-243.5 641,-243.5 641,-224.5 529,-224.5"/>
<text text-anchor="middle" x="585" y="-231.5" font-family="Helvetica,sans-Serif" font-size="10.00" fill="#000000">odp/api/std_types.h</text>
</a>
</g>
</g>
<!-- Node9&#45;&gt;Node10 -->
<g id="edge11" class="edge">
<title>Node9&#45;&gt;Node10</title>
<path fill="none" stroke="#191970" d="M569.1216,-392.4622C583.2503,-384.8191 600.7172,-372.6199 609,-356 625.8405,-322.2086 608.467,-277.6435 595.7696,-252.7993"/>
<polygon fill="#191970" stroke="#191970" points="598.7111,-250.8796 590.8893,-243.7332 592.5474,-254.1975 598.7111,-250.8796"/>
</g>
<!-- Node17 -->
<g id="node18" class="node">
<title>Node17</title>
<polygon fill="#ffffff" stroke="#bfbfbf" points="656,-336.5 656,-355.5 786,-355.5 786,-336.5 656,-336.5"/>
<text text-anchor="middle" x="721" y="-343.5" font-family="Helvetica,sans-Serif" font-size="10.00" fill="#000000">odp/api/abi/packet_io.h</text>
</g>
<!-- Node9&#45;&gt;Node17 -->
<g id="edge23" class="edge">
<title>Node9&#45;&gt;Node17</title>
<path fill="none" stroke="#191970" d="M577.7398,-392.3733C606.507,-383.0613 650.27,-368.8953 681.8556,-358.671"/>
<polygon fill="#191970" stroke="#191970" points="683.2122,-361.9107 691.6483,-355.5011 681.0564,-355.251 683.2122,-361.9107"/>
</g>
<!-- Node18 -->
<g id="node19" class="node">
<title>Node18</title>
<polygon fill="#ffffff" stroke="#bfbfbf" points="804,-336.5 804,-355.5 920,-355.5 920,-336.5 804,-336.5"/>
<text text-anchor="middle" x="862" y="-343.5" font-family="Helvetica,sans-Serif" font-size="10.00" fill="#000000">odp/api/abi/packet.h</text>
</g>
<!-- Node9&#45;&gt;Node18 -->
<g id="edge24" class="edge">
<title>Node9&#45;&gt;Node18</title>
<path fill="none" stroke="#191970" d="M597.0625,-393.25C651.359,-383.5665 739.0382,-367.9295 798.5268,-357.3201"/>
<polygon fill="#191970" stroke="#191970" points="799.3262,-360.7328 808.5563,-355.5314 798.0971,-353.8415 799.3262,-360.7328"/>
</g>
<!-- Node19 -->
<g id="node20" class="node">
<title>Node19</title>
<polygon fill="#ffffff" stroke="#bfbfbf" points="368,-336.5 368,-355.5 478,-355.5 478,-336.5 368,-336.5"/>
<text text-anchor="middle" x="423" y="-343.5" font-family="Helvetica,sans-Serif" font-size="10.00" fill="#000000">odp/api/abi/buffer.h</text>
</g>
<!-- Node9&#45;&gt;Node19 -->
<g id="edge25" class="edge">
<title>Node9&#45;&gt;Node19</title>
<path fill="none" stroke="#191970" d="M526.5117,-392.3733C506.356,-383.3435 476.012,-369.7494 453.382,-359.6111"/>
<polygon fill="#191970" stroke="#191970" points="454.7649,-356.3955 444.2079,-355.5011 451.9029,-362.7838 454.7649,-356.3955"/>
</g>
<!-- Node20 -->
<g id="node21" class="node">
<title>Node20</title>
<polygon fill="#ffffff" stroke="#bfbfbf" points="496,-336.5 496,-355.5 600,-355.5 600,-336.5 496,-336.5"/>
<text text-anchor="middle" x="548" y="-343.5" font-family="Helvetica,sans-Serif" font-size="10.00" fill="#000000">odp/api/abi/pool.h</text>
</g>
<!-- Node9&#45;&gt;Node20 -->
<g id="edge26" class="edge">
<title>Node9&#45;&gt;Node20</title>
<path fill="none" stroke="#191970" d="M548,-392.2455C548,-384.9382 548,-374.6944 548,-365.7046"/>
<polygon fill="#191970" stroke="#191970" points="551.5001,-365.6426 548,-355.6427 544.5001,-365.6427 551.5001,-365.6426"/>
</g>
<!-- Node21 -->
<g id="node22" class="node">
<title>Node21</title>
<g id="a_node22"><a xlink:href="spec_2packet_8h.html" target="_top" xlink:title="ODP packet descriptor. ">
<polygon fill="#ffffff" stroke="#000000" points="226.5,-336.5 226.5,-355.5 349.5,-355.5 349.5,-336.5 226.5,-336.5"/>
<text text-anchor="middle" x="288" y="-343.5" font-family="Helvetica,sans-Serif" font-size="10.00" fill="#000000">odp/api/spec/packet.h</text>
</a>
</g>
</g>
<!-- Node9&#45;&gt;Node21 -->
<g id="edge27" class="edge">
<title>Node9&#45;&gt;Node21</title>
<path fill="none" stroke="#191970" d="M503.5998,-392.4369C458.9159,-382.8127 389.943,-367.957 342.0912,-357.6504"/>
<polygon fill="#191970" stroke="#191970" points="342.7298,-354.2078 332.217,-355.5237 341.2559,-361.0508 342.7298,-354.2078"/>
</g>
<!-- Node11 -->
<g id="node12" class="node">
<title>Node11</title>
<polygon fill="#ffffff" stroke="#bfbfbf" points="629,-168.5 629,-187.5 759,-187.5 759,-168.5 629,-168.5"/>
<text text-anchor="middle" x="694" y="-175.5" font-family="Helvetica,sans-Serif" font-size="10.00" fill="#000000">odp/api/abi/std_types.h</text>
</g>
<!-- Node10&#45;&gt;Node11 -->
<g id="edge12" class="edge">
<title>Node10&#45;&gt;Node11</title>
<path fill="none" stroke="#191970" d="M603.9864,-224.2455C621.1792,-215.4125 646.7238,-202.2887 666.2132,-192.2758"/>
<polygon fill="#191970" stroke="#191970" points="667.9359,-195.3257 675.2312,-187.6427 664.737,-189.0993 667.9359,-195.3257"/>
</g>
<!-- Node12 -->
<g id="node13" class="node">
<title>Node12</title>
<g id="a_node13"><a xlink:href="spec_2std__types_8h.html" target="_top" xlink:title="Standard C language types and definitions for ODP. ">
<polygon fill="#ffffff" stroke="#000000" points="473.5,-168.5 473.5,-187.5 610.5,-187.5 610.5,-168.5 473.5,-168.5"/>
<text text-anchor="middle" x="542" y="-175.5" font-family="Helvetica,sans-Serif" font-size="10.00" fill="#000000">odp/api/spec/std_types.h</text>
</a>
</g>
</g>
<!-- Node10&#45;&gt;Node12 -->
<g id="edge13" class="edge">
<title>Node10&#45;&gt;Node12</title>
<path fill="none" stroke="#191970" d="M577.51,-224.2455C571.4674,-216.3761 562.8097,-205.101 555.5559,-195.6542"/>
<polygon fill="#191970" stroke="#191970" points="558.2705,-193.4426 549.4042,-187.6427 552.7185,-197.7058 558.2705,-193.4426"/>
</g>
<!-- Node12&#45;&gt;Node5 -->
<g id="edge14" class="edge">
<title>Node12&#45;&gt;Node5</title>
<path fill="none" stroke="#191970" d="M580.4322,-168.4795C607.8131,-160.811 644.9387,-148.5737 675,-132 709.8903,-112.7639 719.0531,-106.2344 745,-76 757.3335,-61.6285 767.7615,-42.6776 774.5553,-28.7708"/>
<polygon fill="#191970" stroke="#191970" points="777.7451,-30.2122 778.8352,-19.6735 771.4111,-27.2322 777.7451,-30.2122"/>
</g>
<!-- Node12&#45;&gt;Node8 -->
<g id="edge21" class="edge">
<title>Node12&#45;&gt;Node8</title>
<path fill="none" stroke="#191970" d="M531.2248,-168.4309C521.5896,-159.5547 507.4222,-145.6889 497,-132 471.0355,-97.8973 447.4082,-53.4463 435.0442,-28.7056"/>
<polygon fill="#191970" stroke="#191970" points="438.1572,-27.1046 430.5985,-19.6806 431.8777,-30.1979 438.1572,-27.1046"/>
</g>
<!-- Node13 -->
<g id="node14" class="node">
<title>Node13</title>
<polygon fill="#ffffff" stroke="#bfbfbf" points="505.5,-112.5 505.5,-131.5 558.5,-131.5 558.5,-112.5 505.5,-112.5"/>
<text text-anchor="middle" x="532" y="-119.5" font-family="Helvetica,sans-Serif" font-size="10.00" fill="#000000">stdint.h</text>
</g>
<!-- Node12&#45;&gt;Node13 -->
<g id="edge15" class="edge">
<title>Node12&#45;&gt;Node13</title>
<path fill="none" stroke="#191970" d="M540.2581,-168.2455C538.9533,-160.9382 537.124,-150.6944 535.5187,-141.7046"/>
<polygon fill="#191970" stroke="#191970" points="538.9254,-140.8717 533.7219,-131.6427 532.0344,-142.1022 538.9254,-140.8717"/>
</g>
<!-- Node14 -->
<g id="node15" class="node">
<title>Node14</title>
<g id="a_node15"><a xlink:href="align_8h.html" target="_top" xlink:title="ODP alignments. ">
<polygon fill="#ffffff" stroke="#000000" points="576.5,-112.5 576.5,-131.5 665.5,-131.5 665.5,-112.5 576.5,-112.5"/>
<text text-anchor="middle" x="621" y="-119.5" font-family="Helvetica,sans-Serif" font-size="10.00" fill="#000000">odp/api/align.h</text>
</a>
</g>
</g>
<!-- Node12&#45;&gt;Node14 -->
<g id="edge16" class="edge">
<title>Node12&#45;&gt;Node14</title>
<path fill="none" stroke="#191970" d="M555.7607,-168.2455C567.6552,-159.814 585.065,-147.4729 598.9085,-137.6598"/>
<polygon fill="#191970" stroke="#191970" points="601.2628,-140.2811 607.3969,-131.6427 597.2146,-134.5704 601.2628,-140.2811"/>
</g>
<!-- Node15 -->
<g id="node16" class="node">
<title>Node15</title>
<polygon fill="#ffffff" stroke="#bfbfbf" points="496.5,-56.5 496.5,-75.5 603.5,-75.5 603.5,-56.5 496.5,-56.5"/>
<text text-anchor="middle" x="550" y="-63.5" font-family="Helvetica,sans-Serif" font-size="10.00" fill="#000000">odp/api/abi/align.h</text>
</g>
<!-- Node14&#45;&gt;Node15 -->
<g id="edge17" class="edge">
<title>Node14&#45;&gt;Node15</title>
<path fill="none" stroke="#191970" d="M608.6327,-112.2455C598.0446,-103.8943 582.5936,-91.7076 570.2107,-81.9408"/>
<polygon fill="#191970" stroke="#191970" points="572.2447,-79.0875 562.2255,-75.6427 567.9097,-84.5837 572.2447,-79.0875"/>
</g>
<!-- Node16 -->
<g id="node17" class="node">
<title>Node16</title>
<g id="a_node17"><a xlink:href="spec_2align_8h.html" target="_top" xlink:title="ODP alignments. ">
<polygon fill="#ffffff" stroke="#000000" points="622,-56.5 622,-75.5 736,-75.5 736,-56.5 622,-56.5"/>
<text text-anchor="middle" x="679" y="-63.5" font-family="Helvetica,sans-Serif" font-size="10.00" fill="#000000">odp/api/spec/align.h</text>
</a>
</g>
</g>
<!-- Node14&#45;&gt;Node16 -->
<g id="edge18" class="edge">
<title>Node14&#45;&gt;Node16</title>
<path fill="none" stroke="#191970" d="M631.1028,-112.2455C639.5028,-104.1352 651.6494,-92.4075 661.6084,-82.7919"/>
<polygon fill="#191970" stroke="#191970" points="664.25,-85.1066 669.0129,-75.6427 659.3878,-80.0707 664.25,-85.1066"/>
</g>
<!-- Node16&#45;&gt;Node5 -->
<g id="edge19" class="edge">
<title>Node16&#45;&gt;Node5</title>
<path fill="none" stroke="#191970" d="M697.1154,-56.2455C713.445,-47.4527 737.671,-34.4079 756.2339,-24.4125"/>
<polygon fill="#191970" stroke="#191970" points="757.9468,-27.4654 765.0922,-19.6427 754.6281,-21.3021 757.9468,-27.4654"/>
</g>
<!-- Node16&#45;&gt;Node8 -->
<g id="edge20" class="edge">
<title>Node16&#45;&gt;Node8</title>
<path fill="none" stroke="#191970" d="M635.7952,-56.4369C592.4053,-46.8328 525.4791,-32.0191 478.9274,-21.7152"/>
<polygon fill="#191970" stroke="#191970" points="479.5467,-18.2676 469.0266,-19.5237 478.0338,-25.1022 479.5467,-18.2676"/>
</g>
<!-- Node21&#45;&gt;Node5 -->
<g id="edge28" class="edge">
<title>Node21&#45;&gt;Node5</title>
<path fill="none" stroke="#191970" d="M345.4662,-336.4826C479.5927,-313.8815 802,-257.1464 802,-234 802,-234 802,-234 802,-122 802,-89.2688 794.0148,-51.9052 788.3978,-29.6716"/>
<polygon fill="#191970" stroke="#191970" points="791.7289,-28.5763 785.8035,-19.7934 784.9585,-30.3545 791.7289,-28.5763"/>
</g>
<!-- Node21&#45;&gt;Node8 -->
<g id="edge35" class="edge">
<title>Node21&#45;&gt;Node8</title>
<path fill="none" stroke="#191970" d="M285.0489,-336.2168C279.4856,-316.8801 268,-272.3189 268,-234 268,-234 268,-234 268,-122 268,-68.0084 330.1656,-37.6835 376.509,-22.5781"/>
<polygon fill="#191970" stroke="#191970" points="377.6224,-25.8972 386.1299,-19.5827 375.5415,-19.2136 377.6224,-25.8972"/>
</g>
<!-- Node22 -->
<g id="node23" class="node">
<title>Node22</title>
<g id="a_node23"><a xlink:href="time_8h.html" target="_top" xlink:title="ODP time. ">
<polygon fill="#ffffff" stroke="#000000" points="345.5,-280.5 345.5,-299.5 432.5,-299.5 432.5,-280.5 345.5,-280.5"/>
<text text-anchor="middle" x="389" y="-287.5" font-family="Helvetica,sans-Serif" font-size="10.00" fill="#000000">odp/api/time.h</text>
</a>
</g>
</g>
<!-- Node21&#45;&gt;Node22 -->
<g id="edge29" class="edge">
<title>Node21&#45;&gt;Node22</title>
<path fill="none" stroke="#191970" d="M305.5929,-336.2455C321.379,-327.4928 344.7639,-314.527 362.7587,-304.5496"/>
<polygon fill="#191970" stroke="#191970" points="364.5603,-307.5528 371.6087,-299.6427 361.1659,-301.4308 364.5603,-307.5528"/>
</g>
<!-- Node22&#45;&gt;Node10 -->
<g id="edge30" class="edge">
<title>Node22&#45;&gt;Node10</title>
<path fill="none" stroke="#191970" d="M422.6936,-280.3733C455.7087,-270.9404 506.1573,-256.5265 542.0386,-246.2747"/>
<polygon fill="#191970" stroke="#191970" points="543.0924,-249.6137 551.7461,-243.5011 541.1693,-242.8831 543.0924,-249.6137"/>
</g>
<!-- Node23 -->
<g id="node24" class="node">
<title>Node23</title>
<polygon fill="#ffffff" stroke="#bfbfbf" points="296.5,-224.5 296.5,-243.5 401.5,-243.5 401.5,-224.5 296.5,-224.5"/>
<text text-anchor="middle" x="349" y="-231.5" font-family="Helvetica,sans-Serif" font-size="10.00" fill="#000000">odp/api/abi/time.h</text>
</g>
<!-- Node22&#45;&gt;Node23 -->
<g id="edge31" class="edge">
<title>Node22&#45;&gt;Node23</title>
<path fill="none" stroke="#191970" d="M382.0325,-280.2455C376.4689,-272.4564 368.522,-261.3308 361.8171,-251.9439"/>
<polygon fill="#191970" stroke="#191970" points="364.5481,-249.7457 355.8876,-243.6427 358.852,-253.8144 364.5481,-249.7457"/>
</g>
<!-- Node24 -->
<g id="node25" class="node">
<title>Node24</title>
<g id="a_node25"><a xlink:href="spec_2time_8h.html" target="_top" xlink:title="ODP time. ">
<polygon fill="#ffffff" stroke="#000000" points="326.5,-56.5 326.5,-75.5 439.5,-75.5 439.5,-56.5 326.5,-56.5"/>
<text text-anchor="middle" x="383" y="-63.5" font-family="Helvetica,sans-Serif" font-size="10.00" fill="#000000">odp/api/spec/time.h</text>
</a>
</g>
</g>
<!-- Node22&#45;&gt;Node24 -->
<g id="edge32" class="edge">
<title>Node22&#45;&gt;Node24</title>
<path fill="none" stroke="#191970" d="M394.9765,-280.2032C400.1112,-271.1737 407.1271,-257.2108 410,-244 422.4121,-186.9239 402.3155,-118.3255 390.5576,-85.4412"/>
<polygon fill="#191970" stroke="#191970" points="393.712,-83.8818 386.9488,-75.7265 387.1502,-86.3194 393.712,-83.8818"/>
</g>
<!-- Node24&#45;&gt;Node5 -->
<g id="edge33" class="edge">
<title>Node24&#45;&gt;Node5</title>
<path fill="none" stroke="#191970" d="M439.8854,-58.036C511.5137,-48.0081 634.5718,-30.78 712.2097,-19.9106"/>
<polygon fill="#191970" stroke="#191970" points="712.9655,-23.3391 722.3836,-18.4863 711.9949,-16.4067 712.9655,-23.3391"/>
</g>
<!-- Node24&#45;&gt;Node8 -->
<g id="edge34" class="edge">
<title>Node24&#45;&gt;Node8</title>
<path fill="none" stroke="#191970" d="M390.49,-56.2455C396.5326,-48.3761 405.1903,-37.101 412.4441,-27.6542"/>
<polygon fill="#191970" stroke="#191970" points="415.2815,-29.7058 418.5958,-19.6427 409.7295,-25.4426 415.2815,-29.7058"/>
</g>
</g>
</svg>
