<?xml version="1.0" encoding="UTF-8" standalone="no"?>
<!DOCTYPE svg PUBLIC "-//W3C//DTD SVG 1.1//EN"
 "http://www.w3.org/Graphics/SVG/1.1/DTD/svg11.dtd">
<!-- Generated by graphviz version 2.40.1 (20161225.0304)
 -->
<!-- Title: event.h Pages: 1 -->
<svg width="1006pt" height="532pt"
 viewBox="0.00 0.00 1006.00 532.00" xmlns="http://www.w3.org/2000/svg" xmlns:xlink="http://www.w3.org/1999/xlink">
<g id="graph0" class="graph" transform="scale(1 1) rotate(0) translate(4 528)">
<title>event.h</title>
<polygon fill="#ffffff" stroke="transparent" points="-4,4 -4,-528 1002,-528 1002,4 -4,4"/>
<!-- Node0 -->
<g id="node1" class="node">
<title>Node0</title>
<polygon fill="#bfbfbf" stroke="#000000" points="94.5,-504.5 94.5,-523.5 147.5,-523.5 147.5,-504.5 94.5,-504.5"/>
<text text-anchor="middle" x="121" y="-511.5" font-family="Helvetica,sans-Serif" font-size="10.00" fill="#000000">event.h</text>
</g>
<!-- Node1 -->
<g id="node2" class="node">
<title>Node1</title>
<polygon fill="#ffffff" stroke="#bfbfbf" points="0,-336.5 0,-355.5 110,-355.5 110,-336.5 0,-336.5"/>
<text text-anchor="middle" x="55" y="-343.5" font-family="Helvetica,sans-Serif" font-size="10.00" fill="#000000">odp/api/abi/event.h</text>
</g>
<!-- Node0&#45;&gt;Node1 -->
<g id="edge1" class="edge">
<title>Node0&#45;&gt;Node1</title>
<path fill="none" stroke="#191970" d="M117.2625,-504.4862C106.7391,-477.6994 76.7079,-401.2565 62.5542,-365.2289"/>
<polygon fill="#191970" stroke="#191970" points="65.7752,-363.8556 58.861,-355.8279 59.2599,-366.4152 65.7752,-363.8556"/>
</g>
<!-- Node2 -->
<g id="node3" class="node">
<title>Node2</title>
<g id="a_node3"><a xlink:href="spec_2event_8h.html" target="_top" xlink:title="ODP event. ">
<polygon fill="#ffffff" stroke="#000000" points="198,-448.5 198,-467.5 316,-467.5 316,-448.5 198,-448.5"/>
<text text-anchor="middle" x="257" y="-455.5" font-family="Helvetica,sans-Serif" font-size="10.00" fill="#000000">odp/api/spec/event.h</text>
</a>
</g>
</g>
<!-- Node0&#45;&gt;Node2 -->
<g id="edge2" class="edge">
<title>Node0&#45;&gt;Node2</title>
<path fill="none" stroke="#191970" d="M144.3792,-504.3733C166.5045,-495.2629 199.9134,-481.5062 224.6019,-471.3404"/>
<polygon fill="#191970" stroke="#191970" points="226.0117,-474.5451 233.9258,-467.5011 223.3464,-468.0723 226.0117,-474.5451"/>
</g>
<!-- Node3 -->
<g id="node4" class="node">
<title>Node3</title>
<polygon fill="#ffffff" stroke="#bfbfbf" points="814.5,-.5 814.5,-19.5 935.5,-19.5 935.5,-.5 814.5,-.5"/>
<text text-anchor="middle" x="875" y="-7.5" font-family="Helvetica,sans-Serif" font-size="10.00" fill="#000000">odp/visibility_begin.h</text>
</g>
<!-- Node2&#45;&gt;Node3 -->
<g id="edge3" class="edge">
<title>Node2&#45;&gt;Node3</title>
<path fill="none" stroke="#191970" d="M316.0751,-455.2757C491.625,-446.4007 998,-414.8347 998,-346 998,-346 998,-346 998,-122 998,-73.8817 945.9004,-40.9564 909.5167,-23.8297"/>
<polygon fill="#191970" stroke="#191970" points="910.742,-20.5428 900.1877,-19.6172 907.8612,-26.9225 910.742,-20.5428"/>
</g>
<!-- Node4 -->
<g id="node5" class="node">
<title>Node4</title>
<g id="a_node5"><a xlink:href="packet_8h.html" target="_top" xlink:title="ODP packet descriptor. ">
<polygon fill="#ffffff" stroke="#000000" points="366,-392.5 366,-411.5 464,-411.5 464,-392.5 366,-392.5"/>
<text text-anchor="middle" x="415" y="-399.5" font-family="Helvetica,sans-Serif" font-size="10.00" fill="#000000">odp/api/packet.h</text>
</a>
</g>
</g>
<!-- Node2&#45;&gt;Node4 -->
<g id="edge4" class="edge">
<title>Node2&#45;&gt;Node4</title>
<path fill="none" stroke="#191970" d="M284.1612,-448.3733C310.2067,-439.1419 349.7116,-425.1402 378.4979,-414.9375"/>
<polygon fill="#191970" stroke="#191970" points="379.937,-418.1408 388.1933,-411.5011 377.5985,-411.5429 379.937,-418.1408"/>
</g>
<!-- Node12 -->
<g id="node13" class="node">
<title>Node12</title>
<polygon fill="#ffffff" stroke="#bfbfbf" points="438,-.5 438,-19.5 550,-19.5 550,-.5 438,-.5"/>
<text text-anchor="middle" x="494" y="-7.5" font-family="Helvetica,sans-Serif" font-size="10.00" fill="#000000">odp/visibility_end.h</text>
</g>
<!-- Node2&#45;&gt;Node12 -->
<g id="edge30" class="edge">
<title>Node2&#45;&gt;Node12</title>
<path fill="none" stroke="#191970" d="M233.2046,-448.4085C198.4774,-432.6512 138,-397.777 138,-346 138,-346 138,-346 138,-122 138,-61.8825 325.0631,-30.0702 427.9909,-17.1163"/>
<polygon fill="#191970" stroke="#191970" points="428.4867,-20.5818 437.9834,-15.8846 427.6303,-13.6344 428.4867,-20.5818"/>
</g>
<!-- Node4&#45;&gt;Node1 -->
<g id="edge16" class="edge">
<title>Node4&#45;&gt;Node1</title>
<path fill="none" stroke="#191970" d="M365.6984,-394.3309C302.0094,-384.4237 190.9566,-367.1488 120.3064,-356.1588"/>
<polygon fill="#191970" stroke="#191970" points="120.6054,-352.6633 110.1862,-354.5845 119.5294,-359.5801 120.6054,-352.6633"/>
</g>
<!-- Node5 -->
<g id="node6" class="node">
<title>Node5</title>
<g id="a_node6"><a xlink:href="std__types_8h.html" target="_top" xlink:title="Standard C language types and definitions for ODP. ">
<polygon fill="#ffffff" stroke="#000000" points="586,-224.5 586,-243.5 698,-243.5 698,-224.5 586,-224.5"/>
<text text-anchor="middle" x="642" y="-231.5" font-family="Helvetica,sans-Serif" font-size="10.00" fill="#000000">odp/api/std_types.h</text>
</a>
</g>
</g>
<!-- Node4&#45;&gt;Node5 -->
<g id="edge5" class="edge">
<title>Node4&#45;&gt;Node5</title>
<path fill="none" stroke="#191970" d="M422.7251,-392.2842C433.8214,-378.6991 455.3318,-353.708 477,-336 521.5734,-299.5732 580.1835,-266.3172 614.2144,-248.2373"/>
<polygon fill="#191970" stroke="#191970" points="615.9066,-251.3019 623.129,-243.5503 612.649,-245.1061 615.9066,-251.3019"/>
</g>
<!-- Node13 -->
<g id="node14" class="node">
<title>Node13</title>
<polygon fill="#ffffff" stroke="#bfbfbf" points="166,-336.5 166,-355.5 296,-355.5 296,-336.5 166,-336.5"/>
<text text-anchor="middle" x="231" y="-343.5" font-family="Helvetica,sans-Serif" font-size="10.00" fill="#000000">odp/api/abi/packet_io.h</text>
</g>
<!-- Node4&#45;&gt;Node13 -->
<g id="edge17" class="edge">
<title>Node4&#45;&gt;Node13</title>
<path fill="none" stroke="#191970" d="M383.3693,-392.3733C352.6404,-383.021 305.824,-368.7725 272.1978,-358.5385"/>
<polygon fill="#191970" stroke="#191970" points="272.8038,-355.0644 262.218,-355.5011 270.7656,-361.7612 272.8038,-355.0644"/>
</g>
<!-- Node14 -->
<g id="node15" class="node">
<title>Node14</title>
<polygon fill="#ffffff" stroke="#bfbfbf" points="314,-336.5 314,-355.5 430,-355.5 430,-336.5 314,-336.5"/>
<text text-anchor="middle" x="372" y="-343.5" font-family="Helvetica,sans-Serif" font-size="10.00" fill="#000000">odp/api/abi/packet.h</text>
</g>
<!-- Node4&#45;&gt;Node14 -->
<g id="edge18" class="edge">
<title>Node4&#45;&gt;Node14</title>
<path fill="none" stroke="#191970" d="M407.51,-392.2455C401.4674,-384.3761 392.8097,-373.101 385.5559,-363.6542"/>
<polygon fill="#191970" stroke="#191970" points="388.2705,-361.4426 379.4042,-355.6427 382.7185,-365.7058 388.2705,-361.4426"/>
</g>
<!-- Node15 -->
<g id="node16" class="node">
<title>Node15</title>
<polygon fill="#ffffff" stroke="#bfbfbf" points="486,-336.5 486,-355.5 596,-355.5 596,-336.5 486,-336.5"/>
<text text-anchor="middle" x="541" y="-343.5" font-family="Helvetica,sans-Serif" font-size="10.00" fill="#000000">odp/api/abi/buffer.h</text>
</g>
<!-- Node4&#45;&gt;Node15 -->
<g id="edge19" class="edge">
<title>Node4&#45;&gt;Node15</title>
<path fill="none" stroke="#191970" d="M436.6602,-392.3733C456.9772,-383.3435 487.564,-369.7494 510.375,-359.6111"/>
<polygon fill="#191970" stroke="#191970" points="511.9059,-362.7609 519.6225,-355.5011 509.0628,-356.3642 511.9059,-362.7609"/>
</g>
<!-- Node16 -->
<g id="node17" class="node">
<title>Node16</title>
<polygon fill="#ffffff" stroke="#bfbfbf" points="614,-336.5 614,-355.5 718,-355.5 718,-336.5 614,-336.5"/>
<text text-anchor="middle" x="666" y="-343.5" font-family="Helvetica,sans-Serif" font-size="10.00" fill="#000000">odp/api/abi/pool.h</text>
</g>
<!-- Node4&#45;&gt;Node16 -->
<g id="edge20" class="edge">
<title>Node4&#45;&gt;Node16</title>
<path fill="none" stroke="#191970" d="M457.8632,-392.4369C500.9102,-382.8328 567.3073,-368.0191 613.491,-357.7152"/>
<polygon fill="#191970" stroke="#191970" points="614.3157,-361.1173 623.3135,-355.5237 612.7913,-354.2853 614.3157,-361.1173"/>
</g>
<!-- Node17 -->
<g id="node18" class="node">
<title>Node17</title>
<g id="a_node18"><a xlink:href="spec_2packet_8h.html" target="_top" xlink:title="ODP packet descriptor. ">
<polygon fill="#ffffff" stroke="#000000" points="736.5,-336.5 736.5,-355.5 859.5,-355.5 859.5,-336.5 736.5,-336.5"/>
<text text-anchor="middle" x="798" y="-343.5" font-family="Helvetica,sans-Serif" font-size="10.00" fill="#000000">odp/api/spec/packet.h</text>
</a>
</g>
</g>
<!-- Node4&#45;&gt;Node17 -->
<g id="edge21" class="edge">
<title>Node4&#45;&gt;Node17</title>
<path fill="none" stroke="#191970" d="M464.2865,-394.7936C530.8004,-385.0684 649.7525,-367.6759 726.2062,-356.4973"/>
<polygon fill="#191970" stroke="#191970" points="726.85,-359.9404 736.2384,-355.0304 725.8372,-353.0141 726.85,-359.9404"/>
</g>
<!-- Node6 -->
<g id="node7" class="node">
<title>Node6</title>
<polygon fill="#ffffff" stroke="#bfbfbf" points="486,-168.5 486,-187.5 616,-187.5 616,-168.5 486,-168.5"/>
<text text-anchor="middle" x="551" y="-175.5" font-family="Helvetica,sans-Serif" font-size="10.00" fill="#000000">odp/api/abi/std_types.h</text>
</g>
<!-- Node5&#45;&gt;Node6 -->
<g id="edge6" class="edge">
<title>Node5&#45;&gt;Node6</title>
<path fill="none" stroke="#191970" d="M626.149,-224.2455C612.1868,-215.6534 591.6272,-203.0014 575.5404,-193.1018"/>
<polygon fill="#191970" stroke="#191970" points="577.0203,-189.9029 566.6693,-187.6427 573.3516,-195.8645 577.0203,-189.9029"/>
</g>
<!-- Node7 -->
<g id="node8" class="node">
<title>Node7</title>
<g id="a_node8"><a xlink:href="spec_2std__types_8h.html" target="_top" xlink:title="Standard C language types and definitions for ODP. ">
<polygon fill="#ffffff" stroke="#000000" points="634.5,-168.5 634.5,-187.5 771.5,-187.5 771.5,-168.5 634.5,-168.5"/>
<text text-anchor="middle" x="703" y="-175.5" font-family="Helvetica,sans-Serif" font-size="10.00" fill="#000000">odp/api/spec/std_types.h</text>
</a>
</g>
</g>
<!-- Node5&#45;&gt;Node7 -->
<g id="edge7" class="edge">
<title>Node5&#45;&gt;Node7</title>
<path fill="none" stroke="#191970" d="M652.6254,-224.2455C661.5473,-216.0549 674.488,-204.1749 685.0192,-194.5069"/>
<polygon fill="#191970" stroke="#191970" points="687.4968,-196.9837 692.4964,-187.6427 682.7629,-191.8271 687.4968,-196.9837"/>
</g>
<!-- Node7&#45;&gt;Node3 -->
<g id="edge8" class="edge">
<title>Node7&#45;&gt;Node3</title>
<path fill="none" stroke="#191970" d="M716.2657,-168.2554C727.74,-159.4783 744.418,-145.8603 757,-132 784.6787,-101.5092 780.9821,-85.2192 810,-56 821.7585,-44.1599 836.879,-33.2587 849.577,-25.0432"/>
<polygon fill="#191970" stroke="#191970" points="851.7029,-27.8412 858.3123,-19.5607 847.9817,-21.9122 851.7029,-27.8412"/>
</g>
<!-- Node8 -->
<g id="node9" class="node">
<title>Node8</title>
<polygon fill="#ffffff" stroke="#bfbfbf" points="587.5,-112.5 587.5,-131.5 640.5,-131.5 640.5,-112.5 587.5,-112.5"/>
<text text-anchor="middle" x="614" y="-119.5" font-family="Helvetica,sans-Serif" font-size="10.00" fill="#000000">stdint.h</text>
</g>
<!-- Node7&#45;&gt;Node8 -->
<g id="edge9" class="edge">
<title>Node7&#45;&gt;Node8</title>
<path fill="none" stroke="#191970" d="M687.4974,-168.2455C673.842,-159.6534 653.7343,-147.0014 638.0011,-137.1018"/>
<polygon fill="#191970" stroke="#191970" points="639.6529,-134.006 629.325,-131.6427 635.9249,-139.9307 639.6529,-134.006"/>
</g>
<!-- Node9 -->
<g id="node10" class="node">
<title>Node9</title>
<g id="a_node10"><a xlink:href="align_8h.html" target="_top" xlink:title="ODP alignments. ">
<polygon fill="#ffffff" stroke="#000000" points="658.5,-112.5 658.5,-131.5 747.5,-131.5 747.5,-112.5 658.5,-112.5"/>
<text text-anchor="middle" x="703" y="-119.5" font-family="Helvetica,sans-Serif" font-size="10.00" fill="#000000">odp/api/align.h</text>
</a>
</g>
</g>
<!-- Node7&#45;&gt;Node9 -->
<g id="edge10" class="edge">
<title>Node7&#45;&gt;Node9</title>
<path fill="none" stroke="#191970" d="M703,-168.2455C703,-160.9382 703,-150.6944 703,-141.7046"/>
<polygon fill="#191970" stroke="#191970" points="706.5001,-141.6426 703,-131.6427 699.5001,-141.6427 706.5001,-141.6426"/>
</g>
<!-- Node7&#45;&gt;Node12 -->
<g id="edge15" class="edge">
<title>Node7&#45;&gt;Node12</title>
<path fill="none" stroke="#191970" d="M661.4965,-168.4448C616.4694,-155.6783 546.5358,-128.3239 513,-76 503.9631,-61.9003 499.1231,-43.4053 496.595,-29.5821"/>
<polygon fill="#191970" stroke="#191970" points="500.0467,-29.0012 495.0271,-19.671 493.1327,-30.095 500.0467,-29.0012"/>
</g>
<!-- Node10 -->
<g id="node11" class="node">
<title>Node10</title>
<polygon fill="#ffffff" stroke="#bfbfbf" points="522.5,-56.5 522.5,-75.5 629.5,-75.5 629.5,-56.5 522.5,-56.5"/>
<text text-anchor="middle" x="576" y="-63.5" font-family="Helvetica,sans-Serif" font-size="10.00" fill="#000000">odp/api/abi/align.h</text>
</g>
<!-- Node9&#45;&gt;Node10 -->
<g id="edge11" class="edge">
<title>Node9&#45;&gt;Node10</title>
<path fill="none" stroke="#191970" d="M681.1679,-112.3733C660.6897,-103.3435 629.8601,-89.7494 606.8681,-79.6111"/>
<polygon fill="#191970" stroke="#191970" points="608.1093,-76.3333 597.5472,-75.5011 605.285,-82.7383 608.1093,-76.3333"/>
</g>
<!-- Node11 -->
<g id="node12" class="node">
<title>Node11</title>
<g id="a_node12"><a xlink:href="spec_2align_8h.html" target="_top" xlink:title="ODP alignments. ">
<polygon fill="#ffffff" stroke="#000000" points="648,-56.5 648,-75.5 762,-75.5 762,-56.5 648,-56.5"/>
<text text-anchor="middle" x="705" y="-63.5" font-family="Helvetica,sans-Serif" font-size="10.00" fill="#000000">odp/api/spec/align.h</text>
</a>
</g>
</g>
<!-- Node9&#45;&gt;Node11 -->
<g id="edge12" class="edge">
<title>Node9&#45;&gt;Node11</title>
<path fill="none" stroke="#191970" d="M703.3484,-112.2455C703.6093,-104.9382 703.9752,-94.6944 704.2963,-85.7046"/>
<polygon fill="#191970" stroke="#191970" points="707.7964,-85.7613 704.6556,-75.6427 700.8008,-85.5113 707.7964,-85.7613"/>
</g>
<!-- Node11&#45;&gt;Node3 -->
<g id="edge13" class="edge">
<title>Node11&#45;&gt;Node3</title>
<path fill="none" stroke="#191970" d="M734.224,-56.3733C762.4925,-47.0613 805.4965,-32.8953 836.5344,-22.671"/>
<polygon fill="#191970" stroke="#191970" points="837.7544,-25.9542 846.1573,-19.5011 835.5643,-19.3056 837.7544,-25.9542"/>
</g>
<!-- Node11&#45;&gt;Node12 -->
<g id="edge14" class="edge">
<title>Node11&#45;&gt;Node12</title>
<path fill="none" stroke="#191970" d="M668.7278,-56.3733C633.0342,-46.9001 578.4121,-32.4032 539.7549,-22.1435"/>
<polygon fill="#191970" stroke="#191970" points="540.3621,-18.6835 529.7989,-19.5011 538.5664,-25.4493 540.3621,-18.6835"/>
</g>
<!-- Node17&#45;&gt;Node3 -->
<g id="edge22" class="edge">
<title>Node17&#45;&gt;Node3</title>
<path fill="none" stroke="#191970" d="M839.719,-336.4948C887.7185,-322.7992 960,-292.4685 960,-234 960,-234 960,-234 960,-122 960,-91.4754 958.7658,-80.822 941,-56 931.7115,-43.0223 917.5658,-32.4653 904.7494,-24.7535"/>
<polygon fill="#191970" stroke="#191970" points="906.1661,-21.5334 895.7405,-19.6471 902.7142,-27.6232 906.1661,-21.5334"/>
</g>
<!-- Node17&#45;&gt;Node12 -->
<g id="edge29" class="edge">
<title>Node17&#45;&gt;Node12</title>
<path fill="none" stroke="#191970" d="M737.1167,-336.4527C660.3053,-320.7257 531.6518,-281.2427 477,-188 447.1255,-137.0304 471.0641,-63.4705 485.3158,-29.0766"/>
<polygon fill="#191970" stroke="#191970" points="488.6016,-30.2962 489.3575,-19.7284 482.1764,-27.5183 488.6016,-30.2962"/>
</g>
<!-- Node18 -->
<g id="node19" class="node">
<title>Node18</title>
<g id="a_node19"><a xlink:href="time_8h.html" target="_top" xlink:title="ODP time. ">
<polygon fill="#ffffff" stroke="#000000" points="754.5,-280.5 754.5,-299.5 841.5,-299.5 841.5,-280.5 754.5,-280.5"/>
<text text-anchor="middle" x="798" y="-287.5" font-family="Helvetica,sans-Serif" font-size="10.00" fill="#000000">odp/api/time.h</text>
</a>
</g>
</g>
<!-- Node17&#45;&gt;Node18 -->
<g id="edge23" class="edge">
<title>Node17&#45;&gt;Node18</title>
<path fill="none" stroke="#191970" d="M798,-336.2455C798,-328.9382 798,-318.6944 798,-309.7046"/>
<polygon fill="#191970" stroke="#191970" points="801.5001,-309.6426 798,-299.6427 794.5001,-309.6427 801.5001,-309.6426"/>
</g>
<!-- Node18&#45;&gt;Node5 -->
<g id="edge24" class="edge">
<title>Node18&#45;&gt;Node5</title>
<path fill="none" stroke="#191970" d="M771.1826,-280.3733C745.4668,-271.1419 706.462,-257.1402 678.0401,-246.9375"/>
<polygon fill="#191970" stroke="#191970" points="679.0619,-243.5857 668.4674,-243.5011 676.6968,-250.174 679.0619,-243.5857"/>
</g>
<!-- Node19 -->
<g id="node20" class="node">
<title>Node19</title>
<polygon fill="#ffffff" stroke="#bfbfbf" points="826.5,-224.5 826.5,-243.5 931.5,-243.5 931.5,-224.5 826.5,-224.5"/>
<text text-anchor="middle" x="879" y="-231.5" font-family="Helvetica,sans-Serif" font-size="10.00" fill="#000000">odp/api/abi/time.h</text>
</g>
<!-- Node18&#45;&gt;Node19 -->
<g id="edge25" class="edge">
<title>Node18&#45;&gt;Node19</title>
<path fill="none" stroke="#191970" d="M812.1091,-280.2455C824.4209,-271.7337 842.4958,-259.2375 856.7538,-249.3801"/>
<polygon fill="#191970" stroke="#191970" points="858.8174,-252.2085 865.0526,-243.6427 854.8366,-246.4506 858.8174,-252.2085"/>
</g>
<!-- Node20 -->
<g id="node21" class="node">
<title>Node20</title>
<g id="a_node21"><a xlink:href="spec_2time_8h.html" target="_top" xlink:title="ODP time. ">
<polygon fill="#ffffff" stroke="#000000" points="818.5,-56.5 818.5,-75.5 931.5,-75.5 931.5,-56.5 818.5,-56.5"/>
<text text-anchor="middle" x="875" y="-63.5" font-family="Helvetica,sans-Serif" font-size="10.00" fill="#000000">odp/api/spec/time.h</text>
</a>
</g>
</g>
<!-- Node18&#45;&gt;Node20 -->
<g id="edge26" class="edge">
<title>Node18&#45;&gt;Node20</title>
<path fill="none" stroke="#191970" d="M800.8229,-280.1096C804.5594,-267.1579 811.4421,-243.7737 818,-224 834.7597,-173.4651 856.6065,-114.6463 867.7593,-85.0642"/>
<polygon fill="#191970" stroke="#191970" points="871.0908,-86.1494 871.3552,-75.5578 864.5436,-83.6728 871.0908,-86.1494"/>
</g>
<!-- Node20&#45;&gt;Node3 -->
<g id="edge27" class="edge">
<title>Node20&#45;&gt;Node3</title>
<path fill="none" stroke="#191970" d="M875,-56.2455C875,-48.9382 875,-38.6944 875,-29.7046"/>
<polygon fill="#191970" stroke="#191970" points="878.5001,-29.6426 875,-19.6427 871.5001,-29.6427 878.5001,-29.6426"/>
</g>
<!-- Node20&#45;&gt;Node12 -->
<g id="edge28" class="edge">
<title>Node20&#45;&gt;Node12</title>
<path fill="none" stroke="#191970" d="M818.3719,-57.6767C749.375,-47.5354 633.0021,-30.4308 560.0094,-19.7022"/>
<polygon fill="#191970" stroke="#191970" points="560.4098,-16.2235 550.0071,-18.232 559.3919,-23.1491 560.4098,-16.2235"/>
</g>
</g>
</svg>
