<?xml version="1.0" encoding="UTF-8" standalone="no"?>
<!DOCTYPE svg PUBLIC "-//W3C//DTD SVG 1.1//EN"
 "http://www.w3.org/Graphics/SVG/1.1/DTD/svg11.dtd">
<!-- Generated by graphviz version 2.40.1 (20161225.0304)
 -->
<!-- Title: queue.h Pages: 1 -->
<svg width="1342pt" height="666pt"
 viewBox="0.00 0.00 1342.00 666.00" xmlns="http://www.w3.org/2000/svg" xmlns:xlink="http://www.w3.org/1999/xlink">
<g id="graph0" class="graph" transform="scale(1 1) rotate(0) translate(4 662)">
<title>queue.h</title>
<polygon fill="#ffffff" stroke="transparent" points="-4,4 -4,-662 1338,-662 1338,4 -4,4"/>
<!-- Node0 -->
<g id="node1" class="node">
<title>Node0</title>
<polygon fill="#bfbfbf" stroke="#000000" points="137,-638.5 137,-657.5 193,-657.5 193,-638.5 137,-638.5"/>
<text text-anchor="middle" x="165" y="-645.5" font-family="Helvetica,sans-Serif" font-size="10.00" fill="#000000">queue.h</text>
</g>
<!-- Node1 -->
<g id="node2" class="node">
<title>Node1</title>
<g id="a_node2"><a xlink:href="std__types_8h.html" target="_top" xlink:title="Standard C language types and definitions for ODP. ">
<polygon fill="#ffffff" stroke="#000000" points="400,-235.5 400,-254.5 512,-254.5 512,-235.5 400,-235.5"/>
<text text-anchor="middle" x="456" y="-242.5" font-family="Helvetica,sans-Serif" font-size="10.00" fill="#000000">odp/api/std_types.h</text>
</a>
</g>
</g>
<!-- Node0&#45;&gt;Node1 -->
<g id="edge1" class="edge">
<title>Node0&#45;&gt;Node1</title>
<path fill="none" stroke="#191970" d="M136.6355,-642.3581C89.4596,-631.1396 0,-601.2621 0,-536 0,-536 0,-536 0,-368 0,-288.3457 262.6499,-258.7504 389.2798,-249.1105"/>
<polygon fill="#191970" stroke="#191970" points="389.9139,-252.5732 399.6281,-248.3442 389.3969,-245.5924 389.9139,-252.5732"/>
</g>
<!-- Node10 -->
<g id="node11" class="node">
<title>Node10</title>
<polygon fill="#ffffff" stroke="#bfbfbf" points="910,-358.5 910,-377.5 1020,-377.5 1020,-358.5 910,-358.5"/>
<text text-anchor="middle" x="965" y="-365.5" font-family="Helvetica,sans-Serif" font-size="10.00" fill="#000000">odp/api/abi/event.h</text>
</g>
<!-- Node0&#45;&gt;Node10 -->
<g id="edge12" class="edge">
<title>Node0&#45;&gt;Node10</title>
<path fill="none" stroke="#191970" d="M193.3672,-645.5752C309.8136,-635.2488 745,-592.8537 745,-536 745,-536 745,-536 745,-480 745,-440.8429 857.0822,-400.5239 921.2453,-380.6509"/>
<polygon fill="#191970" stroke="#191970" points="922.5648,-383.9076 931.1071,-377.6402 920.5209,-377.2126 922.5648,-383.9076"/>
</g>
<!-- Node11 -->
<g id="node12" class="node">
<title>Node11</title>
<polygon fill="#ffffff" stroke="#bfbfbf" points="66.5,-582.5 66.5,-601.5 179.5,-601.5 179.5,-582.5 66.5,-582.5"/>
<text text-anchor="middle" x="123" y="-589.5" font-family="Helvetica,sans-Serif" font-size="10.00" fill="#000000">odp/api/abi/queue.h</text>
</g>
<!-- Node0&#45;&gt;Node11 -->
<g id="edge13" class="edge">
<title>Node0&#45;&gt;Node11</title>
<path fill="none" stroke="#191970" d="M157.6842,-638.2455C151.7821,-630.3761 143.3258,-619.101 136.2406,-609.6542"/>
<polygon fill="#191970" stroke="#191970" points="139.0321,-607.5427 130.232,-601.6427 133.432,-611.7427 139.0321,-607.5427"/>
</g>
<!-- Node12 -->
<g id="node13" class="node">
<title>Node12</title>
<polygon fill="#ffffff" stroke="#bfbfbf" points="30,-358.5 30,-377.5 140,-377.5 140,-358.5 30,-358.5"/>
<text text-anchor="middle" x="85" y="-365.5" font-family="Helvetica,sans-Serif" font-size="10.00" fill="#000000">odp/api/abi/buffer.h</text>
</g>
<!-- Node0&#45;&gt;Node12 -->
<g id="edge14" class="edge">
<title>Node0&#45;&gt;Node12</title>
<path fill="none" stroke="#191970" d="M136.6521,-642.9949C112.201,-637.2246 77.6592,-625.3553 57,-602 36.7758,-579.1366 38,-566.5246 38,-536 38,-536 38,-536 38,-480 38,-444.5481 58.2704,-407.3564 72.1871,-385.9999"/>
<polygon fill="#191970" stroke="#191970" points="75.1549,-387.8593 77.8617,-377.6161 69.3579,-383.9356 75.1549,-387.8593"/>
</g>
<!-- Node13 -->
<g id="node14" class="node">
<title>Node13</title>
<polygon fill="#ffffff" stroke="#bfbfbf" points="290,-358.5 290,-377.5 394,-377.5 394,-358.5 290,-358.5"/>
<text text-anchor="middle" x="342" y="-365.5" font-family="Helvetica,sans-Serif" font-size="10.00" fill="#000000">odp/api/abi/pool.h</text>
</g>
<!-- Node0&#45;&gt;Node13 -->
<g id="edge15" class="edge">
<title>Node0&#45;&gt;Node13</title>
<path fill="none" stroke="#191970" d="M171.0927,-638.3618C196.7835,-597.7211 296.5096,-439.9622 330.5433,-386.1236"/>
<polygon fill="#191970" stroke="#191970" points="333.548,-387.9206 335.9329,-377.5977 327.631,-384.1803 333.548,-387.9206"/>
</g>
<!-- Node14 -->
<g id="node15" class="node">
<title>Node14</title>
<g id="a_node15"><a xlink:href="spec_2queue_8h.html" target="_top" xlink:title="ODP queue. ">
<polygon fill="#ffffff" stroke="#000000" points="898,-582.5 898,-601.5 1018,-601.5 1018,-582.5 898,-582.5"/>
<text text-anchor="middle" x="958" y="-589.5" font-family="Helvetica,sans-Serif" font-size="10.00" fill="#000000">odp/api/spec/queue.h</text>
</a>
</g>
</g>
<!-- Node0&#45;&gt;Node14 -->
<g id="edge16" class="edge">
<title>Node0&#45;&gt;Node14</title>
<path fill="none" stroke="#191970" d="M193.2233,-646.0069C305.2415,-638.0964 720.496,-608.772 887.6368,-596.9689"/>
<polygon fill="#191970" stroke="#191970" points="888.0753,-600.4467 897.8038,-596.2509 887.5821,-593.4641 888.0753,-600.4467"/>
</g>
<!-- Node2 -->
<g id="node3" class="node">
<title>Node2</title>
<polygon fill="#ffffff" stroke="#bfbfbf" points="391,-174 391,-193 521,-193 521,-174 391,-174"/>
<text text-anchor="middle" x="456" y="-181" font-family="Helvetica,sans-Serif" font-size="10.00" fill="#000000">odp/api/abi/std_types.h</text>
</g>
<!-- Node1&#45;&gt;Node2 -->
<g id="edge2" class="edge">
<title>Node1&#45;&gt;Node2</title>
<path fill="none" stroke="#191970" d="M456,-235.3906C456,-226.8657 456,-214.1392 456,-203.4235"/>
<polygon fill="#191970" stroke="#191970" points="459.5001,-203.2448 456,-193.2449 452.5001,-203.2449 459.5001,-203.2448"/>
</g>
<!-- Node3 -->
<g id="node4" class="node">
<title>Node3</title>
<g id="a_node4"><a xlink:href="spec_2std__types_8h.html" target="_top" xlink:title="Standard C language types and definitions for ODP. ">
<polygon fill="#ffffff" stroke="#000000" points="235.5,-174 235.5,-193 372.5,-193 372.5,-174 235.5,-174"/>
<text text-anchor="middle" x="304" y="-181" font-family="Helvetica,sans-Serif" font-size="10.00" fill="#000000">odp/api/spec/std_types.h</text>
</a>
</g>
</g>
<!-- Node1&#45;&gt;Node3 -->
<g id="edge3" class="edge">
<title>Node1&#45;&gt;Node3</title>
<path fill="none" stroke="#191970" d="M432.25,-235.3906C406.7061,-225.0554 365.8991,-208.5447 337.189,-196.9284"/>
<polygon fill="#191970" stroke="#191970" points="338.166,-193.5481 327.5832,-193.0419 335.5404,-200.0371 338.166,-193.5481"/>
</g>
<!-- Node4 -->
<g id="node5" class="node">
<title>Node4</title>
<polygon fill="#ffffff" stroke="#bfbfbf" points="1075.5,-.5 1075.5,-19.5 1196.5,-19.5 1196.5,-.5 1075.5,-.5"/>
<text text-anchor="middle" x="1136" y="-7.5" font-family="Helvetica,sans-Serif" font-size="10.00" fill="#000000">odp/visibility_begin.h</text>
</g>
<!-- Node3&#45;&gt;Node4 -->
<g id="edge4" class="edge">
<title>Node3&#45;&gt;Node4</title>
<path fill="none" stroke="#191970" d="M350.132,-173.9895C360.594,-171.9284 371.6665,-169.8221 382,-168 646.3869,-121.3818 723.6093,-158.7604 979,-76 997.531,-69.995 1000.2355,-63.9924 1018,-56 1044.8442,-43.9225 1075.8823,-31.8969 1099.3866,-23.1719"/>
<polygon fill="#191970" stroke="#191970" points="1100.7904,-26.3848 1108.9644,-19.6441 1098.371,-19.8162 1100.7904,-26.3848"/>
</g>
<!-- Node5 -->
<g id="node6" class="node">
<title>Node5</title>
<polygon fill="#ffffff" stroke="#bfbfbf" points="235.5,-112.5 235.5,-131.5 288.5,-131.5 288.5,-112.5 235.5,-112.5"/>
<text text-anchor="middle" x="262" y="-119.5" font-family="Helvetica,sans-Serif" font-size="10.00" fill="#000000">stdint.h</text>
</g>
<!-- Node3&#45;&gt;Node5 -->
<g id="edge5" class="edge">
<title>Node3&#45;&gt;Node5</title>
<path fill="none" stroke="#191970" d="M297.4375,-173.8906C291.3092,-164.917 282.0015,-151.2879 274.4628,-140.2491"/>
<polygon fill="#191970" stroke="#191970" points="277.185,-138.029 268.655,-131.7449 271.4044,-141.9768 277.185,-138.029"/>
</g>
<!-- Node6 -->
<g id="node7" class="node">
<title>Node6</title>
<g id="a_node7"><a xlink:href="align_8h.html" target="_top" xlink:title="ODP alignments. ">
<polygon fill="#ffffff" stroke="#000000" points="345.5,-112.5 345.5,-131.5 434.5,-131.5 434.5,-112.5 345.5,-112.5"/>
<text text-anchor="middle" x="390" y="-119.5" font-family="Helvetica,sans-Serif" font-size="10.00" fill="#000000">odp/api/align.h</text>
</a>
</g>
</g>
<!-- Node3&#45;&gt;Node6 -->
<g id="edge6" class="edge">
<title>Node3&#45;&gt;Node6</title>
<path fill="none" stroke="#191970" d="M317.4375,-173.8906C331.0695,-164.1421 352.3846,-148.8994 368.3922,-137.4521"/>
<polygon fill="#191970" stroke="#191970" points="370.5586,-140.2057 376.6569,-131.5419 366.4868,-134.5118 370.5586,-140.2057"/>
</g>
<!-- Node9 -->
<g id="node10" class="node">
<title>Node9</title>
<polygon fill="#ffffff" stroke="#bfbfbf" points="528,-.5 528,-19.5 640,-19.5 640,-.5 528,-.5"/>
<text text-anchor="middle" x="584" y="-7.5" font-family="Helvetica,sans-Serif" font-size="10.00" fill="#000000">odp/visibility_end.h</text>
</g>
<!-- Node3&#45;&gt;Node9 -->
<g id="edge11" class="edge">
<title>Node3&#45;&gt;Node9</title>
<path fill="none" stroke="#191970" d="M303.1419,-173.927C300.9738,-147.306 296.4929,-73.225 312,-56 338.7241,-26.3154 446.0928,-15.785 517.6733,-12.0506"/>
<polygon fill="#191970" stroke="#191970" points="518.1437,-15.5319 527.9608,-11.5475 517.8017,-8.5402 518.1437,-15.5319"/>
</g>
<!-- Node7 -->
<g id="node8" class="node">
<title>Node7</title>
<polygon fill="#ffffff" stroke="#bfbfbf" points="320.5,-56.5 320.5,-75.5 427.5,-75.5 427.5,-56.5 320.5,-56.5"/>
<text text-anchor="middle" x="374" y="-63.5" font-family="Helvetica,sans-Serif" font-size="10.00" fill="#000000">odp/api/abi/align.h</text>
</g>
<!-- Node6&#45;&gt;Node7 -->
<g id="edge7" class="edge">
<title>Node6&#45;&gt;Node7</title>
<path fill="none" stroke="#191970" d="M387.213,-112.2455C385.1023,-104.8579 382.134,-94.4689 379.5453,-85.4087"/>
<polygon fill="#191970" stroke="#191970" points="382.8677,-84.2964 376.755,-75.6427 376.137,-86.2195 382.8677,-84.2964"/>
</g>
<!-- Node8 -->
<g id="node9" class="node">
<title>Node8</title>
<g id="a_node9"><a xlink:href="spec_2align_8h.html" target="_top" xlink:title="ODP alignments. ">
<polygon fill="#ffffff" stroke="#000000" points="484,-56.5 484,-75.5 598,-75.5 598,-56.5 484,-56.5"/>
<text text-anchor="middle" x="541" y="-63.5" font-family="Helvetica,sans-Serif" font-size="10.00" fill="#000000">odp/api/spec/align.h</text>
</a>
</g>
</g>
<!-- Node6&#45;&gt;Node8 -->
<g id="edge8" class="edge">
<title>Node6&#45;&gt;Node8</title>
<path fill="none" stroke="#191970" d="M415.9578,-112.3733C440.7407,-103.1822 478.2746,-89.2624 505.754,-79.0713"/>
<polygon fill="#191970" stroke="#191970" points="507.2219,-82.26 515.3809,-75.5011 504.7879,-75.6968 507.2219,-82.26"/>
</g>
<!-- Node8&#45;&gt;Node4 -->
<g id="edge9" class="edge">
<title>Node8&#45;&gt;Node4</title>
<path fill="none" stroke="#191970" d="M598.2181,-60.5365C613.7229,-59.0599 630.5042,-57.4652 646,-56 795.1686,-41.8949 969.897,-25.5294 1065.1743,-16.6187"/>
<polygon fill="#191970" stroke="#191970" points="1065.637,-20.0908 1075.2676,-15.6749 1064.9852,-13.1212 1065.637,-20.0908"/>
</g>
<!-- Node8&#45;&gt;Node9 -->
<g id="edge10" class="edge">
<title>Node8&#45;&gt;Node9</title>
<path fill="none" stroke="#191970" d="M548.49,-56.2455C554.5326,-48.3761 563.1903,-37.101 570.4441,-27.6542"/>
<polygon fill="#191970" stroke="#191970" points="573.2815,-29.7058 576.5958,-19.6427 567.7295,-25.4426 573.2815,-29.7058"/>
</g>
<!-- Node14&#45;&gt;Node4 -->
<g id="edge17" class="edge">
<title>Node14&#45;&gt;Node4</title>
<path fill="none" stroke="#191970" d="M1018.4109,-586.5857C1124.6974,-575.3772 1334,-545.0472 1334,-480 1334,-480 1334,-480 1334,-122 1334,-61.7377 1263.6558,-33.5232 1206.8245,-20.5621"/>
<polygon fill="#191970" stroke="#191970" points="1207.2654,-17.0768 1196.7521,-18.3888 1205.789,-23.9193 1207.2654,-17.0768"/>
</g>
<!-- Node14&#45;&gt;Node9 -->
<g id="edge55" class="edge">
<title>Node14&#45;&gt;Node9</title>
<path fill="none" stroke="#191970" d="M897.7243,-585.5771C713.2842,-565.1203 169,-498.4453 169,-424 169,-424 169,-424 169,-122 169,-74.5213 209.3069,-74.5777 253,-56 299.3849,-36.2778 435.2846,-22.1368 517.8199,-15.0862"/>
<polygon fill="#191970" stroke="#191970" points="518.1874,-18.5678 527.8585,-14.2411 517.6001,-11.5924 518.1874,-18.5678"/>
</g>
<!-- Node15 -->
<g id="node16" class="node">
<title>Node15</title>
<g id="a_node16"><a xlink:href="event_8h.html" target="_top" xlink:title="ODP event. ">
<polygon fill="#ffffff" stroke="#000000" points="912,-526.5 912,-545.5 1004,-545.5 1004,-526.5 912,-526.5"/>
<text text-anchor="middle" x="958" y="-533.5" font-family="Helvetica,sans-Serif" font-size="10.00" fill="#000000">odp/api/event.h</text>
</a>
</g>
</g>
<!-- Node14&#45;&gt;Node15 -->
<g id="edge18" class="edge">
<title>Node14&#45;&gt;Node15</title>
<path fill="none" stroke="#191970" d="M958,-582.2455C958,-574.9382 958,-564.6944 958,-555.7046"/>
<polygon fill="#191970" stroke="#191970" points="961.5001,-555.6426 958,-545.6427 954.5001,-555.6427 961.5001,-555.6426"/>
</g>
<!-- Node24 -->
<g id="node25" class="node">
<title>Node24</title>
<g id="a_node25"><a xlink:href="queue__types_8h.html" target="_top" xlink:title="ODP queue types. ">
<polygon fill="#ffffff" stroke="#000000" points="992.5,-291.5 992.5,-321.5 1103.5,-321.5 1103.5,-291.5 992.5,-291.5"/>
<text text-anchor="start" x="1000.5" y="-309.5" font-family="Helvetica,sans-Serif" font-size="10.00" fill="#000000">odp/api/spec/queue</text>
<text text-anchor="middle" x="1048" y="-298.5" font-family="Helvetica,sans-Serif" font-size="10.00" fill="#000000">_types.h</text>
</a>
</g>
</g>
<!-- Node14&#45;&gt;Node24 -->
<g id="edge39" class="edge">
<title>Node14&#45;&gt;Node24</title>
<path fill="none" stroke="#191970" d="M973.6768,-582.4175C999.4624,-565.3156 1048,-526.8956 1048,-480 1048,-480 1048,-480 1048,-424 1048,-392.3014 1048,-355.7926 1048,-331.9922"/>
<polygon fill="#191970" stroke="#191970" points="1051.5001,-331.7101 1048,-321.7101 1044.5001,-331.7102 1051.5001,-331.7101"/>
</g>
<!-- Node15&#45;&gt;Node10 -->
<g id="edge19" class="edge">
<title>Node15&#45;&gt;Node10</title>
<path fill="none" stroke="#191970" d="M958.3964,-526.4862C959.5029,-499.9293 962.6431,-424.5651 964.1598,-388.1655"/>
<polygon fill="#191970" stroke="#191970" points="967.6711,-387.965 964.5905,-377.8279 960.6771,-387.6735 967.6711,-387.965"/>
</g>
<!-- Node16 -->
<g id="node17" class="node">
<title>Node16</title>
<g id="a_node17"><a xlink:href="spec_2event_8h.html" target="_top" xlink:title="ODP event. ">
<polygon fill="#ffffff" stroke="#000000" points="536,-470.5 536,-489.5 654,-489.5 654,-470.5 536,-470.5"/>
<text text-anchor="middle" x="595" y="-477.5" font-family="Helvetica,sans-Serif" font-size="10.00" fill="#000000">odp/api/spec/event.h</text>
</a>
</g>
</g>
<!-- Node15&#45;&gt;Node16 -->
<g id="edge20" class="edge">
<title>Node15&#45;&gt;Node16</title>
<path fill="none" stroke="#191970" d="M911.6571,-528.8507C849.0434,-519.1913 736.9207,-501.8941 664.2763,-490.6872"/>
<polygon fill="#191970" stroke="#191970" points="664.7138,-487.2134 654.2971,-489.1478 663.6465,-494.1316 664.7138,-487.2134"/>
</g>
<!-- Node16&#45;&gt;Node4 -->
<g id="edge21" class="edge">
<title>Node16&#45;&gt;Node4</title>
<path fill="none" stroke="#191970" d="M654.3956,-474.0643C777.6029,-458.885 1064.1251,-408.3468 1240,-255 1270.4239,-228.4732 1296,-223.8644 1296,-183.5 1296,-183.5 1296,-183.5 1296,-122 1296,-67.7109 1233.413,-37.5195 1186.5272,-22.5189"/>
<polygon fill="#191970" stroke="#191970" points="1187.375,-19.1183 1176.7887,-19.5453 1185.3307,-25.8132 1187.375,-19.1183"/>
</g>
<!-- Node16&#45;&gt;Node9 -->
<g id="edge38" class="edge">
<title>Node16&#45;&gt;Node9</title>
<path fill="none" stroke="#191970" d="M548.9248,-470.4962C471.2269,-453.6068 318.893,-416.5035 281,-378 196.3208,-291.9566 171.8957,-219.9201 226,-112 244.6439,-74.8116 262.704,-72.2477 301,-56 338.9974,-39.8789 446.5328,-25.3399 517.5622,-17.0989"/>
<polygon fill="#191970" stroke="#191970" points="518.2282,-20.5455 527.7644,-15.9292 517.4308,-13.5911 518.2282,-20.5455"/>
</g>
<!-- Node17 -->
<g id="node18" class="node">
<title>Node17</title>
<g id="a_node18"><a xlink:href="packet_8h.html" target="_top" xlink:title="ODP packet descriptor. ">
<polygon fill="#ffffff" stroke="#000000" points="530,-414.5 530,-433.5 628,-433.5 628,-414.5 530,-414.5"/>
<text text-anchor="middle" x="579" y="-421.5" font-family="Helvetica,sans-Serif" font-size="10.00" fill="#000000">odp/api/packet.h</text>
</a>
</g>
</g>
<!-- Node16&#45;&gt;Node17 -->
<g id="edge22" class="edge">
<title>Node16&#45;&gt;Node17</title>
<path fill="none" stroke="#191970" d="M592.213,-470.2455C590.1023,-462.8579 587.134,-452.4689 584.5453,-443.4087"/>
<polygon fill="#191970" stroke="#191970" points="587.8677,-442.2964 581.755,-433.6427 581.137,-444.2195 587.8677,-442.2964"/>
</g>
<!-- Node17&#45;&gt;Node1 -->
<g id="edge23" class="edge">
<title>Node17&#45;&gt;Node1</title>
<path fill="none" stroke="#191970" d="M535.933,-414.4718C515.3238,-407.7032 492.1188,-396.4314 478,-378 452.4821,-344.6877 451.9169,-292.7974 453.8691,-264.693"/>
<polygon fill="#191970" stroke="#191970" points="457.3722,-264.8098 454.7606,-254.5419 450.399,-264.1973 457.3722,-264.8098"/>
</g>
<!-- Node17&#45;&gt;Node10 -->
<g id="edge24" class="edge">
<title>Node17&#45;&gt;Node10</title>
<path fill="none" stroke="#191970" d="M628.1263,-417.1858C689.3233,-408.6519 797.3618,-393.4376 899.9408,-378.1443"/>
<polygon fill="#191970" stroke="#191970" points="900.4759,-381.6033 909.849,-376.6643 899.4417,-374.6801 900.4759,-381.6033"/>
</g>
<!-- Node17&#45;&gt;Node12 -->
<g id="edge27" class="edge">
<title>Node17&#45;&gt;Node12</title>
<path fill="none" stroke="#191970" d="M529.8274,-418.4258C440.2871,-408.2755 250.65,-386.7781 150.3553,-375.4087"/>
<polygon fill="#191970" stroke="#191970" points="150.6763,-371.9228 140.3457,-374.274 149.8878,-378.8782 150.6763,-371.9228"/>
</g>
<!-- Node17&#45;&gt;Node13 -->
<g id="edge28" class="edge">
<title>Node17&#45;&gt;Node13</title>
<path fill="none" stroke="#191970" d="M538.5275,-414.4369C498.052,-404.8731 435.7133,-390.1432 392.1297,-379.845"/>
<polygon fill="#191970" stroke="#191970" points="392.8424,-376.4171 382.3055,-377.5237 391.2327,-383.2295 392.8424,-376.4171"/>
</g>
<!-- Node18 -->
<g id="node19" class="node">
<title>Node18</title>
<polygon fill="#ffffff" stroke="#bfbfbf" points="628,-358.5 628,-377.5 758,-377.5 758,-358.5 628,-358.5"/>
<text text-anchor="middle" x="693" y="-365.5" font-family="Helvetica,sans-Serif" font-size="10.00" fill="#000000">odp/api/abi/packet_io.h</text>
</g>
<!-- Node17&#45;&gt;Node18 -->
<g id="edge25" class="edge">
<title>Node17&#45;&gt;Node18</title>
<path fill="none" stroke="#191970" d="M598.5973,-414.3733C616.7331,-405.4644 643.9135,-392.1127 664.4587,-382.0203"/>
<polygon fill="#191970" stroke="#191970" points="666.2261,-385.0517 673.6584,-377.5011 663.1397,-378.7688 666.2261,-385.0517"/>
</g>
<!-- Node19 -->
<g id="node20" class="node">
<title>Node19</title>
<polygon fill="#ffffff" stroke="#bfbfbf" points="776,-358.5 776,-377.5 892,-377.5 892,-358.5 776,-358.5"/>
<text text-anchor="middle" x="834" y="-365.5" font-family="Helvetica,sans-Serif" font-size="10.00" fill="#000000">odp/api/abi/packet.h</text>
</g>
<!-- Node17&#45;&gt;Node19 -->
<g id="edge26" class="edge">
<title>Node17&#45;&gt;Node19</title>
<path fill="none" stroke="#191970" d="M622.5463,-414.4369C666.2793,-404.8328 733.7345,-390.0191 780.6542,-379.7152"/>
<polygon fill="#191970" stroke="#191970" points="781.6168,-383.0872 790.6333,-377.5237 780.1153,-376.2502 781.6168,-383.0872"/>
</g>
<!-- Node20 -->
<g id="node21" class="node">
<title>Node20</title>
<g id="a_node21"><a xlink:href="spec_2packet_8h.html" target="_top" xlink:title="ODP packet descriptor. ">
<polygon fill="#ffffff" stroke="#000000" points="486.5,-358.5 486.5,-377.5 609.5,-377.5 609.5,-358.5 486.5,-358.5"/>
<text text-anchor="middle" x="548" y="-365.5" font-family="Helvetica,sans-Serif" font-size="10.00" fill="#000000">odp/api/spec/packet.h</text>
</a>
</g>
</g>
<!-- Node17&#45;&gt;Node20 -->
<g id="edge29" class="edge">
<title>Node17&#45;&gt;Node20</title>
<path fill="none" stroke="#191970" d="M573.6002,-414.2455C569.3773,-406.617 563.3827,-395.7881 558.2559,-386.5267"/>
<polygon fill="#191970" stroke="#191970" points="561.2432,-384.6965 553.3379,-377.6427 555.119,-388.0867 561.2432,-384.6965"/>
</g>
<!-- Node20&#45;&gt;Node4 -->
<g id="edge30" class="edge">
<title>Node20&#45;&gt;Node4</title>
<path fill="none" stroke="#191970" d="M580.4896,-358.4612C607.2215,-350.1525 645.8098,-337.0908 678,-322 843.29,-244.5117 862.9622,-183.334 1031,-112 1086.9746,-88.2381 1126.0891,-124.3256 1163,-76 1174.077,-61.4974 1163.4457,-41.8137 1152.433,-27.7239"/>
<polygon fill="#191970" stroke="#191970" points="1154.8431,-25.153 1145.7174,-19.7702 1149.4945,-29.6689 1154.8431,-25.153"/>
</g>
<!-- Node20&#45;&gt;Node9 -->
<g id="edge37" class="edge">
<title>Node20&#45;&gt;Node9</title>
<path fill="none" stroke="#191970" d="M548.635,-358.118C550.2227,-328.4615 552.7404,-237.9568 530,-168 512.8563,-115.2605 444.3437,-102.212 475,-56 485.4905,-40.1864 502.6061,-29.7957 520.1984,-22.9732"/>
<polygon fill="#191970" stroke="#191970" points="521.7061,-26.1534 529.982,-19.5383 519.3871,-19.5486 521.7061,-26.1534"/>
</g>
<!-- Node21 -->
<g id="node22" class="node">
<title>Node21</title>
<g id="a_node22"><a xlink:href="time_8h.html" target="_top" xlink:title="ODP time. ">
<polygon fill="#ffffff" stroke="#000000" points="581.5,-297 581.5,-316 668.5,-316 668.5,-297 581.5,-297"/>
<text text-anchor="middle" x="625" y="-304" font-family="Helvetica,sans-Serif" font-size="10.00" fill="#000000">odp/api/time.h</text>
</a>
</g>
</g>
<!-- Node20&#45;&gt;Node21 -->
<g id="edge31" class="edge">
<title>Node20&#45;&gt;Node21</title>
<path fill="none" stroke="#191970" d="M560.0313,-358.3906C572.0107,-348.8227 590.6166,-333.9621 604.8525,-322.5919"/>
<polygon fill="#191970" stroke="#191970" points="607.4239,-325.0175 613.0532,-316.0419 603.0553,-319.5479 607.4239,-325.0175"/>
</g>
<!-- Node21&#45;&gt;Node1 -->
<g id="edge32" class="edge">
<title>Node21&#45;&gt;Node1</title>
<path fill="none" stroke="#191970" d="M598.5938,-296.8906C569.8209,-286.42 523.6304,-269.6111 491.6534,-257.9745"/>
<polygon fill="#191970" stroke="#191970" points="492.8149,-254.6726 482.2208,-254.5419 490.421,-261.2506 492.8149,-254.6726"/>
</g>
<!-- Node22 -->
<g id="node23" class="node">
<title>Node22</title>
<polygon fill="#ffffff" stroke="#bfbfbf" points="577.5,-235.5 577.5,-254.5 682.5,-254.5 682.5,-235.5 577.5,-235.5"/>
<text text-anchor="middle" x="630" y="-242.5" font-family="Helvetica,sans-Serif" font-size="10.00" fill="#000000">odp/api/abi/time.h</text>
</g>
<!-- Node21&#45;&gt;Node22 -->
<g id="edge33" class="edge">
<title>Node21&#45;&gt;Node22</title>
<path fill="none" stroke="#191970" d="M625.7813,-296.8906C626.4743,-288.3657 627.509,-275.6392 628.3802,-264.9235"/>
<polygon fill="#191970" stroke="#191970" points="631.8858,-264.9956 629.2077,-254.7449 624.9088,-264.4283 631.8858,-264.9956"/>
</g>
<!-- Node23 -->
<g id="node24" class="node">
<title>Node23</title>
<g id="a_node24"><a xlink:href="spec_2time_8h.html" target="_top" xlink:title="ODP time. ">
<polygon fill="#ffffff" stroke="#000000" points="654.5,-56.5 654.5,-75.5 767.5,-75.5 767.5,-56.5 654.5,-56.5"/>
<text text-anchor="middle" x="711" y="-63.5" font-family="Helvetica,sans-Serif" font-size="10.00" fill="#000000">odp/api/spec/time.h</text>
</a>
</g>
</g>
<!-- Node21&#45;&gt;Node23 -->
<g id="edge34" class="edge">
<title>Node21&#45;&gt;Node23</title>
<path fill="none" stroke="#191970" d="M645.0746,-296.8665C660.6977,-288.2214 681.4413,-273.9732 692,-255 722.5326,-200.1356 718.1588,-122.3376 713.9118,-86.0661"/>
<polygon fill="#191970" stroke="#191970" points="717.3412,-85.2961 712.5817,-75.8305 710.3996,-86.1981 717.3412,-85.2961"/>
</g>
<!-- Node23&#45;&gt;Node4 -->
<g id="edge35" class="edge">
<title>Node23&#45;&gt;Node4</title>
<path fill="none" stroke="#191970" d="M767.8764,-58.5057C844.7412,-48.3776 981.741,-30.3259 1065.1887,-19.3304"/>
<polygon fill="#191970" stroke="#191970" points="1065.8855,-22.769 1075.3425,-17.9925 1064.971,-15.8289 1065.8855,-22.769"/>
</g>
<!-- Node23&#45;&gt;Node9 -->
<g id="edge36" class="edge">
<title>Node23&#45;&gt;Node9</title>
<path fill="none" stroke="#191970" d="M689.1679,-56.3733C668.6897,-47.3435 637.8601,-33.7494 614.8681,-23.6111"/>
<polygon fill="#191970" stroke="#191970" points="616.1093,-20.3333 605.5472,-19.5011 613.285,-26.7383 616.1093,-20.3333"/>
</g>
<!-- Node24&#45;&gt;Node4 -->
<g id="edge40" class="edge">
<title>Node24&#45;&gt;Node4</title>
<path fill="none" stroke="#191970" d="M1103.7248,-298.3906C1165.9383,-285.8191 1258,-255.1167 1258,-183.5 1258,-183.5 1258,-183.5 1258,-122 1258,-73.9632 1206.0389,-40.9238 1169.9382,-23.766"/>
<polygon fill="#191970" stroke="#191970" points="1171.2393,-20.5126 1160.6885,-19.5474 1168.3345,-26.8815 1171.2393,-20.5126"/>
</g>
<!-- Node24&#45;&gt;Node9 -->
<g id="edge54" class="edge">
<title>Node24&#45;&gt;Node9</title>
<path fill="none" stroke="#191970" d="M992.208,-301.6375C946.3162,-295.7453 880.8009,-282.8719 830,-255 721.4815,-195.4615 628.7704,-73.7944 596.3337,-27.9832"/>
<polygon fill="#191970" stroke="#191970" points="599.1,-25.8315 590.5024,-19.6401 593.3625,-29.8416 599.1,-25.8315"/>
</g>
<!-- Node25 -->
<g id="node26" class="node">
<title>Node25</title>
<g id="a_node26"><a xlink:href="schedule__types_8h.html" target="_top" xlink:title="ODP schedule. ">
<polygon fill="#ffffff" stroke="#000000" points="978,-235.5 978,-254.5 1118,-254.5 1118,-235.5 978,-235.5"/>
<text text-anchor="middle" x="1048" y="-242.5" font-family="Helvetica,sans-Serif" font-size="10.00" fill="#000000">odp/api/schedule_types.h</text>
</a>
</g>
</g>
<!-- Node24&#45;&gt;Node25 -->
<g id="edge41" class="edge">
<title>Node24&#45;&gt;Node25</title>
<path fill="none" stroke="#191970" d="M1048,-291.2977C1048,-283.3834 1048,-273.6043 1048,-265.0759"/>
<polygon fill="#191970" stroke="#191970" points="1051.5001,-264.8469 1048,-254.8469 1044.5001,-264.847 1051.5001,-264.8469"/>
</g>
<!-- Node30 -->
<g id="node31" class="node">
<title>Node30</title>
<g id="a_node31"><a xlink:href="deprecated_8h.html" target="_top" xlink:title="Control deprecated API definitions. ">
<polygon fill="#ffffff" stroke="#000000" points="838.5,-235.5 838.5,-254.5 957.5,-254.5 957.5,-235.5 838.5,-235.5"/>
<text text-anchor="middle" x="898" y="-242.5" font-family="Helvetica,sans-Serif" font-size="10.00" fill="#000000">odp/api/deprecated.h</text>
</a>
</g>
</g>
<!-- Node24&#45;&gt;Node30 -->
<g id="edge50" class="edge">
<title>Node24&#45;&gt;Node30</title>
<path fill="none" stroke="#191970" d="M1011.3059,-291.4554C986.6073,-281.329 954.3326,-268.0964 930.5494,-258.3453"/>
<polygon fill="#191970" stroke="#191970" points="931.825,-255.0855 921.2447,-254.5303 929.1694,-261.5623 931.825,-255.0855"/>
</g>
<!-- Node26 -->
<g id="node27" class="node">
<title>Node26</title>
<polygon fill="#ffffff" stroke="#bfbfbf" points="1112.5,-168.5 1112.5,-198.5 1229.5,-198.5 1229.5,-168.5 1112.5,-168.5"/>
<text text-anchor="start" x="1120.5" y="-186.5" font-family="Helvetica,sans-Serif" font-size="10.00" fill="#000000">odp/api/abi/schedule</text>
<text text-anchor="middle" x="1171" y="-175.5" font-family="Helvetica,sans-Serif" font-size="10.00" fill="#000000">_types.h</text>
</g>
<!-- Node25&#45;&gt;Node26 -->
<g id="edge42" class="edge">
<title>Node25&#45;&gt;Node26</title>
<path fill="none" stroke="#191970" d="M1067.2188,-235.3906C1084.4818,-226.7591 1110.3596,-213.8202 1131.9553,-203.0224"/>
<polygon fill="#191970" stroke="#191970" points="1133.5318,-206.1473 1140.9108,-198.5446 1130.4013,-199.8863 1133.5318,-206.1473"/>
</g>
<!-- Node27 -->
<g id="node28" class="node">
<title>Node27</title>
<g id="a_node28"><a xlink:href="spec_2schedule__types_8h.html" target="_top" xlink:title="ODP schedule types. ">
<polygon fill="#ffffff" stroke="#000000" points="969.5,-168.5 969.5,-198.5 1094.5,-198.5 1094.5,-168.5 969.5,-168.5"/>
<text text-anchor="start" x="977.5" y="-186.5" font-family="Helvetica,sans-Serif" font-size="10.00" fill="#000000">odp/api/spec/schedule</text>
<text text-anchor="middle" x="1032" y="-175.5" font-family="Helvetica,sans-Serif" font-size="10.00" fill="#000000">_types.h</text>
</a>
</g>
</g>
<!-- Node25&#45;&gt;Node27 -->
<g id="edge43" class="edge">
<title>Node25&#45;&gt;Node27</title>
<path fill="none" stroke="#191970" d="M1045.5,-235.3906C1043.6153,-228.1463 1040.9412,-217.8679 1038.4696,-208.3676"/>
<polygon fill="#191970" stroke="#191970" points="1041.8192,-207.3412 1035.914,-198.5446 1035.0447,-209.1037 1041.8192,-207.3412"/>
</g>
<!-- Node27&#45;&gt;Node4 -->
<g id="edge44" class="edge">
<title>Node27&#45;&gt;Node4</title>
<path fill="none" stroke="#191970" d="M1083.8016,-168.3533C1125.0834,-152.9115 1178.7283,-124.237 1196,-76 1198.9965,-67.6314 1199.9331,-63.9714 1196,-56 1189.5207,-42.8681 1177.2938,-32.4457 1165.5593,-24.8651"/>
<polygon fill="#191970" stroke="#191970" points="1167.1652,-21.7475 1156.7852,-19.6244 1163.5756,-27.7572 1167.1652,-21.7475"/>
</g>
<!-- Node27&#45;&gt;Node9 -->
<g id="edge49" class="edge">
<title>Node27&#45;&gt;Node9</title>
<path fill="none" stroke="#191970" d="M1001.5367,-168.4829C959.6592,-147.8063 881.9877,-109.339 816,-76 798.6134,-67.2158 795.2724,-62.7511 777,-56 735.624,-40.7128 687.3496,-29.2094 649.4314,-21.5295"/>
<polygon fill="#191970" stroke="#191970" points="650.0168,-18.0774 639.5265,-19.5622 648.6531,-24.9433 650.0168,-18.0774"/>
</g>
<!-- Node28 -->
<g id="node29" class="node">
<title>Node28</title>
<g id="a_node29"><a xlink:href="support_8h.html" target="_top" xlink:title="ODP support API &#45; platform specific header. ">
<polygon fill="#ffffff" stroke="#000000" points="1039.5,-112.5 1039.5,-131.5 1140.5,-131.5 1140.5,-112.5 1039.5,-112.5"/>
<text text-anchor="middle" x="1090" y="-119.5" font-family="Helvetica,sans-Serif" font-size="10.00" fill="#000000">odp/api/support.h</text>
</a>
</g>
</g>
<!-- Node27&#45;&gt;Node28 -->
<g id="edge45" class="edge">
<title>Node27&#45;&gt;Node28</title>
<path fill="none" stroke="#191970" d="M1046.3371,-168.2977C1054.6397,-159.4941 1065.1182,-148.3833 1073.7289,-139.2529"/>
<polygon fill="#191970" stroke="#191970" points="1076.3987,-141.5234 1080.7135,-131.8469 1071.3061,-136.7206 1076.3987,-141.5234"/>
</g>
<!-- Node29 -->
<g id="node30" class="node">
<title>Node29</title>
<g id="a_node30"><a xlink:href="spec_2support_8h.html" target="_top" xlink:title="ODP support API. ">
<polygon fill="#ffffff" stroke="#000000" points="1026.5,-56.5 1026.5,-75.5 1153.5,-75.5 1153.5,-56.5 1026.5,-56.5"/>
<text text-anchor="middle" x="1090" y="-63.5" font-family="Helvetica,sans-Serif" font-size="10.00" fill="#000000">odp/api/spec/support.h</text>
</a>
</g>
</g>
<!-- Node28&#45;&gt;Node29 -->
<g id="edge46" class="edge">
<title>Node28&#45;&gt;Node29</title>
<path fill="none" stroke="#191970" d="M1090,-112.2455C1090,-104.9382 1090,-94.6944 1090,-85.7046"/>
<polygon fill="#191970" stroke="#191970" points="1093.5001,-85.6426 1090,-75.6427 1086.5001,-85.6427 1093.5001,-85.6426"/>
</g>
<!-- Node29&#45;&gt;Node4 -->
<g id="edge47" class="edge">
<title>Node29&#45;&gt;Node4</title>
<path fill="none" stroke="#191970" d="M1098.0126,-56.2455C1104.4768,-48.3761 1113.7385,-37.101 1121.4983,-27.6542"/>
<polygon fill="#191970" stroke="#191970" points="1124.4364,-29.5916 1128.0792,-19.6427 1119.0273,-25.1484 1124.4364,-29.5916"/>
</g>
<!-- Node29&#45;&gt;Node9 -->
<g id="edge48" class="edge">
<title>Node29&#45;&gt;Node9</title>
<path fill="none" stroke="#191970" d="M1026.4271,-58.9643C930.1641,-48.3107 748.293,-28.1826 650.3899,-17.3475"/>
<polygon fill="#191970" stroke="#191970" points="650.6431,-13.8542 640.3187,-16.2329 649.873,-20.8118 650.6431,-13.8542"/>
</g>
<!-- Node31 -->
<g id="node32" class="node">
<title>Node31</title>
<g id="a_node32"><a xlink:href="spec_2deprecated_8h.html" target="_top" xlink:title="Macro for deprecated API definitions. ">
<polygon fill="#ffffff" stroke="#000000" points="824.5,-56.5 824.5,-75.5 969.5,-75.5 969.5,-56.5 824.5,-56.5"/>
<text text-anchor="middle" x="897" y="-63.5" font-family="Helvetica,sans-Serif" font-size="10.00" fill="#000000">odp/api/spec/deprecated.h</text>
</a>
</g>
</g>
<!-- Node30&#45;&gt;Node31 -->
<g id="edge51" class="edge">
<title>Node30&#45;&gt;Node31</title>
<path fill="none" stroke="#191970" d="M897.9462,-235.3762C897.7889,-207.2097 897.3269,-124.5126 897.1121,-86.0713"/>
<polygon fill="#191970" stroke="#191970" points="900.6099,-85.6517 897.054,-75.6714 893.61,-85.6908 900.6099,-85.6517"/>
</g>
<!-- Node31&#45;&gt;Node4 -->
<g id="edge52" class="edge">
<title>Node31&#45;&gt;Node4</title>
<path fill="none" stroke="#191970" d="M937.814,-56.4369C978.6311,-46.8731 1041.4959,-32.1432 1085.4472,-21.845"/>
<polygon fill="#191970" stroke="#191970" points="1086.4165,-25.2128 1095.3543,-19.5237 1084.8195,-18.3973 1086.4165,-25.2128"/>
</g>
<!-- Node31&#45;&gt;Node9 -->
<g id="edge53" class="edge">
<title>Node31&#45;&gt;Node9</title>
<path fill="none" stroke="#191970" d="M843.549,-56.4369C789.1937,-46.712 704.9835,-31.6456 647.3181,-21.3285"/>
<polygon fill="#191970" stroke="#191970" points="647.6906,-17.8396 637.2305,-19.5237 646.4578,-24.7302 647.6906,-17.8396"/>
</g>
</g>
</svg>
