<?xml version="1.0" encoding="UTF-8" standalone="no"?>
<!DOCTYPE svg PUBLIC "-//W3C//DTD SVG 1.1//EN"
 "http://www.w3.org/Graphics/SVG/1.1/DTD/svg11.dtd">
<!-- Generated by graphviz version 2.40.1 (20161225.0304)
 -->
<!-- Title: schedule.h Pages: 1 -->
<svg width="1848pt" height="778pt"
 viewBox="0.00 0.00 1848.00 778.00" xmlns="http://www.w3.org/2000/svg" xmlns:xlink="http://www.w3.org/1999/xlink">
<g id="graph0" class="graph" transform="scale(1 1) rotate(0) translate(4 774)">
<title>schedule.h</title>
<polygon fill="#ffffff" stroke="transparent" points="-4,4 -4,-774 1844,-774 1844,4 -4,4"/>
<!-- Node0 -->
<g id="node1" class="node">
<title>Node0</title>
<polygon fill="#bfbfbf" stroke="#000000" points="1651.5,-750.5 1651.5,-769.5 1720.5,-769.5 1720.5,-750.5 1651.5,-750.5"/>
<text text-anchor="middle" x="1686" y="-757.5" font-family="Helvetica,sans-Serif" font-size="10.00" fill="#000000">schedule.h</text>
</g>
<!-- Node1 -->
<g id="node2" class="node">
<title>Node1</title>
<polygon fill="#ffffff" stroke="#bfbfbf" points="1575.5,-168.5 1575.5,-198.5 1692.5,-198.5 1692.5,-168.5 1575.5,-168.5"/>
<text text-anchor="start" x="1583.5" y="-186.5" font-family="Helvetica,sans-Serif" font-size="10.00" fill="#000000">odp/api/abi/schedule</text>
<text text-anchor="middle" x="1634" y="-175.5" font-family="Helvetica,sans-Serif" font-size="10.00" fill="#000000">_types.h</text>
</g>
<!-- Node0&#45;&gt;Node1 -->
<g id="edge1" class="edge">
<title>Node0&#45;&gt;Node1</title>
<path fill="none" stroke="#191970" d="M1686,-750.4116C1686,-731.0538 1686,-685.9167 1686,-648 1686,-648 1686,-648 1686,-306.5 1686,-273.6194 1680.2511,-265.0923 1667,-235 1662.7439,-225.3346 1656.8142,-215.4065 1651.1536,-206.8784"/>
<polygon fill="#191970" stroke="#191970" points="1653.9864,-204.8208 1645.4335,-198.5679 1648.2202,-208.7897 1653.9864,-204.8208"/>
</g>
<!-- Node2 -->
<g id="node3" class="node">
<title>Node2</title>
<polygon fill="#ffffff" stroke="#bfbfbf" points="1714,-694.5 1714,-713.5 1840,-713.5 1840,-694.5 1714,-694.5"/>
<text text-anchor="middle" x="1777" y="-701.5" font-family="Helvetica,sans-Serif" font-size="10.00" fill="#000000">odp/api/abi/schedule.h</text>
</g>
<!-- Node0&#45;&gt;Node2 -->
<g id="edge2" class="edge">
<title>Node0&#45;&gt;Node2</title>
<path fill="none" stroke="#191970" d="M1701.851,-750.2455C1715.8132,-741.6534 1736.3728,-729.0014 1752.4596,-719.1018"/>
<polygon fill="#191970" stroke="#191970" points="1754.6484,-721.8645 1761.3307,-713.6427 1750.9797,-715.9029 1754.6484,-721.8645"/>
</g>
<!-- Node3 -->
<g id="node4" class="node">
<title>Node3</title>
<g id="a_node4"><a xlink:href="spec_2schedule_8h.html" target="_top" xlink:title="ODP schedule. ">
<polygon fill="#ffffff" stroke="#000000" points="1037,-694.5 1037,-713.5 1171,-713.5 1171,-694.5 1037,-694.5"/>
<text text-anchor="middle" x="1104" y="-701.5" font-family="Helvetica,sans-Serif" font-size="10.00" fill="#000000">odp/api/spec/schedule.h</text>
</a>
</g>
</g>
<!-- Node0&#45;&gt;Node3 -->
<g id="edge3" class="edge">
<title>Node0&#45;&gt;Node3</title>
<path fill="none" stroke="#191970" d="M1651.3362,-756.6646C1559.7244,-747.8498 1309.4657,-723.7699 1181.5348,-711.4604"/>
<polygon fill="#191970" stroke="#191970" points="1181.7052,-707.9607 1171.4159,-710.4868 1181.0347,-714.9285 1181.7052,-707.9607"/>
</g>
<!-- Node4 -->
<g id="node5" class="node">
<title>Node4</title>
<polygon fill="#ffffff" stroke="#bfbfbf" points="1322.5,-.5 1322.5,-19.5 1443.5,-19.5 1443.5,-.5 1322.5,-.5"/>
<text text-anchor="middle" x="1383" y="-7.5" font-family="Helvetica,sans-Serif" font-size="10.00" fill="#000000">odp/visibility_begin.h</text>
</g>
<!-- Node3&#45;&gt;Node4 -->
<g id="edge4" class="edge">
<title>Node3&#45;&gt;Node4</title>
<path fill="none" stroke="#191970" d="M1171.1122,-701.4883C1248.401,-697.3271 1378.652,-686.4024 1487,-658 1549.8343,-641.5286 1571.4029,-642.7356 1622,-602 1716.4002,-525.9986 1762,-489.1924 1762,-368 1762,-368 1762,-368 1762,-122 1762,-58.4596 1563.6078,-28.2353 1453.8997,-16.3792"/>
<polygon fill="#191970" stroke="#191970" points="1454.2053,-12.8921 1443.8929,-15.3221 1453.4698,-19.8534 1454.2053,-12.8921"/>
</g>
<!-- Node5 -->
<g id="node6" class="node">
<title>Node5</title>
<g id="a_node6"><a xlink:href="std__types_8h.html" target="_top" xlink:title="Standard C language types and definitions for ODP. ">
<polygon fill="#ffffff" stroke="#000000" points="466,-235.5 466,-254.5 578,-254.5 578,-235.5 466,-235.5"/>
<text text-anchor="middle" x="522" y="-242.5" font-family="Helvetica,sans-Serif" font-size="10.00" fill="#000000">odp/api/std_types.h</text>
</a>
</g>
</g>
<!-- Node3&#45;&gt;Node5 -->
<g id="edge5" class="edge">
<title>Node3&#45;&gt;Node5</title>
<path fill="none" stroke="#191970" d="M1036.9891,-701.4108C847.5914,-693.2076 322,-663.9605 322,-592 322,-592 322,-592 322,-424 322,-353.6078 353.5592,-335.6235 408,-291 426.7509,-275.6304 451.309,-264.8432 472.8279,-257.5981"/>
<polygon fill="#191970" stroke="#191970" points="474.0106,-260.8945 482.4693,-254.5147 471.8784,-254.2272 474.0106,-260.8945"/>
</g>
<!-- Node12 -->
<g id="node13" class="node">
<title>Node12</title>
<polygon fill="#ffffff" stroke="#bfbfbf" points="698,-.5 698,-19.5 810,-19.5 810,-.5 698,-.5"/>
<text text-anchor="middle" x="754" y="-7.5" font-family="Helvetica,sans-Serif" font-size="10.00" fill="#000000">odp/visibility_end.h</text>
</g>
<!-- Node3&#45;&gt;Node12 -->
<g id="edge70" class="edge">
<title>Node3&#45;&gt;Node12</title>
<path fill="none" stroke="#191970" d="M1036.8282,-701.8228C866.7575,-696.0607 422.2871,-679.3781 276,-658 151.2004,-639.7621 0,-718.1252 0,-592 0,-592 0,-592 0,-122 0,-52.7558 503.9665,-21.8733 687.8623,-12.9093"/>
<polygon fill="#191970" stroke="#191970" points="688.1232,-16.4009 697.9435,-12.4243 687.7868,-9.409 688.1232,-16.4009"/>
</g>
<!-- Node13 -->
<g id="node14" class="node">
<title>Node13</title>
<g id="a_node14"><a xlink:href="event_8h.html" target="_top" xlink:title="ODP event. ">
<polygon fill="#ffffff" stroke="#000000" points="1143,-526.5 1143,-545.5 1235,-545.5 1235,-526.5 1143,-526.5"/>
<text text-anchor="middle" x="1189" y="-533.5" font-family="Helvetica,sans-Serif" font-size="10.00" fill="#000000">odp/api/event.h</text>
</a>
</g>
</g>
<!-- Node3&#45;&gt;Node13 -->
<g id="edge16" class="edge">
<title>Node3&#45;&gt;Node13</title>
<path fill="none" stroke="#191970" d="M1111.4112,-694.3854C1124.6045,-676.8781 1152.3392,-638.2516 1169,-602 1175.8748,-587.0415 1181.1343,-569.1116 1184.5304,-555.7175"/>
<polygon fill="#191970" stroke="#191970" points="1188.0046,-556.2393 1186.9394,-545.6982 1181.1985,-554.6028 1188.0046,-556.2393"/>
</g>
<!-- Node25 -->
<g id="node26" class="node">
<title>Node25</title>
<g id="a_node26"><a xlink:href="queue_8h.html" target="_top" xlink:title="ODP queue. ">
<polygon fill="#ffffff" stroke="#000000" points="971.5,-638.5 971.5,-657.5 1066.5,-657.5 1066.5,-638.5 971.5,-638.5"/>
<text text-anchor="middle" x="1019" y="-645.5" font-family="Helvetica,sans-Serif" font-size="10.00" fill="#000000">odp/api/queue.h</text>
</a>
</g>
</g>
<!-- Node3&#45;&gt;Node25 -->
<g id="edge37" class="edge">
<title>Node3&#45;&gt;Node25</title>
<path fill="none" stroke="#191970" d="M1089.1941,-694.2455C1076.2744,-685.7337 1057.3069,-673.2375 1042.3448,-663.3801"/>
<polygon fill="#191970" stroke="#191970" points="1043.9124,-660.2216 1033.6362,-657.6427 1040.0613,-666.067 1043.9124,-660.2216"/>
</g>
<!-- Node29 -->
<g id="node30" class="node">
<title>Node29</title>
<g id="a_node30"><a xlink:href="schedule__types_8h.html" target="_top" xlink:title="ODP schedule. ">
<polygon fill="#ffffff" stroke="#000000" points="1518,-235.5 1518,-254.5 1658,-254.5 1658,-235.5 1518,-235.5"/>
<text text-anchor="middle" x="1588" y="-242.5" font-family="Helvetica,sans-Serif" font-size="10.00" fill="#000000">odp/api/schedule_types.h</text>
</a>
</g>
</g>
<!-- Node3&#45;&gt;Node29 -->
<g id="edge63" class="edge">
<title>Node3&#45;&gt;Node29</title>
<path fill="none" stroke="#191970" d="M1171.1929,-696.0867C1308.8348,-678.9644 1610,-636.4244 1610,-592 1610,-592 1610,-592 1610,-368 1610,-330.9405 1600.2028,-288.5675 1593.6843,-264.4763"/>
<polygon fill="#191970" stroke="#191970" points="1597.0354,-263.4634 1590.967,-254.7786 1590.295,-265.3521 1597.0354,-263.4634"/>
</g>
<!-- Node35 -->
<g id="node36" class="node">
<title>Node35</title>
<g id="a_node36"><a xlink:href="thrmask_8h.html" target="_top" xlink:title="ODP thread masks. ">
<polygon fill="#ffffff" stroke="#000000" points="182.5,-358.5 182.5,-377.5 287.5,-377.5 287.5,-358.5 182.5,-358.5"/>
<text text-anchor="middle" x="235" y="-365.5" font-family="Helvetica,sans-Serif" font-size="10.00" fill="#000000">odp/api/thrmask.h</text>
</a>
</g>
</g>
<!-- Node3&#45;&gt;Node35 -->
<g id="edge64" class="edge">
<title>Node3&#45;&gt;Node35</title>
<path fill="none" stroke="#191970" d="M1036.8227,-703.4911C856.391,-701.6534 370.6051,-693.435 308,-658 277.1031,-640.5121 263,-627.5027 263,-592 263,-592 263,-592 263,-480 263,-446.5848 251.1246,-409.1911 242.8415,-387.1729"/>
<polygon fill="#191970" stroke="#191970" points="246.0326,-385.7229 239.1315,-377.6839 239.5132,-388.2719 246.0326,-385.7229"/>
</g>
<!-- Node6 -->
<g id="node7" class="node">
<title>Node6</title>
<polygon fill="#ffffff" stroke="#bfbfbf" points="647,-174 647,-193 777,-193 777,-174 647,-174"/>
<text text-anchor="middle" x="712" y="-181" font-family="Helvetica,sans-Serif" font-size="10.00" fill="#000000">odp/api/abi/std_types.h</text>
</g>
<!-- Node5&#45;&gt;Node6 -->
<g id="edge6" class="edge">
<title>Node5&#45;&gt;Node6</title>
<path fill="none" stroke="#191970" d="M551.6875,-235.3906C584.3146,-224.8298 636.8626,-207.8208 672.8425,-196.1747"/>
<polygon fill="#191970" stroke="#191970" points="674.0848,-199.4514 682.521,-193.0419 671.9291,-192.7916 674.0848,-199.4514"/>
</g>
<!-- Node7 -->
<g id="node8" class="node">
<title>Node7</title>
<g id="a_node8"><a xlink:href="spec_2std__types_8h.html" target="_top" xlink:title="Standard C language types and definitions for ODP. ">
<polygon fill="#ffffff" stroke="#000000" points="453.5,-174 453.5,-193 590.5,-193 590.5,-174 453.5,-174"/>
<text text-anchor="middle" x="522" y="-181" font-family="Helvetica,sans-Serif" font-size="10.00" fill="#000000">odp/api/spec/std_types.h</text>
</a>
</g>
</g>
<!-- Node5&#45;&gt;Node7 -->
<g id="edge7" class="edge">
<title>Node5&#45;&gt;Node7</title>
<path fill="none" stroke="#191970" d="M522,-235.3906C522,-226.8657 522,-214.1392 522,-203.4235"/>
<polygon fill="#191970" stroke="#191970" points="525.5001,-203.2448 522,-193.2449 518.5001,-203.2449 525.5001,-203.2448"/>
</g>
<!-- Node7&#45;&gt;Node4 -->
<g id="edge8" class="edge">
<title>Node7&#45;&gt;Node4</title>
<path fill="none" stroke="#191970" d="M572.4517,-173.9404C583.1892,-171.9445 594.465,-169.8774 605,-168 751.456,-141.9002 788.0199,-134.9656 935,-112 1046.7808,-94.5343 1078.4032,-107.7292 1187,-76 1207.6189,-69.9757 1210.8979,-63.5722 1231,-56 1265.8869,-42.8586 1306.325,-30.7664 1336.7175,-22.2812"/>
<polygon fill="#191970" stroke="#191970" points="1337.9105,-25.5828 1346.6169,-19.5455 1336.0459,-18.8356 1337.9105,-25.5828"/>
</g>
<!-- Node8 -->
<g id="node9" class="node">
<title>Node8</title>
<polygon fill="#ffffff" stroke="#bfbfbf" points="493.5,-112.5 493.5,-131.5 546.5,-131.5 546.5,-112.5 493.5,-112.5"/>
<text text-anchor="middle" x="520" y="-119.5" font-family="Helvetica,sans-Serif" font-size="10.00" fill="#000000">stdint.h</text>
</g>
<!-- Node7&#45;&gt;Node8 -->
<g id="edge9" class="edge">
<title>Node7&#45;&gt;Node8</title>
<path fill="none" stroke="#191970" d="M521.6875,-173.8906C521.4103,-165.3657 520.9964,-152.6392 520.6479,-141.9235"/>
<polygon fill="#191970" stroke="#191970" points="524.1402,-141.6258 520.3169,-131.7449 517.1439,-141.8534 524.1402,-141.6258"/>
</g>
<!-- Node9 -->
<g id="node10" class="node">
<title>Node9</title>
<g id="a_node10"><a xlink:href="align_8h.html" target="_top" xlink:title="ODP alignments. ">
<polygon fill="#ffffff" stroke="#000000" points="603.5,-112.5 603.5,-131.5 692.5,-131.5 692.5,-112.5 603.5,-112.5"/>
<text text-anchor="middle" x="648" y="-119.5" font-family="Helvetica,sans-Serif" font-size="10.00" fill="#000000">odp/api/align.h</text>
</a>
</g>
</g>
<!-- Node7&#45;&gt;Node9 -->
<g id="edge10" class="edge">
<title>Node7&#45;&gt;Node9</title>
<path fill="none" stroke="#191970" d="M541.6875,-173.8906C562.4922,-163.7359 595.511,-147.6196 619.2319,-136.0416"/>
<polygon fill="#191970" stroke="#191970" points="620.9993,-139.0736 628.4507,-131.5419 617.9288,-132.783 620.9993,-139.0736"/>
</g>
<!-- Node7&#45;&gt;Node12 -->
<g id="edge15" class="edge">
<title>Node7&#45;&gt;Node12</title>
<path fill="none" stroke="#191970" d="M511.9695,-173.9687C502.6757,-164.3855 489.4866,-148.6767 484,-132 478.3343,-114.7791 475.5889,-68.832 487,-56 512.919,-26.8535 617.3105,-16.1655 687.6236,-12.2524"/>
<polygon fill="#191970" stroke="#191970" points="687.9337,-15.741 697.737,-11.7228 687.5676,-8.7506 687.9337,-15.741"/>
</g>
<!-- Node10 -->
<g id="node11" class="node">
<title>Node10</title>
<polygon fill="#ffffff" stroke="#bfbfbf" points="529.5,-56.5 529.5,-75.5 636.5,-75.5 636.5,-56.5 529.5,-56.5"/>
<text text-anchor="middle" x="583" y="-63.5" font-family="Helvetica,sans-Serif" font-size="10.00" fill="#000000">odp/api/abi/align.h</text>
</g>
<!-- Node9&#45;&gt;Node10 -->
<g id="edge11" class="edge">
<title>Node9&#45;&gt;Node10</title>
<path fill="none" stroke="#191970" d="M636.6779,-112.2455C627.0777,-103.9746 613.1108,-91.9416 601.8305,-82.2232"/>
<polygon fill="#191970" stroke="#191970" points="604.053,-79.5182 594.1924,-75.6427 599.484,-84.8214 604.053,-79.5182"/>
</g>
<!-- Node11 -->
<g id="node12" class="node">
<title>Node11</title>
<g id="a_node12"><a xlink:href="spec_2align_8h.html" target="_top" xlink:title="ODP alignments. ">
<polygon fill="#ffffff" stroke="#000000" points="655,-56.5 655,-75.5 769,-75.5 769,-56.5 655,-56.5"/>
<text text-anchor="middle" x="712" y="-63.5" font-family="Helvetica,sans-Serif" font-size="10.00" fill="#000000">odp/api/spec/align.h</text>
</a>
</g>
</g>
<!-- Node9&#45;&gt;Node11 -->
<g id="edge12" class="edge">
<title>Node9&#45;&gt;Node11</title>
<path fill="none" stroke="#191970" d="M659.1479,-112.2455C668.5087,-104.0549 682.0858,-92.1749 693.1349,-82.5069"/>
<polygon fill="#191970" stroke="#191970" points="695.7588,-84.8618 700.9798,-75.6427 691.1492,-79.5937 695.7588,-84.8618"/>
</g>
<!-- Node11&#45;&gt;Node4 -->
<g id="edge13" class="edge">
<title>Node11&#45;&gt;Node4</title>
<path fill="none" stroke="#191970" d="M769.2028,-60.3452C784.4085,-58.8843 800.8229,-57.3452 816,-56 994.4511,-40.1827 1204.6944,-23.6849 1312.0751,-15.4127"/>
<polygon fill="#191970" stroke="#191970" points="1312.4392,-18.8952 1322.1412,-14.6382 1311.9021,-11.9158 1312.4392,-18.8952"/>
</g>
<!-- Node11&#45;&gt;Node12 -->
<g id="edge14" class="edge">
<title>Node11&#45;&gt;Node12</title>
<path fill="none" stroke="#191970" d="M719.3158,-56.2455C725.2179,-48.3761 733.6742,-37.101 740.7594,-27.6542"/>
<polygon fill="#191970" stroke="#191970" points="743.568,-29.7427 746.768,-19.6427 737.9679,-25.5427 743.568,-29.7427"/>
</g>
<!-- Node14 -->
<g id="node15" class="node">
<title>Node14</title>
<polygon fill="#ffffff" stroke="#bfbfbf" points="388,-358.5 388,-377.5 498,-377.5 498,-358.5 388,-358.5"/>
<text text-anchor="middle" x="443" y="-365.5" font-family="Helvetica,sans-Serif" font-size="10.00" fill="#000000">odp/api/abi/event.h</text>
</g>
<!-- Node13&#45;&gt;Node14 -->
<g id="edge17" class="edge">
<title>Node13&#45;&gt;Node14</title>
<path fill="none" stroke="#191970" d="M1146.7544,-526.4862C1018.8062,-497.6722 635.7238,-411.4016 495.3206,-379.7826"/>
<polygon fill="#191970" stroke="#191970" points="495.7682,-376.2959 485.2435,-377.5133 494.2302,-383.1248 495.7682,-376.2959"/>
</g>
<!-- Node15 -->
<g id="node16" class="node">
<title>Node15</title>
<g id="a_node16"><a xlink:href="spec_2event_8h.html" target="_top" xlink:title="ODP event. ">
<polygon fill="#ffffff" stroke="#000000" points="1130,-470.5 1130,-489.5 1248,-489.5 1248,-470.5 1130,-470.5"/>
<text text-anchor="middle" x="1189" y="-477.5" font-family="Helvetica,sans-Serif" font-size="10.00" fill="#000000">odp/api/spec/event.h</text>
</a>
</g>
</g>
<!-- Node13&#45;&gt;Node15 -->
<g id="edge18" class="edge">
<title>Node13&#45;&gt;Node15</title>
<path fill="none" stroke="#191970" d="M1189,-526.2455C1189,-518.9382 1189,-508.6944 1189,-499.7046"/>
<polygon fill="#191970" stroke="#191970" points="1192.5001,-499.6426 1189,-489.6427 1185.5001,-499.6427 1192.5001,-499.6426"/>
</g>
<!-- Node15&#45;&gt;Node4 -->
<g id="edge19" class="edge">
<title>Node15&#45;&gt;Node4</title>
<path fill="none" stroke="#191970" d="M1214.9001,-470.3737C1251.5134,-454.8905 1314,-420.7402 1314,-368 1314,-368 1314,-368 1314,-306.5 1314,-273.6194 1310.3534,-258.8384 1333,-235 1369.012,-197.0927 1409.7433,-237.6108 1445,-199 1487.8569,-152.0661 1479.9651,-108.4025 1444,-56 1435.3274,-43.3638 1422.0567,-32.7632 1410.1054,-24.935"/>
<polygon fill="#191970" stroke="#191970" points="1411.667,-21.7855 1401.3213,-19.5013 1407.9845,-27.7386 1411.667,-21.7855"/>
</g>
<!-- Node15&#45;&gt;Node12 -->
<g id="edge36" class="edge">
<title>Node15&#45;&gt;Node12</title>
<path fill="none" stroke="#191970" d="M1196.0287,-470.3313C1210.8992,-448.5875 1242.3365,-394.8562 1219,-358 1106.5749,-180.4434 988.121,-225.557 786,-168 702.4992,-144.2219 673.3953,-167.1306 594,-132 575.1413,-123.6554 529.1828,-94.4651 520,-76 516.0419,-68.041 514.3532,-62.8649 520,-56 540.9281,-30.5573 626.2636,-18.9709 687.8421,-13.8456"/>
<polygon fill="#191970" stroke="#191970" points="688.1985,-17.3284 697.8903,-13.0484 687.6448,-10.3503 688.1985,-17.3284"/>
</g>
<!-- Node16 -->
<g id="node17" class="node">
<title>Node16</title>
<g id="a_node17"><a xlink:href="packet_8h.html" target="_top" xlink:title="ODP packet descriptor. ">
<polygon fill="#ffffff" stroke="#000000" points="780,-414.5 780,-433.5 878,-433.5 878,-414.5 780,-414.5"/>
<text text-anchor="middle" x="829" y="-421.5" font-family="Helvetica,sans-Serif" font-size="10.00" fill="#000000">odp/api/packet.h</text>
</a>
</g>
</g>
<!-- Node15&#45;&gt;Node16 -->
<g id="edge20" class="edge">
<title>Node15&#45;&gt;Node16</title>
<path fill="none" stroke="#191970" d="M1129.9564,-470.8154C1063.1698,-460.4264 955.0343,-443.6053 888.1881,-433.207"/>
<polygon fill="#191970" stroke="#191970" points="888.6503,-429.7369 878.2311,-431.6582 887.5742,-436.6537 888.6503,-429.7369"/>
</g>
<!-- Node16&#45;&gt;Node5 -->
<g id="edge21" class="edge">
<title>Node16&#45;&gt;Node5</title>
<path fill="none" stroke="#191970" d="M779.9937,-419.1622C703.1859,-411.1257 561.4661,-394.2915 545,-378 514.8534,-348.1731 515.8359,-294.0493 519.0009,-264.8878"/>
<polygon fill="#191970" stroke="#191970" points="522.5056,-265.0743 520.3089,-254.7097 515.5627,-264.1819 522.5056,-265.0743"/>
</g>
<!-- Node16&#45;&gt;Node14 -->
<g id="edge22" class="edge">
<title>Node16&#45;&gt;Node14</title>
<path fill="none" stroke="#191970" d="M779.7208,-416.8507C710.6695,-406.8329 584.9934,-388.6001 508.2458,-377.4657"/>
<polygon fill="#191970" stroke="#191970" points="508.6128,-373.9824 498.2138,-376.0103 507.6077,-380.9099 508.6128,-373.9824"/>
</g>
<!-- Node17 -->
<g id="node18" class="node">
<title>Node17</title>
<polygon fill="#ffffff" stroke="#bfbfbf" points="554,-358.5 554,-377.5 684,-377.5 684,-358.5 554,-358.5"/>
<text text-anchor="middle" x="619" y="-365.5" font-family="Helvetica,sans-Serif" font-size="10.00" fill="#000000">odp/api/abi/packet_io.h</text>
</g>
<!-- Node16&#45;&gt;Node17 -->
<g id="edge23" class="edge">
<title>Node16&#45;&gt;Node17</title>
<path fill="none" stroke="#191970" d="M792.8997,-414.3733C757.3752,-404.9001 703.012,-390.4032 664.5381,-380.1435"/>
<polygon fill="#191970" stroke="#191970" points="665.1934,-376.696 654.6292,-377.5011 663.3897,-383.4596 665.1934,-376.696"/>
</g>
<!-- Node18 -->
<g id="node19" class="node">
<title>Node18</title>
<polygon fill="#ffffff" stroke="#bfbfbf" points="702,-358.5 702,-377.5 818,-377.5 818,-358.5 702,-358.5"/>
<text text-anchor="middle" x="760" y="-365.5" font-family="Helvetica,sans-Serif" font-size="10.00" fill="#000000">odp/api/abi/packet.h</text>
</g>
<!-- Node16&#45;&gt;Node18 -->
<g id="edge24" class="edge">
<title>Node16&#45;&gt;Node18</title>
<path fill="none" stroke="#191970" d="M816.9811,-414.2455C806.7902,-405.9746 791.9638,-393.9416 779.9893,-384.2232"/>
<polygon fill="#191970" stroke="#191970" points="781.8514,-381.2268 771.8812,-377.6427 777.4402,-386.662 781.8514,-381.2268"/>
</g>
<!-- Node19 -->
<g id="node20" class="node">
<title>Node19</title>
<polygon fill="#ffffff" stroke="#bfbfbf" points="978,-358.5 978,-377.5 1088,-377.5 1088,-358.5 978,-358.5"/>
<text text-anchor="middle" x="1033" y="-365.5" font-family="Helvetica,sans-Serif" font-size="10.00" fill="#000000">odp/api/abi/buffer.h</text>
</g>
<!-- Node16&#45;&gt;Node19 -->
<g id="edge25" class="edge">
<title>Node16&#45;&gt;Node19</title>
<path fill="none" stroke="#191970" d="M864.0689,-414.3733C898.4315,-404.9404 950.9392,-390.5265 988.2851,-380.2747"/>
<polygon fill="#191970" stroke="#191970" points="989.672,-383.5235 998.3888,-377.5011 987.819,-376.7732 989.672,-383.5235"/>
</g>
<!-- Node20 -->
<g id="node21" class="node">
<title>Node20</title>
<polygon fill="#ffffff" stroke="#bfbfbf" points="1106,-358.5 1106,-377.5 1210,-377.5 1210,-358.5 1106,-358.5"/>
<text text-anchor="middle" x="1158" y="-365.5" font-family="Helvetica,sans-Serif" font-size="10.00" fill="#000000">odp/api/abi/pool.h</text>
</g>
<!-- Node16&#45;&gt;Node20 -->
<g id="edge26" class="edge">
<title>Node16&#45;&gt;Node20</title>
<path fill="none" stroke="#191970" d="M878.2546,-415.6162C936.2429,-405.7459 1032.628,-389.3399 1095.7416,-378.5972"/>
<polygon fill="#191970" stroke="#191970" points="1096.6896,-381.9862 1105.9605,-376.8578 1095.5149,-375.0855 1096.6896,-381.9862"/>
</g>
<!-- Node21 -->
<g id="node22" class="node">
<title>Node21</title>
<g id="a_node22"><a xlink:href="spec_2packet_8h.html" target="_top" xlink:title="ODP packet descriptor. ">
<polygon fill="#ffffff" stroke="#000000" points="836.5,-358.5 836.5,-377.5 959.5,-377.5 959.5,-358.5 836.5,-358.5"/>
<text text-anchor="middle" x="898" y="-365.5" font-family="Helvetica,sans-Serif" font-size="10.00" fill="#000000">odp/api/spec/packet.h</text>
</a>
</g>
</g>
<!-- Node16&#45;&gt;Node21 -->
<g id="edge27" class="edge">
<title>Node16&#45;&gt;Node21</title>
<path fill="none" stroke="#191970" d="M841.0189,-414.2455C851.2098,-405.9746 866.0362,-393.9416 878.0107,-384.2232"/>
<polygon fill="#191970" stroke="#191970" points="880.5598,-386.662 886.1188,-377.6427 876.1486,-381.2268 880.5598,-386.662"/>
</g>
<!-- Node21&#45;&gt;Node4 -->
<g id="edge28" class="edge">
<title>Node21&#45;&gt;Node4</title>
<path fill="none" stroke="#191970" d="M926.1728,-358.3523C991.6063,-336.0166 1159.0311,-279.2789 1300,-235 1353.529,-218.1863 1386.5499,-243.2859 1421,-199 1460.0471,-148.8047 1449.3433,-115.1552 1426,-56 1421.4531,-44.4774 1412.5068,-34.143 1403.9466,-26.2024"/>
<polygon fill="#191970" stroke="#191970" points="1406.1847,-23.5106 1396.331,-19.6175 1401.6062,-28.8057 1406.1847,-23.5106"/>
</g>
<!-- Node21&#45;&gt;Node12 -->
<g id="edge35" class="edge">
<title>Node21&#45;&gt;Node12</title>
<path fill="none" stroke="#191970" d="M878.4121,-358.3332C829.9638,-334.7107 700.2317,-273.1998 587,-235 524.9,-214.05 484.2908,-250.691 444,-199 415.7129,-162.7091 418.3518,-107.8981 477,-56 507.4467,-29.0576 615.8097,-17.696 687.6311,-13.0494"/>
<polygon fill="#191970" stroke="#191970" points="688.184,-16.522 697.9489,-12.4115 687.752,-9.5354 688.184,-16.522"/>
</g>
<!-- Node22 -->
<g id="node23" class="node">
<title>Node22</title>
<g id="a_node23"><a xlink:href="time_8h.html" target="_top" xlink:title="ODP time. ">
<polygon fill="#ffffff" stroke="#000000" points="854.5,-297 854.5,-316 941.5,-316 941.5,-297 854.5,-297"/>
<text text-anchor="middle" x="898" y="-304" font-family="Helvetica,sans-Serif" font-size="10.00" fill="#000000">odp/api/time.h</text>
</a>
</g>
</g>
<!-- Node21&#45;&gt;Node22 -->
<g id="edge29" class="edge">
<title>Node21&#45;&gt;Node22</title>
<path fill="none" stroke="#191970" d="M898,-358.3906C898,-349.8657 898,-337.1392 898,-326.4235"/>
<polygon fill="#191970" stroke="#191970" points="901.5001,-326.2448 898,-316.2449 894.5001,-326.2449 901.5001,-326.2448"/>
</g>
<!-- Node22&#45;&gt;Node5 -->
<g id="edge30" class="edge">
<title>Node22&#45;&gt;Node5</title>
<path fill="none" stroke="#191970" d="M854.1321,-299.3248C788.5946,-288.6052 664.6552,-268.3332 588.1077,-255.8128"/>
<polygon fill="#191970" stroke="#191970" points="588.5273,-252.335 578.0934,-254.1749 587.3973,-259.2432 588.5273,-252.335"/>
</g>
<!-- Node23 -->
<g id="node24" class="node">
<title>Node23</title>
<polygon fill="#ffffff" stroke="#bfbfbf" points="845.5,-235.5 845.5,-254.5 950.5,-254.5 950.5,-235.5 845.5,-235.5"/>
<text text-anchor="middle" x="898" y="-242.5" font-family="Helvetica,sans-Serif" font-size="10.00" fill="#000000">odp/api/abi/time.h</text>
</g>
<!-- Node22&#45;&gt;Node23 -->
<g id="edge31" class="edge">
<title>Node22&#45;&gt;Node23</title>
<path fill="none" stroke="#191970" d="M898,-296.8906C898,-288.3657 898,-275.6392 898,-264.9235"/>
<polygon fill="#191970" stroke="#191970" points="901.5001,-264.7448 898,-254.7449 894.5001,-264.7449 901.5001,-264.7448"/>
</g>
<!-- Node24 -->
<g id="node25" class="node">
<title>Node24</title>
<g id="a_node25"><a xlink:href="spec_2time_8h.html" target="_top" xlink:title="ODP time. ">
<polygon fill="#ffffff" stroke="#000000" points="825.5,-56.5 825.5,-75.5 938.5,-75.5 938.5,-56.5 825.5,-56.5"/>
<text text-anchor="middle" x="882" y="-63.5" font-family="Helvetica,sans-Serif" font-size="10.00" fill="#000000">odp/api/spec/time.h</text>
</a>
</g>
</g>
<!-- Node22&#45;&gt;Node24 -->
<g id="edge32" class="edge">
<title>Node22&#45;&gt;Node24</title>
<path fill="none" stroke="#191970" d="M916.5023,-296.8461C931.0636,-288.1028 950.3007,-273.7295 959,-255 962.7444,-246.9383 960.8856,-243.6866 959,-235 946.3479,-176.7157 911.7767,-114.423 893.569,-84.3461"/>
<polygon fill="#191970" stroke="#191970" points="896.5048,-82.4386 888.2809,-75.7588 890.5443,-86.1091 896.5048,-82.4386"/>
</g>
<!-- Node24&#45;&gt;Node4 -->
<g id="edge33" class="edge">
<title>Node24&#45;&gt;Node4</title>
<path fill="none" stroke="#191970" d="M938.9833,-59.6306C1030.9737,-49.3482 1211.9866,-29.1153 1312.1464,-17.9198"/>
<polygon fill="#191970" stroke="#191970" points="1312.6236,-21.3883 1322.1729,-16.799 1311.846,-14.4316 1312.6236,-21.3883"/>
</g>
<!-- Node24&#45;&gt;Node12 -->
<g id="edge34" class="edge">
<title>Node24&#45;&gt;Node12</title>
<path fill="none" stroke="#191970" d="M859.996,-56.3733C839.3565,-47.3435 808.2842,-33.7494 785.1111,-23.6111"/>
<polygon fill="#191970" stroke="#191970" points="786.2813,-20.3028 775.7169,-19.5011 783.4755,-26.7159 786.2813,-20.3028"/>
</g>
<!-- Node25&#45;&gt;Node5 -->
<g id="edge38" class="edge">
<title>Node25&#45;&gt;Node5</title>
<path fill="none" stroke="#191970" d="M971.3412,-644.9406C819.9658,-634.5942 360,-598.0506 360,-536 360,-536 360,-536 360,-424 360,-393.4754 361.9875,-383.3442 379,-358 408.8547,-313.5245 461.7581,-278.4563 494.1713,-259.8026"/>
<polygon fill="#191970" stroke="#191970" points="496.1284,-262.7175 503.1292,-254.7651 492.6972,-256.6161 496.1284,-262.7175"/>
</g>
<!-- Node25&#45;&gt;Node14 -->
<g id="edge39" class="edge">
<title>Node25&#45;&gt;Node14</title>
<path fill="none" stroke="#191970" d="M971.4838,-642.8806C842.2503,-628.3207 494,-584.5788 494,-536 494,-536 494,-536 494,-480 494,-444.0802 472.0045,-407.0352 456.9033,-385.8345"/>
<polygon fill="#191970" stroke="#191970" points="459.5094,-383.4725 450.7458,-377.5185 453.8837,-387.638 459.5094,-383.4725"/>
</g>
<!-- Node25&#45;&gt;Node19 -->
<g id="edge41" class="edge">
<title>Node25&#45;&gt;Node19</title>
<path fill="none" stroke="#191970" d="M1013.393,-638.4834C1002.8226,-619.6141 981,-575.8343 981,-536 981,-536 981,-536 981,-480 981,-443.9842 1003.3945,-407.0048 1018.7908,-385.8372"/>
<polygon fill="#191970" stroke="#191970" points="1021.6405,-387.8714 1024.875,-377.7823 1016.0549,-383.6522 1021.6405,-387.8714"/>
</g>
<!-- Node25&#45;&gt;Node20 -->
<g id="edge42" class="edge">
<title>Node25&#45;&gt;Node20</title>
<path fill="none" stroke="#191970" d="M1019,-638.4116C1019,-619.0538 1019,-573.9167 1019,-536 1019,-536 1019,-536 1019,-480 1019,-429.0738 1076.2728,-397.3787 1117.2917,-381.2092"/>
<polygon fill="#191970" stroke="#191970" points="1118.6862,-384.4239 1126.8057,-377.6178 1116.214,-377.875 1118.6862,-384.4239"/>
</g>
<!-- Node26 -->
<g id="node27" class="node">
<title>Node26</title>
<polygon fill="#ffffff" stroke="#bfbfbf" points="1047.5,-582.5 1047.5,-601.5 1160.5,-601.5 1160.5,-582.5 1047.5,-582.5"/>
<text text-anchor="middle" x="1104" y="-589.5" font-family="Helvetica,sans-Serif" font-size="10.00" fill="#000000">odp/api/abi/queue.h</text>
</g>
<!-- Node25&#45;&gt;Node26 -->
<g id="edge40" class="edge">
<title>Node25&#45;&gt;Node26</title>
<path fill="none" stroke="#191970" d="M1033.8059,-638.2455C1046.7256,-629.7337 1065.6931,-617.2375 1080.6552,-607.3801"/>
<polygon fill="#191970" stroke="#191970" points="1082.9387,-610.067 1089.3638,-601.6427 1079.0876,-604.2216 1082.9387,-610.067"/>
</g>
<!-- Node27 -->
<g id="node28" class="node">
<title>Node27</title>
<g id="a_node28"><a xlink:href="spec_2queue_8h.html" target="_top" xlink:title="ODP queue. ">
<polygon fill="#ffffff" stroke="#000000" points="1217,-582.5 1217,-601.5 1337,-601.5 1337,-582.5 1217,-582.5"/>
<text text-anchor="middle" x="1277" y="-589.5" font-family="Helvetica,sans-Serif" font-size="10.00" fill="#000000">odp/api/spec/queue.h</text>
</a>
</g>
</g>
<!-- Node25&#45;&gt;Node27 -->
<g id="edge43" class="edge">
<title>Node25&#45;&gt;Node27</title>
<path fill="none" stroke="#191970" d="M1063.0586,-638.4369C1107.3989,-628.8127 1175.8411,-613.957 1223.3249,-603.6504"/>
<polygon fill="#191970" stroke="#191970" points="1224.0931,-607.0653 1233.1231,-601.5237 1222.6082,-600.2245 1224.0931,-607.0653"/>
</g>
<!-- Node27&#45;&gt;Node4 -->
<g id="edge44" class="edge">
<title>Node27&#45;&gt;Node4</title>
<path fill="none" stroke="#191970" d="M1337.2844,-589.0391C1459.2963,-579.4691 1724,-539.0018 1724,-368 1724,-368 1724,-368 1724,-122 1724,-65.5967 1553.4748,-32.9573 1453.6013,-18.6779"/>
<polygon fill="#191970" stroke="#191970" points="1453.9602,-15.1941 1443.571,-17.2715 1452.9881,-22.1263 1453.9602,-15.1941"/>
</g>
<!-- Node27&#45;&gt;Node12 -->
<g id="edge62" class="edge">
<title>Node27&#45;&gt;Node12</title>
<path fill="none" stroke="#191970" d="M1276.8567,-582.4119C1276.5802,-563.0545 1276,-517.9182 1276,-480 1276,-480 1276,-480 1276,-424 1276,-167.6422 1020.1957,-230.9949 816,-76 797.5413,-61.9889 779.7836,-42.2307 768.0397,-27.9893"/>
<polygon fill="#191970" stroke="#191970" points="770.551,-25.5275 761.552,-19.9355 765.0997,-29.9188 770.551,-25.5275"/>
</g>
<!-- Node27&#45;&gt;Node13 -->
<g id="edge45" class="edge">
<title>Node27&#45;&gt;Node13</title>
<path fill="none" stroke="#191970" d="M1261.6716,-582.2455C1248.1697,-573.6534 1228.2878,-561.0014 1212.7314,-551.1018"/>
<polygon fill="#191970" stroke="#191970" points="1214.4685,-548.0587 1204.1528,-545.6427 1210.7103,-553.9643 1214.4685,-548.0587"/>
</g>
<!-- Node28 -->
<g id="node29" class="node">
<title>Node28</title>
<g id="a_node29"><a xlink:href="queue__types_8h.html" target="_top" xlink:title="ODP queue types. ">
<polygon fill="#ffffff" stroke="#000000" points="1346.5,-291.5 1346.5,-321.5 1457.5,-321.5 1457.5,-291.5 1346.5,-291.5"/>
<text text-anchor="start" x="1354.5" y="-309.5" font-family="Helvetica,sans-Serif" font-size="10.00" fill="#000000">odp/api/spec/queue</text>
<text text-anchor="middle" x="1402" y="-298.5" font-family="Helvetica,sans-Serif" font-size="10.00" fill="#000000">_types.h</text>
</a>
</g>
</g>
<!-- Node27&#45;&gt;Node28 -->
<g id="edge46" class="edge">
<title>Node27&#45;&gt;Node28</title>
<path fill="none" stroke="#191970" d="M1295.3415,-582.3328C1324.2107,-565.6392 1377,-528.4848 1377,-480 1377,-480 1377,-480 1377,-424 1377,-391.4802 1386.2746,-354.9844 1393.5258,-331.4203"/>
<polygon fill="#191970" stroke="#191970" points="1396.8697,-332.4543 1396.5754,-321.8635 1390.201,-330.3262 1396.8697,-332.4543"/>
</g>
<!-- Node28&#45;&gt;Node4 -->
<g id="edge47" class="edge">
<title>Node28&#45;&gt;Node4</title>
<path fill="none" stroke="#191970" d="M1427.5083,-291.3647C1454.9443,-273.3701 1496.8103,-240.4855 1513,-199 1536.1258,-139.7411 1556.0805,-107.6861 1519,-56 1509.2233,-42.3724 1472.1413,-30.3603 1439.1644,-22.0314"/>
<polygon fill="#191970" stroke="#191970" points="1439.6422,-18.545 1429.0968,-19.567 1437.9779,-25.3443 1439.6422,-18.545"/>
</g>
<!-- Node28&#45;&gt;Node12 -->
<g id="edge61" class="edge">
<title>Node28&#45;&gt;Node12</title>
<path fill="none" stroke="#191970" d="M1373.751,-291.4216C1305.7559,-255.0439 1127.7425,-159.3046 981,-76 965.7538,-67.3448 963.2624,-62.5492 947,-56 906.2303,-39.5812 858.155,-28.1017 820.1852,-20.7168"/>
<polygon fill="#191970" stroke="#191970" points="820.7376,-17.2592 810.2605,-18.8345 819.4332,-24.1366 820.7376,-17.2592"/>
</g>
<!-- Node28&#45;&gt;Node29 -->
<g id="edge48" class="edge">
<title>Node28&#45;&gt;Node29</title>
<path fill="none" stroke="#191970" d="M1447.5007,-291.4554C1478.8075,-281.104 1519.9309,-267.5067 1549.5889,-257.7004"/>
<polygon fill="#191970" stroke="#191970" points="1550.7809,-260.9927 1559.1766,-254.5303 1548.5834,-254.3466 1550.7809,-260.9927"/>
</g>
<!-- Node33 -->
<g id="node34" class="node">
<title>Node33</title>
<g id="a_node34"><a xlink:href="deprecated_8h.html" target="_top" xlink:title="Control deprecated API definitions. ">
<polygon fill="#ffffff" stroke="#000000" points="1342.5,-235.5 1342.5,-254.5 1461.5,-254.5 1461.5,-235.5 1342.5,-235.5"/>
<text text-anchor="middle" x="1402" y="-242.5" font-family="Helvetica,sans-Serif" font-size="10.00" fill="#000000">odp/api/deprecated.h</text>
</a>
</g>
</g>
<!-- Node28&#45;&gt;Node33 -->
<g id="edge57" class="edge">
<title>Node28&#45;&gt;Node33</title>
<path fill="none" stroke="#191970" d="M1402,-291.2977C1402,-283.3834 1402,-273.6043 1402,-265.0759"/>
<polygon fill="#191970" stroke="#191970" points="1405.5001,-264.8469 1402,-254.8469 1398.5001,-264.847 1405.5001,-264.8469"/>
</g>
<!-- Node29&#45;&gt;Node1 -->
<g id="edge49" class="edge">
<title>Node29&#45;&gt;Node1</title>
<path fill="none" stroke="#191970" d="M1595.1875,-235.3906C1600.9519,-227.6839 1609.2846,-216.5434 1616.7527,-206.5589"/>
<polygon fill="#191970" stroke="#191970" points="1619.5603,-208.6488 1622.7471,-198.5446 1613.9548,-204.4561 1619.5603,-208.6488"/>
</g>
<!-- Node30 -->
<g id="node31" class="node">
<title>Node30</title>
<g id="a_node31"><a xlink:href="spec_2schedule__types_8h.html" target="_top" xlink:title="ODP schedule types. ">
<polygon fill="#ffffff" stroke="#000000" points="1287.5,-168.5 1287.5,-198.5 1412.5,-198.5 1412.5,-168.5 1287.5,-168.5"/>
<text text-anchor="start" x="1295.5" y="-186.5" font-family="Helvetica,sans-Serif" font-size="10.00" fill="#000000">odp/api/spec/schedule</text>
<text text-anchor="middle" x="1350" y="-175.5" font-family="Helvetica,sans-Serif" font-size="10.00" fill="#000000">_types.h</text>
</a>
</g>
</g>
<!-- Node29&#45;&gt;Node30 -->
<g id="edge50" class="edge">
<title>Node29&#45;&gt;Node30</title>
<path fill="none" stroke="#191970" d="M1551.0736,-235.4581C1515.7035,-226.3183 1461.4723,-212.3048 1418.2405,-201.1336"/>
<polygon fill="#191970" stroke="#191970" points="1418.9099,-197.6917 1408.3523,-198.5784 1417.1586,-204.469 1418.9099,-197.6917"/>
</g>
<!-- Node30&#45;&gt;Node4 -->
<g id="edge51" class="edge">
<title>Node30&#45;&gt;Node4</title>
<path fill="none" stroke="#191970" d="M1371.6448,-168.3899C1382.9715,-159.2363 1395.9213,-146.5335 1403,-132 1417.8368,-101.5382 1417.6198,-88.7681 1409,-56 1406.3888,-46.0734 1401.0933,-36.0366 1395.9588,-27.8822"/>
<polygon fill="#191970" stroke="#191970" points="1398.864,-25.9303 1390.3819,-19.5817 1393.0537,-29.8342 1398.864,-25.9303"/>
</g>
<!-- Node30&#45;&gt;Node12 -->
<g id="edge56" class="edge">
<title>Node30&#45;&gt;Node12</title>
<path fill="none" stroke="#191970" d="M1298.2375,-168.4755C1233.3744,-149.1836 1119.1686,-113.6743 1024,-76 1004.4025,-68.242 1001.0228,-62.583 981,-56 928.2628,-38.6612 866.3874,-26.6453 820.568,-19.2539"/>
<polygon fill="#191970" stroke="#191970" points="820.8823,-15.7602 810.4584,-17.6559 819.7893,-22.6743 820.8823,-15.7602"/>
</g>
<!-- Node31 -->
<g id="node32" class="node">
<title>Node31</title>
<g id="a_node32"><a xlink:href="support_8h.html" target="_top" xlink:title="ODP support API &#45; platform specific header. ">
<polygon fill="#ffffff" stroke="#000000" points="1293.5,-112.5 1293.5,-131.5 1394.5,-131.5 1394.5,-112.5 1293.5,-112.5"/>
<text text-anchor="middle" x="1344" y="-119.5" font-family="Helvetica,sans-Serif" font-size="10.00" fill="#000000">odp/api/support.h</text>
</a>
</g>
</g>
<!-- Node30&#45;&gt;Node31 -->
<g id="edge52" class="edge">
<title>Node30&#45;&gt;Node31</title>
<path fill="none" stroke="#191970" d="M1348.5169,-168.2977C1347.7447,-160.3834 1346.7907,-150.6043 1345.9586,-142.0759"/>
<polygon fill="#191970" stroke="#191970" points="1349.4152,-141.4598 1344.9607,-131.8469 1342.4483,-142.1396 1349.4152,-141.4598"/>
</g>
<!-- Node32 -->
<g id="node33" class="node">
<title>Node32</title>
<g id="a_node33"><a xlink:href="spec_2support_8h.html" target="_top" xlink:title="ODP support API. ">
<polygon fill="#ffffff" stroke="#000000" points="1273.5,-56.5 1273.5,-75.5 1400.5,-75.5 1400.5,-56.5 1273.5,-56.5"/>
<text text-anchor="middle" x="1337" y="-63.5" font-family="Helvetica,sans-Serif" font-size="10.00" fill="#000000">odp/api/spec/support.h</text>
</a>
</g>
</g>
<!-- Node31&#45;&gt;Node32 -->
<g id="edge53" class="edge">
<title>Node31&#45;&gt;Node32</title>
<path fill="none" stroke="#191970" d="M1342.7807,-112.2455C1341.8673,-104.9382 1340.5868,-94.6944 1339.4631,-85.7046"/>
<polygon fill="#191970" stroke="#191970" points="1342.9187,-85.1313 1338.2053,-75.6427 1335.9728,-85.9996 1342.9187,-85.1313"/>
</g>
<!-- Node32&#45;&gt;Node4 -->
<g id="edge54" class="edge">
<title>Node32&#45;&gt;Node4</title>
<path fill="none" stroke="#191970" d="M1345.0126,-56.2455C1351.4768,-48.3761 1360.7385,-37.101 1368.4983,-27.6542"/>
<polygon fill="#191970" stroke="#191970" points="1371.4364,-29.5916 1375.0792,-19.6427 1366.0273,-25.1484 1371.4364,-29.5916"/>
</g>
<!-- Node32&#45;&gt;Node12 -->
<g id="edge55" class="edge">
<title>Node32&#45;&gt;Node12</title>
<path fill="none" stroke="#191970" d="M1273.499,-59.9004C1162.3163,-49.2208 933.4827,-27.2402 820.335,-16.3718"/>
<polygon fill="#191970" stroke="#191970" points="820.3723,-12.8594 810.0834,-15.3871 819.7029,-19.8273 820.3723,-12.8594"/>
</g>
<!-- Node34 -->
<g id="node35" class="node">
<title>Node34</title>
<g id="a_node35"><a xlink:href="spec_2deprecated_8h.html" target="_top" xlink:title="Macro for deprecated API definitions. ">
<polygon fill="#ffffff" stroke="#000000" points="1033.5,-56.5 1033.5,-75.5 1178.5,-75.5 1178.5,-56.5 1033.5,-56.5"/>
<text text-anchor="middle" x="1106" y="-63.5" font-family="Helvetica,sans-Serif" font-size="10.00" fill="#000000">odp/api/spec/deprecated.h</text>
</a>
</g>
</g>
<!-- Node33&#45;&gt;Node34 -->
<g id="edge58" class="edge">
<title>Node33&#45;&gt;Node34</title>
<path fill="none" stroke="#191970" d="M1367.8974,-235.4218C1342.2828,-227.5083 1306.809,-214.9909 1278,-199 1216.4583,-164.8402 1153.3139,-109.8799 1123.553,-82.5447"/>
<polygon fill="#191970" stroke="#191970" points="1125.7853,-79.8414 1116.0732,-75.6075 1121.0252,-84.9739 1125.7853,-79.8414"/>
</g>
<!-- Node34&#45;&gt;Node4 -->
<g id="edge59" class="edge">
<title>Node34&#45;&gt;Node4</title>
<path fill="none" stroke="#191970" d="M1153.3033,-56.4369C1201.108,-46.7724 1275.0068,-31.8326 1326.0108,-21.5213"/>
<polygon fill="#191970" stroke="#191970" points="1326.7837,-24.9359 1335.8918,-19.5237 1325.3966,-18.0747 1326.7837,-24.9359"/>
</g>
<!-- Node34&#45;&gt;Node12 -->
<g id="edge60" class="edge">
<title>Node34&#45;&gt;Node12</title>
<path fill="none" stroke="#191970" d="M1045.889,-56.4369C983.1698,-46.4588 885.105,-30.8576 820.2052,-20.5326"/>
<polygon fill="#191970" stroke="#191970" points="820.5101,-17.0372 810.0844,-18.9225 819.4103,-23.9503 820.5101,-17.0372"/>
</g>
<!-- Node36 -->
<g id="node37" class="node">
<title>Node36</title>
<polygon fill="#ffffff" stroke="#bfbfbf" points="28.5,-297 28.5,-316 151.5,-316 151.5,-297 28.5,-297"/>
<text text-anchor="middle" x="90" y="-304" font-family="Helvetica,sans-Serif" font-size="10.00" fill="#000000">odp/api/abi/thrmask.h</text>
</g>
<!-- Node35&#45;&gt;Node36 -->
<g id="edge65" class="edge">
<title>Node35&#45;&gt;Node36</title>
<path fill="none" stroke="#191970" d="M212.3438,-358.3906C188.0826,-348.1005 149.3882,-331.6888 122.02,-320.0809"/>
<polygon fill="#191970" stroke="#191970" points="123.07,-316.7245 112.4972,-316.0419 120.3367,-323.1688 123.07,-316.7245"/>
</g>
<!-- Node37 -->
<g id="node38" class="node">
<title>Node37</title>
<g id="a_node38"><a xlink:href="spec_2thrmask_8h.html" target="_top" xlink:title="ODP thread masks. ">
<polygon fill="#ffffff" stroke="#000000" points="169.5,-297 169.5,-316 300.5,-316 300.5,-297 169.5,-297"/>
<text text-anchor="middle" x="235" y="-304" font-family="Helvetica,sans-Serif" font-size="10.00" fill="#000000">odp/api/spec/thrmask.h</text>
</a>
</g>
</g>
<!-- Node35&#45;&gt;Node37 -->
<g id="edge66" class="edge">
<title>Node35&#45;&gt;Node37</title>
<path fill="none" stroke="#191970" d="M235,-358.3906C235,-349.8657 235,-337.1392 235,-326.4235"/>
<polygon fill="#191970" stroke="#191970" points="238.5001,-326.2448 235,-316.2449 231.5001,-326.2449 238.5001,-326.2448"/>
</g>
<!-- Node37&#45;&gt;Node4 -->
<g id="edge67" class="edge">
<title>Node37&#45;&gt;Node4</title>
<path fill="none" stroke="#191970" d="M262.8617,-296.8992C304.7524,-282.6072 386.5636,-255.2494 457,-235 519.5733,-217.0111 540.6586,-227.9014 599,-199 618.841,-189.1711 617.6669,-176.7657 638,-168 741.4898,-123.385 777.6416,-149.3188 889,-132 1037.7285,-108.8693 1079.6573,-121.9137 1223,-76 1242.3083,-69.8154 1245.4166,-64.1068 1264,-56 1291.3567,-44.0659 1322.8845,-31.9503 1346.6128,-23.1509"/>
<polygon fill="#191970" stroke="#191970" points="1348.0964,-26.3344 1356.2697,-19.5929 1345.6763,-19.766 1348.0964,-26.3344"/>
</g>
<!-- Node37&#45;&gt;Node5 -->
<g id="edge68" class="edge">
<title>Node37&#45;&gt;Node5</title>
<path fill="none" stroke="#191970" d="M279.5289,-296.9581C330.2207,-286.0956 413.0391,-268.3488 467.5349,-256.6711"/>
<polygon fill="#191970" stroke="#191970" points="468.322,-260.082 477.3667,-254.5643 466.8553,-253.2373 468.322,-260.082"/>
</g>
<!-- Node37&#45;&gt;Node12 -->
<g id="edge69" class="edge">
<title>Node37&#45;&gt;Node12</title>
<path fill="none" stroke="#191970" d="M245.919,-296.8582C266.5033,-277.5543 309,-231.8466 309,-183.5 309,-183.5 309,-183.5 309,-122 309,-44.8995 563.3929,-20.3616 687.4917,-12.9784"/>
<polygon fill="#191970" stroke="#191970" points="687.8576,-16.4632 697.6404,-12.3956 687.4562,-9.4747 687.8576,-16.4632"/>
</g>
</g>
</svg>
