<?xml version="1.0" encoding="UTF-8" standalone="no"?>
<!DOCTYPE svg PUBLIC "-//W3C//DTD SVG 1.1//EN"
 "http://www.w3.org/Graphics/SVG/1.1/DTD/svg11.dtd">
<!-- Generated by graphviz version 2.40.1 (20161225.0304)
 -->
<!-- Title: ipsec.h Pages: 1 -->
<svg width="2002pt" height="968pt"
 viewBox="0.00 0.00 2002.00 968.00" xmlns="http://www.w3.org/2000/svg" xmlns:xlink="http://www.w3.org/1999/xlink">
<g id="graph0" class="graph" transform="scale(1 1) rotate(0) translate(4 964)">
<title>ipsec.h</title>
<polygon fill="#ffffff" stroke="transparent" points="-4,4 -4,-964 1998,-964 1998,4 -4,4"/>
<!-- Node0 -->
<g id="node1" class="node">
<title>Node0</title>
<polygon fill="#bfbfbf" stroke="#000000" points="1171.5,-940.5 1171.5,-959.5 1222.5,-959.5 1222.5,-940.5 1171.5,-940.5"/>
<text text-anchor="middle" x="1197" y="-947.5" font-family="Helvetica,sans-Serif" font-size="10.00" fill="#000000">ipsec.h</text>
</g>
<!-- Node1 -->
<g id="node2" class="node">
<title>Node1</title>
<polygon fill="#ffffff" stroke="#bfbfbf" points="1426.5,-.5 1426.5,-19.5 1547.5,-19.5 1547.5,-.5 1426.5,-.5"/>
<text text-anchor="middle" x="1487" y="-7.5" font-family="Helvetica,sans-Serif" font-size="10.00" fill="#000000">odp/visibility_begin.h</text>
</g>
<!-- Node0&#45;&gt;Node1 -->
<g id="edge1" class="edge">
<title>Node0&#45;&gt;Node1</title>
<path fill="none" stroke="#191970" d="M1222.6356,-949.0239C1339.3453,-944.4793 1817.5012,-924.7367 1881,-904 1937.4953,-885.5505 1994,-891.9315 1994,-832.5 1994,-832.5 1994,-832.5 1994,-133 1994,-44.3058 1697.264,-19.3307 1557.8187,-12.4908"/>
<polygon fill="#191970" stroke="#191970" points="1557.8065,-8.9864 1547.6525,-12.0106 1557.4762,-15.9786 1557.8065,-8.9864"/>
</g>
<!-- Node2 -->
<g id="node3" class="node">
<title>Node2</title>
<g id="a_node3"><a xlink:href="crypto_8h.html" target="_top" xlink:title="ODP crypto. ">
<polygon fill="#ffffff" stroke="#000000" points="445.5,-705.5 445.5,-724.5 540.5,-724.5 540.5,-705.5 445.5,-705.5"/>
<text text-anchor="middle" x="493" y="-712.5" font-family="Helvetica,sans-Serif" font-size="10.00" fill="#000000">odp/api/crypto.h</text>
</a>
</g>
</g>
<!-- Node0&#45;&gt;Node2 -->
<g id="edge2" class="edge">
<title>Node0&#45;&gt;Node2</title>
<path fill="none" stroke="#191970" d="M1171.1093,-941.3575C1064.475,-905.7622 658.9122,-770.3826 531.5264,-727.8604"/>
<polygon fill="#191970" stroke="#191970" points="532.3943,-724.4603 521.8006,-724.6138 530.1778,-731.1001 532.3943,-724.4603"/>
</g>
<!-- Node10 -->
<g id="node11" class="node">
<title>Node10</title>
<polygon fill="#ffffff" stroke="#bfbfbf" points="305,-.5 305,-19.5 417,-19.5 417,-.5 305,-.5"/>
<text text-anchor="middle" x="361" y="-7.5" font-family="Helvetica,sans-Serif" font-size="10.00" fill="#000000">odp/visibility_end.h</text>
</g>
<!-- Node0&#45;&gt;Node10 -->
<g id="edge117" class="edge">
<title>Node0&#45;&gt;Node10</title>
<path fill="none" stroke="#191970" d="M1171.1877,-949.5642C1038.5034,-947.2004 432.2749,-934.8656 247,-904 134.269,-885.2197 0,-946.7847 0,-832.5 0,-832.5 0,-832.5 0,-133 0,-95.0319 6.3642,-78.4283 37,-56 76.8811,-26.8032 212.2188,-16.0451 294.8345,-12.1487"/>
<polygon fill="#191970" stroke="#191970" points="295.0536,-15.6424 304.886,-11.6961 294.7387,-8.6495 295.0536,-15.6424"/>
</g>
<!-- Node31 -->
<g id="node32" class="node">
<title>Node31</title>
<g id="a_node32"><a xlink:href="support_8h.html" target="_top" xlink:title="ODP support API &#45; platform specific header. ">
<polygon fill="#ffffff" stroke="#000000" points="1233.5,-123.5 1233.5,-142.5 1334.5,-142.5 1334.5,-123.5 1233.5,-123.5"/>
<text text-anchor="middle" x="1284" y="-130.5" font-family="Helvetica,sans-Serif" font-size="10.00" fill="#000000">odp/api/support.h</text>
</a>
</g>
</g>
<!-- Node0&#45;&gt;Node31 -->
<g id="edge70" class="edge">
<title>Node0&#45;&gt;Node31</title>
<path fill="none" stroke="#191970" d="M1222.5209,-947.5727C1331.3233,-936.9678 1752.5395,-893.2067 1789,-848 1841.735,-782.6149 1790,-743.0012 1790,-659 1790,-659 1790,-659 1790,-435 1790,-229.8541 1479.5359,-160.7947 1344.9833,-140.498"/>
<polygon fill="#191970" stroke="#191970" points="1345.236,-136.9977 1334.834,-139.0094 1344.2202,-143.9236 1345.236,-136.9977"/>
</g>
<!-- Node36 -->
<g id="node37" class="node">
<title>Node36</title>
<g id="a_node37"><a xlink:href="packet__io_8h.html" target="_top" xlink:title="ODP Packet IO. ">
<polygon fill="#ffffff" stroke="#000000" points="1139,-761.5 1139,-780.5 1251,-780.5 1251,-761.5 1139,-761.5"/>
<text text-anchor="middle" x="1195" y="-768.5" font-family="Helvetica,sans-Serif" font-size="10.00" fill="#000000">odp/api/packet_io.h</text>
</a>
</g>
</g>
<!-- Node0&#45;&gt;Node36 -->
<g id="edge71" class="edge">
<title>Node0&#45;&gt;Node36</title>
<path fill="none" stroke="#191970" d="M1196.8925,-940.3762C1196.5778,-912.2097 1195.6538,-829.5126 1195.2243,-791.0713"/>
<polygon fill="#191970" stroke="#191970" points="1198.7197,-790.6316 1195.1081,-780.6714 1191.7201,-790.7099 1198.7197,-790.6316"/>
</g>
<!-- Node41 -->
<g id="node42" class="node">
<title>Node41</title>
<g id="a_node42"><a xlink:href="protocols_8h.html" target="_top" xlink:title="ODP protocols. ">
<polygon fill="#ffffff" stroke="#000000" points="1856,-425.5 1856,-444.5 1966,-444.5 1966,-425.5 1856,-425.5"/>
<text text-anchor="middle" x="1911" y="-432.5" font-family="Helvetica,sans-Serif" font-size="10.00" fill="#000000">odp/api/protocols.h</text>
</a>
</g>
</g>
<!-- Node0&#45;&gt;Node41 -->
<g id="edge89" class="edge">
<title>Node0&#45;&gt;Node41</title>
<path fill="none" stroke="#191970" d="M1222.696,-949.6313C1337.4671,-947.7939 1799.9307,-938.3006 1854,-904 1884.7475,-884.4944 1894,-868.9126 1894,-832.5 1894,-832.5 1894,-832.5 1894,-547 1894,-514.192 1901.2185,-476.584 1906.248,-454.3624"/>
<polygon fill="#191970" stroke="#191970" points="1909.6816,-455.0502 1908.5643,-444.5144 1902.8676,-453.4474 1909.6816,-455.0502"/>
</g>
<!-- Node43 -->
<g id="node44" class="node">
<title>Node43</title>
<g id="a_node44"><a xlink:href="classification_8h.html" target="_top" xlink:title="ODP classification descriptor. ">
<polygon fill="#ffffff" stroke="#000000" points="1400,-884.5 1400,-903.5 1528,-903.5 1528,-884.5 1400,-884.5"/>
<text text-anchor="middle" x="1464" y="-891.5" font-family="Helvetica,sans-Serif" font-size="10.00" fill="#000000">odp/api/classification.h</text>
</a>
</g>
</g>
<!-- Node0&#45;&gt;Node43 -->
<g id="edge93" class="edge">
<title>Node0&#45;&gt;Node43</title>
<path fill="none" stroke="#191970" d="M1222.6011,-944.6305C1265.2042,-935.695 1351.5954,-917.5755 1408.63,-905.6132"/>
<polygon fill="#191970" stroke="#191970" points="1409.5015,-909.0066 1418.57,-903.5284 1408.0645,-902.1557 1409.5015,-909.0066"/>
</g>
<!-- Node47 -->
<g id="node48" class="node">
<title>Node47</title>
<g id="a_node48"><a xlink:href="traffic__mngr_8h.html" target="_top" xlink:title="ODP Traffic manager. ">
<polygon fill="#ffffff" stroke="#000000" points="256.5,-884.5 256.5,-903.5 379.5,-903.5 379.5,-884.5 256.5,-884.5"/>
<text text-anchor="middle" x="318" y="-891.5" font-family="Helvetica,sans-Serif" font-size="10.00" fill="#000000">odp/api/traffic_mngr.h</text>
</a>
</g>
</g>
<!-- Node0&#45;&gt;Node47 -->
<g id="edge110" class="edge">
<title>Node0&#45;&gt;Node47</title>
<path fill="none" stroke="#191970" d="M1171.2933,-949.2163C1071.3594,-946.0238 699.1522,-932.7768 394,-904 392.6958,-903.877 391.3795,-903.7487 390.0539,-903.6156"/>
<polygon fill="#191970" stroke="#191970" points="390.0748,-900.0979 379.7588,-902.5126 389.329,-907.0581 390.0748,-900.0979"/>
</g>
<!-- Node3 -->
<g id="node4" class="node">
<title>Node3</title>
<g id="a_node4"><a xlink:href="std__types_8h.html" target="_top" xlink:title="Standard C language types and definitions for ODP. ">
<polygon fill="#ffffff" stroke="#000000" points="418,-246.5 418,-265.5 530,-265.5 530,-246.5 418,-246.5"/>
<text text-anchor="middle" x="474" y="-253.5" font-family="Helvetica,sans-Serif" font-size="10.00" fill="#000000">odp/api/std_types.h</text>
</a>
</g>
</g>
<!-- Node2&#45;&gt;Node3 -->
<g id="edge3" class="edge">
<title>Node2&#45;&gt;Node3</title>
<path fill="none" stroke="#191970" d="M478.9171,-705.4211C466.7539,-696.7502 449.119,-683.1949 436,-669 340.7435,-565.9312 308.891,-528.0688 290,-389 288.8035,-380.192 285.6604,-376.7576 290,-369 319.7755,-315.7717 386.0216,-284.5593 430.3559,-268.878"/>
<polygon fill="#191970" stroke="#191970" points="431.679,-272.1248 440.0137,-265.5838 429.4192,-265.4996 431.679,-272.1248"/>
</g>
<!-- Node11 -->
<g id="node12" class="node">
<title>Node11</title>
<polygon fill="#ffffff" stroke="#bfbfbf" points="1308,-369.5 1308,-388.5 1424,-388.5 1424,-369.5 1308,-369.5"/>
<text text-anchor="middle" x="1366" y="-376.5" font-family="Helvetica,sans-Serif" font-size="10.00" fill="#000000">odp/api/abi/packet.h</text>
</g>
<!-- Node2&#45;&gt;Node11 -->
<g id="edge14" class="edge">
<title>Node2&#45;&gt;Node11</title>
<path fill="none" stroke="#191970" d="M540.63,-709.2106C595.2939,-702.045 687.4006,-688.3721 765,-669 868.6342,-643.1286 891.2808,-625.5974 993,-593 1044.8105,-576.3966 1061.0825,-580.8133 1110,-557 1206.3314,-510.1054 1306.7288,-429.3257 1347.3245,-395.0867"/>
<polygon fill="#191970" stroke="#191970" points="1349.703,-397.6586 1355.0565,-388.5158 1345.17,-392.3245 1349.703,-397.6586"/>
</g>
<!-- Node12 -->
<g id="node13" class="node">
<title>Node12</title>
<polygon fill="#ffffff" stroke="#bfbfbf" points="256.5,-649.5 256.5,-668.5 369.5,-668.5 369.5,-649.5 256.5,-649.5"/>
<text text-anchor="middle" x="313" y="-656.5" font-family="Helvetica,sans-Serif" font-size="10.00" fill="#000000">odp/api/abi/crypto.h</text>
</g>
<!-- Node2&#45;&gt;Node12 -->
<g id="edge15" class="edge">
<title>Node2&#45;&gt;Node12</title>
<path fill="none" stroke="#191970" d="M462.0569,-705.3733C431.9961,-696.021 386.1974,-681.7725 353.3022,-671.5385"/>
<polygon fill="#191970" stroke="#191970" points="354.1277,-668.1299 343.5393,-668.5011 352.0481,-674.8139 354.1277,-668.1299"/>
</g>
<!-- Node13 -->
<g id="node14" class="node">
<title>Node13</title>
<polygon fill="#ffffff" stroke="#bfbfbf" points="332,-369.5 332,-388.5 442,-388.5 442,-369.5 332,-369.5"/>
<text text-anchor="middle" x="387" y="-376.5" font-family="Helvetica,sans-Serif" font-size="10.00" fill="#000000">odp/api/abi/buffer.h</text>
</g>
<!-- Node2&#45;&gt;Node13 -->
<g id="edge16" class="edge">
<title>Node2&#45;&gt;Node13</title>
<path fill="none" stroke="#191970" d="M483.2614,-705.397C459.7859,-681.1718 402,-614.6681 402,-547 402,-547 402,-547 402,-491 402,-458.2739 395.6307,-420.641 391.193,-398.3923"/>
<polygon fill="#191970" stroke="#191970" points="394.6058,-397.6123 389.1491,-388.5307 387.7515,-399.0329 394.6058,-397.6123"/>
</g>
<!-- Node14 -->
<g id="node15" class="node">
<title>Node14</title>
<polygon fill="#ffffff" stroke="#bfbfbf" points="1110,-369.5 1110,-388.5 1214,-388.5 1214,-369.5 1110,-369.5"/>
<text text-anchor="middle" x="1162" y="-376.5" font-family="Helvetica,sans-Serif" font-size="10.00" fill="#000000">odp/api/abi/pool.h</text>
</g>
<!-- Node2&#45;&gt;Node14 -->
<g id="edge17" class="edge">
<title>Node2&#45;&gt;Node14</title>
<path fill="none" stroke="#191970" d="M540.5749,-707.964C586.9401,-700.4998 659.1465,-687.2563 720,-669 783.794,-649.8616 800.0089,-643.9193 859,-613 979.2603,-549.9673 1100.5341,-438.5254 1144.6237,-396.0727"/>
<polygon fill="#191970" stroke="#191970" points="1147.1991,-398.4507 1151.9404,-388.9759 1142.3254,-393.426 1147.1991,-398.4507"/>
</g>
<!-- Node15 -->
<g id="node16" class="node">
<title>Node15</title>
<g id="a_node16"><a xlink:href="queue_8h.html" target="_top" xlink:title="ODP queue. ">
<polygon fill="#ffffff" stroke="#000000" points="616.5,-649.5 616.5,-668.5 711.5,-668.5 711.5,-649.5 616.5,-649.5"/>
<text text-anchor="middle" x="664" y="-656.5" font-family="Helvetica,sans-Serif" font-size="10.00" fill="#000000">odp/api/queue.h</text>
</a>
</g>
</g>
<!-- Node2&#45;&gt;Node15 -->
<g id="edge18" class="edge">
<title>Node2&#45;&gt;Node15</title>
<path fill="none" stroke="#191970" d="M522.3959,-705.3733C550.8307,-696.0613 594.0877,-681.8953 625.3081,-671.671"/>
<polygon fill="#191970" stroke="#191970" points="626.5736,-674.9396 634.9876,-668.5011 624.395,-668.2872 626.5736,-674.9396"/>
</g>
<!-- Node35 -->
<g id="node36" class="node">
<title>Node35</title>
<g id="a_node36"><a xlink:href="spec_2crypto_8h.html" target="_top" xlink:title="ODP crypto. ">
<polygon fill="#ffffff" stroke="#000000" points="658.5,-481.5 658.5,-500.5 779.5,-500.5 779.5,-481.5 658.5,-481.5"/>
<text text-anchor="middle" x="719" y="-488.5" font-family="Helvetica,sans-Serif" font-size="10.00" fill="#000000">odp/api/spec/crypto.h</text>
</a>
</g>
</g>
<!-- Node2&#45;&gt;Node35 -->
<g id="edge64" class="edge">
<title>Node2&#45;&gt;Node35</title>
<path fill="none" stroke="#191970" d="M502.7109,-705.375C537.7003,-670.6953 657.5939,-551.8627 702.1492,-507.7017"/>
<polygon fill="#191970" stroke="#191970" points="704.6866,-510.1146 709.3252,-500.5891 699.7589,-505.1429 704.6866,-510.1146"/>
</g>
<!-- Node4 -->
<g id="node5" class="node">
<title>Node4</title>
<polygon fill="#ffffff" stroke="#bfbfbf" points="564,-185 564,-204 694,-204 694,-185 564,-185"/>
<text text-anchor="middle" x="629" y="-192" font-family="Helvetica,sans-Serif" font-size="10.00" fill="#000000">odp/api/abi/std_types.h</text>
</g>
<!-- Node3&#45;&gt;Node4 -->
<g id="edge4" class="edge">
<title>Node3&#45;&gt;Node4</title>
<path fill="none" stroke="#191970" d="M498.2188,-246.3906C524.3806,-236.0103 566.2429,-219.4004 595.5388,-207.7766"/>
<polygon fill="#191970" stroke="#191970" points="596.9471,-210.9833 604.9513,-204.0419 594.3654,-204.4767 596.9471,-210.9833"/>
</g>
<!-- Node5 -->
<g id="node6" class="node">
<title>Node5</title>
<g id="a_node6"><a xlink:href="spec_2std__types_8h.html" target="_top" xlink:title="Standard C language types and definitions for ODP. ">
<polygon fill="#ffffff" stroke="#000000" points="408.5,-185 408.5,-204 545.5,-204 545.5,-185 408.5,-185"/>
<text text-anchor="middle" x="477" y="-192" font-family="Helvetica,sans-Serif" font-size="10.00" fill="#000000">odp/api/spec/std_types.h</text>
</a>
</g>
</g>
<!-- Node3&#45;&gt;Node5 -->
<g id="edge5" class="edge">
<title>Node3&#45;&gt;Node5</title>
<path fill="none" stroke="#191970" d="M474.4688,-246.3906C474.8846,-237.8657 475.5054,-225.1392 476.0281,-214.4235"/>
<polygon fill="#191970" stroke="#191970" points="479.5332,-214.4035 476.5246,-204.2449 472.5415,-214.0624 479.5332,-214.4035"/>
</g>
<!-- Node5&#45;&gt;Node1 -->
<g id="edge6" class="edge">
<title>Node5&#45;&gt;Node1</title>
<path fill="none" stroke="#191970" d="M524.8447,-184.9636C534.8094,-182.9856 545.2465,-180.9196 555,-179 764.7026,-137.7272 832.9142,-176.4948 1027,-87 1047.1074,-77.7283 1045.5224,-64.4226 1066,-56 1127.6938,-30.6247 1313.4485,-18.1109 1416.3944,-12.9748"/>
<polygon fill="#191970" stroke="#191970" points="1416.5783,-16.4701 1426.3955,-12.486 1416.2365,-9.4784 1416.5783,-16.4701"/>
</g>
<!-- Node6 -->
<g id="node7" class="node">
<title>Node6</title>
<polygon fill="#ffffff" stroke="#bfbfbf" points="446.5,-123.5 446.5,-142.5 499.5,-142.5 499.5,-123.5 446.5,-123.5"/>
<text text-anchor="middle" x="473" y="-130.5" font-family="Helvetica,sans-Serif" font-size="10.00" fill="#000000">stdint.h</text>
</g>
<!-- Node5&#45;&gt;Node6 -->
<g id="edge7" class="edge">
<title>Node5&#45;&gt;Node6</title>
<path fill="none" stroke="#191970" d="M476.375,-184.8906C475.8205,-176.3657 474.9928,-163.6392 474.2958,-152.9235"/>
<polygon fill="#191970" stroke="#191970" points="477.7756,-152.4966 473.6338,-142.7449 470.7903,-152.951 477.7756,-152.4966"/>
</g>
<!-- Node7 -->
<g id="node8" class="node">
<title>Node7</title>
<g id="a_node8"><a xlink:href="align_8h.html" target="_top" xlink:title="ODP alignments. ">
<polygon fill="#ffffff" stroke="#000000" points="556.5,-123.5 556.5,-142.5 645.5,-142.5 645.5,-123.5 556.5,-123.5"/>
<text text-anchor="middle" x="601" y="-130.5" font-family="Helvetica,sans-Serif" font-size="10.00" fill="#000000">odp/api/align.h</text>
</a>
</g>
</g>
<!-- Node5&#45;&gt;Node7 -->
<g id="edge8" class="edge">
<title>Node5&#45;&gt;Node7</title>
<path fill="none" stroke="#191970" d="M496.375,-184.8906C516.8495,-174.7359 549.3442,-158.6196 572.6885,-147.0416"/>
<polygon fill="#191970" stroke="#191970" points="574.3575,-150.1207 581.7611,-142.5419 571.2472,-143.8496 574.3575,-150.1207"/>
</g>
<!-- Node5&#45;&gt;Node10 -->
<g id="edge13" class="edge">
<title>Node5&#45;&gt;Node10</title>
<path fill="none" stroke="#191970" d="M468.401,-184.6808C459.8379,-174.6295 446.6172,-158.3498 437,-143 414.0998,-106.4497 416.2004,-92.9796 394,-56 388.2044,-46.3462 380.9872,-36.1205 374.7815,-27.7682"/>
<polygon fill="#191970" stroke="#191970" points="377.3883,-25.4131 368.5597,-19.5559 371.8088,-29.6403 377.3883,-25.4131"/>
</g>
<!-- Node8 -->
<g id="node9" class="node">
<title>Node8</title>
<polygon fill="#ffffff" stroke="#bfbfbf" points="484.5,-62 484.5,-81 591.5,-81 591.5,-62 484.5,-62"/>
<text text-anchor="middle" x="538" y="-69" font-family="Helvetica,sans-Serif" font-size="10.00" fill="#000000">odp/api/abi/align.h</text>
</g>
<!-- Node7&#45;&gt;Node8 -->
<g id="edge9" class="edge">
<title>Node7&#45;&gt;Node8</title>
<path fill="none" stroke="#191970" d="M591.1563,-123.3906C581.5961,-114.0581 566.8777,-99.6902 555.3505,-88.4374"/>
<polygon fill="#191970" stroke="#191970" points="557.5832,-85.7257 547.9825,-81.2449 552.6934,-90.7348 557.5832,-85.7257"/>
</g>
<!-- Node9 -->
<g id="node10" class="node">
<title>Node9</title>
<g id="a_node10"><a xlink:href="spec_2align_8h.html" target="_top" xlink:title="ODP alignments. ">
<polygon fill="#ffffff" stroke="#000000" points="610,-62 610,-81 724,-81 724,-62 610,-62"/>
<text text-anchor="middle" x="667" y="-69" font-family="Helvetica,sans-Serif" font-size="10.00" fill="#000000">odp/api/spec/align.h</text>
</a>
</g>
</g>
<!-- Node7&#45;&gt;Node9 -->
<g id="edge10" class="edge">
<title>Node7&#45;&gt;Node9</title>
<path fill="none" stroke="#191970" d="M611.3125,-123.3906C621.4242,-113.9683 637.0442,-99.4134 649.1707,-88.1137"/>
<polygon fill="#191970" stroke="#191970" points="651.612,-90.6228 656.5421,-81.2449 646.8399,-85.5015 651.612,-90.6228"/>
</g>
<!-- Node9&#45;&gt;Node1 -->
<g id="edge11" class="edge">
<title>Node9&#45;&gt;Node1</title>
<path fill="none" stroke="#191970" d="M702.7539,-61.9372C712.5002,-59.6506 723.1016,-57.4535 733,-56 863.5379,-36.8315 1254.6569,-19.3784 1416.1025,-12.7854"/>
<polygon fill="#191970" stroke="#191970" points="1416.5497,-16.2702 1426.3993,-12.367 1416.2654,-9.276 1416.5497,-16.2702"/>
</g>
<!-- Node9&#45;&gt;Node10 -->
<g id="edge12" class="edge">
<title>Node9&#45;&gt;Node10</title>
<path fill="none" stroke="#191970" d="M627.0196,-61.9944C618.1378,-59.9543 608.76,-57.8556 600,-56 540.3749,-43.3697 472.0663,-30.3689 423.7882,-21.4247"/>
<polygon fill="#191970" stroke="#191970" points="424.2701,-17.9546 413.8006,-19.5793 422.9982,-24.8381 424.2701,-17.9546"/>
</g>
<!-- Node15&#45;&gt;Node3 -->
<g id="edge19" class="edge">
<title>Node15&#45;&gt;Node3</title>
<path fill="none" stroke="#191970" d="M658.3178,-649.1474C644.168,-624.4904 606.4485,-558.0064 578,-501 553.577,-452.06 548.4633,-439.3084 527,-389 509.8545,-348.8122 491.2662,-301.1069 481.3003,-275.1555"/>
<polygon fill="#191970" stroke="#191970" points="484.5417,-273.8327 477.6984,-265.7444 478.0041,-276.3348 484.5417,-273.8327"/>
</g>
<!-- Node15&#45;&gt;Node13 -->
<g id="edge22" class="edge">
<title>Node15&#45;&gt;Node13</title>
<path fill="none" stroke="#191970" d="M634.4903,-649.3952C613.8762,-641.7205 586.4879,-629.5111 566,-613 524.5641,-579.607 432.2213,-445.8922 399.1083,-397.0116"/>
<polygon fill="#191970" stroke="#191970" points="401.9705,-394.9961 393.4735,-388.6674 396.1693,-398.9135 401.9705,-394.9961"/>
</g>
<!-- Node15&#45;&gt;Node14 -->
<g id="edge23" class="edge">
<title>Node15&#45;&gt;Node14</title>
<path fill="none" stroke="#191970" d="M711.7308,-650.1927C744.9039,-642.9502 789.5297,-630.9295 826,-613 952.0395,-551.0366 962.0768,-501.286 1080,-425 1097.6435,-413.5862 1118.2782,-402.0194 1134.434,-393.3397"/>
<polygon fill="#191970" stroke="#191970" points="1136.1869,-396.3717 1143.3724,-388.5858 1132.8999,-390.1914 1136.1869,-396.3717"/>
</g>
<!-- Node16 -->
<g id="node17" class="node">
<title>Node16</title>
<polygon fill="#ffffff" stroke="#bfbfbf" points="536,-369.5 536,-388.5 646,-388.5 646,-369.5 536,-369.5"/>
<text text-anchor="middle" x="591" y="-376.5" font-family="Helvetica,sans-Serif" font-size="10.00" fill="#000000">odp/api/abi/event.h</text>
</g>
<!-- Node15&#45;&gt;Node16 -->
<g id="edge20" class="edge">
<title>Node15&#45;&gt;Node16</title>
<path fill="none" stroke="#191970" d="M628.0343,-649.454C609.6374,-642.5484 588.8785,-631.1556 578,-613 536.3578,-543.5014 567.3622,-440.544 583.1939,-398.2266"/>
<polygon fill="#191970" stroke="#191970" points="586.4848,-399.4207 586.8386,-388.8318 579.9587,-396.8889 586.4848,-399.4207"/>
</g>
<!-- Node17 -->
<g id="node18" class="node">
<title>Node17</title>
<polygon fill="#ffffff" stroke="#bfbfbf" points="1002.5,-593.5 1002.5,-612.5 1115.5,-612.5 1115.5,-593.5 1002.5,-593.5"/>
<text text-anchor="middle" x="1059" y="-600.5" font-family="Helvetica,sans-Serif" font-size="10.00" fill="#000000">odp/api/abi/queue.h</text>
</g>
<!-- Node15&#45;&gt;Node17 -->
<g id="edge21" class="edge">
<title>Node15&#45;&gt;Node17</title>
<path fill="none" stroke="#191970" d="M711.6462,-652.2451C781.6982,-642.3137 912.7681,-623.7316 992.3371,-612.4509"/>
<polygon fill="#191970" stroke="#191970" points="992.8454,-615.914 1002.2551,-611.0448 991.8628,-608.9833 992.8454,-615.914"/>
</g>
<!-- Node18 -->
<g id="node19" class="node">
<title>Node18</title>
<g id="a_node19"><a xlink:href="spec_2queue_8h.html" target="_top" xlink:title="ODP queue. ">
<polygon fill="#ffffff" stroke="#000000" points="697,-593.5 697,-612.5 817,-612.5 817,-593.5 697,-593.5"/>
<text text-anchor="middle" x="757" y="-600.5" font-family="Helvetica,sans-Serif" font-size="10.00" fill="#000000">odp/api/spec/queue.h</text>
</a>
</g>
</g>
<!-- Node15&#45;&gt;Node18 -->
<g id="edge24" class="edge">
<title>Node15&#45;&gt;Node18</title>
<path fill="none" stroke="#191970" d="M680.1994,-649.2455C694.6018,-640.5731 715.8732,-627.7645 732.3799,-617.825"/>
<polygon fill="#191970" stroke="#191970" points="734.225,-620.7996 740.9863,-612.6427 730.614,-614.8028 734.225,-620.7996"/>
</g>
<!-- Node18&#45;&gt;Node1 -->
<g id="edge25" class="edge">
<title>Node18&#45;&gt;Node1</title>
<path fill="none" stroke="#191970" d="M784.0661,-593.4404C809.1172,-584.4597 847.3132,-570.4292 880,-557 1068.7956,-479.4342 1109.419,-444.6261 1299,-369 1382.5573,-335.668 1404.7634,-330.7675 1490,-302 1576.253,-272.8894 1613.0804,-278.5321 1673,-210 1719.0741,-157.3034 1752.4988,-108.3222 1706,-56 1686.5232,-34.0839 1613.8829,-22.0204 1557.5402,-15.8099"/>
<polygon fill="#191970" stroke="#191970" points="1557.8963,-12.3281 1547.5828,-14.7537 1557.1578,-19.2891 1557.8963,-12.3281"/>
</g>
<!-- Node18&#45;&gt;Node10 -->
<g id="edge63" class="edge">
<title>Node18&#45;&gt;Node10</title>
<path fill="none" stroke="#191970" d="M744.6596,-593.2782C691.4843,-551.4255 483.1558,-387.8716 451,-369 341.9825,-305.0199 190,-382.4052 190,-256 190,-256 190,-256 190,-133 190,-94.2287 201.6177,-81.2961 231,-56 249.8122,-39.804 274.7117,-29.1815 297.6814,-22.2745"/>
<polygon fill="#191970" stroke="#191970" points="298.7105,-25.6209 307.384,-19.5365 296.8093,-18.884 298.7105,-25.6209"/>
</g>
<!-- Node19 -->
<g id="node20" class="node">
<title>Node19</title>
<g id="a_node20"><a xlink:href="event_8h.html" target="_top" xlink:title="ODP event. ">
<polygon fill="#ffffff" stroke="#000000" points="711,-537.5 711,-556.5 803,-556.5 803,-537.5 711,-537.5"/>
<text text-anchor="middle" x="757" y="-544.5" font-family="Helvetica,sans-Serif" font-size="10.00" fill="#000000">odp/api/event.h</text>
</a>
</g>
</g>
<!-- Node18&#45;&gt;Node19 -->
<g id="edge26" class="edge">
<title>Node18&#45;&gt;Node19</title>
<path fill="none" stroke="#191970" d="M757,-593.2455C757,-585.9382 757,-575.6944 757,-566.7046"/>
<polygon fill="#191970" stroke="#191970" points="760.5001,-566.6426 757,-556.6427 753.5001,-566.6427 760.5001,-566.6426"/>
</g>
<!-- Node27 -->
<g id="node28" class="node">
<title>Node27</title>
<g id="a_node28"><a xlink:href="queue__types_8h.html" target="_top" xlink:title="ODP queue types. ">
<polygon fill="#ffffff" stroke="#000000" points="989.5,-302.5 989.5,-332.5 1100.5,-332.5 1100.5,-302.5 989.5,-302.5"/>
<text text-anchor="start" x="997.5" y="-320.5" font-family="Helvetica,sans-Serif" font-size="10.00" fill="#000000">odp/api/spec/queue</text>
<text text-anchor="middle" x="1045" y="-309.5" font-family="Helvetica,sans-Serif" font-size="10.00" fill="#000000">_types.h</text>
</a>
</g>
</g>
<!-- Node18&#45;&gt;Node27 -->
<g id="edge47" class="edge">
<title>Node18&#45;&gt;Node27</title>
<path fill="none" stroke="#191970" d="M779.2416,-593.4371C813.5523,-577.8782 880.1134,-544.4079 925,-501 975.111,-452.5399 1014.9367,-379.5067 1033.5482,-341.8577"/>
<polygon fill="#191970" stroke="#191970" points="1036.7975,-343.179 1038.0216,-332.6551 1030.5019,-340.1186 1036.7975,-343.179"/>
</g>
<!-- Node19&#45;&gt;Node16 -->
<g id="edge27" class="edge">
<title>Node19&#45;&gt;Node16</title>
<path fill="none" stroke="#191970" d="M716.8544,-537.4649C694.6104,-530.4726 667.7477,-518.992 649,-501 619.0926,-472.298 602.8349,-425.0728 595.6352,-398.5845"/>
<polygon fill="#191970" stroke="#191970" points="598.9554,-397.4401 593.0909,-388.6164 592.1729,-399.1714 598.9554,-397.4401"/>
</g>
<!-- Node20 -->
<g id="node21" class="node">
<title>Node20</title>
<g id="a_node21"><a xlink:href="spec_2event_8h.html" target="_top" xlink:title="ODP event. ">
<polygon fill="#ffffff" stroke="#000000" points="798,-481.5 798,-500.5 916,-500.5 916,-481.5 798,-481.5"/>
<text text-anchor="middle" x="857" y="-488.5" font-family="Helvetica,sans-Serif" font-size="10.00" fill="#000000">odp/api/spec/event.h</text>
</a>
</g>
</g>
<!-- Node19&#45;&gt;Node20 -->
<g id="edge28" class="edge">
<title>Node19&#45;&gt;Node20</title>
<path fill="none" stroke="#191970" d="M774.4187,-537.2455C790.0485,-528.4928 813.2019,-515.527 831.0185,-505.5496"/>
<polygon fill="#191970" stroke="#191970" points="832.766,-508.5825 839.7809,-500.6427 829.3457,-502.475 832.766,-508.5825"/>
</g>
<!-- Node20&#45;&gt;Node1 -->
<g id="edge29" class="edge">
<title>Node20&#45;&gt;Node1</title>
<path fill="none" stroke="#191970" d="M879.9668,-481.4735C901.2047,-472.5157 933.5374,-458.5001 961,-445 992.7687,-429.3831 1067.3963,-380.1321 1101,-369 1207.9797,-333.5601 1246.4459,-372.4837 1352,-333 1375.786,-324.1026 1376.5393,-311.7227 1400,-302 1470.1423,-272.9312 1497.5944,-296.7864 1567,-266 1606.0104,-248.6961 1616.4764,-241.7433 1645,-210 1692.1189,-157.5625 1726.7855,-111.2513 1683,-56 1667.3617,-36.2666 1607.246,-24.175 1557.6689,-17.374"/>
<polygon fill="#191970" stroke="#191970" points="1557.9625,-13.8824 1547.5903,-16.0429 1557.0459,-20.8222 1557.9625,-13.8824"/>
</g>
<!-- Node20&#45;&gt;Node10 -->
<g id="edge46" class="edge">
<title>Node20&#45;&gt;Node10</title>
<path fill="none" stroke="#191970" d="M848.2503,-481.442C813.4237,-444.0728 679.7028,-306.9212 539,-246 447.2734,-206.2844 385.1097,-283.1586 317,-210 270.2991,-159.8372 296.1167,-118.1534 325,-56 329.8213,-45.6252 337.3843,-35.4613 344.3364,-27.3371"/>
<polygon fill="#191970" stroke="#191970" points="347.1334,-29.4612 351.2195,-19.686 341.9293,-24.7795 347.1334,-29.4612"/>
</g>
<!-- Node21 -->
<g id="node22" class="node">
<title>Node21</title>
<g id="a_node22"><a xlink:href="packet_8h.html" target="_top" xlink:title="ODP packet descriptor. ">
<polygon fill="#ffffff" stroke="#000000" points="854,-425.5 854,-444.5 952,-444.5 952,-425.5 854,-425.5"/>
<text text-anchor="middle" x="903" y="-432.5" font-family="Helvetica,sans-Serif" font-size="10.00" fill="#000000">odp/api/packet.h</text>
</a>
</g>
</g>
<!-- Node20&#45;&gt;Node21 -->
<g id="edge30" class="edge">
<title>Node20&#45;&gt;Node21</title>
<path fill="none" stroke="#191970" d="M865.0126,-481.2455C871.4768,-473.3761 880.7385,-462.101 888.4983,-452.6542"/>
<polygon fill="#191970" stroke="#191970" points="891.4364,-454.5916 895.0792,-444.6427 886.0273,-450.1484 891.4364,-454.5916"/>
</g>
<!-- Node21&#45;&gt;Node3 -->
<g id="edge31" class="edge">
<title>Node21&#45;&gt;Node3</title>
<path fill="none" stroke="#191970" d="M879.9351,-425.3762C808.2727,-395.4751 589.3273,-304.1203 506.3448,-269.4958"/>
<polygon fill="#191970" stroke="#191970" points="507.4946,-266.1832 496.918,-265.5625 504.7991,-272.6434 507.4946,-266.1832"/>
</g>
<!-- Node21&#45;&gt;Node11 -->
<g id="edge34" class="edge">
<title>Node21&#45;&gt;Node11</title>
<path fill="none" stroke="#191970" d="M952.1108,-429.06C1035.0819,-419.0246 1203.1782,-398.6933 1297.6249,-387.27"/>
<polygon fill="#191970" stroke="#191970" points="1298.1406,-390.7332 1307.648,-386.0577 1297.3,-383.7839 1298.1406,-390.7332"/>
</g>
<!-- Node21&#45;&gt;Node13 -->
<g id="edge35" class="edge">
<title>Node21&#45;&gt;Node13</title>
<path fill="none" stroke="#191970" d="M853.9908,-429.6812C760.6239,-419.5483 557.2334,-397.4749 452.3886,-386.0964"/>
<polygon fill="#191970" stroke="#191970" points="452.5695,-382.5956 442.2502,-384.9961 451.8142,-389.5547 452.5695,-382.5956"/>
</g>
<!-- Node21&#45;&gt;Node14 -->
<g id="edge36" class="edge">
<title>Node21&#45;&gt;Node14</title>
<path fill="none" stroke="#191970" d="M947.2294,-425.4369C991.7415,-415.8127 1060.449,-400.957 1108.1169,-390.6504"/>
<polygon fill="#191970" stroke="#191970" points="1108.9186,-394.058 1117.953,-388.5237 1107.4392,-387.2161 1108.9186,-394.058"/>
</g>
<!-- Node21&#45;&gt;Node16 -->
<g id="edge32" class="edge">
<title>Node21&#45;&gt;Node16</title>
<path fill="none" stroke="#191970" d="M853.9068,-426.1884C799.8863,-416.4924 712.9114,-400.8815 653.9243,-390.2941"/>
<polygon fill="#191970" stroke="#191970" points="654.4407,-386.8309 643.9797,-388.5092 653.204,-393.7208 654.4407,-386.8309"/>
</g>
<!-- Node22 -->
<g id="node23" class="node">
<title>Node22</title>
<polygon fill="#ffffff" stroke="#bfbfbf" points="1518,-369.5 1518,-388.5 1648,-388.5 1648,-369.5 1518,-369.5"/>
<text text-anchor="middle" x="1583" y="-376.5" font-family="Helvetica,sans-Serif" font-size="10.00" fill="#000000">odp/api/abi/packet_io.h</text>
</g>
<!-- Node21&#45;&gt;Node22 -->
<g id="edge33" class="edge">
<title>Node21&#45;&gt;Node22</title>
<path fill="none" stroke="#191970" d="M952.1775,-430.9501C1069.6663,-421.2745 1367.3081,-396.7629 1507.6195,-385.2078"/>
<polygon fill="#191970" stroke="#191970" points="1508.1735,-388.6741 1517.8525,-384.3651 1507.5989,-381.6977 1508.1735,-388.6741"/>
</g>
<!-- Node23 -->
<g id="node24" class="node">
<title>Node23</title>
<g id="a_node24"><a xlink:href="spec_2packet_8h.html" target="_top" xlink:title="ODP packet descriptor. ">
<polygon fill="#ffffff" stroke="#000000" points="816.5,-369.5 816.5,-388.5 939.5,-388.5 939.5,-369.5 816.5,-369.5"/>
<text text-anchor="middle" x="878" y="-376.5" font-family="Helvetica,sans-Serif" font-size="10.00" fill="#000000">odp/api/spec/packet.h</text>
</a>
</g>
</g>
<!-- Node21&#45;&gt;Node23 -->
<g id="edge37" class="edge">
<title>Node21&#45;&gt;Node23</title>
<path fill="none" stroke="#191970" d="M898.6453,-425.2455C895.2756,-417.6973 890.507,-407.0158 886.4017,-397.8197"/>
<polygon fill="#191970" stroke="#191970" points="889.5773,-396.3473 882.3048,-388.6427 883.1853,-399.2009 889.5773,-396.3473"/>
</g>
<!-- Node23&#45;&gt;Node1 -->
<g id="edge38" class="edge">
<title>Node23&#45;&gt;Node1</title>
<path fill="none" stroke="#191970" d="M939.5178,-375.057C1034.6709,-368.4166 1212.8506,-353.6733 1273,-333 1298.0853,-324.3782 1299.9976,-313.2912 1324,-302 1368.2604,-281.179 1386.3977,-291.7244 1428,-266 1524.7674,-206.1647 1566.8811,-191.87 1611,-87 1616.3428,-74.3003 1618.8678,-67.3104 1611,-56 1602.008,-43.0735 1567.0575,-30.794 1536.5451,-22.1788"/>
<polygon fill="#191970" stroke="#191970" points="1537.4026,-18.7848 1526.8329,-19.5143 1535.5505,-25.5354 1537.4026,-18.7848"/>
</g>
<!-- Node23&#45;&gt;Node10 -->
<g id="edge45" class="edge">
<title>Node23&#45;&gt;Node10</title>
<path fill="none" stroke="#191970" d="M866.3698,-369.4134C855.4555,-360.2992 838.7914,-346.0786 825,-333 785.9996,-296.0155 789.4774,-269.2127 741,-246 660.9034,-207.6469 407.1404,-271.4201 343,-210 293.5281,-162.6262 319.2045,-122.1443 337,-56 339.5903,-46.3719 344.4274,-36.4702 349.0841,-28.3313"/>
<polygon fill="#191970" stroke="#191970" points="352.1215,-30.0726 354.3224,-19.7088 346.139,-26.4381 352.1215,-30.0726"/>
</g>
<!-- Node24 -->
<g id="node25" class="node">
<title>Node24</title>
<g id="a_node25"><a xlink:href="time_8h.html" target="_top" xlink:title="ODP time. ">
<polygon fill="#ffffff" stroke="#000000" points="834.5,-308 834.5,-327 921.5,-327 921.5,-308 834.5,-308"/>
<text text-anchor="middle" x="878" y="-315" font-family="Helvetica,sans-Serif" font-size="10.00" fill="#000000">odp/api/time.h</text>
</a>
</g>
</g>
<!-- Node23&#45;&gt;Node24 -->
<g id="edge39" class="edge">
<title>Node23&#45;&gt;Node24</title>
<path fill="none" stroke="#191970" d="M878,-369.3906C878,-360.8657 878,-348.1392 878,-337.4235"/>
<polygon fill="#191970" stroke="#191970" points="881.5001,-337.2448 878,-327.2449 874.5001,-337.2449 881.5001,-337.2448"/>
</g>
<!-- Node24&#45;&gt;Node3 -->
<g id="edge40" class="edge">
<title>Node24&#45;&gt;Node3</title>
<path fill="none" stroke="#191970" d="M834.3811,-310.86C763.6738,-300.0964 623.584,-278.7708 540.4269,-266.112"/>
<polygon fill="#191970" stroke="#191970" points="540.7409,-262.6196 530.328,-264.5747 539.6874,-269.5398 540.7409,-262.6196"/>
</g>
<!-- Node25 -->
<g id="node26" class="node">
<title>Node25</title>
<polygon fill="#ffffff" stroke="#bfbfbf" points="827.5,-246.5 827.5,-265.5 932.5,-265.5 932.5,-246.5 827.5,-246.5"/>
<text text-anchor="middle" x="880" y="-253.5" font-family="Helvetica,sans-Serif" font-size="10.00" fill="#000000">odp/api/abi/time.h</text>
</g>
<!-- Node24&#45;&gt;Node25 -->
<g id="edge41" class="edge">
<title>Node24&#45;&gt;Node25</title>
<path fill="none" stroke="#191970" d="M878.3125,-307.8906C878.5897,-299.3657 879.0036,-286.6392 879.3521,-275.9235"/>
<polygon fill="#191970" stroke="#191970" points="882.8561,-275.8534 879.6831,-265.7449 875.8598,-275.6258 882.8561,-275.8534"/>
</g>
<!-- Node26 -->
<g id="node27" class="node">
<title>Node26</title>
<g id="a_node27"><a xlink:href="spec_2time_8h.html" target="_top" xlink:title="ODP time. ">
<polygon fill="#ffffff" stroke="#000000" points="905.5,-62 905.5,-81 1018.5,-81 1018.5,-62 905.5,-62"/>
<text text-anchor="middle" x="962" y="-69" font-family="Helvetica,sans-Serif" font-size="10.00" fill="#000000">odp/api/spec/time.h</text>
</a>
</g>
</g>
<!-- Node24&#45;&gt;Node26 -->
<g id="edge42" class="edge">
<title>Node24&#45;&gt;Node26</title>
<path fill="none" stroke="#191970" d="M859.8151,-307.9298C838.8996,-295.4898 808.5747,-272.2302 818,-246 842.857,-176.8245 908.3239,-115.5355 941.7444,-87.5691"/>
<polygon fill="#191970" stroke="#191970" points="944.0012,-90.2448 949.5064,-81.1925 939.5577,-84.8359 944.0012,-90.2448"/>
</g>
<!-- Node26&#45;&gt;Node1 -->
<g id="edge43" class="edge">
<title>Node26&#45;&gt;Node1</title>
<path fill="none" stroke="#191970" d="M1002.0256,-61.9269C1012.0939,-59.7496 1022.9077,-57.6075 1033,-56 1167.8468,-34.521 1326.9122,-21.1129 1416.4595,-14.6441"/>
<polygon fill="#191970" stroke="#191970" points="1416.7726,-18.1308 1426.4978,-13.9271 1416.2738,-11.1486 1416.7726,-18.1308"/>
</g>
<!-- Node26&#45;&gt;Node10 -->
<g id="edge44" class="edge">
<title>Node26&#45;&gt;Node10</title>
<path fill="none" stroke="#191970" d="M925.5316,-61.9403C915.9765,-59.7097 905.6471,-57.5392 896,-56 728.4509,-29.267 528.7303,-17.2952 427.2662,-12.6076"/>
<polygon fill="#191970" stroke="#191970" points="427.3134,-9.1063 417.1652,-12.1501 426.9966,-16.0991 427.3134,-9.1063"/>
</g>
<!-- Node27&#45;&gt;Node1 -->
<g id="edge48" class="edge">
<title>Node27&#45;&gt;Node1</title>
<path fill="none" stroke="#191970" d="M1100.6832,-305.0087C1152.0838,-293.2307 1224.4857,-275.9439 1252,-266 1305.8405,-246.5416 1327.0316,-249.9878 1368,-210 1423.0489,-156.2687 1403.8917,-119.7111 1447,-56 1453.9214,-45.7707 1462.845,-35.3082 1470.5069,-26.951"/>
<polygon fill="#191970" stroke="#191970" points="1473.0615,-29.3436 1477.3598,-19.6598 1467.9607,-24.5495 1473.0615,-29.3436"/>
</g>
<!-- Node27&#45;&gt;Node10 -->
<g id="edge62" class="edge">
<title>Node27&#45;&gt;Node10</title>
<path fill="none" stroke="#191970" d="M1028.9162,-302.2205C1009.7109,-285.0507 975.7954,-258.012 941,-246 880.4902,-225.111 410.4074,-256.1061 366,-210 318.5469,-160.7316 341.1469,-68.901 354.0994,-29.1541"/>
<polygon fill="#191970" stroke="#191970" points="357.4398,-30.2025 357.3574,-19.608 350.815,-27.9415 357.4398,-30.2025"/>
</g>
<!-- Node28 -->
<g id="node29" class="node">
<title>Node28</title>
<g id="a_node29"><a xlink:href="schedule__types_8h.html" target="_top" xlink:title="ODP schedule. ">
<polygon fill="#ffffff" stroke="#000000" points="1103,-246.5 1103,-265.5 1243,-265.5 1243,-246.5 1103,-246.5"/>
<text text-anchor="middle" x="1173" y="-253.5" font-family="Helvetica,sans-Serif" font-size="10.00" fill="#000000">odp/api/schedule_types.h</text>
</a>
</g>
</g>
<!-- Node27&#45;&gt;Node28 -->
<g id="edge49" class="edge">
<title>Node27&#45;&gt;Node28</title>
<path fill="none" stroke="#191970" d="M1076.3123,-302.4554C1097.0138,-292.509 1123.9523,-279.5659 1144.1353,-269.8686"/>
<polygon fill="#191970" stroke="#191970" points="1145.6667,-273.0159 1153.1645,-265.5303 1142.6352,-266.7064 1145.6667,-273.0159"/>
</g>
<!-- Node33 -->
<g id="node34" class="node">
<title>Node33</title>
<g id="a_node34"><a xlink:href="deprecated_8h.html" target="_top" xlink:title="Control deprecated API definitions. ">
<polygon fill="#ffffff" stroke="#000000" points="613.5,-246.5 613.5,-265.5 732.5,-265.5 732.5,-246.5 613.5,-246.5"/>
<text text-anchor="middle" x="673" y="-253.5" font-family="Helvetica,sans-Serif" font-size="10.00" fill="#000000">odp/api/deprecated.h</text>
</a>
</g>
</g>
<!-- Node27&#45;&gt;Node33 -->
<g id="edge58" class="edge">
<title>Node27&#45;&gt;Node33</title>
<path fill="none" stroke="#191970" d="M989.3078,-308.2928C922.9486,-297.3221 812.119,-278.9995 740.8263,-267.2132"/>
<polygon fill="#191970" stroke="#191970" points="741.0416,-263.7014 730.6046,-265.5233 739.8998,-270.6076 741.0416,-263.7014"/>
</g>
<!-- Node29 -->
<g id="node30" class="node">
<title>Node29</title>
<polygon fill="#ffffff" stroke="#bfbfbf" points="1099.5,-179.5 1099.5,-209.5 1216.5,-209.5 1216.5,-179.5 1099.5,-179.5"/>
<text text-anchor="start" x="1107.5" y="-197.5" font-family="Helvetica,sans-Serif" font-size="10.00" fill="#000000">odp/api/abi/schedule</text>
<text text-anchor="middle" x="1158" y="-186.5" font-family="Helvetica,sans-Serif" font-size="10.00" fill="#000000">_types.h</text>
</g>
<!-- Node28&#45;&gt;Node29 -->
<g id="edge50" class="edge">
<title>Node28&#45;&gt;Node29</title>
<path fill="none" stroke="#191970" d="M1170.6563,-246.3906C1168.8893,-239.1463 1166.3824,-228.8679 1164.0653,-219.3676"/>
<polygon fill="#191970" stroke="#191970" points="1167.4394,-218.4304 1161.6694,-209.5446 1160.6387,-220.0892 1167.4394,-218.4304"/>
</g>
<!-- Node30 -->
<g id="node31" class="node">
<title>Node30</title>
<g id="a_node31"><a xlink:href="spec_2schedule__types_8h.html" target="_top" xlink:title="ODP schedule types. ">
<polygon fill="#ffffff" stroke="#000000" points="1234.5,-179.5 1234.5,-209.5 1359.5,-209.5 1359.5,-179.5 1234.5,-179.5"/>
<text text-anchor="start" x="1242.5" y="-197.5" font-family="Helvetica,sans-Serif" font-size="10.00" fill="#000000">odp/api/spec/schedule</text>
<text text-anchor="middle" x="1297" y="-186.5" font-family="Helvetica,sans-Serif" font-size="10.00" fill="#000000">_types.h</text>
</a>
</g>
</g>
<!-- Node28&#45;&gt;Node30 -->
<g id="edge51" class="edge">
<title>Node28&#45;&gt;Node30</title>
<path fill="none" stroke="#191970" d="M1192.375,-246.3906C1209.7784,-237.7591 1235.8666,-224.8202 1257.6379,-214.0224"/>
<polygon fill="#191970" stroke="#191970" points="1259.2626,-217.1234 1266.6662,-209.5446 1256.1524,-210.8523 1259.2626,-217.1234"/>
</g>
<!-- Node30&#45;&gt;Node1 -->
<g id="edge52" class="edge">
<title>Node30&#45;&gt;Node1</title>
<path fill="none" stroke="#191970" d="M1312.6456,-179.1579C1322.1312,-169.3564 1334.0826,-156.0727 1343,-143 1367.4176,-107.2046 1355.7977,-86.0657 1387,-56 1402.4682,-41.0952 1423.6324,-30.4107 1442.5082,-23.114"/>
<polygon fill="#191970" stroke="#191970" points="1443.9345,-26.3194 1452.1282,-19.6027 1441.5343,-19.7437 1443.9345,-26.3194"/>
</g>
<!-- Node30&#45;&gt;Node10 -->
<g id="edge57" class="edge">
<title>Node30&#45;&gt;Node10</title>
<path fill="none" stroke="#191970" d="M1234.2744,-180.3824C1231.1461,-179.8713 1228.0418,-179.4056 1225,-179 1075.4445,-159.0603 689.397,-192.8754 547,-143 510.1753,-130.1019 420.2324,-58.5909 380.4608,-26.087"/>
<polygon fill="#191970" stroke="#191970" points="382.5077,-23.2391 372.5571,-19.6006 378.0669,-28.6501 382.5077,-23.2391"/>
</g>
<!-- Node30&#45;&gt;Node31 -->
<g id="edge53" class="edge">
<title>Node30&#45;&gt;Node31</title>
<path fill="none" stroke="#191970" d="M1293.7865,-179.2977C1292.0948,-171.2945 1289.9999,-161.3843 1288.183,-152.7889"/>
<polygon fill="#191970" stroke="#191970" points="1291.574,-151.9069 1286.0815,-142.8469 1284.7253,-153.3546 1291.574,-151.9069"/>
</g>
<!-- Node32 -->
<g id="node33" class="node">
<title>Node32</title>
<g id="a_node33"><a xlink:href="spec_2support_8h.html" target="_top" xlink:title="ODP support API. ">
<polygon fill="#ffffff" stroke="#000000" points="1207.5,-62 1207.5,-81 1334.5,-81 1334.5,-62 1207.5,-62"/>
<text text-anchor="middle" x="1271" y="-69" font-family="Helvetica,sans-Serif" font-size="10.00" fill="#000000">odp/api/spec/support.h</text>
</a>
</g>
</g>
<!-- Node31&#45;&gt;Node32 -->
<g id="edge54" class="edge">
<title>Node31&#45;&gt;Node32</title>
<path fill="none" stroke="#191970" d="M1281.9688,-123.3906C1280.1478,-114.776 1277.4198,-101.8708 1275.1401,-91.0858"/>
<polygon fill="#191970" stroke="#191970" points="1278.5524,-90.3048 1273.0599,-81.2449 1271.7038,-91.7525 1278.5524,-90.3048"/>
</g>
<!-- Node32&#45;&gt;Node1 -->
<g id="edge55" class="edge">
<title>Node32&#45;&gt;Node1</title>
<path fill="none" stroke="#191970" d="M1304.75,-61.8906C1342.2381,-51.2169 1402.8597,-33.9566 1443.7886,-22.3033"/>
<polygon fill="#191970" stroke="#191970" points="1444.8277,-25.6466 1453.487,-19.5419 1442.9108,-18.9141 1444.8277,-25.6466"/>
</g>
<!-- Node32&#45;&gt;Node10 -->
<g id="edge56" class="edge">
<title>Node32&#45;&gt;Node10</title>
<path fill="none" stroke="#191970" d="M1231.412,-61.9327C1220.6321,-59.6461 1208.9168,-57.4501 1198,-56 1049.378,-36.2577 597.8009,-18.4966 427.2081,-12.3163"/>
<polygon fill="#191970" stroke="#191970" points="427.2297,-8.8149 417.11,-11.9521 426.9773,-15.8103 427.2297,-8.8149"/>
</g>
<!-- Node34 -->
<g id="node35" class="node">
<title>Node34</title>
<g id="a_node35"><a xlink:href="spec_2deprecated_8h.html" target="_top" xlink:title="Macro for deprecated API definitions. ">
<polygon fill="#ffffff" stroke="#000000" points="742.5,-62 742.5,-81 887.5,-81 887.5,-62 742.5,-62"/>
<text text-anchor="middle" x="815" y="-69" font-family="Helvetica,sans-Serif" font-size="10.00" fill="#000000">odp/api/spec/deprecated.h</text>
</a>
</g>
</g>
<!-- Node33&#45;&gt;Node34 -->
<g id="edge59" class="edge">
<title>Node33&#45;&gt;Node34</title>
<path fill="none" stroke="#191970" d="M680.4346,-246.3402C703.1516,-216.8242 771.8912,-127.5111 801.3542,-89.2299"/>
<polygon fill="#191970" stroke="#191970" points="804.3134,-91.1235 807.639,-81.0641 798.7661,-86.8541 804.3134,-91.1235"/>
</g>
<!-- Node34&#45;&gt;Node1 -->
<g id="edge60" class="edge">
<title>Node34&#45;&gt;Node1</title>
<path fill="none" stroke="#191970" d="M859.841,-61.9965C871.5666,-59.7652 884.2219,-57.5803 896,-56 1082.9448,-30.9173 1305.1317,-18.172 1416.279,-12.9549"/>
<polygon fill="#191970" stroke="#191970" points="1416.5321,-16.447 1426.3595,-12.4881 1416.2083,-9.4545 1416.5321,-16.447"/>
</g>
<!-- Node34&#45;&gt;Node10 -->
<g id="edge61" class="edge">
<title>Node34&#45;&gt;Node10</title>
<path fill="none" stroke="#191970" d="M767.3926,-61.9691C756.1394,-59.8639 744.1655,-57.7438 733,-56 626.4579,-39.3605 501.9811,-24.9889 427.4268,-16.9209"/>
<polygon fill="#191970" stroke="#191970" points="427.5625,-13.4154 417.2453,-15.8247 426.8132,-20.3752 427.5625,-13.4154"/>
</g>
<!-- Node35&#45;&gt;Node1 -->
<g id="edge65" class="edge">
<title>Node35&#45;&gt;Node1</title>
<path fill="none" stroke="#191970" d="M738.0616,-481.4975C756.347,-472.3255 784.6893,-457.9607 809,-445 825.1514,-436.3892 828.0166,-431.8247 845,-425 867.7062,-415.8756 1034.0104,-373.8298 1058,-369 1170.2058,-346.41 1207.844,-378.1959 1313,-333 1333.3427,-324.2567 1332.5632,-312.6058 1352,-302 1395.6751,-278.1684 1412.8733,-286.9533 1458,-266 1501.7611,-245.6808 1514.9308,-242.0455 1551,-210 1608.2068,-159.175 1672.9422,-117.9354 1628,-56 1617.8492,-42.0111 1579.5694,-30.0439 1545.4542,-21.8249"/>
<polygon fill="#191970" stroke="#191970" points="1546.038,-18.3671 1535.5042,-19.5022 1544.4467,-25.1839 1546.038,-18.3671"/>
</g>
<!-- Node35&#45;&gt;Node10 -->
<g id="edge69" class="edge">
<title>Node35&#45;&gt;Node10</title>
<path fill="none" stroke="#191970" d="M715.0457,-481.4941C704.1902,-455.7717 673.5073,-385.6203 655,-369 511.741,-240.3477 360.3233,-369.1874 252,-210 213.4946,-153.414 214.1635,-113.0355 252,-56 262.4905,-40.1864 279.6061,-29.7957 297.1984,-22.9732"/>
<polygon fill="#191970" stroke="#191970" points="298.7061,-26.1534 306.982,-19.5383 296.3871,-19.5486 298.7061,-26.1534"/>
</g>
<!-- Node35&#45;&gt;Node21 -->
<g id="edge68" class="edge">
<title>Node35&#45;&gt;Node21</title>
<path fill="none" stroke="#191970" d="M750.6307,-481.3733C781.3596,-472.021 828.176,-457.7725 861.8022,-447.5385"/>
<polygon fill="#191970" stroke="#191970" points="863.2344,-450.7612 871.782,-444.5011 861.1962,-444.0644 863.2344,-450.7612"/>
</g>
<!-- Node35&#45;&gt;Node31 -->
<g id="edge67" class="edge">
<title>Node35&#45;&gt;Node31</title>
<path fill="none" stroke="#191970" d="M729.64,-481.4747C746.1294,-467.1935 779.3679,-440.2822 812,-425 868.6244,-398.4819 901.7655,-431.0939 948,-389 978.4645,-361.2638 958.7805,-337.3145 980,-302 1017.7727,-239.1367 1026.9829,-216.5156 1090,-179 1130.7174,-154.7599 1183.3645,-143.2906 1223.5384,-137.8653"/>
<polygon fill="#191970" stroke="#191970" points="1223.9855,-141.3367 1233.4685,-136.6121 1223.109,-134.3918 1223.9855,-141.3367"/>
</g>
<!-- Node35&#45;&gt;Node33 -->
<g id="edge66" class="edge">
<title>Node35&#45;&gt;Node33</title>
<path fill="none" stroke="#191970" d="M717.1398,-481.4967C710.2774,-446.4391 686.2929,-323.9096 676.8562,-275.7"/>
<polygon fill="#191970" stroke="#191970" points="680.2393,-274.763 674.8834,-265.6216 673.3696,-276.1077 680.2393,-274.763"/>
</g>
<!-- Node36&#45;&gt;Node3 -->
<g id="edge72" class="edge">
<title>Node36&#45;&gt;Node3</title>
<path fill="none" stroke="#191970" d="M1138.9185,-766.4846C1115.7348,-764.6789 1088.5791,-762.6425 1064,-761 785.0528,-742.3595 711.4125,-773.0306 436,-725 340.4554,-708.3375 228,-755.9867 228,-659 228,-659 228,-659 228,-435 228,-364.1212 258.9287,-344.0317 316,-302 342.6613,-282.3646 377.5661,-271.0799 407.7857,-264.6092"/>
<polygon fill="#191970" stroke="#191970" points="408.7189,-267.9919 417.8357,-262.5943 407.3428,-261.1284 408.7189,-267.9919"/>
</g>
<!-- Node36&#45;&gt;Node11 -->
<g id="edge75" class="edge">
<title>Node36&#45;&gt;Node11</title>
<path fill="none" stroke="#191970" d="M1212.536,-761.4217C1257.7425,-735.585 1377.7889,-659.4392 1422,-557 1432.5961,-532.4483 1410.6633,-525.5226 1400,-501 1384.9452,-466.378 1374.7901,-423.3162 1369.7347,-398.711"/>
<polygon fill="#191970" stroke="#191970" points="1373.1482,-397.9305 1367.7715,-388.8013 1366.2816,-399.2909 1373.1482,-397.9305"/>
</g>
<!-- Node36&#45;&gt;Node14 -->
<g id="edge73" class="edge">
<title>Node36&#45;&gt;Node14</title>
<path fill="none" stroke="#191970" d="M1203.4977,-761.2186C1210.5403,-752.4179 1220.0171,-738.786 1224,-725 1226.4672,-716.4604 1224.8341,-713.8497 1224,-705 1212.8932,-587.1527 1179.6781,-448.4808 1166.9965,-398.321"/>
<polygon fill="#191970" stroke="#191970" points="1170.3556,-397.3293 1164.4899,-388.5064 1163.5733,-399.0615 1170.3556,-397.3293"/>
</g>
<!-- Node36&#45;&gt;Node17 -->
<g id="edge77" class="edge">
<title>Node36&#45;&gt;Node17</title>
<path fill="none" stroke="#191970" d="M1155.1453,-761.4479C1122.4163,-752.7426 1079.7639,-739.122 1069,-725 1046.3427,-695.2741 1050.0972,-648.8101 1054.667,-622.6367"/>
<polygon fill="#191970" stroke="#191970" points="1058.1121,-623.2563 1056.6008,-612.7698 1051.2428,-621.9099 1058.1121,-623.2563"/>
</g>
<!-- Node36&#45;&gt;Node22 -->
<g id="edge76" class="edge">
<title>Node36&#45;&gt;Node22</title>
<path fill="none" stroke="#191970" d="M1221.8462,-761.3917C1243.2587,-753.1761 1273.5985,-740.2762 1298,-725 1396.3964,-663.4006 1426.9327,-648.7921 1498,-557 1537.7262,-505.6887 1565.2131,-432.8125 1576.8138,-398.4098"/>
<polygon fill="#191970" stroke="#191970" points="1580.2182,-399.2611 1580.0174,-388.6681 1573.5685,-397.0742 1580.2182,-399.2611"/>
</g>
<!-- Node37 -->
<g id="node38" class="node">
<title>Node37</title>
<polygon fill="#ffffff" stroke="#bfbfbf" points="1348,-705.5 1348,-724.5 1494,-724.5 1494,-705.5 1348,-705.5"/>
<text text-anchor="middle" x="1421" y="-712.5" font-family="Helvetica,sans-Serif" font-size="10.00" fill="#000000">odp/api/abi/classification.h</text>
</g>
<!-- Node36&#45;&gt;Node37 -->
<g id="edge74" class="edge">
<title>Node36&#45;&gt;Node37</title>
<path fill="none" stroke="#191970" d="M1233.594,-761.4369C1272.0284,-751.9133 1331.136,-737.2672 1372.671,-726.9753"/>
<polygon fill="#191970" stroke="#191970" points="1373.7006,-730.3261 1382.5652,-724.5237 1372.0169,-723.5316 1373.7006,-730.3261"/>
</g>
<!-- Node38 -->
<g id="node39" class="node">
<title>Node38</title>
<g id="a_node39"><a xlink:href="spec_2packet__io_8h.html" target="_top" xlink:title="ODP Packet IO. ">
<polygon fill="#ffffff" stroke="#000000" points="1078.5,-705.5 1078.5,-724.5 1215.5,-724.5 1215.5,-705.5 1078.5,-705.5"/>
<text text-anchor="middle" x="1147" y="-712.5" font-family="Helvetica,sans-Serif" font-size="10.00" fill="#000000">odp/api/spec/packet_io.h</text>
</a>
</g>
</g>
<!-- Node36&#45;&gt;Node38 -->
<g id="edge78" class="edge">
<title>Node36&#45;&gt;Node38</title>
<path fill="none" stroke="#191970" d="M1186.639,-761.2455C1179.825,-753.2958 1170.0319,-741.8706 1161.8848,-732.3656"/>
<polygon fill="#191970" stroke="#191970" points="1164.4305,-729.9575 1155.2651,-724.6427 1159.1157,-734.513 1164.4305,-729.9575"/>
</g>
<!-- Node38&#45;&gt;Node1 -->
<g id="edge79" class="edge">
<title>Node38&#45;&gt;Node1</title>
<path fill="none" stroke="#191970" d="M1165.0422,-705.3435C1206.6936,-682.6047 1311.8119,-622.6347 1388,-557 1413.279,-535.2226 1418.8537,-528.3259 1438,-501 1476.2254,-446.4441 1466.7237,-420.4805 1509,-369 1599.7506,-258.4915 1701.5202,-281.2643 1738,-143 1744.4353,-118.6093 1739.9907,-66.697 1730,-56 1707.0271,-31.4032 1621.0601,-19.6811 1557.8686,-14.2893"/>
<polygon fill="#191970" stroke="#191970" points="1557.7931,-10.7716 1547.5415,-13.4465 1557.2237,-17.7484 1557.7931,-10.7716"/>
</g>
<!-- Node38&#45;&gt;Node10 -->
<g id="edge88" class="edge">
<title>Node38&#45;&gt;Node10</title>
<path fill="none" stroke="#191970" d="M1078.4999,-711.6671C945.9936,-704.8813 659.0823,-688.446 562,-669 476.6956,-651.9132 190,-633.9988 190,-547 190,-547 190,-547 190,-491 190,-406.8153 114,-401.6847 114,-317.5 114,-317.5 114,-317.5 114,-133 114,-52.0176 221.7064,-24.353 294.8719,-14.9028"/>
<polygon fill="#191970" stroke="#191970" points="295.4432,-18.3593 304.9519,-13.6865 294.6046,-11.4097 295.4432,-18.3593"/>
</g>
<!-- Node38&#45;&gt;Node15 -->
<g id="edge85" class="edge">
<title>Node38&#45;&gt;Node15</title>
<path fill="none" stroke="#191970" d="M1078.3108,-707.036C982.6383,-695.9436 810.9796,-676.0411 721.618,-665.6803"/>
<polygon fill="#191970" stroke="#191970" points="721.9985,-662.2011 711.6619,-664.526 721.1922,-669.1545 721.9985,-662.2011"/>
</g>
<!-- Node38&#45;&gt;Node21 -->
<g id="edge87" class="edge">
<title>Node38&#45;&gt;Node21</title>
<path fill="none" stroke="#191970" d="M1147.5099,-705.2562C1148.1871,-683.3587 1147.1978,-629.3333 1124,-593 1077.7186,-520.5123 985.245,-471.1275 935.8634,-448.7102"/>
<polygon fill="#191970" stroke="#191970" points="937.1476,-445.451 926.588,-444.5875 934.3044,-451.8476 937.1476,-445.451"/>
</g>
<!-- Node38&#45;&gt;Node24 -->
<g id="edge86" class="edge">
<title>Node38&#45;&gt;Node24</title>
<path fill="none" stroke="#191970" d="M1151.1724,-705.3931C1172.7346,-655.064 1268.7999,-422.085 1223,-369 1187.3399,-327.6677 1033.985,-341.1007 980,-333 964.3071,-330.6452 947.2599,-328.0639 931.6753,-325.6949"/>
<polygon fill="#191970" stroke="#191970" points="932.0868,-322.2173 921.6741,-324.1733 931.0339,-329.1377 932.0868,-322.2173"/>
</g>
<!-- Node38&#45;&gt;Node33 -->
<g id="edge80" class="edge">
<title>Node38&#45;&gt;Node33</title>
<path fill="none" stroke="#191970" d="M1078.3884,-711.5485C942.6777,-704.3737 649.3761,-687.0116 607,-669 520.2387,-632.1229 385.6236,-542.1341 323,-389 319.6354,-380.7725 317.7685,-376.1864 323,-369 356.9579,-322.3525 517.4017,-285.2508 608.8203,-267.4651"/>
<polygon fill="#191970" stroke="#191970" points="609.6405,-270.8716 618.8001,-265.5468 608.3192,-263.9974 609.6405,-270.8716"/>
</g>
<!-- Node39 -->
<g id="node40" class="node">
<title>Node39</title>
<g id="a_node40"><a xlink:href="packet__io__stats_8h.html" target="_top" xlink:title="ODP packet IO stats. ">
<polygon fill="#ffffff" stroke="#000000" points="1238.5,-537.5 1238.5,-556.5 1379.5,-556.5 1379.5,-537.5 1238.5,-537.5"/>
<text text-anchor="middle" x="1309" y="-544.5" font-family="Helvetica,sans-Serif" font-size="10.00" fill="#000000">odp/api/packet_io_stats.h</text>
</a>
</g>
</g>
<!-- Node38&#45;&gt;Node39 -->
<g id="edge81" class="edge">
<title>Node38&#45;&gt;Node39</title>
<path fill="none" stroke="#191970" d="M1159.0996,-705.1646C1169.5514,-696.3293 1184.7087,-682.6769 1196,-669 1221.4344,-638.1919 1216.5026,-621.9818 1244,-593 1255.4087,-580.9754 1270.3889,-570.124 1283.0925,-561.9845"/>
<polygon fill="#191970" stroke="#191970" points="1285.1964,-564.7985 1291.8568,-556.559 1281.5119,-558.8466 1285.1964,-564.7985"/>
</g>
<!-- Node40 -->
<g id="node41" class="node">
<title>Node40</title>
<g id="a_node41"><a xlink:href="spec_2packet__io__stats_8h.html" target="_top" xlink:title="ODP Packet IO. ">
<polygon fill="#ffffff" stroke="#000000" points="1075,-56.5 1075,-86.5 1189,-86.5 1189,-56.5 1075,-56.5"/>
<text text-anchor="start" x="1083" y="-74.5" font-family="Helvetica,sans-Serif" font-size="10.00" fill="#000000">odp/api/spec/packet</text>
<text text-anchor="middle" x="1132" y="-63.5" font-family="Helvetica,sans-Serif" font-size="10.00" fill="#000000">_io_stats.h</text>
</a>
</g>
</g>
<!-- Node39&#45;&gt;Node40 -->
<g id="edge82" class="edge">
<title>Node39&#45;&gt;Node40</title>
<path fill="none" stroke="#191970" d="M1341.8071,-537.408C1384.0256,-522.808 1452,-490.6587 1452,-435 1452,-435 1452,-435 1452,-379 1452,-369.4574 1441.6316,-373.0691 1433,-369 1363.2661,-336.1262 1346.7072,-324.6 1273,-302 1195.4165,-278.2115 1147.6189,-326.9106 1094,-266 1051.2912,-217.4832 1091.7308,-135.4288 1116.2819,-95.1884"/>
<polygon fill="#191970" stroke="#191970" points="1119.3321,-96.9123 1121.683,-86.5815 1113.4029,-93.1914 1119.3321,-96.9123"/>
</g>
<!-- Node40&#45;&gt;Node1 -->
<g id="edge83" class="edge">
<title>Node40&#45;&gt;Node1</title>
<path fill="none" stroke="#191970" d="M1189.1822,-57.8021C1192.1601,-57.1729 1195.1128,-56.568 1198,-56 1272.2195,-41.3982 1357.8615,-28.2216 1416.5352,-19.7514"/>
<polygon fill="#191970" stroke="#191970" points="1417.039,-23.2151 1426.44,-18.3293 1416.044,-16.2861 1417.039,-23.2151"/>
</g>
<!-- Node40&#45;&gt;Node10 -->
<g id="edge84" class="edge">
<title>Node40&#45;&gt;Node10</title>
<path fill="none" stroke="#191970" d="M1074.8838,-62.2465C1059.3787,-59.9592 1042.5719,-57.6845 1027,-56 808.1086,-32.3205 547.352,-18.4545 427.39,-12.8765"/>
<polygon fill="#191970" stroke="#191970" points="427.4147,-9.3741 417.2641,-12.4099 427.0924,-16.3666 427.4147,-9.3741"/>
</g>
<!-- Node42 -->
<g id="node43" class="node">
<title>Node42</title>
<g id="a_node43"><a xlink:href="spec_2protocols_8h.html" target="_top" xlink:title="ODP protocols. ">
<polygon fill="#ffffff" stroke="#000000" points="1467.5,-62 1467.5,-81 1602.5,-81 1602.5,-62 1467.5,-62"/>
<text text-anchor="middle" x="1535" y="-69" font-family="Helvetica,sans-Serif" font-size="10.00" fill="#000000">odp/api/spec/protocols.h</text>
</a>
</g>
</g>
<!-- Node41&#45;&gt;Node42 -->
<g id="edge90" class="edge">
<title>Node41&#45;&gt;Node42</title>
<path fill="none" stroke="#191970" d="M1900.9429,-425.2773C1849.7606,-375.7965 1618.0794,-151.8174 1552.4024,-88.3238"/>
<polygon fill="#191970" stroke="#191970" points="1554.5358,-85.5181 1544.9135,-81.0839 1549.6704,-90.5508 1554.5358,-85.5181"/>
</g>
<!-- Node42&#45;&gt;Node1 -->
<g id="edge91" class="edge">
<title>Node42&#45;&gt;Node1</title>
<path fill="none" stroke="#191970" d="M1527.5,-61.8906C1520.4262,-52.8273 1509.6458,-39.0149 1500.9854,-27.9188"/>
<polygon fill="#191970" stroke="#191970" points="1503.5176,-25.4746 1494.6057,-19.7449 1497.9994,-29.7815 1503.5176,-25.4746"/>
</g>
<!-- Node42&#45;&gt;Node10 -->
<g id="edge92" class="edge">
<title>Node42&#45;&gt;Node10</title>
<path fill="none" stroke="#191970" d="M1467.064,-65.4538C1430.3502,-62.328 1384.2169,-58.6283 1343,-56 998.6228,-34.0398 585.678,-18.0742 427.284,-12.3323"/>
<polygon fill="#191970" stroke="#191970" points="427.3423,-8.8322 417.2224,-11.9689 427.0896,-15.8276 427.3423,-8.8322"/>
</g>
<!-- Node43&#45;&gt;Node3 -->
<g id="edge94" class="edge">
<title>Node43&#45;&gt;Node3</title>
<path fill="none" stroke="#191970" d="M1399.8314,-889.395C1136.4217,-869.6515 152,-787.2839 152,-659 152,-659 152,-659 152,-491 152,-391.499 190.7015,-359.3673 272,-302 293.651,-286.7222 357.2994,-273.7921 407.4266,-265.5686"/>
<polygon fill="#191970" stroke="#191970" points="408.2587,-268.9799 417.5762,-263.9368 407.1474,-262.0686 408.2587,-268.9799"/>
</g>
<!-- Node43&#45;&gt;Node11 -->
<g id="edge97" class="edge">
<title>Node43&#45;&gt;Node11</title>
<path fill="none" stroke="#191970" d="M1472.5492,-884.3829C1480.1037,-875.4744 1490.982,-861.5881 1498,-848 1538.5678,-769.4534 1560,-747.4042 1560,-659 1560,-659 1560,-659 1560,-603 1560,-502.2953 1446.5741,-424.6297 1393.1815,-393.649"/>
<polygon fill="#191970" stroke="#191970" points="1394.6753,-390.4724 1384.251,-388.5787 1391.2191,-396.5597 1394.6753,-390.4724"/>
</g>
<!-- Node43&#45;&gt;Node14 -->
<g id="edge95" class="edge">
<title>Node43&#45;&gt;Node14</title>
<path fill="none" stroke="#191970" d="M1469.34,-884.3964C1484.2318,-856.3351 1523.8011,-772.2128 1503,-705 1453.2923,-544.3835 1264.0335,-431.734 1190.9954,-393.4035"/>
<polygon fill="#191970" stroke="#191970" points="1192.3741,-390.1762 1181.8836,-388.6924 1189.1591,-396.3942 1192.3741,-390.1762"/>
</g>
<!-- Node43&#45;&gt;Node17 -->
<g id="edge99" class="edge">
<title>Node43&#45;&gt;Node17</title>
<path fill="none" stroke="#191970" d="M1399.7194,-889.9206C1274.9303,-880.2309 1012,-850.3943 1012,-771 1012,-771 1012,-771 1012,-715 1012,-679.5481 1032.2704,-642.3564 1046.1871,-620.9999"/>
<polygon fill="#191970" stroke="#191970" points="1049.1549,-622.8593 1051.8617,-612.6161 1043.3579,-618.9356 1049.1549,-622.8593"/>
</g>
<!-- Node43&#45;&gt;Node22 -->
<g id="edge98" class="edge">
<title>Node43&#45;&gt;Node22</title>
<path fill="none" stroke="#191970" d="M1488.8903,-884.4806C1527.6421,-867.8461 1598,-829.5783 1598,-771 1598,-771 1598,-771 1598,-491 1598,-458.2739 1591.6307,-420.641 1587.193,-398.3923"/>
<polygon fill="#191970" stroke="#191970" points="1590.6058,-397.6123 1585.1491,-388.5307 1583.7515,-399.0329 1590.6058,-397.6123"/>
</g>
<!-- Node43&#45;&gt;Node37 -->
<g id="edge96" class="edge">
<title>Node43&#45;&gt;Node37</title>
<path fill="none" stroke="#191970" d="M1461.6881,-884.3762C1454.8927,-856.0883 1434.8846,-772.7987 1425.7028,-734.5767"/>
<polygon fill="#191970" stroke="#191970" points="1429.0623,-733.5772 1423.3233,-724.6714 1422.256,-735.2123 1429.0623,-733.5772"/>
</g>
<!-- Node44 -->
<g id="node45" class="node">
<title>Node44</title>
<g id="a_node45"><a xlink:href="spec_2classification_8h.html" target="_top" xlink:title="ODP classification descriptor. ">
<polygon fill="#ffffff" stroke="#000000" points="1626,-823 1626,-842 1780,-842 1780,-823 1626,-823"/>
<text text-anchor="middle" x="1703" y="-830" font-family="Helvetica,sans-Serif" font-size="10.00" fill="#000000">odp/api/spec/classification.h</text>
</a>
</g>
</g>
<!-- Node43&#45;&gt;Node44 -->
<g id="edge100" class="edge">
<title>Node43&#45;&gt;Node44</title>
<path fill="none" stroke="#191970" d="M1501.0815,-884.4581C1542.7698,-873.7308 1610.5497,-856.2895 1655.9384,-844.61"/>
<polygon fill="#191970" stroke="#191970" points="1657.0192,-847.946 1665.8315,-842.0643 1655.2747,-841.1668 1657.0192,-847.946"/>
</g>
<!-- Node44&#45;&gt;Node1 -->
<g id="edge101" class="edge">
<title>Node44&#45;&gt;Node1</title>
<path fill="none" stroke="#191970" d="M1716.8548,-822.9602C1749.4001,-799.3019 1828,-734.3635 1828,-659 1828,-659 1828,-659 1828,-317.5 1828,-201.2361 1911.6353,-143.4318 1835,-56 1817.0321,-35.5008 1654.1956,-21.1862 1557.7642,-14.4244"/>
<polygon fill="#191970" stroke="#191970" points="1558.0026,-10.9326 1547.7851,-13.7349 1557.5201,-17.916 1558.0026,-10.9326"/>
</g>
<!-- Node44&#45;&gt;Node10 -->
<g id="edge109" class="edge">
<title>Node44&#45;&gt;Node10</title>
<path fill="none" stroke="#191970" d="M1625.9573,-828.3928C1333.4457,-812.5972 304.9123,-755.1467 242,-725 144.4472,-678.2541 76,-655.1745 76,-547 76,-547 76,-547 76,-133 76,-91.952 92.8904,-78.8358 127,-56 153.9532,-37.9552 235.5713,-24.7672 294.8417,-17.2504"/>
<polygon fill="#191970" stroke="#191970" points="295.3965,-20.7085 304.8891,-16.003 294.534,-13.7618 295.3965,-20.7085"/>
</g>
<!-- Node44&#45;&gt;Node31 -->
<g id="edge103" class="edge">
<title>Node44&#45;&gt;Node31</title>
<path fill="none" stroke="#191970" d="M1714.2344,-822.7436C1724.3096,-813.2297 1738.4794,-797.7755 1745,-781 1764.6767,-730.3783 1752,-713.3114 1752,-659 1752,-659 1752,-659 1752,-435 1752,-382.19 1411.2134,-199.5997 1311.2488,-147.1756"/>
<polygon fill="#191970" stroke="#191970" points="1312.8292,-144.0524 1302.3462,-142.5174 1309.5839,-150.2547 1312.8292,-144.0524"/>
</g>
<!-- Node44&#45;&gt;Node36 -->
<g id="edge102" class="edge">
<title>Node44&#45;&gt;Node36</title>
<path fill="none" stroke="#191970" d="M1625.8457,-823.1595C1526.3568,-811.115 1355.0068,-790.3709 1261.1726,-779.0111"/>
<polygon fill="#191970" stroke="#191970" points="1261.5796,-775.5349 1251.2314,-777.8075 1260.7383,-782.4841 1261.5796,-775.5349"/>
</g>
<!-- Node45 -->
<g id="node46" class="node">
<title>Node45</title>
<g id="a_node46"><a xlink:href="threshold_8h.html" target="_top" xlink:title="ODP threshold API &#45; platform specific header. ">
<polygon fill="#ffffff" stroke="#000000" points="1626,-761.5 1626,-780.5 1736,-780.5 1736,-761.5 1626,-761.5"/>
<text text-anchor="middle" x="1681" y="-768.5" font-family="Helvetica,sans-Serif" font-size="10.00" fill="#000000">odp/api/threshold.h</text>
</a>
</g>
</g>
<!-- Node44&#45;&gt;Node45 -->
<g id="edge104" class="edge">
<title>Node44&#45;&gt;Node45</title>
<path fill="none" stroke="#191970" d="M1699.5625,-822.8906C1696.4487,-814.1862 1691.768,-801.1015 1687.886,-790.2494"/>
<polygon fill="#191970" stroke="#191970" points="1691.1497,-788.9817 1684.486,-780.7449 1684.5588,-791.3394 1691.1497,-788.9817"/>
</g>
<!-- Node46 -->
<g id="node47" class="node">
<title>Node46</title>
<g id="a_node47"><a xlink:href="spec_2threshold_8h.html" target="_top" xlink:title="ODP threshold descriptor. ">
<polygon fill="#ffffff" stroke="#000000" points="1128,-308 1128,-327 1264,-327 1264,-308 1128,-308"/>
<text text-anchor="middle" x="1196" y="-315" font-family="Helvetica,sans-Serif" font-size="10.00" fill="#000000">odp/api/spec/threshold.h</text>
</a>
</g>
</g>
<!-- Node45&#45;&gt;Node46 -->
<g id="edge105" class="edge">
<title>Node45&#45;&gt;Node46</title>
<path fill="none" stroke="#191970" d="M1680.2836,-761.4181C1678.9011,-742.0718 1676,-696.9544 1676,-659 1676,-659 1676,-659 1676,-435 1676,-404.4754 1680.3293,-388.6849 1657,-369 1628.4138,-344.8794 1398.5408,-328.6457 1274.5801,-321.5545"/>
<polygon fill="#191970" stroke="#191970" points="1274.5651,-318.0482 1264.3835,-320.9782 1274.17,-325.037 1274.5651,-318.0482"/>
</g>
<!-- Node46&#45;&gt;Node1 -->
<g id="edge106" class="edge">
<title>Node46&#45;&gt;Node1</title>
<path fill="none" stroke="#191970" d="M1252.9562,-307.9695C1305.2517,-298.3869 1378.1258,-282.6786 1402,-266 1481.1855,-210.6807 1425.8391,-147.0837 1458,-56 1461.517,-46.0394 1467.4996,-35.9984 1473.1206,-27.8499"/>
<polygon fill="#191970" stroke="#191970" points="1476.1013,-29.7025 1479.1626,-19.5595 1470.4443,-25.5796 1476.1013,-29.7025"/>
</g>
<!-- Node46&#45;&gt;Node3 -->
<g id="edge107" class="edge">
<title>Node46&#45;&gt;Node3</title>
<path fill="none" stroke="#191970" d="M1147.8182,-307.9847C1135.2243,-305.7535 1121.6365,-303.5717 1109,-302 885.7064,-274.228 828.3987,-282.629 604,-266 583.3367,-264.4688 560.8297,-262.754 540.4394,-261.1828"/>
<polygon fill="#191970" stroke="#191970" points="540.5447,-257.6806 530.3049,-260.4003 540.0058,-264.6599 540.5447,-257.6806"/>
</g>
<!-- Node46&#45;&gt;Node10 -->
<g id="edge108" class="edge">
<title>Node46&#45;&gt;Node10</title>
<path fill="none" stroke="#191970" d="M1172.9541,-307.9117C1133.3072,-291.9046 1049.284,-260.1061 975,-246 912.0009,-234.0368 447.094,-252.4143 399,-210 372.2417,-186.4018 364.0545,-75.6352 361.789,-29.8652"/>
<polygon fill="#191970" stroke="#191970" points="365.2787,-29.5544 361.3329,-19.7217 358.2857,-29.8689 365.2787,-29.5544"/>
</g>
<!-- Node48 -->
<g id="node49" class="node">
<title>Node48</title>
<polygon fill="#ffffff" stroke="#bfbfbf" points="273,-817.5 273,-847.5 375,-847.5 375,-817.5 273,-817.5"/>
<text text-anchor="start" x="281" y="-835.5" font-family="Helvetica,sans-Serif" font-size="10.00" fill="#000000">odp/api/abi/traffic</text>
<text text-anchor="middle" x="324" y="-824.5" font-family="Helvetica,sans-Serif" font-size="10.00" fill="#000000">_mngr.h</text>
</g>
<!-- Node47&#45;&gt;Node48 -->
<g id="edge111" class="edge">
<title>Node47&#45;&gt;Node48</title>
<path fill="none" stroke="#191970" d="M318.9375,-884.3906C319.6367,-877.2234 320.6257,-867.0862 321.5443,-857.671"/>
<polygon fill="#191970" stroke="#191970" points="325.0446,-857.8372 322.5322,-847.5446 318.0777,-857.1575 325.0446,-857.8372"/>
</g>
<!-- Node49 -->
<g id="node50" class="node">
<title>Node49</title>
<g id="a_node50"><a xlink:href="spec_2traffic__mngr_8h.html" target="_top" xlink:title="Copyright (c) 2015&#45;2018, Linaro Limited All rights reserved. ">
<polygon fill="#ffffff" stroke="#000000" points="145,-817.5 145,-847.5 255,-847.5 255,-817.5 145,-817.5"/>
<text text-anchor="start" x="153" y="-835.5" font-family="Helvetica,sans-Serif" font-size="10.00" fill="#000000">odp/api/spec/traffic</text>
<text text-anchor="middle" x="200" y="-824.5" font-family="Helvetica,sans-Serif" font-size="10.00" fill="#000000">_mngr.h</text>
</a>
</g>
</g>
<!-- Node47&#45;&gt;Node49 -->
<g id="edge112" class="edge">
<title>Node47&#45;&gt;Node49</title>
<path fill="none" stroke="#191970" d="M299.5625,-884.3906C283.0751,-875.7976 258.3968,-862.9356 237.7352,-852.1671"/>
<polygon fill="#191970" stroke="#191970" points="239.3516,-849.0627 228.866,-847.5446 236.1163,-855.2702 239.3516,-849.0627"/>
</g>
<!-- Node49&#45;&gt;Node1 -->
<g id="edge113" class="edge">
<title>Node49&#45;&gt;Node1</title>
<path fill="none" stroke="#191970" d="M255.0231,-818.4293C258.0488,-817.8886 261.0554,-817.4056 264,-817 702.8131,-756.5615 820.8578,-838.9991 1260,-781 1434.1752,-757.9961 1636,-834.6877 1636,-659 1636,-659 1636,-659 1636,-603 1636,-354.7556 1915.6061,-240.0318 1749,-56 1724.0149,-28.4016 1626.5849,-17.3204 1557.8683,-12.8981"/>
<polygon fill="#191970" stroke="#191970" points="1557.7206,-9.3828 1547.5264,-12.2684 1557.2951,-16.3698 1557.7206,-9.3828"/>
</g>
<!-- Node49&#45;&gt;Node3 -->
<g id="edge114" class="edge">
<title>Node49&#45;&gt;Node3</title>
<path fill="none" stroke="#191970" d="M178.7416,-817.2466C153.2745,-797.0184 114,-758.7335 114,-715 114,-715 114,-715 114,-491 114,-395.9668 135.3634,-355.3629 214,-302 244.8474,-281.0669 341.4519,-268.1647 407.8033,-261.5385"/>
<polygon fill="#191970" stroke="#191970" points="408.1561,-265.0208 417.7695,-260.5675 407.4772,-258.0538 408.1561,-265.0208"/>
</g>
<!-- Node49&#45;&gt;Node10 -->
<g id="edge116" class="edge">
<title>Node49&#45;&gt;Node10</title>
<path fill="none" stroke="#191970" d="M144.7019,-817.3713C97.7717,-800.7726 38,-769.027 38,-715 38,-715 38,-715 38,-133 38,-97.154 34.8309,-79.3833 62,-56 95.9537,-26.7774 217.4267,-16.0747 294.7014,-12.1859"/>
<polygon fill="#191970" stroke="#191970" points="295.0089,-15.6753 304.8306,-11.7023 294.675,-8.6833 295.0089,-15.6753"/>
</g>
<!-- Node49&#45;&gt;Node36 -->
<g id="edge115" class="edge">
<title>Node49&#45;&gt;Node36</title>
<path fill="none" stroke="#191970" d="M255.0297,-818.4765C258.0537,-817.9236 261.0581,-817.4251 264,-817 431.2153,-792.8401 945.0144,-777.4896 1128.7842,-772.6505"/>
<polygon fill="#191970" stroke="#191970" points="1128.9434,-776.1477 1138.8485,-772.3874 1128.7604,-769.1501 1128.9434,-776.1477"/>
</g>
</g>
</svg>
