<?xml version="1.0" encoding="UTF-8" standalone="no"?>
<!DOCTYPE svg PUBLIC "-//W3C//DTD SVG 1.1//EN"
 "http://www.w3.org/Graphics/SVG/1.1/DTD/svg11.dtd">
<!-- Generated by graphviz version 2.40.1 (20161225.0304)
 -->
<!-- Title: packet_io.h Pages: 1 -->
<svg width="1534pt" height="733pt"
 viewBox="0.00 0.00 1534.00 733.00" xmlns="http://www.w3.org/2000/svg" xmlns:xlink="http://www.w3.org/1999/xlink">
<g id="graph0" class="graph" transform="scale(1 1) rotate(0) translate(4 729)">
<title>packet_io.h</title>
<polygon fill="#ffffff" stroke="transparent" points="-4,4 -4,-729 1530,-729 1530,4 -4,4"/>
<!-- Node0 -->
<g id="node1" class="node">
<title>Node0</title>
<polygon fill="#bfbfbf" stroke="#000000" points="750.5,-705.5 750.5,-724.5 823.5,-724.5 823.5,-705.5 750.5,-705.5"/>
<text text-anchor="middle" x="787" y="-712.5" font-family="Helvetica,sans-Serif" font-size="10.00" fill="#000000">packet_io.h</text>
</g>
<!-- Node1 -->
<g id="node2" class="node">
<title>Node1</title>
<polygon fill="#ffffff" stroke="#bfbfbf" points="242.5,-.5 242.5,-19.5 363.5,-19.5 363.5,-.5 242.5,-.5"/>
<text text-anchor="middle" x="303" y="-7.5" font-family="Helvetica,sans-Serif" font-size="10.00" fill="#000000">odp/visibility_begin.h</text>
</g>
<!-- Node0&#45;&gt;Node1 -->
<g id="edge1" class="edge">
<title>Node0&#45;&gt;Node1</title>
<path fill="none" stroke="#191970" d="M750.4976,-713.8887C633.8306,-710.0931 270.9728,-696.3384 157,-669 83.3952,-651.3446 0,-678.6927 0,-603 0,-603 0,-603 0,-133 0,-91.201 18.8305,-78.5892 54,-56 82.8623,-37.4619 169.0713,-24.431 231.9818,-17.082"/>
<polygon fill="#191970" stroke="#191970" points="232.7201,-20.5205 242.258,-15.9076 231.9252,-13.5658 232.7201,-20.5205"/>
</g>
<!-- Node2 -->
<g id="node3" class="node">
<title>Node2</title>
<g id="a_node3"><a xlink:href="deprecated_8h.html" target="_top" xlink:title="Control deprecated API definitions. ">
<polygon fill="#ffffff" stroke="#000000" points="456.5,-246.5 456.5,-265.5 575.5,-265.5 575.5,-246.5 456.5,-246.5"/>
<text text-anchor="middle" x="516" y="-253.5" font-family="Helvetica,sans-Serif" font-size="10.00" fill="#000000">odp/api/deprecated.h</text>
</a>
</g>
</g>
<!-- Node0&#45;&gt;Node2 -->
<g id="edge2" class="edge">
<title>Node0&#45;&gt;Node2</title>
<path fill="none" stroke="#191970" d="M750.1909,-710.6318C663.167,-699.282 452,-665.3206 452,-603 452,-603 452,-603 452,-379 452,-337.3772 481.1972,-295.8677 500.1502,-273.3069"/>
<polygon fill="#191970" stroke="#191970" points="502.908,-275.4695 506.8304,-265.6274 497.6265,-270.8753 502.908,-275.4695"/>
</g>
<!-- Node4 -->
<g id="node5" class="node">
<title>Node4</title>
<polygon fill="#ffffff" stroke="#bfbfbf" points="817,-.5 817,-19.5 929,-19.5 929,-.5 817,-.5"/>
<text text-anchor="middle" x="873" y="-7.5" font-family="Helvetica,sans-Serif" font-size="10.00" fill="#000000">odp/visibility_end.h</text>
</g>
<!-- Node0&#45;&gt;Node4 -->
<g id="edge65" class="edge">
<title>Node0&#45;&gt;Node4</title>
<path fill="none" stroke="#191970" d="M823.6471,-713.361C972.762,-706.2142 1526,-674.8567 1526,-603 1526,-603 1526,-603 1526,-133 1526,-33.173 1412.2704,-78.4477 1315,-56 1183.9352,-25.7533 1026.3838,-15.3695 939.2132,-11.8227"/>
<polygon fill="#191970" stroke="#191970" points="939.3245,-8.3244 929.1959,-11.4327 939.0521,-15.3191 939.3245,-8.3244"/>
</g>
<!-- Node5 -->
<g id="node6" class="node">
<title>Node5</title>
<g id="a_node6"><a xlink:href="packet__io__stats_8h.html" target="_top" xlink:title="ODP packet IO stats. ">
<polygon fill="#ffffff" stroke="#000000" points="166.5,-649.5 166.5,-668.5 307.5,-668.5 307.5,-649.5 166.5,-649.5"/>
<text text-anchor="middle" x="237" y="-656.5" font-family="Helvetica,sans-Serif" font-size="10.00" fill="#000000">odp/api/packet_io_stats.h</text>
</a>
</g>
</g>
<!-- Node0&#45;&gt;Node5 -->
<g id="edge6" class="edge">
<title>Node0&#45;&gt;Node5</title>
<path fill="none" stroke="#191970" d="M750.487,-711.2823C662.8597,-702.3603 438.9561,-679.5628 317.7901,-667.2259"/>
<polygon fill="#191970" stroke="#191970" points="318.1234,-663.7418 307.8202,-666.2108 317.4142,-670.7058 318.1234,-663.7418"/>
</g>
<!-- Node7 -->
<g id="node8" class="node">
<title>Node7</title>
<g id="a_node8"><a xlink:href="queue_8h.html" target="_top" xlink:title="ODP queue. ">
<polygon fill="#ffffff" stroke="#000000" points="739.5,-649.5 739.5,-668.5 834.5,-668.5 834.5,-649.5 739.5,-649.5"/>
<text text-anchor="middle" x="787" y="-656.5" font-family="Helvetica,sans-Serif" font-size="10.00" fill="#000000">odp/api/queue.h</text>
</a>
</g>
</g>
<!-- Node0&#45;&gt;Node7 -->
<g id="edge10" class="edge">
<title>Node0&#45;&gt;Node7</title>
<path fill="none" stroke="#191970" d="M787,-705.2455C787,-697.9382 787,-687.6944 787,-678.7046"/>
<polygon fill="#191970" stroke="#191970" points="790.5001,-678.6426 787,-668.6427 783.5001,-678.6427 790.5001,-678.6426"/>
</g>
<!-- Node22 -->
<g id="node23" class="node">
<title>Node22</title>
<g id="a_node23"><a xlink:href="packet_8h.html" target="_top" xlink:title="ODP packet descriptor. ">
<polygon fill="#ffffff" stroke="#000000" points="991,-425.5 991,-444.5 1089,-444.5 1089,-425.5 991,-425.5"/>
<text text-anchor="middle" x="1040" y="-432.5" font-family="Helvetica,sans-Serif" font-size="10.00" fill="#000000">odp/api/packet.h</text>
</a>
</g>
</g>
<!-- Node0&#45;&gt;Node22 -->
<g id="edge64" class="edge">
<title>Node0&#45;&gt;Node22</title>
<path fill="none" stroke="#191970" d="M823.8739,-711.4124C946.9665,-698.9477 1336,-655.4073 1336,-603 1336,-603 1336,-603 1336,-547 1336,-496.8567 1185.5307,-461.2815 1099.1557,-444.9909"/>
<polygon fill="#191970" stroke="#191970" points="1099.6812,-441.5287 1089.2107,-443.1468 1098.4049,-448.4114 1099.6812,-441.5287"/>
</g>
<!-- Node26 -->
<g id="node27" class="node">
<title>Node26</title>
<g id="a_node27"><a xlink:href="time_8h.html" target="_top" xlink:title="ODP time. ">
<polygon fill="#ffffff" stroke="#000000" points="1180.5,-308 1180.5,-327 1267.5,-327 1267.5,-308 1180.5,-308"/>
<text text-anchor="middle" x="1224" y="-315" font-family="Helvetica,sans-Serif" font-size="10.00" fill="#000000">odp/api/time.h</text>
</a>
</g>
</g>
<!-- Node0&#45;&gt;Node26 -->
<g id="edge63" class="edge">
<title>Node0&#45;&gt;Node26</title>
<path fill="none" stroke="#191970" d="M823.7632,-712.3357C957.7357,-702.1429 1412,-663.1472 1412,-603 1412,-603 1412,-603 1412,-435 1412,-404.4754 1414.4163,-390.7507 1393,-369 1376.7287,-352.4746 1320.7107,-337.5024 1277.5809,-328.0148"/>
<polygon fill="#191970" stroke="#191970" points="1278.2745,-324.5839 1267.7616,-325.8993 1276.8002,-331.4269 1278.2745,-324.5839"/>
</g>
<!-- Node3 -->
<g id="node4" class="node">
<title>Node3</title>
<g id="a_node4"><a xlink:href="spec_2deprecated_8h.html" target="_top" xlink:title="Macro for deprecated API definitions. ">
<polygon fill="#ffffff" stroke="#000000" points="350.5,-62 350.5,-81 495.5,-81 495.5,-62 350.5,-62"/>
<text text-anchor="middle" x="423" y="-69" font-family="Helvetica,sans-Serif" font-size="10.00" fill="#000000">odp/api/spec/deprecated.h</text>
</a>
</g>
</g>
<!-- Node2&#45;&gt;Node3 -->
<g id="edge3" class="edge">
<title>Node2&#45;&gt;Node3</title>
<path fill="none" stroke="#191970" d="M509.1219,-246.3938C502.7355,-237.2657 493.1621,-223.0357 486,-210 463.3166,-168.7141 441.6651,-117.741 430.6148,-90.6105"/>
<polygon fill="#191970" stroke="#191970" points="433.7837,-89.11 426.7971,-81.1452 427.2918,-91.7284 433.7837,-89.11"/>
</g>
<!-- Node3&#45;&gt;Node1 -->
<g id="edge4" class="edge">
<title>Node3&#45;&gt;Node1</title>
<path fill="none" stroke="#191970" d="M404.25,-61.8906C384.524,-51.7811 353.2688,-35.7628 330.7,-24.1962"/>
<polygon fill="#191970" stroke="#191970" points="332.114,-20.9881 321.6183,-19.5419 328.9213,-27.2176 332.114,-20.9881"/>
</g>
<!-- Node3&#45;&gt;Node4 -->
<g id="edge5" class="edge">
<title>Node3&#45;&gt;Node4</title>
<path fill="none" stroke="#191970" d="M492.8188,-61.9581C578.5756,-50.238 722.9727,-30.5037 806.962,-19.0252"/>
<polygon fill="#191970" stroke="#191970" points="807.4632,-22.4893 816.8971,-17.6674 806.5153,-15.5538 807.4632,-22.4893"/>
</g>
<!-- Node6 -->
<g id="node7" class="node">
<title>Node6</title>
<g id="a_node7"><a xlink:href="spec_2packet__io__stats_8h.html" target="_top" xlink:title="ODP Packet IO. ">
<polygon fill="#ffffff" stroke="#000000" points="142,-56.5 142,-86.5 256,-86.5 256,-56.5 142,-56.5"/>
<text text-anchor="start" x="150" y="-74.5" font-family="Helvetica,sans-Serif" font-size="10.00" fill="#000000">odp/api/spec/packet</text>
<text text-anchor="middle" x="199" y="-63.5" font-family="Helvetica,sans-Serif" font-size="10.00" fill="#000000">_io_stats.h</text>
</a>
</g>
</g>
<!-- Node5&#45;&gt;Node6 -->
<g id="edge7" class="edge">
<title>Node5&#45;&gt;Node6</title>
<path fill="none" stroke="#191970" d="M195.5385,-649.4141C147.8353,-635.6372 76,-605.2246 76,-547 76,-547 76,-547 76,-317.5 76,-227.0397 143.3607,-135.7451 178.3839,-94.3915"/>
<polygon fill="#191970" stroke="#191970" points="181.2475,-96.4302 185.1294,-86.5722 175.9472,-91.8578 181.2475,-96.4302"/>
</g>
<!-- Node6&#45;&gt;Node1 -->
<g id="edge8" class="edge">
<title>Node6&#45;&gt;Node1</title>
<path fill="none" stroke="#191970" d="M224.4413,-56.4554C240.7284,-46.8241 261.7673,-34.3828 277.973,-24.7996"/>
<polygon fill="#191970" stroke="#191970" points="280.0576,-27.6331 286.8837,-19.5303 276.4945,-21.6078 280.0576,-27.6331"/>
</g>
<!-- Node6&#45;&gt;Node4 -->
<g id="edge9" class="edge">
<title>Node6&#45;&gt;Node4</title>
<path fill="none" stroke="#191970" d="M256.316,-64.9472C282.1744,-62.0672 313.11,-58.7276 341,-56 508.4768,-39.6211 705.9177,-23.3426 806.632,-15.2566"/>
<polygon fill="#191970" stroke="#191970" points="806.9729,-18.7406 816.6613,-14.4528 806.4136,-11.763 806.9729,-18.7406"/>
</g>
<!-- Node8 -->
<g id="node9" class="node">
<title>Node8</title>
<g id="a_node9"><a xlink:href="std__types_8h.html" target="_top" xlink:title="Standard C language types and definitions for ODP. ">
<polygon fill="#ffffff" stroke="#000000" points="1313,-246.5 1313,-265.5 1425,-265.5 1425,-246.5 1313,-246.5"/>
<text text-anchor="middle" x="1369" y="-253.5" font-family="Helvetica,sans-Serif" font-size="10.00" fill="#000000">odp/api/std_types.h</text>
</a>
</g>
</g>
<!-- Node7&#45;&gt;Node8 -->
<g id="edge11" class="edge">
<title>Node7&#45;&gt;Node8</title>
<path fill="none" stroke="#191970" d="M834.775,-655.3094C956.5646,-643.0253 1278.433,-591.8789 1412,-389 1433.2637,-356.7019 1427.4003,-337.8879 1413,-302 1408.3367,-290.3782 1399.1812,-280.0324 1390.4238,-272.1099"/>
<polygon fill="#191970" stroke="#191970" points="1392.5368,-269.3136 1382.6336,-265.5484 1388.0273,-274.6675 1392.5368,-269.3136"/>
</g>
<!-- Node15 -->
<g id="node16" class="node">
<title>Node15</title>
<polygon fill="#ffffff" stroke="#bfbfbf" points="600,-369.5 600,-388.5 710,-388.5 710,-369.5 600,-369.5"/>
<text text-anchor="middle" x="655" y="-376.5" font-family="Helvetica,sans-Serif" font-size="10.00" fill="#000000">odp/api/abi/event.h</text>
</g>
<!-- Node7&#45;&gt;Node15 -->
<g id="edge22" class="edge">
<title>Node7&#45;&gt;Node15</title>
<path fill="none" stroke="#191970" d="M780.6211,-649.2715C768.8717,-630.3847 745,-587.0797 745,-547 745,-547 745,-547 745,-491 745,-448.8672 705.8209,-413.5758 679.1627,-394.4395"/>
<polygon fill="#191970" stroke="#191970" points="680.895,-391.3824 670.6768,-388.5825 676.9187,-397.1434 680.895,-391.3824"/>
</g>
<!-- Node16 -->
<g id="node17" class="node">
<title>Node16</title>
<polygon fill="#ffffff" stroke="#bfbfbf" points="773.5,-593.5 773.5,-612.5 886.5,-612.5 886.5,-593.5 773.5,-593.5"/>
<text text-anchor="middle" x="830" y="-600.5" font-family="Helvetica,sans-Serif" font-size="10.00" fill="#000000">odp/api/abi/queue.h</text>
</g>
<!-- Node7&#45;&gt;Node16 -->
<g id="edge23" class="edge">
<title>Node7&#45;&gt;Node16</title>
<path fill="none" stroke="#191970" d="M794.49,-649.2455C800.5326,-641.3761 809.1903,-630.101 816.4441,-620.6542"/>
<polygon fill="#191970" stroke="#191970" points="819.2815,-622.7058 822.5958,-612.6427 813.7295,-618.4426 819.2815,-622.7058"/>
</g>
<!-- Node17 -->
<g id="node18" class="node">
<title>Node17</title>
<polygon fill="#ffffff" stroke="#bfbfbf" points="728,-369.5 728,-388.5 838,-388.5 838,-369.5 728,-369.5"/>
<text text-anchor="middle" x="783" y="-376.5" font-family="Helvetica,sans-Serif" font-size="10.00" fill="#000000">odp/api/abi/buffer.h</text>
</g>
<!-- Node7&#45;&gt;Node17 -->
<g id="edge24" class="edge">
<title>Node7&#45;&gt;Node17</title>
<path fill="none" stroke="#191970" d="M780.7417,-649.2433C775.3644,-640.2409 768.0157,-626.2951 765,-613 763.0337,-604.3313 764.6272,-601.8811 765,-593 768.0046,-521.4312 776.6376,-436.7537 780.7585,-398.9532"/>
<polygon fill="#191970" stroke="#191970" points="784.2616,-399.1174 781.8814,-388.7934 777.304,-398.3484 784.2616,-399.1174"/>
</g>
<!-- Node18 -->
<g id="node19" class="node">
<title>Node18</title>
<polygon fill="#ffffff" stroke="#bfbfbf" points="856,-369.5 856,-388.5 960,-388.5 960,-369.5 856,-369.5"/>
<text text-anchor="middle" x="908" y="-376.5" font-family="Helvetica,sans-Serif" font-size="10.00" fill="#000000">odp/api/abi/pool.h</text>
</g>
<!-- Node7&#45;&gt;Node18 -->
<g id="edge25" class="edge">
<title>Node7&#45;&gt;Node18</title>
<path fill="none" stroke="#191970" d="M832.7503,-649.4546C854.6663,-642.694 879.6391,-631.4344 896,-613 916.262,-590.1701 915,-577.5246 915,-547 915,-547 915,-547 915,-491 915,-458.6486 912.0548,-421.1429 909.9851,-398.7814"/>
<polygon fill="#191970" stroke="#191970" points="913.4449,-398.1945 909.0029,-388.5758 906.4771,-398.8651 913.4449,-398.1945"/>
</g>
<!-- Node19 -->
<g id="node20" class="node">
<title>Node19</title>
<g id="a_node20"><a xlink:href="spec_2queue_8h.html" target="_top" xlink:title="ODP queue. ">
<polygon fill="#ffffff" stroke="#000000" points="480,-593.5 480,-612.5 600,-612.5 600,-593.5 480,-593.5"/>
<text text-anchor="middle" x="540" y="-600.5" font-family="Helvetica,sans-Serif" font-size="10.00" fill="#000000">odp/api/spec/queue.h</text>
</a>
</g>
</g>
<!-- Node7&#45;&gt;Node19 -->
<g id="edge26" class="edge">
<title>Node7&#45;&gt;Node19</title>
<path fill="none" stroke="#191970" d="M744.8198,-649.4369C702.5477,-639.8529 637.3938,-625.0812 591.9583,-614.78"/>
<polygon fill="#191970" stroke="#191970" points="592.5326,-611.3215 582.0062,-612.5237 590.9848,-618.1482 592.5326,-611.3215"/>
</g>
<!-- Node9 -->
<g id="node10" class="node">
<title>Node9</title>
<polygon fill="#ffffff" stroke="#bfbfbf" points="1152,-185 1152,-204 1282,-204 1282,-185 1152,-185"/>
<text text-anchor="middle" x="1217" y="-192" font-family="Helvetica,sans-Serif" font-size="10.00" fill="#000000">odp/api/abi/std_types.h</text>
</g>
<!-- Node8&#45;&gt;Node9 -->
<g id="edge12" class="edge">
<title>Node8&#45;&gt;Node9</title>
<path fill="none" stroke="#191970" d="M1345.25,-246.3906C1319.7061,-236.0554 1278.8991,-219.5447 1250.189,-207.9284"/>
<polygon fill="#191970" stroke="#191970" points="1251.166,-204.5481 1240.5832,-204.0419 1248.5404,-211.0371 1251.166,-204.5481"/>
</g>
<!-- Node10 -->
<g id="node11" class="node">
<title>Node10</title>
<g id="a_node11"><a xlink:href="spec_2std__types_8h.html" target="_top" xlink:title="Standard C language types and definitions for ODP. ">
<polygon fill="#ffffff" stroke="#000000" points="1300.5,-185 1300.5,-204 1437.5,-204 1437.5,-185 1300.5,-185"/>
<text text-anchor="middle" x="1369" y="-192" font-family="Helvetica,sans-Serif" font-size="10.00" fill="#000000">odp/api/spec/std_types.h</text>
</a>
</g>
</g>
<!-- Node8&#45;&gt;Node10 -->
<g id="edge13" class="edge">
<title>Node8&#45;&gt;Node10</title>
<path fill="none" stroke="#191970" d="M1369,-246.3906C1369,-237.8657 1369,-225.1392 1369,-214.4235"/>
<polygon fill="#191970" stroke="#191970" points="1372.5001,-214.2448 1369,-204.2449 1365.5001,-214.2449 1372.5001,-214.2448"/>
</g>
<!-- Node10&#45;&gt;Node1 -->
<g id="edge14" class="edge">
<title>Node10&#45;&gt;Node1</title>
<path fill="none" stroke="#191970" d="M1324.1434,-184.9993C1313.3193,-182.8693 1301.7689,-180.7307 1291,-179 960.7297,-125.9206 852.4825,-216.3617 544,-87 523.5807,-78.4372 524.9593,-65.5863 505,-56 463.7536,-36.1898 413.6164,-24.7088 373.6111,-18.171"/>
<polygon fill="#191970" stroke="#191970" points="374.0914,-14.7036 363.6701,-16.6133 373.0077,-21.6192 374.0914,-14.7036"/>
</g>
<!-- Node10&#45;&gt;Node4 -->
<g id="edge21" class="edge">
<title>Node10&#45;&gt;Node4</title>
<path fill="none" stroke="#191970" d="M1368.1163,-184.578C1366.4573,-170.1185 1361.8972,-142.8231 1350,-123 1327.5059,-85.5203 1317.7093,-74.2726 1278,-56 1219.327,-29.0012 1038.4106,-17.1171 939.4129,-12.52"/>
<polygon fill="#191970" stroke="#191970" points="939.3673,-9.0144 929.2193,-12.0589 939.0509,-16.0073 939.3673,-9.0144"/>
</g>
<!-- Node11 -->
<g id="node12" class="node">
<title>Node11</title>
<polygon fill="#ffffff" stroke="#bfbfbf" points="1287.5,-123.5 1287.5,-142.5 1340.5,-142.5 1340.5,-123.5 1287.5,-123.5"/>
<text text-anchor="middle" x="1314" y="-130.5" font-family="Helvetica,sans-Serif" font-size="10.00" fill="#000000">stdint.h</text>
</g>
<!-- Node10&#45;&gt;Node11 -->
<g id="edge15" class="edge">
<title>Node10&#45;&gt;Node11</title>
<path fill="none" stroke="#191970" d="M1360.4063,-184.8906C1352.1403,-175.6478 1339.4574,-161.466 1329.4383,-150.2628"/>
<polygon fill="#191970" stroke="#191970" points="1331.99,-147.8657 1322.7149,-142.7449 1326.7722,-152.5321 1331.99,-147.8657"/>
</g>
<!-- Node12 -->
<g id="node13" class="node">
<title>Node12</title>
<g id="a_node13"><a xlink:href="align_8h.html" target="_top" xlink:title="ODP alignments. ">
<polygon fill="#ffffff" stroke="#000000" points="1170.5,-123.5 1170.5,-142.5 1259.5,-142.5 1259.5,-123.5 1170.5,-123.5"/>
<text text-anchor="middle" x="1215" y="-130.5" font-family="Helvetica,sans-Serif" font-size="10.00" fill="#000000">odp/api/align.h</text>
</a>
</g>
</g>
<!-- Node10&#45;&gt;Node12 -->
<g id="edge16" class="edge">
<title>Node10&#45;&gt;Node12</title>
<path fill="none" stroke="#191970" d="M1344.9375,-184.8906C1318.9444,-174.5103 1277.3522,-157.9004 1248.2453,-146.2766"/>
<polygon fill="#191970" stroke="#191970" points="1249.4785,-143.0003 1238.8935,-142.5419 1246.8823,-149.5011 1249.4785,-143.0003"/>
</g>
<!-- Node13 -->
<g id="node14" class="node">
<title>Node13</title>
<polygon fill="#ffffff" stroke="#bfbfbf" points="1161.5,-62 1161.5,-81 1268.5,-81 1268.5,-62 1161.5,-62"/>
<text text-anchor="middle" x="1215" y="-69" font-family="Helvetica,sans-Serif" font-size="10.00" fill="#000000">odp/api/abi/align.h</text>
</g>
<!-- Node12&#45;&gt;Node13 -->
<g id="edge17" class="edge">
<title>Node12&#45;&gt;Node13</title>
<path fill="none" stroke="#191970" d="M1215,-123.3906C1215,-114.8657 1215,-102.1392 1215,-91.4235"/>
<polygon fill="#191970" stroke="#191970" points="1218.5001,-91.2448 1215,-81.2449 1211.5001,-91.2449 1218.5001,-91.2448"/>
</g>
<!-- Node14 -->
<g id="node15" class="node">
<title>Node14</title>
<g id="a_node15"><a xlink:href="spec_2align_8h.html" target="_top" xlink:title="ODP alignments. ">
<polygon fill="#ffffff" stroke="#000000" points="944,-62 944,-81 1058,-81 1058,-62 944,-62"/>
<text text-anchor="middle" x="1001" y="-69" font-family="Helvetica,sans-Serif" font-size="10.00" fill="#000000">odp/api/spec/align.h</text>
</a>
</g>
</g>
<!-- Node12&#45;&gt;Node14 -->
<g id="edge18" class="edge">
<title>Node12&#45;&gt;Node14</title>
<path fill="none" stroke="#191970" d="M1181.5625,-123.3906C1144.5,-112.7395 1084.6151,-95.5296 1044.0688,-83.8772"/>
<polygon fill="#191970" stroke="#191970" points="1044.7804,-80.4402 1034.2027,-81.0419 1042.847,-87.1679 1044.7804,-80.4402"/>
</g>
<!-- Node14&#45;&gt;Node1 -->
<g id="edge19" class="edge">
<title>Node14&#45;&gt;Node1</title>
<path fill="none" stroke="#191970" d="M943.8783,-62.245C928.672,-59.9845 912.237,-57.7233 897,-56 708.6292,-34.6959 485.5205,-20.3187 373.9645,-13.8696"/>
<polygon fill="#191970" stroke="#191970" points="374.0314,-10.3678 363.8473,-13.2888 373.6302,-17.3563 374.0314,-10.3678"/>
</g>
<!-- Node14&#45;&gt;Node4 -->
<g id="edge20" class="edge">
<title>Node14&#45;&gt;Node4</title>
<path fill="none" stroke="#191970" d="M981,-61.8906C959.7711,-51.6908 926.0238,-35.4763 901.904,-23.8875"/>
<polygon fill="#191970" stroke="#191970" points="903.3889,-20.7179 892.8596,-19.5419 900.3574,-27.0275 903.3889,-20.7179"/>
</g>
<!-- Node19&#45;&gt;Node1 -->
<g id="edge27" class="edge">
<title>Node19&#45;&gt;Node1</title>
<path fill="none" stroke="#191970" d="M479.8681,-599.7154C362.441,-591.6494 114,-565.7511 114,-491 114,-491 114,-491 114,-379 114,-290.3155 38,-283.1845 38,-194.5 38,-194.5 38,-194.5 38,-133 38,-85.8428 70.1608,-79.5788 111,-56 147.9228,-34.6823 194.2925,-23.2207 232.2124,-17.07"/>
<polygon fill="#191970" stroke="#191970" points="232.8086,-20.5196 242.163,-15.5451 231.7482,-13.6004 232.8086,-20.5196"/>
</g>
<!-- Node19&#45;&gt;Node4 -->
<g id="edge62" class="edge">
<title>Node19&#45;&gt;Node4</title>
<path fill="none" stroke="#191970" d="M539.2037,-593.232C536.9198,-559.4188 533.1904,-445.259 579,-369 676.2734,-207.0696 819.5146,-259.2776 897,-87 905.7384,-67.5714 895.6138,-44.0399 885.9603,-28.1441"/>
<polygon fill="#191970" stroke="#191970" points="888.8784,-26.2113 880.4771,-19.7561 883.0191,-30.0415 888.8784,-26.2113"/>
</g>
<!-- Node20 -->
<g id="node21" class="node">
<title>Node20</title>
<g id="a_node21"><a xlink:href="event_8h.html" target="_top" xlink:title="ODP event. ">
<polygon fill="#ffffff" stroke="#000000" points="574,-537.5 574,-556.5 666,-556.5 666,-537.5 574,-537.5"/>
<text text-anchor="middle" x="620" y="-544.5" font-family="Helvetica,sans-Serif" font-size="10.00" fill="#000000">odp/api/event.h</text>
</a>
</g>
</g>
<!-- Node19&#45;&gt;Node20 -->
<g id="edge28" class="edge">
<title>Node19&#45;&gt;Node20</title>
<path fill="none" stroke="#191970" d="M553.9349,-593.2455C566.0947,-584.7337 583.9464,-572.2375 598.0285,-562.3801"/>
<polygon fill="#191970" stroke="#191970" points="600.0395,-565.2447 606.2248,-556.6427 596.0253,-559.51 600.0395,-565.2447"/>
</g>
<!-- Node29 -->
<g id="node30" class="node">
<title>Node29</title>
<g id="a_node30"><a xlink:href="queue__types_8h.html" target="_top" xlink:title="ODP queue types. ">
<polygon fill="#ffffff" stroke="#000000" points="312.5,-302.5 312.5,-332.5 423.5,-332.5 423.5,-302.5 312.5,-302.5"/>
<text text-anchor="start" x="320.5" y="-320.5" font-family="Helvetica,sans-Serif" font-size="10.00" fill="#000000">odp/api/spec/queue</text>
<text text-anchor="middle" x="368" y="-309.5" font-family="Helvetica,sans-Serif" font-size="10.00" fill="#000000">_types.h</text>
</a>
</g>
</g>
<!-- Node19&#45;&gt;Node29 -->
<g id="edge49" class="edge">
<title>Node19&#45;&gt;Node29</title>
<path fill="none" stroke="#191970" d="M493.5468,-593.4442C443.2129,-580.056 370,-550.3769 370,-491 370,-491 370,-491 370,-435 370,-403.2968 369.2631,-366.789 368.6839,-342.9901"/>
<polygon fill="#191970" stroke="#191970" points="372.1757,-342.6171 368.4241,-332.7087 365.1779,-342.794 372.1757,-342.6171"/>
</g>
<!-- Node20&#45;&gt;Node15 -->
<g id="edge29" class="edge">
<title>Node20&#45;&gt;Node15</title>
<path fill="none" stroke="#191970" d="M644.8255,-537.4395C660.2879,-530.0336 678.9112,-518.1213 688,-501 706.1538,-466.802 683.6026,-421.7845 667.8359,-397.1108"/>
<polygon fill="#191970" stroke="#191970" points="670.6913,-395.0843 662.2244,-388.7154 664.8716,-398.9742 670.6913,-395.0843"/>
</g>
<!-- Node21 -->
<g id="node22" class="node">
<title>Node21</title>
<g id="a_node22"><a xlink:href="spec_2event_8h.html" target="_top" xlink:title="ODP event. ">
<polygon fill="#ffffff" stroke="#000000" points="561,-481.5 561,-500.5 679,-500.5 679,-481.5 561,-481.5"/>
<text text-anchor="middle" x="620" y="-488.5" font-family="Helvetica,sans-Serif" font-size="10.00" fill="#000000">odp/api/spec/event.h</text>
</a>
</g>
</g>
<!-- Node20&#45;&gt;Node21 -->
<g id="edge30" class="edge">
<title>Node20&#45;&gt;Node21</title>
<path fill="none" stroke="#191970" d="M620,-537.2455C620,-529.9382 620,-519.6944 620,-510.7046"/>
<polygon fill="#191970" stroke="#191970" points="623.5001,-510.6426 620,-500.6427 616.5001,-510.6427 623.5001,-510.6426"/>
</g>
<!-- Node21&#45;&gt;Node1 -->
<g id="edge31" class="edge">
<title>Node21&#45;&gt;Node1</title>
<path fill="none" stroke="#191970" d="M584.65,-481.477C518.2322,-462.2397 372.7096,-413.581 275,-333 196.4475,-268.2179 192.564,-234.0557 147,-143 129.1023,-107.233 99.4901,-87.6049 124,-56 137.4992,-38.5931 188.0104,-26.6258 231.9478,-19.2704"/>
<polygon fill="#191970" stroke="#191970" points="232.7608,-22.6845 242.075,-17.6351 231.6449,-15.774 232.7608,-22.6845"/>
</g>
<!-- Node21&#45;&gt;Node4 -->
<g id="edge48" class="edge">
<title>Node21&#45;&gt;Node4</title>
<path fill="none" stroke="#191970" d="M613.2039,-481.3856C598.8254,-459.753 568.429,-406.2345 591,-369 608.9306,-339.4206 629.5631,-349.4328 660,-333 845.988,-232.5858 964.4507,-271.8194 1067,-87 1073.6847,-74.9525 1075.5449,-66.8079 1067,-56 1051.1336,-35.9316 988.9104,-23.7021 939.1538,-16.9498"/>
<polygon fill="#191970" stroke="#191970" points="939.4361,-13.457 929.0669,-15.6315 938.5289,-20.398 939.4361,-13.457"/>
</g>
<!-- Node21&#45;&gt;Node22 -->
<g id="edge32" class="edge">
<title>Node21&#45;&gt;Node22</title>
<path fill="none" stroke="#191970" d="M679.2849,-483.0953C759.1379,-472.4483 900.4408,-453.6079 980.4364,-442.9418"/>
<polygon fill="#191970" stroke="#191970" points="981.3797,-446.3471 990.8294,-441.5561 980.4545,-439.4085 981.3797,-446.3471"/>
</g>
<!-- Node22&#45;&gt;Node8 -->
<g id="edge33" class="edge">
<title>Node22&#45;&gt;Node8</title>
<path fill="none" stroke="#191970" d="M1089.3201,-432.1304C1181.6903,-426.25 1373.2726,-411.4649 1393,-389 1421.2522,-356.8273 1397.0314,-302.9412 1380.7905,-274.6453"/>
<polygon fill="#191970" stroke="#191970" points="1383.6209,-272.5595 1375.4778,-265.7815 1377.6167,-276.1582 1383.6209,-272.5595"/>
</g>
<!-- Node22&#45;&gt;Node15 -->
<g id="edge34" class="edge">
<title>Node22&#45;&gt;Node15</title>
<path fill="none" stroke="#191970" d="M990.7538,-428.1403C929.7585,-419.6001 822.3853,-404.4234 720.3271,-389.185"/>
<polygon fill="#191970" stroke="#191970" points="720.559,-385.6808 710.1512,-387.6628 719.5233,-392.6038 720.559,-385.6808"/>
</g>
<!-- Node22&#45;&gt;Node17 -->
<g id="edge37" class="edge">
<title>Node22&#45;&gt;Node17</title>
<path fill="none" stroke="#191970" d="M996.1121,-425.4369C952.0362,-415.8328 884.0519,-401.0191 836.7642,-390.7152"/>
<polygon fill="#191970" stroke="#191970" points="837.2228,-387.233 826.7068,-388.5237 835.7324,-394.0725 837.2228,-387.233"/>
</g>
<!-- Node22&#45;&gt;Node18 -->
<g id="edge38" class="edge">
<title>Node22&#45;&gt;Node18</title>
<path fill="none" stroke="#191970" d="M1017.3084,-425.3733C995.9289,-416.3032 963.6943,-402.6279 939.7638,-392.4755"/>
<polygon fill="#191970" stroke="#191970" points="940.9683,-389.1846 930.3955,-388.5011 938.2344,-395.6287 940.9683,-389.1846"/>
</g>
<!-- Node23 -->
<g id="node24" class="node">
<title>Node23</title>
<polygon fill="#ffffff" stroke="#bfbfbf" points="1120,-369.5 1120,-388.5 1250,-388.5 1250,-369.5 1120,-369.5"/>
<text text-anchor="middle" x="1185" y="-376.5" font-family="Helvetica,sans-Serif" font-size="10.00" fill="#000000">odp/api/abi/packet_io.h</text>
</g>
<!-- Node22&#45;&gt;Node23 -->
<g id="edge35" class="edge">
<title>Node22&#45;&gt;Node23</title>
<path fill="none" stroke="#191970" d="M1064.9264,-425.3733C1088.6202,-416.2226 1124.4511,-402.3844 1150.8068,-392.2057"/>
<polygon fill="#191970" stroke="#191970" points="1152.3314,-395.3689 1160.3989,-388.5011 1149.8094,-388.8389 1152.3314,-395.3689"/>
</g>
<!-- Node24 -->
<g id="node25" class="node">
<title>Node24</title>
<polygon fill="#ffffff" stroke="#bfbfbf" points="1268,-369.5 1268,-388.5 1384,-388.5 1384,-369.5 1268,-369.5"/>
<text text-anchor="middle" x="1326" y="-376.5" font-family="Helvetica,sans-Serif" font-size="10.00" fill="#000000">odp/api/abi/packet.h</text>
</g>
<!-- Node22&#45;&gt;Node24 -->
<g id="edge36" class="edge">
<title>Node22&#45;&gt;Node24</title>
<path fill="none" stroke="#191970" d="M1088.8402,-425.4369C1138.301,-415.7522 1214.816,-400.7703 1267.488,-390.4569"/>
<polygon fill="#191970" stroke="#191970" points="1268.2202,-393.8801 1277.3613,-388.5237 1266.875,-387.0105 1268.2202,-393.8801"/>
</g>
<!-- Node25 -->
<g id="node26" class="node">
<title>Node25</title>
<g id="a_node26"><a xlink:href="spec_2packet_8h.html" target="_top" xlink:title="ODP packet descriptor. ">
<polygon fill="#ffffff" stroke="#000000" points="978.5,-369.5 978.5,-388.5 1101.5,-388.5 1101.5,-369.5 978.5,-369.5"/>
<text text-anchor="middle" x="1040" y="-376.5" font-family="Helvetica,sans-Serif" font-size="10.00" fill="#000000">odp/api/spec/packet.h</text>
</a>
</g>
</g>
<!-- Node22&#45;&gt;Node25 -->
<g id="edge39" class="edge">
<title>Node22&#45;&gt;Node25</title>
<path fill="none" stroke="#191970" d="M1040,-425.2455C1040,-417.9382 1040,-407.6944 1040,-398.7046"/>
<polygon fill="#191970" stroke="#191970" points="1043.5001,-398.6426 1040,-388.6427 1036.5001,-398.6427 1043.5001,-398.6426"/>
</g>
<!-- Node25&#45;&gt;Node1 -->
<g id="edge40" class="edge">
<title>Node25&#45;&gt;Node1</title>
<path fill="none" stroke="#191970" d="M978.465,-370.0034C975.2669,-369.6391 972.0974,-369.3013 969,-369 895.2401,-361.8255 359.2295,-381.2726 303,-333 213.0766,-255.8015 271.6292,-85.9231 294.7919,-29.0079"/>
<polygon fill="#191970" stroke="#191970" points="298.0371,-30.3194 298.6613,-19.743 291.5778,-27.6217 298.0371,-30.3194"/>
</g>
<!-- Node25&#45;&gt;Node4 -->
<g id="edge47" class="edge">
<title>Node25&#45;&gt;Node4</title>
<path fill="none" stroke="#191970" d="M1052.7578,-369.3864C1076.2565,-350.4739 1124,-305.9074 1124,-256 1124,-256 1124,-256 1124,-133 1124,-97.154 1126.6087,-80.0191 1100,-56 1076.7345,-34.9987 997.6288,-22.5172 939.3175,-15.9669"/>
<polygon fill="#191970" stroke="#191970" points="939.3756,-12.4527 929.0557,-14.8507 938.6185,-19.4116 939.3756,-12.4527"/>
</g>
<!-- Node25&#45;&gt;Node26 -->
<g id="edge41" class="edge">
<title>Node25&#45;&gt;Node26</title>
<path fill="none" stroke="#191970" d="M1068.75,-369.3906C1100.2117,-358.8749 1150.8008,-341.966 1185.6314,-330.3243"/>
<polygon fill="#191970" stroke="#191970" points="1187.0772,-333.5315 1195.4519,-327.0419 1184.8581,-326.8925 1187.0772,-333.5315"/>
</g>
<!-- Node26&#45;&gt;Node8 -->
<g id="edge42" class="edge">
<title>Node26&#45;&gt;Node8</title>
<path fill="none" stroke="#191970" d="M1246.6563,-307.8906C1270.9174,-297.6005 1309.6118,-281.1888 1336.98,-269.5809"/>
<polygon fill="#191970" stroke="#191970" points="1338.6633,-272.6688 1346.5028,-265.5419 1335.93,-266.2245 1338.6633,-272.6688"/>
</g>
<!-- Node27 -->
<g id="node28" class="node">
<title>Node27</title>
<polygon fill="#ffffff" stroke="#bfbfbf" points="1171.5,-246.5 1171.5,-265.5 1276.5,-265.5 1276.5,-246.5 1171.5,-246.5"/>
<text text-anchor="middle" x="1224" y="-253.5" font-family="Helvetica,sans-Serif" font-size="10.00" fill="#000000">odp/api/abi/time.h</text>
</g>
<!-- Node26&#45;&gt;Node27 -->
<g id="edge43" class="edge">
<title>Node26&#45;&gt;Node27</title>
<path fill="none" stroke="#191970" d="M1224,-307.8906C1224,-299.3657 1224,-286.6392 1224,-275.9235"/>
<polygon fill="#191970" stroke="#191970" points="1227.5001,-275.7448 1224,-265.7449 1220.5001,-275.7449 1227.5001,-275.7448"/>
</g>
<!-- Node28 -->
<g id="node29" class="node">
<title>Node28</title>
<g id="a_node29"><a xlink:href="spec_2time_8h.html" target="_top" xlink:title="ODP time. ">
<polygon fill="#ffffff" stroke="#000000" points="774.5,-62 774.5,-81 887.5,-81 887.5,-62 774.5,-62"/>
<text text-anchor="middle" x="831" y="-69" font-family="Helvetica,sans-Serif" font-size="10.00" fill="#000000">odp/api/spec/time.h</text>
</a>
</g>
</g>
<!-- Node26&#45;&gt;Node28 -->
<g id="edge44" class="edge">
<title>Node26&#45;&gt;Node28</title>
<path fill="none" stroke="#191970" d="M1208.5939,-307.8565C1148.3045,-270.1181 928.0995,-132.2798 854.8656,-86.4388"/>
<polygon fill="#191970" stroke="#191970" points="856.633,-83.4159 846.2996,-81.0768 852.9189,-89.3494 856.633,-83.4159"/>
</g>
<!-- Node28&#45;&gt;Node1 -->
<g id="edge45" class="edge">
<title>Node28&#45;&gt;Node1</title>
<path fill="none" stroke="#191970" d="M774.4948,-64.9184C677.4629,-53.6164 479.4054,-30.5472 373.499,-18.2115"/>
<polygon fill="#191970" stroke="#191970" points="373.882,-14.7326 363.5442,-17.052 373.0721,-21.6856 373.882,-14.7326"/>
</g>
<!-- Node28&#45;&gt;Node4 -->
<g id="edge46" class="edge">
<title>Node28&#45;&gt;Node4</title>
<path fill="none" stroke="#191970" d="M837.5625,-61.8906C843.6908,-52.917 852.9985,-39.2879 860.5372,-28.2491"/>
<polygon fill="#191970" stroke="#191970" points="863.5956,-29.9768 866.345,-19.7449 857.815,-26.029 863.5956,-29.9768"/>
</g>
<!-- Node29&#45;&gt;Node1 -->
<g id="edge50" class="edge">
<title>Node29&#45;&gt;Node1</title>
<path fill="none" stroke="#191970" d="M341.3956,-302.494C288.5756,-270.8779 172.193,-191.6247 133,-87 128.1668,-74.0978 124.6261,-66.941 133,-56 145.4466,-39.7379 191.414,-27.8996 232.4141,-20.308"/>
<polygon fill="#191970" stroke="#191970" points="233.205,-23.7222 242.4328,-18.5167 231.9729,-16.8314 233.205,-23.7222"/>
</g>
<!-- Node29&#45;&gt;Node2 -->
<g id="edge60" class="edge">
<title>Node29&#45;&gt;Node2</title>
<path fill="none" stroke="#191970" d="M404.2049,-302.4554C428.4658,-292.374 460.1356,-279.2139 483.5712,-269.4755"/>
<polygon fill="#191970" stroke="#191970" points="485.1739,-272.5997 493.0653,-265.5303 482.4877,-266.1356 485.1739,-272.5997"/>
</g>
<!-- Node29&#45;&gt;Node4 -->
<g id="edge61" class="edge">
<title>Node29&#45;&gt;Node4</title>
<path fill="none" stroke="#191970" d="M423.7384,-313.7893C469.8396,-308.5826 535.5365,-296.0699 585,-266 690.2879,-201.9932 666.6355,-128.8637 766,-56 785.5666,-41.6519 810.2993,-30.6479 831.0561,-23.0055"/>
<polygon fill="#191970" stroke="#191970" points="832.3271,-26.2684 840.5824,-19.6275 829.9876,-19.6709 832.3271,-26.2684"/>
</g>
<!-- Node30 -->
<g id="node31" class="node">
<title>Node30</title>
<g id="a_node31"><a xlink:href="schedule__types_8h.html" target="_top" xlink:title="ODP schedule. ">
<polygon fill="#ffffff" stroke="#000000" points="298,-246.5 298,-265.5 438,-265.5 438,-246.5 298,-246.5"/>
<text text-anchor="middle" x="368" y="-253.5" font-family="Helvetica,sans-Serif" font-size="10.00" fill="#000000">odp/api/schedule_types.h</text>
</a>
</g>
</g>
<!-- Node29&#45;&gt;Node30 -->
<g id="edge51" class="edge">
<title>Node29&#45;&gt;Node30</title>
<path fill="none" stroke="#191970" d="M368,-302.2977C368,-294.3834 368,-284.6043 368,-276.0759"/>
<polygon fill="#191970" stroke="#191970" points="371.5001,-275.8469 368,-265.8469 364.5001,-275.847 371.5001,-275.8469"/>
</g>
<!-- Node31 -->
<g id="node32" class="node">
<title>Node31</title>
<polygon fill="#ffffff" stroke="#bfbfbf" points="298.5,-179.5 298.5,-209.5 415.5,-209.5 415.5,-179.5 298.5,-179.5"/>
<text text-anchor="start" x="306.5" y="-197.5" font-family="Helvetica,sans-Serif" font-size="10.00" fill="#000000">odp/api/abi/schedule</text>
<text text-anchor="middle" x="357" y="-186.5" font-family="Helvetica,sans-Serif" font-size="10.00" fill="#000000">_types.h</text>
</g>
<!-- Node30&#45;&gt;Node31 -->
<g id="edge52" class="edge">
<title>Node30&#45;&gt;Node31</title>
<path fill="none" stroke="#191970" d="M366.2813,-246.3906C364.9993,-239.2234 363.1862,-229.0862 361.5021,-219.671"/>
<polygon fill="#191970" stroke="#191970" points="364.897,-218.7721 359.6909,-209.5446 358.0063,-220.0046 364.897,-218.7721"/>
</g>
<!-- Node32 -->
<g id="node33" class="node">
<title>Node32</title>
<g id="a_node33"><a xlink:href="spec_2schedule__types_8h.html" target="_top" xlink:title="ODP schedule types. ">
<polygon fill="#ffffff" stroke="#000000" points="494.5,-179.5 494.5,-209.5 619.5,-209.5 619.5,-179.5 494.5,-179.5"/>
<text text-anchor="start" x="502.5" y="-197.5" font-family="Helvetica,sans-Serif" font-size="10.00" fill="#000000">odp/api/spec/schedule</text>
<text text-anchor="middle" x="557" y="-186.5" font-family="Helvetica,sans-Serif" font-size="10.00" fill="#000000">_types.h</text>
</a>
</g>
</g>
<!-- Node30&#45;&gt;Node32 -->
<g id="edge53" class="edge">
<title>Node30&#45;&gt;Node32</title>
<path fill="none" stroke="#191970" d="M397.5313,-246.3906C425.1233,-237.4123 467.0375,-223.7735 500.9711,-212.7316"/>
<polygon fill="#191970" stroke="#191970" points="502.3392,-215.9672 510.7654,-209.5446 500.1731,-209.3107 502.3392,-215.9672"/>
</g>
<!-- Node32&#45;&gt;Node1 -->
<g id="edge54" class="edge">
<title>Node32&#45;&gt;Node1</title>
<path fill="none" stroke="#191970" d="M505.4463,-179.4476C457.6962,-163.2682 387.2758,-133.4313 341,-87 324.9436,-70.8897 314.5281,-46.6307 308.7331,-29.6593"/>
<polygon fill="#191970" stroke="#191970" points="311.9394,-28.1913 305.5794,-19.7178 305.2671,-30.3081 311.9394,-28.1913"/>
</g>
<!-- Node32&#45;&gt;Node4 -->
<g id="edge59" class="edge">
<title>Node32&#45;&gt;Node4</title>
<path fill="none" stroke="#191970" d="M583.3383,-179.4068C599.5853,-169.699 620.5762,-156.4263 638,-143 683.0912,-108.2541 682.9146,-84.8291 732,-56 758.3987,-40.4954 790.691,-29.4702 817.708,-22.108"/>
<polygon fill="#191970" stroke="#191970" points="818.6205,-25.4871 827.4022,-19.5599 816.841,-18.7171 818.6205,-25.4871"/>
</g>
<!-- Node33 -->
<g id="node34" class="node">
<title>Node33</title>
<g id="a_node34"><a xlink:href="support_8h.html" target="_top" xlink:title="ODP support API &#45; platform specific header. ">
<polygon fill="#ffffff" stroke="#000000" points="527.5,-123.5 527.5,-142.5 628.5,-142.5 628.5,-123.5 527.5,-123.5"/>
<text text-anchor="middle" x="578" y="-130.5" font-family="Helvetica,sans-Serif" font-size="10.00" fill="#000000">odp/api/support.h</text>
</a>
</g>
</g>
<!-- Node32&#45;&gt;Node33 -->
<g id="edge55" class="edge">
<title>Node32&#45;&gt;Node33</title>
<path fill="none" stroke="#191970" d="M562.191,-179.2977C564.9542,-171.2055 568.3831,-161.1639 571.3405,-152.5029"/>
<polygon fill="#191970" stroke="#191970" points="574.7184,-153.4415 574.6376,-142.8469 568.0939,-151.1794 574.7184,-153.4415"/>
</g>
<!-- Node34 -->
<g id="node35" class="node">
<title>Node34</title>
<g id="a_node35"><a xlink:href="spec_2support_8h.html" target="_top" xlink:title="ODP support API. ">
<polygon fill="#ffffff" stroke="#000000" points="552.5,-62 552.5,-81 679.5,-81 679.5,-62 552.5,-62"/>
<text text-anchor="middle" x="616" y="-69" font-family="Helvetica,sans-Serif" font-size="10.00" fill="#000000">odp/api/spec/support.h</text>
</a>
</g>
</g>
<!-- Node33&#45;&gt;Node34 -->
<g id="edge56" class="edge">
<title>Node33&#45;&gt;Node34</title>
<path fill="none" stroke="#191970" d="M583.9375,-123.3906C589.4267,-114.5068 597.7353,-101.0601 604.519,-90.0811"/>
<polygon fill="#191970" stroke="#191970" points="607.6998,-91.5917 609.9788,-81.2449 601.7449,-87.9122 607.6998,-91.5917"/>
</g>
<!-- Node34&#45;&gt;Node1 -->
<g id="edge57" class="edge">
<title>Node34&#45;&gt;Node1</title>
<path fill="none" stroke="#191970" d="M568.1541,-61.9697C558.1895,-59.9912 547.7528,-57.9235 538,-56 478.1516,-44.1961 409.7056,-30.8111 362.1801,-21.5356"/>
<polygon fill="#191970" stroke="#191970" points="362.5533,-18.0425 352.068,-19.5624 361.2126,-24.9129 362.5533,-18.0425"/>
</g>
<!-- Node34&#45;&gt;Node4 -->
<g id="edge58" class="edge">
<title>Node34&#45;&gt;Node4</title>
<path fill="none" stroke="#191970" d="M655.8743,-61.9581C700.8906,-51.1857 774.1998,-33.6428 823.0079,-21.9631"/>
<polygon fill="#191970" stroke="#191970" points="824.1213,-25.2955 833.0322,-19.5643 822.4922,-18.4877 824.1213,-25.2955"/>
</g>
</g>
</svg>
