<?xml version="1.0" encoding="UTF-8" standalone="no"?>
<!DOCTYPE svg PUBLIC "-//W3C//DTD SVG 1.1//EN"
 "http://www.w3.org/Graphics/SVG/1.1/DTD/svg11.dtd">
<!-- Generated by graphviz version 2.40.1 (20161225.0304)
 -->
<!-- Title: classification.h Pages: 1 -->
<svg width="1549pt" height="845pt"
 viewBox="0.00 0.00 1549.00 845.00" xmlns="http://www.w3.org/2000/svg" xmlns:xlink="http://www.w3.org/1999/xlink">
<g id="graph0" class="graph" transform="scale(1 1) rotate(0) translate(4 841)">
<title>classification.h</title>
<polygon fill="#ffffff" stroke="transparent" points="-4,4 -4,-841 1545,-841 1545,4 -4,4"/>
<!-- Node0 -->
<g id="node1" class="node">
<title>Node0</title>
<polygon fill="#bfbfbf" stroke="#000000" points="1069.5,-817.5 1069.5,-836.5 1158.5,-836.5 1158.5,-817.5 1069.5,-817.5"/>
<text text-anchor="middle" x="1114" y="-824.5" font-family="Helvetica,sans-Serif" font-size="10.00" fill="#000000">classification.h</text>
</g>
<!-- Node1 -->
<g id="node2" class="node">
<title>Node1</title>
<polygon fill="#ffffff" stroke="#bfbfbf" points="280.5,-.5 280.5,-19.5 401.5,-19.5 401.5,-.5 280.5,-.5"/>
<text text-anchor="middle" x="341" y="-7.5" font-family="Helvetica,sans-Serif" font-size="10.00" fill="#000000">odp/visibility_begin.h</text>
</g>
<!-- Node0&#45;&gt;Node1 -->
<g id="edge1" class="edge">
<title>Node0&#45;&gt;Node1</title>
<path fill="none" stroke="#191970" d="M1069.2605,-825.794C916.1129,-821.4801 413.5737,-805.7425 254,-781 138.7396,-763.1284 0,-831.6377 0,-715 0,-715 0,-715 0,-133 0,-93.3621 12.2417,-78.3172 45,-56 80.6099,-31.7401 194.139,-19.6133 269.7949,-14.0769"/>
<polygon fill="#191970" stroke="#191970" points="270.4794,-17.5372 280.2069,-13.3388 269.9844,-10.5547 270.4794,-17.5372"/>
</g>
<!-- Node2 -->
<g id="node3" class="node">
<title>Node2</title>
<g id="a_node3"><a xlink:href="packet__io_8h.html" target="_top" xlink:title="ODP Packet IO. ">
<polygon fill="#ffffff" stroke="#000000" points="1058,-761.5 1058,-780.5 1170,-780.5 1170,-761.5 1058,-761.5"/>
<text text-anchor="middle" x="1114" y="-768.5" font-family="Helvetica,sans-Serif" font-size="10.00" fill="#000000">odp/api/packet_io.h</text>
</a>
</g>
</g>
<!-- Node0&#45;&gt;Node2 -->
<g id="edge2" class="edge">
<title>Node0&#45;&gt;Node2</title>
<path fill="none" stroke="#191970" d="M1114,-817.2455C1114,-809.9382 1114,-799.6944 1114,-790.7046"/>
<polygon fill="#191970" stroke="#191970" points="1117.5001,-790.6426 1114,-780.6427 1110.5001,-790.6427 1117.5001,-790.6426"/>
</g>
<!-- Node10 -->
<g id="node11" class="node">
<title>Node10</title>
<polygon fill="#ffffff" stroke="#bfbfbf" points="1047,-.5 1047,-19.5 1159,-19.5 1159,-.5 1047,-.5"/>
<text text-anchor="middle" x="1103" y="-7.5" font-family="Helvetica,sans-Serif" font-size="10.00" fill="#000000">odp/visibility_end.h</text>
</g>
<!-- Node0&#45;&gt;Node10 -->
<g id="edge81" class="edge">
<title>Node0&#45;&gt;Node10</title>
<path fill="none" stroke="#191970" d="M1158.8894,-824.7399C1268.52,-817.9994 1541,-793.364 1541,-715 1541,-715 1541,-715 1541,-133 1541,-79.338 1497.1704,-77.4912 1448,-56 1399.3835,-34.7509 1255.1201,-21.0085 1169.3114,-14.4731"/>
<polygon fill="#191970" stroke="#191970" points="1169.3805,-10.9686 1159.147,-13.7118 1168.8576,-17.9491 1169.3805,-10.9686"/>
</g>
<!-- Node36 -->
<g id="node37" class="node">
<title>Node36</title>
<g id="a_node37"><a xlink:href="support_8h.html" target="_top" xlink:title="ODP support API &#45; platform specific header. ">
<polygon fill="#ffffff" stroke="#000000" points="439.5,-123.5 439.5,-142.5 540.5,-142.5 540.5,-123.5 439.5,-123.5"/>
<text text-anchor="middle" x="490" y="-130.5" font-family="Helvetica,sans-Serif" font-size="10.00" fill="#000000">odp/api/support.h</text>
</a>
</g>
</g>
<!-- Node0&#45;&gt;Node36 -->
<g id="edge75" class="edge">
<title>Node0&#45;&gt;Node36</title>
<path fill="none" stroke="#191970" d="M1069.2148,-824.6482C867.8404,-813.7843 56,-766.7756 56,-715 56,-715 56,-715 56,-659 56,-401.6149 180.931,-342.1522 380,-179 398.3819,-163.9346 422.4021,-153.1299 443.3054,-145.7944"/>
<polygon fill="#191970" stroke="#191970" points="444.5915,-149.055 452.9675,-142.5671 442.3738,-142.4156 444.5915,-149.055"/>
</g>
<!-- Node38 -->
<g id="node39" class="node">
<title>Node38</title>
<g id="a_node39"><a xlink:href="threshold_8h.html" target="_top" xlink:title="ODP threshold API &#45; platform specific header. ">
<polygon fill="#ffffff" stroke="#000000" points="1286,-761.5 1286,-780.5 1396,-780.5 1396,-761.5 1286,-761.5"/>
<text text-anchor="middle" x="1341" y="-768.5" font-family="Helvetica,sans-Serif" font-size="10.00" fill="#000000">odp/api/threshold.h</text>
</a>
</g>
</g>
<!-- Node0&#45;&gt;Node38 -->
<g id="edge76" class="edge">
<title>Node0&#45;&gt;Node38</title>
<path fill="none" stroke="#191970" d="M1152.7648,-817.4369C1191.3692,-807.9133 1250.7384,-793.2672 1292.4572,-782.9753"/>
<polygon fill="#191970" stroke="#191970" points="1293.5245,-786.317 1302.3951,-780.5237 1291.8479,-779.5208 1293.5245,-786.317"/>
</g>
<!-- Node3 -->
<g id="node4" class="node">
<title>Node3</title>
<g id="a_node4"><a xlink:href="std__types_8h.html" target="_top" xlink:title="Standard C language types and definitions for ODP. ">
<polygon fill="#ffffff" stroke="#000000" points="1065,-246.5 1065,-265.5 1177,-265.5 1177,-246.5 1065,-246.5"/>
<text text-anchor="middle" x="1121" y="-253.5" font-family="Helvetica,sans-Serif" font-size="10.00" fill="#000000">odp/api/std_types.h</text>
</a>
</g>
</g>
<!-- Node2&#45;&gt;Node3 -->
<g id="edge3" class="edge">
<title>Node2&#45;&gt;Node3</title>
<path fill="none" stroke="#191970" d="M1170.3196,-762.6776C1260.4343,-747.7576 1427,-712.8908 1427,-659 1427,-659 1427,-659 1427,-435 1427,-404.4754 1428.5374,-391.5825 1408,-369 1399.0566,-359.166 1231.2891,-296.5923 1156.4847,-269.0187"/>
<polygon fill="#191970" stroke="#191970" points="1157.5875,-265.6951 1146.994,-265.5243 1155.1688,-272.264 1157.5875,-265.6951"/>
</g>
<!-- Node11 -->
<g id="node12" class="node">
<title>Node11</title>
<polygon fill="#ffffff" stroke="#bfbfbf" points="795,-369.5 795,-388.5 899,-388.5 899,-369.5 795,-369.5"/>
<text text-anchor="middle" x="847" y="-376.5" font-family="Helvetica,sans-Serif" font-size="10.00" fill="#000000">odp/api/abi/pool.h</text>
</g>
<!-- Node2&#45;&gt;Node11 -->
<g id="edge14" class="edge">
<title>Node2&#45;&gt;Node11</title>
<path fill="none" stroke="#191970" d="M1107.4,-761.3101C1072.1961,-709.625 906.377,-466.1752 859.4194,-397.2338"/>
<polygon fill="#191970" stroke="#191970" points="862.1306,-394.9968 853.6083,-388.7021 856.3451,-398.9374 862.1306,-394.9968"/>
</g>
<!-- Node12 -->
<g id="node13" class="node">
<title>Node12</title>
<polygon fill="#ffffff" stroke="#bfbfbf" points="1142,-705.5 1142,-724.5 1288,-724.5 1288,-705.5 1142,-705.5"/>
<text text-anchor="middle" x="1215" y="-712.5" font-family="Helvetica,sans-Serif" font-size="10.00" fill="#000000">odp/api/abi/classification.h</text>
</g>
<!-- Node2&#45;&gt;Node12 -->
<g id="edge15" class="edge">
<title>Node2&#45;&gt;Node12</title>
<path fill="none" stroke="#191970" d="M1131.5929,-761.2455C1147.379,-752.4928 1170.7639,-739.527 1188.7587,-729.5496"/>
<polygon fill="#191970" stroke="#191970" points="1190.5603,-732.5528 1197.6087,-724.6427 1187.1659,-726.4308 1190.5603,-732.5528"/>
</g>
<!-- Node13 -->
<g id="node14" class="node">
<title>Node13</title>
<polygon fill="#ffffff" stroke="#bfbfbf" points="1283,-369.5 1283,-388.5 1399,-388.5 1399,-369.5 1283,-369.5"/>
<text text-anchor="middle" x="1341" y="-376.5" font-family="Helvetica,sans-Serif" font-size="10.00" fill="#000000">odp/api/abi/packet.h</text>
</g>
<!-- Node2&#45;&gt;Node13 -->
<g id="edge16" class="edge">
<title>Node2&#45;&gt;Node13</title>
<path fill="none" stroke="#191970" d="M1170.1097,-762.9276C1216.8462,-755.1422 1278.6233,-742.0393 1297,-725 1319.6732,-703.9768 1319,-689.92 1319,-659 1319,-659 1319,-659 1319,-491 1319,-458.1132 1328.246,-420.7958 1334.7499,-398.6138"/>
<polygon fill="#191970" stroke="#191970" points="1338.1853,-399.3474 1337.7538,-388.7614 1331.4896,-397.3059 1338.1853,-399.3474"/>
</g>
<!-- Node14 -->
<g id="node15" class="node">
<title>Node14</title>
<polygon fill="#ffffff" stroke="#bfbfbf" points="1135,-369.5 1135,-388.5 1265,-388.5 1265,-369.5 1135,-369.5"/>
<text text-anchor="middle" x="1200" y="-376.5" font-family="Helvetica,sans-Serif" font-size="10.00" fill="#000000">odp/api/abi/packet_io.h</text>
</g>
<!-- Node2&#45;&gt;Node14 -->
<g id="edge17" class="edge">
<title>Node2&#45;&gt;Node14</title>
<path fill="none" stroke="#191970" d="M1114,-761.4116C1114,-742.0538 1114,-696.9167 1114,-659 1114,-659 1114,-659 1114,-491 1114,-449.5919 1151.4378,-414.0689 1176.9112,-394.6911"/>
<polygon fill="#191970" stroke="#191970" points="1179.0196,-397.4852 1185.0199,-388.7532 1174.884,-391.8375 1179.0196,-397.4852"/>
</g>
<!-- Node15 -->
<g id="node16" class="node">
<title>Node15</title>
<polygon fill="#ffffff" stroke="#bfbfbf" points="188.5,-593.5 188.5,-612.5 301.5,-612.5 301.5,-593.5 188.5,-593.5"/>
<text text-anchor="middle" x="245" y="-600.5" font-family="Helvetica,sans-Serif" font-size="10.00" fill="#000000">odp/api/abi/queue.h</text>
</g>
<!-- Node2&#45;&gt;Node15 -->
<g id="edge18" class="edge">
<title>Node2&#45;&gt;Node15</title>
<path fill="none" stroke="#191970" d="M1057.9361,-768.3708C898.9476,-760.2084 448.1524,-731.9753 316,-669 292.4134,-657.7601 271.3226,-635.8798 258.3752,-620.3984"/>
<polygon fill="#191970" stroke="#191970" points="261.0584,-618.1502 252.0558,-612.5642 255.61,-622.5451 261.0584,-618.1502"/>
</g>
<!-- Node16 -->
<g id="node17" class="node">
<title>Node16</title>
<g id="a_node17"><a xlink:href="spec_2packet__io_8h.html" target="_top" xlink:title="ODP Packet IO. ">
<polygon fill="#ffffff" stroke="#000000" points="720.5,-705.5 720.5,-724.5 857.5,-724.5 857.5,-705.5 720.5,-705.5"/>
<text text-anchor="middle" x="789" y="-712.5" font-family="Helvetica,sans-Serif" font-size="10.00" fill="#000000">odp/api/spec/packet_io.h</text>
</a>
</g>
</g>
<!-- Node2&#45;&gt;Node16 -->
<g id="edge19" class="edge">
<title>Node2&#45;&gt;Node16</title>
<path fill="none" stroke="#191970" d="M1058.4998,-761.4369C1001.9437,-751.6918 914.2596,-736.5832 854.3741,-726.2645"/>
<polygon fill="#191970" stroke="#191970" points="854.7204,-722.7726 844.2713,-724.5237 853.5317,-729.671 854.7204,-722.7726"/>
</g>
<!-- Node4 -->
<g id="node5" class="node">
<title>Node4</title>
<polygon fill="#ffffff" stroke="#bfbfbf" points="1056,-185 1056,-204 1186,-204 1186,-185 1056,-185"/>
<text text-anchor="middle" x="1121" y="-192" font-family="Helvetica,sans-Serif" font-size="10.00" fill="#000000">odp/api/abi/std_types.h</text>
</g>
<!-- Node3&#45;&gt;Node4 -->
<g id="edge4" class="edge">
<title>Node3&#45;&gt;Node4</title>
<path fill="none" stroke="#191970" d="M1121,-246.3906C1121,-237.8657 1121,-225.1392 1121,-214.4235"/>
<polygon fill="#191970" stroke="#191970" points="1124.5001,-214.2448 1121,-204.2449 1117.5001,-214.2449 1124.5001,-214.2448"/>
</g>
<!-- Node5 -->
<g id="node6" class="node">
<title>Node5</title>
<g id="a_node6"><a xlink:href="spec_2std__types_8h.html" target="_top" xlink:title="Standard C language types and definitions for ODP. ">
<polygon fill="#ffffff" stroke="#000000" points="1242.5,-185 1242.5,-204 1379.5,-204 1379.5,-185 1242.5,-185"/>
<text text-anchor="middle" x="1311" y="-192" font-family="Helvetica,sans-Serif" font-size="10.00" fill="#000000">odp/api/spec/std_types.h</text>
</a>
</g>
</g>
<!-- Node3&#45;&gt;Node5 -->
<g id="edge5" class="edge">
<title>Node3&#45;&gt;Node5</title>
<path fill="none" stroke="#191970" d="M1150.6875,-246.3906C1183.3146,-235.8298 1235.8626,-218.8208 1271.8425,-207.1747"/>
<polygon fill="#191970" stroke="#191970" points="1273.0848,-210.4514 1281.521,-204.0419 1270.9291,-203.7916 1273.0848,-210.4514"/>
</g>
<!-- Node5&#45;&gt;Node1 -->
<g id="edge6" class="edge">
<title>Node5&#45;&gt;Node1</title>
<path fill="none" stroke="#191970" d="M1276.9197,-184.9676C1240.1564,-174.6711 1179.9062,-157.7568 1128,-143 1041.2673,-118.3421 1018.2023,-116.515 933,-87 898.53,-75.0592 892.4505,-64.6041 857,-56 774.5157,-35.9805 533.1594,-20.4756 412.0431,-13.7109"/>
<polygon fill="#191970" stroke="#191970" points="411.9446,-10.2002 401.7663,-13.1418 411.5575,-17.1895 411.9446,-10.2002"/>
</g>
<!-- Node6 -->
<g id="node7" class="node">
<title>Node6</title>
<polygon fill="#ffffff" stroke="#bfbfbf" points="1282.5,-123.5 1282.5,-142.5 1335.5,-142.5 1335.5,-123.5 1282.5,-123.5"/>
<text text-anchor="middle" x="1309" y="-130.5" font-family="Helvetica,sans-Serif" font-size="10.00" fill="#000000">stdint.h</text>
</g>
<!-- Node5&#45;&gt;Node6 -->
<g id="edge7" class="edge">
<title>Node5&#45;&gt;Node6</title>
<path fill="none" stroke="#191970" d="M1310.6875,-184.8906C1310.4103,-176.3657 1309.9964,-163.6392 1309.6479,-152.9235"/>
<polygon fill="#191970" stroke="#191970" points="1313.1402,-152.6258 1309.3169,-142.7449 1306.1439,-152.8534 1313.1402,-152.6258"/>
</g>
<!-- Node7 -->
<g id="node8" class="node">
<title>Node7</title>
<g id="a_node8"><a xlink:href="align_8h.html" target="_top" xlink:title="ODP alignments. ">
<polygon fill="#ffffff" stroke="#000000" points="1136.5,-123.5 1136.5,-142.5 1225.5,-142.5 1225.5,-123.5 1136.5,-123.5"/>
<text text-anchor="middle" x="1181" y="-130.5" font-family="Helvetica,sans-Serif" font-size="10.00" fill="#000000">odp/api/align.h</text>
</a>
</g>
</g>
<!-- Node5&#45;&gt;Node7 -->
<g id="edge8" class="edge">
<title>Node5&#45;&gt;Node7</title>
<path fill="none" stroke="#191970" d="M1290.6875,-184.8906C1269.1269,-174.6908 1234.8522,-158.4763 1210.3556,-146.8875"/>
<polygon fill="#191970" stroke="#191970" points="1211.7061,-143.6545 1201.1699,-142.5419 1208.7126,-149.9822 1211.7061,-143.6545"/>
</g>
<!-- Node5&#45;&gt;Node10 -->
<g id="edge13" class="edge">
<title>Node5&#45;&gt;Node10</title>
<path fill="none" stroke="#191970" d="M1319.9923,-184.7645C1328.3209,-175.03 1340.131,-159.2123 1345,-143 1351.9609,-119.8221 1351.1889,-70.4212 1338,-56 1315.7085,-31.6258 1230.5471,-19.7873 1169.1535,-14.3133"/>
<polygon fill="#191970" stroke="#191970" points="1169.3978,-10.8215 1159.1361,-13.4572 1168.8017,-17.7961 1169.3978,-10.8215"/>
</g>
<!-- Node8 -->
<g id="node9" class="node">
<title>Node8</title>
<polygon fill="#ffffff" stroke="#bfbfbf" points="1188.5,-62 1188.5,-81 1295.5,-81 1295.5,-62 1188.5,-62"/>
<text text-anchor="middle" x="1242" y="-69" font-family="Helvetica,sans-Serif" font-size="10.00" fill="#000000">odp/api/abi/align.h</text>
</g>
<!-- Node7&#45;&gt;Node8 -->
<g id="edge9" class="edge">
<title>Node7&#45;&gt;Node8</title>
<path fill="none" stroke="#191970" d="M1190.5313,-123.3906C1199.7879,-114.0581 1214.039,-99.6902 1225.2003,-88.4374"/>
<polygon fill="#191970" stroke="#191970" points="1227.7772,-90.8095 1232.3344,-81.2449 1222.8072,-85.88 1227.7772,-90.8095"/>
</g>
<!-- Node9 -->
<g id="node10" class="node">
<title>Node9</title>
<g id="a_node10"><a xlink:href="spec_2align_8h.html" target="_top" xlink:title="ODP alignments. ">
<polygon fill="#ffffff" stroke="#000000" points="942,-62 942,-81 1056,-81 1056,-62 942,-62"/>
<text text-anchor="middle" x="999" y="-69" font-family="Helvetica,sans-Serif" font-size="10.00" fill="#000000">odp/api/spec/align.h</text>
</a>
</g>
</g>
<!-- Node7&#45;&gt;Node9 -->
<g id="edge10" class="edge">
<title>Node7&#45;&gt;Node9</title>
<path fill="none" stroke="#191970" d="M1152.5625,-123.3906C1121.4428,-112.8749 1071.4036,-95.966 1036.9515,-84.3243"/>
<polygon fill="#191970" stroke="#191970" points="1037.832,-80.9274 1027.2378,-81.0419 1035.5911,-87.5591 1037.832,-80.9274"/>
</g>
<!-- Node9&#45;&gt;Node1 -->
<g id="edge11" class="edge">
<title>Node9&#45;&gt;Node1</title>
<path fill="none" stroke="#191970" d="M959.7436,-61.9268C949.465,-59.6964 938.3596,-57.5294 928,-56 742.903,-28.6741 522.4131,-16.9081 411.7631,-12.4209"/>
<polygon fill="#191970" stroke="#191970" points="411.8569,-8.9219 401.7256,-12.0216 411.5786,-15.9164 411.8569,-8.9219"/>
</g>
<!-- Node9&#45;&gt;Node10 -->
<g id="edge12" class="edge">
<title>Node9&#45;&gt;Node10</title>
<path fill="none" stroke="#191970" d="M1015.25,-61.8906C1032.1169,-51.9165 1058.7099,-36.1908 1078.2035,-24.6633"/>
<polygon fill="#191970" stroke="#191970" points="1080.038,-27.6447 1086.8641,-19.5419 1076.4749,-21.6194 1080.038,-27.6447"/>
</g>
<!-- Node16&#45;&gt;Node1 -->
<g id="edge20" class="edge">
<title>Node16&#45;&gt;Node1</title>
<path fill="none" stroke="#191970" d="M720.4527,-712.5795C553.24,-706.3745 136.392,-688.9757 114,-669 -25.273,-544.7559 38,-442.6376 38,-256 38,-256 38,-256 38,-133 38,-94.2287 47.6183,-78.7684 79,-56 108.8215,-34.3635 203.2493,-21.8283 270.1632,-15.4543"/>
<polygon fill="#191970" stroke="#191970" points="270.6037,-18.9286 280.2382,-14.521 269.958,-11.9584 270.6037,-18.9286"/>
</g>
<!-- Node16&#45;&gt;Node10 -->
<g id="edge74" class="edge">
<title>Node16&#45;&gt;Node10</title>
<path fill="none" stroke="#191970" d="M845.3245,-705.4838C1013.9225,-675.4205 1503,-576.0549 1503,-435 1503,-435 1503,-435 1503,-133 1503,-71.8586 1445.853,-78.4946 1389,-56 1350.1114,-40.6132 1241.0344,-25.8033 1169.385,-17.3153"/>
<polygon fill="#191970" stroke="#191970" points="1169.4377,-13.7976 1159.0982,-16.1096 1168.6227,-20.75 1169.4377,-13.7976"/>
</g>
<!-- Node17 -->
<g id="node18" class="node">
<title>Node17</title>
<g id="a_node18"><a xlink:href="deprecated_8h.html" target="_top" xlink:title="Control deprecated API definitions. ">
<polygon fill="#ffffff" stroke="#000000" points="521.5,-246.5 521.5,-265.5 640.5,-265.5 640.5,-246.5 521.5,-246.5"/>
<text text-anchor="middle" x="581" y="-253.5" font-family="Helvetica,sans-Serif" font-size="10.00" fill="#000000">odp/api/deprecated.h</text>
</a>
</g>
</g>
<!-- Node16&#45;&gt;Node17 -->
<g id="edge21" class="edge">
<title>Node16&#45;&gt;Node17</title>
<path fill="none" stroke="#191970" d="M720.3974,-711.6946C630.7129,-704.6324 471.4771,-682.4808 356,-613 327.6624,-595.9497 318.6322,-587.9584 307,-557 255.5297,-420.0145 466.6193,-307.691 549.1711,-269.7661"/>
<polygon fill="#191970" stroke="#191970" points="550.9056,-272.823 558.5749,-265.5132 548.0211,-266.4449 550.9056,-272.823"/>
</g>
<!-- Node19 -->
<g id="node20" class="node">
<title>Node19</title>
<g id="a_node20"><a xlink:href="packet__io__stats_8h.html" target="_top" xlink:title="ODP packet IO stats. ">
<polygon fill="#ffffff" stroke="#000000" points="122.5,-649.5 122.5,-668.5 263.5,-668.5 263.5,-649.5 122.5,-649.5"/>
<text text-anchor="middle" x="193" y="-656.5" font-family="Helvetica,sans-Serif" font-size="10.00" fill="#000000">odp/api/packet_io_stats.h</text>
</a>
</g>
</g>
<!-- Node16&#45;&gt;Node19 -->
<g id="edge25" class="edge">
<title>Node16&#45;&gt;Node19</title>
<path fill="none" stroke="#191970" d="M720.3404,-708.5488C609.5508,-698.139 391.8612,-677.6849 273.7822,-666.5903"/>
<polygon fill="#191970" stroke="#191970" points="274.0003,-663.0954 263.7167,-665.6445 273.3454,-670.0647 274.0003,-663.0954"/>
</g>
<!-- Node21 -->
<g id="node22" class="node">
<title>Node21</title>
<g id="a_node22"><a xlink:href="queue_8h.html" target="_top" xlink:title="ODP queue. ">
<polygon fill="#ffffff" stroke="#000000" points="665.5,-649.5 665.5,-668.5 760.5,-668.5 760.5,-649.5 665.5,-649.5"/>
<text text-anchor="middle" x="713" y="-656.5" font-family="Helvetica,sans-Serif" font-size="10.00" fill="#000000">odp/api/queue.h</text>
</a>
</g>
</g>
<!-- Node16&#45;&gt;Node21 -->
<g id="edge29" class="edge">
<title>Node16&#45;&gt;Node21</title>
<path fill="none" stroke="#191970" d="M775.7618,-705.2455C764.319,-696.814 747.5704,-684.4729 734.2525,-674.6598"/>
<polygon fill="#191970" stroke="#191970" points="736.2133,-671.757 726.0865,-668.6427 732.0609,-677.3924 736.2133,-671.757"/>
</g>
<!-- Node27 -->
<g id="node28" class="node">
<title>Node27</title>
<g id="a_node28"><a xlink:href="packet_8h.html" target="_top" xlink:title="ODP packet descriptor. ">
<polygon fill="#ffffff" stroke="#000000" points="933,-425.5 933,-444.5 1031,-444.5 1031,-425.5 933,-425.5"/>
<text text-anchor="middle" x="982" y="-432.5" font-family="Helvetica,sans-Serif" font-size="10.00" fill="#000000">odp/api/packet.h</text>
</a>
</g>
</g>
<!-- Node16&#45;&gt;Node27 -->
<g id="edge73" class="edge">
<title>Node16&#45;&gt;Node27</title>
<path fill="none" stroke="#191970" d="M851.1288,-705.4764C907.5488,-692.8837 982,-664.5969 982,-603 982,-603 982,-603 982,-547 982,-514.7116 982,-477.1872 982,-454.8048"/>
<polygon fill="#191970" stroke="#191970" points="985.5001,-454.5883 982,-444.5884 978.5001,-454.5884 985.5001,-454.5883"/>
</g>
<!-- Node29 -->
<g id="node30" class="node">
<title>Node29</title>
<g id="a_node30"><a xlink:href="time_8h.html" target="_top" xlink:title="ODP time. ">
<polygon fill="#ffffff" stroke="#000000" points="904.5,-308 904.5,-327 991.5,-327 991.5,-308 904.5,-308"/>
<text text-anchor="middle" x="948" y="-315" font-family="Helvetica,sans-Serif" font-size="10.00" fill="#000000">odp/api/time.h</text>
</a>
</g>
</g>
<!-- Node16&#45;&gt;Node29 -->
<g id="edge72" class="edge">
<title>Node16&#45;&gt;Node29</title>
<path fill="none" stroke="#191970" d="M786.664,-705.4813C783.398,-692.545 777.0681,-668.7596 770,-649 747.4288,-585.9001 614.5528,-420.0236 658,-369 690.5436,-330.7814 831.7416,-342.6624 881,-333 886.7792,-331.8664 892.8189,-330.5941 898.8041,-329.2787"/>
<polygon fill="#191970" stroke="#191970" points="899.7793,-332.647 908.7696,-327.0412 898.2458,-325.817 899.7793,-332.647"/>
</g>
<!-- Node18 -->
<g id="node19" class="node">
<title>Node18</title>
<g id="a_node19"><a xlink:href="spec_2deprecated_8h.html" target="_top" xlink:title="Macro for deprecated API definitions. ">
<polygon fill="#ffffff" stroke="#000000" points="571.5,-62 571.5,-81 716.5,-81 716.5,-62 571.5,-62"/>
<text text-anchor="middle" x="644" y="-69" font-family="Helvetica,sans-Serif" font-size="10.00" fill="#000000">odp/api/spec/deprecated.h</text>
</a>
</g>
</g>
<!-- Node17&#45;&gt;Node18 -->
<g id="edge22" class="edge">
<title>Node17&#45;&gt;Node18</title>
<path fill="none" stroke="#191970" d="M610.9458,-246.4983C628.0054,-239.3713 647.9324,-227.7417 658,-210 679.5757,-171.978 663.6704,-118.5375 652.48,-90.4519"/>
<polygon fill="#191970" stroke="#191970" points="655.6138,-88.8749 648.5101,-81.0143 649.1614,-91.5891 655.6138,-88.8749"/>
</g>
<!-- Node18&#45;&gt;Node1 -->
<g id="edge23" class="edge">
<title>Node18&#45;&gt;Node1</title>
<path fill="none" stroke="#191970" d="M596.9887,-61.9581C543.3598,-51.073 455.6724,-33.2751 398.1438,-21.5985"/>
<polygon fill="#191970" stroke="#191970" points="398.618,-18.1234 388.1216,-19.5643 397.2255,-24.9836 398.618,-18.1234"/>
</g>
<!-- Node18&#45;&gt;Node10 -->
<g id="edge24" class="edge">
<title>Node18&#45;&gt;Node10</title>
<path fill="none" stroke="#191970" d="M691.6054,-61.956C702.8587,-59.8513 714.8331,-57.7348 726,-56 834.433,-39.155 961.2094,-24.7712 1036.6544,-16.7676"/>
<polygon fill="#191970" stroke="#191970" points="1037.3746,-20.2111 1046.9521,-15.681 1036.64,-13.2497 1037.3746,-20.2111"/>
</g>
<!-- Node20 -->
<g id="node21" class="node">
<title>Node20</title>
<g id="a_node21"><a xlink:href="spec_2packet__io__stats_8h.html" target="_top" xlink:title="ODP Packet IO. ">
<polygon fill="#ffffff" stroke="#000000" points="142,-56.5 142,-86.5 256,-86.5 256,-56.5 142,-56.5"/>
<text text-anchor="start" x="150" y="-74.5" font-family="Helvetica,sans-Serif" font-size="10.00" fill="#000000">odp/api/spec/packet</text>
<text text-anchor="middle" x="199" y="-63.5" font-family="Helvetica,sans-Serif" font-size="10.00" fill="#000000">_io_stats.h</text>
</a>
</g>
</g>
<!-- Node19&#45;&gt;Node20 -->
<g id="edge26" class="edge">
<title>Node19&#45;&gt;Node20</title>
<path fill="none" stroke="#191970" d="M183.4688,-649.4709C166.3125,-631.2557 132,-589.5114 132,-547 132,-547 132,-547 132,-435 132,-305.7211 173.4932,-154.8001 191.1728,-96.3624"/>
<polygon fill="#191970" stroke="#191970" points="194.5953,-97.1398 194.1815,-86.5531 187.903,-95.0871 194.5953,-97.1398"/>
</g>
<!-- Node20&#45;&gt;Node1 -->
<g id="edge27" class="edge">
<title>Node20&#45;&gt;Node1</title>
<path fill="none" stroke="#191970" d="M233.7371,-56.4554C256.9106,-46.419 287.1292,-33.3314 309.5842,-23.6061"/>
<polygon fill="#191970" stroke="#191970" points="311.2097,-26.7164 318.995,-19.5303 308.4277,-20.2929 311.2097,-26.7164"/>
</g>
<!-- Node20&#45;&gt;Node10 -->
<g id="edge28" class="edge">
<title>Node20&#45;&gt;Node10</title>
<path fill="none" stroke="#191970" d="M256.1739,-67.3968C300.361,-64.2393 363.053,-59.7894 418,-56 644.7502,-40.3623 913.773,-22.4977 1036.2762,-14.4005"/>
<polygon fill="#191970" stroke="#191970" points="1036.862,-17.8696 1046.6094,-13.7177 1036.4004,-10.8848 1036.862,-17.8696"/>
</g>
<!-- Node21&#45;&gt;Node3 -->
<g id="edge30" class="edge">
<title>Node21&#45;&gt;Node3</title>
<path fill="none" stroke="#191970" d="M734.665,-649.4187C791.1078,-623.5747 944.8895,-547.4128 1040,-445 1086.6732,-394.7434 1108.9129,-313.4698 1117.1053,-276.0411"/>
<polygon fill="#191970" stroke="#191970" points="1120.6015,-276.4187 1119.2083,-265.9159 1113.7478,-274.9951 1120.6015,-276.4187"/>
</g>
<!-- Node21&#45;&gt;Node11 -->
<g id="edge34" class="edge">
<title>Node21&#45;&gt;Node11</title>
<path fill="none" stroke="#191970" d="M725.5499,-649.4082C747.136,-631.7155 789,-591.6472 789,-547 789,-547 789,-547 789,-491 789,-454.0488 814.202,-417.1465 831.3808,-396.2847"/>
<polygon fill="#191970" stroke="#191970" points="834.0985,-398.4919 837.9375,-388.6171 828.7784,-393.9426 834.0985,-398.4919"/>
</g>
<!-- Node21&#45;&gt;Node15 -->
<g id="edge32" class="edge">
<title>Node21&#45;&gt;Node15</title>
<path fill="none" stroke="#191970" d="M665.1151,-653.2702C581.2746,-643.238 407.7299,-622.472 312.0112,-611.0184"/>
<polygon fill="#191970" stroke="#191970" points="312.2111,-607.5175 301.8661,-609.8045 311.3794,-614.4679 312.2111,-607.5175"/>
</g>
<!-- Node22 -->
<g id="node23" class="node">
<title>Node22</title>
<polygon fill="#ffffff" stroke="#bfbfbf" points="501,-369.5 501,-388.5 611,-388.5 611,-369.5 501,-369.5"/>
<text text-anchor="middle" x="556" y="-376.5" font-family="Helvetica,sans-Serif" font-size="10.00" fill="#000000">odp/api/abi/event.h</text>
</g>
<!-- Node21&#45;&gt;Node22 -->
<g id="edge31" class="edge">
<title>Node21&#45;&gt;Node22</title>
<path fill="none" stroke="#191970" d="M700.4501,-649.4082C678.864,-631.7155 637,-591.6472 637,-547 637,-547 637,-547 637,-491 637,-450.4297 601.6719,-414.5972 577.6782,-394.9394"/>
<polygon fill="#191970" stroke="#191970" points="579.76,-392.1237 569.7405,-388.6795 575.4253,-397.6202 579.76,-392.1237"/>
</g>
<!-- Node23 -->
<g id="node24" class="node">
<title>Node23</title>
<polygon fill="#ffffff" stroke="#bfbfbf" points="667,-369.5 667,-388.5 777,-388.5 777,-369.5 667,-369.5"/>
<text text-anchor="middle" x="722" y="-376.5" font-family="Helvetica,sans-Serif" font-size="10.00" fill="#000000">odp/api/abi/buffer.h</text>
</g>
<!-- Node21&#45;&gt;Node23 -->
<g id="edge33" class="edge">
<title>Node21&#45;&gt;Node23</title>
<path fill="none" stroke="#191970" d="M713,-649.4116C713,-630.0538 713,-584.9167 713,-547 713,-547 713,-547 713,-491 713,-458.6075 716.7867,-421.1141 719.4477,-398.7662"/>
<polygon fill="#191970" stroke="#191970" points="722.955,-398.9219 720.7105,-388.5676 716.0081,-398.0616 722.955,-398.9219"/>
</g>
<!-- Node24 -->
<g id="node25" class="node">
<title>Node24</title>
<g id="a_node25"><a xlink:href="spec_2queue_8h.html" target="_top" xlink:title="ODP queue. ">
<polygon fill="#ffffff" stroke="#000000" points="365,-593.5 365,-612.5 485,-612.5 485,-593.5 365,-593.5"/>
<text text-anchor="middle" x="425" y="-600.5" font-family="Helvetica,sans-Serif" font-size="10.00" fill="#000000">odp/api/spec/queue.h</text>
</a>
</g>
</g>
<!-- Node21&#45;&gt;Node24 -->
<g id="edge35" class="edge">
<title>Node21&#45;&gt;Node24</title>
<path fill="none" stroke="#191970" d="M665.4427,-649.7527C615.7621,-640.0926 537.737,-624.9211 484.1224,-614.496"/>
<polygon fill="#191970" stroke="#191970" points="484.5588,-611.0154 474.0745,-612.5423 483.2226,-617.8867 484.5588,-611.0154"/>
</g>
<!-- Node24&#45;&gt;Node1 -->
<g id="edge36" class="edge">
<title>Node24&#45;&gt;Node1</title>
<path fill="none" stroke="#191970" d="M406.7276,-593.478C334.9183,-554.6042 76,-400.1787 76,-194.5 76,-194.5 76,-194.5 76,-133 76,-95.59 80.8119,-79.4 110,-56 134.354,-36.4755 211.8144,-23.8786 270.3788,-16.8904"/>
<polygon fill="#191970" stroke="#191970" points="270.8098,-20.3639 280.3392,-15.7336 270.0022,-13.4107 270.8098,-20.3639"/>
</g>
<!-- Node24&#45;&gt;Node10 -->
<g id="edge71" class="edge">
<title>Node24&#45;&gt;Node10</title>
<path fill="none" stroke="#191970" d="M424.1804,-593.1066C421.8235,-557.8957 418.6117,-437.1413 478,-369 527.1929,-312.5568 1044.5022,-146.462 1090,-87 1102.4503,-70.7285 1104.7314,-46.8343 1104.5108,-29.9877"/>
<polygon fill="#191970" stroke="#191970" points="1107.9913,-29.4665 1104.0527,-19.631 1100.9981,-29.7759 1107.9913,-29.4665"/>
</g>
<!-- Node25 -->
<g id="node26" class="node">
<title>Node25</title>
<g id="a_node26"><a xlink:href="event_8h.html" target="_top" xlink:title="ODP event. ">
<polygon fill="#ffffff" stroke="#000000" points="466,-537.5 466,-556.5 558,-556.5 558,-537.5 466,-537.5"/>
<text text-anchor="middle" x="512" y="-544.5" font-family="Helvetica,sans-Serif" font-size="10.00" fill="#000000">odp/api/event.h</text>
</a>
</g>
</g>
<!-- Node24&#45;&gt;Node25 -->
<g id="edge37" class="edge">
<title>Node24&#45;&gt;Node25</title>
<path fill="none" stroke="#191970" d="M440.1542,-593.2455C453.5027,-584.6534 473.1586,-572.0014 488.5383,-562.1018"/>
<polygon fill="#191970" stroke="#191970" points="490.5051,-564.9982 497.0194,-556.6427 486.7164,-559.1121 490.5051,-564.9982"/>
</g>
<!-- Node32 -->
<g id="node33" class="node">
<title>Node32</title>
<g id="a_node33"><a xlink:href="queue__types_8h.html" target="_top" xlink:title="ODP queue types. ">
<polygon fill="#ffffff" stroke="#000000" points="312.5,-302.5 312.5,-332.5 423.5,-332.5 423.5,-302.5 312.5,-302.5"/>
<text text-anchor="start" x="320.5" y="-320.5" font-family="Helvetica,sans-Serif" font-size="10.00" fill="#000000">odp/api/spec/queue</text>
<text text-anchor="middle" x="368" y="-309.5" font-family="Helvetica,sans-Serif" font-size="10.00" fill="#000000">_types.h</text>
</a>
</g>
</g>
<!-- Node24&#45;&gt;Node32 -->
<g id="edge58" class="edge">
<title>Node24&#45;&gt;Node32</title>
<path fill="none" stroke="#191970" d="M414.396,-593.3425C395.7393,-575.2361 359,-534.1076 359,-491 359,-491 359,-491 359,-435 359,-403.0647 362.3461,-366.3893 364.9577,-342.6273"/>
<polygon fill="#191970" stroke="#191970" points="368.4362,-343.0138 366.0913,-332.6817 361.4813,-342.221 368.4362,-343.0138"/>
</g>
<!-- Node25&#45;&gt;Node22 -->
<g id="edge38" class="edge">
<title>Node25&#45;&gt;Node22</title>
<path fill="none" stroke="#191970" d="M536.8255,-537.4395C552.2879,-530.0336 570.9112,-518.1213 580,-501 597.7813,-467.5039 579.8553,-422.5268 566.8563,-397.6008"/>
<polygon fill="#191970" stroke="#191970" points="569.9121,-395.8939 562.0352,-388.8083 563.7742,-399.2595 569.9121,-395.8939"/>
</g>
<!-- Node26 -->
<g id="node27" class="node">
<title>Node26</title>
<g id="a_node27"><a xlink:href="spec_2event_8h.html" target="_top" xlink:title="ODP event. ">
<polygon fill="#ffffff" stroke="#000000" points="453,-481.5 453,-500.5 571,-500.5 571,-481.5 453,-481.5"/>
<text text-anchor="middle" x="512" y="-488.5" font-family="Helvetica,sans-Serif" font-size="10.00" fill="#000000">odp/api/spec/event.h</text>
</a>
</g>
</g>
<!-- Node25&#45;&gt;Node26 -->
<g id="edge39" class="edge">
<title>Node25&#45;&gt;Node26</title>
<path fill="none" stroke="#191970" d="M512,-537.2455C512,-529.9382 512,-519.6944 512,-510.7046"/>
<polygon fill="#191970" stroke="#191970" points="515.5001,-510.6426 512,-500.6427 508.5001,-510.6427 515.5001,-510.6426"/>
</g>
<!-- Node26&#45;&gt;Node1 -->
<g id="edge40" class="edge">
<title>Node26&#45;&gt;Node1</title>
<path fill="none" stroke="#191970" d="M492.2631,-481.4958C411.9549,-442.1893 114,-289.9262 114,-194.5 114,-194.5 114,-194.5 114,-133 114,-97.7513 107.7748,-80.6203 133,-56 152.4253,-37.0406 217.9608,-24.6996 270.3409,-17.6207"/>
<polygon fill="#191970" stroke="#191970" points="270.8282,-21.0869 280.2887,-16.3172 269.9187,-14.1462 270.8282,-21.0869"/>
</g>
<!-- Node26&#45;&gt;Node10 -->
<g id="edge57" class="edge">
<title>Node26&#45;&gt;Node10</title>
<path fill="none" stroke="#191970" d="M506.0319,-481.4767C492.8413,-459.0923 464.4775,-402.4998 492,-369 544.3436,-305.2885 594.9017,-356.2909 674,-333 751.5082,-310.1773 770.7056,-302.0821 843,-266 911.2696,-231.9267 1098.6726,-153.5462 1136,-87 1147.0274,-67.3407 1132.6076,-43.2632 1119.5106,-27.3227"/>
<polygon fill="#191970" stroke="#191970" points="1122.1432,-25.0162 1112.9241,-19.795 1116.875,-29.6257 1122.1432,-25.0162"/>
</g>
<!-- Node26&#45;&gt;Node27 -->
<g id="edge41" class="edge">
<title>Node26&#45;&gt;Node27</title>
<path fill="none" stroke="#191970" d="M571.0499,-483.9643C661.2613,-473.2157 832.414,-452.823 922.7468,-442.06"/>
<polygon fill="#191970" stroke="#191970" points="923.3059,-445.5182 932.8215,-440.8596 922.4776,-438.5674 923.3059,-445.5182"/>
</g>
<!-- Node27&#45;&gt;Node3 -->
<g id="edge42" class="edge">
<title>Node27&#45;&gt;Node3</title>
<path fill="none" stroke="#191970" d="M1001.602,-425.3373C1016.4002,-417.2605 1036.4109,-404.571 1050,-389 1078.3605,-356.5034 1072.2113,-339.7912 1093,-302 1098.1074,-292.7153 1104.181,-282.6349 1109.364,-274.2835"/>
<polygon fill="#191970" stroke="#191970" points="1112.3851,-276.054 1114.7384,-265.7238 1106.4567,-272.3317 1112.3851,-276.054"/>
</g>
<!-- Node27&#45;&gt;Node11 -->
<g id="edge47" class="edge">
<title>Node27&#45;&gt;Node11</title>
<path fill="none" stroke="#191970" d="M958.7927,-425.3733C936.8301,-416.2629 903.6668,-402.5062 879.1599,-392.3404"/>
<polygon fill="#191970" stroke="#191970" points="880.4824,-389.0999 869.9045,-388.5011 877.8003,-395.5657 880.4824,-389.0999"/>
</g>
<!-- Node27&#45;&gt;Node13 -->
<g id="edge45" class="edge">
<title>Node27&#45;&gt;Node13</title>
<path fill="none" stroke="#191970" d="M1031.1647,-427.3309C1093.7615,-417.5664 1202.2394,-400.6451 1272.8046,-389.6377"/>
<polygon fill="#191970" stroke="#191970" points="1273.5898,-393.0577 1282.9308,-388.0581 1272.5108,-386.1413 1273.5898,-393.0577"/>
</g>
<!-- Node27&#45;&gt;Node14 -->
<g id="edge44" class="edge">
<title>Node27&#45;&gt;Node14</title>
<path fill="none" stroke="#191970" d="M1019.4755,-425.3733C1056.5103,-415.8598 1113.2682,-401.2797 1153.2361,-391.0127"/>
<polygon fill="#191970" stroke="#191970" points="1154.1988,-394.3792 1163.0135,-388.5011 1152.4571,-387.5993 1154.1988,-394.3792"/>
</g>
<!-- Node27&#45;&gt;Node22 -->
<g id="edge43" class="edge">
<title>Node27&#45;&gt;Node22</title>
<path fill="none" stroke="#191970" d="M932.7162,-428.5214C855.7927,-418.4094 707.1337,-398.8673 621.3557,-387.5914"/>
<polygon fill="#191970" stroke="#191970" points="621.5866,-384.0917 611.2157,-386.2584 620.6742,-391.032 621.5866,-384.0917"/>
</g>
<!-- Node27&#45;&gt;Node23 -->
<g id="edge46" class="edge">
<title>Node27&#45;&gt;Node23</title>
<path fill="none" stroke="#191970" d="M937.5998,-425.4369C892.9159,-415.8127 823.943,-400.957 776.0912,-390.6504"/>
<polygon fill="#191970" stroke="#191970" points="776.7298,-387.2078 766.217,-388.5237 775.2559,-394.0508 776.7298,-387.2078"/>
</g>
<!-- Node28 -->
<g id="node29" class="node">
<title>Node28</title>
<g id="a_node29"><a xlink:href="spec_2packet_8h.html" target="_top" xlink:title="ODP packet descriptor. ">
<polygon fill="#ffffff" stroke="#000000" points="917.5,-369.5 917.5,-388.5 1040.5,-388.5 1040.5,-369.5 917.5,-369.5"/>
<text text-anchor="middle" x="979" y="-376.5" font-family="Helvetica,sans-Serif" font-size="10.00" fill="#000000">odp/api/spec/packet.h</text>
</a>
</g>
</g>
<!-- Node27&#45;&gt;Node28 -->
<g id="edge48" class="edge">
<title>Node27&#45;&gt;Node28</title>
<path fill="none" stroke="#191970" d="M981.4774,-425.2455C981.086,-417.9382 980.5372,-407.6944 980.0556,-398.7046"/>
<polygon fill="#191970" stroke="#191970" points="983.5466,-398.4411 979.5166,-388.6427 976.5566,-398.8156 983.5466,-398.4411"/>
</g>
<!-- Node28&#45;&gt;Node1 -->
<g id="edge49" class="edge">
<title>Node28&#45;&gt;Node1</title>
<path fill="none" stroke="#191970" d="M917.4629,-370.0243C914.2654,-369.6545 911.0965,-369.3098 908,-369 841.1038,-362.3063 355.9322,-375.696 304,-333 276.6878,-310.5453 284,-291.3578 284,-256 284,-256 284,-256 284,-133 284,-92.2759 310.0402,-50.411 326.9193,-27.552"/>
<polygon fill="#191970" stroke="#191970" points="329.7815,-29.5708 333.0744,-19.5006 324.2204,-25.3194 329.7815,-29.5708"/>
</g>
<!-- Node28&#45;&gt;Node10 -->
<g id="edge56" class="edge">
<title>Node28&#45;&gt;Node10</title>
<path fill="none" stroke="#191970" d="M984.1729,-369.3245C988.9474,-360.1474 996.0295,-345.8843 1001,-333 1026.7102,-266.3547 994.0026,-226.8946 1047,-179 1110.118,-121.9592 1157.741,-178.617 1235,-143 1253.091,-134.6599 1296.3705,-104.9547 1305,-87 1310.9684,-74.582 1313.593,-66.7698 1305,-56 1288.1759,-34.9139 1221.7163,-22.7452 1169.564,-16.2832"/>
<polygon fill="#191970" stroke="#191970" points="1169.687,-12.7732 1159.3432,-15.0659 1168.8591,-19.7241 1169.687,-12.7732"/>
</g>
<!-- Node28&#45;&gt;Node29 -->
<g id="edge50" class="edge">
<title>Node28&#45;&gt;Node29</title>
<path fill="none" stroke="#191970" d="M974.1563,-369.3906C969.7234,-360.5965 963.0369,-347.3312 957.5341,-336.4145"/>
<polygon fill="#191970" stroke="#191970" points="960.5386,-334.5992 952.912,-327.2449 954.2878,-337.75 960.5386,-334.5992"/>
</g>
<!-- Node29&#45;&gt;Node3 -->
<g id="edge51" class="edge">
<title>Node29&#45;&gt;Node3</title>
<path fill="none" stroke="#191970" d="M975.0313,-307.8906C1004.4851,-297.42 1051.7689,-280.6111 1084.5027,-268.9745"/>
<polygon fill="#191970" stroke="#191970" points="1085.9086,-272.1893 1094.1586,-265.5419 1083.5639,-265.5937 1085.9086,-272.1893"/>
</g>
<!-- Node30 -->
<g id="node31" class="node">
<title>Node30</title>
<polygon fill="#ffffff" stroke="#bfbfbf" points="895.5,-246.5 895.5,-265.5 1000.5,-265.5 1000.5,-246.5 895.5,-246.5"/>
<text text-anchor="middle" x="948" y="-253.5" font-family="Helvetica,sans-Serif" font-size="10.00" fill="#000000">odp/api/abi/time.h</text>
</g>
<!-- Node29&#45;&gt;Node30 -->
<g id="edge52" class="edge">
<title>Node29&#45;&gt;Node30</title>
<path fill="none" stroke="#191970" d="M948,-307.8906C948,-299.3657 948,-286.6392 948,-275.9235"/>
<polygon fill="#191970" stroke="#191970" points="951.5001,-275.7448 948,-265.7449 944.5001,-275.7449 951.5001,-275.7448"/>
</g>
<!-- Node31 -->
<g id="node32" class="node">
<title>Node31</title>
<g id="a_node32"><a xlink:href="spec_2time_8h.html" target="_top" xlink:title="ODP time. ">
<polygon fill="#ffffff" stroke="#000000" points="734.5,-62 734.5,-81 847.5,-81 847.5,-62 734.5,-62"/>
<text text-anchor="middle" x="791" y="-69" font-family="Helvetica,sans-Serif" font-size="10.00" fill="#000000">odp/api/spec/time.h</text>
</a>
</g>
</g>
<!-- Node29&#45;&gt;Node31 -->
<g id="edge53" class="edge">
<title>Node29&#45;&gt;Node31</title>
<path fill="none" stroke="#191970" d="M933.4482,-307.8586C920.0624,-298.426 900.3258,-283.0266 887,-266 842.2182,-208.7813 810.4051,-127.3216 797.4515,-90.6687"/>
<polygon fill="#191970" stroke="#191970" points="800.7497,-89.4967 794.1725,-81.1906 794.1344,-91.7854 800.7497,-89.4967"/>
</g>
<!-- Node31&#45;&gt;Node1 -->
<g id="edge54" class="edge">
<title>Node31&#45;&gt;Node1</title>
<path fill="none" stroke="#191970" d="M754.373,-61.9864C745.1551,-59.8076 735.2509,-57.65 726,-56 617.0722,-36.5717 489.305,-23.1284 411.7968,-15.9939"/>
<polygon fill="#191970" stroke="#191970" points="411.9435,-12.4928 401.6672,-15.0711 411.3084,-19.464 411.9435,-12.4928"/>
</g>
<!-- Node31&#45;&gt;Node10 -->
<g id="edge55" class="edge">
<title>Node31&#45;&gt;Node10</title>
<path fill="none" stroke="#191970" d="M833.7626,-61.9737C843.0616,-59.9555 852.853,-57.871 862,-56 922.5832,-43.6075 991.9569,-30.4773 1040.6684,-21.4313"/>
<polygon fill="#191970" stroke="#191970" points="1041.5441,-24.8286 1050.7387,-19.5647 1040.2683,-17.9459 1041.5441,-24.8286"/>
</g>
<!-- Node32&#45;&gt;Node1 -->
<g id="edge59" class="edge">
<title>Node32&#45;&gt;Node1</title>
<path fill="none" stroke="#191970" d="M358.2446,-302.2654C344.7417,-279.6754 322,-235.5376 322,-194.5 322,-194.5 322,-194.5 322,-133 322,-96.253 330.3851,-54.0469 336.0146,-29.8522"/>
<polygon fill="#191970" stroke="#191970" points="339.4954,-30.3473 338.4376,-19.8054 332.6905,-28.7061 339.4954,-30.3473"/>
</g>
<!-- Node32&#45;&gt;Node10 -->
<g id="edge70" class="edge">
<title>Node32&#45;&gt;Node10</title>
<path fill="none" stroke="#191970" d="M423.729,-311.9872C481.4553,-305.2047 573.7238,-291.3406 650,-266 785.6216,-220.9436 804.6858,-174.4842 938,-123 992.729,-101.8644 1019.9128,-124.5383 1065,-87 1082.8362,-72.1501 1093.0325,-46.8837 1098.2845,-29.3627"/>
<polygon fill="#191970" stroke="#191970" points="1101.688,-30.1851 1100.9399,-19.6167 1094.9342,-28.3449 1101.688,-30.1851"/>
</g>
<!-- Node32&#45;&gt;Node17 -->
<g id="edge69" class="edge">
<title>Node32&#45;&gt;Node17</title>
<path fill="none" stroke="#191970" d="M420.1057,-302.4554C456.4246,-291.9689 504.2803,-278.1515 538.3354,-268.3187"/>
<polygon fill="#191970" stroke="#191970" points="539.3559,-271.667 547.9926,-265.5303 537.4141,-264.9418 539.3559,-271.667"/>
</g>
<!-- Node33 -->
<g id="node34" class="node">
<title>Node33</title>
<g id="a_node34"><a xlink:href="schedule__types_8h.html" target="_top" xlink:title="ODP schedule. ">
<polygon fill="#ffffff" stroke="#000000" points="363,-246.5 363,-265.5 503,-265.5 503,-246.5 363,-246.5"/>
<text text-anchor="middle" x="433" y="-253.5" font-family="Helvetica,sans-Serif" font-size="10.00" fill="#000000">odp/api/schedule_types.h</text>
</a>
</g>
</g>
<!-- Node32&#45;&gt;Node33 -->
<g id="edge60" class="edge">
<title>Node32&#45;&gt;Node33</title>
<path fill="none" stroke="#191970" d="M384.0674,-302.2977C393.466,-293.4052 405.3527,-282.1586 415.057,-272.9769"/>
<polygon fill="#191970" stroke="#191970" points="417.7342,-275.2621 422.5927,-265.8469 412.9232,-270.1774 417.7342,-275.2621"/>
</g>
<!-- Node34 -->
<g id="node35" class="node">
<title>Node34</title>
<polygon fill="#ffffff" stroke="#bfbfbf" points="388.5,-179.5 388.5,-209.5 505.5,-209.5 505.5,-179.5 388.5,-179.5"/>
<text text-anchor="start" x="396.5" y="-197.5" font-family="Helvetica,sans-Serif" font-size="10.00" fill="#000000">odp/api/abi/schedule</text>
<text text-anchor="middle" x="447" y="-186.5" font-family="Helvetica,sans-Serif" font-size="10.00" fill="#000000">_types.h</text>
</g>
<!-- Node33&#45;&gt;Node34 -->
<g id="edge61" class="edge">
<title>Node33&#45;&gt;Node34</title>
<path fill="none" stroke="#191970" d="M435.1875,-246.3906C436.8366,-239.1463 439.1764,-228.8679 441.3391,-219.3676"/>
<polygon fill="#191970" stroke="#191970" points="444.7682,-220.072 443.5752,-209.5446 437.9428,-218.5182 444.7682,-220.072"/>
</g>
<!-- Node35 -->
<g id="node36" class="node">
<title>Node35</title>
<g id="a_node36"><a xlink:href="spec_2schedule__types_8h.html" target="_top" xlink:title="ODP schedule types. ">
<polygon fill="#ffffff" stroke="#000000" points="523.5,-179.5 523.5,-209.5 648.5,-209.5 648.5,-179.5 523.5,-179.5"/>
<text text-anchor="start" x="531.5" y="-197.5" font-family="Helvetica,sans-Serif" font-size="10.00" fill="#000000">odp/api/spec/schedule</text>
<text text-anchor="middle" x="586" y="-186.5" font-family="Helvetica,sans-Serif" font-size="10.00" fill="#000000">_types.h</text>
</a>
</g>
</g>
<!-- Node33&#45;&gt;Node35 -->
<g id="edge62" class="edge">
<title>Node33&#45;&gt;Node35</title>
<path fill="none" stroke="#191970" d="M456.9063,-246.3906C478.8592,-237.5664 512.0117,-224.2404 539.2229,-213.3026"/>
<polygon fill="#191970" stroke="#191970" points="540.5989,-216.5217 548.572,-209.5446 537.9881,-210.0268 540.5989,-216.5217"/>
</g>
<!-- Node35&#45;&gt;Node1 -->
<g id="edge63" class="edge">
<title>Node35&#45;&gt;Node1</title>
<path fill="none" stroke="#191970" d="M530.2774,-179.4596C492.8782,-168.715 447.5369,-154.2328 431,-143 388.687,-114.2586 360.7973,-58.4018 348.3901,-29.0578"/>
<polygon fill="#191970" stroke="#191970" points="351.5311,-27.4903 344.5216,-19.5457 345.0469,-30.1275 351.5311,-27.4903"/>
</g>
<!-- Node35&#45;&gt;Node10 -->
<g id="edge68" class="edge">
<title>Node35&#45;&gt;Node10</title>
<path fill="none" stroke="#191970" d="M624.1939,-179.4835C676.7046,-158.8075 774.1192,-120.341 857,-87 890.8439,-73.3854 898.4391,-67.6751 933,-56 972.5469,-42.6406 1018.262,-30.4476 1052.3192,-21.9764"/>
<polygon fill="#191970" stroke="#191970" points="1053.1749,-25.3704 1062.0468,-19.5791 1051.4998,-18.5737 1053.1749,-25.3704"/>
</g>
<!-- Node35&#45;&gt;Node36 -->
<g id="edge64" class="edge">
<title>Node35&#45;&gt;Node36</title>
<path fill="none" stroke="#191970" d="M562.2697,-179.2977C547.4638,-169.8127 528.4772,-157.6495 513.6807,-148.1705"/>
<polygon fill="#191970" stroke="#191970" points="515.3925,-145.1105 505.0841,-142.6633 511.6165,-151.0047 515.3925,-145.1105"/>
</g>
<!-- Node37 -->
<g id="node38" class="node">
<title>Node37</title>
<g id="a_node38"><a xlink:href="spec_2support_8h.html" target="_top" xlink:title="ODP support API. ">
<polygon fill="#ffffff" stroke="#000000" points="426.5,-62 426.5,-81 553.5,-81 553.5,-62 426.5,-62"/>
<text text-anchor="middle" x="490" y="-69" font-family="Helvetica,sans-Serif" font-size="10.00" fill="#000000">odp/api/spec/support.h</text>
</a>
</g>
</g>
<!-- Node36&#45;&gt;Node37 -->
<g id="edge65" class="edge">
<title>Node36&#45;&gt;Node37</title>
<path fill="none" stroke="#191970" d="M490,-123.3906C490,-114.8657 490,-102.1392 490,-91.4235"/>
<polygon fill="#191970" stroke="#191970" points="493.5001,-91.2448 490,-81.2449 486.5001,-91.2449 493.5001,-91.2448"/>
</g>
<!-- Node37&#45;&gt;Node1 -->
<g id="edge66" class="edge">
<title>Node37&#45;&gt;Node1</title>
<path fill="none" stroke="#191970" d="M466.7188,-61.8906C441.679,-51.5554 401.6775,-35.0447 373.534,-23.4284"/>
<polygon fill="#191970" stroke="#191970" points="374.6967,-20.122 364.1178,-19.5419 372.026,-26.5925 374.6967,-20.122"/>
</g>
<!-- Node37&#45;&gt;Node10 -->
<g id="edge67" class="edge">
<title>Node37&#45;&gt;Node10</title>
<path fill="none" stroke="#191970" d="M530.3813,-61.9909C540.9492,-59.7596 552.3625,-57.5762 563,-56 732.6181,-30.8675 934.3981,-18.2061 1036.5914,-12.9964"/>
<polygon fill="#191970" stroke="#191970" points="1036.9507,-16.4829 1046.7627,-12.4858 1036.5997,-9.4917 1036.9507,-16.4829"/>
</g>
<!-- Node39 -->
<g id="node40" class="node">
<title>Node39</title>
<g id="a_node40"><a xlink:href="spec_2threshold_8h.html" target="_top" xlink:title="ODP threshold descriptor. ">
<polygon fill="#ffffff" stroke="#000000" points="1339,-308 1339,-327 1475,-327 1475,-308 1339,-308"/>
<text text-anchor="middle" x="1407" y="-315" font-family="Helvetica,sans-Serif" font-size="10.00" fill="#000000">odp/api/spec/threshold.h</text>
</a>
</g>
</g>
<!-- Node38&#45;&gt;Node39 -->
<g id="edge77" class="edge">
<title>Node38&#45;&gt;Node39</title>
<path fill="none" stroke="#191970" d="M1378.5729,-761.4953C1399.4305,-754.4937 1424.4305,-742.9937 1441,-725 1462.1432,-702.0394 1465,-690.2125 1465,-659 1465,-659 1465,-659 1465,-435 1465,-396.2109 1439.2702,-356.9674 1422.085,-335.0823"/>
<polygon fill="#191970" stroke="#191970" points="1424.5881,-332.6133 1415.5581,-327.0716 1419.1613,-337.0349 1424.5881,-332.6133"/>
</g>
<!-- Node39&#45;&gt;Node1 -->
<g id="edge78" class="edge">
<title>Node39&#45;&gt;Node1</title>
<path fill="none" stroke="#191970" d="M1389.8827,-307.752C1358.3384,-289.5951 1289.2111,-248.9013 1234,-210 1215.8996,-197.2466 1215.4394,-187.515 1195,-179 1034.498,-112.1355 574.44,-162.8833 418,-87 410.5717,-83.3968 377.4288,-48.8588 357.1231,-27.2809"/>
<polygon fill="#191970" stroke="#191970" points="359.4429,-24.6379 350.0497,-19.737 354.3364,-29.4259 359.4429,-24.6379"/>
</g>
<!-- Node39&#45;&gt;Node3 -->
<g id="edge79" class="edge">
<title>Node39&#45;&gt;Node3</title>
<path fill="none" stroke="#191970" d="M1362.6263,-307.9581C1312.1111,-297.0956 1229.5812,-279.3488 1175.2754,-267.6711"/>
<polygon fill="#191970" stroke="#191970" points="1175.9902,-264.2449 1165.4778,-265.5643 1174.5185,-271.0884 1175.9902,-264.2449"/>
</g>
<!-- Node39&#45;&gt;Node10 -->
<g id="edge80" class="edge">
<title>Node39&#45;&gt;Node10</title>
<path fill="none" stroke="#191970" d="M1407.1307,-307.9311C1407.4018,-287.2386 1408,-236.7826 1408,-194.5 1408,-194.5 1408,-194.5 1408,-133 1408,-91.952 1391.2793,-78.5803 1357,-56 1326.8488,-36.1389 1234.0277,-23.0561 1169.3721,-16.087"/>
<polygon fill="#191970" stroke="#191970" points="1169.5626,-12.5878 1159.251,-15.0209 1168.8293,-19.5493 1169.5626,-12.5878"/>
</g>
</g>
</svg>
