<?xml version="1.0" encoding="UTF-8" standalone="no"?>
<!DOCTYPE svg PUBLIC "-//W3C//DTD SVG 1.1//EN"
 "http://www.w3.org/Graphics/SVG/1.1/DTD/svg11.dtd">
<!-- Generated by graphviz version 2.40.1 (20161225.0304)
 -->
<!-- Title: event.h Pages: 1 -->
<svg width="886pt" height="476pt"
 viewBox="0.00 0.00 886.00 476.00" xmlns="http://www.w3.org/2000/svg" xmlns:xlink="http://www.w3.org/1999/xlink">
<g id="graph0" class="graph" transform="scale(1 1) rotate(0) translate(4 472)">
<title>event.h</title>
<polygon fill="#ffffff" stroke="transparent" points="-4,4 -4,-472 882,-472 882,4 -4,4"/>
<!-- Node0 -->
<g id="node1" class="node">
<title>Node0</title>
<polygon fill="#bfbfbf" stroke="#000000" points="351.5,-448.5 351.5,-467.5 404.5,-467.5 404.5,-448.5 351.5,-448.5"/>
<text text-anchor="middle" x="378" y="-455.5" font-family="Helvetica,sans-Serif" font-size="10.00" fill="#000000">event.h</text>
</g>
<!-- Node1 -->
<g id="node2" class="node">
<title>Node1</title>
<polygon fill="#ffffff" stroke="#bfbfbf" points="53.5,-.5 53.5,-19.5 174.5,-19.5 174.5,-.5 53.5,-.5"/>
<text text-anchor="middle" x="114" y="-7.5" font-family="Helvetica,sans-Serif" font-size="10.00" fill="#000000">odp/visibility_begin.h</text>
</g>
<!-- Node0&#45;&gt;Node1 -->
<g id="edge1" class="edge">
<title>Node0&#45;&gt;Node1</title>
<path fill="none" stroke="#191970" d="M351.4198,-455.9117C265.3789,-448.4308 0,-419.4073 0,-346 0,-346 0,-346 0,-122 0,-75.4628 48.9383,-41.828 82.6864,-24.1659"/>
<polygon fill="#191970" stroke="#191970" points="84.3862,-27.2289 91.749,-19.6105 81.2424,-20.9746 84.3862,-27.2289"/>
</g>
<!-- Node2 -->
<g id="node3" class="node">
<title>Node2</title>
<g id="a_node3"><a xlink:href="packet_8h.html" target="_top" xlink:title="ODP packet descriptor. ">
<polygon fill="#ffffff" stroke="#000000" points="329,-392.5 329,-411.5 427,-411.5 427,-392.5 329,-392.5"/>
<text text-anchor="middle" x="378" y="-399.5" font-family="Helvetica,sans-Serif" font-size="10.00" fill="#000000">odp/api/packet.h</text>
</a>
</g>
</g>
<!-- Node0&#45;&gt;Node2 -->
<g id="edge2" class="edge">
<title>Node0&#45;&gt;Node2</title>
<path fill="none" stroke="#191970" d="M378,-448.2455C378,-440.9382 378,-430.6944 378,-421.7046"/>
<polygon fill="#191970" stroke="#191970" points="381.5001,-421.6426 378,-411.6427 374.5001,-421.6427 381.5001,-421.6426"/>
</g>
<!-- Node10 -->
<g id="node11" class="node">
<title>Node10</title>
<polygon fill="#ffffff" stroke="#bfbfbf" points="439,-.5 439,-19.5 551,-19.5 551,-.5 439,-.5"/>
<text text-anchor="middle" x="495" y="-7.5" font-family="Helvetica,sans-Serif" font-size="10.00" fill="#000000">odp/visibility_end.h</text>
</g>
<!-- Node0&#45;&gt;Node10 -->
<g id="edge28" class="edge">
<title>Node0&#45;&gt;Node10</title>
<path fill="none" stroke="#191970" d="M404.5291,-454.9232C507.8976,-442.5834 878,-394.9818 878,-346 878,-346 878,-346 878,-122 878,-56.7509 670.6331,-26.8848 561.0678,-15.6585"/>
<polygon fill="#191970" stroke="#191970" points="561.4005,-12.1744 551.1017,-14.6611 560.7034,-19.1396 561.4005,-12.1744"/>
</g>
<!-- Node3 -->
<g id="node4" class="node">
<title>Node3</title>
<g id="a_node4"><a xlink:href="std__types_8h.html" target="_top" xlink:title="Standard C language types and definitions for ODP. ">
<polygon fill="#ffffff" stroke="#000000" points="190,-224.5 190,-243.5 302,-243.5 302,-224.5 190,-224.5"/>
<text text-anchor="middle" x="246" y="-231.5" font-family="Helvetica,sans-Serif" font-size="10.00" fill="#000000">odp/api/std_types.h</text>
</a>
</g>
</g>
<!-- Node2&#45;&gt;Node3 -->
<g id="edge3" class="edge">
<title>Node2&#45;&gt;Node3</title>
<path fill="none" stroke="#191970" d="M328.8239,-398.4595C243.2957,-391.7984 74.5399,-376.2326 57,-356 11.1597,-303.1224 122.0884,-264.4966 192.7835,-246.0779"/>
<polygon fill="#191970" stroke="#191970" points="194.0684,-249.3627 202.8985,-243.5077 192.3445,-242.5783 194.0684,-249.3627"/>
</g>
<!-- Node11 -->
<g id="node12" class="node">
<title>Node11</title>
<polygon fill="#ffffff" stroke="#bfbfbf" points="458,-336.5 458,-355.5 568,-355.5 568,-336.5 458,-336.5"/>
<text text-anchor="middle" x="513" y="-343.5" font-family="Helvetica,sans-Serif" font-size="10.00" fill="#000000">odp/api/abi/event.h</text>
</g>
<!-- Node2&#45;&gt;Node11 -->
<g id="edge14" class="edge">
<title>Node2&#45;&gt;Node11</title>
<path fill="none" stroke="#191970" d="M401.2073,-392.3733C423.1699,-383.2629 456.3332,-369.5062 480.8401,-359.3404"/>
<polygon fill="#191970" stroke="#191970" points="482.1997,-362.5657 490.0955,-355.5011 479.5176,-356.0999 482.1997,-362.5657"/>
</g>
<!-- Node12 -->
<g id="node13" class="node">
<title>Node12</title>
<polygon fill="#ffffff" stroke="#bfbfbf" points="586,-336.5 586,-355.5 716,-355.5 716,-336.5 586,-336.5"/>
<text text-anchor="middle" x="651" y="-343.5" font-family="Helvetica,sans-Serif" font-size="10.00" fill="#000000">odp/api/abi/packet_io.h</text>
</g>
<!-- Node2&#45;&gt;Node12 -->
<g id="edge15" class="edge">
<title>Node2&#45;&gt;Node12</title>
<path fill="none" stroke="#191970" d="M424.6202,-392.4369C471.6365,-382.7925 544.2629,-367.8948 594.5193,-357.5858"/>
<polygon fill="#191970" stroke="#191970" points="595.4794,-360.9618 604.5721,-355.5237 594.0727,-354.1046 595.4794,-360.9618"/>
</g>
<!-- Node13 -->
<g id="node14" class="node">
<title>Node13</title>
<polygon fill="#ffffff" stroke="#bfbfbf" points="734,-336.5 734,-355.5 850,-355.5 850,-336.5 734,-336.5"/>
<text text-anchor="middle" x="792" y="-343.5" font-family="Helvetica,sans-Serif" font-size="10.00" fill="#000000">odp/api/abi/packet.h</text>
</g>
<!-- Node2&#45;&gt;Node13 -->
<g id="edge16" class="edge">
<title>Node2&#45;&gt;Node13</title>
<path fill="none" stroke="#191970" d="M427.1662,-395.7397C492.4709,-387.3674 611.6946,-371.8848 723.7767,-356.1552"/>
<polygon fill="#191970" stroke="#191970" points="724.4889,-359.5895 733.9038,-354.7305 723.5137,-352.6578 724.4889,-359.5895"/>
</g>
<!-- Node14 -->
<g id="node15" class="node">
<title>Node14</title>
<polygon fill="#ffffff" stroke="#bfbfbf" points="66,-336.5 66,-355.5 176,-355.5 176,-336.5 66,-336.5"/>
<text text-anchor="middle" x="121" y="-343.5" font-family="Helvetica,sans-Serif" font-size="10.00" fill="#000000">odp/api/abi/buffer.h</text>
</g>
<!-- Node2&#45;&gt;Node14 -->
<g id="edge17" class="edge">
<title>Node2&#45;&gt;Node14</title>
<path fill="none" stroke="#191970" d="M334.1121,-392.4369C290.0362,-382.8328 222.0519,-368.0191 174.7642,-357.7152"/>
<polygon fill="#191970" stroke="#191970" points="175.2228,-354.233 164.7068,-355.5237 173.7324,-361.0725 175.2228,-354.233"/>
</g>
<!-- Node15 -->
<g id="node16" class="node">
<title>Node15</title>
<polygon fill="#ffffff" stroke="#bfbfbf" points="194,-336.5 194,-355.5 298,-355.5 298,-336.5 194,-336.5"/>
<text text-anchor="middle" x="246" y="-343.5" font-family="Helvetica,sans-Serif" font-size="10.00" fill="#000000">odp/api/abi/pool.h</text>
</g>
<!-- Node2&#45;&gt;Node15 -->
<g id="edge18" class="edge">
<title>Node2&#45;&gt;Node15</title>
<path fill="none" stroke="#191970" d="M355.3084,-392.3733C333.9289,-383.3032 301.6943,-369.6279 277.7638,-359.4755"/>
<polygon fill="#191970" stroke="#191970" points="278.9683,-356.1846 268.3955,-355.5011 276.2344,-362.6287 278.9683,-356.1846"/>
</g>
<!-- Node16 -->
<g id="node17" class="node">
<title>Node16</title>
<g id="a_node17"><a xlink:href="spec_2packet_8h.html" target="_top" xlink:title="ODP packet descriptor. ">
<polygon fill="#ffffff" stroke="#000000" points="316.5,-336.5 316.5,-355.5 439.5,-355.5 439.5,-336.5 316.5,-336.5"/>
<text text-anchor="middle" x="378" y="-343.5" font-family="Helvetica,sans-Serif" font-size="10.00" fill="#000000">odp/api/spec/packet.h</text>
</a>
</g>
</g>
<!-- Node2&#45;&gt;Node16 -->
<g id="edge19" class="edge">
<title>Node2&#45;&gt;Node16</title>
<path fill="none" stroke="#191970" d="M378,-392.2455C378,-384.9382 378,-374.6944 378,-365.7046"/>
<polygon fill="#191970" stroke="#191970" points="381.5001,-365.6426 378,-355.6427 374.5001,-365.6427 381.5001,-365.6426"/>
</g>
<!-- Node4 -->
<g id="node5" class="node">
<title>Node4</title>
<polygon fill="#ffffff" stroke="#bfbfbf" points="105,-168.5 105,-187.5 235,-187.5 235,-168.5 105,-168.5"/>
<text text-anchor="middle" x="170" y="-175.5" font-family="Helvetica,sans-Serif" font-size="10.00" fill="#000000">odp/api/abi/std_types.h</text>
</g>
<!-- Node3&#45;&gt;Node4 -->
<g id="edge4" class="edge">
<title>Node3&#45;&gt;Node4</title>
<path fill="none" stroke="#191970" d="M232.7618,-224.2455C221.319,-215.814 204.5704,-203.4729 191.2525,-193.6598"/>
<polygon fill="#191970" stroke="#191970" points="193.2133,-190.757 183.0865,-187.6427 189.0609,-196.3924 193.2133,-190.757"/>
</g>
<!-- Node5 -->
<g id="node6" class="node">
<title>Node5</title>
<g id="a_node6"><a xlink:href="spec_2std__types_8h.html" target="_top" xlink:title="Standard C language types and definitions for ODP. ">
<polygon fill="#ffffff" stroke="#000000" points="253.5,-168.5 253.5,-187.5 390.5,-187.5 390.5,-168.5 253.5,-168.5"/>
<text text-anchor="middle" x="322" y="-175.5" font-family="Helvetica,sans-Serif" font-size="10.00" fill="#000000">odp/api/spec/std_types.h</text>
</a>
</g>
</g>
<!-- Node3&#45;&gt;Node5 -->
<g id="edge5" class="edge">
<title>Node3&#45;&gt;Node5</title>
<path fill="none" stroke="#191970" d="M259.2382,-224.2455C270.681,-215.814 287.4296,-203.4729 300.7475,-193.6598"/>
<polygon fill="#191970" stroke="#191970" points="302.9391,-196.3924 308.9135,-187.6427 298.7867,-190.757 302.9391,-196.3924"/>
</g>
<!-- Node5&#45;&gt;Node1 -->
<g id="edge6" class="edge">
<title>Node5&#45;&gt;Node1</title>
<path fill="none" stroke="#191970" d="M281.1336,-168.4812C236.372,-155.693 166.4995,-128.2672 133,-76 123.9631,-61.9003 119.1231,-43.4053 116.595,-29.5821"/>
<polygon fill="#191970" stroke="#191970" points="120.0467,-29.0012 115.0271,-19.671 113.1327,-30.095 120.0467,-29.0012"/>
</g>
<!-- Node6 -->
<g id="node7" class="node">
<title>Node6</title>
<polygon fill="#ffffff" stroke="#bfbfbf" points="207.5,-112.5 207.5,-131.5 260.5,-131.5 260.5,-112.5 207.5,-112.5"/>
<text text-anchor="middle" x="234" y="-119.5" font-family="Helvetica,sans-Serif" font-size="10.00" fill="#000000">stdint.h</text>
</g>
<!-- Node5&#45;&gt;Node6 -->
<g id="edge7" class="edge">
<title>Node5&#45;&gt;Node6</title>
<path fill="none" stroke="#191970" d="M306.6716,-168.2455C293.1697,-159.6534 273.2878,-147.0014 257.7314,-137.1018"/>
<polygon fill="#191970" stroke="#191970" points="259.4685,-134.0587 249.1528,-131.6427 255.7103,-139.9643 259.4685,-134.0587"/>
</g>
<!-- Node7 -->
<g id="node8" class="node">
<title>Node7</title>
<g id="a_node8"><a xlink:href="align_8h.html" target="_top" xlink:title="ODP alignments. ">
<polygon fill="#ffffff" stroke="#000000" points="278.5,-112.5 278.5,-131.5 367.5,-131.5 367.5,-112.5 278.5,-112.5"/>
<text text-anchor="middle" x="323" y="-119.5" font-family="Helvetica,sans-Serif" font-size="10.00" fill="#000000">odp/api/align.h</text>
</a>
</g>
</g>
<!-- Node5&#45;&gt;Node7 -->
<g id="edge8" class="edge">
<title>Node5&#45;&gt;Node7</title>
<path fill="none" stroke="#191970" d="M322.1742,-168.2455C322.3047,-160.9382 322.4876,-150.6944 322.6481,-141.7046"/>
<polygon fill="#191970" stroke="#191970" points="326.1486,-141.7036 322.8278,-131.6427 319.1497,-141.5786 326.1486,-141.7036"/>
</g>
<!-- Node5&#45;&gt;Node10 -->
<g id="edge13" class="edge">
<title>Node5&#45;&gt;Node10</title>
<path fill="none" stroke="#191970" d="M335.2355,-168.228C346.6906,-159.4332 363.3571,-145.8048 376,-132 403.9854,-101.4426 400.6727,-85.272 430,-56 441.8105,-44.2117 456.9339,-33.3135 469.6205,-25.0867"/>
<polygon fill="#191970" stroke="#191970" points="471.7476,-27.8835 478.3455,-19.5938 468.0182,-21.9596 471.7476,-27.8835"/>
</g>
<!-- Node8 -->
<g id="node9" class="node">
<title>Node8</title>
<polygon fill="#ffffff" stroke="#bfbfbf" points="142.5,-56.5 142.5,-75.5 249.5,-75.5 249.5,-56.5 142.5,-56.5"/>
<text text-anchor="middle" x="196" y="-63.5" font-family="Helvetica,sans-Serif" font-size="10.00" fill="#000000">odp/api/abi/align.h</text>
</g>
<!-- Node7&#45;&gt;Node8 -->
<g id="edge9" class="edge">
<title>Node7&#45;&gt;Node8</title>
<path fill="none" stroke="#191970" d="M301.1679,-112.3733C280.6897,-103.3435 249.8601,-89.7494 226.8681,-79.6111"/>
<polygon fill="#191970" stroke="#191970" points="228.1093,-76.3333 217.5472,-75.5011 225.285,-82.7383 228.1093,-76.3333"/>
</g>
<!-- Node9 -->
<g id="node10" class="node">
<title>Node9</title>
<g id="a_node10"><a xlink:href="spec_2align_8h.html" target="_top" xlink:title="ODP alignments. ">
<polygon fill="#ffffff" stroke="#000000" points="268,-56.5 268,-75.5 382,-75.5 382,-56.5 268,-56.5"/>
<text text-anchor="middle" x="325" y="-63.5" font-family="Helvetica,sans-Serif" font-size="10.00" fill="#000000">odp/api/spec/align.h</text>
</a>
</g>
</g>
<!-- Node7&#45;&gt;Node9 -->
<g id="edge10" class="edge">
<title>Node7&#45;&gt;Node9</title>
<path fill="none" stroke="#191970" d="M323.3484,-112.2455C323.6093,-104.9382 323.9752,-94.6944 324.2963,-85.7046"/>
<polygon fill="#191970" stroke="#191970" points="327.7964,-85.7613 324.6556,-75.6427 320.8008,-85.5113 327.7964,-85.7613"/>
</g>
<!-- Node9&#45;&gt;Node1 -->
<g id="edge11" class="edge">
<title>Node9&#45;&gt;Node1</title>
<path fill="none" stroke="#191970" d="M288.7278,-56.3733C253.0342,-46.9001 198.4121,-32.4032 159.7549,-22.1435"/>
<polygon fill="#191970" stroke="#191970" points="160.3621,-18.6835 149.7989,-19.5011 158.5664,-25.4493 160.3621,-18.6835"/>
</g>
<!-- Node9&#45;&gt;Node10 -->
<g id="edge12" class="edge">
<title>Node9&#45;&gt;Node10</title>
<path fill="none" stroke="#191970" d="M354.224,-56.3733C382.4925,-47.0613 425.4965,-32.8953 456.5344,-22.671"/>
<polygon fill="#191970" stroke="#191970" points="457.7544,-25.9542 466.1573,-19.5011 455.5643,-19.3056 457.7544,-25.9542"/>
</g>
<!-- Node16&#45;&gt;Node1 -->
<g id="edge20" class="edge">
<title>Node16&#45;&gt;Node1</title>
<path fill="none" stroke="#191970" d="M319.0544,-336.4844C231.1669,-320.6057 76,-285.3066 76,-234 76,-234 76,-234 76,-122 76,-87.6118 92.2634,-50.2832 103.511,-28.5791"/>
<polygon fill="#191970" stroke="#191970" points="106.7317,-29.9804 108.393,-19.5166 100.569,-26.6605 106.7317,-29.9804"/>
</g>
<!-- Node16&#45;&gt;Node10 -->
<g id="edge27" class="edge">
<title>Node16&#45;&gt;Node10</title>
<path fill="none" stroke="#191970" d="M408.6911,-336.4744C466.5498,-317.5892 586,-273.783 586,-234 586,-234 586,-234 586,-122 586,-90.6328 580.2837,-80.7395 561,-56 551.0505,-43.2356 536.5859,-32.602 523.7321,-24.7854"/>
<polygon fill="#191970" stroke="#191970" points="525.1559,-21.5662 514.7448,-19.6014 521.6583,-27.6297 525.1559,-21.5662"/>
</g>
<!-- Node17 -->
<g id="node18" class="node">
<title>Node17</title>
<g id="a_node18"><a xlink:href="time_8h.html" target="_top" xlink:title="ODP time. ">
<polygon fill="#ffffff" stroke="#000000" points="360.5,-280.5 360.5,-299.5 447.5,-299.5 447.5,-280.5 360.5,-280.5"/>
<text text-anchor="middle" x="404" y="-287.5" font-family="Helvetica,sans-Serif" font-size="10.00" fill="#000000">odp/api/time.h</text>
</a>
</g>
</g>
<!-- Node16&#45;&gt;Node17 -->
<g id="edge21" class="edge">
<title>Node16&#45;&gt;Node17</title>
<path fill="none" stroke="#191970" d="M382.5289,-336.2455C386.0334,-328.6973 390.9927,-318.0158 395.2623,-308.8197"/>
<polygon fill="#191970" stroke="#191970" points="398.4864,-310.1867 399.523,-299.6427 392.1373,-307.2389 398.4864,-310.1867"/>
</g>
<!-- Node17&#45;&gt;Node3 -->
<g id="edge22" class="edge">
<title>Node17&#45;&gt;Node3</title>
<path fill="none" stroke="#191970" d="M376.8388,-280.3733C350.7933,-271.1419 311.2884,-257.1402 282.5021,-246.9375"/>
<polygon fill="#191970" stroke="#191970" points="283.4015,-243.5429 272.8067,-243.5011 281.063,-250.1408 283.4015,-243.5429"/>
</g>
<!-- Node18 -->
<g id="node19" class="node">
<title>Node18</title>
<polygon fill="#ffffff" stroke="#bfbfbf" points="452.5,-224.5 452.5,-243.5 557.5,-243.5 557.5,-224.5 452.5,-224.5"/>
<text text-anchor="middle" x="505" y="-231.5" font-family="Helvetica,sans-Serif" font-size="10.00" fill="#000000">odp/api/abi/time.h</text>
</g>
<!-- Node17&#45;&gt;Node18 -->
<g id="edge23" class="edge">
<title>Node17&#45;&gt;Node18</title>
<path fill="none" stroke="#191970" d="M421.5929,-280.2455C437.379,-271.4928 460.7639,-258.527 478.7587,-248.5496"/>
<polygon fill="#191970" stroke="#191970" points="480.5603,-251.5528 487.6087,-243.6427 477.1659,-245.4308 480.5603,-251.5528"/>
</g>
<!-- Node19 -->
<g id="node20" class="node">
<title>Node19</title>
<g id="a_node20"><a xlink:href="spec_2time_8h.html" target="_top" xlink:title="ODP time. ">
<polygon fill="#ffffff" stroke="#000000" points="438.5,-56.5 438.5,-75.5 551.5,-75.5 551.5,-56.5 438.5,-56.5"/>
<text text-anchor="middle" x="495" y="-63.5" font-family="Helvetica,sans-Serif" font-size="10.00" fill="#000000">odp/api/spec/time.h</text>
</a>
</g>
</g>
<!-- Node17&#45;&gt;Node19 -->
<g id="edge24" class="edge">
<title>Node17&#45;&gt;Node19</title>
<path fill="none" stroke="#191970" d="M407.9102,-280.375C421.7654,-246.2697 468.6847,-130.7761 487.2988,-84.9567"/>
<polygon fill="#191970" stroke="#191970" points="490.5832,-86.1712 491.1044,-75.5891 484.0979,-83.5365 490.5832,-86.1712"/>
</g>
<!-- Node19&#45;&gt;Node1 -->
<g id="edge25" class="edge">
<title>Node19&#45;&gt;Node1</title>
<path fill="none" stroke="#191970" d="M438.3719,-57.6767C370.8598,-47.7537 257.9891,-31.1637 184.7813,-20.4036"/>
<polygon fill="#191970" stroke="#191970" points="185.1262,-16.9167 174.7235,-18.9252 184.1082,-23.8423 185.1262,-16.9167"/>
</g>
<!-- Node19&#45;&gt;Node10 -->
<g id="edge26" class="edge">
<title>Node19&#45;&gt;Node10</title>
<path fill="none" stroke="#191970" d="M495,-56.2455C495,-48.9382 495,-38.6944 495,-29.7046"/>
<polygon fill="#191970" stroke="#191970" points="498.5001,-29.6426 495,-19.6427 491.5001,-29.6427 498.5001,-29.6426"/>
</g>
</g>
</svg>
