<?xml version="1.0" encoding="UTF-8" standalone="no"?>
<!DOCTYPE svg PUBLIC "-//W3C//DTD SVG 1.1//EN"
 "http://www.w3.org/Graphics/SVG/1.1/DTD/svg11.dtd">
<!-- Generated by graphviz version 2.40.1 (20161225.0304)
 -->
<!-- Title: crypto.h Pages: 1 -->
<svg width="1169pt" height="476pt"
 viewBox="0.00 0.00 1169.00 476.00" xmlns="http://www.w3.org/2000/svg" xmlns:xlink="http://www.w3.org/1999/xlink">
<g id="graph0" class="graph" transform="scale(1 1) rotate(0) translate(4 472)">
<title>crypto.h</title>
<polygon fill="#ffffff" stroke="transparent" points="-4,4 -4,-472 1165,-472 1165,4 -4,4"/>
<!-- Node0 -->
<g id="node1" class="node">
<title>Node0</title>
<polygon fill="#bfbfbf" stroke="#000000" points="173,-448.5 173,-467.5 229,-467.5 229,-448.5 173,-448.5"/>
<text text-anchor="middle" x="201" y="-455.5" font-family="Helvetica,sans-Serif" font-size="10.00" fill="#000000">crypto.h</text>
</g>
<!-- Node1 -->
<g id="node2" class="node">
<title>Node1</title>
<polygon fill="#ffffff" stroke="#bfbfbf" points="540.5,-.5 540.5,-19.5 661.5,-19.5 661.5,-.5 540.5,-.5"/>
<text text-anchor="middle" x="601" y="-7.5" font-family="Helvetica,sans-Serif" font-size="10.00" fill="#000000">odp/visibility_begin.h</text>
</g>
<!-- Node0&#45;&gt;Node1 -->
<g id="edge1" class="edge">
<title>Node0&#45;&gt;Node1</title>
<path fill="none" stroke="#191970" d="M229.2111,-457.7488C387.7813,-455.974 1161,-442.3785 1161,-346 1161,-346 1161,-346 1161,-122 1161,-72.6613 822.4377,-32.3362 671.8077,-16.8367"/>
<polygon fill="#191970" stroke="#191970" points="672.0324,-13.3416 661.7286,-15.8079 671.3215,-20.3054 672.0324,-13.3416"/>
</g>
<!-- Node2 -->
<g id="node3" class="node">
<title>Node2</title>
<g id="a_node3"><a xlink:href="deprecated_8h.html" target="_top" xlink:title="Control deprecated API definitions. ">
<polygon fill="#ffffff" stroke="#000000" points="53.5,-280.5 53.5,-299.5 172.5,-299.5 172.5,-280.5 53.5,-280.5"/>
<text text-anchor="middle" x="113" y="-287.5" font-family="Helvetica,sans-Serif" font-size="10.00" fill="#000000">odp/api/deprecated.h</text>
</a>
</g>
</g>
<!-- Node0&#45;&gt;Node2 -->
<g id="edge2" class="edge">
<title>Node0&#45;&gt;Node2</title>
<path fill="none" stroke="#191970" d="M183.0832,-448.4922C169.7548,-440.4987 152.1785,-427.8457 142,-412 121.5932,-380.2309 115.5264,-335.5112 113.7358,-309.9705"/>
<polygon fill="#191970" stroke="#191970" points="117.2153,-309.4959 113.1778,-299.7005 110.2256,-309.8757 117.2153,-309.4959"/>
</g>
<!-- Node4 -->
<g id="node5" class="node">
<title>Node4</title>
<polygon fill="#ffffff" stroke="#bfbfbf" points="237,-.5 237,-19.5 349,-19.5 349,-.5 237,-.5"/>
<text text-anchor="middle" x="293" y="-7.5" font-family="Helvetica,sans-Serif" font-size="10.00" fill="#000000">odp/visibility_end.h</text>
</g>
<!-- Node0&#45;&gt;Node4 -->
<g id="edge36" class="edge">
<title>Node0&#45;&gt;Node4</title>
<path fill="none" stroke="#191970" d="M172.6279,-455.2761C117.2221,-448.231 0,-424.0974 0,-346 0,-346 0,-346 0,-122 0,-85.1996 18.7189,-75.3847 50,-56 78.9544,-38.0571 165.3641,-24.6854 226.8858,-17.1111"/>
<polygon fill="#191970" stroke="#191970" points="227.4066,-20.5737 236.9149,-15.9002 226.5674,-13.6242 227.4066,-20.5737"/>
</g>
<!-- Node5 -->
<g id="node6" class="node">
<title>Node5</title>
<g id="a_node6"><a xlink:href="support_8h.html" target="_top" xlink:title="ODP support API &#45; platform specific header. ">
<polygon fill="#ffffff" stroke="#000000" points="150.5,-392.5 150.5,-411.5 251.5,-411.5 251.5,-392.5 150.5,-392.5"/>
<text text-anchor="middle" x="201" y="-399.5" font-family="Helvetica,sans-Serif" font-size="10.00" fill="#000000">odp/api/support.h</text>
</a>
</g>
</g>
<!-- Node0&#45;&gt;Node5 -->
<g id="edge6" class="edge">
<title>Node0&#45;&gt;Node5</title>
<path fill="none" stroke="#191970" d="M201,-448.2455C201,-440.9382 201,-430.6944 201,-421.7046"/>
<polygon fill="#191970" stroke="#191970" points="204.5001,-421.6426 201,-411.6427 197.5001,-421.6427 204.5001,-421.6426"/>
</g>
<!-- Node7 -->
<g id="node8" class="node">
<title>Node7</title>
<g id="a_node8"><a xlink:href="packet_8h.html" target="_top" xlink:title="ODP packet descriptor. ">
<polygon fill="#ffffff" stroke="#000000" points="644,-392.5 644,-411.5 742,-411.5 742,-392.5 644,-392.5"/>
<text text-anchor="middle" x="693" y="-399.5" font-family="Helvetica,sans-Serif" font-size="10.00" fill="#000000">odp/api/packet.h</text>
</a>
</g>
</g>
<!-- Node0&#45;&gt;Node7 -->
<g id="edge10" class="edge">
<title>Node0&#45;&gt;Node7</title>
<path fill="none" stroke="#191970" d="M229.2192,-454.7881C307.2536,-445.9061 527.1923,-420.8724 633.7149,-408.7479"/>
<polygon fill="#191970" stroke="#191970" points="634.1209,-412.2244 643.6609,-407.6158 633.3292,-405.2693 634.1209,-412.2244"/>
</g>
<!-- Node3 -->
<g id="node4" class="node">
<title>Node3</title>
<g id="a_node4"><a xlink:href="spec_2deprecated_8h.html" target="_top" xlink:title="Macro for deprecated API definitions. ">
<polygon fill="#ffffff" stroke="#000000" points="66.5,-56.5 66.5,-75.5 211.5,-75.5 211.5,-56.5 66.5,-56.5"/>
<text text-anchor="middle" x="139" y="-63.5" font-family="Helvetica,sans-Serif" font-size="10.00" fill="#000000">odp/api/spec/deprecated.h</text>
</a>
</g>
</g>
<!-- Node2&#45;&gt;Node3 -->
<g id="edge3" class="edge">
<title>Node2&#45;&gt;Node3</title>
<path fill="none" stroke="#191970" d="M114.1172,-280.375C118.0592,-246.4133 131.3686,-131.7472 136.7321,-85.5392"/>
<polygon fill="#191970" stroke="#191970" points="140.2106,-85.926 137.887,-75.5891 133.2573,-85.1189 140.2106,-85.926"/>
</g>
<!-- Node3&#45;&gt;Node1 -->
<g id="edge4" class="edge">
<title>Node3&#45;&gt;Node1</title>
<path fill="none" stroke="#191970" d="M211.8771,-57.1092C214.9592,-56.7342 218.0103,-56.3633 221,-56 328.9593,-42.8827 454.1806,-27.7379 530.475,-18.5183"/>
<polygon fill="#191970" stroke="#191970" points="530.9416,-21.9875 540.4495,-17.313 530.1018,-15.038 530.9416,-21.9875"/>
</g>
<!-- Node3&#45;&gt;Node4 -->
<g id="edge5" class="edge">
<title>Node3&#45;&gt;Node4</title>
<path fill="none" stroke="#191970" d="M165.4735,-56.3733C190.8597,-47.1419 229.3645,-33.1402 257.422,-22.9375"/>
<polygon fill="#191970" stroke="#191970" points="258.6701,-26.2079 266.8719,-19.5011 256.2778,-19.6293 258.6701,-26.2079"/>
</g>
<!-- Node6 -->
<g id="node7" class="node">
<title>Node6</title>
<g id="a_node7"><a xlink:href="spec_2support_8h.html" target="_top" xlink:title="ODP support API. ">
<polygon fill="#ffffff" stroke="#000000" points="229.5,-56.5 229.5,-75.5 356.5,-75.5 356.5,-56.5 229.5,-56.5"/>
<text text-anchor="middle" x="293" y="-63.5" font-family="Helvetica,sans-Serif" font-size="10.00" fill="#000000">odp/api/spec/support.h</text>
</a>
</g>
</g>
<!-- Node5&#45;&gt;Node6 -->
<g id="edge7" class="edge">
<title>Node5&#45;&gt;Node6</title>
<path fill="none" stroke="#191970" d="M201,-392.4116C201,-373.0538 201,-327.9167 201,-290 201,-290 201,-290 201,-178 201,-135.5397 240.9701,-100.3942 268.219,-81.3678"/>
<polygon fill="#191970" stroke="#191970" points="270.2043,-84.2506 276.5522,-75.768 266.3,-78.4405 270.2043,-84.2506"/>
</g>
<!-- Node6&#45;&gt;Node1 -->
<g id="edge8" class="edge">
<title>Node6&#45;&gt;Node1</title>
<path fill="none" stroke="#191970" d="M345.5971,-56.4369C399.0841,-46.712 481.9492,-31.6456 538.6933,-21.3285"/>
<polygon fill="#191970" stroke="#191970" points="539.4072,-24.7562 548.6198,-19.5237 538.155,-17.8691 539.4072,-24.7562"/>
</g>
<!-- Node6&#45;&gt;Node4 -->
<g id="edge9" class="edge">
<title>Node6&#45;&gt;Node4</title>
<path fill="none" stroke="#191970" d="M293,-56.2455C293,-48.9382 293,-38.6944 293,-29.7046"/>
<polygon fill="#191970" stroke="#191970" points="296.5001,-29.6426 293,-19.6427 289.5001,-29.6427 296.5001,-29.6426"/>
</g>
<!-- Node8 -->
<g id="node9" class="node">
<title>Node8</title>
<g id="a_node9"><a xlink:href="std__types_8h.html" target="_top" xlink:title="Standard C language types and definitions for ODP. ">
<polygon fill="#ffffff" stroke="#000000" points="603,-224.5 603,-243.5 715,-243.5 715,-224.5 603,-224.5"/>
<text text-anchor="middle" x="659" y="-231.5" font-family="Helvetica,sans-Serif" font-size="10.00" fill="#000000">odp/api/std_types.h</text>
</a>
</g>
</g>
<!-- Node7&#45;&gt;Node8 -->
<g id="edge11" class="edge">
<title>Node7&#45;&gt;Node8</title>
<path fill="none" stroke="#191970" d="M701.3012,-392.4144C711.2007,-379.7922 725.7351,-356.7638 720,-336 710.9964,-303.4027 688.5181,-270.7358 673.5094,-251.4498"/>
<polygon fill="#191970" stroke="#191970" points="676.1935,-249.2022 667.2143,-243.5786 670.7267,-253.5743 676.1935,-249.2022"/>
</g>
<!-- Node15 -->
<g id="node16" class="node">
<title>Node15</title>
<polygon fill="#ffffff" stroke="#bfbfbf" points="453,-336.5 453,-355.5 563,-355.5 563,-336.5 453,-336.5"/>
<text text-anchor="middle" x="508" y="-343.5" font-family="Helvetica,sans-Serif" font-size="10.00" fill="#000000">odp/api/abi/event.h</text>
</g>
<!-- Node7&#45;&gt;Node15 -->
<g id="edge22" class="edge">
<title>Node7&#45;&gt;Node15</title>
<path fill="none" stroke="#191970" d="M661.1974,-392.3733C630.1683,-382.9807 582.8246,-368.6496 548.9853,-358.4064"/>
<polygon fill="#191970" stroke="#191970" points="549.9728,-355.0485 539.3876,-355.5011 547.9447,-361.7483 549.9728,-355.0485"/>
</g>
<!-- Node16 -->
<g id="node17" class="node">
<title>Node16</title>
<polygon fill="#ffffff" stroke="#bfbfbf" points="581,-336.5 581,-355.5 711,-355.5 711,-336.5 581,-336.5"/>
<text text-anchor="middle" x="646" y="-343.5" font-family="Helvetica,sans-Serif" font-size="10.00" fill="#000000">odp/api/abi/packet_io.h</text>
</g>
<!-- Node7&#45;&gt;Node16 -->
<g id="edge23" class="edge">
<title>Node7&#45;&gt;Node16</title>
<path fill="none" stroke="#191970" d="M684.8132,-392.2455C678.1411,-384.2958 668.5521,-372.8706 660.5747,-363.3656"/>
<polygon fill="#191970" stroke="#191970" points="663.2026,-361.0524 654.093,-355.6427 657.8408,-365.5525 663.2026,-361.0524"/>
</g>
<!-- Node17 -->
<g id="node18" class="node">
<title>Node17</title>
<polygon fill="#ffffff" stroke="#bfbfbf" points="767,-336.5 767,-355.5 883,-355.5 883,-336.5 767,-336.5"/>
<text text-anchor="middle" x="825" y="-343.5" font-family="Helvetica,sans-Serif" font-size="10.00" fill="#000000">odp/api/abi/packet.h</text>
</g>
<!-- Node7&#45;&gt;Node17 -->
<g id="edge24" class="edge">
<title>Node7&#45;&gt;Node17</title>
<path fill="none" stroke="#191970" d="M715.6916,-392.3733C737.0711,-383.3032 769.3057,-369.6279 793.2362,-359.4755"/>
<polygon fill="#191970" stroke="#191970" points="794.7656,-362.6287 802.6045,-355.5011 792.0317,-356.1846 794.7656,-362.6287"/>
</g>
<!-- Node18 -->
<g id="node19" class="node">
<title>Node18</title>
<polygon fill="#ffffff" stroke="#bfbfbf" points="901,-336.5 901,-355.5 1011,-355.5 1011,-336.5 901,-336.5"/>
<text text-anchor="middle" x="956" y="-343.5" font-family="Helvetica,sans-Serif" font-size="10.00" fill="#000000">odp/api/abi/buffer.h</text>
</g>
<!-- Node7&#45;&gt;Node18 -->
<g id="edge25" class="edge">
<title>Node7&#45;&gt;Node18</title>
<path fill="none" stroke="#191970" d="M737.9125,-392.4369C783.112,-382.8127 852.8807,-367.957 901.2847,-357.6504"/>
<polygon fill="#191970" stroke="#191970" points="902.221,-361.0296 911.2728,-355.5237 900.7631,-354.1831 902.221,-361.0296"/>
</g>
<!-- Node19 -->
<g id="node20" class="node">
<title>Node19</title>
<polygon fill="#ffffff" stroke="#bfbfbf" points="1029,-336.5 1029,-355.5 1133,-355.5 1133,-336.5 1029,-336.5"/>
<text text-anchor="middle" x="1081" y="-343.5" font-family="Helvetica,sans-Serif" font-size="10.00" fill="#000000">odp/api/abi/pool.h</text>
</g>
<!-- Node7&#45;&gt;Node19 -->
<g id="edge26" class="edge">
<title>Node7&#45;&gt;Node19</title>
<path fill="none" stroke="#191970" d="M742.0792,-395.45C804.0896,-387.0955 914.3603,-371.9785 1018.6926,-356.174"/>
<polygon fill="#191970" stroke="#191970" points="1019.4084,-359.6055 1028.7689,-354.6426 1018.3565,-352.685 1019.4084,-359.6055"/>
</g>
<!-- Node20 -->
<g id="node21" class="node">
<title>Node20</title>
<g id="a_node21"><a xlink:href="spec_2packet_8h.html" target="_top" xlink:title="ODP packet descriptor. ">
<polygon fill="#ffffff" stroke="#000000" points="311.5,-336.5 311.5,-355.5 434.5,-355.5 434.5,-336.5 311.5,-336.5"/>
<text text-anchor="middle" x="373" y="-343.5" font-family="Helvetica,sans-Serif" font-size="10.00" fill="#000000">odp/api/spec/packet.h</text>
</a>
</g>
</g>
<!-- Node7&#45;&gt;Node20 -->
<g id="edge27" class="edge">
<title>Node7&#45;&gt;Node20</title>
<path fill="none" stroke="#191970" d="M643.7013,-393.3727C588.3162,-383.6803 498.2193,-367.9134 437.332,-357.2581"/>
<polygon fill="#191970" stroke="#191970" points="437.8994,-353.8043 427.4458,-355.528 436.6927,-360.6995 437.8994,-353.8043"/>
</g>
<!-- Node9 -->
<g id="node10" class="node">
<title>Node9</title>
<polygon fill="#ffffff" stroke="#bfbfbf" points="670,-168.5 670,-187.5 800,-187.5 800,-168.5 670,-168.5"/>
<text text-anchor="middle" x="735" y="-175.5" font-family="Helvetica,sans-Serif" font-size="10.00" fill="#000000">odp/api/abi/std_types.h</text>
</g>
<!-- Node8&#45;&gt;Node9 -->
<g id="edge12" class="edge">
<title>Node8&#45;&gt;Node9</title>
<path fill="none" stroke="#191970" d="M672.2382,-224.2455C683.681,-215.814 700.4296,-203.4729 713.7475,-193.6598"/>
<polygon fill="#191970" stroke="#191970" points="715.9391,-196.3924 721.9135,-187.6427 711.7867,-190.757 715.9391,-196.3924"/>
</g>
<!-- Node10 -->
<g id="node11" class="node">
<title>Node10</title>
<g id="a_node11"><a xlink:href="spec_2std__types_8h.html" target="_top" xlink:title="Standard C language types and definitions for ODP. ">
<polygon fill="#ffffff" stroke="#000000" points="514.5,-168.5 514.5,-187.5 651.5,-187.5 651.5,-168.5 514.5,-168.5"/>
<text text-anchor="middle" x="583" y="-175.5" font-family="Helvetica,sans-Serif" font-size="10.00" fill="#000000">odp/api/spec/std_types.h</text>
</a>
</g>
</g>
<!-- Node8&#45;&gt;Node10 -->
<g id="edge13" class="edge">
<title>Node8&#45;&gt;Node10</title>
<path fill="none" stroke="#191970" d="M645.7618,-224.2455C634.319,-215.814 617.5704,-203.4729 604.2525,-193.6598"/>
<polygon fill="#191970" stroke="#191970" points="606.2133,-190.757 596.0865,-187.6427 602.0609,-196.3924 606.2133,-190.757"/>
</g>
<!-- Node10&#45;&gt;Node1 -->
<g id="edge14" class="edge">
<title>Node10&#45;&gt;Node1</title>
<path fill="none" stroke="#191970" d="M645.1443,-168.4438C696.5331,-156.7067 765.3893,-131.0742 793,-76 796.9837,-68.0538 798.5047,-62.9793 793,-56 777.8894,-36.8415 720.2011,-24.7652 671.9676,-17.8192"/>
<polygon fill="#191970" stroke="#191970" points="672.2233,-14.3213 661.8373,-16.4142 671.2616,-21.2549 672.2233,-14.3213"/>
</g>
<!-- Node10&#45;&gt;Node4 -->
<g id="edge21" class="edge">
<title>Node10&#45;&gt;Node4</title>
<path fill="none" stroke="#191970" d="M572.7057,-168.3745C563.5001,-159.4604 549.9632,-145.5706 540,-132 517.0325,-100.7164 528.1556,-79.1409 497,-56 475.3456,-39.9161 410.0987,-27.0057 359.1611,-19.0037"/>
<polygon fill="#191970" stroke="#191970" points="359.5974,-15.5297 349.1816,-17.4692 358.5335,-22.4484 359.5974,-15.5297"/>
</g>
<!-- Node11 -->
<g id="node12" class="node">
<title>Node11</title>
<polygon fill="#ffffff" stroke="#bfbfbf" points="548.5,-112.5 548.5,-131.5 601.5,-131.5 601.5,-112.5 548.5,-112.5"/>
<text text-anchor="middle" x="575" y="-119.5" font-family="Helvetica,sans-Serif" font-size="10.00" fill="#000000">stdint.h</text>
</g>
<!-- Node10&#45;&gt;Node11 -->
<g id="edge15" class="edge">
<title>Node10&#45;&gt;Node11</title>
<path fill="none" stroke="#191970" d="M581.6065,-168.2455C580.5626,-160.9382 579.0992,-150.6944 577.8149,-141.7046"/>
<polygon fill="#191970" stroke="#191970" points="581.2566,-141.0472 576.3775,-131.6427 574.327,-142.0372 581.2566,-141.0472"/>
</g>
<!-- Node12 -->
<g id="node13" class="node">
<title>Node12</title>
<g id="a_node13"><a xlink:href="align_8h.html" target="_top" xlink:title="ODP alignments. ">
<polygon fill="#ffffff" stroke="#000000" points="619.5,-112.5 619.5,-131.5 708.5,-131.5 708.5,-112.5 619.5,-112.5"/>
<text text-anchor="middle" x="664" y="-119.5" font-family="Helvetica,sans-Serif" font-size="10.00" fill="#000000">odp/api/align.h</text>
</a>
</g>
</g>
<!-- Node10&#45;&gt;Node12 -->
<g id="edge16" class="edge">
<title>Node10&#45;&gt;Node12</title>
<path fill="none" stroke="#191970" d="M597.1091,-168.2455C609.4209,-159.7337 627.4958,-147.2375 641.7538,-137.3801"/>
<polygon fill="#191970" stroke="#191970" points="643.8174,-140.2085 650.0526,-131.6427 639.8366,-134.4506 643.8174,-140.2085"/>
</g>
<!-- Node13 -->
<g id="node14" class="node">
<title>Node13</title>
<polygon fill="#ffffff" stroke="#bfbfbf" points="676.5,-56.5 676.5,-75.5 783.5,-75.5 783.5,-56.5 676.5,-56.5"/>
<text text-anchor="middle" x="730" y="-63.5" font-family="Helvetica,sans-Serif" font-size="10.00" fill="#000000">odp/api/abi/align.h</text>
</g>
<!-- Node12&#45;&gt;Node13 -->
<g id="edge17" class="edge">
<title>Node12&#45;&gt;Node13</title>
<path fill="none" stroke="#191970" d="M675.4963,-112.2455C685.2442,-103.9746 699.4259,-91.9416 710.8798,-82.2232"/>
<polygon fill="#191970" stroke="#191970" points="713.2747,-84.7813 718.6354,-75.6427 708.7459,-79.4437 713.2747,-84.7813"/>
</g>
<!-- Node14 -->
<g id="node15" class="node">
<title>Node14</title>
<g id="a_node15"><a xlink:href="spec_2align_8h.html" target="_top" xlink:title="ODP alignments. ">
<polygon fill="#ffffff" stroke="#000000" points="544,-56.5 544,-75.5 658,-75.5 658,-56.5 544,-56.5"/>
<text text-anchor="middle" x="601" y="-63.5" font-family="Helvetica,sans-Serif" font-size="10.00" fill="#000000">odp/api/spec/align.h</text>
</a>
</g>
</g>
<!-- Node12&#45;&gt;Node14 -->
<g id="edge18" class="edge">
<title>Node12&#45;&gt;Node14</title>
<path fill="none" stroke="#191970" d="M653.0262,-112.2455C643.8118,-104.0549 630.4468,-92.1749 619.5703,-82.5069"/>
<polygon fill="#191970" stroke="#191970" points="621.6474,-79.6704 611.848,-75.6427 616.9968,-84.9023 621.6474,-79.6704"/>
</g>
<!-- Node14&#45;&gt;Node1 -->
<g id="edge19" class="edge">
<title>Node14&#45;&gt;Node1</title>
<path fill="none" stroke="#191970" d="M601,-56.2455C601,-48.9382 601,-38.6944 601,-29.7046"/>
<polygon fill="#191970" stroke="#191970" points="604.5001,-29.6426 601,-19.6427 597.5001,-29.6427 604.5001,-29.6426"/>
</g>
<!-- Node14&#45;&gt;Node4 -->
<g id="edge20" class="edge">
<title>Node14&#45;&gt;Node4</title>
<path fill="none" stroke="#191970" d="M548.4029,-56.4369C494.9159,-46.712 412.0508,-31.6456 355.3067,-21.3285"/>
<polygon fill="#191970" stroke="#191970" points="355.845,-17.8691 345.3802,-19.5237 354.5928,-24.7562 355.845,-17.8691"/>
</g>
<!-- Node20&#45;&gt;Node1 -->
<g id="edge28" class="edge">
<title>Node20&#45;&gt;Node1</title>
<path fill="none" stroke="#191970" d="M422.5692,-336.4784C528.6228,-314.88 771.0077,-258.5267 809,-188 824.6893,-158.8754 894.4508,-162.7907 808,-56 790.8903,-34.8648 724.5953,-22.8042 671.579,-16.383"/>
<polygon fill="#191970" stroke="#191970" points="671.8483,-12.8908 661.5106,-15.2108 671.0388,-19.8438 671.8483,-12.8908"/>
</g>
<!-- Node20&#45;&gt;Node4 -->
<g id="edge35" class="edge">
<title>Node20&#45;&gt;Node4</title>
<path fill="none" stroke="#191970" d="M352.2018,-336.3104C292.4347,-307.1443 120.4278,-213.622 57,-76 53.2794,-67.9272 51.3477,-62.8603 57,-56 78.1838,-30.2886 164.6952,-18.7567 226.8365,-13.7179"/>
<polygon fill="#191970" stroke="#191970" points="227.2718,-17.1948 236.9727,-12.9354 226.7329,-10.2155 227.2718,-17.1948"/>
</g>
<!-- Node21 -->
<g id="node22" class="node">
<title>Node21</title>
<g id="a_node22"><a xlink:href="time_8h.html" target="_top" xlink:title="ODP time. ">
<polygon fill="#ffffff" stroke="#000000" points="358.5,-280.5 358.5,-299.5 445.5,-299.5 445.5,-280.5 358.5,-280.5"/>
<text text-anchor="middle" x="402" y="-287.5" font-family="Helvetica,sans-Serif" font-size="10.00" fill="#000000">odp/api/time.h</text>
</a>
</g>
</g>
<!-- Node20&#45;&gt;Node21 -->
<g id="edge29" class="edge">
<title>Node20&#45;&gt;Node21</title>
<path fill="none" stroke="#191970" d="M378.0514,-336.2455C382.0019,-328.617 387.6097,-317.7881 392.4058,-308.5267"/>
<polygon fill="#191970" stroke="#191970" points="395.5159,-310.1321 397.0065,-299.6427 389.2999,-306.9131 395.5159,-310.1321"/>
</g>
<!-- Node21&#45;&gt;Node8 -->
<g id="edge30" class="edge">
<title>Node21&#45;&gt;Node8</title>
<path fill="none" stroke="#191970" d="M445.5965,-280.5004C489.7174,-270.8865 558.0095,-256.0057 605.4085,-245.6775"/>
<polygon fill="#191970" stroke="#191970" points="606.164,-249.0951 615.1896,-243.5462 604.6737,-242.2556 606.164,-249.0951"/>
</g>
<!-- Node22 -->
<g id="node23" class="node">
<title>Node22</title>
<polygon fill="#ffffff" stroke="#bfbfbf" points="297.5,-224.5 297.5,-243.5 402.5,-243.5 402.5,-224.5 297.5,-224.5"/>
<text text-anchor="middle" x="350" y="-231.5" font-family="Helvetica,sans-Serif" font-size="10.00" fill="#000000">odp/api/abi/time.h</text>
</g>
<!-- Node21&#45;&gt;Node22 -->
<g id="edge31" class="edge">
<title>Node21&#45;&gt;Node22</title>
<path fill="none" stroke="#191970" d="M392.9423,-280.2455C385.4858,-272.2155 374.7366,-260.6394 365.8583,-251.0781"/>
<polygon fill="#191970" stroke="#191970" points="368.3232,-248.589 358.9539,-243.6427 363.1937,-253.3522 368.3232,-248.589"/>
</g>
<!-- Node23 -->
<g id="node24" class="node">
<title>Node23</title>
<g id="a_node24"><a xlink:href="spec_2time_8h.html" target="_top" xlink:title="ODP time. ">
<polygon fill="#ffffff" stroke="#000000" points="374.5,-56.5 374.5,-75.5 487.5,-75.5 487.5,-56.5 374.5,-56.5"/>
<text text-anchor="middle" x="431" y="-63.5" font-family="Helvetica,sans-Serif" font-size="10.00" fill="#000000">odp/api/spec/time.h</text>
</a>
</g>
</g>
<!-- Node21&#45;&gt;Node23 -->
<g id="edge32" class="edge">
<title>Node21&#45;&gt;Node23</title>
<path fill="none" stroke="#191970" d="M404.4546,-280.1879C406.6978,-270.9144 409.9663,-256.5861 412,-244 421.224,-186.9153 427.0766,-118.7816 429.5859,-85.8147"/>
<polygon fill="#191970" stroke="#191970" points="433.0871,-85.9272 430.3341,-75.6962 426.1061,-85.4109 433.0871,-85.9272"/>
</g>
<!-- Node23&#45;&gt;Node1 -->
<g id="edge33" class="edge">
<title>Node23&#45;&gt;Node1</title>
<path fill="none" stroke="#191970" d="M460.224,-56.3733C488.4925,-47.0613 531.4965,-32.8953 562.5344,-22.671"/>
<polygon fill="#191970" stroke="#191970" points="563.7544,-25.9542 572.1573,-19.5011 561.5643,-19.3056 563.7544,-25.9542"/>
</g>
<!-- Node23&#45;&gt;Node4 -->
<g id="edge34" class="edge">
<title>Node23&#45;&gt;Node4</title>
<path fill="none" stroke="#191970" d="M407.277,-56.3733C384.8263,-47.2629 350.9261,-33.5062 325.8745,-23.3404"/>
<polygon fill="#191970" stroke="#191970" points="326.9957,-20.0182 316.4135,-19.5011 324.3635,-26.5045 326.9957,-20.0182"/>
</g>
</g>
</svg>
