<?xml version="1.0" encoding="UTF-8" standalone="no"?>
<!DOCTYPE svg PUBLIC "-//W3C//DTD SVG 1.1//EN"
 "http://www.w3.org/Graphics/SVG/1.1/DTD/svg11.dtd">
<!-- Generated by graphviz version 2.40.1 (20161225.0304)
 -->
<!-- Title: comp.h Pages: 1 -->
<svg width="925pt" height="476pt"
 viewBox="0.00 0.00 924.74 476.00" xmlns="http://www.w3.org/2000/svg" xmlns:xlink="http://www.w3.org/1999/xlink">
<g id="graph0" class="graph" transform="scale(1 1) rotate(0) translate(4 472)">
<title>comp.h</title>
<polygon fill="#ffffff" stroke="transparent" points="-4,4 -4,-472 920.7405,-472 920.7405,4 -4,4"/>
<!-- Node0 -->
<g id="node1" class="node">
<title>Node0</title>
<polygon fill="#bfbfbf" stroke="#000000" points="646.5,-448.5 646.5,-467.5 699.5,-467.5 699.5,-448.5 646.5,-448.5"/>
<text text-anchor="middle" x="673" y="-455.5" font-family="Helvetica,sans-Serif" font-size="10.00" fill="#000000">comp.h</text>
</g>
<!-- Node1 -->
<g id="node2" class="node">
<title>Node1</title>
<polygon fill="#ffffff" stroke="#bfbfbf" points="249.5,-.5 249.5,-19.5 370.5,-19.5 370.5,-.5 249.5,-.5"/>
<text text-anchor="middle" x="310" y="-7.5" font-family="Helvetica,sans-Serif" font-size="10.00" fill="#000000">odp/visibility_begin.h</text>
</g>
<!-- Node0&#45;&gt;Node1 -->
<g id="edge1" class="edge">
<title>Node0&#45;&gt;Node1</title>
<path fill="none" stroke="#191970" d="M646.2023,-456.4274C521.0324,-448.7335 0,-412.7006 0,-346 0,-346 0,-346 0,-122 0,-71.3938 147.975,-37.253 239.454,-20.9821"/>
<polygon fill="#191970" stroke="#191970" points="240.2448,-24.3971 249.493,-19.2277 239.0397,-17.5016 240.2448,-24.3971"/>
</g>
<!-- Node2 -->
<g id="node3" class="node">
<title>Node2</title>
<g id="a_node3"><a xlink:href="support_8h.html" target="_top" xlink:title="ODP support API &#45; platform specific header. ">
<polygon fill="#ffffff" stroke="#000000" points="677.5,-392.5 677.5,-411.5 778.5,-411.5 778.5,-392.5 677.5,-392.5"/>
<text text-anchor="middle" x="728" y="-399.5" font-family="Helvetica,sans-Serif" font-size="10.00" fill="#000000">odp/api/support.h</text>
</a>
</g>
</g>
<!-- Node0&#45;&gt;Node2 -->
<g id="edge2" class="edge">
<title>Node0&#45;&gt;Node2</title>
<path fill="none" stroke="#191970" d="M682.5803,-448.2455C690.5458,-440.1352 702.0641,-428.4075 711.5079,-418.7919"/>
<polygon fill="#191970" stroke="#191970" points="714.0195,-421.2297 718.5295,-411.6427 709.0253,-416.3247 714.0195,-421.2297"/>
</g>
<!-- Node4 -->
<g id="node5" class="node">
<title>Node4</title>
<polygon fill="#ffffff" stroke="#bfbfbf" points="657,-.5 657,-19.5 769,-19.5 769,-.5 657,-.5"/>
<text text-anchor="middle" x="713" y="-7.5" font-family="Helvetica,sans-Serif" font-size="10.00" fill="#000000">odp/visibility_end.h</text>
</g>
<!-- Node0&#45;&gt;Node4 -->
<g id="edge32" class="edge">
<title>Node0&#45;&gt;Node4</title>
<path fill="none" stroke="#191970" d="M699.9337,-451.6489C763.2017,-435.9485 916,-393.1497 916,-346 916,-346 916,-346 916,-122 916,-91.4754 918.962,-77.1996 897,-56 880.0602,-39.6482 824.6278,-27.2107 778.9945,-19.417"/>
<polygon fill="#191970" stroke="#191970" points="779.5653,-15.9639 769.1268,-17.7767 778.4174,-22.8692 779.5653,-15.9639"/>
</g>
<!-- Node5 -->
<g id="node6" class="node">
<title>Node5</title>
<g id="a_node6"><a xlink:href="packet_8h.html" target="_top" xlink:title="ODP packet descriptor. ">
<polygon fill="#ffffff" stroke="#000000" points="406,-392.5 406,-411.5 504,-411.5 504,-392.5 406,-392.5"/>
<text text-anchor="middle" x="455" y="-399.5" font-family="Helvetica,sans-Serif" font-size="10.00" fill="#000000">odp/api/packet.h</text>
</a>
</g>
</g>
<!-- Node0&#45;&gt;Node5 -->
<g id="edge6" class="edge">
<title>Node0&#45;&gt;Node5</title>
<path fill="none" stroke="#191970" d="M646.2689,-451.1333C610.4059,-441.9208 546.1359,-425.4111 502.0722,-414.0919"/>
<polygon fill="#191970" stroke="#191970" points="502.7224,-410.6454 492.166,-411.5472 500.9807,-417.4253 502.7224,-410.6454"/>
</g>
<!-- Node3 -->
<g id="node4" class="node">
<title>Node3</title>
<g id="a_node4"><a xlink:href="spec_2support_8h.html" target="_top" xlink:title="ODP support API. ">
<polygon fill="#ffffff" stroke="#000000" points="760.5,-56.5 760.5,-75.5 887.5,-75.5 887.5,-56.5 760.5,-56.5"/>
<text text-anchor="middle" x="824" y="-63.5" font-family="Helvetica,sans-Serif" font-size="10.00" fill="#000000">odp/api/spec/support.h</text>
</a>
</g>
</g>
<!-- Node2&#45;&gt;Node3 -->
<g id="edge3" class="edge">
<title>Node2&#45;&gt;Node3</title>
<path fill="none" stroke="#191970" d="M778.5809,-395.616C805.8341,-389.6628 838.0664,-378.171 859,-356 879.956,-333.8054 878,-320.5246 878,-290 878,-290 878,-290 878,-178 878,-141.7347 854.7441,-104.8332 838.7557,-83.7487"/>
<polygon fill="#191970" stroke="#191970" points="841.3753,-81.418 832.4375,-75.7289 835.8767,-85.75 841.3753,-81.418"/>
</g>
<!-- Node3&#45;&gt;Node1 -->
<g id="edge4" class="edge">
<title>Node3&#45;&gt;Node1</title>
<path fill="none" stroke="#191970" d="M760.458,-59.0771C663.9877,-48.5668 481.1964,-28.6517 380.6639,-17.6988"/>
<polygon fill="#191970" stroke="#191970" points="380.9242,-14.2065 370.6039,-16.6028 380.166,-21.1653 380.9242,-14.2065"/>
</g>
<!-- Node3&#45;&gt;Node4 -->
<g id="edge5" class="edge">
<title>Node3&#45;&gt;Node4</title>
<path fill="none" stroke="#191970" d="M804.9184,-56.3733C787.2598,-47.4644 760.7947,-34.1127 740.7902,-24.0203"/>
<polygon fill="#191970" stroke="#191970" points="742.3372,-20.8806 731.8326,-19.5011 739.1842,-27.1303 742.3372,-20.8806"/>
</g>
<!-- Node6 -->
<g id="node7" class="node">
<title>Node6</title>
<g id="a_node7"><a xlink:href="std__types_8h.html" target="_top" xlink:title="Standard C language types and definitions for ODP. ">
<polygon fill="#ffffff" stroke="#000000" points="327,-224.5 327,-243.5 439,-243.5 439,-224.5 327,-224.5"/>
<text text-anchor="middle" x="383" y="-231.5" font-family="Helvetica,sans-Serif" font-size="10.00" fill="#000000">odp/api/std_types.h</text>
</a>
</g>
</g>
<!-- Node5&#45;&gt;Node6 -->
<g id="edge7" class="edge">
<title>Node5&#45;&gt;Node6</title>
<path fill="none" stroke="#191970" d="M405.728,-399.9084C304.3272,-395.0974 79.8482,-381.641 57,-356 -19.9774,-269.6133 200.5596,-244.2023 316.6301,-236.8805"/>
<polygon fill="#191970" stroke="#191970" points="317.0713,-240.3604 326.843,-236.2658 316.6507,-233.373 317.0713,-240.3604"/>
</g>
<!-- Node13 -->
<g id="node14" class="node">
<title>Node13</title>
<polygon fill="#ffffff" stroke="#bfbfbf" points="66,-336.5 66,-355.5 176,-355.5 176,-336.5 66,-336.5"/>
<text text-anchor="middle" x="121" y="-343.5" font-family="Helvetica,sans-Serif" font-size="10.00" fill="#000000">odp/api/abi/event.h</text>
</g>
<!-- Node5&#45;&gt;Node13 -->
<g id="edge18" class="edge">
<title>Node5&#45;&gt;Node13</title>
<path fill="none" stroke="#191970" d="M405.7171,-393.737C347.4981,-383.9757 250.4435,-367.7031 186.0854,-356.9125"/>
<polygon fill="#191970" stroke="#191970" points="186.4891,-353.4314 176.048,-355.2296 185.3316,-360.3351 186.4891,-353.4314"/>
</g>
<!-- Node14 -->
<g id="node15" class="node">
<title>Node14</title>
<polygon fill="#ffffff" stroke="#bfbfbf" points="194,-336.5 194,-355.5 324,-355.5 324,-336.5 194,-336.5"/>
<text text-anchor="middle" x="259" y="-343.5" font-family="Helvetica,sans-Serif" font-size="10.00" fill="#000000">odp/api/abi/packet_io.h</text>
</g>
<!-- Node5&#45;&gt;Node14 -->
<g id="edge19" class="edge">
<title>Node5&#45;&gt;Node14</title>
<path fill="none" stroke="#191970" d="M421.3064,-392.3733C388.2913,-382.9404 337.8427,-368.5265 301.9614,-358.2747"/>
<polygon fill="#191970" stroke="#191970" points="302.8307,-354.8831 292.2539,-355.5011 300.9076,-361.6137 302.8307,-354.8831"/>
</g>
<!-- Node15 -->
<g id="node16" class="node">
<title>Node15</title>
<polygon fill="#ffffff" stroke="#bfbfbf" points="342,-336.5 342,-355.5 458,-355.5 458,-336.5 342,-336.5"/>
<text text-anchor="middle" x="400" y="-343.5" font-family="Helvetica,sans-Serif" font-size="10.00" fill="#000000">odp/api/abi/packet.h</text>
</g>
<!-- Node5&#45;&gt;Node15 -->
<g id="edge20" class="edge">
<title>Node5&#45;&gt;Node15</title>
<path fill="none" stroke="#191970" d="M445.4197,-392.2455C437.4542,-384.1352 425.9359,-372.4075 416.4921,-362.7919"/>
<polygon fill="#191970" stroke="#191970" points="418.9747,-360.3247 409.4705,-355.6427 413.9805,-365.2297 418.9747,-360.3247"/>
</g>
<!-- Node16 -->
<g id="node17" class="node">
<title>Node16</title>
<polygon fill="#ffffff" stroke="#bfbfbf" points="618,-336.5 618,-355.5 728,-355.5 728,-336.5 618,-336.5"/>
<text text-anchor="middle" x="673" y="-343.5" font-family="Helvetica,sans-Serif" font-size="10.00" fill="#000000">odp/api/abi/buffer.h</text>
</g>
<!-- Node5&#45;&gt;Node16 -->
<g id="edge21" class="edge">
<title>Node5&#45;&gt;Node16</title>
<path fill="none" stroke="#191970" d="M492.4755,-392.3733C529.5103,-382.8598 586.2682,-368.2797 626.2361,-358.0127"/>
<polygon fill="#191970" stroke="#191970" points="627.1988,-361.3792 636.0135,-355.5011 625.4571,-354.5993 627.1988,-361.3792"/>
</g>
<!-- Node17 -->
<g id="node18" class="node">
<title>Node17</title>
<polygon fill="#ffffff" stroke="#bfbfbf" points="746,-336.5 746,-355.5 850,-355.5 850,-336.5 746,-336.5"/>
<text text-anchor="middle" x="798" y="-343.5" font-family="Helvetica,sans-Serif" font-size="10.00" fill="#000000">odp/api/abi/pool.h</text>
</g>
<!-- Node5&#45;&gt;Node17 -->
<g id="edge22" class="edge">
<title>Node5&#45;&gt;Node17</title>
<path fill="none" stroke="#191970" d="M504.1616,-393.9928C558.3453,-385.165 648.3746,-370.4891 735.6776,-356.2154"/>
<polygon fill="#191970" stroke="#191970" points="736.4529,-359.6352 745.757,-354.5672 735.3233,-352.7269 736.4529,-359.6352"/>
</g>
<!-- Node18 -->
<g id="node19" class="node">
<title>Node18</title>
<g id="a_node19"><a xlink:href="spec_2packet_8h.html" target="_top" xlink:title="ODP packet descriptor. ">
<polygon fill="#ffffff" stroke="#000000" points="476.5,-336.5 476.5,-355.5 599.5,-355.5 599.5,-336.5 476.5,-336.5"/>
<text text-anchor="middle" x="538" y="-343.5" font-family="Helvetica,sans-Serif" font-size="10.00" fill="#000000">odp/api/spec/packet.h</text>
</a>
</g>
</g>
<!-- Node5&#45;&gt;Node18 -->
<g id="edge23" class="edge">
<title>Node5&#45;&gt;Node18</title>
<path fill="none" stroke="#191970" d="M469.4575,-392.2455C482.0732,-383.7337 500.5944,-371.2375 515.2045,-361.3801"/>
<polygon fill="#191970" stroke="#191970" points="517.3761,-364.1371 523.7082,-355.6427 513.4609,-358.3343 517.3761,-364.1371"/>
</g>
<!-- Node7 -->
<g id="node8" class="node">
<title>Node7</title>
<polygon fill="#ffffff" stroke="#bfbfbf" points="441,-168.5 441,-187.5 571,-187.5 571,-168.5 441,-168.5"/>
<text text-anchor="middle" x="506" y="-175.5" font-family="Helvetica,sans-Serif" font-size="10.00" fill="#000000">odp/api/abi/std_types.h</text>
</g>
<!-- Node6&#45;&gt;Node7 -->
<g id="edge8" class="edge">
<title>Node6&#45;&gt;Node7</title>
<path fill="none" stroke="#191970" d="M404.1445,-224.3733C423.8892,-215.3838 453.5698,-201.8706 475.8055,-191.7471"/>
<polygon fill="#191970" stroke="#191970" points="477.4806,-194.8302 485.1315,-187.5011 474.58,-188.4594 477.4806,-194.8302"/>
</g>
<!-- Node8 -->
<g id="node9" class="node">
<title>Node8</title>
<g id="a_node9"><a xlink:href="spec_2std__types_8h.html" target="_top" xlink:title="Standard C language types and definitions for ODP. ">
<polygon fill="#ffffff" stroke="#000000" points="285.5,-168.5 285.5,-187.5 422.5,-187.5 422.5,-168.5 285.5,-168.5"/>
<text text-anchor="middle" x="354" y="-175.5" font-family="Helvetica,sans-Serif" font-size="10.00" fill="#000000">odp/api/spec/std_types.h</text>
</a>
</g>
</g>
<!-- Node6&#45;&gt;Node8 -->
<g id="edge9" class="edge">
<title>Node6&#45;&gt;Node8</title>
<path fill="none" stroke="#191970" d="M377.9486,-224.2455C373.9981,-216.617 368.3903,-205.7881 363.5942,-196.5267"/>
<polygon fill="#191970" stroke="#191970" points="366.7001,-194.9131 358.9935,-187.6427 360.4841,-198.1321 366.7001,-194.9131"/>
</g>
<!-- Node8&#45;&gt;Node1 -->
<g id="edge10" class="edge">
<title>Node8&#45;&gt;Node1</title>
<path fill="none" stroke="#191970" d="M336.5168,-168.4595C323.5468,-160.4484 306.5254,-147.7877 297,-132 279.3686,-102.7772 277.8726,-89.1479 286,-56 288.3743,-46.3164 293.1821,-36.4071 297.8753,-28.2776"/>
<polygon fill="#191970" stroke="#191970" points="300.9119,-30.0214 303.1792,-19.672 294.9528,-26.3486 300.9119,-30.0214"/>
</g>
<!-- Node8&#45;&gt;Node4 -->
<g id="edge17" class="edge">
<title>Node8&#45;&gt;Node4</title>
<path fill="none" stroke="#191970" d="M396.3896,-168.464C472.9339,-150.6096 630.3364,-110.7942 674,-76 689.2439,-63.8526 699.8101,-44.0035 706.0617,-29.2402"/>
<polygon fill="#191970" stroke="#191970" points="709.4608,-30.1595 709.8564,-19.572 702.9447,-27.6019 709.4608,-30.1595"/>
</g>
<!-- Node9 -->
<g id="node10" class="node">
<title>Node9</title>
<polygon fill="#ffffff" stroke="#bfbfbf" points="306.5,-112.5 306.5,-131.5 359.5,-131.5 359.5,-112.5 306.5,-112.5"/>
<text text-anchor="middle" x="333" y="-119.5" font-family="Helvetica,sans-Serif" font-size="10.00" fill="#000000">stdint.h</text>
</g>
<!-- Node8&#45;&gt;Node9 -->
<g id="edge11" class="edge">
<title>Node8&#45;&gt;Node9</title>
<path fill="none" stroke="#191970" d="M350.3421,-168.2455C347.5416,-160.7776 343.591,-150.2427 340.1676,-141.1137"/>
<polygon fill="#191970" stroke="#191970" points="343.4045,-139.777 336.616,-131.6427 336.8501,-142.2349 343.4045,-139.777"/>
</g>
<!-- Node10 -->
<g id="node11" class="node">
<title>Node10</title>
<g id="a_node11"><a xlink:href="align_8h.html" target="_top" xlink:title="ODP alignments. ">
<polygon fill="#ffffff" stroke="#000000" points="377.5,-112.5 377.5,-131.5 466.5,-131.5 466.5,-112.5 377.5,-112.5"/>
<text text-anchor="middle" x="422" y="-119.5" font-family="Helvetica,sans-Serif" font-size="10.00" fill="#000000">odp/api/align.h</text>
</a>
</g>
</g>
<!-- Node8&#45;&gt;Node10 -->
<g id="edge12" class="edge">
<title>Node8&#45;&gt;Node10</title>
<path fill="none" stroke="#191970" d="M365.8447,-168.2455C375.888,-159.9746 390.4995,-147.9416 402.3004,-138.2232"/>
<polygon fill="#191970" stroke="#191970" points="404.7967,-140.7015 410.291,-131.6427 400.3467,-135.298 404.7967,-140.7015"/>
</g>
<!-- Node11 -->
<g id="node12" class="node">
<title>Node11</title>
<polygon fill="#ffffff" stroke="#bfbfbf" points="427.5,-56.5 427.5,-75.5 534.5,-75.5 534.5,-56.5 427.5,-56.5"/>
<text text-anchor="middle" x="481" y="-63.5" font-family="Helvetica,sans-Serif" font-size="10.00" fill="#000000">odp/api/abi/align.h</text>
</g>
<!-- Node10&#45;&gt;Node11 -->
<g id="edge13" class="edge">
<title>Node10&#45;&gt;Node11</title>
<path fill="none" stroke="#191970" d="M432.277,-112.2455C440.8218,-104.1352 453.1778,-92.4075 463.3085,-82.7919"/>
<polygon fill="#191970" stroke="#191970" points="465.9972,-85.0655 470.8408,-75.6427 461.1782,-79.9884 465.9972,-85.0655"/>
</g>
<!-- Node12 -->
<g id="node13" class="node">
<title>Node12</title>
<g id="a_node13"><a xlink:href="spec_2align_8h.html" target="_top" xlink:title="ODP alignments. ">
<polygon fill="#ffffff" stroke="#000000" points="295,-56.5 295,-75.5 409,-75.5 409,-56.5 295,-56.5"/>
<text text-anchor="middle" x="352" y="-63.5" font-family="Helvetica,sans-Serif" font-size="10.00" fill="#000000">odp/api/spec/align.h</text>
</a>
</g>
</g>
<!-- Node10&#45;&gt;Node12 -->
<g id="edge14" class="edge">
<title>Node10&#45;&gt;Node12</title>
<path fill="none" stroke="#191970" d="M409.8069,-112.2455C399.3679,-103.8943 384.1345,-91.7076 371.926,-81.9408"/>
<polygon fill="#191970" stroke="#191970" points="374.0485,-79.1566 364.0533,-75.6427 369.6756,-84.6227 374.0485,-79.1566"/>
</g>
<!-- Node12&#45;&gt;Node1 -->
<g id="edge15" class="edge">
<title>Node12&#45;&gt;Node1</title>
<path fill="none" stroke="#191970" d="M344.6842,-56.2455C338.7821,-48.3761 330.3258,-37.101 323.2406,-27.6542"/>
<polygon fill="#191970" stroke="#191970" points="326.0321,-25.5427 317.232,-19.6427 320.432,-29.7427 326.0321,-25.5427"/>
</g>
<!-- Node12&#45;&gt;Node4 -->
<g id="edge16" class="edge">
<title>Node12&#45;&gt;Node4</title>
<path fill="none" stroke="#191970" d="M409.2015,-57.1266C473.781,-47.1088 578.696,-30.8339 646.774,-20.2733"/>
<polygon fill="#191970" stroke="#191970" points="647.6114,-23.6853 656.9566,-18.6937 646.5383,-16.7681 647.6114,-23.6853"/>
</g>
<!-- Node18&#45;&gt;Node1 -->
<g id="edge24" class="edge">
<title>Node18&#45;&gt;Node1</title>
<path fill="none" stroke="#191970" d="M476.2119,-336.4805C386.0378,-320.8184 229,-286.0682 229,-234 229,-234 229,-234 229,-122 229,-81.4297 264.3281,-45.5972 288.3218,-25.9394"/>
<polygon fill="#191970" stroke="#191970" points="290.5747,-28.6202 296.2595,-19.6795 286.24,-23.1237 290.5747,-28.6202"/>
</g>
<!-- Node18&#45;&gt;Node4 -->
<g id="edge31" class="edge">
<title>Node18&#45;&gt;Node4</title>
<path fill="none" stroke="#191970" d="M599.6494,-336.7553C656.4554,-324.3303 732,-296.1275 732,-234 732,-234 732,-234 732,-122 732,-89.2688 724.0148,-51.9052 718.3978,-29.6716"/>
<polygon fill="#191970" stroke="#191970" points="721.7289,-28.5763 715.8035,-19.7934 714.9585,-30.3545 721.7289,-28.5763"/>
</g>
<!-- Node19 -->
<g id="node20" class="node">
<title>Node19</title>
<g id="a_node20"><a xlink:href="time_8h.html" target="_top" xlink:title="ODP time. ">
<polygon fill="#ffffff" stroke="#000000" points="489.5,-280.5 489.5,-299.5 576.5,-299.5 576.5,-280.5 489.5,-280.5"/>
<text text-anchor="middle" x="533" y="-287.5" font-family="Helvetica,sans-Serif" font-size="10.00" fill="#000000">odp/api/time.h</text>
</a>
</g>
</g>
<!-- Node18&#45;&gt;Node19 -->
<g id="edge25" class="edge">
<title>Node18&#45;&gt;Node19</title>
<path fill="none" stroke="#191970" d="M537.1291,-336.2455C536.4766,-328.9382 535.562,-318.6944 534.7593,-309.7046"/>
<polygon fill="#191970" stroke="#191970" points="538.2365,-309.2918 533.861,-299.6427 531.2642,-309.9143 538.2365,-309.2918"/>
</g>
<!-- Node19&#45;&gt;Node6 -->
<g id="edge26" class="edge">
<title>Node19&#45;&gt;Node6</title>
<path fill="none" stroke="#191970" d="M507.2141,-280.3733C482.5953,-271.1822 445.31,-257.2624 418.0125,-247.0713"/>
<polygon fill="#191970" stroke="#191970" points="419.042,-243.7198 408.4494,-243.5011 416.5937,-250.2777 419.042,-243.7198"/>
</g>
<!-- Node20 -->
<g id="node21" class="node">
<title>Node20</title>
<polygon fill="#ffffff" stroke="#bfbfbf" points="475.5,-224.5 475.5,-243.5 580.5,-243.5 580.5,-224.5 475.5,-224.5"/>
<text text-anchor="middle" x="528" y="-231.5" font-family="Helvetica,sans-Serif" font-size="10.00" fill="#000000">odp/api/abi/time.h</text>
</g>
<!-- Node19&#45;&gt;Node20 -->
<g id="edge27" class="edge">
<title>Node19&#45;&gt;Node20</title>
<path fill="none" stroke="#191970" d="M532.1291,-280.2455C531.4766,-272.9382 530.562,-262.6944 529.7593,-253.7046"/>
<polygon fill="#191970" stroke="#191970" points="533.2365,-253.2918 528.861,-243.6427 526.2642,-253.9143 533.2365,-253.2918"/>
</g>
<!-- Node21 -->
<g id="node22" class="node">
<title>Node21</title>
<g id="a_node22"><a xlink:href="spec_2time_8h.html" target="_top" xlink:title="ODP time. ">
<polygon fill="#ffffff" stroke="#000000" points="552.5,-56.5 552.5,-75.5 665.5,-75.5 665.5,-56.5 552.5,-56.5"/>
<text text-anchor="middle" x="609" y="-63.5" font-family="Helvetica,sans-Serif" font-size="10.00" fill="#000000">odp/api/spec/time.h</text>
</a>
</g>
</g>
<!-- Node19&#45;&gt;Node21 -->
<g id="edge28" class="edge">
<title>Node19&#45;&gt;Node21</title>
<path fill="none" stroke="#191970" d="M550.8124,-280.4324C563.7156,-272.4859 580.3536,-259.9214 589,-244 617.0003,-192.4408 614.5916,-120.1958 611.3878,-85.7612"/>
<polygon fill="#191970" stroke="#191970" points="614.8473,-85.1932 610.3136,-75.6174 607.8862,-85.9305 614.8473,-85.1932"/>
</g>
<!-- Node21&#45;&gt;Node1 -->
<g id="edge29" class="edge">
<title>Node21&#45;&gt;Node1</title>
<path fill="none" stroke="#191970" d="M557.9398,-56.4369C506.1232,-46.7321 425.905,-31.708 370.8285,-21.3926"/>
<polygon fill="#191970" stroke="#191970" points="371.323,-17.9245 360.8496,-19.5237 370.0344,-24.8048 371.323,-17.9245"/>
</g>
<!-- Node21&#45;&gt;Node4 -->
<g id="edge30" class="edge">
<title>Node21&#45;&gt;Node4</title>
<path fill="none" stroke="#191970" d="M627.1154,-56.2455C643.445,-47.4527 667.671,-34.4079 686.2339,-24.4125"/>
<polygon fill="#191970" stroke="#191970" points="687.9468,-27.4654 695.0922,-19.6427 684.6281,-21.3021 687.9468,-27.4654"/>
</g>
</g>
</svg>
