<?xml version="1.0" encoding="UTF-8" standalone="no"?>
<!DOCTYPE svg PUBLIC "-//W3C//DTD SVG 1.1//EN"
 "http://www.w3.org/Graphics/SVG/1.1/DTD/svg11.dtd">
<!-- Generated by graphviz version 2.40.1 (20161225.0304)
 -->
<!-- Title: queue.h Pages: 1 -->
<svg width="1126pt" height="610pt"
 viewBox="0.00 0.00 1126.00 610.00" xmlns="http://www.w3.org/2000/svg" xmlns:xlink="http://www.w3.org/1999/xlink">
<g id="graph0" class="graph" transform="scale(1 1) rotate(0) translate(4 606)">
<title>queue.h</title>
<polygon fill="#ffffff" stroke="transparent" points="-4,4 -4,-606 1122,-606 1122,4 -4,4"/>
<!-- Node0 -->
<g id="node1" class="node">
<title>Node0</title>
<polygon fill="#bfbfbf" stroke="#000000" points="349,-582.5 349,-601.5 405,-601.5 405,-582.5 349,-582.5"/>
<text text-anchor="middle" x="377" y="-589.5" font-family="Helvetica,sans-Serif" font-size="10.00" fill="#000000">queue.h</text>
</g>
<!-- Node1 -->
<g id="node2" class="node">
<title>Node1</title>
<polygon fill="#ffffff" stroke="#bfbfbf" points="142.5,-.5 142.5,-19.5 263.5,-19.5 263.5,-.5 142.5,-.5"/>
<text text-anchor="middle" x="203" y="-7.5" font-family="Helvetica,sans-Serif" font-size="10.00" fill="#000000">odp/visibility_begin.h</text>
</g>
<!-- Node0&#45;&gt;Node1 -->
<g id="edge1" class="edge">
<title>Node0&#45;&gt;Node1</title>
<path fill="none" stroke="#191970" d="M348.9717,-589.7639C261.6011,-582.0318 0,-552.8021 0,-480 0,-480 0,-480 0,-122 0,-59.8834 73.7689,-31.9572 132.3678,-19.5727"/>
<polygon fill="#191970" stroke="#191970" points="133.2473,-22.9662 142.3683,-17.5757 131.8765,-16.1018 133.2473,-22.9662"/>
</g>
<!-- Node2 -->
<g id="node3" class="node">
<title>Node2</title>
<g id="a_node3"><a xlink:href="event_8h.html" target="_top" xlink:title="ODP event. ">
<polygon fill="#ffffff" stroke="#000000" points="633,-526.5 633,-545.5 725,-545.5 725,-526.5 633,-526.5"/>
<text text-anchor="middle" x="679" y="-533.5" font-family="Helvetica,sans-Serif" font-size="10.00" fill="#000000">odp/api/event.h</text>
</a>
</g>
</g>
<!-- Node0&#45;&gt;Node2 -->
<g id="edge2" class="edge">
<title>Node0&#45;&gt;Node2</title>
<path fill="none" stroke="#191970" d="M405.1402,-586.7819C454.6217,-577.6066 558.0819,-558.4219 622.7142,-546.4371"/>
<polygon fill="#191970" stroke="#191970" points="623.5454,-549.8427 632.7396,-544.5781 622.2691,-542.96 623.5454,-549.8427"/>
</g>
<!-- Node13 -->
<g id="node14" class="node">
<title>Node13</title>
<polygon fill="#ffffff" stroke="#bfbfbf" points="804,-.5 804,-19.5 916,-19.5 916,-.5 804,-.5"/>
<text text-anchor="middle" x="860" y="-7.5" font-family="Helvetica,sans-Serif" font-size="10.00" fill="#000000">odp/visibility_end.h</text>
</g>
<!-- Node0&#45;&gt;Node13 -->
<g id="edge49" class="edge">
<title>Node0&#45;&gt;Node13</title>
<path fill="none" stroke="#191970" d="M405.1432,-590.7748C540.4958,-584.5171 1118,-553.5105 1118,-480 1118,-480 1118,-480 1118,-122 1118,-84.6561 1097.6082,-75.887 1066,-56 1042.9558,-41.5013 977.2587,-28.3358 926.188,-19.8407"/>
<polygon fill="#191970" stroke="#191970" points="926.6196,-16.3649 916.1858,-18.205 925.4898,-23.2731 926.6196,-16.3649"/>
</g>
<!-- Node22 -->
<g id="node23" class="node">
<title>Node22</title>
<g id="a_node23"><a xlink:href="queue__types_8h.html" target="_top" xlink:title="ODP queue types. ">
<polygon fill="#ffffff" stroke="#000000" points="146.5,-291.5 146.5,-321.5 257.5,-321.5 257.5,-291.5 146.5,-291.5"/>
<text text-anchor="start" x="154.5" y="-309.5" font-family="Helvetica,sans-Serif" font-size="10.00" fill="#000000">odp/api/spec/queue</text>
<text text-anchor="middle" x="202" y="-298.5" font-family="Helvetica,sans-Serif" font-size="10.00" fill="#000000">_types.h</text>
</a>
</g>
</g>
<!-- Node0&#45;&gt;Node22 -->
<g id="edge33" class="edge">
<title>Node0&#45;&gt;Node22</title>
<path fill="none" stroke="#191970" d="M348.9529,-587.7362C274.2297,-575.5922 76,-537.9179 76,-480 76,-480 76,-480 76,-424 76,-378.3652 120.7539,-345.3903 156.917,-326.1942"/>
<polygon fill="#191970" stroke="#191970" points="158.5785,-329.2758 165.8935,-321.6114 155.3955,-323.0413 158.5785,-329.2758"/>
</g>
<!-- Node3 -->
<g id="node4" class="node">
<title>Node3</title>
<polygon fill="#ffffff" stroke="#bfbfbf" points="942,-358.5 942,-377.5 1052,-377.5 1052,-358.5 942,-358.5"/>
<text text-anchor="middle" x="997" y="-365.5" font-family="Helvetica,sans-Serif" font-size="10.00" fill="#000000">odp/api/abi/event.h</text>
</g>
<!-- Node2&#45;&gt;Node3 -->
<g id="edge3" class="edge">
<title>Node2&#45;&gt;Node3</title>
<path fill="none" stroke="#191970" d="M697.0082,-526.4862C750.1217,-498.4263 906.3742,-415.8778 969.7894,-382.3754"/>
<polygon fill="#191970" stroke="#191970" points="971.5882,-385.3836 978.7952,-377.6177 968.3183,-379.1942 971.5882,-385.3836"/>
</g>
<!-- Node4 -->
<g id="node5" class="node">
<title>Node4</title>
<g id="a_node5"><a xlink:href="spec_2event_8h.html" target="_top" xlink:title="ODP event. ">
<polygon fill="#ffffff" stroke="#000000" points="620,-470.5 620,-489.5 738,-489.5 738,-470.5 620,-470.5"/>
<text text-anchor="middle" x="679" y="-477.5" font-family="Helvetica,sans-Serif" font-size="10.00" fill="#000000">odp/api/spec/event.h</text>
</a>
</g>
</g>
<!-- Node2&#45;&gt;Node4 -->
<g id="edge4" class="edge">
<title>Node2&#45;&gt;Node4</title>
<path fill="none" stroke="#191970" d="M679,-526.2455C679,-518.9382 679,-508.6944 679,-499.7046"/>
<polygon fill="#191970" stroke="#191970" points="682.5001,-499.6426 679,-489.6427 675.5001,-499.6427 682.5001,-499.6426"/>
</g>
<!-- Node4&#45;&gt;Node1 -->
<g id="edge5" class="edge">
<title>Node4&#45;&gt;Node1</title>
<path fill="none" stroke="#191970" d="M619.8452,-476.6343C461.1602,-465.9999 38,-426.4008 38,-306.5 38,-306.5 38,-306.5 38,-122 38,-67.0984 101.3103,-37.2384 149.4978,-22.4624"/>
<polygon fill="#191970" stroke="#191970" points="150.6008,-25.7865 159.2162,-19.62 148.6358,-19.068 150.6008,-25.7865"/>
</g>
<!-- Node5 -->
<g id="node6" class="node">
<title>Node5</title>
<g id="a_node6"><a xlink:href="packet_8h.html" target="_top" xlink:title="ODP packet descriptor. ">
<polygon fill="#ffffff" stroke="#000000" points="630,-414.5 630,-433.5 728,-433.5 728,-414.5 630,-414.5"/>
<text text-anchor="middle" x="679" y="-421.5" font-family="Helvetica,sans-Serif" font-size="10.00" fill="#000000">odp/api/packet.h</text>
</a>
</g>
</g>
<!-- Node4&#45;&gt;Node5 -->
<g id="edge6" class="edge">
<title>Node4&#45;&gt;Node5</title>
<path fill="none" stroke="#191970" d="M679,-470.2455C679,-462.9382 679,-452.6944 679,-443.7046"/>
<polygon fill="#191970" stroke="#191970" points="682.5001,-443.6426 679,-433.6427 675.5001,-443.6427 682.5001,-443.6426"/>
</g>
<!-- Node4&#45;&gt;Node13 -->
<g id="edge32" class="edge">
<title>Node4&#45;&gt;Node13</title>
<path fill="none" stroke="#191970" d="M738.1755,-471.5424C833.6983,-456.7253 1015.7655,-423.2887 1061,-378 1084.2362,-354.736 1080,-339.3806 1080,-306.5 1080,-306.5 1080,-306.5 1080,-122 1080,-52.2292 991.0382,-25.9036 926.2566,-15.9827"/>
<polygon fill="#191970" stroke="#191970" points="926.4795,-12.4791 916.0845,-14.5272 925.4879,-19.4085 926.4795,-12.4791"/>
</g>
<!-- Node5&#45;&gt;Node3 -->
<g id="edge18" class="edge">
<title>Node5&#45;&gt;Node3</title>
<path fill="none" stroke="#191970" d="M728.3386,-415.3114C783.3372,-405.6262 872.4665,-389.9304 932.8425,-379.2982"/>
<polygon fill="#191970" stroke="#191970" points="933.7787,-382.6873 943.0201,-377.5059 932.5646,-375.7933 933.7787,-382.6873"/>
</g>
<!-- Node6 -->
<g id="node7" class="node">
<title>Node6</title>
<g id="a_node7"><a xlink:href="std__types_8h.html" target="_top" xlink:title="Standard C language types and definitions for ODP. ">
<polygon fill="#ffffff" stroke="#000000" points="858,-235.5 858,-254.5 970,-254.5 970,-235.5 858,-235.5"/>
<text text-anchor="middle" x="914" y="-242.5" font-family="Helvetica,sans-Serif" font-size="10.00" fill="#000000">odp/api/std_types.h</text>
</a>
</g>
</g>
<!-- Node5&#45;&gt;Node6 -->
<g id="edge7" class="edge">
<title>Node5&#45;&gt;Node6</title>
<path fill="none" stroke="#191970" d="M728.2189,-419.9765C784.8003,-414.2849 872.7514,-401.8137 895,-378 923.8177,-347.155 921.3862,-293.4525 917.486,-264.6255"/>
<polygon fill="#191970" stroke="#191970" points="920.918,-263.9168 915.9249,-254.5724 914.0009,-264.991 920.918,-263.9168"/>
</g>
<!-- Node14 -->
<g id="node15" class="node">
<title>Node14</title>
<polygon fill="#ffffff" stroke="#bfbfbf" points="614,-358.5 614,-377.5 744,-377.5 744,-358.5 614,-358.5"/>
<text text-anchor="middle" x="679" y="-365.5" font-family="Helvetica,sans-Serif" font-size="10.00" fill="#000000">odp/api/abi/packet_io.h</text>
</g>
<!-- Node5&#45;&gt;Node14 -->
<g id="edge19" class="edge">
<title>Node5&#45;&gt;Node14</title>
<path fill="none" stroke="#191970" d="M679,-414.2455C679,-406.9382 679,-396.6944 679,-387.7046"/>
<polygon fill="#191970" stroke="#191970" points="682.5001,-387.6426 679,-377.6427 675.5001,-387.6427 682.5001,-387.6426"/>
</g>
<!-- Node15 -->
<g id="node16" class="node">
<title>Node15</title>
<polygon fill="#ffffff" stroke="#bfbfbf" points="230,-358.5 230,-377.5 346,-377.5 346,-358.5 230,-358.5"/>
<text text-anchor="middle" x="288" y="-365.5" font-family="Helvetica,sans-Serif" font-size="10.00" fill="#000000">odp/api/abi/packet.h</text>
</g>
<!-- Node5&#45;&gt;Node15 -->
<g id="edge20" class="edge">
<title>Node5&#45;&gt;Node15</title>
<path fill="none" stroke="#191970" d="M629.8574,-417.134C568.3462,-408.5153 459.4763,-393.1795 356.0874,-378.1509"/>
<polygon fill="#191970" stroke="#191970" points="356.5007,-374.6742 346.1009,-376.6977 355.4927,-381.6013 356.5007,-374.6742"/>
</g>
<!-- Node16 -->
<g id="node17" class="node">
<title>Node16</title>
<polygon fill="#ffffff" stroke="#bfbfbf" points="364,-358.5 364,-377.5 474,-377.5 474,-358.5 364,-358.5"/>
<text text-anchor="middle" x="419" y="-365.5" font-family="Helvetica,sans-Serif" font-size="10.00" fill="#000000">odp/api/abi/buffer.h</text>
</g>
<!-- Node5&#45;&gt;Node16 -->
<g id="edge21" class="edge">
<title>Node5&#45;&gt;Node16</title>
<path fill="none" stroke="#191970" d="M634.5998,-414.4369C589.9159,-404.8127 520.943,-389.957 473.0912,-379.6504"/>
<polygon fill="#191970" stroke="#191970" points="473.7298,-376.2078 463.217,-377.5237 472.2559,-383.0508 473.7298,-376.2078"/>
</g>
<!-- Node17 -->
<g id="node18" class="node">
<title>Node17</title>
<polygon fill="#ffffff" stroke="#bfbfbf" points="492,-358.5 492,-377.5 596,-377.5 596,-358.5 492,-358.5"/>
<text text-anchor="middle" x="544" y="-365.5" font-family="Helvetica,sans-Serif" font-size="10.00" fill="#000000">odp/api/abi/pool.h</text>
</g>
<!-- Node5&#45;&gt;Node17 -->
<g id="edge22" class="edge">
<title>Node5&#45;&gt;Node17</title>
<path fill="none" stroke="#191970" d="M655.7927,-414.3733C633.8301,-405.2629 600.6668,-391.5062 576.1599,-381.3404"/>
<polygon fill="#191970" stroke="#191970" points="577.4824,-378.0999 566.9045,-377.5011 574.8003,-384.5657 577.4824,-378.0999"/>
</g>
<!-- Node18 -->
<g id="node19" class="node">
<title>Node18</title>
<g id="a_node19"><a xlink:href="spec_2packet_8h.html" target="_top" xlink:title="ODP packet descriptor. ">
<polygon fill="#ffffff" stroke="#000000" points="762.5,-358.5 762.5,-377.5 885.5,-377.5 885.5,-358.5 762.5,-358.5"/>
<text text-anchor="middle" x="824" y="-365.5" font-family="Helvetica,sans-Serif" font-size="10.00" fill="#000000">odp/api/spec/packet.h</text>
</a>
</g>
</g>
<!-- Node5&#45;&gt;Node18 -->
<g id="edge23" class="edge">
<title>Node5&#45;&gt;Node18</title>
<path fill="none" stroke="#191970" d="M703.9264,-414.3733C727.6202,-405.2226 763.4511,-391.3844 789.8068,-381.2057"/>
<polygon fill="#191970" stroke="#191970" points="791.3314,-384.3689 799.3989,-377.5011 788.8094,-377.8389 791.3314,-384.3689"/>
</g>
<!-- Node7 -->
<g id="node8" class="node">
<title>Node7</title>
<polygon fill="#ffffff" stroke="#bfbfbf" points="884,-174 884,-193 1014,-193 1014,-174 884,-174"/>
<text text-anchor="middle" x="949" y="-181" font-family="Helvetica,sans-Serif" font-size="10.00" fill="#000000">odp/api/abi/std_types.h</text>
</g>
<!-- Node6&#45;&gt;Node7 -->
<g id="edge8" class="edge">
<title>Node6&#45;&gt;Node7</title>
<path fill="none" stroke="#191970" d="M919.4688,-235.3906C924.5246,-226.5068 932.1772,-213.0601 938.4254,-202.0811"/>
<polygon fill="#191970" stroke="#191970" points="941.5498,-203.6672 943.4541,-193.2449 935.466,-200.2048 941.5498,-203.6672"/>
</g>
<!-- Node8 -->
<g id="node9" class="node">
<title>Node8</title>
<g id="a_node9"><a xlink:href="spec_2std__types_8h.html" target="_top" xlink:title="Standard C language types and definitions for ODP. ">
<polygon fill="#ffffff" stroke="#000000" points="690.5,-174 690.5,-193 827.5,-193 827.5,-174 690.5,-174"/>
<text text-anchor="middle" x="759" y="-181" font-family="Helvetica,sans-Serif" font-size="10.00" fill="#000000">odp/api/spec/std_types.h</text>
</a>
</g>
</g>
<!-- Node6&#45;&gt;Node8 -->
<g id="edge9" class="edge">
<title>Node6&#45;&gt;Node8</title>
<path fill="none" stroke="#191970" d="M889.7813,-235.3906C863.6194,-225.0103 821.7571,-208.4004 792.4612,-196.7766"/>
<polygon fill="#191970" stroke="#191970" points="793.6346,-193.4767 783.0487,-193.0419 791.0529,-199.9833 793.6346,-193.4767"/>
</g>
<!-- Node8&#45;&gt;Node1 -->
<g id="edge10" class="edge">
<title>Node8&#45;&gt;Node1</title>
<path fill="none" stroke="#191970" d="M690.1834,-180.5747C596.9155,-175.5057 436.3433,-162.5355 387,-132 352.1975,-110.4629 367.5064,-80.8676 335,-56 314.078,-39.9946 287.1672,-29.292 263.1074,-22.2729"/>
<polygon fill="#191970" stroke="#191970" points="263.9192,-18.8661 253.3482,-19.5772 262.0554,-25.6135 263.9192,-18.8661"/>
</g>
<!-- Node9 -->
<g id="node10" class="node">
<title>Node9</title>
<polygon fill="#ffffff" stroke="#bfbfbf" points="819.5,-112.5 819.5,-131.5 872.5,-131.5 872.5,-112.5 819.5,-112.5"/>
<text text-anchor="middle" x="846" y="-119.5" font-family="Helvetica,sans-Serif" font-size="10.00" fill="#000000">stdint.h</text>
</g>
<!-- Node8&#45;&gt;Node9 -->
<g id="edge11" class="edge">
<title>Node8&#45;&gt;Node9</title>
<path fill="none" stroke="#191970" d="M772.5938,-173.8906C786.3843,-164.1421 807.9472,-148.8994 824.141,-137.4521"/>
<polygon fill="#191970" stroke="#191970" points="826.3563,-140.1723 832.5017,-131.5419 822.3156,-134.4563 826.3563,-140.1723"/>
</g>
<!-- Node10 -->
<g id="node11" class="node">
<title>Node10</title>
<g id="a_node11"><a xlink:href="align_8h.html" target="_top" xlink:title="ODP alignments. ">
<polygon fill="#ffffff" stroke="#000000" points="712.5,-112.5 712.5,-131.5 801.5,-131.5 801.5,-112.5 712.5,-112.5"/>
<text text-anchor="middle" x="757" y="-119.5" font-family="Helvetica,sans-Serif" font-size="10.00" fill="#000000">odp/api/align.h</text>
</a>
</g>
</g>
<!-- Node8&#45;&gt;Node10 -->
<g id="edge12" class="edge">
<title>Node8&#45;&gt;Node10</title>
<path fill="none" stroke="#191970" d="M758.6875,-173.8906C758.4103,-165.3657 757.9964,-152.6392 757.6479,-141.9235"/>
<polygon fill="#191970" stroke="#191970" points="761.1402,-141.6258 757.3169,-131.7449 754.1439,-141.8534 761.1402,-141.6258"/>
</g>
<!-- Node8&#45;&gt;Node13 -->
<g id="edge17" class="edge">
<title>Node8&#45;&gt;Node13</title>
<path fill="none" stroke="#191970" d="M803.1518,-173.9021C850.0939,-160.9219 921.0705,-132.5648 947,-76 958.2012,-51.5649 930.3087,-33.9513 903.19,-23.0983"/>
<polygon fill="#191970" stroke="#191970" points="904.2878,-19.7721 893.6954,-19.5414 901.832,-26.3272 904.2878,-19.7721"/>
</g>
<!-- Node11 -->
<g id="node12" class="node">
<title>Node11</title>
<polygon fill="#ffffff" stroke="#bfbfbf" points="830.5,-56.5 830.5,-75.5 937.5,-75.5 937.5,-56.5 830.5,-56.5"/>
<text text-anchor="middle" x="884" y="-63.5" font-family="Helvetica,sans-Serif" font-size="10.00" fill="#000000">odp/api/abi/align.h</text>
</g>
<!-- Node10&#45;&gt;Node11 -->
<g id="edge13" class="edge">
<title>Node10&#45;&gt;Node11</title>
<path fill="none" stroke="#191970" d="M778.8321,-112.3733C799.3103,-103.3435 830.1399,-89.7494 853.1319,-79.6111"/>
<polygon fill="#191970" stroke="#191970" points="854.715,-82.7383 862.4528,-75.5011 851.8907,-76.3333 854.715,-82.7383"/>
</g>
<!-- Node12 -->
<g id="node13" class="node">
<title>Node12</title>
<g id="a_node13"><a xlink:href="spec_2align_8h.html" target="_top" xlink:title="ODP alignments. ">
<polygon fill="#ffffff" stroke="#000000" points="698,-56.5 698,-75.5 812,-75.5 812,-56.5 698,-56.5"/>
<text text-anchor="middle" x="755" y="-63.5" font-family="Helvetica,sans-Serif" font-size="10.00" fill="#000000">odp/api/spec/align.h</text>
</a>
</g>
</g>
<!-- Node10&#45;&gt;Node12 -->
<g id="edge14" class="edge">
<title>Node10&#45;&gt;Node12</title>
<path fill="none" stroke="#191970" d="M756.6516,-112.2455C756.3907,-104.9382 756.0248,-94.6944 755.7037,-85.7046"/>
<polygon fill="#191970" stroke="#191970" points="759.1992,-85.5113 755.3444,-75.6427 752.2036,-85.7613 759.1992,-85.5113"/>
</g>
<!-- Node12&#45;&gt;Node1 -->
<g id="edge15" class="edge">
<title>Node12&#45;&gt;Node1</title>
<path fill="none" stroke="#191970" d="M697.7895,-57.1313C694.819,-56.7336 691.8756,-56.3537 689,-56 541.6927,-37.8834 368.5019,-23.0274 273.7698,-15.4485"/>
<polygon fill="#191970" stroke="#191970" points="273.9783,-11.9541 263.732,-14.6492 273.4226,-18.932 273.9783,-11.9541"/>
</g>
<!-- Node12&#45;&gt;Node13 -->
<g id="edge16" class="edge">
<title>Node12&#45;&gt;Node13</title>
<path fill="none" stroke="#191970" d="M773.2896,-56.2455C789.7762,-47.4527 814.2352,-34.4079 832.9765,-24.4125"/>
<polygon fill="#191970" stroke="#191970" points="834.7435,-27.4368 841.92,-19.6427 831.4494,-21.2604 834.7435,-27.4368"/>
</g>
<!-- Node18&#45;&gt;Node1 -->
<g id="edge24" class="edge">
<title>Node18&#45;&gt;Node1</title>
<path fill="none" stroke="#191970" d="M762.4633,-359.0203C759.2657,-358.6516 756.0967,-358.3082 753,-358 684.8862,-351.221 198.851,-353.3465 138,-322 98.9408,-301.8792 76,-288.9371 76,-245 76,-245 76,-245 76,-122 76,-73.155 129.4979,-40.5347 167.0499,-23.6541"/>
<polygon fill="#191970" stroke="#191970" points="168.8848,-26.6747 176.6855,-19.5053 166.1166,-20.2454 168.8848,-26.6747"/>
</g>
<!-- Node18&#45;&gt;Node13 -->
<g id="edge31" class="edge">
<title>Node18&#45;&gt;Node13</title>
<path fill="none" stroke="#191970" d="M846.5349,-358.4968C892.2212,-337.6983 993.8875,-283.1736 1023,-199 1041.171,-146.4618 981.4038,-60.3378 977,-56 960.8246,-40.0672 938.4759,-29.4874 917.6418,-22.5411"/>
<polygon fill="#191970" stroke="#191970" points="918.4761,-19.1353 907.8878,-19.5074 916.3971,-25.8195 918.4761,-19.1353"/>
</g>
<!-- Node19 -->
<g id="node20" class="node">
<title>Node19</title>
<g id="a_node20"><a xlink:href="time_8h.html" target="_top" xlink:title="ODP time. ">
<polygon fill="#ffffff" stroke="#000000" points="751.5,-297 751.5,-316 838.5,-316 838.5,-297 751.5,-297"/>
<text text-anchor="middle" x="795" y="-304" font-family="Helvetica,sans-Serif" font-size="10.00" fill="#000000">odp/api/time.h</text>
</a>
</g>
</g>
<!-- Node18&#45;&gt;Node19 -->
<g id="edge25" class="edge">
<title>Node18&#45;&gt;Node19</title>
<path fill="none" stroke="#191970" d="M819.4688,-358.3906C815.3219,-349.5965 809.0668,-336.3312 803.919,-325.4145"/>
<polygon fill="#191970" stroke="#191970" points="807.0259,-323.7969 799.5951,-316.2449 800.6945,-326.7825 807.0259,-323.7969"/>
</g>
<!-- Node19&#45;&gt;Node6 -->
<g id="edge26" class="edge">
<title>Node19&#45;&gt;Node6</title>
<path fill="none" stroke="#191970" d="M813.5938,-296.8906C833.1553,-286.7811 864.1501,-270.7628 886.5309,-259.1962"/>
<polygon fill="#191970" stroke="#191970" points="888.26,-262.2425 895.5368,-254.5419 885.0461,-256.0238 888.26,-262.2425"/>
</g>
<!-- Node20 -->
<g id="node21" class="node">
<title>Node20</title>
<polygon fill="#ffffff" stroke="#bfbfbf" points="734.5,-235.5 734.5,-254.5 839.5,-254.5 839.5,-235.5 734.5,-235.5"/>
<text text-anchor="middle" x="787" y="-242.5" font-family="Helvetica,sans-Serif" font-size="10.00" fill="#000000">odp/api/abi/time.h</text>
</g>
<!-- Node19&#45;&gt;Node20 -->
<g id="edge27" class="edge">
<title>Node19&#45;&gt;Node20</title>
<path fill="none" stroke="#191970" d="M793.75,-296.8906C792.6411,-288.3657 790.9856,-275.6392 789.5917,-264.9235"/>
<polygon fill="#191970" stroke="#191970" points="793.0284,-264.2098 788.2676,-254.7449 786.0869,-265.1128 793.0284,-264.2098"/>
</g>
<!-- Node21 -->
<g id="node22" class="node">
<title>Node21</title>
<g id="a_node22"><a xlink:href="spec_2time_8h.html" target="_top" xlink:title="ODP time. ">
<polygon fill="#ffffff" stroke="#000000" points="566.5,-56.5 566.5,-75.5 679.5,-75.5 679.5,-56.5 566.5,-56.5"/>
<text text-anchor="middle" x="623" y="-63.5" font-family="Helvetica,sans-Serif" font-size="10.00" fill="#000000">odp/api/spec/time.h</text>
</a>
</g>
</g>
<!-- Node19&#45;&gt;Node21 -->
<g id="edge28" class="edge">
<title>Node19&#45;&gt;Node21</title>
<path fill="none" stroke="#191970" d="M779.8393,-296.8875C765.2272,-287.2441 742.906,-271.492 726,-255 703.3426,-232.8975 698.3211,-226.1201 682,-199 658.9899,-160.7651 639.6411,-111.9646 629.858,-85.3885"/>
<polygon fill="#191970" stroke="#191970" points="633.0665,-83.969 626.3745,-75.7551 626.4837,-86.3494 633.0665,-83.969"/>
</g>
<!-- Node21&#45;&gt;Node1 -->
<g id="edge29" class="edge">
<title>Node21&#45;&gt;Node1</title>
<path fill="none" stroke="#191970" d="M566.3569,-58.4476C490.5888,-48.3452 356.2573,-30.4343 273.8684,-19.4491"/>
<polygon fill="#191970" stroke="#191970" points="274.2133,-15.9642 263.8384,-18.1118 273.2881,-22.9028 274.2133,-15.9642"/>
</g>
<!-- Node21&#45;&gt;Node13 -->
<g id="edge30" class="edge">
<title>Node21&#45;&gt;Node13</title>
<path fill="none" stroke="#191970" d="M663.4725,-56.4369C703.948,-46.8731 766.2867,-32.1432 809.8703,-21.845"/>
<polygon fill="#191970" stroke="#191970" points="810.7673,-25.2295 819.6945,-19.5237 809.1576,-18.4171 810.7673,-25.2295"/>
</g>
<!-- Node22&#45;&gt;Node1 -->
<g id="edge34" class="edge">
<title>Node22&#45;&gt;Node1</title>
<path fill="none" stroke="#191970" d="M174.3088,-291.4347C160.3484,-282.5346 144.2502,-270.0576 134,-255 115.4315,-227.7227 114,-216.4976 114,-183.5 114,-183.5 114,-183.5 114,-122 114,-80.0503 152.7437,-44.7004 179.1057,-25.503"/>
<polygon fill="#191970" stroke="#191970" points="181.3144,-28.2292 187.4974,-19.6256 177.2987,-22.4956 181.3144,-28.2292"/>
</g>
<!-- Node22&#45;&gt;Node13 -->
<g id="edge48" class="edge">
<title>Node22&#45;&gt;Node13</title>
<path fill="none" stroke="#191970" d="M257.5963,-300.776C392.4145,-286.3106 733.2722,-246.0702 837,-199 856.8479,-189.9933 857.7676,-181.3456 875,-168 919.4935,-133.5422 945.4714,-129.7942 962,-76 964.6107,-67.5031 966.8234,-63.4664 962,-56 951.8164,-40.2361 934.7925,-29.819 917.5415,-22.9582"/>
<polygon fill="#191970" stroke="#191970" points="918.5705,-19.6086 907.9762,-19.5012 916.1912,-26.1919 918.5705,-19.6086"/>
</g>
<!-- Node23 -->
<g id="node24" class="node">
<title>Node23</title>
<g id="a_node24"><a xlink:href="schedule__types_8h.html" target="_top" xlink:title="ODP schedule. ">
<polygon fill="#ffffff" stroke="#000000" points="280,-235.5 280,-254.5 420,-254.5 420,-235.5 280,-235.5"/>
<text text-anchor="middle" x="350" y="-242.5" font-family="Helvetica,sans-Serif" font-size="10.00" fill="#000000">odp/api/schedule_types.h</text>
</a>
</g>
</g>
<!-- Node22&#45;&gt;Node23 -->
<g id="edge35" class="edge">
<title>Node22&#45;&gt;Node23</title>
<path fill="none" stroke="#191970" d="M238.2049,-291.4554C262.4658,-281.374 294.1356,-268.2139 317.5712,-258.4755"/>
<polygon fill="#191970" stroke="#191970" points="319.1739,-261.5997 327.0653,-254.5303 316.4877,-255.1356 319.1739,-261.5997"/>
</g>
<!-- Node28 -->
<g id="node29" class="node">
<title>Node28</title>
<g id="a_node29"><a xlink:href="deprecated_8h.html" target="_top" xlink:title="Control deprecated API definitions. ">
<polygon fill="#ffffff" stroke="#000000" points="142.5,-235.5 142.5,-254.5 261.5,-254.5 261.5,-235.5 142.5,-235.5"/>
<text text-anchor="middle" x="202" y="-242.5" font-family="Helvetica,sans-Serif" font-size="10.00" fill="#000000">odp/api/deprecated.h</text>
</a>
</g>
</g>
<!-- Node22&#45;&gt;Node28 -->
<g id="edge44" class="edge">
<title>Node22&#45;&gt;Node28</title>
<path fill="none" stroke="#191970" d="M202,-291.2977C202,-283.3834 202,-273.6043 202,-265.0759"/>
<polygon fill="#191970" stroke="#191970" points="205.5001,-264.8469 202,-254.8469 198.5001,-264.847 205.5001,-264.8469"/>
</g>
<!-- Node24 -->
<g id="node25" class="node">
<title>Node24</title>
<polygon fill="#ffffff" stroke="#bfbfbf" points="248.5,-168.5 248.5,-198.5 365.5,-198.5 365.5,-168.5 248.5,-168.5"/>
<text text-anchor="start" x="256.5" y="-186.5" font-family="Helvetica,sans-Serif" font-size="10.00" fill="#000000">odp/api/abi/schedule</text>
<text text-anchor="middle" x="307" y="-175.5" font-family="Helvetica,sans-Serif" font-size="10.00" fill="#000000">_types.h</text>
</g>
<!-- Node23&#45;&gt;Node24 -->
<g id="edge36" class="edge">
<title>Node23&#45;&gt;Node24</title>
<path fill="none" stroke="#191970" d="M343.2813,-235.3906C337.9467,-227.761 330.259,-216.7658 323.3321,-206.8588"/>
<polygon fill="#191970" stroke="#191970" points="326.1176,-204.7345 317.519,-198.5446 320.3808,-208.7456 326.1176,-204.7345"/>
</g>
<!-- Node25 -->
<g id="node26" class="node">
<title>Node25</title>
<g id="a_node26"><a xlink:href="spec_2schedule__types_8h.html" target="_top" xlink:title="ODP schedule types. ">
<polygon fill="#ffffff" stroke="#000000" points="383.5,-168.5 383.5,-198.5 508.5,-198.5 508.5,-168.5 383.5,-168.5"/>
<text text-anchor="start" x="391.5" y="-186.5" font-family="Helvetica,sans-Serif" font-size="10.00" fill="#000000">odp/api/spec/schedule</text>
<text text-anchor="middle" x="446" y="-175.5" font-family="Helvetica,sans-Serif" font-size="10.00" fill="#000000">_types.h</text>
</a>
</g>
</g>
<!-- Node23&#45;&gt;Node25 -->
<g id="edge37" class="edge">
<title>Node23&#45;&gt;Node25</title>
<path fill="none" stroke="#191970" d="M365,-235.3906C377.9924,-227.0673 397.2368,-214.7389 413.7078,-204.1872"/>
<polygon fill="#191970" stroke="#191970" points="415.9834,-206.886 422.5158,-198.5446 412.2074,-200.9918 415.9834,-206.886"/>
</g>
<!-- Node25&#45;&gt;Node1 -->
<g id="edge38" class="edge">
<title>Node25&#45;&gt;Node1</title>
<path fill="none" stroke="#191970" d="M386.1224,-168.4434C313.2775,-148.7736 196.9015,-112.5192 172,-76 161.5072,-60.6119 173.3139,-41.1121 185.2544,-27.3091"/>
<polygon fill="#191970" stroke="#191970" points="187.8845,-29.6205 192.1327,-19.9146 182.7591,-24.8528 187.8845,-29.6205"/>
</g>
<!-- Node25&#45;&gt;Node13 -->
<g id="edge43" class="edge">
<title>Node25&#45;&gt;Node13</title>
<path fill="none" stroke="#191970" d="M466.0815,-168.4542C478.3314,-158.7642 493.9056,-145.4936 506,-132 533.3167,-101.5228 523.3446,-77.7731 558,-56 596.1967,-32.002 716.9816,-19.5855 793.7285,-13.9553"/>
<polygon fill="#191970" stroke="#191970" points="794.0626,-17.4405 803.7881,-13.2376 793.5643,-10.4583 794.0626,-17.4405"/>
</g>
<!-- Node26 -->
<g id="node27" class="node">
<title>Node26</title>
<g id="a_node27"><a xlink:href="support_8h.html" target="_top" xlink:title="ODP support API &#45; platform specific header. ">
<polygon fill="#ffffff" stroke="#000000" points="395.5,-112.5 395.5,-131.5 496.5,-131.5 496.5,-112.5 395.5,-112.5"/>
<text text-anchor="middle" x="446" y="-119.5" font-family="Helvetica,sans-Serif" font-size="10.00" fill="#000000">odp/api/support.h</text>
</a>
</g>
</g>
<!-- Node25&#45;&gt;Node26 -->
<g id="edge39" class="edge">
<title>Node25&#45;&gt;Node26</title>
<path fill="none" stroke="#191970" d="M446,-168.2977C446,-160.3834 446,-150.6043 446,-142.0759"/>
<polygon fill="#191970" stroke="#191970" points="449.5001,-141.8469 446,-131.8469 442.5001,-141.847 449.5001,-141.8469"/>
</g>
<!-- Node27 -->
<g id="node28" class="node">
<title>Node27</title>
<g id="a_node28"><a xlink:href="spec_2support_8h.html" target="_top" xlink:title="ODP support API. ">
<polygon fill="#ffffff" stroke="#000000" points="382.5,-56.5 382.5,-75.5 509.5,-75.5 509.5,-56.5 382.5,-56.5"/>
<text text-anchor="middle" x="446" y="-63.5" font-family="Helvetica,sans-Serif" font-size="10.00" fill="#000000">odp/api/spec/support.h</text>
</a>
</g>
</g>
<!-- Node26&#45;&gt;Node27 -->
<g id="edge40" class="edge">
<title>Node26&#45;&gt;Node27</title>
<path fill="none" stroke="#191970" d="M446,-112.2455C446,-104.9382 446,-94.6944 446,-85.7046"/>
<polygon fill="#191970" stroke="#191970" points="449.5001,-85.6426 446,-75.6427 442.5001,-85.6427 449.5001,-85.6426"/>
</g>
<!-- Node27&#45;&gt;Node1 -->
<g id="edge41" class="edge">
<title>Node27&#45;&gt;Node1</title>
<path fill="none" stroke="#191970" d="M404.5029,-56.4369C362.9153,-46.8529 298.8166,-32.0812 254.1169,-21.78"/>
<polygon fill="#191970" stroke="#191970" points="254.8565,-18.3588 244.3259,-19.5237 253.2845,-25.18 254.8565,-18.3588"/>
</g>
<!-- Node27&#45;&gt;Node13 -->
<g id="edge42" class="edge">
<title>Node27&#45;&gt;Node13</title>
<path fill="none" stroke="#191970" d="M509.7802,-57.3727C586.7319,-46.9638 715.4772,-29.549 793.5879,-18.9833"/>
<polygon fill="#191970" stroke="#191970" points="794.3528,-22.4118 803.7934,-17.6028 793.4145,-15.4749 794.3528,-22.4118"/>
</g>
<!-- Node29 -->
<g id="node30" class="node">
<title>Node29</title>
<g id="a_node30"><a xlink:href="spec_2deprecated_8h.html" target="_top" xlink:title="Macro for deprecated API definitions. ">
<polygon fill="#ffffff" stroke="#000000" points="180.5,-56.5 180.5,-75.5 325.5,-75.5 325.5,-56.5 180.5,-56.5"/>
<text text-anchor="middle" x="253" y="-63.5" font-family="Helvetica,sans-Serif" font-size="10.00" fill="#000000">odp/api/spec/deprecated.h</text>
</a>
</g>
</g>
<!-- Node28&#45;&gt;Node29 -->
<g id="edge45" class="edge">
<title>Node28&#45;&gt;Node29</title>
<path fill="none" stroke="#191970" d="M204.742,-235.3762C212.8017,-207.0883 236.5322,-123.7987 247.4223,-85.5767"/>
<polygon fill="#191970" stroke="#191970" points="250.8703,-86.2477 250.2445,-75.6714 244.1382,-84.3296 250.8703,-86.2477"/>
</g>
<!-- Node29&#45;&gt;Node1 -->
<g id="edge46" class="edge">
<title>Node29&#45;&gt;Node1</title>
<path fill="none" stroke="#191970" d="M244.2907,-56.2455C237.1927,-48.2958 226.9916,-36.8706 218.505,-27.3656"/>
<polygon fill="#191970" stroke="#191970" points="220.8805,-24.771 211.6095,-19.6427 215.6589,-29.4331 220.8805,-24.771"/>
</g>
<!-- Node29&#45;&gt;Node13 -->
<g id="edge47" class="edge">
<title>Node29&#45;&gt;Node13</title>
<path fill="none" stroke="#191970" d="M325.6155,-59.3007C444.5933,-48.3242 679.2598,-26.6745 793.8728,-16.1007"/>
<polygon fill="#191970" stroke="#191970" points="794.2795,-19.5781 803.9157,-15.1742 793.6364,-12.6077 794.2795,-19.5781"/>
</g>
</g>
</svg>
