<?xml version="1.0" encoding="UTF-8" standalone="no"?>
<!DOCTYPE svg PUBLIC "-//W3C//DTD SVG 1.1//EN"
 "http://www.w3.org/Graphics/SVG/1.1/DTD/svg11.dtd">
<!-- Generated by graphviz version 2.40.1 (20161225.0304)
 -->
<!-- Title: traffic_mngr.h Pages: 1 -->
<svg width="1626pt" height="912pt"
 viewBox="0.00 0.00 1626.00 912.00" xmlns="http://www.w3.org/2000/svg" xmlns:xlink="http://www.w3.org/1999/xlink">
<g id="graph0" class="graph" transform="scale(1 1) rotate(0) translate(4 908)">
<title>traffic_mngr.h</title>
<polygon fill="#ffffff" stroke="transparent" points="-4,4 -4,-908 1622,-908 1622,4 -4,4"/>
<!-- Node0 -->
<g id="node1" class="node">
<title>Node0</title>
<polygon fill="#bfbfbf" stroke="#000000" points="71,-884.5 71,-903.5 155,-903.5 155,-884.5 71,-884.5"/>
<text text-anchor="middle" x="113" y="-891.5" font-family="Helvetica,sans-Serif" font-size="10.00" fill="#000000">traffic_mngr.h</text>
</g>
<!-- Node1 -->
<g id="node2" class="node">
<title>Node1</title>
<polygon fill="#ffffff" stroke="#bfbfbf" points="0,-817.5 0,-847.5 102,-847.5 102,-817.5 0,-817.5"/>
<text text-anchor="start" x="8" y="-835.5" font-family="Helvetica,sans-Serif" font-size="10.00" fill="#000000">odp/api/abi/traffic</text>
<text text-anchor="middle" x="51" y="-824.5" font-family="Helvetica,sans-Serif" font-size="10.00" fill="#000000">_mngr.h</text>
</g>
<!-- Node0&#45;&gt;Node1 -->
<g id="edge1" class="edge">
<title>Node0&#45;&gt;Node1</title>
<path fill="none" stroke="#191970" d="M103.3125,-884.3906C95.31,-876.4527 83.635,-864.8718 73.3437,-854.6635"/>
<polygon fill="#191970" stroke="#191970" points="75.7314,-852.1021 66.1669,-847.5446 70.8017,-857.0719 75.7314,-852.1021"/>
</g>
<!-- Node2 -->
<g id="node3" class="node">
<title>Node2</title>
<g id="a_node3"><a xlink:href="spec_2traffic__mngr_8h.html" target="_top" xlink:title="Copyright (c) 2015&#45;2018, Linaro Limited All rights reserved. ">
<polygon fill="#ffffff" stroke="#000000" points="120,-817.5 120,-847.5 230,-847.5 230,-817.5 120,-817.5"/>
<text text-anchor="start" x="128" y="-835.5" font-family="Helvetica,sans-Serif" font-size="10.00" fill="#000000">odp/api/spec/traffic</text>
<text text-anchor="middle" x="175" y="-824.5" font-family="Helvetica,sans-Serif" font-size="10.00" fill="#000000">_mngr.h</text>
</a>
</g>
</g>
<!-- Node0&#45;&gt;Node2 -->
<g id="edge2" class="edge">
<title>Node0&#45;&gt;Node2</title>
<path fill="none" stroke="#191970" d="M122.6875,-884.3906C130.69,-876.4527 142.365,-864.8718 152.6563,-854.6635"/>
<polygon fill="#191970" stroke="#191970" points="155.1983,-857.0719 159.8331,-847.5446 150.2686,-852.1021 155.1983,-857.0719"/>
</g>
<!-- Node3 -->
<g id="node4" class="node">
<title>Node3</title>
<polygon fill="#ffffff" stroke="#bfbfbf" points="556.5,-.5 556.5,-19.5 677.5,-19.5 677.5,-.5 556.5,-.5"/>
<text text-anchor="middle" x="617" y="-7.5" font-family="Helvetica,sans-Serif" font-size="10.00" fill="#000000">odp/visibility_begin.h</text>
</g>
<!-- Node2&#45;&gt;Node3 -->
<g id="edge3" class="edge">
<title>Node2&#45;&gt;Node3</title>
<path fill="none" stroke="#191970" d="M133.221,-817.39C92.604,-799.6949 37,-766.1329 37,-715 37,-715 37,-715 37,-133 37,-67.7499 100.1955,-76.9233 162,-56 231.2104,-32.5695 436.1105,-19.052 545.8016,-13.3051"/>
<polygon fill="#191970" stroke="#191970" points="546.3055,-16.7839 556.1119,-12.7732 545.9448,-9.7932 546.3055,-16.7839"/>
</g>
<!-- Node4 -->
<g id="node5" class="node">
<title>Node4</title>
<g id="a_node5"><a xlink:href="std__types_8h.html" target="_top" xlink:title="Standard C language types and definitions for ODP. ">
<polygon fill="#ffffff" stroke="#000000" points="394,-246.5 394,-265.5 506,-265.5 506,-246.5 394,-246.5"/>
<text text-anchor="middle" x="450" y="-253.5" font-family="Helvetica,sans-Serif" font-size="10.00" fill="#000000">odp/api/std_types.h</text>
</a>
</g>
</g>
<!-- Node2&#45;&gt;Node4 -->
<g id="edge4" class="edge">
<title>Node2&#45;&gt;Node4</title>
<path fill="none" stroke="#191970" d="M149.2475,-817.3903C119.6182,-797.8442 75,-760.8057 75,-715 75,-715 75,-715 75,-435 75,-356.5647 122.7255,-340.6096 191,-302 223.1683,-283.8086 318.1779,-270.2334 383.7162,-262.7083"/>
<polygon fill="#191970" stroke="#191970" points="384.4225,-266.1509 393.9675,-261.5527 383.6384,-259.195 384.4225,-266.1509"/>
</g>
<!-- Node11 -->
<g id="node12" class="node">
<title>Node11</title>
<polygon fill="#ffffff" stroke="#bfbfbf" points="1334,-.5 1334,-19.5 1446,-19.5 1446,-.5 1334,-.5"/>
<text text-anchor="middle" x="1390" y="-7.5" font-family="Helvetica,sans-Serif" font-size="10.00" fill="#000000">odp/visibility_end.h</text>
</g>
<!-- Node2&#45;&gt;Node11 -->
<g id="edge78" class="edge">
<title>Node2&#45;&gt;Node11</title>
<path fill="none" stroke="#191970" d="M230.2434,-830.9498C494.6302,-823.1755 1618,-785.9671 1618,-715 1618,-715 1618,-715 1618,-133 1618,-58.8838 1523.5245,-29.2197 1456.2036,-17.4901"/>
<polygon fill="#191970" stroke="#191970" points="1456.5027,-13.9923 1446.0671,-15.8219 1455.366,-20.8994 1456.5027,-13.9923"/>
</g>
<!-- Node12 -->
<g id="node13" class="node">
<title>Node12</title>
<g id="a_node13"><a xlink:href="packet__io_8h.html" target="_top" xlink:title="ODP Packet IO. ">
<polygon fill="#ffffff" stroke="#000000" points="269,-761.5 269,-780.5 381,-780.5 381,-761.5 269,-761.5"/>
<text text-anchor="middle" x="325" y="-768.5" font-family="Helvetica,sans-Serif" font-size="10.00" fill="#000000">odp/api/packet_io.h</text>
</a>
</g>
</g>
<!-- Node2&#45;&gt;Node12 -->
<g id="edge15" class="edge">
<title>Node2&#45;&gt;Node12</title>
<path fill="none" stroke="#191970" d="M211.6941,-817.4554C236.3927,-807.329 268.6674,-794.0964 292.4506,-784.3453"/>
<polygon fill="#191970" stroke="#191970" points="293.8306,-787.5623 301.7553,-780.5303 291.175,-781.0855 293.8306,-787.5623"/>
</g>
<!-- Node5 -->
<g id="node6" class="node">
<title>Node5</title>
<polygon fill="#ffffff" stroke="#bfbfbf" points="195,-185 195,-204 325,-204 325,-185 195,-185"/>
<text text-anchor="middle" x="260" y="-192" font-family="Helvetica,sans-Serif" font-size="10.00" fill="#000000">odp/api/abi/std_types.h</text>
</g>
<!-- Node4&#45;&gt;Node5 -->
<g id="edge5" class="edge">
<title>Node4&#45;&gt;Node5</title>
<path fill="none" stroke="#191970" d="M420.3125,-246.3906C387.6854,-235.8298 335.1374,-218.8208 299.1575,-207.1747"/>
<polygon fill="#191970" stroke="#191970" points="300.0709,-203.7916 289.479,-204.0419 297.9152,-210.4514 300.0709,-203.7916"/>
</g>
<!-- Node6 -->
<g id="node7" class="node">
<title>Node6</title>
<g id="a_node7"><a xlink:href="spec_2std__types_8h.html" target="_top" xlink:title="Standard C language types and definitions for ODP. ">
<polygon fill="#ffffff" stroke="#000000" points="381.5,-185 381.5,-204 518.5,-204 518.5,-185 381.5,-185"/>
<text text-anchor="middle" x="450" y="-192" font-family="Helvetica,sans-Serif" font-size="10.00" fill="#000000">odp/api/spec/std_types.h</text>
</a>
</g>
</g>
<!-- Node4&#45;&gt;Node6 -->
<g id="edge6" class="edge">
<title>Node4&#45;&gt;Node6</title>
<path fill="none" stroke="#191970" d="M450,-246.3906C450,-237.8657 450,-225.1392 450,-214.4235"/>
<polygon fill="#191970" stroke="#191970" points="453.5001,-214.2448 450,-204.2449 446.5001,-214.2449 453.5001,-214.2448"/>
</g>
<!-- Node6&#45;&gt;Node3 -->
<g id="edge7" class="edge">
<title>Node6&#45;&gt;Node3</title>
<path fill="none" stroke="#191970" d="M434.4466,-184.9957C398.5446,-161.916 315.7929,-101.4697 354,-56 378.1585,-27.2493 477.0949,-16.4654 546.4722,-12.4223"/>
<polygon fill="#191970" stroke="#191970" points="546.6879,-15.9158 556.4812,-11.8734 546.3045,-8.9263 546.6879,-15.9158"/>
</g>
<!-- Node7 -->
<g id="node8" class="node">
<title>Node7</title>
<polygon fill="#ffffff" stroke="#bfbfbf" points="390.5,-123.5 390.5,-142.5 443.5,-142.5 443.5,-123.5 390.5,-123.5"/>
<text text-anchor="middle" x="417" y="-130.5" font-family="Helvetica,sans-Serif" font-size="10.00" fill="#000000">stdint.h</text>
</g>
<!-- Node6&#45;&gt;Node7 -->
<g id="edge8" class="edge">
<title>Node6&#45;&gt;Node7</title>
<path fill="none" stroke="#191970" d="M444.8438,-184.8906C440.0768,-176.0068 432.8615,-162.5601 426.9703,-151.5811"/>
<polygon fill="#191970" stroke="#191970" points="430.0412,-149.9016 422.2289,-142.7449 423.8731,-153.2114 430.0412,-149.9016"/>
</g>
<!-- Node8 -->
<g id="node9" class="node">
<title>Node8</title>
<g id="a_node9"><a xlink:href="align_8h.html" target="_top" xlink:title="ODP alignments. ">
<polygon fill="#ffffff" stroke="#000000" points="500.5,-123.5 500.5,-142.5 589.5,-142.5 589.5,-123.5 500.5,-123.5"/>
<text text-anchor="middle" x="545" y="-130.5" font-family="Helvetica,sans-Serif" font-size="10.00" fill="#000000">odp/api/align.h</text>
</a>
</g>
</g>
<!-- Node6&#45;&gt;Node8 -->
<g id="edge9" class="edge">
<title>Node6&#45;&gt;Node8</title>
<path fill="none" stroke="#191970" d="M464.8438,-184.8906C480.0418,-175.0519 503.8848,-159.6167 521.6206,-148.1351"/>
<polygon fill="#191970" stroke="#191970" points="523.768,-150.9144 530.2605,-142.5419 519.9639,-145.0382 523.768,-150.9144"/>
</g>
<!-- Node6&#45;&gt;Node11 -->
<g id="edge14" class="edge">
<title>Node6&#45;&gt;Node11</title>
<path fill="none" stroke="#191970" d="M518.543,-189.0888C677.5605,-175.8037 1067.1332,-138.8448 1187,-87 1207.3226,-78.2101 1206.2843,-66.0778 1226,-56 1257.1246,-40.0904 1294.4722,-29.0656 1325.6599,-21.8065"/>
<polygon fill="#191970" stroke="#191970" points="1326.5658,-25.1903 1335.5536,-19.5806 1325.0292,-18.361 1326.5658,-25.1903"/>
</g>
<!-- Node9 -->
<g id="node10" class="node">
<title>Node9</title>
<polygon fill="#ffffff" stroke="#bfbfbf" points="396.5,-62 396.5,-81 503.5,-81 503.5,-62 396.5,-62"/>
<text text-anchor="middle" x="450" y="-69" font-family="Helvetica,sans-Serif" font-size="10.00" fill="#000000">odp/api/abi/align.h</text>
</g>
<!-- Node8&#45;&gt;Node9 -->
<g id="edge10" class="edge">
<title>Node8&#45;&gt;Node9</title>
<path fill="none" stroke="#191970" d="M530.1563,-123.3906C514.9582,-113.5519 491.1152,-98.1167 473.3794,-86.6351"/>
<polygon fill="#191970" stroke="#191970" points="475.0361,-83.5382 464.7395,-81.0419 471.232,-89.4144 475.0361,-83.5382"/>
</g>
<!-- Node10 -->
<g id="node11" class="node">
<title>Node10</title>
<g id="a_node11"><a xlink:href="spec_2align_8h.html" target="_top" xlink:title="ODP alignments. ">
<polygon fill="#ffffff" stroke="#000000" points="560,-62 560,-81 674,-81 674,-62 560,-62"/>
<text text-anchor="middle" x="617" y="-69" font-family="Helvetica,sans-Serif" font-size="10.00" fill="#000000">odp/api/spec/align.h</text>
</a>
</g>
</g>
<!-- Node8&#45;&gt;Node10 -->
<g id="edge11" class="edge">
<title>Node8&#45;&gt;Node10</title>
<path fill="none" stroke="#191970" d="M556.25,-123.3906C567.386,-113.8786 584.646,-99.1357 597.9268,-87.7917"/>
<polygon fill="#191970" stroke="#191970" points="600.2608,-90.4011 605.5914,-81.2449 595.7144,-85.0784 600.2608,-90.4011"/>
</g>
<!-- Node10&#45;&gt;Node3 -->
<g id="edge12" class="edge">
<title>Node10&#45;&gt;Node3</title>
<path fill="none" stroke="#191970" d="M617,-61.8906C617,-53.3657 617,-40.6392 617,-29.9235"/>
<polygon fill="#191970" stroke="#191970" points="620.5001,-29.7448 617,-19.7449 613.5001,-29.7449 620.5001,-29.7448"/>
</g>
<!-- Node10&#45;&gt;Node11 -->
<g id="edge13" class="edge">
<title>Node10&#45;&gt;Node11</title>
<path fill="none" stroke="#191970" d="M652.7578,-61.964C662.5041,-59.6773 673.1045,-57.4735 683,-56 805.4964,-37.7595 1172.742,-19.7525 1323.8948,-12.8981"/>
<polygon fill="#191970" stroke="#191970" points="1324.1342,-16.3909 1333.9661,-12.4434 1323.8184,-9.3981 1324.1342,-16.3909"/>
</g>
<!-- Node12&#45;&gt;Node4 -->
<g id="edge16" class="edge">
<title>Node12&#45;&gt;Node4</title>
<path fill="none" stroke="#191970" d="M276.0683,-761.4369C224.6034,-748.2011 151,-718.8157 151,-659 151,-659 151,-659 151,-379 151,-327.572 304.1982,-286.7469 391.2763,-267.6957"/>
<polygon fill="#191970" stroke="#191970" points="392.2572,-271.0648 401.295,-265.5359 390.782,-264.222 392.2572,-271.0648"/>
</g>
<!-- Node13 -->
<g id="node14" class="node">
<title>Node13</title>
<polygon fill="#ffffff" stroke="#bfbfbf" points="1334,-369.5 1334,-388.5 1438,-388.5 1438,-369.5 1334,-369.5"/>
<text text-anchor="middle" x="1386" y="-376.5" font-family="Helvetica,sans-Serif" font-size="10.00" fill="#000000">odp/api/abi/pool.h</text>
</g>
<!-- Node12&#45;&gt;Node13 -->
<g id="edge17" class="edge">
<title>Node12&#45;&gt;Node13</title>
<path fill="none" stroke="#191970" d="M381.2577,-768.8125C620.6045,-759.1421 1542,-718.0782 1542,-659 1542,-659 1542,-659 1542,-603 1542,-510.1162 1450.5584,-428.1578 1407.6931,-394.8407"/>
<polygon fill="#191970" stroke="#191970" points="1409.6484,-391.9305 1399.5711,-388.6597 1405.4092,-397.5009 1409.6484,-391.9305"/>
</g>
<!-- Node14 -->
<g id="node15" class="node">
<title>Node14</title>
<polygon fill="#ffffff" stroke="#bfbfbf" points="302,-705.5 302,-724.5 448,-724.5 448,-705.5 302,-705.5"/>
<text text-anchor="middle" x="375" y="-712.5" font-family="Helvetica,sans-Serif" font-size="10.00" fill="#000000">odp/api/abi/classification.h</text>
</g>
<!-- Node12&#45;&gt;Node14 -->
<g id="edge18" class="edge">
<title>Node12&#45;&gt;Node14</title>
<path fill="none" stroke="#191970" d="M333.7093,-761.2455C340.8073,-753.2958 351.0084,-741.8706 359.495,-732.3656"/>
<polygon fill="#191970" stroke="#191970" points="362.3411,-734.4331 366.3905,-724.6427 357.1195,-729.771 362.3411,-734.4331"/>
</g>
<!-- Node15 -->
<g id="node16" class="node">
<title>Node15</title>
<polygon fill="#ffffff" stroke="#bfbfbf" points="179,-369.5 179,-388.5 295,-388.5 295,-369.5 179,-369.5"/>
<text text-anchor="middle" x="237" y="-376.5" font-family="Helvetica,sans-Serif" font-size="10.00" fill="#000000">odp/api/abi/packet.h</text>
</g>
<!-- Node12&#45;&gt;Node15 -->
<g id="edge19" class="edge">
<title>Node12&#45;&gt;Node15</title>
<path fill="none" stroke="#191970" d="M309.4974,-761.3744C283.9983,-744.2074 236,-705.6919 236,-659 236,-659 236,-659 236,-491 236,-458.7103 236.4207,-421.1863 236.7164,-398.8043"/>
<polygon fill="#191970" stroke="#191970" points="240.219,-398.6353 236.8567,-388.5881 233.2196,-398.5391 240.219,-398.6353"/>
</g>
<!-- Node16 -->
<g id="node17" class="node">
<title>Node16</title>
<polygon fill="#ffffff" stroke="#bfbfbf" points="313,-369.5 313,-388.5 443,-388.5 443,-369.5 313,-369.5"/>
<text text-anchor="middle" x="378" y="-376.5" font-family="Helvetica,sans-Serif" font-size="10.00" fill="#000000">odp/api/abi/packet_io.h</text>
</g>
<!-- Node12&#45;&gt;Node16 -->
<g id="edge20" class="edge">
<title>Node12&#45;&gt;Node16</title>
<path fill="none" stroke="#191970" d="M316.8732,-761.3546C309.7089,-752.4271 299.4362,-738.5288 293,-725 279.8866,-697.4357 274,-689.5246 274,-659 274,-659 274,-659 274,-491 274,-446.5129 318.606,-412.2585 349.3924,-393.9145"/>
<polygon fill="#191970" stroke="#191970" points="351.4969,-396.7428 358.4384,-388.7386 348.0205,-390.667 351.4969,-396.7428"/>
</g>
<!-- Node17 -->
<g id="node18" class="node">
<title>Node17</title>
<polygon fill="#ffffff" stroke="#bfbfbf" points="430.5,-593.5 430.5,-612.5 543.5,-612.5 543.5,-593.5 430.5,-593.5"/>
<text text-anchor="middle" x="487" y="-600.5" font-family="Helvetica,sans-Serif" font-size="10.00" fill="#000000">odp/api/abi/queue.h</text>
</g>
<!-- Node12&#45;&gt;Node17 -->
<g id="edge21" class="edge">
<title>Node12&#45;&gt;Node17</title>
<path fill="none" stroke="#191970" d="M381.25,-763.9299C407.6743,-757.8011 437.5634,-746.3596 457,-725 482.8306,-696.6137 487.3254,-649.6114 487.6111,-622.9955"/>
<polygon fill="#191970" stroke="#191970" points="491.1078,-622.6128 487.5168,-612.6451 484.1081,-622.6766 491.1078,-622.6128"/>
</g>
<!-- Node18 -->
<g id="node19" class="node">
<title>Node18</title>
<g id="a_node19"><a xlink:href="spec_2packet__io_8h.html" target="_top" xlink:title="ODP Packet IO. ">
<polygon fill="#ffffff" stroke="#000000" points="621.5,-705.5 621.5,-724.5 758.5,-724.5 758.5,-705.5 621.5,-705.5"/>
<text text-anchor="middle" x="690" y="-712.5" font-family="Helvetica,sans-Serif" font-size="10.00" fill="#000000">odp/api/spec/packet_io.h</text>
</a>
</g>
</g>
<!-- Node12&#45;&gt;Node18 -->
<g id="edge22" class="edge">
<title>Node12&#45;&gt;Node18</title>
<path fill="none" stroke="#191970" d="M381.2313,-762.3727C444.7957,-752.6204 548.4445,-736.7181 617.9063,-726.061"/>
<polygon fill="#191970" stroke="#191970" points="618.5443,-729.5041 627.8978,-724.528 617.4827,-722.5851 618.5443,-729.5041"/>
</g>
<!-- Node18&#45;&gt;Node3 -->
<g id="edge23" class="edge">
<title>Node18&#45;&gt;Node3</title>
<path fill="none" stroke="#191970" d="M647.7286,-705.4929C508.7826,-671.5014 75,-542.4435 75,-256 75,-256 75,-256 75,-133 75,-85.238 399.221,-37.7793 546.1386,-18.7256"/>
<polygon fill="#191970" stroke="#191970" points="546.9326,-22.1524 556.4034,-17.4033 546.0381,-15.2097 546.9326,-22.1524"/>
</g>
<!-- Node18&#45;&gt;Node11 -->
<g id="edge77" class="edge">
<title>Node18&#45;&gt;Node11</title>
<path fill="none" stroke="#191970" d="M758.767,-712.7847C902.2803,-707.726 1229.3519,-693.8055 1338,-669 1403.7367,-653.9916 1432.4964,-661.826 1479,-613 1574.7221,-512.4976 1580,-456.2929 1580,-317.5 1580,-317.5 1580,-317.5 1580,-133 1580,-69.7971 1504.9973,-37.4596 1449.2391,-22.1519"/>
<polygon fill="#191970" stroke="#191970" points="1449.9852,-18.7293 1439.4243,-19.5758 1448.2081,-25.4999 1449.9852,-18.7293"/>
</g>
<!-- Node19 -->
<g id="node20" class="node">
<title>Node19</title>
<g id="a_node20"><a xlink:href="deprecated_8h.html" target="_top" xlink:title="Control deprecated API definitions. ">
<polygon fill="#ffffff" stroke="#000000" points="1045.5,-246.5 1045.5,-265.5 1164.5,-265.5 1164.5,-246.5 1045.5,-246.5"/>
<text text-anchor="middle" x="1105" y="-253.5" font-family="Helvetica,sans-Serif" font-size="10.00" fill="#000000">odp/api/deprecated.h</text>
</a>
</g>
</g>
<!-- Node18&#45;&gt;Node19 -->
<g id="edge24" class="edge">
<title>Node18&#45;&gt;Node19</title>
<path fill="none" stroke="#191970" d="M758.5244,-712.2678C948.1623,-703.8006 1466,-674.1643 1466,-603 1466,-603 1466,-603 1466,-379 1466,-346.6333 1255.392,-291.9521 1155.9039,-267.9271"/>
<polygon fill="#191970" stroke="#191970" points="1156.6007,-264.495 1146.0598,-265.5624 1154.9657,-271.3013 1156.6007,-264.495"/>
</g>
<!-- Node21 -->
<g id="node22" class="node">
<title>Node21</title>
<g id="a_node22"><a xlink:href="packet__io__stats_8h.html" target="_top" xlink:title="ODP packet IO stats. ">
<polygon fill="#ffffff" stroke="#000000" points="822.5,-649.5 822.5,-668.5 963.5,-668.5 963.5,-649.5 822.5,-649.5"/>
<text text-anchor="middle" x="893" y="-656.5" font-family="Helvetica,sans-Serif" font-size="10.00" fill="#000000">odp/api/packet_io_stats.h</text>
</a>
</g>
</g>
<!-- Node18&#45;&gt;Node21 -->
<g id="edge28" class="edge">
<title>Node18&#45;&gt;Node21</title>
<path fill="none" stroke="#191970" d="M724.8969,-705.3733C759.0911,-695.9404 811.3415,-681.5265 848.5042,-671.2747"/>
<polygon fill="#191970" stroke="#191970" points="849.8493,-674.5345 858.5584,-668.5011 847.9877,-667.7865 849.8493,-674.5345"/>
</g>
<!-- Node23 -->
<g id="node24" class="node">
<title>Node23</title>
<g id="a_node24"><a xlink:href="queue_8h.html" target="_top" xlink:title="ODP queue. ">
<polygon fill="#ffffff" stroke="#000000" points="709.5,-649.5 709.5,-668.5 804.5,-668.5 804.5,-649.5 709.5,-649.5"/>
<text text-anchor="middle" x="757" y="-656.5" font-family="Helvetica,sans-Serif" font-size="10.00" fill="#000000">odp/api/queue.h</text>
</a>
</g>
</g>
<!-- Node18&#45;&gt;Node23 -->
<g id="edge32" class="edge">
<title>Node18&#45;&gt;Node23</title>
<path fill="none" stroke="#191970" d="M701.6705,-705.2455C711.5661,-696.9746 725.9627,-684.9416 737.5901,-675.2232"/>
<polygon fill="#191970" stroke="#191970" points="740.035,-677.7413 745.4632,-668.6427 735.5458,-672.3703 740.035,-677.7413"/>
</g>
<!-- Node29 -->
<g id="node30" class="node">
<title>Node29</title>
<g id="a_node30"><a xlink:href="packet_8h.html" target="_top" xlink:title="ODP packet descriptor. ">
<polygon fill="#ffffff" stroke="#000000" points="645,-425.5 645,-444.5 743,-444.5 743,-425.5 645,-425.5"/>
<text text-anchor="middle" x="694" y="-432.5" font-family="Helvetica,sans-Serif" font-size="10.00" fill="#000000">odp/api/packet.h</text>
</a>
</g>
</g>
<!-- Node18&#45;&gt;Node29 -->
<g id="edge76" class="edge">
<title>Node18&#45;&gt;Node29</title>
<path fill="none" stroke="#191970" d="M690.1377,-705.3618C690.7123,-665.1418 692.9255,-510.2159 693.7167,-454.8288"/>
<polygon fill="#191970" stroke="#191970" points="697.2196,-454.6467 693.8629,-444.5977 690.2203,-454.5466 697.2196,-454.6467"/>
</g>
<!-- Node31 -->
<g id="node32" class="node">
<title>Node31</title>
<g id="a_node32"><a xlink:href="time_8h.html" target="_top" xlink:title="ODP time. ">
<polygon fill="#ffffff" stroke="#000000" points="623.5,-308 623.5,-327 710.5,-327 710.5,-308 623.5,-308"/>
<text text-anchor="middle" x="667" y="-315" font-family="Helvetica,sans-Serif" font-size="10.00" fill="#000000">odp/api/time.h</text>
</a>
</g>
</g>
<!-- Node18&#45;&gt;Node31 -->
<g id="edge75" class="edge">
<title>Node18&#45;&gt;Node31</title>
<path fill="none" stroke="#191970" d="M668.8605,-705.4901C636.6548,-689.3882 579,-653.5089 579,-603 579,-603 579,-603 579,-491 579,-435.6511 575.3625,-416.3645 604,-369 612.9676,-354.1683 627.8095,-341.7242 640.8356,-332.7859"/>
<polygon fill="#191970" stroke="#191970" points="642.9938,-335.5574 649.4691,-327.1715 639.1777,-329.6891 642.9938,-335.5574"/>
</g>
<!-- Node20 -->
<g id="node21" class="node">
<title>Node20</title>
<g id="a_node21"><a xlink:href="spec_2deprecated_8h.html" target="_top" xlink:title="Macro for deprecated API definitions. ">
<polygon fill="#ffffff" stroke="#000000" points="1032.5,-62 1032.5,-81 1177.5,-81 1177.5,-62 1032.5,-62"/>
<text text-anchor="middle" x="1105" y="-69" font-family="Helvetica,sans-Serif" font-size="10.00" fill="#000000">odp/api/spec/deprecated.h</text>
</a>
</g>
</g>
<!-- Node19&#45;&gt;Node20 -->
<g id="edge25" class="edge">
<title>Node19&#45;&gt;Node20</title>
<path fill="none" stroke="#191970" d="M1105,-246.3402C1105,-217.3223 1105,-130.5088 1105,-91.2113"/>
<polygon fill="#191970" stroke="#191970" points="1108.5001,-91.0641 1105,-81.0641 1101.5001,-91.0642 1108.5001,-91.0641"/>
</g>
<!-- Node20&#45;&gt;Node3 -->
<g id="edge26" class="edge">
<title>Node20&#45;&gt;Node3</title>
<path fill="none" stroke="#191970" d="M1054.4817,-61.9523C1042.5426,-59.8478 1029.8407,-57.7322 1018,-56 902.6352,-39.1229 767.8405,-24.7527 687.6045,-16.7599"/>
<polygon fill="#191970" stroke="#191970" points="687.9111,-13.2732 677.6146,-15.7697 687.2206,-20.2391 687.9111,-13.2732"/>
</g>
<!-- Node20&#45;&gt;Node11 -->
<g id="edge27" class="edge">
<title>Node20&#45;&gt;Node11</title>
<path fill="none" stroke="#191970" d="M1149.2185,-61.9581C1199.4527,-51.1181 1281.4573,-33.4224 1335.5772,-21.7439"/>
<polygon fill="#191970" stroke="#191970" points="1336.641,-25.095 1345.6777,-19.5643 1335.1644,-18.2524 1336.641,-25.095"/>
</g>
<!-- Node22 -->
<g id="node23" class="node">
<title>Node22</title>
<g id="a_node23"><a xlink:href="spec_2packet__io__stats_8h.html" target="_top" xlink:title="ODP Packet IO. ">
<polygon fill="#ffffff" stroke="#000000" points="824,-56.5 824,-86.5 938,-86.5 938,-56.5 824,-56.5"/>
<text text-anchor="start" x="832" y="-74.5" font-family="Helvetica,sans-Serif" font-size="10.00" fill="#000000">odp/api/spec/packet</text>
<text text-anchor="middle" x="881" y="-63.5" font-family="Helvetica,sans-Serif" font-size="10.00" fill="#000000">_io_stats.h</text>
</a>
</g>
</g>
<!-- Node21&#45;&gt;Node22 -->
<g id="edge29" class="edge">
<title>Node21&#45;&gt;Node22</title>
<path fill="none" stroke="#191970" d="M893,-649.4116C893,-630.0538 893,-584.9167 893,-547 893,-547 893,-547 893,-435 893,-355.4395 891,-335.5605 891,-256 891,-256 891,-256 891,-194.5 891,-160.5336 887.1648,-121.4641 884.2446,-96.639"/>
<polygon fill="#191970" stroke="#191970" points="887.7073,-96.1199 883.0236,-86.6165 880.7586,-96.9664 887.7073,-96.1199"/>
</g>
<!-- Node22&#45;&gt;Node3 -->
<g id="edge30" class="edge">
<title>Node22&#45;&gt;Node3</title>
<path fill="none" stroke="#191970" d="M823.7645,-58.0495C820.8006,-57.3557 817.8654,-56.6693 815,-56 765.103,-44.3448 708.1133,-31.1132 668.1273,-21.8427"/>
<polygon fill="#191970" stroke="#191970" points="668.8745,-18.4231 658.3424,-19.5745 667.2937,-25.2423 668.8745,-18.4231"/>
</g>
<!-- Node22&#45;&gt;Node11 -->
<g id="edge31" class="edge">
<title>Node22&#45;&gt;Node11</title>
<path fill="none" stroke="#191970" d="M938.3993,-64.5647C1033.5393,-53.0694 1223.3676,-30.1334 1323.9356,-17.9822"/>
<polygon fill="#191970" stroke="#191970" points="1324.466,-21.4437 1333.9739,-16.7694 1323.6262,-14.4942 1324.466,-21.4437"/>
</g>
<!-- Node23&#45;&gt;Node4 -->
<g id="edge33" class="edge">
<title>Node23&#45;&gt;Node4</title>
<path fill="none" stroke="#191970" d="M748.2877,-649.2787C713.9702,-610.765 585.5834,-464.576 495,-333 481.7668,-313.7782 468.5176,-290.5001 459.8582,-274.6046"/>
<polygon fill="#191970" stroke="#191970" points="462.9215,-272.9112 455.1008,-265.7637 456.7573,-276.2282 462.9215,-272.9112"/>
</g>
<!-- Node23&#45;&gt;Node13 -->
<g id="edge37" class="edge">
<title>Node23&#45;&gt;Node13</title>
<path fill="none" stroke="#191970" d="M804.5388,-650.3453C807.7361,-649.8603 810.912,-649.406 814,-649 994.9234,-625.2118 1046.7203,-660.1659 1223,-613 1290.2301,-595.0118 1365,-616.5949 1365,-547 1365,-547 1365,-547 1365,-491 1365,-458.1675 1373.8257,-420.834 1380.034,-398.634"/>
<polygon fill="#191970" stroke="#191970" points="1383.4701,-399.3521 1382.9014,-388.7725 1376.7485,-397.3977 1383.4701,-399.3521"/>
</g>
<!-- Node23&#45;&gt;Node17 -->
<g id="edge35" class="edge">
<title>Node23&#45;&gt;Node17</title>
<path fill="none" stroke="#191970" d="M710.8921,-649.4369C664.3925,-639.7925 592.5641,-624.8948 542.86,-614.5858"/>
<polygon fill="#191970" stroke="#191970" points="543.4201,-611.1275 532.9177,-612.5237 541.9985,-617.9817 543.4201,-611.1275"/>
</g>
<!-- Node24 -->
<g id="node25" class="node">
<title>Node24</title>
<polygon fill="#ffffff" stroke="#bfbfbf" points="1168,-369.5 1168,-388.5 1278,-388.5 1278,-369.5 1168,-369.5"/>
<text text-anchor="middle" x="1223" y="-376.5" font-family="Helvetica,sans-Serif" font-size="10.00" fill="#000000">odp/api/abi/event.h</text>
</g>
<!-- Node23&#45;&gt;Node24 -->
<g id="edge34" class="edge">
<title>Node23&#45;&gt;Node24</title>
<path fill="none" stroke="#191970" d="M804.5723,-650.5723C807.7615,-650.0325 810.9265,-649.504 814,-649 916.0412,-632.2684 1268,-650.4038 1268,-547 1268,-547 1268,-547 1268,-491 1268,-455.7698 1248.5922,-418.5087 1235.2676,-397.0783"/>
<polygon fill="#191970" stroke="#191970" points="1238.1988,-395.1655 1229.8345,-388.6623 1232.3178,-398.9621 1238.1988,-395.1655"/>
</g>
<!-- Node25 -->
<g id="node26" class="node">
<title>Node25</title>
<polygon fill="#ffffff" stroke="#bfbfbf" points="755,-369.5 755,-388.5 865,-388.5 865,-369.5 755,-369.5"/>
<text text-anchor="middle" x="810" y="-376.5" font-family="Helvetica,sans-Serif" font-size="10.00" fill="#000000">odp/api/abi/buffer.h</text>
</g>
<!-- Node23&#45;&gt;Node25 -->
<g id="edge36" class="edge">
<title>Node23&#45;&gt;Node25</title>
<path fill="none" stroke="#191970" d="M762.0168,-649.4109C771.4745,-630.4144 791,-586.4221 791,-547 791,-547 791,-547 791,-491 791,-458.2688 798.9852,-420.9052 804.6022,-398.6716"/>
<polygon fill="#191970" stroke="#191970" points="808.0415,-399.3545 807.1965,-388.7934 801.2711,-397.5763 808.0415,-399.3545"/>
</g>
<!-- Node26 -->
<g id="node27" class="node">
<title>Node26</title>
<g id="a_node27"><a xlink:href="spec_2queue_8h.html" target="_top" xlink:title="ODP queue. ">
<polygon fill="#ffffff" stroke="#000000" points="921,-593.5 921,-612.5 1041,-612.5 1041,-593.5 921,-593.5"/>
<text text-anchor="middle" x="981" y="-600.5" font-family="Helvetica,sans-Serif" font-size="10.00" fill="#000000">odp/api/spec/queue.h</text>
</a>
</g>
</g>
<!-- Node23&#45;&gt;Node26 -->
<g id="edge38" class="edge">
<title>Node23&#45;&gt;Node26</title>
<path fill="none" stroke="#191970" d="M795.2525,-649.4369C833.3467,-639.9133 891.9313,-625.2672 933.0987,-614.9753"/>
<polygon fill="#191970" stroke="#191970" points="934.0528,-618.3446 942.9053,-612.5237 932.355,-611.5536 934.0528,-618.3446"/>
</g>
<!-- Node26&#45;&gt;Node3 -->
<g id="edge39" class="edge">
<title>Node26&#45;&gt;Node3</title>
<path fill="none" stroke="#191970" d="M945.0417,-593.4329C878.2406,-574.2697 732.9874,-525.9357 636,-445 582.9411,-400.7224 547,-386.6068 547,-317.5 547,-317.5 547,-317.5 547,-256 547,-220.6422 546.7239,-208.3452 527,-179 503.7939,-144.474 486.9426,-145.5739 452,-123 424.2612,-105.08 403.7659,-115.4513 387,-87 380.0051,-75.1299 378.265,-66.6549 387,-56 406.8901,-31.738 486.1613,-20.0176 546.125,-14.5309"/>
<polygon fill="#191970" stroke="#191970" points="546.6654,-17.9971 556.3229,-13.64 546.0562,-11.0236 546.6654,-17.9971"/>
</g>
<!-- Node26&#45;&gt;Node11 -->
<g id="edge74" class="edge">
<title>Node26&#45;&gt;Node11</title>
<path fill="none" stroke="#191970" d="M1019.9439,-593.4258C1046.6942,-585.8634 1082.3988,-573.7754 1111,-557 1220.2026,-492.9497 1211.9309,-425.9476 1325,-369 1392.812,-334.8463 1429.4893,-376.097 1492,-333 1525.5941,-309.8391 1542,-296.8043 1542,-256 1542,-256 1542,-256 1542,-133 1542,-75.5987 1475.6847,-40.3636 1430.6591,-23.0557"/>
<polygon fill="#191970" stroke="#191970" points="1431.7195,-19.7163 1421.1263,-19.5336 1429.2935,-26.2825 1431.7195,-19.7163"/>
</g>
<!-- Node27 -->
<g id="node28" class="node">
<title>Node27</title>
<g id="a_node28"><a xlink:href="event_8h.html" target="_top" xlink:title="ODP event. ">
<polygon fill="#ffffff" stroke="#000000" points="1010,-537.5 1010,-556.5 1102,-556.5 1102,-537.5 1010,-537.5"/>
<text text-anchor="middle" x="1056" y="-544.5" font-family="Helvetica,sans-Serif" font-size="10.00" fill="#000000">odp/api/event.h</text>
</a>
</g>
</g>
<!-- Node26&#45;&gt;Node27 -->
<g id="edge40" class="edge">
<title>Node26&#45;&gt;Node27</title>
<path fill="none" stroke="#191970" d="M994.064,-593.2455C1005.3562,-584.814 1021.8845,-572.4729 1035.0271,-562.6598"/>
<polygon fill="#191970" stroke="#191970" points="1037.1669,-565.4301 1043.0857,-556.6427 1032.9789,-559.8211 1037.1669,-565.4301"/>
</g>
<!-- Node34 -->
<g id="node35" class="node">
<title>Node34</title>
<g id="a_node35"><a xlink:href="queue__types_8h.html" target="_top" xlink:title="ODP queue types. ">
<polygon fill="#ffffff" stroke="#000000" points="1049.5,-302.5 1049.5,-332.5 1160.5,-332.5 1160.5,-302.5 1049.5,-302.5"/>
<text text-anchor="start" x="1057.5" y="-320.5" font-family="Helvetica,sans-Serif" font-size="10.00" fill="#000000">odp/api/spec/queue</text>
<text text-anchor="middle" x="1105" y="-309.5" font-family="Helvetica,sans-Serif" font-size="10.00" fill="#000000">_types.h</text>
</a>
</g>
</g>
<!-- Node26&#45;&gt;Node34 -->
<g id="edge61" class="edge">
<title>Node26&#45;&gt;Node34</title>
<path fill="none" stroke="#191970" d="M979.2807,-593.4486C975.9626,-574.1572 969,-529.1337 969,-491 969,-491 969,-491 969,-435 969,-387.9142 1016.2553,-355.5118 1055.0556,-336.8428"/>
<polygon fill="#191970" stroke="#191970" points="1056.5875,-339.9906 1064.1955,-332.6172 1053.6499,-333.6368 1056.5875,-339.9906"/>
</g>
<!-- Node27&#45;&gt;Node24 -->
<g id="edge41" class="edge">
<title>Node27&#45;&gt;Node24</title>
<path fill="none" stroke="#191970" d="M1072.9276,-537.472C1087.3272,-528.9337 1108.1346,-515.5427 1124,-501 1159.6595,-468.3133 1193.4231,-422.366 1210.8045,-397.217"/>
<polygon fill="#191970" stroke="#191970" points="1213.8919,-398.9017 1216.6337,-388.6678 1208.1084,-394.9582 1213.8919,-398.9017"/>
</g>
<!-- Node28 -->
<g id="node29" class="node">
<title>Node28</title>
<g id="a_node29"><a xlink:href="spec_2event_8h.html" target="_top" xlink:title="ODP event. ">
<polygon fill="#ffffff" stroke="#000000" points="997,-481.5 997,-500.5 1115,-500.5 1115,-481.5 997,-481.5"/>
<text text-anchor="middle" x="1056" y="-488.5" font-family="Helvetica,sans-Serif" font-size="10.00" fill="#000000">odp/api/spec/event.h</text>
</a>
</g>
</g>
<!-- Node27&#45;&gt;Node28 -->
<g id="edge42" class="edge">
<title>Node27&#45;&gt;Node28</title>
<path fill="none" stroke="#191970" d="M1056,-537.2455C1056,-529.9382 1056,-519.6944 1056,-510.7046"/>
<polygon fill="#191970" stroke="#191970" points="1059.5001,-510.6426 1056,-500.6427 1052.5001,-510.6427 1059.5001,-510.6426"/>
</g>
<!-- Node28&#45;&gt;Node3 -->
<g id="edge43" class="edge">
<title>Node28&#45;&gt;Node3</title>
<path fill="none" stroke="#191970" d="M1044.4523,-481.4544C1019.471,-460.8243 958.5054,-410.585 907,-369 770.4203,-258.7267 736.3513,-231.0423 598,-123 577.2619,-106.8051 562.6479,-110.5939 551,-87 544.9009,-74.6457 544.6248,-68.2141 551,-56 558.1245,-42.3502 571.3523,-31.926 584.1056,-24.4806"/>
<polygon fill="#191970" stroke="#191970" points="586.0647,-27.4012 593.2141,-19.5822 582.7492,-21.2362 586.0647,-27.4012"/>
</g>
<!-- Node28&#45;&gt;Node11 -->
<g id="edge60" class="edge">
<title>Node28&#45;&gt;Node11</title>
<path fill="none" stroke="#191970" d="M1061.6176,-481.1826C1075.282,-458.1626 1112.5688,-400.296 1159,-369 1292.7937,-278.8189 1504,-417.3486 1504,-256 1504,-256 1504,-256 1504,-133 1504,-82.7008 1452.0841,-44.2744 1418.3217,-24.6028"/>
<polygon fill="#191970" stroke="#191970" points="1419.7714,-21.4029 1409.3385,-19.5575 1416.3435,-27.5062 1419.7714,-21.4029"/>
</g>
<!-- Node28&#45;&gt;Node29 -->
<g id="edge44" class="edge">
<title>Node28&#45;&gt;Node29</title>
<path fill="none" stroke="#191970" d="M996.6284,-481.8154C929.3754,-471.4117 820.4255,-454.5575 753.2307,-444.1628"/>
<polygon fill="#191970" stroke="#191970" points="753.6414,-440.6847 743.2238,-442.6147 752.5712,-447.6025 753.6414,-440.6847"/>
</g>
<!-- Node29&#45;&gt;Node4 -->
<g id="edge45" class="edge">
<title>Node29&#45;&gt;Node4</title>
<path fill="none" stroke="#191970" d="M671.7185,-425.4307C652.9819,-416.964 625.8359,-403.6973 604,-389 549.8525,-352.5546 493.6476,-299.4383 466.5598,-272.6987"/>
<polygon fill="#191970" stroke="#191970" points="468.9763,-270.1657 459.4192,-265.5925 464.0385,-275.1274 468.9763,-270.1657"/>
</g>
<!-- Node29&#45;&gt;Node13 -->
<g id="edge50" class="edge">
<title>Node29&#45;&gt;Node13</title>
<path fill="none" stroke="#191970" d="M743.2332,-431.5698C844.8994,-424.4007 1085.4109,-406.9976 1287,-389 1298.8967,-387.9379 1311.5887,-386.72 1323.7786,-385.5081"/>
<polygon fill="#191970" stroke="#191970" points="1324.2711,-388.9763 1333.8715,-384.4949 1323.5719,-382.0113 1324.2711,-388.9763"/>
</g>
<!-- Node29&#45;&gt;Node15 -->
<g id="edge48" class="edge">
<title>Node29&#45;&gt;Node15</title>
<path fill="none" stroke="#191970" d="M644.9934,-429.7091C572.9043,-421.8183 433.7788,-406.1802 305.1219,-389.118"/>
<polygon fill="#191970" stroke="#191970" points="305.4638,-385.6327 295.0892,-387.7817 304.5395,-392.5714 305.4638,-385.6327"/>
</g>
<!-- Node29&#45;&gt;Node16 -->
<g id="edge47" class="edge">
<title>Node29&#45;&gt;Node16</title>
<path fill="none" stroke="#191970" d="M644.9717,-426.3114C590.3191,-416.6262 501.7503,-400.9304 441.754,-390.2982"/>
<polygon fill="#191970" stroke="#191970" points="442.0977,-386.8046 431.6404,-388.5059 440.8762,-393.6972 442.0977,-386.8046"/>
</g>
<!-- Node29&#45;&gt;Node24 -->
<g id="edge46" class="edge">
<title>Node29&#45;&gt;Node24</title>
<path fill="none" stroke="#191970" d="M743.292,-429.7819C839.08,-419.6418 1050.3492,-397.2768 1157.6737,-385.9154"/>
<polygon fill="#191970" stroke="#191970" points="1158.1522,-389.3844 1167.7281,-384.8511 1157.4152,-382.4233 1158.1522,-389.3844"/>
</g>
<!-- Node29&#45;&gt;Node25 -->
<g id="edge49" class="edge">
<title>Node29&#45;&gt;Node25</title>
<path fill="none" stroke="#191970" d="M713.9411,-425.3733C732.4786,-416.4241 760.3028,-402.9917 781.2413,-392.8835"/>
<polygon fill="#191970" stroke="#191970" points="782.8352,-396.0006 790.3191,-388.5011 779.7919,-389.6967 782.8352,-396.0006"/>
</g>
<!-- Node30 -->
<g id="node31" class="node">
<title>Node30</title>
<g id="a_node31"><a xlink:href="spec_2packet_8h.html" target="_top" xlink:title="ODP packet descriptor. ">
<polygon fill="#ffffff" stroke="#000000" points="613.5,-369.5 613.5,-388.5 736.5,-388.5 736.5,-369.5 613.5,-369.5"/>
<text text-anchor="middle" x="675" y="-376.5" font-family="Helvetica,sans-Serif" font-size="10.00" fill="#000000">odp/api/spec/packet.h</text>
</a>
</g>
</g>
<!-- Node29&#45;&gt;Node30 -->
<g id="edge51" class="edge">
<title>Node29&#45;&gt;Node30</title>
<path fill="none" stroke="#191970" d="M690.6905,-425.2455C688.1567,-417.7776 684.5823,-407.2427 681.485,-398.1137"/>
<polygon fill="#191970" stroke="#191970" points="684.7991,-396.9879 678.2716,-388.6427 678.1702,-399.237 684.7991,-396.9879"/>
</g>
<!-- Node30&#45;&gt;Node3 -->
<g id="edge52" class="edge">
<title>Node30&#45;&gt;Node3</title>
<path fill="none" stroke="#191970" d="M661.6921,-369.4085C649.1853,-360.2907 630.0431,-346.0678 614,-333 568.584,-296.0068 566.8532,-273.2461 515,-246 456.9829,-215.5151 418.349,-256.3366 372,-210 332.1307,-170.1414 347.9417,-142.9472 341,-87 339.3035,-73.3271 332.0944,-66.5127 341,-56 354.1845,-40.4362 468.8738,-25.494 546.2001,-17.0573"/>
<polygon fill="#191970" stroke="#191970" points="546.8095,-20.512 556.3769,-15.9608 546.0595,-13.5523 546.8095,-20.512"/>
</g>
<!-- Node30&#45;&gt;Node11 -->
<g id="edge59" class="edge">
<title>Node30&#45;&gt;Node11</title>
<path fill="none" stroke="#191970" d="M736.5472,-370.1194C739.7421,-369.7248 742.9076,-369.3488 746,-369 1026.6224,-337.3491 1123.4452,-398.1859 1373,-266 1419.0729,-241.5958 1466,-246.637 1466,-194.5 1466,-194.5 1466,-194.5 1466,-133 1466,-89.4388 1431.0757,-48.4145 1408.5765,-26.5053"/>
<polygon fill="#191970" stroke="#191970" points="1410.8962,-23.8822 1401.2141,-19.5801 1406.1001,-28.981 1410.8962,-23.8822"/>
</g>
<!-- Node30&#45;&gt;Node31 -->
<g id="edge53" class="edge">
<title>Node30&#45;&gt;Node31</title>
<path fill="none" stroke="#191970" d="M673.75,-369.3906C672.6411,-360.8657 670.9856,-348.1392 669.5917,-337.4235"/>
<polygon fill="#191970" stroke="#191970" points="673.0284,-336.7098 668.2676,-327.2449 666.0869,-337.6128 673.0284,-336.7098"/>
</g>
<!-- Node31&#45;&gt;Node4 -->
<g id="edge54" class="edge">
<title>Node31&#45;&gt;Node4</title>
<path fill="none" stroke="#191970" d="M633.0938,-307.8906C595.4321,-297.2169 534.5298,-279.9566 493.4115,-268.3033"/>
<polygon fill="#191970" stroke="#191970" points="494.2436,-264.9013 483.6682,-265.5419 492.3349,-271.6361 494.2436,-264.9013"/>
</g>
<!-- Node32 -->
<g id="node33" class="node">
<title>Node32</title>
<polygon fill="#ffffff" stroke="#bfbfbf" points="614.5,-246.5 614.5,-265.5 719.5,-265.5 719.5,-246.5 614.5,-246.5"/>
<text text-anchor="middle" x="667" y="-253.5" font-family="Helvetica,sans-Serif" font-size="10.00" fill="#000000">odp/api/abi/time.h</text>
</g>
<!-- Node31&#45;&gt;Node32 -->
<g id="edge55" class="edge">
<title>Node31&#45;&gt;Node32</title>
<path fill="none" stroke="#191970" d="M667,-307.8906C667,-299.3657 667,-286.6392 667,-275.9235"/>
<polygon fill="#191970" stroke="#191970" points="670.5001,-275.7448 667,-265.7449 663.5001,-275.7449 670.5001,-275.7448"/>
</g>
<!-- Node33 -->
<g id="node34" class="node">
<title>Node33</title>
<g id="a_node34"><a xlink:href="spec_2time_8h.html" target="_top" xlink:title="ODP time. ">
<polygon fill="#ffffff" stroke="#000000" points="692.5,-62 692.5,-81 805.5,-81 805.5,-62 692.5,-62"/>
<text text-anchor="middle" x="749" y="-69" font-family="Helvetica,sans-Serif" font-size="10.00" fill="#000000">odp/api/spec/time.h</text>
</a>
</g>
</g>
<!-- Node31&#45;&gt;Node33 -->
<g id="edge56" class="edge">
<title>Node31&#45;&gt;Node33</title>
<path fill="none" stroke="#191970" d="M684.41,-307.9421C698.7188,-299.0767 718.1765,-284.4796 728,-266 758.4968,-208.6308 755.142,-128.3939 751.4981,-91.4994"/>
<polygon fill="#191970" stroke="#191970" points="754.9288,-90.6807 750.3474,-81.1276 747.9715,-91.4526 754.9288,-90.6807"/>
</g>
<!-- Node33&#45;&gt;Node3 -->
<g id="edge57" class="edge">
<title>Node33&#45;&gt;Node3</title>
<path fill="none" stroke="#191970" d="M728.375,-61.8906C706.4827,-51.6908 671.6807,-35.4763 646.8073,-23.8875"/>
<polygon fill="#191970" stroke="#191970" points="648.0228,-20.5926 637.4802,-19.5419 645.0665,-26.9377 648.0228,-20.5926"/>
</g>
<!-- Node33&#45;&gt;Node11 -->
<g id="edge58" class="edge">
<title>Node33&#45;&gt;Node11</title>
<path fill="none" stroke="#191970" d="M785.1172,-61.9816C794.7684,-59.7231 805.232,-57.5288 815,-56 997.8319,-27.3852 1216.3149,-16.1127 1323.7177,-12.0555"/>
<polygon fill="#191970" stroke="#191970" points="1323.8957,-15.5514 1333.7599,-11.685 1323.6376,-8.5561 1323.8957,-15.5514"/>
</g>
<!-- Node34&#45;&gt;Node3 -->
<g id="edge62" class="edge">
<title>Node34&#45;&gt;Node3</title>
<path fill="none" stroke="#191970" d="M1078.7639,-302.2995C1064.8842,-293.2016 1048.4044,-280.5813 1037,-266 974.4416,-186.0153 1027.7017,-117.6308 947,-56 907.5169,-25.8473 772.4526,-15.4485 687.8459,-11.8698"/>
<polygon fill="#191970" stroke="#191970" points="687.9202,-8.37 677.7879,-11.4663 687.6396,-15.3644 687.9202,-8.37"/>
</g>
<!-- Node34&#45;&gt;Node11 -->
<g id="edge73" class="edge">
<title>Node34&#45;&gt;Node11</title>
<path fill="none" stroke="#191970" d="M1160.6629,-311.2731C1207.8963,-304.5112 1276.6154,-291.1293 1332,-266 1380.4468,-244.0186 1428,-247.7003 1428,-194.5 1428,-194.5 1428,-194.5 1428,-133 1428,-94.6461 1410.9248,-52.4423 1399.6666,-28.7843"/>
<polygon fill="#191970" stroke="#191970" points="1402.6861,-26.9938 1395.1248,-19.5723 1396.4077,-30.0892 1402.6861,-26.9938"/>
</g>
<!-- Node34&#45;&gt;Node19 -->
<g id="edge72" class="edge">
<title>Node34&#45;&gt;Node19</title>
<path fill="none" stroke="#191970" d="M1105,-302.2977C1105,-294.3834 1105,-284.6043 1105,-276.0759"/>
<polygon fill="#191970" stroke="#191970" points="1108.5001,-275.8469 1105,-265.8469 1101.5001,-275.847 1108.5001,-275.8469"/>
</g>
<!-- Node35 -->
<g id="node36" class="node">
<title>Node35</title>
<g id="a_node36"><a xlink:href="schedule__types_8h.html" target="_top" xlink:title="ODP schedule. ">
<polygon fill="#ffffff" stroke="#000000" points="1183,-246.5 1183,-265.5 1323,-265.5 1323,-246.5 1183,-246.5"/>
<text text-anchor="middle" x="1253" y="-253.5" font-family="Helvetica,sans-Serif" font-size="10.00" fill="#000000">odp/api/schedule_types.h</text>
</a>
</g>
</g>
<!-- Node34&#45;&gt;Node35 -->
<g id="edge63" class="edge">
<title>Node34&#45;&gt;Node35</title>
<path fill="none" stroke="#191970" d="M1141.2049,-302.4554C1165.4658,-292.374 1197.1356,-279.2139 1220.5712,-269.4755"/>
<polygon fill="#191970" stroke="#191970" points="1222.1739,-272.5997 1230.0653,-265.5303 1219.4877,-266.1356 1222.1739,-272.5997"/>
</g>
<!-- Node36 -->
<g id="node37" class="node">
<title>Node36</title>
<polygon fill="#ffffff" stroke="#bfbfbf" points="1282.5,-179.5 1282.5,-209.5 1399.5,-209.5 1399.5,-179.5 1282.5,-179.5"/>
<text text-anchor="start" x="1290.5" y="-197.5" font-family="Helvetica,sans-Serif" font-size="10.00" fill="#000000">odp/api/abi/schedule</text>
<text text-anchor="middle" x="1341" y="-186.5" font-family="Helvetica,sans-Serif" font-size="10.00" fill="#000000">_types.h</text>
</g>
<!-- Node35&#45;&gt;Node36 -->
<g id="edge64" class="edge">
<title>Node35&#45;&gt;Node36</title>
<path fill="none" stroke="#191970" d="M1266.75,-246.3906C1278.5495,-238.1444 1295.9742,-225.9669 1310.9788,-215.4807"/>
<polygon fill="#191970" stroke="#191970" points="1313.281,-218.1419 1319.4728,-209.5446 1309.2711,-212.4042 1313.281,-218.1419"/>
</g>
<!-- Node37 -->
<g id="node38" class="node">
<title>Node37</title>
<g id="a_node38"><a xlink:href="spec_2schedule__types_8h.html" target="_top" xlink:title="ODP schedule types. ">
<polygon fill="#ffffff" stroke="#000000" points="1139.5,-179.5 1139.5,-209.5 1264.5,-209.5 1264.5,-179.5 1139.5,-179.5"/>
<text text-anchor="start" x="1147.5" y="-197.5" font-family="Helvetica,sans-Serif" font-size="10.00" fill="#000000">odp/api/spec/schedule</text>
<text text-anchor="middle" x="1202" y="-186.5" font-family="Helvetica,sans-Serif" font-size="10.00" fill="#000000">_types.h</text>
</a>
</g>
</g>
<!-- Node35&#45;&gt;Node37 -->
<g id="edge65" class="edge">
<title>Node35&#45;&gt;Node37</title>
<path fill="none" stroke="#191970" d="M1245.0313,-246.3906C1238.5764,-238.6068 1229.2168,-227.3202 1220.8739,-217.2597"/>
<polygon fill="#191970" stroke="#191970" points="1223.5536,-215.008 1214.476,-209.5446 1218.1652,-219.4764 1223.5536,-215.008"/>
</g>
<!-- Node37&#45;&gt;Node3 -->
<g id="edge66" class="edge">
<title>Node37&#45;&gt;Node3</title>
<path fill="none" stroke="#191970" d="M1175.7032,-179.3993C1140.6526,-159.0955 1076.8958,-121.5453 1024,-87 1003.9713,-73.9196 1002.3036,-64.6484 980,-56 928.2452,-35.9316 777.9797,-21.8255 687.8249,-14.8939"/>
<polygon fill="#191970" stroke="#191970" points="687.9143,-11.3907 677.6783,-14.1245 687.385,-18.3707 687.9143,-11.3907"/>
</g>
<!-- Node37&#45;&gt;Node11 -->
<g id="edge71" class="edge">
<title>Node37&#45;&gt;Node11</title>
<path fill="none" stroke="#191970" d="M1246.5551,-179.4673C1286.6365,-163.3764 1343.3425,-133.6657 1371,-87 1381.4952,-69.2918 1386.212,-46.0063 1388.3202,-29.6968"/>
<polygon fill="#191970" stroke="#191970" points="1391.8086,-29.9922 1389.4019,-19.6744 1384.849,-29.2411 1391.8086,-29.9922"/>
</g>
<!-- Node38 -->
<g id="node39" class="node">
<title>Node38</title>
<g id="a_node39"><a xlink:href="support_8h.html" target="_top" xlink:title="ODP support API &#45; platform specific header. ">
<polygon fill="#ffffff" stroke="#000000" points="1199.5,-123.5 1199.5,-142.5 1300.5,-142.5 1300.5,-123.5 1199.5,-123.5"/>
<text text-anchor="middle" x="1250" y="-130.5" font-family="Helvetica,sans-Serif" font-size="10.00" fill="#000000">odp/api/support.h</text>
</a>
</g>
</g>
<!-- Node37&#45;&gt;Node38 -->
<g id="edge67" class="edge">
<title>Node37&#45;&gt;Node38</title>
<path fill="none" stroke="#191970" d="M1213.8652,-179.2977C1220.5975,-170.672 1229.0585,-159.8312 1236.1006,-150.8087"/>
<polygon fill="#191970" stroke="#191970" points="1238.921,-152.8836 1242.3146,-142.8469 1233.4027,-148.5766 1238.921,-152.8836"/>
</g>
<!-- Node39 -->
<g id="node40" class="node">
<title>Node39</title>
<g id="a_node40"><a xlink:href="spec_2support_8h.html" target="_top" xlink:title="ODP support API. ">
<polygon fill="#ffffff" stroke="#000000" points="1234.5,-62 1234.5,-81 1361.5,-81 1361.5,-62 1234.5,-62"/>
<text text-anchor="middle" x="1298" y="-69" font-family="Helvetica,sans-Serif" font-size="10.00" fill="#000000">odp/api/spec/support.h</text>
</a>
</g>
</g>
<!-- Node38&#45;&gt;Node39 -->
<g id="edge68" class="edge">
<title>Node38&#45;&gt;Node39</title>
<path fill="none" stroke="#191970" d="M1257.5,-123.3906C1264.5738,-114.3273 1275.3542,-100.5149 1284.0146,-89.4188"/>
<polygon fill="#191970" stroke="#191970" points="1287.0006,-91.2815 1290.3943,-81.2449 1281.4824,-86.9746 1287.0006,-91.2815"/>
</g>
<!-- Node39&#45;&gt;Node3 -->
<g id="edge69" class="edge">
<title>Node39&#45;&gt;Node3</title>
<path fill="none" stroke="#191970" d="M1234.3925,-61.9696C1218.9069,-59.8287 1202.3761,-57.6925 1187,-56 1007.7498,-36.2688 795.908,-21.3794 687.9657,-14.3943"/>
<polygon fill="#191970" stroke="#191970" points="688.0528,-10.8928 677.8486,-13.7431 687.6031,-17.8783 688.0528,-10.8928"/>
</g>
<!-- Node39&#45;&gt;Node11 -->
<g id="edge70" class="edge">
<title>Node39&#45;&gt;Node11</title>
<path fill="none" stroke="#191970" d="M1312.375,-61.8906C1327.0931,-52.0519 1350.1832,-36.6167 1367.3589,-25.1351"/>
<polygon fill="#191970" stroke="#191970" points="1369.3575,-28.0091 1375.7259,-19.5419 1365.4673,-22.1896 1369.3575,-28.0091"/>
</g>
</g>
</svg>
